<?xml version="1.0" standalone="no"?>
 <!DOCTYPE svg PUBLIC "-//W3C//DTD SVG 1.1//EN" 
 "http://www.w3.org/Graphics/SVG/1.1/DTD/svg11.dtd"> 
<svg
  xmlns:svg="http://www.w3.org/2000/svg"
  xmlns="http://www.w3.org/2000/svg"
  xmlns:xlink="http://www.w3.org/1999/xlink"
  version="1.1"
  width="419.9890mm" height="297.0022mm" viewBox="0.0000 0.0000 419.9890 297.0022">
<title>SVG Image created as keyboard-split-splay-5x3+2-pinky-cluster-User_2.svg date 2026/01/11 12:13:59 </title>
  <desc>Image generated by PCBNEW </desc>
<g style="fill:#000000; fill-opacity:1.0000;stroke:#000000; stroke-opacity:1.0000;
stroke-linecap:round; stroke-linejoin:round;"
 transform="translate(0 0) scale(1 1)">
</g>
<g style="fill:none; 
stroke:#000000; stroke-width:0.1000; stroke-opacity:1; 
stroke-linecap:round; stroke-linejoin:round;">
<circle cx="248.0000" cy="103.0000" r="1.1000" /> 
<circle cx="290.0500" cy="129.2500" r="1.1000" /> 
<circle cx="238.2500" cy="143.0000" r="1.1000" /> 
<circle cx="144.8000" cy="155.0000" r="1.1000" /> 
<circle cx="209.8000" cy="108.5000" r="1.1000" /> 
<circle cx="190.8000" cy="155.0000" r="1.1000" /> 
<circle cx="87.6000" cy="103.0000" r="1.1000" /> 
<circle cx="45.5500" cy="129.2500" r="1.1000" /> 
<circle cx="97.3500" cy="143.0000" r="1.1000" /> 
<circle cx="125.8000" cy="108.5000" r="1.1000" /> 
</g>
<g style="fill:none; 
stroke:#000000; stroke-width:0.0500; stroke-opacity:1; 
stroke-linecap:round; stroke-linejoin:round;">
<circle cx="290.0500" cy="129.2500" r="3.0500" /> 
<circle cx="87.6000" cy="103.0000" r="3.0500" /> 
<circle cx="125.8000" cy="108.5000" r="3.0500" /> 
<circle cx="238.2500" cy="143.0000" r="3.0500" /> 
<circle cx="97.3500" cy="143.0000" r="3.0500" /> 
<circle cx="209.8000" cy="108.5000" r="3.0500" /> 
<circle cx="248.0000" cy="103.0000" r="3.0500" /> 
<circle cx="190.8000" cy="155.0000" r="3.0500" /> 
<circle cx="144.8000" cy="155.0000" r="3.0500" /> 
<circle cx="45.5500" cy="129.2500" r="3.0500" /> 
<path d="M231.1000 125.5000
L245.1000 125.5000
" />
<path d="M231.1000 139.5000
L231.1000 125.5000
" />
<path d="M238.1000 139.5000
L231.1000 139.5000
" />
<path d="M245.1000 125.5000
L245.1000 139.5000
" />
<path d="M245.1000 139.5000
L238.1000 139.5000
" />
<path d="M192.6000 95.5000
L206.6000 95.5000
" />
<path d="M192.6000 109.5000
L192.6000 95.5000
" />
<path d="M199.6000 109.5000
L192.6000 109.5000
" />
<path d="M206.6000 95.5000
L206.6000 109.5000
" />
<path d="M206.6000 109.5000
L199.6000 109.5000
" />
<path d="M109.7500 92.2500
L123.7500 92.2500
" />
<path d="M109.7500 106.2500
L109.7500 92.2500
" />
<path d="M116.7500 106.2500
L109.7500 106.2500
" />
<path d="M123.7500 92.2500
L123.7500 106.2500
" />
<path d="M123.7500 106.2500
L116.7500 106.2500
" />
<path d="M252.7432 104.6241
L253.4759 90.6432
" />
<path d="M253.4759 90.6432
L267.4568 91.3759
" />
<path d="M259.7336 104.9904
L252.7432 104.6241
" />
<path d="M266.7241 105.3568
L259.7336 104.9904
" />
<path d="M267.4568 91.3759
L266.7241 105.3568
" />
<path d="M289.4908 146.9281
L291.9219 133.1408
" />
<path d="M291.9219 133.1408
L305.7092 135.5719
" />
<path d="M296.3845 148.1437
L289.4908 146.9281
" />
<path d="M303.2781 149.3592
L296.3845 148.1437
" />
<path d="M305.7092 135.5719
L303.2781 149.3592
" />
<path d="M45.4908 113.3219
L59.2781 110.8908
" />
<path d="M47.9219 127.1092
L45.4908 113.3219
" />
<path d="M54.8155 125.8937
L47.9219 127.1092
" />
<path d="M59.2781 110.8908
L61.7092 124.6781
" />
<path d="M61.7092 124.6781
L54.8155 125.8937
" />
<path d="M174.8780 162.8163
L188.0337 158.0280
" />
<path d="M179.6663 175.9720
L174.8780 162.8163
" />
<path d="M186.2441 173.5778
L179.6663 175.9720
" />
<path d="M188.0337 158.0280
L192.8220 171.1837
" />
<path d="M192.8220 171.1837
L186.2441 173.5778
" />
<path d="M251.7432 123.8741
L252.4759 109.8932
" />
<path d="M252.4759 109.8932
L266.4568 110.6259
" />
<path d="M258.7336 124.2404
L251.7432 123.8741
" />
<path d="M265.7241 124.6068
L258.7336 124.2404
" />
<path d="M266.4568 110.6259
L265.7241 124.6068
" />
<path d="M211.8500 111.5000
L225.8500 111.5000
" />
<path d="M211.8500 125.5000
L211.8500 111.5000
" />
<path d="M218.8500 125.5000
L211.8500 125.5000
" />
<path d="M225.8500 111.5000
L225.8500 125.5000
" />
<path d="M225.8500 125.5000
L218.8500 125.5000
" />
<path d="M68.1432 91.3759
L82.1241 90.6432
" />
<path d="M68.8759 105.3568
L68.1432 91.3759
" />
<path d="M75.8664 104.9904
L68.8759 105.3568
" />
<path d="M82.1241 90.6432
L82.8568 104.6241
" />
<path d="M82.8568 104.6241
L75.8664 104.9904
" />
<path d="M90.5000 106.2500
L104.5000 106.2500
" />
<path d="M90.5000 120.2500
L90.5000 106.2500
" />
<path d="M97.5000 120.2500
L90.5000 120.2500
" />
<path d="M104.5000 106.2500
L104.5000 120.2500
" />
<path d="M104.5000 120.2500
L97.5000 120.2500
" />
<path d="M109.7500 111.5000
L123.7500 111.5000
" />
<path d="M109.7500 125.5000
L109.7500 111.5000
" />
<path d="M116.7500 125.5000
L109.7500 125.5000
" />
<path d="M123.7500 111.5000
L123.7500 125.5000
" />
<path d="M123.7500 125.5000
L116.7500 125.5000
" />
<path d="M69.1432 110.6259
L83.1241 109.8932
" />
<path d="M69.8759 124.6068
L69.1432 110.6259
" />
<path d="M76.8664 124.2404
L69.8759 124.6068
" />
<path d="M83.1241 109.8932
L83.8568 123.8741
" />
<path d="M83.8568 123.8741
L76.8664 124.2404
" />
<path d="M270.4908 143.6781
L272.9219 129.8908
" />
<path d="M272.9219 129.8908
L286.7092 132.3219
" />
<path d="M277.3845 144.8937
L270.4908 143.6781
" />
<path d="M284.2781 146.1092
L277.3845 144.8937
" />
<path d="M286.7092 132.3219
L284.2781 146.1092
" />
<path d="M273.8908 124.6781
L276.3219 110.8908
" />
<path d="M276.3219 110.8908
L290.1092 113.3219
" />
<path d="M280.7845 125.8937
L273.8908 124.6781
" />
<path d="M287.6781 127.1092
L280.7845 125.8937
" />
<path d="M290.1092 113.3219
L287.6781 127.1092
" />
<path d="M29.8908 135.5719
L43.6781 133.1408
" />
<path d="M32.3219 149.3592
L29.8908 135.5719
" />
<path d="M39.2155 148.1437
L32.3219 149.3592
" />
<path d="M43.6781 133.1408
L46.1092 146.9281
" />
<path d="M46.1092 146.9281
L39.2155 148.1437
" />
<path d="M231.1000 87.0000
L245.1000 87.0000
" />
<path d="M231.1000 101.0000
L231.1000 87.0000
" />
<path d="M238.1000 101.0000
L231.1000 101.0000
" />
<path d="M245.1000 87.0000
L245.1000 101.0000
" />
<path d="M245.1000 101.0000
L238.1000 101.0000
" />
<path d="M129.0000 95.5000
L143.0000 95.5000
" />
<path d="M129.0000 109.5000
L129.0000 95.5000
" />
<path d="M136.0000 109.5000
L129.0000 109.5000
" />
<path d="M143.0000 95.5000
L143.0000 109.5000
" />
<path d="M143.0000 109.5000
L136.0000 109.5000
" />
<path d="M123.4908 167.1781
L125.9219 153.3908
" />
<path d="M125.9219 153.3908
L139.7092 155.8219
" />
<path d="M130.3845 168.3937
L123.4908 167.1781
" />
<path d="M137.2781 169.6092
L130.3845 168.3937
" />
<path d="M139.7092 155.8219
L137.2781 169.6092
" />
<path d="M142.7780 171.1837
L147.5663 158.0280
" />
<path d="M147.5663 158.0280
L160.7220 162.8163
" />
<path d="M149.3559 173.5778
L142.7780 171.1837
" />
<path d="M155.9337 175.9720
L149.3559 173.5778
" />
<path d="M160.7220 162.8163
L155.9337 175.9720
" />
<path d="M109.7500 130.7500
L123.7500 130.7500
" />
<path d="M109.7500 144.7500
L109.7500 130.7500
" />
<path d="M116.7500 144.7500
L109.7500 144.7500
" />
<path d="M123.7500 130.7500
L123.7500 144.7500
" />
<path d="M123.7500 144.7500
L116.7500 144.7500
" />
<path d="M90.5000 87.0000
L104.5000 87.0000
" />
<path d="M90.5000 101.0000
L90.5000 87.0000
" />
<path d="M97.5000 101.0000
L90.5000 101.0000
" />
<path d="M104.5000 87.0000
L104.5000 101.0000
" />
<path d="M104.5000 101.0000
L97.5000 101.0000
" />
<path d="M192.6000 134.0000
L206.6000 134.0000
" />
<path d="M192.6000 148.0000
L192.6000 134.0000
" />
<path d="M199.6000 148.0000
L192.6000 148.0000
" />
<path d="M206.6000 134.0000
L206.6000 148.0000
" />
<path d="M206.6000 148.0000
L199.6000 148.0000
" />
<path d="M129.0000 114.7500
L143.0000 114.7500
" />
<path d="M129.0000 128.7500
L129.0000 114.7500
" />
<path d="M136.0000 128.7500
L129.0000 128.7500
" />
<path d="M143.0000 114.7500
L143.0000 128.7500
" />
<path d="M143.0000 128.7500
L136.0000 128.7500
" />
<path d="M231.1000 106.2500
L245.1000 106.2500
" />
<path d="M231.1000 120.2500
L231.1000 106.2500
" />
<path d="M238.1000 120.2500
L231.1000 120.2500
" />
<path d="M245.1000 106.2500
L245.1000 120.2500
" />
<path d="M245.1000 120.2500
L238.1000 120.2500
" />
<path d="M211.8500 130.7500
L225.8500 130.7500
" />
<path d="M211.8500 144.7500
L211.8500 130.7500
" />
<path d="M218.8500 144.7500
L211.8500 144.7500
" />
<path d="M225.8500 130.7500
L225.8500 144.7500
" />
<path d="M225.8500 144.7500
L218.8500 144.7500
" />
<path d="M70.1432 129.8759
L84.1241 129.1432
" />
<path d="M70.8759 143.8568
L70.1432 129.8759
" />
<path d="M77.8664 143.4904
L70.8759 143.8568
" />
<path d="M84.1241 129.1432
L84.8568 143.1241
" />
<path d="M84.8568 143.1241
L77.8664 143.4904
" />
<path d="M90.5000 125.5000
L104.5000 125.5000
" />
<path d="M90.5000 139.5000
L90.5000 125.5000
" />
<path d="M97.5000 139.5000
L90.5000 139.5000
" />
<path d="M104.5000 125.5000
L104.5000 139.5000
" />
<path d="M104.5000 139.5000
L97.5000 139.5000
" />
<path d="M26.4908 116.5719
L40.2781 114.1408
" />
<path d="M28.9219 130.3592
L26.4908 116.5719
" />
<path d="M35.8155 129.1437
L28.9219 130.3592
" />
<path d="M40.2781 114.1408
L42.7092 127.9281
" />
<path d="M42.7092 127.9281
L35.8155 129.1437
" />
<path d="M195.8908 155.8219
L209.6781 153.3908
" />
<path d="M198.3219 169.6092
L195.8908 155.8219
" />
<path d="M205.2155 168.3937
L198.3219 169.6092
" />
<path d="M209.6781 153.3908
L212.1092 167.1781
" />
<path d="M212.1092 167.1781
L205.2155 168.3937
" />
<path d="M250.7432 143.1241
L251.4759 129.1432
" />
<path d="M251.4759 129.1432
L265.4568 129.8759
" />
<path d="M257.7336 143.4904
L250.7432 143.1241
" />
<path d="M264.7241 143.8568
L257.7336 143.4904
" />
<path d="M265.4568 129.8759
L264.7241 143.8568
" />
<path d="M211.8500 92.2500
L225.8500 92.2500
" />
<path d="M211.8500 106.2500
L211.8500 92.2500
" />
<path d="M218.8500 106.2500
L211.8500 106.2500
" />
<path d="M225.8500 92.2500
L225.8500 106.2500
" />
<path d="M225.8500 106.2500
L218.8500 106.2500
" />
<path d="M48.8908 132.3219
L62.6781 129.8908
" />
<path d="M51.3219 146.1092
L48.8908 132.3219
" />
<path d="M58.2155 144.8937
L51.3219 146.1092
" />
<path d="M62.6781 129.8908
L65.1092 143.6781
" />
<path d="M65.1092 143.6781
L58.2155 144.8937
" />
<path d="M129.0000 134.0000
L143.0000 134.0000
" />
<path d="M129.0000 148.0000
L129.0000 134.0000
" />
<path d="M136.0000 148.0000
L129.0000 148.0000
" />
<path d="M143.0000 134.0000
L143.0000 148.0000
" />
<path d="M143.0000 148.0000
L136.0000 148.0000
" />
<path d="M192.6000 114.7500
L206.6000 114.7500
" />
<path d="M192.6000 128.7500
L192.6000 114.7500
" />
<path d="M199.6000 128.7500
L192.6000 128.7500
" />
<path d="M206.6000 114.7500
L206.6000 128.7500
" />
<path d="M206.6000 128.7500
L199.6000 128.7500
" />
<path d="M292.8908 127.9281
L295.3219 114.1408
" />
<path d="M295.3219 114.1408
L309.1092 116.5719
" />
<path d="M299.7845 129.1437
L292.8908 127.9281
" />
<path d="M306.6781 130.3592
L299.7845 129.1437
" />
<path d="M309.1092 116.5719
L306.6781 130.3592
" />
<path d="M249.2000 86.5000
L249.2000 83.0000
" />
<path d="M123.4000 148.0000
L106.7000 148.0000
" />
<path d="M170.6250 143.6000
L165.0250 143.6000
" />
<path d="M196.8500 173.7500
L215.9000 170.4000
" />
<path d="M170.6250 157.6000
L170.6250 143.6000
" />
<path d="M208.2000 88.0000
L208.2000 91.4000
" />
<path d="M170.6250 161.5000
L177.6250 180.7500
" />
<path d="M64.6000 106.5000
L63.6000 87.7000
" />
<path d="M177.6250 180.7500
L196.8500 173.7500
" />
<path d="M170.6000 115.3000
L168.9000 115.3000
" />
<path d="M165.0000 141.0000
L165.0000 127.0000
" />
<path d="M30.0000 154.7000
L22.8000 113.9000
" />
<path d="M165.0250 157.6000
L165.0250 143.6000
" />
<path d="M170.6000 127.0000
L165.0000 127.0000
" />
<path d="M166.7000 91.4000
L166.7000 115.3000
" />
<path d="M86.4000 86.5000
L86.4000 83.0000
" />
<path d="M138.8250 173.6750
L119.7750 170.3250
" />
<path d="M227.1000 88.0000
L208.2000 88.0000
" />
<path d="M127.4000 88.0000
L127.4000 91.4000
" />
<path d="M267.2000 147.9000
L305.6000 154.7000
" />
<path d="M312.8000 113.9000
L270.9812 106.4967
" />
<path d="M272.0000 87.7000
L249.2000 86.5000
" />
<path d="M108.5000 83.0000
L108.5000 88.0000
" />
<path d="M165.0000 161.5000
L158.0500 180.6750
" />
<path d="M170.6000 141.0000
L170.6000 127.0000
" />
<path d="M245.9000 146.8000
L267.2000 147.9000
" />
<path d="M170.6000 124.0000
L165.0000 124.0000
" />
<path d="M165.0000 121.7500
L165.0000 124.0000
" />
<path d="M68.4000 147.9000
L30.0000 154.7000
" />
<path d="M270.9812 106.4967
L272.0000 87.7000
" />
<path d="M165.0000 141.0000
L170.6000 141.0000
" />
<path d="M63.6000 87.7000
L86.4000 86.5000
" />
<path d="M212.2000 148.0000
L228.9000 148.0000
" />
<path d="M165.0000 161.5000
L170.6250 161.5000
" />
<path d="M215.9000 170.4000
L212.2000 149.4000
" />
<path d="M165.0250 157.6000
L170.6250 157.6000
" />
<path d="M86.4000 83.0000
L108.5000 83.0000
" />
<path d="M168.9000 91.4000
L168.9000 115.3000
" />
<path d="M228.9000 148.0000
L245.9000 146.8000
" />
<path d="M108.5000 88.0000
L127.4000 88.0000
" />
<path d="M212.2000 149.4000
L212.2000 148.0000
" />
<path d="M305.6000 154.7000
L312.8000 113.9000
" />
<path d="M208.2000 91.4000
L168.9000 91.4000
" />
<path d="M165.0000 115.3000
L166.7000 115.3000
" />
<path d="M170.6000 121.7500
L170.6000 124.0000
" />
<path d="M123.4000 149.4000
L123.4000 148.0000
" />
<path d="M106.7000 148.0000
L89.7000 146.8000
" />
<path d="M89.7000 146.8000
L68.4000 147.9000
" />
<path d="M249.2000 83.0000
L227.1000 83.0000
" />
<path d="M127.4000 91.4000
L166.7000 91.4000
" />
<path d="M22.8000 113.9000
L64.6000 106.5000
" />
<path d="M227.1000 83.0000
L227.1000 88.0000
" />
<path d="M119.7750 170.3250
L123.4000 149.4000
" />
<path d="M158.0500 180.6750
L138.8250 173.6750
" />
<path d="M170.6000 116.9000
L170.6000 115.3000
" />
<path d="M170.6000 120.2000
L170.6000 121.7500
" />
<path d="M171.8000 116.9000
L170.6000 116.9000
" />
<path d="M171.8000 116.9000
L171.8000 120.2000
" />
<path d="M171.8000 120.2000
L170.6000 120.2000
" />
<path d="M163.8000 116.8500
L165.0000 116.8500
" />
<path d="M163.8000 120.1500
L163.8000 116.8500
" />
<path d="M163.8000 120.1500
L165.0000 120.1500
" />
<path d="M165.0000 116.8500
L165.0000 115.3000
" />
<path d="M165.0000 120.1500
L165.0000 121.7500
" />
</g> 
</svg>
