<?xml version="1.0" standalone="no"?>
 <!DOCTYPE svg PUBLIC "-//W3C//DTD SVG 1.1//EN" 
 "http://www.w3.org/Graphics/SVG/1.1/DTD/svg11.dtd"> 
<svg
  xmlns:svg="http://www.w3.org/2000/svg"
  xmlns="http://www.w3.org/2000/svg"
  xmlns:xlink="http://www.w3.org/1999/xlink"
  version="1.1"
  width="419.9890mm" height="297.0022mm" viewBox="0.0000 0.0000 419.9890 297.0022">
<title>SVG Image created as keyboard-split-splay-5x3+2-pinky-cluster-Edge_Cuts.svg date 2026/01/11 12:13:59 </title>
  <desc>Image generated by PCBNEW </desc>
<g style="fill:#000000; fill-opacity:1.0000;stroke:#000000; stroke-opacity:1.0000;
stroke-linecap:round; stroke-linejoin:round;"
 transform="translate(0 0) scale(1 1)">
</g>
<g style="fill:none; 
stroke:#000000; stroke-width:0.0500; stroke-opacity:1; 
stroke-linecap:round; stroke-linejoin:round;">
<path d="M249.2000 86.5000
L249.2000 83.0000
" />
<path d="M123.4000 148.0000
L106.7000 148.0000
" />
<path d="M170.6250 143.6000
L165.0250 143.6000
" />
<path d="M196.8500 173.7500
L215.9000 170.4000
" />
<path d="M170.6250 157.6000
L170.6250 143.6000
" />
<path d="M208.2000 88.0000
L208.2000 91.4000
" />
<path d="M170.6250 161.5000
L177.6250 180.7500
" />
<path d="M64.6000 106.5000
L63.6000 87.7000
" />
<path d="M177.6250 180.7500
L196.8500 173.7500
" />
<path d="M170.6000 115.3000
L168.9000 115.3000
" />
<path d="M165.0000 141.0000
L165.0000 127.0000
" />
<path d="M30.0000 154.7000
L22.8000 113.9000
" />
<path d="M165.0250 157.6000
L165.0250 143.6000
" />
<path d="M170.6000 127.0000
L165.0000 127.0000
" />
<path d="M166.7000 91.4000
L166.7000 115.3000
" />
<path d="M86.4000 86.5000
L86.4000 83.0000
" />
<path d="M138.8250 173.6750
L119.7750 170.3250
" />
<path d="M227.1000 88.0000
L208.2000 88.0000
" />
<path d="M127.4000 88.0000
L127.4000 91.4000
" />
<path d="M267.2000 147.9000
L305.6000 154.7000
" />
<path d="M312.8000 113.9000
L270.9812 106.4967
" />
<path d="M272.0000 87.7000
L249.2000 86.5000
" />
<path d="M108.5000 83.0000
L108.5000 88.0000
" />
<path d="M165.0000 161.5000
L158.0500 180.6750
" />
<path d="M170.6000 141.0000
L170.6000 127.0000
" />
<path d="M245.9000 146.8000
L267.2000 147.9000
" />
<path d="M170.6000 124.0000
L165.0000 124.0000
" />
<path d="M165.0000 121.7500
L165.0000 124.0000
" />
<path d="M68.4000 147.9000
L30.0000 154.7000
" />
<path d="M270.9812 106.4967
L272.0000 87.7000
" />
<path d="M165.0000 141.0000
L170.6000 141.0000
" />
<path d="M63.6000 87.7000
L86.4000 86.5000
" />
<path d="M212.2000 148.0000
L228.9000 148.0000
" />
<path d="M165.0000 161.5000
L170.6250 161.5000
" />
<path d="M215.9000 170.4000
L212.2000 149.4000
" />
<path d="M165.0250 157.6000
L170.6250 157.6000
" />
<path d="M86.4000 83.0000
L108.5000 83.0000
" />
<path d="M168.9000 91.4000
L168.9000 115.3000
" />
<path d="M228.9000 148.0000
L245.9000 146.8000
" />
<path d="M108.5000 88.0000
L127.4000 88.0000
" />
<path d="M212.2000 149.4000
L212.2000 148.0000
" />
<path d="M305.6000 154.7000
L312.8000 113.9000
" />
<path d="M208.2000 91.4000
L168.9000 91.4000
" />
<path d="M165.0000 115.3000
L166.7000 115.3000
" />
<path d="M170.6000 121.7500
L170.6000 124.0000
" />
<path d="M123.4000 149.4000
L123.4000 148.0000
" />
<path d="M106.7000 148.0000
L89.7000 146.8000
" />
<path d="M89.7000 146.8000
L68.4000 147.9000
" />
<path d="M249.2000 83.0000
L227.1000 83.0000
" />
<path d="M127.4000 91.4000
L166.7000 91.4000
" />
<path d="M22.8000 113.9000
L64.6000 106.5000
" />
<path d="M227.1000 83.0000
L227.1000 88.0000
" />
<path d="M119.7750 170.3250
L123.4000 149.4000
" />
<path d="M158.0500 180.6750
L138.8250 173.6750
" />
<path d="M170.6000 116.9000
L170.6000 115.3000
" />
<path d="M170.6000 120.2000
L170.6000 121.7500
" />
<path d="M171.8000 116.9000
L170.6000 116.9000
" />
<path d="M171.8000 116.9000
L171.8000 120.2000
" />
<path d="M171.8000 120.2000
L170.6000 120.2000
" />
<path d="M163.8000 116.8500
L165.0000 116.8500
" />
<path d="M163.8000 120.1500
L163.8000 116.8500
" />
<path d="M163.8000 120.1500
L165.0000 120.1500
" />
<path d="M165.0000 116.8500
L165.0000 115.3000
" />
<path d="M165.0000 120.1500
L165.0000 121.7500
" />
</g>
<g style="fill:none; 
stroke:#000000; stroke-width:0.1000; stroke-opacity:1; 
stroke-linecap:round; stroke-linejoin:round;">
<circle cx="248.0000" cy="103.0000" r="1.1000" /> 
<circle cx="290.0500" cy="129.2500" r="1.1000" /> 
<circle cx="238.2500" cy="143.0000" r="1.1000" /> 
<circle cx="144.8000" cy="155.0000" r="1.1000" /> 
<circle cx="209.8000" cy="108.5000" r="1.1000" /> 
<circle cx="190.8000" cy="155.0000" r="1.1000" /> 
<circle cx="87.6000" cy="103.0000" r="1.1000" /> 
<circle cx="45.5500" cy="129.2500" r="1.1000" /> 
<circle cx="97.3500" cy="143.0000" r="1.1000" /> 
<circle cx="125.8000" cy="108.5000" r="1.1000" /> 
</g> 
</svg>
