<?xml version="1.0" standalone="no"?>
 <!DOCTYPE svg PUBLIC "-//W3C//DTD SVG 1.1//EN" 
 "http://www.w3.org/Graphics/SVG/1.1/DTD/svg11.dtd"> 
<svg
  xmlns:svg="http://www.w3.org/2000/svg"
  xmlns="http://www.w3.org/2000/svg"
  xmlns:xlink="http://www.w3.org/1999/xlink"
  version="1.1"
  width="419.9890mm" height="297.0022mm" viewBox="0.0000 0.0000 419.9890 297.0022">
<title>SVG Image created as keyboard-split-splay-5x3+2-pinky-cluster-User_2.svg date 2026/02/09 10:35:44 </title>
  <desc>Image generated by PCBNEW </desc>
<g style="fill:#000000; fill-opacity:1.0000;stroke:#000000; stroke-opacity:1.0000;
stroke-linecap:round; stroke-linejoin:round;"
 transform="translate(0 0) scale(1 1)">
</g>
<g style="fill:none; 
stroke:#000000; stroke-width:0.1000; stroke-opacity:1; 
stroke-linecap:round; stroke-linejoin:round;">
<path d="M288.9500 134.2500
L291.1500 134.2500
" />
<path d="M87.6000 104.1000
L87.6000 101.9000
" />
<path d="M143.7000 155.0000
L145.9000 155.0000
" />
<path d="M246.9000 103.0000
L249.1000 103.0000
" />
<path d="M290.0500 135.3500
L290.0500 133.1500
" />
<path d="M125.8000 109.6000
L125.8000 107.4000
" />
<path d="M190.8000 156.1000
L190.8000 153.9000
" />
<path d="M237.1500 143.0000
L239.3500 143.0000
" />
<path d="M86.5000 103.0000
L88.7000 103.0000
" />
<path d="M144.8000 156.1000
L144.8000 153.9000
" />
<path d="M248.0000 104.1000
L248.0000 101.9000
" />
<path d="M124.7000 108.5000
L126.9000 108.5000
" />
<path d="M96.2500 143.0000
L98.4500 143.0000
" />
<path d="M44.4500 134.2500
L46.6500 134.2500
" />
<path d="M45.5500 135.3500
L45.5500 133.1500
" />
<path d="M189.7000 155.0000
L191.9000 155.0000
" />
<path d="M238.2500 144.1000
L238.2500 141.9000
" />
<path d="M208.7000 108.5000
L210.9000 108.5000
" />
<path d="M209.8000 109.6000
L209.8000 107.4000
" />
<path d="M97.3500 144.1000
L97.3500 141.9000
" />
<path style="fill:none; 
stroke:#000000; stroke-width:0.0500; stroke-opacity:1; 
stroke-linecap:round; stroke-linejoin:round;fill:none"
d="M 170.0250,144.6500
171.0250,144.6500
171.0250,140.5500
170.0250,140.5500
Z" /> 
</g>
<g style="fill:none; 
stroke:#000000; stroke-width:0.0500; stroke-opacity:1; 
stroke-linecap:round; stroke-linejoin:round;">
<circle cx="290.0500" cy="134.2500" r="3.0500" /> 
<circle cx="87.6000" cy="103.0000" r="3.0500" /> 
<circle cx="125.8000" cy="108.5000" r="3.0500" /> 
<circle cx="238.2500" cy="143.0000" r="3.0500" /> 
<circle cx="97.3500" cy="143.0000" r="3.0500" /> 
<path style="fill:none; 
stroke:#000000; stroke-width:0.0500; stroke-opacity:1; 
stroke-linecap:round; stroke-linejoin:round;fill:none"
d="M 166.0750,157.5500
165.0750,157.5500
165.0750,161.6500
166.0750,161.6500
Z" /> 
<circle cx="209.8000" cy="108.5000" r="3.0500" /> 
<path style="fill:none; 
stroke:#000000; stroke-width:0.0500; stroke-opacity:1; 
stroke-linecap:round; stroke-linejoin:round;fill:none"
d="M 165.6250,140.5500
164.6250,140.5500
164.6250,144.6500
165.6250,144.6500
Z" /> 
<circle cx="248.0000" cy="103.0000" r="3.0500" /> 
<path style="fill:none; 
stroke:#000000; stroke-width:0.0500; stroke-opacity:1; 
stroke-linecap:round; stroke-linejoin:round;fill:none"
d="M 169.5750,161.6500
170.5750,161.6500
170.5750,157.5500
169.5750,157.5500
Z" /> 
<circle cx="190.8000" cy="155.0000" r="3.0500" /> 
<circle cx="144.8000" cy="155.0000" r="3.0500" /> 
<circle cx="45.5500" cy="134.2500" r="3.0500" /> 
<path d="M231.1000 125.5000
L245.1000 125.5000
" />
<path d="M231.1000 139.5000
L231.1000 125.5000
" />
<path d="M238.1000 139.5000
L231.1000 139.5000
" />
<path d="M245.1000 125.5000
L245.1000 139.5000
" />
<path d="M245.1000 139.5000
L238.1000 139.5000
" />
<path d="M192.6000 95.5000
L206.6000 95.5000
" />
<path d="M192.6000 109.5000
L192.6000 95.5000
" />
<path d="M199.6000 109.5000
L192.6000 109.5000
" />
<path d="M206.6000 95.5000
L206.6000 109.5000
" />
<path d="M206.6000 109.5000
L199.6000 109.5000
" />
<path d="M109.7500 92.2500
L123.7500 92.2500
" />
<path d="M109.7500 106.2500
L109.7500 92.2500
" />
<path d="M116.7500 106.2500
L109.7500 106.2500
" />
<path d="M123.7500 92.2500
L123.7500 106.2500
" />
<path d="M123.7500 106.2500
L116.7500 106.2500
" />
<path d="M252.7432 104.6241
L253.4759 90.6432
" />
<path d="M253.4759 90.6432
L267.4568 91.3759
" />
<path d="M259.7336 104.9904
L252.7432 104.6241
" />
<path d="M266.7241 105.3568
L259.7336 104.9904
" />
<path d="M267.4568 91.3759
L266.7241 105.3568
" />
<path d="M289.4908 151.9281
L291.9219 138.1408
" />
<path d="M291.9219 138.1408
L305.7092 140.5719
" />
<path d="M296.3845 153.1437
L289.4908 151.9281
" />
<path d="M303.2781 154.3592
L296.3845 153.1437
" />
<path d="M305.7092 140.5719
L303.2781 154.3592
" />
<path d="M45.4908 118.3219
L59.2781 115.8908
" />
<path d="M47.9219 132.1092
L45.4908 118.3219
" />
<path d="M54.8155 130.8937
L47.9219 132.1092
" />
<path d="M59.2781 115.8908
L61.7092 129.6781
" />
<path d="M61.7092 129.6781
L54.8155 130.8937
" />
<path d="M174.8780 162.8163
L188.0337 158.0280
" />
<path d="M179.6663 175.9720
L174.8780 162.8163
" />
<path d="M186.2441 173.5778
L179.6663 175.9720
" />
<path d="M188.0337 158.0280
L192.8220 171.1837
" />
<path d="M192.8220 171.1837
L186.2441 173.5778
" />
<path d="M251.7432 123.8741
L252.4759 109.8932
" />
<path d="M252.4759 109.8932
L266.4568 110.6259
" />
<path d="M258.7336 124.2404
L251.7432 123.8741
" />
<path d="M265.7241 124.6068
L258.7336 124.2404
" />
<path d="M266.4568 110.6259
L265.7241 124.6068
" />
<path d="M211.8500 111.5000
L225.8500 111.5000
" />
<path d="M211.8500 125.5000
L211.8500 111.5000
" />
<path d="M218.8500 125.5000
L211.8500 125.5000
" />
<path d="M225.8500 111.5000
L225.8500 125.5000
" />
<path d="M225.8500 125.5000
L218.8500 125.5000
" />
<path d="M68.1432 91.3759
L82.1241 90.6432
" />
<path d="M68.8759 105.3568
L68.1432 91.3759
" />
<path d="M75.8664 104.9904
L68.8759 105.3568
" />
<path d="M82.1241 90.6432
L82.8568 104.6241
" />
<path d="M82.8568 104.6241
L75.8664 104.9904
" />
<path d="M90.5000 106.2500
L104.5000 106.2500
" />
<path d="M90.5000 120.2500
L90.5000 106.2500
" />
<path d="M97.5000 120.2500
L90.5000 120.2500
" />
<path d="M104.5000 106.2500
L104.5000 120.2500
" />
<path d="M104.5000 120.2500
L97.5000 120.2500
" />
<path d="M109.7500 111.5000
L123.7500 111.5000
" />
<path d="M109.7500 125.5000
L109.7500 111.5000
" />
<path d="M116.7500 125.5000
L109.7500 125.5000
" />
<path d="M123.7500 111.5000
L123.7500 125.5000
" />
<path d="M123.7500 125.5000
L116.7500 125.5000
" />
<path d="M69.1432 110.6259
L83.1241 109.8932
" />
<path d="M69.8759 124.6068
L69.1432 110.6259
" />
<path d="M76.8664 124.2404
L69.8759 124.6068
" />
<path d="M83.1241 109.8932
L83.8568 123.8741
" />
<path d="M83.8568 123.8741
L76.8664 124.2404
" />
<path d="M270.4908 148.6781
L272.9219 134.8908
" />
<path d="M272.9219 134.8908
L286.7092 137.3219
" />
<path d="M277.3845 149.8937
L270.4908 148.6781
" />
<path d="M284.2781 151.1092
L277.3845 149.8937
" />
<path d="M286.7092 137.3219
L284.2781 151.1092
" />
<path d="M273.8908 129.6781
L276.3219 115.8908
" />
<path d="M276.3219 115.8908
L290.1092 118.3219
" />
<path d="M280.7845 130.8937
L273.8908 129.6781
" />
<path d="M287.6781 132.1092
L280.7845 130.8937
" />
<path d="M290.1092 118.3219
L287.6781 132.1092
" />
<path d="M29.8908 140.5719
L43.6781 138.1408
" />
<path d="M32.3219 154.3592
L29.8908 140.5719
" />
<path d="M39.2155 153.1437
L32.3219 154.3592
" />
<path d="M43.6781 138.1408
L46.1092 151.9281
" />
<path d="M46.1092 151.9281
L39.2155 153.1437
" />
<path d="M231.1000 87.0000
L245.1000 87.0000
" />
<path d="M231.1000 101.0000
L231.1000 87.0000
" />
<path d="M238.1000 101.0000
L231.1000 101.0000
" />
<path d="M245.1000 87.0000
L245.1000 101.0000
" />
<path d="M245.1000 101.0000
L238.1000 101.0000
" />
<path d="M129.0000 95.5000
L143.0000 95.5000
" />
<path d="M129.0000 109.5000
L129.0000 95.5000
" />
<path d="M136.0000 109.5000
L129.0000 109.5000
" />
<path d="M143.0000 95.5000
L143.0000 109.5000
" />
<path d="M143.0000 109.5000
L136.0000 109.5000
" />
<path d="M123.4908 167.1781
L125.9219 153.3908
" />
<path d="M125.9219 153.3908
L139.7092 155.8219
" />
<path d="M130.3845 168.3937
L123.4908 167.1781
" />
<path d="M137.2781 169.6092
L130.3845 168.3937
" />
<path d="M139.7092 155.8219
L137.2781 169.6092
" />
<path d="M142.7780 171.1837
L147.5663 158.0280
" />
<path d="M147.5663 158.0280
L160.7220 162.8163
" />
<path d="M149.3559 173.5778
L142.7780 171.1837
" />
<path d="M155.9337 175.9720
L149.3559 173.5778
" />
<path d="M160.7220 162.8163
L155.9337 175.9720
" />
<path d="M109.7500 130.7500
L123.7500 130.7500
" />
<path d="M109.7500 144.7500
L109.7500 130.7500
" />
<path d="M116.7500 144.7500
L109.7500 144.7500
" />
<path d="M123.7500 130.7500
L123.7500 144.7500
" />
<path d="M123.7500 144.7500
L116.7500 144.7500
" />
<path d="M90.5000 87.0000
L104.5000 87.0000
" />
<path d="M90.5000 101.0000
L90.5000 87.0000
" />
<path d="M97.5000 101.0000
L90.5000 101.0000
" />
<path d="M104.5000 87.0000
L104.5000 101.0000
" />
<path d="M104.5000 101.0000
L97.5000 101.0000
" />
<path d="M192.6000 134.0000
L206.6000 134.0000
" />
<path d="M192.6000 148.0000
L192.6000 134.0000
" />
<path d="M199.6000 148.0000
L192.6000 148.0000
" />
<path d="M206.6000 134.0000
L206.6000 148.0000
" />
<path d="M206.6000 148.0000
L199.6000 148.0000
" />
<path d="M129.0000 114.7500
L143.0000 114.7500
" />
<path d="M129.0000 128.7500
L129.0000 114.7500
" />
<path d="M136.0000 128.7500
L129.0000 128.7500
" />
<path d="M143.0000 114.7500
L143.0000 128.7500
" />
<path d="M143.0000 128.7500
L136.0000 128.7500
" />
<path d="M231.1000 106.2500
L245.1000 106.2500
" />
<path d="M231.1000 120.2500
L231.1000 106.2500
" />
<path d="M238.1000 120.2500
L231.1000 120.2500
" />
<path d="M245.1000 106.2500
L245.1000 120.2500
" />
<path d="M245.1000 120.2500
L238.1000 120.2500
" />
<path d="M211.8500 130.7500
L225.8500 130.7500
" />
<path d="M211.8500 144.7500
L211.8500 130.7500
" />
<path d="M218.8500 144.7500
L211.8500 144.7500
" />
<path d="M225.8500 130.7500
L225.8500 144.7500
" />
<path d="M225.8500 144.7500
L218.8500 144.7500
" />
<path d="M70.1432 129.8759
L84.1241 129.1432
" />
<path d="M70.8759 143.8568
L70.1432 129.8759
" />
<path d="M77.8664 143.4904
L70.8759 143.8568
" />
<path d="M84.1241 129.1432
L84.8568 143.1241
" />
<path d="M84.8568 143.1241
L77.8664 143.4904
" />
<path d="M90.5000 125.5000
L104.5000 125.5000
" />
<path d="M90.5000 139.5000
L90.5000 125.5000
" />
<path d="M97.5000 139.5000
L90.5000 139.5000
" />
<path d="M104.5000 125.5000
L104.5000 139.5000
" />
<path d="M104.5000 139.5000
L97.5000 139.5000
" />
<path d="M26.4908 121.5719
L40.2781 119.1408
" />
<path d="M28.9219 135.3592
L26.4908 121.5719
" />
<path d="M35.8155 134.1437
L28.9219 135.3592
" />
<path d="M40.2781 119.1408
L42.7092 132.9281
" />
<path d="M42.7092 132.9281
L35.8155 134.1437
" />
<path d="M195.8908 155.8219
L209.6781 153.3908
" />
<path d="M198.3219 169.6092
L195.8908 155.8219
" />
<path d="M205.2155 168.3937
L198.3219 169.6092
" />
<path d="M209.6781 153.3908
L212.1092 167.1781
" />
<path d="M212.1092 167.1781
L205.2155 168.3937
" />
<path d="M250.7432 143.1241
L251.4759 129.1432
" />
<path d="M251.4759 129.1432
L265.4568 129.8759
" />
<path d="M257.7336 143.4904
L250.7432 143.1241
" />
<path d="M264.7241 143.8568
L257.7336 143.4904
" />
<path d="M265.4568 129.8759
L264.7241 143.8568
" />
<path d="M211.8500 92.2500
L225.8500 92.2500
" />
<path d="M211.8500 106.2500
L211.8500 92.2500
" />
<path d="M218.8500 106.2500
L211.8500 106.2500
" />
<path d="M225.8500 92.2500
L225.8500 106.2500
" />
<path d="M225.8500 106.2500
L218.8500 106.2500
" />
<path d="M48.8908 137.3219
L62.6781 134.8908
" />
<path d="M51.3219 151.1092
L48.8908 137.3219
" />
<path d="M58.2155 149.8937
L51.3219 151.1092
" />
<path d="M62.6781 134.8908
L65.1092 148.6781
" />
<path d="M65.1092 148.6781
L58.2155 149.8937
" />
<path d="M129.0000 134.0000
L143.0000 134.0000
" />
<path d="M129.0000 148.0000
L129.0000 134.0000
" />
<path d="M136.0000 148.0000
L129.0000 148.0000
" />
<path d="M143.0000 134.0000
L143.0000 148.0000
" />
<path d="M143.0000 148.0000
L136.0000 148.0000
" />
<path d="M192.6000 114.7500
L206.6000 114.7500
" />
<path d="M192.6000 128.7500
L192.6000 114.7500
" />
<path d="M199.6000 128.7500
L192.6000 128.7500
" />
<path d="M206.6000 114.7500
L206.6000 128.7500
" />
<path d="M206.6000 128.7500
L199.6000 128.7500
" />
<path d="M292.8908 132.9281
L295.3219 119.1408
" />
<path d="M295.3219 119.1408
L309.1092 121.5719
" />
<path d="M299.7845 134.1437
L292.8908 132.9281
" />
<path d="M306.6781 135.3592
L299.7845 134.1437
" />
<path d="M309.1092 121.5719
L306.6781 135.3592
" />
<path d="M177.2777 179.8215
L170.5929 162.2662
" />
<path d="M170.4500 123.1000
L170.4500 121.7500
" />
<path d="M138.7385 173.6598
L120.7574 170.4978
" />
<path d="M168.9500 124.6000 A1.5000 1.5000 0.0 0 0 170.4500 123.1000" />
<path d="M249.2000 85.5512 A1.0000 1.0000 0.0 0 0 250.1474 86.5499" />
<path d="M208.2000 90.4000
L208.2000 89.0000
" />
<path d="M127.4000 89.0000 A1.0000 1.0000 0.0 0 0 126.4000 88.0000" />
<path d="M170.4250 131.6500 A1.1000 1.1000 0.0 0 0 169.3250 130.5500" />
<path d="M68.4618 152.8968 A1.0028 1.0028 0.0 0 0 68.3390 152.9108" />
<path d="M119.9453 169.3422
L122.3853 154.4847
" />
<path d="M166.2250 143.6000
L169.4250 143.6000
" />
<path d="M170.4250 140.6000
L170.4250 131.6500
" />
<path d="M213.2000 154.1500
L215.7264 169.4148
" />
<path d="M170.4250 156.4000
L170.4250 144.6000
" />
<path d="M209.2000 88.0000
L226.1000 88.0000
" />
<path d="M312.6263 119.8843 A1.0000 1.0000 0.0 0 0 311.8158 118.7258" />
<path d="M227.1000 87.0000
L227.1000 84.0000
" />
<path d="M89.7610 151.8043 A0.9981 0.9981 0.0 0 0 89.6390 151.8032" />
<path d="M64.5992 87.6474 A1.0000 1.0000 0.0 0 0 63.6531 88.6991" />
<path d="M127.4000 90.4000 A1.0000 1.0000 0.0 0 0 128.4000 91.4000" />
<path d="M165.7000 115.3000
L165.0000 115.3000
" />
<path d="M108.5000 84.0000
L108.5000 87.0000
" />
<path d="M106.6648 152.9975 A1.0005 1.0005 0.0 0 0 106.7352 153.0000" />
<path d="M157.1187 180.3358 A1.0000 1.0000 0.0 0 0 158.3974 179.7467" />
<path d="M245.9610 151.8032 A0.9986 0.9986 0.0 0 0 245.8390 151.8043" />
<path d="M196.7675 173.7800
L178.5565 180.4108
" />
<path d="M127.4000 89.0000
L127.4000 90.4000
" />
<path d="M170.6000 121.7500
L170.4500 121.7500
" />
<path d="M138.9075 173.7050 A0.9998 0.9998 0.0 0 0 138.7385 173.6598" />
<path d="M166.7000 124.6000
L168.9500 124.6000
" />
<path d="M271.9458 88.7001 A0.9999 0.9999 0.0 0 0 270.9998 87.6474" />
<path d="M122.4000 154.3140
L122.4000 154.0000
" />
<path d="M177.2777 179.8215 A1.0000 1.0000 0.0 0 0 178.5565 180.4108" />
<path d="M165.2263 144.6000
L165.2251 156.3999
" />
<path d="M157.1186 180.3359
L138.9075 173.7050
" />
<path d="M87.4000 83.0000
L107.5000 83.0000
" />
<path d="M214.2000 152.9888 A1.0112 1.0112 0.0 0 0 213.2000 154.1500" />
<path d="M169.9000 91.4000
L207.2000 91.4000
" />
<path d="M166.4695 161.3001 A1.4999 1.4999 0.0 0 0 165.0626 162.2796" />
<path d="M271.9458 88.7001
L271.0291 110.6109
" />
<path d="M165.0000 121.7500
L165.2000 121.7500
" />
<path d="M170.5929 162.2662 A1.5000 1.5000 0.0 0 0 169.1911 161.3000" />
<path d="M64.5530 110.6164
L63.6531 88.6991
" />
<path d="M165.2000 123.1000 A1.5000 1.5000 0.0 0 0 166.7000 124.6000" />
<path d="M165.2251 156.3999 A1.5000 1.5000 0.0 0 0 166.7251 157.9000" />
<path d="M196.9365 173.7348 A0.9996 0.9996 0.0 0 0 196.7675 173.7800" />
<path d="M207.2000 91.4000 A1.0000 1.0000 0.0 0 0 208.2000 90.4000" />
<path d="M23.7842 118.7258
L63.7287 111.6542
" />
<path d="M122.4000 154.0000 A1.0000 1.0000 0.0 0 0 121.4000 153.0000" />
<path d="M267.1382 152.8968
L245.9610 151.8032
" />
<path d="M304.6147 159.5255
L267.2610 152.9108
" />
<path d="M168.9250 157.9000
L166.7251 157.9000
" />
<path d="M170.6000 115.3000
L169.9000 115.3000
" />
<path d="M169.1911 161.3000
L166.4695 161.3000
" />
<path d="M214.9148 170.5733
L196.9365 173.7348
" />
<path d="M23.7842 118.7258 A1.0000 1.0000 0.0 0 0 22.9737 119.8842" />
<path d="M87.4000 83.0000 A1.0000 1.0000 0.0 0 0 86.4000 84.0000" />
<path d="M166.3250 130.5500
L169.3250 130.5500
" />
<path d="M228.8648 153.0000 A0.9989 0.9989 0.0 0 0 228.9352 152.9975" />
<path d="M85.4526 86.5499 A1.0001 1.0001 0.0 0 0 86.4000 85.5512" />
<path d="M122.3853 154.4847 A1.0001 1.0001 0.0 0 0 122.4000 154.3140" />
<path d="M228.1000 83.0000
L248.2000 83.0000
" />
<path d="M128.4000 91.4000
L165.7000 91.4000
" />
<path d="M249.2000 84.0000 A1.0000 1.0000 0.0 0 0 248.2000 83.0000" />
<path d="M63.7287 111.6542 A0.9999 0.9999 0.0 0 0 64.5530 110.6164" />
<path d="M119.9453 169.3422 A1.0000 1.0000 0.0 0 0 120.7574 170.4978" />
<path d="M108.5000 84.0000 A1.0000 1.0000 0.0 0 0 107.5000 83.0000" />
<path d="M109.5000 88.0000
L126.4000 88.0000
" />
<path d="M166.7000 92.4000 A1.0000 1.0000 0.0 0 0 165.7000 91.4000" />
<path d="M249.2000 84.0000
L249.2000 85.5512
" />
<path d="M165.2000 121.7500
L165.2000 123.1000
" />
<path d="M64.5992 87.6474
L85.4526 86.5499
" />
<path d="M68.3390 152.9108
L30.9853 159.5255
" />
<path d="M304.6147 159.5255 A1.0000 1.0000 0.0 0 0 305.7739 158.7146" />
<path d="M226.1000 88.0000 A1.0000 1.0000 0.0 0 0 227.1000 87.0000" />
<path d="M250.1474 86.5499
L270.9998 87.6474
" />
<path d="M108.5000 87.0000 A1.0000 1.0000 0.0 0 0 109.5000 88.0000" />
<path d="M121.4000 153.0000
L106.7352 153.0000
" />
<path d="M214.9148 170.5733 A1.0000 1.0000 0.0 0 0 215.7264 169.4148" />
<path d="M166.7000 92.4000
L166.7000 114.3000
" />
<path d="M165.2250 131.6500
L165.2250 140.6000
" />
<path d="M271.0291 110.6123 A1.0001 1.0001 0.0 0 0 271.8534 111.6511" />
<path d="M166.2250 141.6000
L169.4250 141.6000
" />
<path d="M165.7000 115.3000 A1.0000 1.0000 0.0 0 0 166.7000 114.3000" />
<path d="M312.6263 119.8842
L305.7739 158.7146
" />
<path d="M86.4000 85.5512
L86.4000 84.0000
" />
<path d="M168.9000 114.3000 A1.0000 1.0000 0.0 0 0 169.9000 115.3000" />
<path d="M106.6648 152.9975
L89.7610 151.8043
" />
<path d="M168.9000 114.3000
L168.9000 92.4000
" />
<path d="M29.8261 158.7146
L22.9737 119.8842
" />
<path d="M271.8534 111.6511
L311.8158 118.7258
" />
<path d="M166.3250 130.5500 A1.1000 1.1000 0.0 0 0 165.2250 131.6500" />
<path d="M245.8390 151.8043
L228.9352 152.9975
" />
<path d="M165.0626 162.2796
L158.3974 179.7467
" />
<path d="M29.8262 158.7146 A0.9999 0.9999 0.0 0 0 30.9853 159.5255" />
<path d="M209.2000 88.0000 A1.0000 1.0000 0.0 0 0 208.2000 89.0000" />
<path d="M169.9000 91.4000 A1.0000 1.0000 0.0 0 0 168.9000 92.4000" />
<path d="M267.2610 152.9108 A0.9991 0.9991 0.0 0 0 267.1382 152.8968" />
<path d="M228.1000 83.0000 A1.0000 1.0000 0.0 0 0 227.1000 84.0000" />
<path d="M168.9250 157.9000 A1.5000 1.5000 0.0 0 0 170.4250 156.4000" />
<path d="M228.8647 153.0000
L214.2000 152.9888
" />
<path d="M89.6390 151.8032
L68.4618 152.8968
" />
</g>
<g style="fill:none; 
stroke:#000000; stroke-width:0.1000; stroke-opacity:1; 
stroke-linecap:round; stroke-linejoin:round;">
<path d="M170.4250 144.6000 A1.0000 1.0000 0.0 0 0 169.4250 143.6000" />
<path d="M169.4250 141.6000 A1.0000 1.0000 0.0 0 0 170.4250 140.6000" />
</g>
<g style="fill:none; 
stroke:#000000; stroke-width:0.0500; stroke-opacity:1; 
stroke-linecap:round; stroke-linejoin:round;">
<path d="M170.6000 116.9000
L170.6000 115.3000
" />
<path d="M170.6000 120.2000
L170.6000 121.7500
" />
<path d="M171.8000 116.9000
L170.6000 116.9000
" />
<path d="M171.8000 116.9000
L171.8000 120.2000
" />
<path d="M171.8000 120.2000
L170.6000 120.2000
" />
<path d="M163.8000 116.8500
L165.0000 116.8500
" />
<path d="M163.8000 120.1500
L163.8000 116.8500
" />
<path d="M163.8000 120.1500
L165.0000 120.1500
" />
<path d="M165.0000 116.8500
L165.0000 115.3000
" />
<path d="M165.0000 120.1500
L165.0000 121.7500
" />
</g>
<g style="fill:none; 
stroke:#000000; stroke-width:0.1000; stroke-opacity:1; 
stroke-linecap:round; stroke-linejoin:round;">
<path d="M166.2250 143.6000 A1.0000 1.0000 0.0 0 0 165.2250 144.6000" />
<path d="M165.2250 140.6000 A1.0000 1.0000 0.0 0 0 166.2250 141.6000" />
</g> 
</svg>
