M48
; DRILL file {KiCad 9.0.7-1.fc43} date 2026-02-09T10:12:36+1100
; FORMAT={-:-/ absolute / metric / decimal}
; #@! TF.CreationDate,2026-02-09T10:12:36+11:00
; #@! TF.GenerationSoftware,Kicad,Pcbnew,9.0.7-1.fc43
; #@! TF.FileFunction,NonPlated,1,2,NPTH
FMAT,2
METRIC
; #@! TA.AperFunction,NonPlated,NPTH,ComponentDrill
T1C0.500
; #@! TA.AperFunction,NonPlated,NPTH,ComponentDrill
T2C1.400
; #@! TA.AperFunction,NonPlated,NPTH,ComponentDrill
T3C1.700
; #@! TA.AperFunction,NonPlated,NPTH,ComponentDrill
T4C3.000
; #@! TA.AperFunction,NonPlated,NPTH,ComponentDrill
T5C4.000
; #@! TA.AperFunction,NonPlated,NPTH,ComponentDrill
T6C5.000
%
G90
G05
T1
X164.975Y-140.9
X164.975Y-141.75
X164.975Y-142.6
X164.975Y-143.45
X164.975Y-144.3
X165.425Y-157.9
X165.425Y-158.75
X165.425Y-159.6
X165.425Y-160.45
X165.425Y-161.3
X170.225Y-157.9
X170.225Y-158.75
X170.225Y-159.6
X170.225Y-160.45
X170.225Y-161.3
X170.675Y-140.9
X170.675Y-141.75
X170.675Y-142.6
X170.675Y-143.45
X170.675Y-144.3
T2
X154.5Y-118.5
X181.1Y-118.55
T3
X29.597Y-128.132
X32.997Y-147.132
X39.603Y-126.368
X43.003Y-145.368
X48.597Y-124.882
X51.997Y-143.882
X58.603Y-123.118
X62.003Y-142.118
X70.427Y-98.266
X71.427Y-117.516
X72.427Y-136.766
X80.573Y-97.734
X81.573Y-116.984
X82.573Y-136.234
X92.42Y-94.0
X92.42Y-113.25
X92.42Y-132.5
X102.58Y-94.0
X102.58Y-113.25
X102.58Y-132.5
X111.67Y-99.25
X111.67Y-118.5
X111.67Y-137.75
X121.83Y-99.25
X121.83Y-118.5
X121.83Y-137.75
X126.597Y-160.618
X130.92Y-102.5
X130.92Y-121.75
X130.92Y-141.0
X136.603Y-162.382
X141.08Y-102.5
X141.08Y-121.75
X141.08Y-141.0
X146.976Y-165.263
X156.524Y-168.737
X179.076Y-168.737
X188.624Y-165.263
X194.52Y-102.5
X194.52Y-121.75
X194.52Y-141.0
X198.997Y-162.382
X204.68Y-102.5
X204.68Y-121.75
X204.68Y-141.0
X209.003Y-160.618
X213.77Y-99.25
X213.77Y-118.5
X213.77Y-137.75
X223.93Y-99.25
X223.93Y-118.5
X223.93Y-137.75
X233.02Y-94.0
X233.02Y-113.25
X233.02Y-132.5
X243.18Y-94.0
X243.18Y-113.25
X243.18Y-132.5
X253.027Y-136.234
X254.027Y-116.984
X255.027Y-97.734
X263.173Y-136.766
X264.173Y-117.516
X265.173Y-98.266
X273.597Y-142.118
X276.997Y-123.118
X283.603Y-143.882
X287.003Y-124.882
X292.597Y-145.368
X295.997Y-126.368
X302.603Y-147.132
X306.003Y-128.132
T4
X30.407Y-125.41
X33.807Y-144.41
X36.219Y-121.806
X39.619Y-140.806
X49.407Y-122.16
X52.807Y-141.16
X55.219Y-118.556
X58.619Y-137.556
X71.562Y-95.663
X72.562Y-114.913
X73.562Y-134.163
X77.771Y-92.794
X78.771Y-112.044
X79.771Y-131.294
X93.69Y-91.46
X93.69Y-110.71
X93.69Y-129.96
X100.04Y-88.92
X100.04Y-108.17
X100.04Y-127.42
X112.94Y-96.71
X112.94Y-115.96
X112.94Y-135.21
X119.29Y-94.17
X119.29Y-113.42
X119.29Y-132.67
X128.289Y-158.337
X132.19Y-99.96
X132.19Y-119.21
X132.19Y-138.46
X134.984Y-156.938
X138.54Y-97.42
X138.54Y-116.67
X138.54Y-135.92
X149.039Y-163.31
X155.874Y-163.095
X179.401Y-165.916
X184.499Y-161.358
X195.79Y-99.96
X195.79Y-119.21
X195.79Y-138.46
X199.807Y-159.66
X202.14Y-97.42
X202.14Y-116.67
X202.14Y-135.92
X205.619Y-156.056
X215.04Y-96.71
X215.04Y-115.96
X215.04Y-135.21
X221.39Y-94.17
X221.39Y-113.42
X221.39Y-132.67
X234.29Y-91.46
X234.29Y-110.71
X234.29Y-129.96
X240.64Y-88.92
X240.64Y-108.17
X240.64Y-127.42
X254.428Y-133.764
X255.428Y-114.514
X256.428Y-95.264
X260.902Y-131.56
X261.902Y-112.31
X262.902Y-93.06
X275.289Y-139.837
X278.689Y-120.837
X281.984Y-138.438
X285.384Y-119.438
X294.289Y-143.087
X297.689Y-124.087
X300.984Y-141.688
X304.384Y-122.688
T5
X34.6Y-127.25
X38.0Y-146.25
X53.6Y-124.0
X57.0Y-143.0
X75.5Y-98.0
X76.5Y-117.25
X77.5Y-136.5
X97.5Y-94.0
X97.5Y-113.25
X97.5Y-132.5
X116.75Y-99.25
X116.75Y-118.5
X116.75Y-137.75
X131.6Y-161.5
X136.0Y-102.5
X136.0Y-121.75
X136.0Y-141.0
X151.75Y-167.0
X183.85Y-167.0
X199.6Y-102.5
X199.6Y-121.75
X199.6Y-141.0
X204.0Y-161.5
X218.85Y-99.25
X218.85Y-118.5
X218.85Y-137.75
X238.1Y-94.0
X238.1Y-113.25
X238.1Y-132.5
X258.1Y-136.5
X259.1Y-117.25
X260.1Y-98.0
X278.6Y-143.0
X282.0Y-124.0
X297.6Y-146.25
X301.0Y-127.25
T6
X45.55Y-134.25
X87.6Y-103.0
X97.35Y-143.0
X125.8Y-108.5
X144.8Y-155.0
X190.8Y-155.0
X209.8Y-108.5
X238.25Y-143.0
X248.0Y-103.0
X290.05Y-134.25
M30
