M48
; DRILL file {KiCad 9.0.6-1.fc42} date 2026-01-04T08:39:35+1100
; FORMAT={-:-/ absolute / metric / decimal}
; #@! TF.CreationDate,2026-01-04T08:39:35+11:00
; #@! TF.GenerationSoftware,Kicad,Pcbnew,9.0.6-1.fc42
; #@! TF.FileFunction,Plated,1,2,PTH
FMAT,2
METRIC
; #@! TA.AperFunction,Plated,PTH,ViaDrill
T1C0.300
; #@! TA.AperFunction,Plated,PTH,ComponentDrill
T2C0.600
; #@! TA.AperFunction,Plated,PTH,ComponentDrill
T3C0.889
%
G90
G05
T1
X42.0Y-118.25
X45.25Y-138.25
X60.95Y-112.3
X64.25Y-134.5
X82.5Y-95.0
X85.0Y-113.25
X86.0Y-131.75
X104.75Y-110.25
X105.0Y-91.25
X105.0Y-129.25
X123.75Y-96.75
X125.0Y-113.25
X125.25Y-134.0
X140.5Y-155.25
X143.5Y-99.75
X144.0Y-135.25
X144.5Y-118.25
X145.65Y-106.25
X158.0Y-160.75
X171.0Y-125.85
X174.25Y-115.0
X182.25Y-110.25
X183.348Y-115.0
X185.5Y-115.5
X185.75Y-117.75
X185.75Y-127.75
X185.85Y-139.25
X186.0Y-126.0
X186.0Y-144.5
X186.115Y-114.988
X191.25Y-151.5
X203.625Y-131.125
X206.0Y-99.5
X206.0Y-118.5
X206.75Y-153.0
X222.0Y-128.75
X225.25Y-115.25
X225.75Y-96.0
X242.0Y-123.5
X244.5Y-91.25
X246.0Y-110.0
X263.75Y-127.5
X266.0Y-116.5
X266.5Y-95.5
X285.25Y-136.75
X289.25Y-117.5
X304.25Y-140.25
X308.0Y-121.0
T3
X148.61Y-96.36
X148.61Y-98.9
X148.61Y-101.44
X148.61Y-103.98
X148.61Y-106.52
X148.61Y-109.06
X148.61Y-111.6
X163.85Y-96.36
X163.85Y-98.9
X163.85Y-101.44
X163.85Y-103.98
X163.85Y-106.52
X163.85Y-109.06
X163.85Y-111.6
X171.5Y-96.36
X171.5Y-98.9
X171.5Y-101.44
X171.5Y-103.98
X171.5Y-106.52
X171.5Y-109.06
X171.5Y-111.6
X186.74Y-96.36
X186.74Y-98.9
X186.74Y-101.44
X186.74Y-103.98
X186.74Y-106.52
X186.74Y-109.06
X186.74Y-111.6
T2
X154.05Y-120.3G85X153.15Y-120.3
G05
X154.95Y-115.9G85X154.05Y-115.9
G05
X156.15Y-121.1G85X155.25Y-121.1
G05
X159.95Y-115.9G85X159.05Y-115.9
G05
X164.05Y-120.7G85X163.15Y-120.7
G05
X164.15Y-115.6G85X163.25Y-115.6
G05
X171.2Y-121.45G85X172.1Y-121.45
G05
X171.3Y-116.35G85X172.2Y-116.35
G05
X175.4Y-121.15G85X176.3Y-121.15
G05
X179.2Y-115.95G85X180.1Y-115.95
G05
X180.4Y-121.15G85X181.3Y-121.15
G05
X181.3Y-116.75G85X182.2Y-116.75
G05
M30
