%TF.GenerationSoftware,KiCad,Pcbnew,9.0.6-1.fc42*%
%TF.CreationDate,2026-01-04T08:40:16+11:00*%
%TF.ProjectId,keyboard-split-splay-5x3+2-pinky-cluster,6b657962-6f61-4726-942d-73706c69742d,rev?*%
%TF.SameCoordinates,Original*%
%TF.FileFunction,Legend,Bot*%
%TF.FilePolarity,Positive*%
%FSLAX46Y46*%
G04 Gerber Fmt 4.6, Leading zero omitted, Abs format (unit mm)*
G04 Created by KiCad (PCBNEW 9.0.6-1.fc42) date 2026-01-04 08:40:16*
%MOMM*%
%LPD*%
G01*
G04 APERTURE LIST*
G04 Aperture macros list*
%AMRotRect*
0 Rectangle, with rotation*
0 The origin of the aperture is its center*
0 $1 length*
0 $2 width*
0 $3 Rotation angle, in degrees counterclockwise*
0 Add horizontal line*
21,1,$1,$2,0,0,$3*%
G04 Aperture macros list end*
%ADD10C,0.100000*%
%ADD11C,1.400000*%
%ADD12O,1.800000X0.900000*%
%ADD13C,1.524000*%
%ADD14C,1.700000*%
%ADD15C,3.000000*%
%ADD16C,4.000000*%
%ADD17R,2.500000X2.550000*%
%ADD18RotRect,2.500000X2.550000X357.000000*%
%ADD19RotRect,2.500000X2.550000X350.000000*%
%ADD20RotRect,2.500000X2.550000X10.000000*%
%ADD21RotRect,2.500000X2.550000X20.000000*%
%ADD22RotRect,2.500000X2.550000X3.000000*%
%ADD23RotRect,2.500000X2.550000X340.000000*%
G04 APERTURE END LIST*
D10*
X239249523Y-136119800D02*
X239106666Y-136167419D01*
X239106666Y-136167419D02*
X238868571Y-136167419D01*
X238868571Y-136167419D02*
X238773333Y-136119800D01*
X238773333Y-136119800D02*
X238725714Y-136072180D01*
X238725714Y-136072180D02*
X238678095Y-135976942D01*
X238678095Y-135976942D02*
X238678095Y-135881704D01*
X238678095Y-135881704D02*
X238725714Y-135786466D01*
X238725714Y-135786466D02*
X238773333Y-135738847D01*
X238773333Y-135738847D02*
X238868571Y-135691228D01*
X238868571Y-135691228D02*
X239059047Y-135643609D01*
X239059047Y-135643609D02*
X239154285Y-135595990D01*
X239154285Y-135595990D02*
X239201904Y-135548371D01*
X239201904Y-135548371D02*
X239249523Y-135453133D01*
X239249523Y-135453133D02*
X239249523Y-135357895D01*
X239249523Y-135357895D02*
X239201904Y-135262657D01*
X239201904Y-135262657D02*
X239154285Y-135215038D01*
X239154285Y-135215038D02*
X239059047Y-135167419D01*
X239059047Y-135167419D02*
X238820952Y-135167419D01*
X238820952Y-135167419D02*
X238678095Y-135215038D01*
X238344761Y-135167419D02*
X238106666Y-136167419D01*
X238106666Y-136167419D02*
X237916190Y-135453133D01*
X237916190Y-135453133D02*
X237725714Y-136167419D01*
X237725714Y-136167419D02*
X237487619Y-135167419D01*
X236582857Y-136167419D02*
X237154285Y-136167419D01*
X236868571Y-136167419D02*
X236868571Y-135167419D01*
X236868571Y-135167419D02*
X236963809Y-135310276D01*
X236963809Y-135310276D02*
X237059047Y-135405514D01*
X237059047Y-135405514D02*
X237154285Y-135453133D01*
X235725714Y-135500752D02*
X235725714Y-136167419D01*
X235963809Y-135119800D02*
X236201904Y-135834085D01*
X236201904Y-135834085D02*
X235582857Y-135834085D01*
X200809523Y-106159800D02*
X200666666Y-106207419D01*
X200666666Y-106207419D02*
X200428571Y-106207419D01*
X200428571Y-106207419D02*
X200333333Y-106159800D01*
X200333333Y-106159800D02*
X200285714Y-106112180D01*
X200285714Y-106112180D02*
X200238095Y-106016942D01*
X200238095Y-106016942D02*
X200238095Y-105921704D01*
X200238095Y-105921704D02*
X200285714Y-105826466D01*
X200285714Y-105826466D02*
X200333333Y-105778847D01*
X200333333Y-105778847D02*
X200428571Y-105731228D01*
X200428571Y-105731228D02*
X200619047Y-105683609D01*
X200619047Y-105683609D02*
X200714285Y-105635990D01*
X200714285Y-105635990D02*
X200761904Y-105588371D01*
X200761904Y-105588371D02*
X200809523Y-105493133D01*
X200809523Y-105493133D02*
X200809523Y-105397895D01*
X200809523Y-105397895D02*
X200761904Y-105302657D01*
X200761904Y-105302657D02*
X200714285Y-105255038D01*
X200714285Y-105255038D02*
X200619047Y-105207419D01*
X200619047Y-105207419D02*
X200380952Y-105207419D01*
X200380952Y-105207419D02*
X200238095Y-105255038D01*
X199904761Y-105207419D02*
X199666666Y-106207419D01*
X199666666Y-106207419D02*
X199476190Y-105493133D01*
X199476190Y-105493133D02*
X199285714Y-106207419D01*
X199285714Y-106207419D02*
X199047619Y-105207419D01*
X198142857Y-106207419D02*
X198714285Y-106207419D01*
X198428571Y-106207419D02*
X198428571Y-105207419D01*
X198428571Y-105207419D02*
X198523809Y-105350276D01*
X198523809Y-105350276D02*
X198619047Y-105445514D01*
X198619047Y-105445514D02*
X198714285Y-105493133D01*
X197571428Y-105635990D02*
X197666666Y-105588371D01*
X197666666Y-105588371D02*
X197714285Y-105540752D01*
X197714285Y-105540752D02*
X197761904Y-105445514D01*
X197761904Y-105445514D02*
X197761904Y-105397895D01*
X197761904Y-105397895D02*
X197714285Y-105302657D01*
X197714285Y-105302657D02*
X197666666Y-105255038D01*
X197666666Y-105255038D02*
X197571428Y-105207419D01*
X197571428Y-105207419D02*
X197380952Y-105207419D01*
X197380952Y-105207419D02*
X197285714Y-105255038D01*
X197285714Y-105255038D02*
X197238095Y-105302657D01*
X197238095Y-105302657D02*
X197190476Y-105397895D01*
X197190476Y-105397895D02*
X197190476Y-105445514D01*
X197190476Y-105445514D02*
X197238095Y-105540752D01*
X197238095Y-105540752D02*
X197285714Y-105588371D01*
X197285714Y-105588371D02*
X197380952Y-105635990D01*
X197380952Y-105635990D02*
X197571428Y-105635990D01*
X197571428Y-105635990D02*
X197666666Y-105683609D01*
X197666666Y-105683609D02*
X197714285Y-105731228D01*
X197714285Y-105731228D02*
X197761904Y-105826466D01*
X197761904Y-105826466D02*
X197761904Y-106016942D01*
X197761904Y-106016942D02*
X197714285Y-106112180D01*
X197714285Y-106112180D02*
X197666666Y-106159800D01*
X197666666Y-106159800D02*
X197571428Y-106207419D01*
X197571428Y-106207419D02*
X197380952Y-106207419D01*
X197380952Y-106207419D02*
X197285714Y-106159800D01*
X197285714Y-106159800D02*
X197238095Y-106112180D01*
X197238095Y-106112180D02*
X197190476Y-106016942D01*
X197190476Y-106016942D02*
X197190476Y-105826466D01*
X197190476Y-105826466D02*
X197238095Y-105731228D01*
X197238095Y-105731228D02*
X197285714Y-105683609D01*
X197285714Y-105683609D02*
X197380952Y-105635990D01*
X118559523Y-102659800D02*
X118416666Y-102707419D01*
X118416666Y-102707419D02*
X118178571Y-102707419D01*
X118178571Y-102707419D02*
X118083333Y-102659800D01*
X118083333Y-102659800D02*
X118035714Y-102612180D01*
X118035714Y-102612180D02*
X117988095Y-102516942D01*
X117988095Y-102516942D02*
X117988095Y-102421704D01*
X117988095Y-102421704D02*
X118035714Y-102326466D01*
X118035714Y-102326466D02*
X118083333Y-102278847D01*
X118083333Y-102278847D02*
X118178571Y-102231228D01*
X118178571Y-102231228D02*
X118369047Y-102183609D01*
X118369047Y-102183609D02*
X118464285Y-102135990D01*
X118464285Y-102135990D02*
X118511904Y-102088371D01*
X118511904Y-102088371D02*
X118559523Y-101993133D01*
X118559523Y-101993133D02*
X118559523Y-101897895D01*
X118559523Y-101897895D02*
X118511904Y-101802657D01*
X118511904Y-101802657D02*
X118464285Y-101755038D01*
X118464285Y-101755038D02*
X118369047Y-101707419D01*
X118369047Y-101707419D02*
X118130952Y-101707419D01*
X118130952Y-101707419D02*
X117988095Y-101755038D01*
X117654761Y-101707419D02*
X117416666Y-102707419D01*
X117416666Y-102707419D02*
X117226190Y-101993133D01*
X117226190Y-101993133D02*
X117035714Y-102707419D01*
X117035714Y-102707419D02*
X116797619Y-101707419D01*
X116464285Y-101802657D02*
X116416666Y-101755038D01*
X116416666Y-101755038D02*
X116321428Y-101707419D01*
X116321428Y-101707419D02*
X116083333Y-101707419D01*
X116083333Y-101707419D02*
X115988095Y-101755038D01*
X115988095Y-101755038D02*
X115940476Y-101802657D01*
X115940476Y-101802657D02*
X115892857Y-101897895D01*
X115892857Y-101897895D02*
X115892857Y-101993133D01*
X115892857Y-101993133D02*
X115940476Y-102135990D01*
X115940476Y-102135990D02*
X116511904Y-102707419D01*
X116511904Y-102707419D02*
X115892857Y-102707419D01*
X115273809Y-101707419D02*
X115178571Y-101707419D01*
X115178571Y-101707419D02*
X115083333Y-101755038D01*
X115083333Y-101755038D02*
X115035714Y-101802657D01*
X115035714Y-101802657D02*
X114988095Y-101897895D01*
X114988095Y-101897895D02*
X114940476Y-102088371D01*
X114940476Y-102088371D02*
X114940476Y-102326466D01*
X114940476Y-102326466D02*
X114988095Y-102516942D01*
X114988095Y-102516942D02*
X115035714Y-102612180D01*
X115035714Y-102612180D02*
X115083333Y-102659800D01*
X115083333Y-102659800D02*
X115178571Y-102707419D01*
X115178571Y-102707419D02*
X115273809Y-102707419D01*
X115273809Y-102707419D02*
X115369047Y-102659800D01*
X115369047Y-102659800D02*
X115416666Y-102612180D01*
X115416666Y-102612180D02*
X115464285Y-102516942D01*
X115464285Y-102516942D02*
X115511904Y-102326466D01*
X115511904Y-102326466D02*
X115511904Y-102088371D01*
X115511904Y-102088371D02*
X115464285Y-101897895D01*
X115464285Y-101897895D02*
X115416666Y-101802657D01*
X115416666Y-101802657D02*
X115369047Y-101755038D01*
X115369047Y-101755038D02*
X115273809Y-101707419D01*
X260389443Y-101734551D02*
X260244289Y-101774628D01*
X260244289Y-101774628D02*
X260006520Y-101762167D01*
X260006520Y-101762167D02*
X259913905Y-101709629D01*
X259913905Y-101709629D02*
X259868843Y-101659583D01*
X259868843Y-101659583D02*
X259826274Y-101561984D01*
X259826274Y-101561984D02*
X259831258Y-101466876D01*
X259831258Y-101466876D02*
X259883796Y-101374261D01*
X259883796Y-101374261D02*
X259933842Y-101329199D01*
X259933842Y-101329199D02*
X260031442Y-101286630D01*
X260031442Y-101286630D02*
X260224149Y-101249045D01*
X260224149Y-101249045D02*
X260321749Y-101206475D01*
X260321749Y-101206475D02*
X260371795Y-101161413D01*
X260371795Y-101161413D02*
X260424333Y-101068798D01*
X260424333Y-101068798D02*
X260429318Y-100973691D01*
X260429318Y-100973691D02*
X260386748Y-100876091D01*
X260386748Y-100876091D02*
X260341687Y-100826045D01*
X260341687Y-100826045D02*
X260249071Y-100773507D01*
X260249071Y-100773507D02*
X260011302Y-100761046D01*
X260011302Y-100761046D02*
X259866149Y-100801123D01*
X259535765Y-100736124D02*
X259245660Y-101722292D01*
X259245660Y-101722292D02*
X259092827Y-100999017D01*
X259092827Y-100999017D02*
X258865229Y-101702355D01*
X258865229Y-101702355D02*
X258679796Y-100691264D01*
X258394474Y-100676311D02*
X257776275Y-100643913D01*
X257776275Y-100643913D02*
X258089214Y-101041788D01*
X258089214Y-101041788D02*
X257946552Y-101034312D01*
X257946552Y-101034312D02*
X257848952Y-101076881D01*
X257848952Y-101076881D02*
X257798906Y-101121943D01*
X257798906Y-101121943D02*
X257746368Y-101214558D01*
X257746368Y-101214558D02*
X257733907Y-101452327D01*
X257733907Y-101452327D02*
X257776477Y-101549927D01*
X257776477Y-101549927D02*
X257821538Y-101599973D01*
X257821538Y-101599973D02*
X257914154Y-101652511D01*
X257914154Y-101652511D02*
X258199476Y-101667464D01*
X258199476Y-101667464D02*
X258297076Y-101624895D01*
X258297076Y-101624895D02*
X258347122Y-101579833D01*
X297045586Y-145834184D02*
X296896630Y-145856272D01*
X296896630Y-145856272D02*
X296662152Y-145814927D01*
X296662152Y-145814927D02*
X296576630Y-145751494D01*
X296576630Y-145751494D02*
X296538003Y-145696329D01*
X296538003Y-145696329D02*
X296507646Y-145594269D01*
X296507646Y-145594269D02*
X296524183Y-145500478D01*
X296524183Y-145500478D02*
X296587617Y-145414956D01*
X296587617Y-145414956D02*
X296642782Y-145376329D01*
X296642782Y-145376329D02*
X296744842Y-145345971D01*
X296744842Y-145345971D02*
X296940693Y-145332152D01*
X296940693Y-145332152D02*
X297042753Y-145301794D01*
X297042753Y-145301794D02*
X297097918Y-145263167D01*
X297097918Y-145263167D02*
X297161351Y-145177645D01*
X297161351Y-145177645D02*
X297177889Y-145083854D01*
X297177889Y-145083854D02*
X297147532Y-144981794D01*
X297147532Y-144981794D02*
X297108905Y-144926629D01*
X297108905Y-144926629D02*
X297023383Y-144863196D01*
X297023383Y-144863196D02*
X296788905Y-144821851D01*
X296788905Y-144821851D02*
X296639949Y-144843939D01*
X296319949Y-144739161D02*
X295911822Y-145682624D01*
X295911822Y-145682624D02*
X295848274Y-144946114D01*
X295848274Y-144946114D02*
X295536658Y-145616472D01*
X295536658Y-145616472D02*
X295475828Y-144590320D01*
X295194454Y-144540706D02*
X294537916Y-144424941D01*
X294537916Y-144424941D02*
X294786328Y-145484169D01*
X56353194Y-122339353D02*
X56220776Y-122411056D01*
X56220776Y-122411056D02*
X55986298Y-122452400D01*
X55986298Y-122452400D02*
X55884238Y-122422043D01*
X55884238Y-122422043D02*
X55829073Y-122383416D01*
X55829073Y-122383416D02*
X55765639Y-122297894D01*
X55765639Y-122297894D02*
X55749102Y-122204103D01*
X55749102Y-122204103D02*
X55779459Y-122102043D01*
X55779459Y-122102043D02*
X55818086Y-122046878D01*
X55818086Y-122046878D02*
X55903608Y-121983444D01*
X55903608Y-121983444D02*
X56082922Y-121903473D01*
X56082922Y-121903473D02*
X56168444Y-121840039D01*
X56168444Y-121840039D02*
X56207070Y-121784875D01*
X56207070Y-121784875D02*
X56237428Y-121682815D01*
X56237428Y-121682815D02*
X56220890Y-121589023D01*
X56220890Y-121589023D02*
X56157457Y-121503501D01*
X56157457Y-121503501D02*
X56102292Y-121464875D01*
X56102292Y-121464875D02*
X56000232Y-121434517D01*
X56000232Y-121434517D02*
X55765754Y-121475862D01*
X55765754Y-121475862D02*
X55633336Y-121547564D01*
X55296798Y-121558551D02*
X55235968Y-122584704D01*
X55235968Y-122584704D02*
X54924351Y-121914346D01*
X54924351Y-121914346D02*
X54860803Y-122650856D01*
X54860803Y-122650856D02*
X54452677Y-121707393D01*
X54140946Y-121859067D02*
X54085781Y-121820440D01*
X54085781Y-121820440D02*
X53983721Y-121790082D01*
X53983721Y-121790082D02*
X53749243Y-121831427D01*
X53749243Y-121831427D02*
X53663721Y-121894861D01*
X53663721Y-121894861D02*
X53625094Y-121950025D01*
X53625094Y-121950025D02*
X53594736Y-122052085D01*
X53594736Y-122052085D02*
X53611274Y-122145876D01*
X53611274Y-122145876D02*
X53682977Y-122278294D01*
X53682977Y-122278294D02*
X54344952Y-122741814D01*
X54344952Y-122741814D02*
X53735309Y-122849311D01*
X53233391Y-121922386D02*
X52623748Y-122029882D01*
X52623748Y-122029882D02*
X53018169Y-122347164D01*
X53018169Y-122347164D02*
X52877482Y-122371971D01*
X52877482Y-122371971D02*
X52791960Y-122435405D01*
X52791960Y-122435405D02*
X52753333Y-122490569D01*
X52753333Y-122490569D02*
X52722976Y-122592629D01*
X52722976Y-122592629D02*
X52764321Y-122827107D01*
X52764321Y-122827107D02*
X52827754Y-122912630D01*
X52827754Y-122912630D02*
X52882919Y-122951256D01*
X52882919Y-122951256D02*
X52984979Y-122981614D01*
X52984979Y-122981614D02*
X53266353Y-122932000D01*
X53266353Y-122932000D02*
X53351875Y-122868567D01*
X53351875Y-122868567D02*
X53390501Y-122813402D01*
X186452122Y-169820193D02*
X186334166Y-169913800D01*
X186334166Y-169913800D02*
X186110430Y-169995234D01*
X186110430Y-169995234D02*
X186004649Y-169983060D01*
X186004649Y-169983060D02*
X185943615Y-169954599D01*
X185943615Y-169954599D02*
X185866294Y-169881391D01*
X185866294Y-169881391D02*
X185833721Y-169791897D01*
X185833721Y-169791897D02*
X185845895Y-169686115D01*
X185845895Y-169686115D02*
X185874355Y-169625082D01*
X185874355Y-169625082D02*
X185947563Y-169547761D01*
X185947563Y-169547761D02*
X186110266Y-169437867D01*
X186110266Y-169437867D02*
X186183474Y-169360546D01*
X186183474Y-169360546D02*
X186211934Y-169299512D01*
X186211934Y-169299512D02*
X186224108Y-169193731D01*
X186224108Y-169193731D02*
X186191535Y-169104237D01*
X186191535Y-169104237D02*
X186114214Y-169031029D01*
X186114214Y-169031029D02*
X186053180Y-169002568D01*
X186053180Y-169002568D02*
X185947399Y-168990394D01*
X185947399Y-168990394D02*
X185723663Y-169071828D01*
X185723663Y-169071828D02*
X185605708Y-169165435D01*
X185276190Y-169234694D02*
X185394474Y-170255820D01*
X185394474Y-170255820D02*
X184971185Y-169649758D01*
X184971185Y-169649758D02*
X185036496Y-170386114D01*
X185036496Y-170386114D02*
X184470739Y-169527855D01*
X183962561Y-170776994D02*
X184499529Y-170581554D01*
X184231045Y-170679274D02*
X183889025Y-169739581D01*
X183889025Y-169739581D02*
X184027379Y-169841250D01*
X184027379Y-169841250D02*
X184149447Y-169898171D01*
X184149447Y-169898171D02*
X184255228Y-169910345D01*
X182815090Y-170130461D02*
X182994079Y-170065315D01*
X182994079Y-170065315D02*
X183099861Y-170077489D01*
X183099861Y-170077489D02*
X183160895Y-170105949D01*
X183160895Y-170105949D02*
X183299249Y-170207618D01*
X183299249Y-170207618D02*
X183409143Y-170370320D01*
X183409143Y-170370320D02*
X183539436Y-170728298D01*
X183539436Y-170728298D02*
X183527262Y-170834079D01*
X183527262Y-170834079D02*
X183498802Y-170895113D01*
X183498802Y-170895113D02*
X183425594Y-170972434D01*
X183425594Y-170972434D02*
X183246605Y-171037581D01*
X183246605Y-171037581D02*
X183140824Y-171025407D01*
X183140824Y-171025407D02*
X183079790Y-170996946D01*
X183079790Y-170996946D02*
X183002469Y-170923738D01*
X183002469Y-170923738D02*
X182921036Y-170700002D01*
X182921036Y-170700002D02*
X182933210Y-170594221D01*
X182933210Y-170594221D02*
X182961670Y-170533187D01*
X182961670Y-170533187D02*
X183034878Y-170455866D01*
X183034878Y-170455866D02*
X183213867Y-170390720D01*
X183213867Y-170390720D02*
X183319648Y-170402893D01*
X183319648Y-170402893D02*
X183380682Y-170431354D01*
X183380682Y-170431354D02*
X183458003Y-170504562D01*
X259385779Y-121054455D02*
X259240625Y-121094532D01*
X259240625Y-121094532D02*
X259002856Y-121082071D01*
X259002856Y-121082071D02*
X258910241Y-121029533D01*
X258910241Y-121029533D02*
X258865179Y-120979487D01*
X258865179Y-120979487D02*
X258822610Y-120881888D01*
X258822610Y-120881888D02*
X258827594Y-120786780D01*
X258827594Y-120786780D02*
X258880132Y-120694165D01*
X258880132Y-120694165D02*
X258930178Y-120649103D01*
X258930178Y-120649103D02*
X259027778Y-120606534D01*
X259027778Y-120606534D02*
X259220485Y-120568949D01*
X259220485Y-120568949D02*
X259318085Y-120526379D01*
X259318085Y-120526379D02*
X259368131Y-120481317D01*
X259368131Y-120481317D02*
X259420669Y-120388702D01*
X259420669Y-120388702D02*
X259425654Y-120293595D01*
X259425654Y-120293595D02*
X259383084Y-120195995D01*
X259383084Y-120195995D02*
X259338023Y-120145949D01*
X259338023Y-120145949D02*
X259245407Y-120093411D01*
X259245407Y-120093411D02*
X259007638Y-120080950D01*
X259007638Y-120080950D02*
X258862485Y-120121027D01*
X258532101Y-120056028D02*
X258241996Y-121042196D01*
X258241996Y-121042196D02*
X258089163Y-120318921D01*
X258089163Y-120318921D02*
X257861565Y-121022259D01*
X257861565Y-121022259D02*
X257676132Y-120011168D01*
X257195812Y-120987368D02*
X257005597Y-120977400D01*
X257005597Y-120977400D02*
X256912982Y-120924861D01*
X256912982Y-120924861D02*
X256867920Y-120874815D01*
X256867920Y-120874815D02*
X256780289Y-120727170D01*
X256780289Y-120727170D02*
X256742704Y-120534462D01*
X256742704Y-120534462D02*
X256762642Y-120154032D01*
X256762642Y-120154032D02*
X256815180Y-120061417D01*
X256815180Y-120061417D02*
X256865226Y-120016355D01*
X256865226Y-120016355D02*
X256962826Y-119973786D01*
X256962826Y-119973786D02*
X257153041Y-119983754D01*
X257153041Y-119983754D02*
X257245656Y-120036293D01*
X257245656Y-120036293D02*
X257290718Y-120086338D01*
X257290718Y-120086338D02*
X257333287Y-120183938D01*
X257333287Y-120183938D02*
X257320826Y-120421707D01*
X257320826Y-120421707D02*
X257268288Y-120514323D01*
X257268288Y-120514323D02*
X257218242Y-120559384D01*
X257218242Y-120559384D02*
X257120642Y-120601954D01*
X257120642Y-120601954D02*
X256930427Y-120591985D01*
X256930427Y-120591985D02*
X256837812Y-120539447D01*
X256837812Y-120539447D02*
X256792750Y-120489401D01*
X256792750Y-120489401D02*
X256750181Y-120391801D01*
X220059523Y-122159800D02*
X219916666Y-122207419D01*
X219916666Y-122207419D02*
X219678571Y-122207419D01*
X219678571Y-122207419D02*
X219583333Y-122159800D01*
X219583333Y-122159800D02*
X219535714Y-122112180D01*
X219535714Y-122112180D02*
X219488095Y-122016942D01*
X219488095Y-122016942D02*
X219488095Y-121921704D01*
X219488095Y-121921704D02*
X219535714Y-121826466D01*
X219535714Y-121826466D02*
X219583333Y-121778847D01*
X219583333Y-121778847D02*
X219678571Y-121731228D01*
X219678571Y-121731228D02*
X219869047Y-121683609D01*
X219869047Y-121683609D02*
X219964285Y-121635990D01*
X219964285Y-121635990D02*
X220011904Y-121588371D01*
X220011904Y-121588371D02*
X220059523Y-121493133D01*
X220059523Y-121493133D02*
X220059523Y-121397895D01*
X220059523Y-121397895D02*
X220011904Y-121302657D01*
X220011904Y-121302657D02*
X219964285Y-121255038D01*
X219964285Y-121255038D02*
X219869047Y-121207419D01*
X219869047Y-121207419D02*
X219630952Y-121207419D01*
X219630952Y-121207419D02*
X219488095Y-121255038D01*
X219154761Y-121207419D02*
X218916666Y-122207419D01*
X218916666Y-122207419D02*
X218726190Y-121493133D01*
X218726190Y-121493133D02*
X218535714Y-122207419D01*
X218535714Y-122207419D02*
X218297619Y-121207419D01*
X217392857Y-122207419D02*
X217964285Y-122207419D01*
X217678571Y-122207419D02*
X217678571Y-121207419D01*
X217678571Y-121207419D02*
X217773809Y-121350276D01*
X217773809Y-121350276D02*
X217869047Y-121445514D01*
X217869047Y-121445514D02*
X217964285Y-121493133D01*
X216488095Y-121207419D02*
X216964285Y-121207419D01*
X216964285Y-121207419D02*
X217011904Y-121683609D01*
X217011904Y-121683609D02*
X216964285Y-121635990D01*
X216964285Y-121635990D02*
X216869047Y-121588371D01*
X216869047Y-121588371D02*
X216630952Y-121588371D01*
X216630952Y-121588371D02*
X216535714Y-121635990D01*
X216535714Y-121635990D02*
X216488095Y-121683609D01*
X216488095Y-121683609D02*
X216440476Y-121778847D01*
X216440476Y-121778847D02*
X216440476Y-122016942D01*
X216440476Y-122016942D02*
X216488095Y-122112180D01*
X216488095Y-122112180D02*
X216535714Y-122159800D01*
X216535714Y-122159800D02*
X216630952Y-122207419D01*
X216630952Y-122207419D02*
X216869047Y-122207419D01*
X216869047Y-122207419D02*
X216964285Y-122159800D01*
X216964285Y-122159800D02*
X217011904Y-122112180D01*
X77578496Y-101314535D02*
X77438327Y-101369565D01*
X77438327Y-101369565D02*
X77200558Y-101382026D01*
X77200558Y-101382026D02*
X77102958Y-101339457D01*
X77102958Y-101339457D02*
X77052912Y-101294395D01*
X77052912Y-101294395D02*
X77000374Y-101201780D01*
X77000374Y-101201780D02*
X76995389Y-101106672D01*
X76995389Y-101106672D02*
X77037959Y-101009072D01*
X77037959Y-101009072D02*
X77083020Y-100959026D01*
X77083020Y-100959026D02*
X77175636Y-100906488D01*
X77175636Y-100906488D02*
X77363359Y-100848966D01*
X77363359Y-100848966D02*
X77455974Y-100796427D01*
X77455974Y-100796427D02*
X77501036Y-100746381D01*
X77501036Y-100746381D02*
X77543605Y-100648782D01*
X77543605Y-100648782D02*
X77538621Y-100553674D01*
X77538621Y-100553674D02*
X77486083Y-100461059D01*
X77486083Y-100461059D02*
X77436037Y-100415997D01*
X77436037Y-100415997D02*
X77338437Y-100373428D01*
X77338437Y-100373428D02*
X77100668Y-100385889D01*
X77100668Y-100385889D02*
X76960499Y-100440919D01*
X76625130Y-100410811D02*
X76439697Y-101421901D01*
X76439697Y-101421901D02*
X76212099Y-100718563D01*
X76212099Y-100718563D02*
X76059267Y-101441839D01*
X76059267Y-101441839D02*
X75769162Y-100455670D01*
X75441270Y-100568223D02*
X75391224Y-100523161D01*
X75391224Y-100523161D02*
X75293624Y-100480592D01*
X75293624Y-100480592D02*
X75055855Y-100493053D01*
X75055855Y-100493053D02*
X74963240Y-100545591D01*
X74963240Y-100545591D02*
X74918178Y-100595637D01*
X74918178Y-100595637D02*
X74875609Y-100693237D01*
X74875609Y-100693237D02*
X74880593Y-100788344D01*
X74880593Y-100788344D02*
X74935623Y-100928513D01*
X74935623Y-100928513D02*
X75536175Y-101469253D01*
X75536175Y-101469253D02*
X74917976Y-101501651D01*
X74490194Y-100618067D02*
X74440148Y-100573005D01*
X74440148Y-100573005D02*
X74342548Y-100530436D01*
X74342548Y-100530436D02*
X74104779Y-100542897D01*
X74104779Y-100542897D02*
X74012164Y-100595435D01*
X74012164Y-100595435D02*
X73967102Y-100645481D01*
X73967102Y-100645481D02*
X73924533Y-100743080D01*
X73924533Y-100743080D02*
X73929517Y-100838188D01*
X73929517Y-100838188D02*
X73984548Y-100978357D01*
X73984548Y-100978357D02*
X74585099Y-101519096D01*
X74585099Y-101519096D02*
X73966900Y-101551495D01*
X99309523Y-116659800D02*
X99166666Y-116707419D01*
X99166666Y-116707419D02*
X98928571Y-116707419D01*
X98928571Y-116707419D02*
X98833333Y-116659800D01*
X98833333Y-116659800D02*
X98785714Y-116612180D01*
X98785714Y-116612180D02*
X98738095Y-116516942D01*
X98738095Y-116516942D02*
X98738095Y-116421704D01*
X98738095Y-116421704D02*
X98785714Y-116326466D01*
X98785714Y-116326466D02*
X98833333Y-116278847D01*
X98833333Y-116278847D02*
X98928571Y-116231228D01*
X98928571Y-116231228D02*
X99119047Y-116183609D01*
X99119047Y-116183609D02*
X99214285Y-116135990D01*
X99214285Y-116135990D02*
X99261904Y-116088371D01*
X99261904Y-116088371D02*
X99309523Y-115993133D01*
X99309523Y-115993133D02*
X99309523Y-115897895D01*
X99309523Y-115897895D02*
X99261904Y-115802657D01*
X99261904Y-115802657D02*
X99214285Y-115755038D01*
X99214285Y-115755038D02*
X99119047Y-115707419D01*
X99119047Y-115707419D02*
X98880952Y-115707419D01*
X98880952Y-115707419D02*
X98738095Y-115755038D01*
X98404761Y-115707419D02*
X98166666Y-116707419D01*
X98166666Y-116707419D02*
X97976190Y-115993133D01*
X97976190Y-115993133D02*
X97785714Y-116707419D01*
X97785714Y-116707419D02*
X97547619Y-115707419D01*
X97214285Y-115802657D02*
X97166666Y-115755038D01*
X97166666Y-115755038D02*
X97071428Y-115707419D01*
X97071428Y-115707419D02*
X96833333Y-115707419D01*
X96833333Y-115707419D02*
X96738095Y-115755038D01*
X96738095Y-115755038D02*
X96690476Y-115802657D01*
X96690476Y-115802657D02*
X96642857Y-115897895D01*
X96642857Y-115897895D02*
X96642857Y-115993133D01*
X96642857Y-115993133D02*
X96690476Y-116135990D01*
X96690476Y-116135990D02*
X97261904Y-116707419D01*
X97261904Y-116707419D02*
X96642857Y-116707419D01*
X96309523Y-115707419D02*
X95642857Y-115707419D01*
X95642857Y-115707419D02*
X96071428Y-116707419D01*
X118309523Y-122409800D02*
X118166666Y-122457419D01*
X118166666Y-122457419D02*
X117928571Y-122457419D01*
X117928571Y-122457419D02*
X117833333Y-122409800D01*
X117833333Y-122409800D02*
X117785714Y-122362180D01*
X117785714Y-122362180D02*
X117738095Y-122266942D01*
X117738095Y-122266942D02*
X117738095Y-122171704D01*
X117738095Y-122171704D02*
X117785714Y-122076466D01*
X117785714Y-122076466D02*
X117833333Y-122028847D01*
X117833333Y-122028847D02*
X117928571Y-121981228D01*
X117928571Y-121981228D02*
X118119047Y-121933609D01*
X118119047Y-121933609D02*
X118214285Y-121885990D01*
X118214285Y-121885990D02*
X118261904Y-121838371D01*
X118261904Y-121838371D02*
X118309523Y-121743133D01*
X118309523Y-121743133D02*
X118309523Y-121647895D01*
X118309523Y-121647895D02*
X118261904Y-121552657D01*
X118261904Y-121552657D02*
X118214285Y-121505038D01*
X118214285Y-121505038D02*
X118119047Y-121457419D01*
X118119047Y-121457419D02*
X117880952Y-121457419D01*
X117880952Y-121457419D02*
X117738095Y-121505038D01*
X117404761Y-121457419D02*
X117166666Y-122457419D01*
X117166666Y-122457419D02*
X116976190Y-121743133D01*
X116976190Y-121743133D02*
X116785714Y-122457419D01*
X116785714Y-122457419D02*
X116547619Y-121457419D01*
X116214285Y-121552657D02*
X116166666Y-121505038D01*
X116166666Y-121505038D02*
X116071428Y-121457419D01*
X116071428Y-121457419D02*
X115833333Y-121457419D01*
X115833333Y-121457419D02*
X115738095Y-121505038D01*
X115738095Y-121505038D02*
X115690476Y-121552657D01*
X115690476Y-121552657D02*
X115642857Y-121647895D01*
X115642857Y-121647895D02*
X115642857Y-121743133D01*
X115642857Y-121743133D02*
X115690476Y-121885990D01*
X115690476Y-121885990D02*
X116261904Y-122457419D01*
X116261904Y-122457419D02*
X115642857Y-122457419D01*
X114785714Y-121457419D02*
X114976190Y-121457419D01*
X114976190Y-121457419D02*
X115071428Y-121505038D01*
X115071428Y-121505038D02*
X115119047Y-121552657D01*
X115119047Y-121552657D02*
X115214285Y-121695514D01*
X115214285Y-121695514D02*
X115261904Y-121885990D01*
X115261904Y-121885990D02*
X115261904Y-122266942D01*
X115261904Y-122266942D02*
X115214285Y-122362180D01*
X115214285Y-122362180D02*
X115166666Y-122409800D01*
X115166666Y-122409800D02*
X115071428Y-122457419D01*
X115071428Y-122457419D02*
X114880952Y-122457419D01*
X114880952Y-122457419D02*
X114785714Y-122409800D01*
X114785714Y-122409800D02*
X114738095Y-122362180D01*
X114738095Y-122362180D02*
X114690476Y-122266942D01*
X114690476Y-122266942D02*
X114690476Y-122028847D01*
X114690476Y-122028847D02*
X114738095Y-121933609D01*
X114738095Y-121933609D02*
X114785714Y-121885990D01*
X114785714Y-121885990D02*
X114880952Y-121838371D01*
X114880952Y-121838371D02*
X115071428Y-121838371D01*
X115071428Y-121838371D02*
X115166666Y-121885990D01*
X115166666Y-121885990D02*
X115214285Y-121933609D01*
X115214285Y-121933609D02*
X115261904Y-122028847D01*
X78578491Y-121064535D02*
X78438322Y-121119565D01*
X78438322Y-121119565D02*
X78200553Y-121132026D01*
X78200553Y-121132026D02*
X78102953Y-121089457D01*
X78102953Y-121089457D02*
X78052907Y-121044395D01*
X78052907Y-121044395D02*
X78000369Y-120951780D01*
X78000369Y-120951780D02*
X77995384Y-120856672D01*
X77995384Y-120856672D02*
X78037954Y-120759072D01*
X78037954Y-120759072D02*
X78083015Y-120709026D01*
X78083015Y-120709026D02*
X78175631Y-120656488D01*
X78175631Y-120656488D02*
X78363354Y-120598966D01*
X78363354Y-120598966D02*
X78455969Y-120546427D01*
X78455969Y-120546427D02*
X78501031Y-120496381D01*
X78501031Y-120496381D02*
X78543600Y-120398782D01*
X78543600Y-120398782D02*
X78538616Y-120303674D01*
X78538616Y-120303674D02*
X78486078Y-120211059D01*
X78486078Y-120211059D02*
X78436032Y-120165997D01*
X78436032Y-120165997D02*
X78338432Y-120123428D01*
X78338432Y-120123428D02*
X78100663Y-120135889D01*
X78100663Y-120135889D02*
X77960494Y-120190919D01*
X77625125Y-120160811D02*
X77439692Y-121171901D01*
X77439692Y-121171901D02*
X77212094Y-120468563D01*
X77212094Y-120468563D02*
X77059262Y-121191839D01*
X77059262Y-121191839D02*
X76769157Y-120205670D01*
X76441265Y-120318223D02*
X76391219Y-120273161D01*
X76391219Y-120273161D02*
X76293619Y-120230592D01*
X76293619Y-120230592D02*
X76055850Y-120243053D01*
X76055850Y-120243053D02*
X75963235Y-120295591D01*
X75963235Y-120295591D02*
X75918173Y-120345637D01*
X75918173Y-120345637D02*
X75875604Y-120443237D01*
X75875604Y-120443237D02*
X75880588Y-120538344D01*
X75880588Y-120538344D02*
X75935618Y-120678513D01*
X75935618Y-120678513D02*
X76536170Y-121219253D01*
X76536170Y-121219253D02*
X75917971Y-121251651D01*
X75317419Y-120710912D02*
X75410035Y-120658374D01*
X75410035Y-120658374D02*
X75455096Y-120608328D01*
X75455096Y-120608328D02*
X75497666Y-120510728D01*
X75497666Y-120510728D02*
X75495173Y-120463174D01*
X75495173Y-120463174D02*
X75442635Y-120370559D01*
X75442635Y-120370559D02*
X75392589Y-120325497D01*
X75392589Y-120325497D02*
X75294989Y-120282928D01*
X75294989Y-120282928D02*
X75104774Y-120292897D01*
X75104774Y-120292897D02*
X75012159Y-120345435D01*
X75012159Y-120345435D02*
X74967097Y-120395481D01*
X74967097Y-120395481D02*
X74924528Y-120493080D01*
X74924528Y-120493080D02*
X74927020Y-120540634D01*
X74927020Y-120540634D02*
X74979558Y-120633250D01*
X74979558Y-120633250D02*
X75029604Y-120678311D01*
X75029604Y-120678311D02*
X75127204Y-120720881D01*
X75127204Y-120720881D02*
X75317419Y-120710912D01*
X75317419Y-120710912D02*
X75415019Y-120753481D01*
X75415019Y-120753481D02*
X75465065Y-120798543D01*
X75465065Y-120798543D02*
X75517603Y-120891158D01*
X75517603Y-120891158D02*
X75527572Y-121081373D01*
X75527572Y-121081373D02*
X75485002Y-121178973D01*
X75485002Y-121178973D02*
X75439941Y-121229019D01*
X75439941Y-121229019D02*
X75347325Y-121281557D01*
X75347325Y-121281557D02*
X75157110Y-121291526D01*
X75157110Y-121291526D02*
X75059510Y-121248957D01*
X75059510Y-121248957D02*
X75009465Y-121203895D01*
X75009465Y-121203895D02*
X74956926Y-121111280D01*
X74956926Y-121111280D02*
X74946958Y-120921065D01*
X74946958Y-120921065D02*
X74989527Y-120823465D01*
X74989527Y-120823465D02*
X75034589Y-120773419D01*
X75034589Y-120773419D02*
X75127204Y-120720881D01*
X277941397Y-143175069D02*
X277792441Y-143197157D01*
X277792441Y-143197157D02*
X277557963Y-143155812D01*
X277557963Y-143155812D02*
X277472441Y-143092379D01*
X277472441Y-143092379D02*
X277433814Y-143037214D01*
X277433814Y-143037214D02*
X277403457Y-142935154D01*
X277403457Y-142935154D02*
X277419994Y-142841363D01*
X277419994Y-142841363D02*
X277483428Y-142755841D01*
X277483428Y-142755841D02*
X277538593Y-142717214D01*
X277538593Y-142717214D02*
X277640653Y-142686856D01*
X277640653Y-142686856D02*
X277836504Y-142673037D01*
X277836504Y-142673037D02*
X277938564Y-142642679D01*
X277938564Y-142642679D02*
X277993729Y-142604052D01*
X277993729Y-142604052D02*
X278057162Y-142518530D01*
X278057162Y-142518530D02*
X278073700Y-142424739D01*
X278073700Y-142424739D02*
X278043343Y-142322679D01*
X278043343Y-142322679D02*
X278004716Y-142267514D01*
X278004716Y-142267514D02*
X277919194Y-142204081D01*
X277919194Y-142204081D02*
X277684716Y-142162736D01*
X277684716Y-142162736D02*
X277535760Y-142184824D01*
X277215760Y-142080046D02*
X276807633Y-143023509D01*
X276807633Y-143023509D02*
X276744085Y-142286999D01*
X276744085Y-142286999D02*
X276432469Y-142957357D01*
X276432469Y-142957357D02*
X276371639Y-141931205D01*
X275306974Y-142758902D02*
X275869721Y-142858130D01*
X275588348Y-142808516D02*
X275761996Y-141823708D01*
X275761996Y-141823708D02*
X275830980Y-141980933D01*
X275830980Y-141980933D02*
X275908234Y-142091262D01*
X275908234Y-142091262D02*
X275993756Y-142154696D01*
X281622142Y-122423253D02*
X281473186Y-122445341D01*
X281473186Y-122445341D02*
X281238708Y-122403996D01*
X281238708Y-122403996D02*
X281153186Y-122340563D01*
X281153186Y-122340563D02*
X281114559Y-122285398D01*
X281114559Y-122285398D02*
X281084202Y-122183338D01*
X281084202Y-122183338D02*
X281100739Y-122089547D01*
X281100739Y-122089547D02*
X281164173Y-122004025D01*
X281164173Y-122004025D02*
X281219338Y-121965398D01*
X281219338Y-121965398D02*
X281321398Y-121935040D01*
X281321398Y-121935040D02*
X281517249Y-121921221D01*
X281517249Y-121921221D02*
X281619309Y-121890863D01*
X281619309Y-121890863D02*
X281674474Y-121852236D01*
X281674474Y-121852236D02*
X281737907Y-121766714D01*
X281737907Y-121766714D02*
X281754445Y-121672923D01*
X281754445Y-121672923D02*
X281724088Y-121570863D01*
X281724088Y-121570863D02*
X281685461Y-121515698D01*
X281685461Y-121515698D02*
X281599939Y-121452265D01*
X281599939Y-121452265D02*
X281365461Y-121410920D01*
X281365461Y-121410920D02*
X281216505Y-121433008D01*
X280896505Y-121328230D02*
X280488378Y-122271693D01*
X280488378Y-122271693D02*
X280424830Y-121535183D01*
X280424830Y-121535183D02*
X280113214Y-122205541D01*
X280113214Y-122205541D02*
X280052384Y-121179389D01*
X279707577Y-121215297D02*
X279668950Y-121160133D01*
X279668950Y-121160133D02*
X279583428Y-121096699D01*
X279583428Y-121096699D02*
X279348950Y-121055354D01*
X279348950Y-121055354D02*
X279246890Y-121085712D01*
X279246890Y-121085712D02*
X279191725Y-121124339D01*
X279191725Y-121124339D02*
X279128291Y-121209861D01*
X279128291Y-121209861D02*
X279111754Y-121303652D01*
X279111754Y-121303652D02*
X279133842Y-121452608D01*
X279133842Y-121452608D02*
X279597362Y-122114583D01*
X279597362Y-122114583D02*
X278987719Y-122007086D01*
X39353194Y-138589353D02*
X39220776Y-138661056D01*
X39220776Y-138661056D02*
X38986298Y-138702400D01*
X38986298Y-138702400D02*
X38884238Y-138672043D01*
X38884238Y-138672043D02*
X38829073Y-138633416D01*
X38829073Y-138633416D02*
X38765639Y-138547894D01*
X38765639Y-138547894D02*
X38749102Y-138454103D01*
X38749102Y-138454103D02*
X38779459Y-138352043D01*
X38779459Y-138352043D02*
X38818086Y-138296878D01*
X38818086Y-138296878D02*
X38903608Y-138233444D01*
X38903608Y-138233444D02*
X39082922Y-138153473D01*
X39082922Y-138153473D02*
X39168444Y-138090039D01*
X39168444Y-138090039D02*
X39207070Y-138034875D01*
X39207070Y-138034875D02*
X39237428Y-137932815D01*
X39237428Y-137932815D02*
X39220890Y-137839023D01*
X39220890Y-137839023D02*
X39157457Y-137753501D01*
X39157457Y-137753501D02*
X39102292Y-137714875D01*
X39102292Y-137714875D02*
X39000232Y-137684517D01*
X39000232Y-137684517D02*
X38765754Y-137725862D01*
X38765754Y-137725862D02*
X38633336Y-137797564D01*
X38296798Y-137808551D02*
X38235968Y-138834704D01*
X38235968Y-138834704D02*
X37924351Y-138164346D01*
X37924351Y-138164346D02*
X37860803Y-138900856D01*
X37860803Y-138900856D02*
X37452677Y-137957393D01*
X37171303Y-138007006D02*
X36561660Y-138114503D01*
X36561660Y-138114503D02*
X36956081Y-138431785D01*
X36956081Y-138431785D02*
X36815395Y-138456592D01*
X36815395Y-138456592D02*
X36729872Y-138520025D01*
X36729872Y-138520025D02*
X36691246Y-138575190D01*
X36691246Y-138575190D02*
X36660888Y-138677250D01*
X36660888Y-138677250D02*
X36702233Y-138911728D01*
X36702233Y-138911728D02*
X36765666Y-138997250D01*
X36765666Y-138997250D02*
X36820831Y-139035877D01*
X36820831Y-139035877D02*
X36922891Y-139066235D01*
X36922891Y-139066235D02*
X37204265Y-139016621D01*
X37204265Y-139016621D02*
X37289787Y-138953187D01*
X37289787Y-138953187D02*
X37328414Y-138898023D01*
X35952018Y-138221999D02*
X35858226Y-138238537D01*
X35858226Y-138238537D02*
X35772704Y-138301971D01*
X35772704Y-138301971D02*
X35734077Y-138357135D01*
X35734077Y-138357135D02*
X35703720Y-138459196D01*
X35703720Y-138459196D02*
X35689900Y-138655047D01*
X35689900Y-138655047D02*
X35731245Y-138889525D01*
X35731245Y-138889525D02*
X35811216Y-139068838D01*
X35811216Y-139068838D02*
X35874650Y-139154361D01*
X35874650Y-139154361D02*
X35929814Y-139192987D01*
X35929814Y-139192987D02*
X36031874Y-139223345D01*
X36031874Y-139223345D02*
X36125666Y-139206807D01*
X36125666Y-139206807D02*
X36211188Y-139143374D01*
X36211188Y-139143374D02*
X36249815Y-139088209D01*
X36249815Y-139088209D02*
X36280172Y-138986149D01*
X36280172Y-138986149D02*
X36293992Y-138790297D01*
X36293992Y-138790297D02*
X36252647Y-138555819D01*
X36252647Y-138555819D02*
X36172676Y-138376506D01*
X36172676Y-138376506D02*
X36109242Y-138290984D01*
X36109242Y-138290984D02*
X36054078Y-138252357D01*
X36054078Y-138252357D02*
X35952018Y-138221999D01*
X238833332Y-97659800D02*
X238690475Y-97707419D01*
X238690475Y-97707419D02*
X238452380Y-97707419D01*
X238452380Y-97707419D02*
X238357142Y-97659800D01*
X238357142Y-97659800D02*
X238309523Y-97612180D01*
X238309523Y-97612180D02*
X238261904Y-97516942D01*
X238261904Y-97516942D02*
X238261904Y-97421704D01*
X238261904Y-97421704D02*
X238309523Y-97326466D01*
X238309523Y-97326466D02*
X238357142Y-97278847D01*
X238357142Y-97278847D02*
X238452380Y-97231228D01*
X238452380Y-97231228D02*
X238642856Y-97183609D01*
X238642856Y-97183609D02*
X238738094Y-97135990D01*
X238738094Y-97135990D02*
X238785713Y-97088371D01*
X238785713Y-97088371D02*
X238833332Y-96993133D01*
X238833332Y-96993133D02*
X238833332Y-96897895D01*
X238833332Y-96897895D02*
X238785713Y-96802657D01*
X238785713Y-96802657D02*
X238738094Y-96755038D01*
X238738094Y-96755038D02*
X238642856Y-96707419D01*
X238642856Y-96707419D02*
X238404761Y-96707419D01*
X238404761Y-96707419D02*
X238261904Y-96755038D01*
X237928570Y-96707419D02*
X237690475Y-97707419D01*
X237690475Y-97707419D02*
X237499999Y-96993133D01*
X237499999Y-96993133D02*
X237309523Y-97707419D01*
X237309523Y-97707419D02*
X237071428Y-96707419D01*
X236261904Y-97040752D02*
X236261904Y-97707419D01*
X236499999Y-96659800D02*
X236738094Y-97374085D01*
X236738094Y-97374085D02*
X236119047Y-97374085D01*
X137809523Y-105909800D02*
X137666666Y-105957419D01*
X137666666Y-105957419D02*
X137428571Y-105957419D01*
X137428571Y-105957419D02*
X137333333Y-105909800D01*
X137333333Y-105909800D02*
X137285714Y-105862180D01*
X137285714Y-105862180D02*
X137238095Y-105766942D01*
X137238095Y-105766942D02*
X137238095Y-105671704D01*
X137238095Y-105671704D02*
X137285714Y-105576466D01*
X137285714Y-105576466D02*
X137333333Y-105528847D01*
X137333333Y-105528847D02*
X137428571Y-105481228D01*
X137428571Y-105481228D02*
X137619047Y-105433609D01*
X137619047Y-105433609D02*
X137714285Y-105385990D01*
X137714285Y-105385990D02*
X137761904Y-105338371D01*
X137761904Y-105338371D02*
X137809523Y-105243133D01*
X137809523Y-105243133D02*
X137809523Y-105147895D01*
X137809523Y-105147895D02*
X137761904Y-105052657D01*
X137761904Y-105052657D02*
X137714285Y-105005038D01*
X137714285Y-105005038D02*
X137619047Y-104957419D01*
X137619047Y-104957419D02*
X137380952Y-104957419D01*
X137380952Y-104957419D02*
X137238095Y-105005038D01*
X136904761Y-104957419D02*
X136666666Y-105957419D01*
X136666666Y-105957419D02*
X136476190Y-105243133D01*
X136476190Y-105243133D02*
X136285714Y-105957419D01*
X136285714Y-105957419D02*
X136047619Y-104957419D01*
X135142857Y-105957419D02*
X135714285Y-105957419D01*
X135428571Y-105957419D02*
X135428571Y-104957419D01*
X135428571Y-104957419D02*
X135523809Y-105100276D01*
X135523809Y-105100276D02*
X135619047Y-105195514D01*
X135619047Y-105195514D02*
X135714285Y-105243133D01*
X134666666Y-105957419D02*
X134476190Y-105957419D01*
X134476190Y-105957419D02*
X134380952Y-105909800D01*
X134380952Y-105909800D02*
X134333333Y-105862180D01*
X134333333Y-105862180D02*
X134238095Y-105719323D01*
X134238095Y-105719323D02*
X134190476Y-105528847D01*
X134190476Y-105528847D02*
X134190476Y-105147895D01*
X134190476Y-105147895D02*
X134238095Y-105052657D01*
X134238095Y-105052657D02*
X134285714Y-105005038D01*
X134285714Y-105005038D02*
X134380952Y-104957419D01*
X134380952Y-104957419D02*
X134571428Y-104957419D01*
X134571428Y-104957419D02*
X134666666Y-105005038D01*
X134666666Y-105005038D02*
X134714285Y-105052657D01*
X134714285Y-105052657D02*
X134761904Y-105147895D01*
X134761904Y-105147895D02*
X134761904Y-105385990D01*
X134761904Y-105385990D02*
X134714285Y-105481228D01*
X134714285Y-105481228D02*
X134666666Y-105528847D01*
X134666666Y-105528847D02*
X134571428Y-105576466D01*
X134571428Y-105576466D02*
X134380952Y-105576466D01*
X134380952Y-105576466D02*
X134285714Y-105528847D01*
X134285714Y-105528847D02*
X134238095Y-105481228D01*
X134238095Y-105481228D02*
X134190476Y-105385990D01*
X132710872Y-164967794D02*
X132561916Y-164989883D01*
X132561916Y-164989883D02*
X132327438Y-164948538D01*
X132327438Y-164948538D02*
X132241915Y-164885105D01*
X132241915Y-164885105D02*
X132203289Y-164829940D01*
X132203289Y-164829940D02*
X132172931Y-164727880D01*
X132172931Y-164727880D02*
X132189469Y-164634089D01*
X132189469Y-164634089D02*
X132252903Y-164548566D01*
X132252903Y-164548566D02*
X132308067Y-164509940D01*
X132308067Y-164509940D02*
X132410127Y-164479582D01*
X132410127Y-164479582D02*
X132605979Y-164465762D01*
X132605979Y-164465762D02*
X132708039Y-164435405D01*
X132708039Y-164435405D02*
X132763203Y-164396778D01*
X132763203Y-164396778D02*
X132826637Y-164311256D01*
X132826637Y-164311256D02*
X132843175Y-164217465D01*
X132843175Y-164217465D02*
X132812817Y-164115404D01*
X132812817Y-164115404D02*
X132774191Y-164060240D01*
X132774191Y-164060240D02*
X132688668Y-163996806D01*
X132688668Y-163996806D02*
X132454190Y-163955461D01*
X132454190Y-163955461D02*
X132305235Y-163977550D01*
X131985234Y-163872772D02*
X131577108Y-164816235D01*
X131577108Y-164816235D02*
X131513560Y-164079725D01*
X131513560Y-164079725D02*
X131201943Y-164750083D01*
X131201943Y-164750083D02*
X131141113Y-163723931D01*
X130859740Y-163674317D02*
X130250097Y-163566820D01*
X130250097Y-163566820D02*
X130512214Y-163999868D01*
X130512214Y-163999868D02*
X130371528Y-163975061D01*
X130371528Y-163975061D02*
X130269467Y-164005419D01*
X130269467Y-164005419D02*
X130214303Y-164044045D01*
X130214303Y-164044045D02*
X130150869Y-164129568D01*
X130150869Y-164129568D02*
X130109525Y-164364046D01*
X130109525Y-164364046D02*
X130139882Y-164466106D01*
X130139882Y-164466106D02*
X130178509Y-164521270D01*
X130178509Y-164521270D02*
X130264031Y-164584704D01*
X130264031Y-164584704D02*
X130545405Y-164634318D01*
X130545405Y-164634318D02*
X130647465Y-164603960D01*
X130647465Y-164603960D02*
X130702629Y-164565333D01*
X129405976Y-163417979D02*
X129593558Y-163451055D01*
X129593558Y-163451055D02*
X129679081Y-163514488D01*
X129679081Y-163514488D02*
X129717707Y-163569653D01*
X129717707Y-163569653D02*
X129786692Y-163726878D01*
X129786692Y-163726878D02*
X129800511Y-163922729D01*
X129800511Y-163922729D02*
X129734360Y-164297894D01*
X129734360Y-164297894D02*
X129670926Y-164383416D01*
X129670926Y-164383416D02*
X129615762Y-164422043D01*
X129615762Y-164422043D02*
X129513701Y-164452401D01*
X129513701Y-164452401D02*
X129326119Y-164419325D01*
X129326119Y-164419325D02*
X129240597Y-164355891D01*
X129240597Y-164355891D02*
X129201970Y-164300727D01*
X129201970Y-164300727D02*
X129171612Y-164198666D01*
X129171612Y-164198666D02*
X129212957Y-163964188D01*
X129212957Y-163964188D02*
X129276391Y-163878666D01*
X129276391Y-163878666D02*
X129331555Y-163840039D01*
X129331555Y-163840039D02*
X129433615Y-163809682D01*
X129433615Y-163809682D02*
X129621198Y-163842758D01*
X129621198Y-163842758D02*
X129706720Y-163906191D01*
X129706720Y-163906191D02*
X129745347Y-163961356D01*
X129745347Y-163961356D02*
X129775704Y-164063416D01*
X151810237Y-171253979D02*
X151659708Y-171249866D01*
X151659708Y-171249866D02*
X151435972Y-171168433D01*
X151435972Y-171168433D02*
X151362764Y-171091112D01*
X151362764Y-171091112D02*
X151334304Y-171030078D01*
X151334304Y-171030078D02*
X151322130Y-170924297D01*
X151322130Y-170924297D02*
X151354703Y-170834803D01*
X151354703Y-170834803D02*
X151432024Y-170761595D01*
X151432024Y-170761595D02*
X151493058Y-170733134D01*
X151493058Y-170733134D02*
X151598839Y-170720960D01*
X151598839Y-170720960D02*
X151794114Y-170741360D01*
X151794114Y-170741360D02*
X151899896Y-170729186D01*
X151899896Y-170729186D02*
X151960930Y-170700725D01*
X151960930Y-170700725D02*
X152038250Y-170627517D01*
X152038250Y-170627517D02*
X152070824Y-170538023D01*
X152070824Y-170538023D02*
X152058650Y-170432242D01*
X152058650Y-170432242D02*
X152030189Y-170371208D01*
X152030189Y-170371208D02*
X151956981Y-170293887D01*
X151956981Y-170293887D02*
X151733245Y-170212454D01*
X151733245Y-170212454D02*
X151582716Y-170208341D01*
X151285772Y-170049587D02*
X150720016Y-170907846D01*
X150720016Y-170907846D02*
X150785327Y-170171491D01*
X150785327Y-170171491D02*
X150362038Y-170777553D01*
X150362038Y-170777553D02*
X150480321Y-169756427D01*
X150211838Y-169658707D02*
X149630123Y-169446980D01*
X149630123Y-169446980D02*
X149813061Y-169918965D01*
X149813061Y-169918965D02*
X149678819Y-169870105D01*
X149678819Y-169870105D02*
X149573038Y-169882279D01*
X149573038Y-169882279D02*
X149512004Y-169910739D01*
X149512004Y-169910739D02*
X149434683Y-169983947D01*
X149434683Y-169983947D02*
X149353250Y-170207684D01*
X149353250Y-170207684D02*
X149365424Y-170313465D01*
X149365424Y-170313465D02*
X149393884Y-170374499D01*
X149393884Y-170374499D02*
X149467092Y-170451819D01*
X149467092Y-170451819D02*
X149735576Y-170549539D01*
X149735576Y-170549539D02*
X149841357Y-170537366D01*
X149841357Y-170537366D02*
X149902391Y-170508905D01*
X148779925Y-169137533D02*
X149227398Y-169300400D01*
X149227398Y-169300400D02*
X149109278Y-169764159D01*
X149109278Y-169764159D02*
X149080818Y-169703125D01*
X149080818Y-169703125D02*
X149007610Y-169625805D01*
X149007610Y-169625805D02*
X148783874Y-169544371D01*
X148783874Y-169544371D02*
X148678092Y-169556545D01*
X148678092Y-169556545D02*
X148617059Y-169585006D01*
X148617059Y-169585006D02*
X148539738Y-169658214D01*
X148539738Y-169658214D02*
X148458305Y-169881950D01*
X148458305Y-169881950D02*
X148470478Y-169987731D01*
X148470478Y-169987731D02*
X148498939Y-170048765D01*
X148498939Y-170048765D02*
X148572147Y-170126086D01*
X148572147Y-170126086D02*
X148795883Y-170207519D01*
X148795883Y-170207519D02*
X148901664Y-170195345D01*
X148901664Y-170195345D02*
X148962698Y-170166885D01*
X118559523Y-140909800D02*
X118416666Y-140957419D01*
X118416666Y-140957419D02*
X118178571Y-140957419D01*
X118178571Y-140957419D02*
X118083333Y-140909800D01*
X118083333Y-140909800D02*
X118035714Y-140862180D01*
X118035714Y-140862180D02*
X117988095Y-140766942D01*
X117988095Y-140766942D02*
X117988095Y-140671704D01*
X117988095Y-140671704D02*
X118035714Y-140576466D01*
X118035714Y-140576466D02*
X118083333Y-140528847D01*
X118083333Y-140528847D02*
X118178571Y-140481228D01*
X118178571Y-140481228D02*
X118369047Y-140433609D01*
X118369047Y-140433609D02*
X118464285Y-140385990D01*
X118464285Y-140385990D02*
X118511904Y-140338371D01*
X118511904Y-140338371D02*
X118559523Y-140243133D01*
X118559523Y-140243133D02*
X118559523Y-140147895D01*
X118559523Y-140147895D02*
X118511904Y-140052657D01*
X118511904Y-140052657D02*
X118464285Y-140005038D01*
X118464285Y-140005038D02*
X118369047Y-139957419D01*
X118369047Y-139957419D02*
X118130952Y-139957419D01*
X118130952Y-139957419D02*
X117988095Y-140005038D01*
X117654761Y-139957419D02*
X117416666Y-140957419D01*
X117416666Y-140957419D02*
X117226190Y-140243133D01*
X117226190Y-140243133D02*
X117035714Y-140957419D01*
X117035714Y-140957419D02*
X116797619Y-139957419D01*
X116511904Y-139957419D02*
X115892857Y-139957419D01*
X115892857Y-139957419D02*
X116226190Y-140338371D01*
X116226190Y-140338371D02*
X116083333Y-140338371D01*
X116083333Y-140338371D02*
X115988095Y-140385990D01*
X115988095Y-140385990D02*
X115940476Y-140433609D01*
X115940476Y-140433609D02*
X115892857Y-140528847D01*
X115892857Y-140528847D02*
X115892857Y-140766942D01*
X115892857Y-140766942D02*
X115940476Y-140862180D01*
X115940476Y-140862180D02*
X115988095Y-140909800D01*
X115988095Y-140909800D02*
X116083333Y-140957419D01*
X116083333Y-140957419D02*
X116369047Y-140957419D01*
X116369047Y-140957419D02*
X116464285Y-140909800D01*
X116464285Y-140909800D02*
X116511904Y-140862180D01*
X115511904Y-140052657D02*
X115464285Y-140005038D01*
X115464285Y-140005038D02*
X115369047Y-139957419D01*
X115369047Y-139957419D02*
X115130952Y-139957419D01*
X115130952Y-139957419D02*
X115035714Y-140005038D01*
X115035714Y-140005038D02*
X114988095Y-140052657D01*
X114988095Y-140052657D02*
X114940476Y-140147895D01*
X114940476Y-140147895D02*
X114940476Y-140243133D01*
X114940476Y-140243133D02*
X114988095Y-140385990D01*
X114988095Y-140385990D02*
X115559523Y-140957419D01*
X115559523Y-140957419D02*
X114940476Y-140957419D01*
X99309523Y-97409800D02*
X99166666Y-97457419D01*
X99166666Y-97457419D02*
X98928571Y-97457419D01*
X98928571Y-97457419D02*
X98833333Y-97409800D01*
X98833333Y-97409800D02*
X98785714Y-97362180D01*
X98785714Y-97362180D02*
X98738095Y-97266942D01*
X98738095Y-97266942D02*
X98738095Y-97171704D01*
X98738095Y-97171704D02*
X98785714Y-97076466D01*
X98785714Y-97076466D02*
X98833333Y-97028847D01*
X98833333Y-97028847D02*
X98928571Y-96981228D01*
X98928571Y-96981228D02*
X99119047Y-96933609D01*
X99119047Y-96933609D02*
X99214285Y-96885990D01*
X99214285Y-96885990D02*
X99261904Y-96838371D01*
X99261904Y-96838371D02*
X99309523Y-96743133D01*
X99309523Y-96743133D02*
X99309523Y-96647895D01*
X99309523Y-96647895D02*
X99261904Y-96552657D01*
X99261904Y-96552657D02*
X99214285Y-96505038D01*
X99214285Y-96505038D02*
X99119047Y-96457419D01*
X99119047Y-96457419D02*
X98880952Y-96457419D01*
X98880952Y-96457419D02*
X98738095Y-96505038D01*
X98404761Y-96457419D02*
X98166666Y-97457419D01*
X98166666Y-97457419D02*
X97976190Y-96743133D01*
X97976190Y-96743133D02*
X97785714Y-97457419D01*
X97785714Y-97457419D02*
X97547619Y-96457419D01*
X97214285Y-96552657D02*
X97166666Y-96505038D01*
X97166666Y-96505038D02*
X97071428Y-96457419D01*
X97071428Y-96457419D02*
X96833333Y-96457419D01*
X96833333Y-96457419D02*
X96738095Y-96505038D01*
X96738095Y-96505038D02*
X96690476Y-96552657D01*
X96690476Y-96552657D02*
X96642857Y-96647895D01*
X96642857Y-96647895D02*
X96642857Y-96743133D01*
X96642857Y-96743133D02*
X96690476Y-96885990D01*
X96690476Y-96885990D02*
X97261904Y-97457419D01*
X97261904Y-97457419D02*
X96642857Y-97457419D01*
X95690476Y-97457419D02*
X96261904Y-97457419D01*
X95976190Y-97457419D02*
X95976190Y-96457419D01*
X95976190Y-96457419D02*
X96071428Y-96600276D01*
X96071428Y-96600276D02*
X96166666Y-96695514D01*
X96166666Y-96695514D02*
X96261904Y-96743133D01*
X200809523Y-144969800D02*
X200666666Y-145017419D01*
X200666666Y-145017419D02*
X200428571Y-145017419D01*
X200428571Y-145017419D02*
X200333333Y-144969800D01*
X200333333Y-144969800D02*
X200285714Y-144922180D01*
X200285714Y-144922180D02*
X200238095Y-144826942D01*
X200238095Y-144826942D02*
X200238095Y-144731704D01*
X200238095Y-144731704D02*
X200285714Y-144636466D01*
X200285714Y-144636466D02*
X200333333Y-144588847D01*
X200333333Y-144588847D02*
X200428571Y-144541228D01*
X200428571Y-144541228D02*
X200619047Y-144493609D01*
X200619047Y-144493609D02*
X200714285Y-144445990D01*
X200714285Y-144445990D02*
X200761904Y-144398371D01*
X200761904Y-144398371D02*
X200809523Y-144303133D01*
X200809523Y-144303133D02*
X200809523Y-144207895D01*
X200809523Y-144207895D02*
X200761904Y-144112657D01*
X200761904Y-144112657D02*
X200714285Y-144065038D01*
X200714285Y-144065038D02*
X200619047Y-144017419D01*
X200619047Y-144017419D02*
X200380952Y-144017419D01*
X200380952Y-144017419D02*
X200238095Y-144065038D01*
X199904761Y-144017419D02*
X199666666Y-145017419D01*
X199666666Y-145017419D02*
X199476190Y-144303133D01*
X199476190Y-144303133D02*
X199285714Y-145017419D01*
X199285714Y-145017419D02*
X199047619Y-144017419D01*
X198142857Y-145017419D02*
X198714285Y-145017419D01*
X198428571Y-145017419D02*
X198428571Y-144017419D01*
X198428571Y-144017419D02*
X198523809Y-144160276D01*
X198523809Y-144160276D02*
X198619047Y-144255514D01*
X198619047Y-144255514D02*
X198714285Y-144303133D01*
X197761904Y-144112657D02*
X197714285Y-144065038D01*
X197714285Y-144065038D02*
X197619047Y-144017419D01*
X197619047Y-144017419D02*
X197380952Y-144017419D01*
X197380952Y-144017419D02*
X197285714Y-144065038D01*
X197285714Y-144065038D02*
X197238095Y-144112657D01*
X197238095Y-144112657D02*
X197190476Y-144207895D01*
X197190476Y-144207895D02*
X197190476Y-144303133D01*
X197190476Y-144303133D02*
X197238095Y-144445990D01*
X197238095Y-144445990D02*
X197809523Y-145017419D01*
X197809523Y-145017419D02*
X197190476Y-145017419D01*
X137809523Y-124909800D02*
X137666666Y-124957419D01*
X137666666Y-124957419D02*
X137428571Y-124957419D01*
X137428571Y-124957419D02*
X137333333Y-124909800D01*
X137333333Y-124909800D02*
X137285714Y-124862180D01*
X137285714Y-124862180D02*
X137238095Y-124766942D01*
X137238095Y-124766942D02*
X137238095Y-124671704D01*
X137238095Y-124671704D02*
X137285714Y-124576466D01*
X137285714Y-124576466D02*
X137333333Y-124528847D01*
X137333333Y-124528847D02*
X137428571Y-124481228D01*
X137428571Y-124481228D02*
X137619047Y-124433609D01*
X137619047Y-124433609D02*
X137714285Y-124385990D01*
X137714285Y-124385990D02*
X137761904Y-124338371D01*
X137761904Y-124338371D02*
X137809523Y-124243133D01*
X137809523Y-124243133D02*
X137809523Y-124147895D01*
X137809523Y-124147895D02*
X137761904Y-124052657D01*
X137761904Y-124052657D02*
X137714285Y-124005038D01*
X137714285Y-124005038D02*
X137619047Y-123957419D01*
X137619047Y-123957419D02*
X137380952Y-123957419D01*
X137380952Y-123957419D02*
X137238095Y-124005038D01*
X136904761Y-123957419D02*
X136666666Y-124957419D01*
X136666666Y-124957419D02*
X136476190Y-124243133D01*
X136476190Y-124243133D02*
X136285714Y-124957419D01*
X136285714Y-124957419D02*
X136047619Y-123957419D01*
X135714285Y-124052657D02*
X135666666Y-124005038D01*
X135666666Y-124005038D02*
X135571428Y-123957419D01*
X135571428Y-123957419D02*
X135333333Y-123957419D01*
X135333333Y-123957419D02*
X135238095Y-124005038D01*
X135238095Y-124005038D02*
X135190476Y-124052657D01*
X135190476Y-124052657D02*
X135142857Y-124147895D01*
X135142857Y-124147895D02*
X135142857Y-124243133D01*
X135142857Y-124243133D02*
X135190476Y-124385990D01*
X135190476Y-124385990D02*
X135761904Y-124957419D01*
X135761904Y-124957419D02*
X135142857Y-124957419D01*
X134238095Y-123957419D02*
X134714285Y-123957419D01*
X134714285Y-123957419D02*
X134761904Y-124433609D01*
X134761904Y-124433609D02*
X134714285Y-124385990D01*
X134714285Y-124385990D02*
X134619047Y-124338371D01*
X134619047Y-124338371D02*
X134380952Y-124338371D01*
X134380952Y-124338371D02*
X134285714Y-124385990D01*
X134285714Y-124385990D02*
X134238095Y-124433609D01*
X134238095Y-124433609D02*
X134190476Y-124528847D01*
X134190476Y-124528847D02*
X134190476Y-124766942D01*
X134190476Y-124766942D02*
X134238095Y-124862180D01*
X134238095Y-124862180D02*
X134285714Y-124909800D01*
X134285714Y-124909800D02*
X134380952Y-124957419D01*
X134380952Y-124957419D02*
X134619047Y-124957419D01*
X134619047Y-124957419D02*
X134714285Y-124909800D01*
X134714285Y-124909800D02*
X134761904Y-124862180D01*
X239309523Y-116909800D02*
X239166666Y-116957419D01*
X239166666Y-116957419D02*
X238928571Y-116957419D01*
X238928571Y-116957419D02*
X238833333Y-116909800D01*
X238833333Y-116909800D02*
X238785714Y-116862180D01*
X238785714Y-116862180D02*
X238738095Y-116766942D01*
X238738095Y-116766942D02*
X238738095Y-116671704D01*
X238738095Y-116671704D02*
X238785714Y-116576466D01*
X238785714Y-116576466D02*
X238833333Y-116528847D01*
X238833333Y-116528847D02*
X238928571Y-116481228D01*
X238928571Y-116481228D02*
X239119047Y-116433609D01*
X239119047Y-116433609D02*
X239214285Y-116385990D01*
X239214285Y-116385990D02*
X239261904Y-116338371D01*
X239261904Y-116338371D02*
X239309523Y-116243133D01*
X239309523Y-116243133D02*
X239309523Y-116147895D01*
X239309523Y-116147895D02*
X239261904Y-116052657D01*
X239261904Y-116052657D02*
X239214285Y-116005038D01*
X239214285Y-116005038D02*
X239119047Y-115957419D01*
X239119047Y-115957419D02*
X238880952Y-115957419D01*
X238880952Y-115957419D02*
X238738095Y-116005038D01*
X238404761Y-115957419D02*
X238166666Y-116957419D01*
X238166666Y-116957419D02*
X237976190Y-116243133D01*
X237976190Y-116243133D02*
X237785714Y-116957419D01*
X237785714Y-116957419D02*
X237547619Y-115957419D01*
X236642857Y-116957419D02*
X237214285Y-116957419D01*
X236928571Y-116957419D02*
X236928571Y-115957419D01*
X236928571Y-115957419D02*
X237023809Y-116100276D01*
X237023809Y-116100276D02*
X237119047Y-116195514D01*
X237119047Y-116195514D02*
X237214285Y-116243133D01*
X236023809Y-115957419D02*
X235928571Y-115957419D01*
X235928571Y-115957419D02*
X235833333Y-116005038D01*
X235833333Y-116005038D02*
X235785714Y-116052657D01*
X235785714Y-116052657D02*
X235738095Y-116147895D01*
X235738095Y-116147895D02*
X235690476Y-116338371D01*
X235690476Y-116338371D02*
X235690476Y-116576466D01*
X235690476Y-116576466D02*
X235738095Y-116766942D01*
X235738095Y-116766942D02*
X235785714Y-116862180D01*
X235785714Y-116862180D02*
X235833333Y-116909800D01*
X235833333Y-116909800D02*
X235928571Y-116957419D01*
X235928571Y-116957419D02*
X236023809Y-116957419D01*
X236023809Y-116957419D02*
X236119047Y-116909800D01*
X236119047Y-116909800D02*
X236166666Y-116862180D01*
X236166666Y-116862180D02*
X236214285Y-116766942D01*
X236214285Y-116766942D02*
X236261904Y-116576466D01*
X236261904Y-116576466D02*
X236261904Y-116338371D01*
X236261904Y-116338371D02*
X236214285Y-116147895D01*
X236214285Y-116147895D02*
X236166666Y-116052657D01*
X236166666Y-116052657D02*
X236119047Y-116005038D01*
X236119047Y-116005038D02*
X236023809Y-115957419D01*
X219603332Y-141419800D02*
X219460475Y-141467419D01*
X219460475Y-141467419D02*
X219222380Y-141467419D01*
X219222380Y-141467419D02*
X219127142Y-141419800D01*
X219127142Y-141419800D02*
X219079523Y-141372180D01*
X219079523Y-141372180D02*
X219031904Y-141276942D01*
X219031904Y-141276942D02*
X219031904Y-141181704D01*
X219031904Y-141181704D02*
X219079523Y-141086466D01*
X219079523Y-141086466D02*
X219127142Y-141038847D01*
X219127142Y-141038847D02*
X219222380Y-140991228D01*
X219222380Y-140991228D02*
X219412856Y-140943609D01*
X219412856Y-140943609D02*
X219508094Y-140895990D01*
X219508094Y-140895990D02*
X219555713Y-140848371D01*
X219555713Y-140848371D02*
X219603332Y-140753133D01*
X219603332Y-140753133D02*
X219603332Y-140657895D01*
X219603332Y-140657895D02*
X219555713Y-140562657D01*
X219555713Y-140562657D02*
X219508094Y-140515038D01*
X219508094Y-140515038D02*
X219412856Y-140467419D01*
X219412856Y-140467419D02*
X219174761Y-140467419D01*
X219174761Y-140467419D02*
X219031904Y-140515038D01*
X218698570Y-140467419D02*
X218460475Y-141467419D01*
X218460475Y-141467419D02*
X218269999Y-140753133D01*
X218269999Y-140753133D02*
X218079523Y-141467419D01*
X218079523Y-141467419D02*
X217841428Y-140467419D01*
X216984285Y-140467419D02*
X217460475Y-140467419D01*
X217460475Y-140467419D02*
X217508094Y-140943609D01*
X217508094Y-140943609D02*
X217460475Y-140895990D01*
X217460475Y-140895990D02*
X217365237Y-140848371D01*
X217365237Y-140848371D02*
X217127142Y-140848371D01*
X217127142Y-140848371D02*
X217031904Y-140895990D01*
X217031904Y-140895990D02*
X216984285Y-140943609D01*
X216984285Y-140943609D02*
X216936666Y-141038847D01*
X216936666Y-141038847D02*
X216936666Y-141276942D01*
X216936666Y-141276942D02*
X216984285Y-141372180D01*
X216984285Y-141372180D02*
X217031904Y-141419800D01*
X217031904Y-141419800D02*
X217127142Y-141467419D01*
X217127142Y-141467419D02*
X217365237Y-141467419D01*
X217365237Y-141467419D02*
X217460475Y-141419800D01*
X217460475Y-141419800D02*
X217508094Y-141372180D01*
X79578491Y-139564535D02*
X79438322Y-139619565D01*
X79438322Y-139619565D02*
X79200553Y-139632026D01*
X79200553Y-139632026D02*
X79102953Y-139589457D01*
X79102953Y-139589457D02*
X79052907Y-139544395D01*
X79052907Y-139544395D02*
X79000369Y-139451780D01*
X79000369Y-139451780D02*
X78995384Y-139356672D01*
X78995384Y-139356672D02*
X79037954Y-139259072D01*
X79037954Y-139259072D02*
X79083015Y-139209026D01*
X79083015Y-139209026D02*
X79175631Y-139156488D01*
X79175631Y-139156488D02*
X79363354Y-139098966D01*
X79363354Y-139098966D02*
X79455969Y-139046427D01*
X79455969Y-139046427D02*
X79501031Y-138996381D01*
X79501031Y-138996381D02*
X79543600Y-138898782D01*
X79543600Y-138898782D02*
X79538616Y-138803674D01*
X79538616Y-138803674D02*
X79486078Y-138711059D01*
X79486078Y-138711059D02*
X79436032Y-138665997D01*
X79436032Y-138665997D02*
X79338432Y-138623428D01*
X79338432Y-138623428D02*
X79100663Y-138635889D01*
X79100663Y-138635889D02*
X78960494Y-138690919D01*
X78625125Y-138660811D02*
X78439692Y-139671901D01*
X78439692Y-139671901D02*
X78212094Y-138968563D01*
X78212094Y-138968563D02*
X78059262Y-139691839D01*
X78059262Y-139691839D02*
X77769157Y-138705670D01*
X77483834Y-138720623D02*
X76865635Y-138753022D01*
X76865635Y-138753022D02*
X77218449Y-139116007D01*
X77218449Y-139116007D02*
X77075788Y-139123483D01*
X77075788Y-139123483D02*
X76983172Y-139176021D01*
X76983172Y-139176021D02*
X76938111Y-139226067D01*
X76938111Y-139226067D02*
X76895541Y-139323667D01*
X76895541Y-139323667D02*
X76908002Y-139561436D01*
X76908002Y-139561436D02*
X76960540Y-139654051D01*
X76960540Y-139654051D02*
X77010586Y-139699113D01*
X77010586Y-139699113D02*
X77108186Y-139741682D01*
X77108186Y-139741682D02*
X77393509Y-139726729D01*
X77393509Y-139726729D02*
X77486124Y-139674191D01*
X77486124Y-139674191D02*
X77531186Y-139624145D01*
X76027112Y-139130757D02*
X76062003Y-139796510D01*
X76244943Y-138737866D02*
X76520095Y-139438712D01*
X76520095Y-139438712D02*
X75901896Y-139471111D01*
X99309523Y-130159800D02*
X99166666Y-130207419D01*
X99166666Y-130207419D02*
X98928571Y-130207419D01*
X98928571Y-130207419D02*
X98833333Y-130159800D01*
X98833333Y-130159800D02*
X98785714Y-130112180D01*
X98785714Y-130112180D02*
X98738095Y-130016942D01*
X98738095Y-130016942D02*
X98738095Y-129921704D01*
X98738095Y-129921704D02*
X98785714Y-129826466D01*
X98785714Y-129826466D02*
X98833333Y-129778847D01*
X98833333Y-129778847D02*
X98928571Y-129731228D01*
X98928571Y-129731228D02*
X99119047Y-129683609D01*
X99119047Y-129683609D02*
X99214285Y-129635990D01*
X99214285Y-129635990D02*
X99261904Y-129588371D01*
X99261904Y-129588371D02*
X99309523Y-129493133D01*
X99309523Y-129493133D02*
X99309523Y-129397895D01*
X99309523Y-129397895D02*
X99261904Y-129302657D01*
X99261904Y-129302657D02*
X99214285Y-129255038D01*
X99214285Y-129255038D02*
X99119047Y-129207419D01*
X99119047Y-129207419D02*
X98880952Y-129207419D01*
X98880952Y-129207419D02*
X98738095Y-129255038D01*
X98404761Y-129207419D02*
X98166666Y-130207419D01*
X98166666Y-130207419D02*
X97976190Y-129493133D01*
X97976190Y-129493133D02*
X97785714Y-130207419D01*
X97785714Y-130207419D02*
X97547619Y-129207419D01*
X97261904Y-129207419D02*
X96642857Y-129207419D01*
X96642857Y-129207419D02*
X96976190Y-129588371D01*
X96976190Y-129588371D02*
X96833333Y-129588371D01*
X96833333Y-129588371D02*
X96738095Y-129635990D01*
X96738095Y-129635990D02*
X96690476Y-129683609D01*
X96690476Y-129683609D02*
X96642857Y-129778847D01*
X96642857Y-129778847D02*
X96642857Y-130016942D01*
X96642857Y-130016942D02*
X96690476Y-130112180D01*
X96690476Y-130112180D02*
X96738095Y-130159800D01*
X96738095Y-130159800D02*
X96833333Y-130207419D01*
X96833333Y-130207419D02*
X97119047Y-130207419D01*
X97119047Y-130207419D02*
X97214285Y-130159800D01*
X97214285Y-130159800D02*
X97261904Y-130112180D01*
X96309523Y-129207419D02*
X95690476Y-129207419D01*
X95690476Y-129207419D02*
X96023809Y-129588371D01*
X96023809Y-129588371D02*
X95880952Y-129588371D01*
X95880952Y-129588371D02*
X95785714Y-129635990D01*
X95785714Y-129635990D02*
X95738095Y-129683609D01*
X95738095Y-129683609D02*
X95690476Y-129778847D01*
X95690476Y-129778847D02*
X95690476Y-130016942D01*
X95690476Y-130016942D02*
X95738095Y-130112180D01*
X95738095Y-130112180D02*
X95785714Y-130159800D01*
X95785714Y-130159800D02*
X95880952Y-130207419D01*
X95880952Y-130207419D02*
X96166666Y-130207419D01*
X96166666Y-130207419D02*
X96261904Y-130159800D01*
X96261904Y-130159800D02*
X96309523Y-130112180D01*
X36853194Y-125089353D02*
X36720776Y-125161056D01*
X36720776Y-125161056D02*
X36486298Y-125202400D01*
X36486298Y-125202400D02*
X36384238Y-125172043D01*
X36384238Y-125172043D02*
X36329073Y-125133416D01*
X36329073Y-125133416D02*
X36265639Y-125047894D01*
X36265639Y-125047894D02*
X36249102Y-124954103D01*
X36249102Y-124954103D02*
X36279459Y-124852043D01*
X36279459Y-124852043D02*
X36318086Y-124796878D01*
X36318086Y-124796878D02*
X36403608Y-124733444D01*
X36403608Y-124733444D02*
X36582922Y-124653473D01*
X36582922Y-124653473D02*
X36668444Y-124590039D01*
X36668444Y-124590039D02*
X36707070Y-124534875D01*
X36707070Y-124534875D02*
X36737428Y-124432815D01*
X36737428Y-124432815D02*
X36720890Y-124339023D01*
X36720890Y-124339023D02*
X36657457Y-124253501D01*
X36657457Y-124253501D02*
X36602292Y-124214875D01*
X36602292Y-124214875D02*
X36500232Y-124184517D01*
X36500232Y-124184517D02*
X36265754Y-124225862D01*
X36265754Y-124225862D02*
X36133336Y-124297564D01*
X35796798Y-124308551D02*
X35735968Y-125334704D01*
X35735968Y-125334704D02*
X35424351Y-124664346D01*
X35424351Y-124664346D02*
X35360803Y-125400856D01*
X35360803Y-125400856D02*
X34952677Y-124457393D01*
X34640946Y-124609067D02*
X34585781Y-124570440D01*
X34585781Y-124570440D02*
X34483721Y-124540082D01*
X34483721Y-124540082D02*
X34249243Y-124581427D01*
X34249243Y-124581427D02*
X34163721Y-124644861D01*
X34163721Y-124644861D02*
X34125094Y-124700025D01*
X34125094Y-124700025D02*
X34094736Y-124802085D01*
X34094736Y-124802085D02*
X34111274Y-124895876D01*
X34111274Y-124895876D02*
X34182977Y-125028294D01*
X34182977Y-125028294D02*
X34844952Y-125491814D01*
X34844952Y-125491814D02*
X34235309Y-125599311D01*
X33766353Y-125682000D02*
X33578770Y-125715076D01*
X33578770Y-125715076D02*
X33476710Y-125684718D01*
X33476710Y-125684718D02*
X33421545Y-125646092D01*
X33421545Y-125646092D02*
X33302947Y-125521943D01*
X33302947Y-125521943D02*
X33222976Y-125342629D01*
X33222976Y-125342629D02*
X33156824Y-124967465D01*
X33156824Y-124967465D02*
X33187182Y-124865404D01*
X33187182Y-124865404D02*
X33225808Y-124810240D01*
X33225808Y-124810240D02*
X33311331Y-124746806D01*
X33311331Y-124746806D02*
X33498913Y-124713730D01*
X33498913Y-124713730D02*
X33600973Y-124744088D01*
X33600973Y-124744088D02*
X33656138Y-124782715D01*
X33656138Y-124782715D02*
X33719571Y-124868237D01*
X33719571Y-124868237D02*
X33760916Y-125102715D01*
X33760916Y-125102715D02*
X33730559Y-125204775D01*
X33730559Y-125204775D02*
X33691932Y-125259940D01*
X33691932Y-125259940D02*
X33606410Y-125323373D01*
X33606410Y-125323373D02*
X33418827Y-125356449D01*
X33418827Y-125356449D02*
X33316767Y-125326091D01*
X33316767Y-125326091D02*
X33261602Y-125287465D01*
X33261602Y-125287465D02*
X33198169Y-125201943D01*
X206195334Y-164947547D02*
X206062916Y-165019250D01*
X206062916Y-165019250D02*
X205828438Y-165060594D01*
X205828438Y-165060594D02*
X205726378Y-165030237D01*
X205726378Y-165030237D02*
X205671213Y-164991610D01*
X205671213Y-164991610D02*
X205607779Y-164906088D01*
X205607779Y-164906088D02*
X205591242Y-164812297D01*
X205591242Y-164812297D02*
X205621599Y-164710237D01*
X205621599Y-164710237D02*
X205660226Y-164655072D01*
X205660226Y-164655072D02*
X205745748Y-164591638D01*
X205745748Y-164591638D02*
X205925062Y-164511667D01*
X205925062Y-164511667D02*
X206010584Y-164448233D01*
X206010584Y-164448233D02*
X206049210Y-164393069D01*
X206049210Y-164393069D02*
X206079568Y-164291009D01*
X206079568Y-164291009D02*
X206063030Y-164197217D01*
X206063030Y-164197217D02*
X205999597Y-164111695D01*
X205999597Y-164111695D02*
X205944432Y-164073069D01*
X205944432Y-164073069D02*
X205842372Y-164042711D01*
X205842372Y-164042711D02*
X205607894Y-164084056D01*
X205607894Y-164084056D02*
X205475476Y-164155758D01*
X205138938Y-164166745D02*
X205078108Y-165192898D01*
X205078108Y-165192898D02*
X204766491Y-164522540D01*
X204766491Y-164522540D02*
X204702943Y-165259050D01*
X204702943Y-165259050D02*
X204294817Y-164315587D01*
X203577449Y-165457505D02*
X204140196Y-165358277D01*
X203858822Y-165407891D02*
X203685174Y-164423083D01*
X203685174Y-164423083D02*
X203803772Y-164547232D01*
X203803772Y-164547232D02*
X203914101Y-164624485D01*
X203914101Y-164624485D02*
X204016162Y-164654843D01*
X202639536Y-165622884D02*
X203202284Y-165523656D01*
X202920910Y-165573270D02*
X202747262Y-164588462D01*
X202747262Y-164588462D02*
X202865860Y-164712611D01*
X202865860Y-164712611D02*
X202976189Y-164789865D01*
X202976189Y-164789865D02*
X203078249Y-164820222D01*
X258870214Y-140159610D02*
X258725061Y-140199687D01*
X258725061Y-140199687D02*
X258487292Y-140187226D01*
X258487292Y-140187226D02*
X258394676Y-140134688D01*
X258394676Y-140134688D02*
X258349615Y-140084642D01*
X258349615Y-140084642D02*
X258307045Y-139987042D01*
X258307045Y-139987042D02*
X258312030Y-139891935D01*
X258312030Y-139891935D02*
X258364568Y-139799319D01*
X258364568Y-139799319D02*
X258414614Y-139754258D01*
X258414614Y-139754258D02*
X258512214Y-139711688D01*
X258512214Y-139711688D02*
X258704921Y-139674103D01*
X258704921Y-139674103D02*
X258802521Y-139631534D01*
X258802521Y-139631534D02*
X258852567Y-139586472D01*
X258852567Y-139586472D02*
X258905105Y-139493857D01*
X258905105Y-139493857D02*
X258910089Y-139398749D01*
X258910089Y-139398749D02*
X258867520Y-139301150D01*
X258867520Y-139301150D02*
X258822458Y-139251104D01*
X258822458Y-139251104D02*
X258729843Y-139198566D01*
X258729843Y-139198566D02*
X258492074Y-139186105D01*
X258492074Y-139186105D02*
X258346920Y-139226182D01*
X258016536Y-139161183D02*
X257726431Y-140147351D01*
X257726431Y-140147351D02*
X257573599Y-139424076D01*
X257573599Y-139424076D02*
X257346001Y-140127414D01*
X257346001Y-140127414D02*
X257160568Y-139116323D01*
X256204710Y-140067601D02*
X256775355Y-140097508D01*
X256490033Y-140082554D02*
X256542369Y-139083925D01*
X256542369Y-139083925D02*
X256630000Y-139231571D01*
X256630000Y-139231571D02*
X256720123Y-139331663D01*
X256720123Y-139331663D02*
X256812738Y-139384201D01*
X255924169Y-139051526D02*
X255305970Y-139019128D01*
X255305970Y-139019128D02*
X255618909Y-139417004D01*
X255618909Y-139417004D02*
X255476248Y-139409527D01*
X255476248Y-139409527D02*
X255378648Y-139452096D01*
X255378648Y-139452096D02*
X255328602Y-139497158D01*
X255328602Y-139497158D02*
X255276064Y-139589773D01*
X255276064Y-139589773D02*
X255263603Y-139827542D01*
X255263603Y-139827542D02*
X255306172Y-139925142D01*
X255306172Y-139925142D02*
X255351234Y-139975188D01*
X255351234Y-139975188D02*
X255443849Y-140027726D01*
X255443849Y-140027726D02*
X255729172Y-140042679D01*
X255729172Y-140042679D02*
X255826772Y-140000110D01*
X255826772Y-140000110D02*
X255876818Y-139955048D01*
X220059523Y-103269800D02*
X219916666Y-103317419D01*
X219916666Y-103317419D02*
X219678571Y-103317419D01*
X219678571Y-103317419D02*
X219583333Y-103269800D01*
X219583333Y-103269800D02*
X219535714Y-103222180D01*
X219535714Y-103222180D02*
X219488095Y-103126942D01*
X219488095Y-103126942D02*
X219488095Y-103031704D01*
X219488095Y-103031704D02*
X219535714Y-102936466D01*
X219535714Y-102936466D02*
X219583333Y-102888847D01*
X219583333Y-102888847D02*
X219678571Y-102841228D01*
X219678571Y-102841228D02*
X219869047Y-102793609D01*
X219869047Y-102793609D02*
X219964285Y-102745990D01*
X219964285Y-102745990D02*
X220011904Y-102698371D01*
X220011904Y-102698371D02*
X220059523Y-102603133D01*
X220059523Y-102603133D02*
X220059523Y-102507895D01*
X220059523Y-102507895D02*
X220011904Y-102412657D01*
X220011904Y-102412657D02*
X219964285Y-102365038D01*
X219964285Y-102365038D02*
X219869047Y-102317419D01*
X219869047Y-102317419D02*
X219630952Y-102317419D01*
X219630952Y-102317419D02*
X219488095Y-102365038D01*
X219154761Y-102317419D02*
X218916666Y-103317419D01*
X218916666Y-103317419D02*
X218726190Y-102603133D01*
X218726190Y-102603133D02*
X218535714Y-103317419D01*
X218535714Y-103317419D02*
X218297619Y-102317419D01*
X217392857Y-103317419D02*
X217964285Y-103317419D01*
X217678571Y-103317419D02*
X217678571Y-102317419D01*
X217678571Y-102317419D02*
X217773809Y-102460276D01*
X217773809Y-102460276D02*
X217869047Y-102555514D01*
X217869047Y-102555514D02*
X217964285Y-102603133D01*
X217059523Y-102317419D02*
X216392857Y-102317419D01*
X216392857Y-102317419D02*
X216821428Y-103317419D01*
X59353194Y-141089353D02*
X59220776Y-141161056D01*
X59220776Y-141161056D02*
X58986298Y-141202400D01*
X58986298Y-141202400D02*
X58884238Y-141172043D01*
X58884238Y-141172043D02*
X58829073Y-141133416D01*
X58829073Y-141133416D02*
X58765639Y-141047894D01*
X58765639Y-141047894D02*
X58749102Y-140954103D01*
X58749102Y-140954103D02*
X58779459Y-140852043D01*
X58779459Y-140852043D02*
X58818086Y-140796878D01*
X58818086Y-140796878D02*
X58903608Y-140733444D01*
X58903608Y-140733444D02*
X59082922Y-140653473D01*
X59082922Y-140653473D02*
X59168444Y-140590039D01*
X59168444Y-140590039D02*
X59207070Y-140534875D01*
X59207070Y-140534875D02*
X59237428Y-140432815D01*
X59237428Y-140432815D02*
X59220890Y-140339023D01*
X59220890Y-140339023D02*
X59157457Y-140253501D01*
X59157457Y-140253501D02*
X59102292Y-140214875D01*
X59102292Y-140214875D02*
X59000232Y-140184517D01*
X59000232Y-140184517D02*
X58765754Y-140225862D01*
X58765754Y-140225862D02*
X58633336Y-140297564D01*
X58296798Y-140308551D02*
X58235968Y-141334704D01*
X58235968Y-141334704D02*
X57924351Y-140664346D01*
X57924351Y-140664346D02*
X57860803Y-141400856D01*
X57860803Y-141400856D02*
X57452677Y-140457393D01*
X57140946Y-140609067D02*
X57085781Y-140570440D01*
X57085781Y-140570440D02*
X56983721Y-140540082D01*
X56983721Y-140540082D02*
X56749243Y-140581427D01*
X56749243Y-140581427D02*
X56663721Y-140644861D01*
X56663721Y-140644861D02*
X56625094Y-140700025D01*
X56625094Y-140700025D02*
X56594736Y-140802085D01*
X56594736Y-140802085D02*
X56611274Y-140895876D01*
X56611274Y-140895876D02*
X56682977Y-141028294D01*
X56682977Y-141028294D02*
X57344952Y-141491814D01*
X57344952Y-141491814D02*
X56735309Y-141599311D01*
X55775422Y-141091613D02*
X55891188Y-141748152D01*
X55943749Y-140675104D02*
X56302261Y-141337193D01*
X56302261Y-141337193D02*
X55692618Y-141444690D01*
X137809523Y-144159800D02*
X137666666Y-144207419D01*
X137666666Y-144207419D02*
X137428571Y-144207419D01*
X137428571Y-144207419D02*
X137333333Y-144159800D01*
X137333333Y-144159800D02*
X137285714Y-144112180D01*
X137285714Y-144112180D02*
X137238095Y-144016942D01*
X137238095Y-144016942D02*
X137238095Y-143921704D01*
X137238095Y-143921704D02*
X137285714Y-143826466D01*
X137285714Y-143826466D02*
X137333333Y-143778847D01*
X137333333Y-143778847D02*
X137428571Y-143731228D01*
X137428571Y-143731228D02*
X137619047Y-143683609D01*
X137619047Y-143683609D02*
X137714285Y-143635990D01*
X137714285Y-143635990D02*
X137761904Y-143588371D01*
X137761904Y-143588371D02*
X137809523Y-143493133D01*
X137809523Y-143493133D02*
X137809523Y-143397895D01*
X137809523Y-143397895D02*
X137761904Y-143302657D01*
X137761904Y-143302657D02*
X137714285Y-143255038D01*
X137714285Y-143255038D02*
X137619047Y-143207419D01*
X137619047Y-143207419D02*
X137380952Y-143207419D01*
X137380952Y-143207419D02*
X137238095Y-143255038D01*
X136904761Y-143207419D02*
X136666666Y-144207419D01*
X136666666Y-144207419D02*
X136476190Y-143493133D01*
X136476190Y-143493133D02*
X136285714Y-144207419D01*
X136285714Y-144207419D02*
X136047619Y-143207419D01*
X135761904Y-143207419D02*
X135142857Y-143207419D01*
X135142857Y-143207419D02*
X135476190Y-143588371D01*
X135476190Y-143588371D02*
X135333333Y-143588371D01*
X135333333Y-143588371D02*
X135238095Y-143635990D01*
X135238095Y-143635990D02*
X135190476Y-143683609D01*
X135190476Y-143683609D02*
X135142857Y-143778847D01*
X135142857Y-143778847D02*
X135142857Y-144016942D01*
X135142857Y-144016942D02*
X135190476Y-144112180D01*
X135190476Y-144112180D02*
X135238095Y-144159800D01*
X135238095Y-144159800D02*
X135333333Y-144207419D01*
X135333333Y-144207419D02*
X135619047Y-144207419D01*
X135619047Y-144207419D02*
X135714285Y-144159800D01*
X135714285Y-144159800D02*
X135761904Y-144112180D01*
X134190476Y-144207419D02*
X134761904Y-144207419D01*
X134476190Y-144207419D02*
X134476190Y-143207419D01*
X134476190Y-143207419D02*
X134571428Y-143350276D01*
X134571428Y-143350276D02*
X134666666Y-143445514D01*
X134666666Y-143445514D02*
X134761904Y-143493133D01*
X200363332Y-125569800D02*
X200220475Y-125617419D01*
X200220475Y-125617419D02*
X199982380Y-125617419D01*
X199982380Y-125617419D02*
X199887142Y-125569800D01*
X199887142Y-125569800D02*
X199839523Y-125522180D01*
X199839523Y-125522180D02*
X199791904Y-125426942D01*
X199791904Y-125426942D02*
X199791904Y-125331704D01*
X199791904Y-125331704D02*
X199839523Y-125236466D01*
X199839523Y-125236466D02*
X199887142Y-125188847D01*
X199887142Y-125188847D02*
X199982380Y-125141228D01*
X199982380Y-125141228D02*
X200172856Y-125093609D01*
X200172856Y-125093609D02*
X200268094Y-125045990D01*
X200268094Y-125045990D02*
X200315713Y-124998371D01*
X200315713Y-124998371D02*
X200363332Y-124903133D01*
X200363332Y-124903133D02*
X200363332Y-124807895D01*
X200363332Y-124807895D02*
X200315713Y-124712657D01*
X200315713Y-124712657D02*
X200268094Y-124665038D01*
X200268094Y-124665038D02*
X200172856Y-124617419D01*
X200172856Y-124617419D02*
X199934761Y-124617419D01*
X199934761Y-124617419D02*
X199791904Y-124665038D01*
X199458570Y-124617419D02*
X199220475Y-125617419D01*
X199220475Y-125617419D02*
X199029999Y-124903133D01*
X199029999Y-124903133D02*
X198839523Y-125617419D01*
X198839523Y-125617419D02*
X198601428Y-124617419D01*
X197791904Y-124617419D02*
X197982380Y-124617419D01*
X197982380Y-124617419D02*
X198077618Y-124665038D01*
X198077618Y-124665038D02*
X198125237Y-124712657D01*
X198125237Y-124712657D02*
X198220475Y-124855514D01*
X198220475Y-124855514D02*
X198268094Y-125045990D01*
X198268094Y-125045990D02*
X198268094Y-125426942D01*
X198268094Y-125426942D02*
X198220475Y-125522180D01*
X198220475Y-125522180D02*
X198172856Y-125569800D01*
X198172856Y-125569800D02*
X198077618Y-125617419D01*
X198077618Y-125617419D02*
X197887142Y-125617419D01*
X197887142Y-125617419D02*
X197791904Y-125569800D01*
X197791904Y-125569800D02*
X197744285Y-125522180D01*
X197744285Y-125522180D02*
X197696666Y-125426942D01*
X197696666Y-125426942D02*
X197696666Y-125188847D01*
X197696666Y-125188847D02*
X197744285Y-125093609D01*
X197744285Y-125093609D02*
X197791904Y-125045990D01*
X197791904Y-125045990D02*
X197887142Y-124998371D01*
X197887142Y-124998371D02*
X198077618Y-124998371D01*
X198077618Y-124998371D02*
X198172856Y-125045990D01*
X198172856Y-125045990D02*
X198220475Y-125093609D01*
X198220475Y-125093609D02*
X198268094Y-125188847D01*
X300297322Y-126824336D02*
X300148366Y-126846424D01*
X300148366Y-126846424D02*
X299913888Y-126805079D01*
X299913888Y-126805079D02*
X299828366Y-126741646D01*
X299828366Y-126741646D02*
X299789739Y-126686481D01*
X299789739Y-126686481D02*
X299759382Y-126584421D01*
X299759382Y-126584421D02*
X299775919Y-126490630D01*
X299775919Y-126490630D02*
X299839353Y-126405108D01*
X299839353Y-126405108D02*
X299894518Y-126366481D01*
X299894518Y-126366481D02*
X299996578Y-126336123D01*
X299996578Y-126336123D02*
X300192429Y-126322304D01*
X300192429Y-126322304D02*
X300294489Y-126291946D01*
X300294489Y-126291946D02*
X300349654Y-126253319D01*
X300349654Y-126253319D02*
X300413087Y-126167797D01*
X300413087Y-126167797D02*
X300429625Y-126074006D01*
X300429625Y-126074006D02*
X300399268Y-125971946D01*
X300399268Y-125971946D02*
X300360641Y-125916781D01*
X300360641Y-125916781D02*
X300275119Y-125853348D01*
X300275119Y-125853348D02*
X300040641Y-125812003D01*
X300040641Y-125812003D02*
X299891685Y-125834091D01*
X299571685Y-125729313D02*
X299163558Y-126672776D01*
X299163558Y-126672776D02*
X299100010Y-125936266D01*
X299100010Y-125936266D02*
X298788394Y-126606624D01*
X298788394Y-126606624D02*
X298727564Y-125580472D01*
X298137291Y-125911574D02*
X298239352Y-125881216D01*
X298239352Y-125881216D02*
X298294516Y-125842589D01*
X298294516Y-125842589D02*
X298357950Y-125757067D01*
X298357950Y-125757067D02*
X298366219Y-125710172D01*
X298366219Y-125710172D02*
X298335861Y-125608111D01*
X298335861Y-125608111D02*
X298297234Y-125552947D01*
X298297234Y-125552947D02*
X298211712Y-125489513D01*
X298211712Y-125489513D02*
X298024130Y-125456437D01*
X298024130Y-125456437D02*
X297922070Y-125486795D01*
X297922070Y-125486795D02*
X297866905Y-125525422D01*
X297866905Y-125525422D02*
X297803471Y-125610944D01*
X297803471Y-125610944D02*
X297795202Y-125657840D01*
X297795202Y-125657840D02*
X297825560Y-125759900D01*
X297825560Y-125759900D02*
X297864187Y-125815064D01*
X297864187Y-125815064D02*
X297949709Y-125878498D01*
X297949709Y-125878498D02*
X298137291Y-125911574D01*
X298137291Y-125911574D02*
X298222814Y-125975007D01*
X298222814Y-125975007D02*
X298261440Y-126030172D01*
X298261440Y-126030172D02*
X298291798Y-126132232D01*
X298291798Y-126132232D02*
X298258722Y-126319814D01*
X298258722Y-126319814D02*
X298195289Y-126405337D01*
X298195289Y-126405337D02*
X298140124Y-126443963D01*
X298140124Y-126443963D02*
X298038064Y-126474321D01*
X298038064Y-126474321D02*
X297850482Y-126441245D01*
X297850482Y-126441245D02*
X297764959Y-126377812D01*
X297764959Y-126377812D02*
X297726333Y-126322647D01*
X297726333Y-126322647D02*
X297695975Y-126220587D01*
X297695975Y-126220587D02*
X297729051Y-126033004D01*
X297729051Y-126033004D02*
X297792484Y-125947482D01*
X297792484Y-125947482D02*
X297847649Y-125908856D01*
X297847649Y-125908856D02*
X297949709Y-125878498D01*
%TO.C,SW14*%
X231100000Y-125500000D02*
X231100000Y-128500000D01*
X231200000Y-125500000D02*
X231100000Y-125500000D01*
X231300000Y-125500000D02*
X231200000Y-125500000D01*
X242800000Y-125500000D02*
X231300000Y-125500000D01*
X242800000Y-125900000D02*
X242800000Y-125500000D01*
%TO.C,SW18*%
X192600000Y-95500000D02*
X192600000Y-98500000D01*
X192700000Y-95500000D02*
X192600000Y-95500000D01*
X192800000Y-95500000D02*
X192700000Y-95500000D01*
X204300000Y-95500000D02*
X192800000Y-95500000D01*
X204300000Y-95900000D02*
X204300000Y-95500000D01*
%TO.C,SW20*%
X110350000Y-92250000D02*
X110350000Y-95250000D01*
X110450000Y-92250000D02*
X110350000Y-92250000D01*
X110550000Y-92250000D02*
X110450000Y-92250000D01*
X122050000Y-92250000D02*
X110550000Y-92250000D01*
X122050000Y-92650000D02*
X122050000Y-92250000D01*
%TO.C,SW3*%
X253225123Y-90674643D02*
X253068115Y-93670532D01*
X253324986Y-90679877D02*
X253225123Y-90674643D01*
X253424849Y-90685110D02*
X253324986Y-90679877D01*
X264888154Y-91686426D02*
X264909088Y-91286974D01*
X264909088Y-91286974D02*
X253424849Y-90685110D01*
%TO.C,SW7*%
X291412768Y-133244997D02*
X290891823Y-136199421D01*
X291511248Y-133262362D02*
X291412768Y-133244997D01*
X291609729Y-133279727D02*
X291511248Y-133262362D01*
X302865559Y-135670604D02*
X302935018Y-135276681D01*
X302935018Y-135276681D02*
X291609729Y-133279727D01*
%TO.C,SW23*%
X46095326Y-113155937D02*
X46616271Y-116110360D01*
X46193807Y-113138572D02*
X46095326Y-113155937D01*
X46292288Y-113121207D02*
X46193807Y-113138572D01*
X57617577Y-111124253D02*
X46292288Y-113121207D01*
X57687036Y-111518176D02*
X57617577Y-111124253D01*
%TO.C,SW16*%
X175091826Y-162611080D02*
X176117887Y-165430158D01*
X175185795Y-162576878D02*
X175091826Y-162611080D01*
X175279765Y-162542677D02*
X175185795Y-162576878D01*
X186086230Y-158609445D02*
X175279765Y-162542677D01*
X186223038Y-158985322D02*
X186086230Y-158609445D01*
%TO.C,SW9*%
X252225123Y-109924643D02*
X252068115Y-112920532D01*
X252324986Y-109929877D02*
X252225123Y-109924643D01*
X252424849Y-109935110D02*
X252324986Y-109929877D01*
X263888154Y-110936426D02*
X263909088Y-110536974D01*
X263909088Y-110536974D02*
X252424849Y-109935110D01*
%TO.C,SW15*%
X211850000Y-111500000D02*
X211850000Y-114500000D01*
X211950000Y-111500000D02*
X211850000Y-111500000D01*
X212050000Y-111500000D02*
X211950000Y-111500000D01*
X223550000Y-111500000D02*
X212050000Y-111500000D01*
X223550000Y-111900000D02*
X223550000Y-111500000D01*
%TO.C,SW22*%
X68742419Y-91344543D02*
X68899427Y-94340432D01*
X68842282Y-91339310D02*
X68742419Y-91344543D01*
X68942145Y-91334076D02*
X68842282Y-91339310D01*
X80426385Y-90732213D02*
X68942145Y-91334076D01*
X80447319Y-91131665D02*
X80426385Y-90732213D01*
%TO.C,SW27*%
X91100000Y-106250000D02*
X91100000Y-109250000D01*
X91200000Y-106250000D02*
X91100000Y-106250000D01*
X91300000Y-106250000D02*
X91200000Y-106250000D01*
X102800000Y-106250000D02*
X91300000Y-106250000D01*
X102800000Y-106650000D02*
X102800000Y-106250000D01*
%TO.C,SW26*%
X110350000Y-111500000D02*
X110350000Y-114500000D01*
X110450000Y-111500000D02*
X110350000Y-111500000D01*
X110550000Y-111500000D02*
X110450000Y-111500000D01*
X122050000Y-111500000D02*
X110550000Y-111500000D01*
X122050000Y-111900000D02*
X122050000Y-111500000D01*
%TO.C,SW28*%
X69742419Y-110594543D02*
X69899427Y-113590432D01*
X69842282Y-110589310D02*
X69742419Y-110594543D01*
X69942145Y-110584076D02*
X69842282Y-110589310D01*
X81426385Y-109982213D02*
X69942145Y-110584076D01*
X81447319Y-110381665D02*
X81426385Y-109982213D01*
%TO.C,SW1*%
X272412768Y-129994997D02*
X271891823Y-132949421D01*
X272511248Y-130012362D02*
X272412768Y-129994997D01*
X272609729Y-130029727D02*
X272511248Y-130012362D01*
X283865559Y-132420604D02*
X283935018Y-132026681D01*
X283935018Y-132026681D02*
X272609729Y-130029727D01*
%TO.C,SW2*%
X275662768Y-110994997D02*
X275141823Y-113949421D01*
X275761248Y-111012362D02*
X275662768Y-110994997D01*
X275859729Y-111029727D02*
X275761248Y-111012362D01*
X287115559Y-113420604D02*
X287185018Y-113026681D01*
X287185018Y-113026681D02*
X275859729Y-111029727D01*
%TO.C,SW30*%
X30481693Y-135467694D02*
X31002638Y-138422117D01*
X30580174Y-135450329D02*
X30481693Y-135467694D01*
X30678655Y-135432964D02*
X30580174Y-135450329D01*
X42003944Y-133436010D02*
X30678655Y-135432964D01*
X42073403Y-133829933D02*
X42003944Y-133436010D01*
%TO.C,SW4*%
X231100000Y-87000000D02*
X231100000Y-90000000D01*
X231200000Y-87000000D02*
X231100000Y-87000000D01*
X231300000Y-87000000D02*
X231200000Y-87000000D01*
X242800000Y-87000000D02*
X231300000Y-87000000D01*
X242800000Y-87400000D02*
X242800000Y-87000000D01*
%TO.C,SW19*%
X129600000Y-95500000D02*
X129600000Y-98500000D01*
X129700000Y-95500000D02*
X129600000Y-95500000D01*
X129800000Y-95500000D02*
X129700000Y-95500000D01*
X141300000Y-95500000D02*
X129800000Y-95500000D01*
X141300000Y-95900000D02*
X141300000Y-95500000D01*
%TO.C,SW36*%
X126436407Y-153482459D02*
X125915462Y-156436883D01*
X126534887Y-153499824D02*
X126436407Y-153482459D01*
X126633368Y-153517189D02*
X126534887Y-153499824D01*
X137889198Y-155908066D02*
X137958657Y-155514143D01*
X137958657Y-155514143D02*
X126633368Y-153517189D01*
%TO.C,SW35*%
X148130108Y-158233223D02*
X147104048Y-161052301D01*
X148224077Y-158267425D02*
X148130108Y-158233223D01*
X148318047Y-158301627D02*
X148224077Y-158267425D01*
X158987704Y-162610735D02*
X159124512Y-162234858D01*
X159124512Y-162234858D02*
X148318047Y-158301627D01*
%TO.C,SW32*%
X110350000Y-130750000D02*
X110350000Y-133750000D01*
X110450000Y-130750000D02*
X110350000Y-130750000D01*
X110550000Y-130750000D02*
X110450000Y-130750000D01*
X122050000Y-130750000D02*
X110550000Y-130750000D01*
X122050000Y-131150000D02*
X122050000Y-130750000D01*
%TO.C,SW21*%
X91100000Y-87000000D02*
X91100000Y-90000000D01*
X91200000Y-87000000D02*
X91100000Y-87000000D01*
X91300000Y-87000000D02*
X91200000Y-87000000D01*
X102800000Y-87000000D02*
X91300000Y-87000000D01*
X102800000Y-87400000D02*
X102800000Y-87000000D01*
%TO.C,SW12*%
X192600000Y-134000000D02*
X192600000Y-137000000D01*
X192700000Y-134000000D02*
X192600000Y-134000000D01*
X192800000Y-134000000D02*
X192700000Y-134000000D01*
X204300000Y-134000000D02*
X192800000Y-134000000D01*
X204300000Y-134400000D02*
X204300000Y-134000000D01*
%TO.C,SW25*%
X129600000Y-114750000D02*
X129600000Y-117750000D01*
X129700000Y-114750000D02*
X129600000Y-114750000D01*
X129800000Y-114750000D02*
X129700000Y-114750000D01*
X141300000Y-114750000D02*
X129800000Y-114750000D01*
X141300000Y-115150000D02*
X141300000Y-114750000D01*
%TO.C,SW10*%
X231100000Y-106250000D02*
X231100000Y-109250000D01*
X231200000Y-106250000D02*
X231100000Y-106250000D01*
X231300000Y-106250000D02*
X231200000Y-106250000D01*
X242800000Y-106250000D02*
X231300000Y-106250000D01*
X242800000Y-106650000D02*
X242800000Y-106250000D01*
%TO.C,SW5*%
X211850000Y-130750000D02*
X211850000Y-133750000D01*
X211950000Y-130750000D02*
X211850000Y-130750000D01*
X212050000Y-130750000D02*
X211950000Y-130750000D01*
X223550000Y-130750000D02*
X212050000Y-130750000D01*
X223550000Y-131150000D02*
X223550000Y-130750000D01*
%TO.C,SW34*%
X70742419Y-129844543D02*
X70899427Y-132840432D01*
X70842282Y-129839310D02*
X70742419Y-129844543D01*
X70942145Y-129834076D02*
X70842282Y-129839310D01*
X82426385Y-129232213D02*
X70942145Y-129834076D01*
X82447319Y-129631665D02*
X82426385Y-129232213D01*
%TO.C,SW33*%
X91100000Y-125500000D02*
X91100000Y-128500000D01*
X91200000Y-125500000D02*
X91100000Y-125500000D01*
X91300000Y-125500000D02*
X91200000Y-125500000D01*
X102800000Y-125500000D02*
X91300000Y-125500000D01*
X102800000Y-125900000D02*
X102800000Y-125500000D01*
%TO.C,SW29*%
X27095326Y-116467694D02*
X27616271Y-119422117D01*
X27193807Y-116450329D02*
X27095326Y-116467694D01*
X27292288Y-116432964D02*
X27193807Y-116450329D01*
X38617577Y-114436010D02*
X27292288Y-116432964D01*
X38687036Y-114829933D02*
X38617577Y-114436010D01*
%TO.C,SW11*%
X196231693Y-155717694D02*
X196752638Y-158672117D01*
X196330174Y-155700329D02*
X196231693Y-155717694D01*
X196428655Y-155682964D02*
X196330174Y-155700329D01*
X207753944Y-153686010D02*
X196428655Y-155682964D01*
X207823403Y-154079933D02*
X207753944Y-153686010D01*
%TO.C,SW13*%
X251225123Y-129174643D02*
X251068115Y-132170532D01*
X251324986Y-129179877D02*
X251225123Y-129174643D01*
X251424849Y-129185110D02*
X251324986Y-129179877D01*
X262888154Y-130186426D02*
X262909088Y-129786974D01*
X262909088Y-129786974D02*
X251424849Y-129185110D01*
%TO.C,SW17*%
X211850000Y-92250000D02*
X211850000Y-95250000D01*
X211950000Y-92250000D02*
X211850000Y-92250000D01*
X212050000Y-92250000D02*
X211950000Y-92250000D01*
X223550000Y-92250000D02*
X212050000Y-92250000D01*
X223550000Y-92650000D02*
X223550000Y-92250000D01*
%TO.C,SW24*%
X49481693Y-132155937D02*
X50002638Y-135110360D01*
X49580174Y-132138572D02*
X49481693Y-132155937D01*
X49678655Y-132121207D02*
X49580174Y-132138572D01*
X61003944Y-130124253D02*
X49678655Y-132121207D01*
X61073403Y-130518176D02*
X61003944Y-130124253D01*
%TO.C,SW31*%
X129600000Y-134000000D02*
X129600000Y-137000000D01*
X129700000Y-134000000D02*
X129600000Y-134000000D01*
X129800000Y-134000000D02*
X129700000Y-134000000D01*
X141300000Y-134000000D02*
X129800000Y-134000000D01*
X141300000Y-134400000D02*
X141300000Y-134000000D01*
%TO.C,SW6*%
X192600000Y-114750000D02*
X192600000Y-117750000D01*
X192700000Y-114750000D02*
X192600000Y-114750000D01*
X192800000Y-114750000D02*
X192700000Y-114750000D01*
X204300000Y-114750000D02*
X192800000Y-114750000D01*
X204300000Y-115150000D02*
X204300000Y-114750000D01*
%TO.C,SW8*%
X294662768Y-114244997D02*
X294141823Y-117199421D01*
X294761248Y-114262362D02*
X294662768Y-114244997D01*
X294859729Y-114279727D02*
X294761248Y-114262362D01*
X306115559Y-116670604D02*
X306185018Y-116276681D01*
X306185018Y-116276681D02*
X294859729Y-114279727D01*
%TD*%
%LPC*%
D11*
%TO.C,J1*%
X180850000Y-118550000D03*
D12*
X171650000Y-121450000D03*
X171750000Y-116350000D03*
X175850000Y-121150000D03*
X179650000Y-115950000D03*
X181750000Y-116750000D03*
X180850000Y-121150000D03*
%TD*%
D13*
%TO.C,U1*%
X171500000Y-96360000D03*
X171500000Y-98900000D03*
X171500000Y-101440000D03*
X171500000Y-103980000D03*
X171500000Y-106520000D03*
X171500000Y-109060000D03*
X171500000Y-111600000D03*
X186740000Y-111600000D03*
X186740000Y-109060000D03*
X186740000Y-106520000D03*
X186740000Y-103980000D03*
X186740000Y-101440000D03*
X186740000Y-98900000D03*
X186740000Y-96360000D03*
%TD*%
D11*
%TO.C,J2*%
X154500000Y-118500000D03*
D12*
X163700000Y-115600000D03*
X163600000Y-120700000D03*
X159500000Y-115900000D03*
X155700000Y-121100000D03*
X153600000Y-120300000D03*
X154500000Y-115900000D03*
%TD*%
D13*
%TO.C,U2*%
X148610000Y-96360000D03*
X148610000Y-98900000D03*
X148610000Y-101440000D03*
X148610000Y-103980000D03*
X148610000Y-106520000D03*
X148610000Y-109060000D03*
X148610000Y-111600000D03*
X163850000Y-111600000D03*
X163850000Y-109060000D03*
X163850000Y-106520000D03*
X163850000Y-103980000D03*
X163850000Y-101440000D03*
X163850000Y-98900000D03*
X163850000Y-96360000D03*
%TD*%
D14*
%TO.C,SW14*%
X242580000Y-132500000D03*
D15*
X240040000Y-127420000D03*
D16*
X237500000Y-132500000D03*
D15*
X233690000Y-129960000D03*
D14*
X232420000Y-132500000D03*
D17*
X230020000Y-129960000D03*
X243710000Y-127420000D03*
%TD*%
D14*
%TO.C,SW18*%
X204080000Y-102500000D03*
D15*
X201540000Y-97420000D03*
D16*
X199000000Y-102500000D03*
D15*
X195190000Y-99960000D03*
D14*
X193920000Y-102500000D03*
D17*
X191520000Y-99960000D03*
X205210000Y-97420000D03*
%TD*%
D14*
%TO.C,SW20*%
X121830000Y-99250000D03*
D15*
X119290000Y-94170000D03*
D16*
X116750000Y-99250000D03*
D15*
X112940000Y-96710000D03*
D14*
X111670000Y-99250000D03*
D17*
X109270000Y-96710000D03*
X122960000Y-94170000D03*
%TD*%
D14*
%TO.C,SW3*%
X264323038Y-98265867D03*
D15*
X262052386Y-93059895D03*
D16*
X259250000Y-98000000D03*
D15*
X255578155Y-95264081D03*
D14*
X254176962Y-97734133D03*
D18*
X251913184Y-95072008D03*
X265717356Y-93251968D03*
%TD*%
D14*
%TO.C,SW7*%
X301502823Y-142132133D03*
D15*
X299883544Y-136688243D03*
D16*
X296500000Y-141250000D03*
D15*
X293188949Y-138086989D03*
D14*
X291497177Y-140367867D03*
D19*
X289574704Y-137449700D03*
X303497789Y-137325532D03*
%TD*%
D14*
%TO.C,SW23*%
X58616456Y-118056110D03*
D15*
X55232912Y-113494353D03*
D16*
X53613633Y-118938243D03*
D15*
X49420449Y-117098431D03*
D14*
X48610810Y-119820376D03*
D20*
X45806205Y-117735720D03*
X58847156Y-112857064D03*
%TD*%
D14*
%TO.C,SW16*%
X188273639Y-165262537D03*
D15*
X184149356Y-161357631D03*
D16*
X183500000Y-167000000D03*
D15*
X179051041Y-165916278D03*
D14*
X178726361Y-168737463D03*
D21*
X175602369Y-167171491D03*
X187598028Y-160102416D03*
%TD*%
D14*
%TO.C,SW9*%
X263323038Y-117515867D03*
D15*
X261052386Y-112309895D03*
D16*
X258250000Y-117250000D03*
D15*
X254578155Y-114514081D03*
D14*
X253176962Y-116984133D03*
D18*
X250913184Y-114322008D03*
X264717356Y-112501968D03*
%TD*%
D14*
%TO.C,SW15*%
X223330000Y-118500000D03*
D15*
X220790000Y-113420000D03*
D16*
X218250000Y-118500000D03*
D15*
X214440000Y-115960000D03*
D14*
X213170000Y-118500000D03*
D17*
X210770000Y-115960000D03*
X224460000Y-113420000D03*
%TD*%
D14*
%TO.C,SW22*%
X80573038Y-97734133D03*
D15*
X77770652Y-92794029D03*
D16*
X75500000Y-98000000D03*
D15*
X71562288Y-95662881D03*
D14*
X70426962Y-98265867D03*
D22*
X67897318Y-95854954D03*
X81435623Y-92601956D03*
%TD*%
D14*
%TO.C,SW27*%
X102580000Y-113250000D03*
D15*
X100040000Y-108170000D03*
D16*
X97500000Y-113250000D03*
D15*
X93690000Y-110710000D03*
D14*
X92420000Y-113250000D03*
D17*
X90020000Y-110710000D03*
X103710000Y-108170000D03*
%TD*%
D14*
%TO.C,SW26*%
X121830000Y-118500000D03*
D15*
X119290000Y-113420000D03*
D16*
X116750000Y-118500000D03*
D15*
X112940000Y-115960000D03*
D14*
X111670000Y-118500000D03*
D17*
X109270000Y-115960000D03*
X122960000Y-113420000D03*
%TD*%
D14*
%TO.C,SW28*%
X81573038Y-116984133D03*
D15*
X78770652Y-112044029D03*
D16*
X76500000Y-117250000D03*
D15*
X72562288Y-114912881D03*
D14*
X71426962Y-117515867D03*
D22*
X68897318Y-115104954D03*
X82435623Y-111851956D03*
%TD*%
D14*
%TO.C,SW1*%
X282502823Y-138882133D03*
D15*
X280883544Y-133438243D03*
D16*
X277500000Y-138000000D03*
D15*
X274188949Y-134836989D03*
D14*
X272497177Y-137117867D03*
D19*
X270574704Y-134199700D03*
X284497789Y-134075532D03*
%TD*%
D14*
%TO.C,SW2*%
X285752823Y-119882133D03*
D15*
X284133544Y-114438243D03*
D16*
X280750000Y-119000000D03*
D15*
X277438949Y-115836989D03*
D14*
X275747177Y-118117867D03*
D19*
X273824704Y-115199700D03*
X287747789Y-115075532D03*
%TD*%
D14*
%TO.C,SW30*%
X43002823Y-140367867D03*
D15*
X39619279Y-135806110D03*
D16*
X38000000Y-141250000D03*
D15*
X33806816Y-139410188D03*
D14*
X32997177Y-142132133D03*
D20*
X30192572Y-140047477D03*
X43233523Y-135168821D03*
%TD*%
D14*
%TO.C,SW4*%
X242580000Y-94000000D03*
D15*
X240040000Y-88920000D03*
D16*
X237500000Y-94000000D03*
D15*
X233690000Y-91460000D03*
D14*
X232420000Y-94000000D03*
D17*
X230020000Y-91460000D03*
X243710000Y-88920000D03*
%TD*%
D14*
%TO.C,SW19*%
X141080000Y-102500000D03*
D15*
X138540000Y-97420000D03*
D16*
X136000000Y-102500000D03*
D15*
X132190000Y-99960000D03*
D14*
X130920000Y-102500000D03*
D17*
X128520000Y-99960000D03*
X142210000Y-97420000D03*
%TD*%
D14*
%TO.C,SW36*%
X136526462Y-162369595D03*
D15*
X134907183Y-156925705D03*
D16*
X131523639Y-161487462D03*
D15*
X128212588Y-158324451D03*
D14*
X126520816Y-160605329D03*
D19*
X124598343Y-157687162D03*
X138521428Y-157562994D03*
%TD*%
D14*
%TO.C,SW35*%
X156523639Y-168737462D03*
D15*
X155874283Y-163095093D03*
D16*
X151750000Y-167000000D03*
D15*
X149038502Y-163310084D03*
D14*
X146976361Y-165262538D03*
D23*
X145589830Y-162054870D03*
X159322954Y-164350307D03*
%TD*%
D14*
%TO.C,SW32*%
X121830000Y-137750000D03*
D15*
X119290000Y-132670000D03*
D16*
X116750000Y-137750000D03*
D15*
X112940000Y-135210000D03*
D14*
X111670000Y-137750000D03*
D17*
X109270000Y-135210000D03*
X122960000Y-132670000D03*
%TD*%
D14*
%TO.C,SW21*%
X102580000Y-94000000D03*
D15*
X100040000Y-88920000D03*
D16*
X97500000Y-94000000D03*
D15*
X93690000Y-91460000D03*
D14*
X92420000Y-94000000D03*
D17*
X90020000Y-91460000D03*
X103710000Y-88920000D03*
%TD*%
D14*
%TO.C,SW12*%
X204080000Y-141000000D03*
D15*
X201540000Y-135920000D03*
D16*
X199000000Y-141000000D03*
D15*
X195190000Y-138460000D03*
D14*
X193920000Y-141000000D03*
D17*
X191520000Y-138460000D03*
X205210000Y-135920000D03*
%TD*%
D14*
%TO.C,SW25*%
X141080000Y-121750000D03*
D15*
X138540000Y-116670000D03*
D16*
X136000000Y-121750000D03*
D15*
X132190000Y-119210000D03*
D14*
X130920000Y-121750000D03*
D17*
X128520000Y-119210000D03*
X142210000Y-116670000D03*
%TD*%
D14*
%TO.C,SW10*%
X242580000Y-113250000D03*
D15*
X240040000Y-108170000D03*
D16*
X237500000Y-113250000D03*
D15*
X233690000Y-110710000D03*
D14*
X232420000Y-113250000D03*
D17*
X230020000Y-110710000D03*
X243710000Y-108170000D03*
%TD*%
D14*
%TO.C,SW5*%
X223330000Y-137750000D03*
D15*
X220790000Y-132670000D03*
D16*
X218250000Y-137750000D03*
D15*
X214440000Y-135210000D03*
D14*
X213170000Y-137750000D03*
D17*
X210770000Y-135210000D03*
X224460000Y-132670000D03*
%TD*%
D14*
%TO.C,SW34*%
X82573038Y-136234133D03*
D15*
X79770652Y-131294029D03*
D16*
X77500000Y-136500000D03*
D15*
X73562288Y-134162881D03*
D14*
X72426962Y-136765867D03*
D22*
X69897318Y-134354954D03*
X83435623Y-131101956D03*
%TD*%
D14*
%TO.C,SW33*%
X102580000Y-132500000D03*
D15*
X100040000Y-127420000D03*
D16*
X97500000Y-132500000D03*
D15*
X93690000Y-129960000D03*
D14*
X92420000Y-132500000D03*
D17*
X90020000Y-129960000D03*
X103710000Y-127420000D03*
%TD*%
D14*
%TO.C,SW29*%
X39616456Y-121367867D03*
D15*
X36232912Y-116806110D03*
D16*
X34613633Y-122250000D03*
D15*
X30420449Y-120410188D03*
D14*
X29610810Y-123132133D03*
D20*
X26806205Y-121047477D03*
X39847156Y-116168821D03*
%TD*%
D14*
%TO.C,SW11*%
X208752823Y-160617867D03*
D15*
X205369279Y-156056110D03*
D16*
X203750000Y-161500000D03*
D15*
X199556816Y-159660188D03*
D14*
X198747177Y-162382133D03*
D20*
X195942572Y-160297477D03*
X208983523Y-155418821D03*
%TD*%
D14*
%TO.C,SW13*%
X262323038Y-136765867D03*
D15*
X260052386Y-131559895D03*
D16*
X257250000Y-136500000D03*
D15*
X253578155Y-133764081D03*
D14*
X252176962Y-136234133D03*
D18*
X249913184Y-133572008D03*
X263717356Y-131751968D03*
%TD*%
D14*
%TO.C,SW17*%
X223330000Y-99250000D03*
D15*
X220790000Y-94170000D03*
D16*
X218250000Y-99250000D03*
D15*
X214440000Y-96710000D03*
D14*
X213170000Y-99250000D03*
D17*
X210770000Y-96710000D03*
X224460000Y-94170000D03*
%TD*%
D14*
%TO.C,SW24*%
X62002823Y-137056110D03*
D15*
X58619279Y-132494353D03*
D16*
X57000000Y-137938243D03*
D15*
X52806816Y-136098431D03*
D14*
X51997177Y-138820376D03*
D20*
X49192572Y-136735720D03*
X62233523Y-131857064D03*
%TD*%
D14*
%TO.C,SW31*%
X141080000Y-141000000D03*
D15*
X138540000Y-135920000D03*
D16*
X136000000Y-141000000D03*
D15*
X132190000Y-138460000D03*
D14*
X130920000Y-141000000D03*
D17*
X128520000Y-138460000D03*
X142210000Y-135920000D03*
%TD*%
D14*
%TO.C,SW6*%
X204080000Y-121750000D03*
D15*
X201540000Y-116670000D03*
D16*
X199000000Y-121750000D03*
D15*
X195190000Y-119210000D03*
D14*
X193920000Y-121750000D03*
D17*
X191520000Y-119210000D03*
X205210000Y-116670000D03*
%TD*%
D14*
%TO.C,SW8*%
X304752823Y-123132133D03*
D15*
X303133544Y-117688243D03*
D16*
X299750000Y-122250000D03*
D15*
X296438949Y-119086989D03*
D14*
X294747177Y-121367867D03*
D19*
X292824704Y-118449700D03*
X306747789Y-118325532D03*
%TD*%
%LPD*%
M02*
