%TF.GenerationSoftware,KiCad,Pcbnew,9.0.6-1.fc42*%
%TF.CreationDate,2026-01-04T08:40:16+11:00*%
%TF.ProjectId,keyboard-split-splay-5x3+2-pinky-cluster,6b657962-6f61-4726-942d-73706c69742d,rev?*%
%TF.SameCoordinates,Original*%
%TF.FileFunction,Soldermask,Bot*%
%TF.FilePolarity,Negative*%
%FSLAX46Y46*%
G04 Gerber Fmt 4.6, Leading zero omitted, Abs format (unit mm)*
G04 Created by KiCad (PCBNEW 9.0.6-1.fc42) date 2026-01-04 08:40:16*
%MOMM*%
%LPD*%
G01*
G04 APERTURE LIST*
G04 Aperture macros list*
%AMRotRect*
0 Rectangle, with rotation*
0 The origin of the aperture is its center*
0 $1 length*
0 $2 width*
0 $3 Rotation angle, in degrees counterclockwise*
0 Add horizontal line*
21,1,$1,$2,0,0,$3*%
G04 Aperture macros list end*
%ADD10C,1.400000*%
%ADD11O,1.800000X0.900000*%
%ADD12C,1.524000*%
%ADD13C,1.700000*%
%ADD14C,3.000000*%
%ADD15C,4.000000*%
%ADD16R,2.500000X2.550000*%
%ADD17RotRect,2.500000X2.550000X357.000000*%
%ADD18RotRect,2.500000X2.550000X350.000000*%
%ADD19RotRect,2.500000X2.550000X10.000000*%
%ADD20RotRect,2.500000X2.550000X20.000000*%
%ADD21RotRect,2.500000X2.550000X3.000000*%
%ADD22RotRect,2.500000X2.550000X340.000000*%
G04 APERTURE END LIST*
D10*
%TO.C,J1*%
X180850000Y-118550000D03*
D11*
X171650000Y-121450000D03*
X171750000Y-116350000D03*
X175850000Y-121150000D03*
X179650000Y-115950000D03*
X181750000Y-116750000D03*
X180850000Y-121150000D03*
%TD*%
D12*
%TO.C,U1*%
X171500000Y-96360000D03*
X171500000Y-98900000D03*
X171500000Y-101440000D03*
X171500000Y-103980000D03*
X171500000Y-106520000D03*
X171500000Y-109060000D03*
X171500000Y-111600000D03*
X186740000Y-111600000D03*
X186740000Y-109060000D03*
X186740000Y-106520000D03*
X186740000Y-103980000D03*
X186740000Y-101440000D03*
X186740000Y-98900000D03*
X186740000Y-96360000D03*
%TD*%
D10*
%TO.C,J2*%
X154500000Y-118500000D03*
D11*
X163700000Y-115600000D03*
X163600000Y-120700000D03*
X159500000Y-115900000D03*
X155700000Y-121100000D03*
X153600000Y-120300000D03*
X154500000Y-115900000D03*
%TD*%
D12*
%TO.C,U2*%
X148610000Y-96360000D03*
X148610000Y-98900000D03*
X148610000Y-101440000D03*
X148610000Y-103980000D03*
X148610000Y-106520000D03*
X148610000Y-109060000D03*
X148610000Y-111600000D03*
X163850000Y-111600000D03*
X163850000Y-109060000D03*
X163850000Y-106520000D03*
X163850000Y-103980000D03*
X163850000Y-101440000D03*
X163850000Y-98900000D03*
X163850000Y-96360000D03*
%TD*%
D13*
%TO.C,SW14*%
X242580000Y-132500000D03*
D14*
X240040000Y-127420000D03*
D15*
X237500000Y-132500000D03*
D14*
X233690000Y-129960000D03*
D13*
X232420000Y-132500000D03*
D16*
X230020000Y-129960000D03*
X243710000Y-127420000D03*
%TD*%
D13*
%TO.C,SW18*%
X204080000Y-102500000D03*
D14*
X201540000Y-97420000D03*
D15*
X199000000Y-102500000D03*
D14*
X195190000Y-99960000D03*
D13*
X193920000Y-102500000D03*
D16*
X191520000Y-99960000D03*
X205210000Y-97420000D03*
%TD*%
D13*
%TO.C,SW20*%
X121830000Y-99250000D03*
D14*
X119290000Y-94170000D03*
D15*
X116750000Y-99250000D03*
D14*
X112940000Y-96710000D03*
D13*
X111670000Y-99250000D03*
D16*
X109270000Y-96710000D03*
X122960000Y-94170000D03*
%TD*%
D13*
%TO.C,SW3*%
X264323038Y-98265867D03*
D14*
X262052386Y-93059895D03*
D15*
X259250000Y-98000000D03*
D14*
X255578155Y-95264081D03*
D13*
X254176962Y-97734133D03*
D17*
X251913184Y-95072008D03*
X265717356Y-93251968D03*
%TD*%
D13*
%TO.C,SW7*%
X301502823Y-142132133D03*
D14*
X299883544Y-136688243D03*
D15*
X296500000Y-141250000D03*
D14*
X293188949Y-138086989D03*
D13*
X291497177Y-140367867D03*
D18*
X289574704Y-137449700D03*
X303497789Y-137325532D03*
%TD*%
D13*
%TO.C,SW23*%
X58616456Y-118056110D03*
D14*
X55232912Y-113494353D03*
D15*
X53613633Y-118938243D03*
D14*
X49420449Y-117098431D03*
D13*
X48610810Y-119820376D03*
D19*
X45806205Y-117735720D03*
X58847156Y-112857064D03*
%TD*%
D13*
%TO.C,SW16*%
X188273639Y-165262537D03*
D14*
X184149356Y-161357631D03*
D15*
X183500000Y-167000000D03*
D14*
X179051041Y-165916278D03*
D13*
X178726361Y-168737463D03*
D20*
X175602369Y-167171491D03*
X187598028Y-160102416D03*
%TD*%
D13*
%TO.C,SW9*%
X263323038Y-117515867D03*
D14*
X261052386Y-112309895D03*
D15*
X258250000Y-117250000D03*
D14*
X254578155Y-114514081D03*
D13*
X253176962Y-116984133D03*
D17*
X250913184Y-114322008D03*
X264717356Y-112501968D03*
%TD*%
D13*
%TO.C,SW15*%
X223330000Y-118500000D03*
D14*
X220790000Y-113420000D03*
D15*
X218250000Y-118500000D03*
D14*
X214440000Y-115960000D03*
D13*
X213170000Y-118500000D03*
D16*
X210770000Y-115960000D03*
X224460000Y-113420000D03*
%TD*%
D13*
%TO.C,SW22*%
X80573038Y-97734133D03*
D14*
X77770652Y-92794029D03*
D15*
X75500000Y-98000000D03*
D14*
X71562288Y-95662881D03*
D13*
X70426962Y-98265867D03*
D21*
X67897318Y-95854954D03*
X81435623Y-92601956D03*
%TD*%
D13*
%TO.C,SW27*%
X102580000Y-113250000D03*
D14*
X100040000Y-108170000D03*
D15*
X97500000Y-113250000D03*
D14*
X93690000Y-110710000D03*
D13*
X92420000Y-113250000D03*
D16*
X90020000Y-110710000D03*
X103710000Y-108170000D03*
%TD*%
D13*
%TO.C,SW26*%
X121830000Y-118500000D03*
D14*
X119290000Y-113420000D03*
D15*
X116750000Y-118500000D03*
D14*
X112940000Y-115960000D03*
D13*
X111670000Y-118500000D03*
D16*
X109270000Y-115960000D03*
X122960000Y-113420000D03*
%TD*%
D13*
%TO.C,SW28*%
X81573038Y-116984133D03*
D14*
X78770652Y-112044029D03*
D15*
X76500000Y-117250000D03*
D14*
X72562288Y-114912881D03*
D13*
X71426962Y-117515867D03*
D21*
X68897318Y-115104954D03*
X82435623Y-111851956D03*
%TD*%
D13*
%TO.C,SW1*%
X282502823Y-138882133D03*
D14*
X280883544Y-133438243D03*
D15*
X277500000Y-138000000D03*
D14*
X274188949Y-134836989D03*
D13*
X272497177Y-137117867D03*
D18*
X270574704Y-134199700D03*
X284497789Y-134075532D03*
%TD*%
D13*
%TO.C,SW2*%
X285752823Y-119882133D03*
D14*
X284133544Y-114438243D03*
D15*
X280750000Y-119000000D03*
D14*
X277438949Y-115836989D03*
D13*
X275747177Y-118117867D03*
D18*
X273824704Y-115199700D03*
X287747789Y-115075532D03*
%TD*%
D13*
%TO.C,SW30*%
X43002823Y-140367867D03*
D14*
X39619279Y-135806110D03*
D15*
X38000000Y-141250000D03*
D14*
X33806816Y-139410188D03*
D13*
X32997177Y-142132133D03*
D19*
X30192572Y-140047477D03*
X43233523Y-135168821D03*
%TD*%
D13*
%TO.C,SW4*%
X242580000Y-94000000D03*
D14*
X240040000Y-88920000D03*
D15*
X237500000Y-94000000D03*
D14*
X233690000Y-91460000D03*
D13*
X232420000Y-94000000D03*
D16*
X230020000Y-91460000D03*
X243710000Y-88920000D03*
%TD*%
D13*
%TO.C,SW19*%
X141080000Y-102500000D03*
D14*
X138540000Y-97420000D03*
D15*
X136000000Y-102500000D03*
D14*
X132190000Y-99960000D03*
D13*
X130920000Y-102500000D03*
D16*
X128520000Y-99960000D03*
X142210000Y-97420000D03*
%TD*%
D13*
%TO.C,SW36*%
X136526462Y-162369595D03*
D14*
X134907183Y-156925705D03*
D15*
X131523639Y-161487462D03*
D14*
X128212588Y-158324451D03*
D13*
X126520816Y-160605329D03*
D18*
X124598343Y-157687162D03*
X138521428Y-157562994D03*
%TD*%
D13*
%TO.C,SW35*%
X156523639Y-168737462D03*
D14*
X155874283Y-163095093D03*
D15*
X151750000Y-167000000D03*
D14*
X149038502Y-163310084D03*
D13*
X146976361Y-165262538D03*
D22*
X145589830Y-162054870D03*
X159322954Y-164350307D03*
%TD*%
D13*
%TO.C,SW32*%
X121830000Y-137750000D03*
D14*
X119290000Y-132670000D03*
D15*
X116750000Y-137750000D03*
D14*
X112940000Y-135210000D03*
D13*
X111670000Y-137750000D03*
D16*
X109270000Y-135210000D03*
X122960000Y-132670000D03*
%TD*%
D13*
%TO.C,SW21*%
X102580000Y-94000000D03*
D14*
X100040000Y-88920000D03*
D15*
X97500000Y-94000000D03*
D14*
X93690000Y-91460000D03*
D13*
X92420000Y-94000000D03*
D16*
X90020000Y-91460000D03*
X103710000Y-88920000D03*
%TD*%
D13*
%TO.C,SW12*%
X204080000Y-141000000D03*
D14*
X201540000Y-135920000D03*
D15*
X199000000Y-141000000D03*
D14*
X195190000Y-138460000D03*
D13*
X193920000Y-141000000D03*
D16*
X191520000Y-138460000D03*
X205210000Y-135920000D03*
%TD*%
D13*
%TO.C,SW25*%
X141080000Y-121750000D03*
D14*
X138540000Y-116670000D03*
D15*
X136000000Y-121750000D03*
D14*
X132190000Y-119210000D03*
D13*
X130920000Y-121750000D03*
D16*
X128520000Y-119210000D03*
X142210000Y-116670000D03*
%TD*%
D13*
%TO.C,SW10*%
X242580000Y-113250000D03*
D14*
X240040000Y-108170000D03*
D15*
X237500000Y-113250000D03*
D14*
X233690000Y-110710000D03*
D13*
X232420000Y-113250000D03*
D16*
X230020000Y-110710000D03*
X243710000Y-108170000D03*
%TD*%
D13*
%TO.C,SW5*%
X223330000Y-137750000D03*
D14*
X220790000Y-132670000D03*
D15*
X218250000Y-137750000D03*
D14*
X214440000Y-135210000D03*
D13*
X213170000Y-137750000D03*
D16*
X210770000Y-135210000D03*
X224460000Y-132670000D03*
%TD*%
D13*
%TO.C,SW34*%
X82573038Y-136234133D03*
D14*
X79770652Y-131294029D03*
D15*
X77500000Y-136500000D03*
D14*
X73562288Y-134162881D03*
D13*
X72426962Y-136765867D03*
D21*
X69897318Y-134354954D03*
X83435623Y-131101956D03*
%TD*%
D13*
%TO.C,SW33*%
X102580000Y-132500000D03*
D14*
X100040000Y-127420000D03*
D15*
X97500000Y-132500000D03*
D14*
X93690000Y-129960000D03*
D13*
X92420000Y-132500000D03*
D16*
X90020000Y-129960000D03*
X103710000Y-127420000D03*
%TD*%
D13*
%TO.C,SW29*%
X39616456Y-121367867D03*
D14*
X36232912Y-116806110D03*
D15*
X34613633Y-122250000D03*
D14*
X30420449Y-120410188D03*
D13*
X29610810Y-123132133D03*
D19*
X26806205Y-121047477D03*
X39847156Y-116168821D03*
%TD*%
D13*
%TO.C,SW11*%
X208752823Y-160617867D03*
D14*
X205369279Y-156056110D03*
D15*
X203750000Y-161500000D03*
D14*
X199556816Y-159660188D03*
D13*
X198747177Y-162382133D03*
D19*
X195942572Y-160297477D03*
X208983523Y-155418821D03*
%TD*%
D13*
%TO.C,SW13*%
X262323038Y-136765867D03*
D14*
X260052386Y-131559895D03*
D15*
X257250000Y-136500000D03*
D14*
X253578155Y-133764081D03*
D13*
X252176962Y-136234133D03*
D17*
X249913184Y-133572008D03*
X263717356Y-131751968D03*
%TD*%
D13*
%TO.C,SW17*%
X223330000Y-99250000D03*
D14*
X220790000Y-94170000D03*
D15*
X218250000Y-99250000D03*
D14*
X214440000Y-96710000D03*
D13*
X213170000Y-99250000D03*
D16*
X210770000Y-96710000D03*
X224460000Y-94170000D03*
%TD*%
D13*
%TO.C,SW24*%
X62002823Y-137056110D03*
D14*
X58619279Y-132494353D03*
D15*
X57000000Y-137938243D03*
D14*
X52806816Y-136098431D03*
D13*
X51997177Y-138820376D03*
D19*
X49192572Y-136735720D03*
X62233523Y-131857064D03*
%TD*%
D13*
%TO.C,SW31*%
X141080000Y-141000000D03*
D14*
X138540000Y-135920000D03*
D15*
X136000000Y-141000000D03*
D14*
X132190000Y-138460000D03*
D13*
X130920000Y-141000000D03*
D16*
X128520000Y-138460000D03*
X142210000Y-135920000D03*
%TD*%
D13*
%TO.C,SW6*%
X204080000Y-121750000D03*
D14*
X201540000Y-116670000D03*
D15*
X199000000Y-121750000D03*
D14*
X195190000Y-119210000D03*
D13*
X193920000Y-121750000D03*
D16*
X191520000Y-119210000D03*
X205210000Y-116670000D03*
%TD*%
D13*
%TO.C,SW8*%
X304752823Y-123132133D03*
D14*
X303133544Y-117688243D03*
D15*
X299750000Y-122250000D03*
D14*
X296438949Y-119086989D03*
D13*
X294747177Y-121367867D03*
D18*
X292824704Y-118449700D03*
X306747789Y-118325532D03*
%TD*%
M02*
