M48
; DRILL file {KiCad 9.0.6-1.fc42} date 2026-01-04T08:39:35+1100
; FORMAT={-:-/ absolute / metric / decimal}
; #@! TF.CreationDate,2026-01-04T08:39:35+11:00
; #@! TF.GenerationSoftware,Kicad,Pcbnew,9.0.6-1.fc42
; #@! TF.FileFunction,NonPlated,1,2,NPTH
FMAT,2
METRIC
; #@! TA.AperFunction,NonPlated,NPTH,ComponentDrill
T1C1.400
; #@! TA.AperFunction,NonPlated,NPTH,ComponentDrill
T2C1.700
; #@! TA.AperFunction,NonPlated,NPTH,ComponentDrill
T3C3.000
; #@! TA.AperFunction,NonPlated,NPTH,ComponentDrill
T4C4.000
%
G90
G05
T1
X154.5Y-118.5
X180.85Y-118.55
T2
X29.611Y-123.132
X32.997Y-142.132
X39.616Y-121.368
X43.003Y-140.368
X48.611Y-119.82
X51.997Y-138.82
X58.616Y-118.056
X62.003Y-137.056
X70.427Y-98.266
X71.427Y-117.516
X72.427Y-136.766
X80.573Y-97.734
X81.573Y-116.984
X82.573Y-136.234
X92.42Y-94.0
X92.42Y-113.25
X92.42Y-132.5
X102.58Y-94.0
X102.58Y-113.25
X102.58Y-132.5
X111.67Y-99.25
X111.67Y-118.5
X111.67Y-137.75
X121.83Y-99.25
X121.83Y-118.5
X121.83Y-137.75
X126.521Y-160.605
X130.92Y-102.5
X130.92Y-121.75
X130.92Y-141.0
X136.526Y-162.37
X141.08Y-102.5
X141.08Y-121.75
X141.08Y-141.0
X146.976Y-165.263
X156.524Y-168.737
X178.726Y-168.737
X188.274Y-165.263
X193.92Y-102.5
X193.92Y-121.75
X193.92Y-141.0
X198.747Y-162.382
X204.08Y-102.5
X204.08Y-121.75
X204.08Y-141.0
X208.753Y-160.618
X213.17Y-99.25
X213.17Y-118.5
X213.17Y-137.75
X223.33Y-99.25
X223.33Y-118.5
X223.33Y-137.75
X232.42Y-94.0
X232.42Y-113.25
X232.42Y-132.5
X242.58Y-94.0
X242.58Y-113.25
X242.58Y-132.5
X252.177Y-136.234
X253.177Y-116.984
X254.177Y-97.734
X262.323Y-136.766
X263.323Y-117.516
X264.323Y-98.266
X272.497Y-137.118
X275.747Y-118.118
X282.503Y-138.882
X285.753Y-119.882
X291.497Y-140.368
X294.747Y-121.368
X301.503Y-142.132
X304.753Y-123.132
T3
X30.42Y-120.41
X33.807Y-139.41
X36.233Y-116.806
X39.619Y-135.806
X49.42Y-117.098
X52.807Y-136.098
X55.233Y-113.494
X58.619Y-132.494
X71.562Y-95.663
X72.562Y-114.913
X73.562Y-134.163
X77.771Y-92.794
X78.771Y-112.044
X79.771Y-131.294
X93.69Y-91.46
X93.69Y-110.71
X93.69Y-129.96
X100.04Y-88.92
X100.04Y-108.17
X100.04Y-127.42
X112.94Y-96.71
X112.94Y-115.96
X112.94Y-135.21
X119.29Y-94.17
X119.29Y-113.42
X119.29Y-132.67
X128.213Y-158.324
X132.19Y-99.96
X132.19Y-119.21
X132.19Y-138.46
X134.907Y-156.926
X138.54Y-97.42
X138.54Y-116.67
X138.54Y-135.92
X149.039Y-163.31
X155.874Y-163.095
X179.051Y-165.916
X184.149Y-161.358
X195.19Y-99.96
X195.19Y-119.21
X195.19Y-138.46
X199.557Y-159.66
X201.54Y-97.42
X201.54Y-116.67
X201.54Y-135.92
X205.369Y-156.056
X214.44Y-96.71
X214.44Y-115.96
X214.44Y-135.21
X220.79Y-94.17
X220.79Y-113.42
X220.79Y-132.67
X233.69Y-91.46
X233.69Y-110.71
X233.69Y-129.96
X240.04Y-88.92
X240.04Y-108.17
X240.04Y-127.42
X253.578Y-133.764
X254.578Y-114.514
X255.578Y-95.264
X260.052Y-131.56
X261.052Y-112.31
X262.052Y-93.06
X274.189Y-134.837
X277.439Y-115.837
X280.884Y-133.438
X284.134Y-114.438
X293.189Y-138.087
X296.439Y-119.087
X299.884Y-136.688
X303.134Y-117.688
T4
X34.614Y-122.25
X38.0Y-141.25
X53.614Y-118.938
X57.0Y-137.938
X75.5Y-98.0
X76.5Y-117.25
X77.5Y-136.5
X97.5Y-94.0
X97.5Y-113.25
X97.5Y-132.5
X116.75Y-99.25
X116.75Y-118.5
X116.75Y-137.75
X131.524Y-161.487
X136.0Y-102.5
X136.0Y-121.75
X136.0Y-141.0
X151.75Y-167.0
X183.5Y-167.0
X199.0Y-102.5
X199.0Y-121.75
X199.0Y-141.0
X203.75Y-161.5
X218.25Y-99.25
X218.25Y-118.5
X218.25Y-137.75
X237.5Y-94.0
X237.5Y-113.25
X237.5Y-132.5
X257.25Y-136.5
X258.25Y-117.25
X259.25Y-98.0
X277.5Y-138.0
X280.75Y-119.0
X296.5Y-141.25
X299.75Y-122.25
M30
