%TF.GenerationSoftware,KiCad,Pcbnew,9.0.6-1.fc42*%
%TF.CreationDate,2026-01-04T08:40:16+11:00*%
%TF.ProjectId,keyboard-split-splay-5x3+2-pinky-cluster,6b657962-6f61-4726-942d-73706c69742d,rev?*%
%TF.SameCoordinates,Original*%
%TF.FileFunction,Paste,Top*%
%TF.FilePolarity,Positive*%
%FSLAX46Y46*%
G04 Gerber Fmt 4.6, Leading zero omitted, Abs format (unit mm)*
G04 Created by KiCad (PCBNEW 9.0.6-1.fc42) date 2026-01-04 08:40:16*
%MOMM*%
%LPD*%
G01*
G04 APERTURE LIST*
%ADD10R,0.590000X0.450000*%
G04 APERTURE END LIST*
D10*
%TO.C,D34*%
X148760000Y-141500000D03*
X147240000Y-141500000D03*
%TD*%
%TO.C,D27*%
X148770000Y-129500000D03*
X147250000Y-129500000D03*
%TD*%
%TO.C,D7*%
X186740000Y-145750000D03*
X188260000Y-145750000D03*
%TD*%
%TO.C,D20*%
X148760000Y-117500000D03*
X147240000Y-117500000D03*
%TD*%
%TO.C,D29*%
X148780000Y-133500000D03*
X147260000Y-133500000D03*
%TD*%
%TO.C,D9*%
X186750000Y-129750000D03*
X188270000Y-129750000D03*
%TD*%
%TO.C,D14*%
X186740000Y-139750000D03*
X188260000Y-139750000D03*
%TD*%
%TO.C,D11*%
X186730000Y-149750000D03*
X188250000Y-149750000D03*
%TD*%
%TO.C,D5*%
X186740000Y-137750000D03*
X188260000Y-137750000D03*
%TD*%
%TO.C,D13*%
X186740000Y-141750000D03*
X188260000Y-141750000D03*
%TD*%
%TO.C,D1*%
X186740000Y-143750000D03*
X188260000Y-143750000D03*
%TD*%
%TO.C,D2*%
X186740000Y-131750000D03*
X188260000Y-131750000D03*
%TD*%
%TO.C,D26*%
X148770000Y-127500000D03*
X147250000Y-127500000D03*
%TD*%
%TO.C,D12*%
X186730000Y-135750000D03*
X188250000Y-135750000D03*
%TD*%
%TO.C,D30*%
X148760000Y-145500000D03*
X147240000Y-145500000D03*
%TD*%
%TO.C,D32*%
X148760000Y-137500000D03*
X147240000Y-137500000D03*
%TD*%
%TO.C,D21*%
X148760000Y-119500000D03*
X147240000Y-119500000D03*
%TD*%
%TO.C,D25*%
X148780000Y-125500000D03*
X147260000Y-125500000D03*
%TD*%
%TO.C,D22*%
X148760000Y-121500000D03*
X147240000Y-121500000D03*
%TD*%
%TO.C,D36*%
X148760000Y-147500000D03*
X147240000Y-147500000D03*
%TD*%
%TO.C,D28*%
X148780000Y-131500000D03*
X147260000Y-131500000D03*
%TD*%
%TO.C,D4*%
X186740000Y-119750000D03*
X188260000Y-119750000D03*
%TD*%
%TO.C,D24*%
X148760000Y-143500000D03*
X147240000Y-143500000D03*
%TD*%
%TO.C,D33*%
X148760000Y-139500000D03*
X147240000Y-139500000D03*
%TD*%
%TO.C,D6*%
X186740000Y-123750000D03*
X188260000Y-123750000D03*
%TD*%
%TO.C,D19*%
X148760000Y-115500000D03*
X147240000Y-115500000D03*
%TD*%
%TO.C,D35*%
X148760000Y-149500000D03*
X147240000Y-149500000D03*
%TD*%
%TO.C,D23*%
X148760000Y-123500000D03*
X147240000Y-123500000D03*
%TD*%
%TO.C,D31*%
X148760000Y-135500000D03*
X147240000Y-135500000D03*
%TD*%
%TO.C,D3*%
X186740000Y-121750000D03*
X188260000Y-121750000D03*
%TD*%
%TO.C,D15*%
X186740000Y-125750000D03*
X188260000Y-125750000D03*
%TD*%
%TO.C,D16*%
X186730000Y-147750000D03*
X188250000Y-147750000D03*
%TD*%
%TO.C,D10*%
X186740000Y-127750000D03*
X188260000Y-127750000D03*
%TD*%
%TO.C,D18*%
X186740000Y-115750000D03*
X188260000Y-115750000D03*
%TD*%
%TO.C,D8*%
X186750000Y-133750000D03*
X188270000Y-133750000D03*
%TD*%
%TO.C,D17*%
X186750000Y-117750000D03*
X188270000Y-117750000D03*
%TD*%
M02*
