%TF.GenerationSoftware,KiCad,Pcbnew,9.0.6-1.fc42*%
%TF.CreationDate,2026-01-04T08:40:16+11:00*%
%TF.ProjectId,keyboard-split-splay-5x3+2-pinky-cluster,6b657962-6f61-4726-942d-73706c69742d,rev?*%
%TF.SameCoordinates,Original*%
%TF.FileFunction,Legend,Top*%
%TF.FilePolarity,Positive*%
%FSLAX46Y46*%
G04 Gerber Fmt 4.6, Leading zero omitted, Abs format (unit mm)*
G04 Created by KiCad (PCBNEW 9.0.6-1.fc42) date 2026-01-04 08:40:16*
%MOMM*%
%LPD*%
G01*
G04 APERTURE LIST*
G04 Aperture macros list*
%AMRoundRect*
0 Rectangle with rounded corners*
0 $1 Rounding radius*
0 $2 $3 $4 $5 $6 $7 $8 $9 X,Y pos of 4 corners*
0 Add a 4 corners polygon primitive as box body*
4,1,4,$2,$3,$4,$5,$6,$7,$8,$9,$2,$3,0*
0 Add four circle primitives for the rounded corners*
1,1,$1+$1,$2,$3*
1,1,$1+$1,$4,$5*
1,1,$1+$1,$6,$7*
1,1,$1+$1,$8,$9*
0 Add four rect primitives between the rounded corners*
20,1,$1+$1,$2,$3,$4,$5,0*
20,1,$1+$1,$4,$5,$6,$7,0*
20,1,$1+$1,$6,$7,$8,$9,0*
20,1,$1+$1,$8,$9,$2,$3,0*%
%AMFreePoly0*
4,1,23,0.500000,-0.750000,0.000000,-0.750000,0.000000,-0.745722,-0.065263,-0.745722,-0.191342,-0.711940,-0.304381,-0.646677,-0.396677,-0.554381,-0.461940,-0.441342,-0.495722,-0.315263,-0.495722,-0.250000,-0.500000,-0.250000,-0.500000,0.250000,-0.495722,0.250000,-0.495722,0.315263,-0.461940,0.441342,-0.396677,0.554381,-0.304381,0.646677,-0.191342,0.711940,-0.065263,0.745722,0.000000,0.745722,
0.000000,0.750000,0.500000,0.750000,0.500000,-0.750000,0.500000,-0.750000,$1*%
%AMFreePoly1*
4,1,23,0.000000,0.745722,0.065263,0.745722,0.191342,0.711940,0.304381,0.646677,0.396677,0.554381,0.461940,0.441342,0.495722,0.315263,0.495722,0.250000,0.500000,0.250000,0.500000,-0.250000,0.495722,-0.250000,0.495722,-0.315263,0.461940,-0.441342,0.396677,-0.554381,0.304381,-0.646677,0.191342,-0.711940,0.065263,-0.745722,0.000000,-0.745722,0.000000,-0.750000,-0.500000,-0.750000,
-0.500000,0.750000,0.000000,0.750000,0.000000,0.745722,0.000000,0.745722,$1*%
G04 Aperture macros list end*
%ADD10C,0.100000*%
%ADD11C,0.150000*%
%ADD12C,0.101600*%
%ADD13C,0.200000*%
%ADD14C,0.300000*%
%ADD15C,0.120000*%
%ADD16C,0.127000*%
%ADD17C,0.504000*%
%ADD18R,0.590000X0.450000*%
%ADD19FreePoly0,0.000000*%
%ADD20FreePoly1,0.000000*%
%ADD21C,1.400000*%
%ADD22O,1.800000X0.900000*%
%ADD23RoundRect,0.152400X1.063600X0.609600X-1.063600X0.609600X-1.063600X-0.609600X1.063600X-0.609600X0*%
%ADD24C,1.524000*%
%ADD25RoundRect,0.152400X-1.063600X-0.609600X1.063600X-0.609600X1.063600X0.609600X-1.063600X0.609600X0*%
%ADD26C,1.700000*%
%ADD27C,3.000000*%
%ADD28C,4.000000*%
G04 APERTURE END LIST*
D10*
X150025714Y-141957419D02*
X150025714Y-140957419D01*
X150025714Y-140957419D02*
X150263809Y-140957419D01*
X150263809Y-140957419D02*
X150406666Y-141005038D01*
X150406666Y-141005038D02*
X150501904Y-141100276D01*
X150501904Y-141100276D02*
X150549523Y-141195514D01*
X150549523Y-141195514D02*
X150597142Y-141385990D01*
X150597142Y-141385990D02*
X150597142Y-141528847D01*
X150597142Y-141528847D02*
X150549523Y-141719323D01*
X150549523Y-141719323D02*
X150501904Y-141814561D01*
X150501904Y-141814561D02*
X150406666Y-141909800D01*
X150406666Y-141909800D02*
X150263809Y-141957419D01*
X150263809Y-141957419D02*
X150025714Y-141957419D01*
X150930476Y-140957419D02*
X151549523Y-140957419D01*
X151549523Y-140957419D02*
X151216190Y-141338371D01*
X151216190Y-141338371D02*
X151359047Y-141338371D01*
X151359047Y-141338371D02*
X151454285Y-141385990D01*
X151454285Y-141385990D02*
X151501904Y-141433609D01*
X151501904Y-141433609D02*
X151549523Y-141528847D01*
X151549523Y-141528847D02*
X151549523Y-141766942D01*
X151549523Y-141766942D02*
X151501904Y-141862180D01*
X151501904Y-141862180D02*
X151454285Y-141909800D01*
X151454285Y-141909800D02*
X151359047Y-141957419D01*
X151359047Y-141957419D02*
X151073333Y-141957419D01*
X151073333Y-141957419D02*
X150978095Y-141909800D01*
X150978095Y-141909800D02*
X150930476Y-141862180D01*
X152406666Y-141290752D02*
X152406666Y-141957419D01*
X152168571Y-140909800D02*
X151930476Y-141624085D01*
X151930476Y-141624085D02*
X152549523Y-141624085D01*
X150035714Y-129957419D02*
X150035714Y-128957419D01*
X150035714Y-128957419D02*
X150273809Y-128957419D01*
X150273809Y-128957419D02*
X150416666Y-129005038D01*
X150416666Y-129005038D02*
X150511904Y-129100276D01*
X150511904Y-129100276D02*
X150559523Y-129195514D01*
X150559523Y-129195514D02*
X150607142Y-129385990D01*
X150607142Y-129385990D02*
X150607142Y-129528847D01*
X150607142Y-129528847D02*
X150559523Y-129719323D01*
X150559523Y-129719323D02*
X150511904Y-129814561D01*
X150511904Y-129814561D02*
X150416666Y-129909800D01*
X150416666Y-129909800D02*
X150273809Y-129957419D01*
X150273809Y-129957419D02*
X150035714Y-129957419D01*
X150988095Y-129052657D02*
X151035714Y-129005038D01*
X151035714Y-129005038D02*
X151130952Y-128957419D01*
X151130952Y-128957419D02*
X151369047Y-128957419D01*
X151369047Y-128957419D02*
X151464285Y-129005038D01*
X151464285Y-129005038D02*
X151511904Y-129052657D01*
X151511904Y-129052657D02*
X151559523Y-129147895D01*
X151559523Y-129147895D02*
X151559523Y-129243133D01*
X151559523Y-129243133D02*
X151511904Y-129385990D01*
X151511904Y-129385990D02*
X150940476Y-129957419D01*
X150940476Y-129957419D02*
X151559523Y-129957419D01*
X151892857Y-128957419D02*
X152559523Y-128957419D01*
X152559523Y-128957419D02*
X152130952Y-129957419D01*
X183511905Y-146007419D02*
X183511905Y-145007419D01*
X183511905Y-145007419D02*
X183750000Y-145007419D01*
X183750000Y-145007419D02*
X183892857Y-145055038D01*
X183892857Y-145055038D02*
X183988095Y-145150276D01*
X183988095Y-145150276D02*
X184035714Y-145245514D01*
X184035714Y-145245514D02*
X184083333Y-145435990D01*
X184083333Y-145435990D02*
X184083333Y-145578847D01*
X184083333Y-145578847D02*
X184035714Y-145769323D01*
X184035714Y-145769323D02*
X183988095Y-145864561D01*
X183988095Y-145864561D02*
X183892857Y-145959800D01*
X183892857Y-145959800D02*
X183750000Y-146007419D01*
X183750000Y-146007419D02*
X183511905Y-146007419D01*
X184416667Y-145007419D02*
X185083333Y-145007419D01*
X185083333Y-145007419D02*
X184654762Y-146007419D01*
X150025714Y-117957419D02*
X150025714Y-116957419D01*
X150025714Y-116957419D02*
X150263809Y-116957419D01*
X150263809Y-116957419D02*
X150406666Y-117005038D01*
X150406666Y-117005038D02*
X150501904Y-117100276D01*
X150501904Y-117100276D02*
X150549523Y-117195514D01*
X150549523Y-117195514D02*
X150597142Y-117385990D01*
X150597142Y-117385990D02*
X150597142Y-117528847D01*
X150597142Y-117528847D02*
X150549523Y-117719323D01*
X150549523Y-117719323D02*
X150501904Y-117814561D01*
X150501904Y-117814561D02*
X150406666Y-117909800D01*
X150406666Y-117909800D02*
X150263809Y-117957419D01*
X150263809Y-117957419D02*
X150025714Y-117957419D01*
X150978095Y-117052657D02*
X151025714Y-117005038D01*
X151025714Y-117005038D02*
X151120952Y-116957419D01*
X151120952Y-116957419D02*
X151359047Y-116957419D01*
X151359047Y-116957419D02*
X151454285Y-117005038D01*
X151454285Y-117005038D02*
X151501904Y-117052657D01*
X151501904Y-117052657D02*
X151549523Y-117147895D01*
X151549523Y-117147895D02*
X151549523Y-117243133D01*
X151549523Y-117243133D02*
X151501904Y-117385990D01*
X151501904Y-117385990D02*
X150930476Y-117957419D01*
X150930476Y-117957419D02*
X151549523Y-117957419D01*
X152168571Y-116957419D02*
X152263809Y-116957419D01*
X152263809Y-116957419D02*
X152359047Y-117005038D01*
X152359047Y-117005038D02*
X152406666Y-117052657D01*
X152406666Y-117052657D02*
X152454285Y-117147895D01*
X152454285Y-117147895D02*
X152501904Y-117338371D01*
X152501904Y-117338371D02*
X152501904Y-117576466D01*
X152501904Y-117576466D02*
X152454285Y-117766942D01*
X152454285Y-117766942D02*
X152406666Y-117862180D01*
X152406666Y-117862180D02*
X152359047Y-117909800D01*
X152359047Y-117909800D02*
X152263809Y-117957419D01*
X152263809Y-117957419D02*
X152168571Y-117957419D01*
X152168571Y-117957419D02*
X152073333Y-117909800D01*
X152073333Y-117909800D02*
X152025714Y-117862180D01*
X152025714Y-117862180D02*
X151978095Y-117766942D01*
X151978095Y-117766942D02*
X151930476Y-117576466D01*
X151930476Y-117576466D02*
X151930476Y-117338371D01*
X151930476Y-117338371D02*
X151978095Y-117147895D01*
X151978095Y-117147895D02*
X152025714Y-117052657D01*
X152025714Y-117052657D02*
X152073333Y-117005038D01*
X152073333Y-117005038D02*
X152168571Y-116957419D01*
X150045714Y-133957419D02*
X150045714Y-132957419D01*
X150045714Y-132957419D02*
X150283809Y-132957419D01*
X150283809Y-132957419D02*
X150426666Y-133005038D01*
X150426666Y-133005038D02*
X150521904Y-133100276D01*
X150521904Y-133100276D02*
X150569523Y-133195514D01*
X150569523Y-133195514D02*
X150617142Y-133385990D01*
X150617142Y-133385990D02*
X150617142Y-133528847D01*
X150617142Y-133528847D02*
X150569523Y-133719323D01*
X150569523Y-133719323D02*
X150521904Y-133814561D01*
X150521904Y-133814561D02*
X150426666Y-133909800D01*
X150426666Y-133909800D02*
X150283809Y-133957419D01*
X150283809Y-133957419D02*
X150045714Y-133957419D01*
X150998095Y-133052657D02*
X151045714Y-133005038D01*
X151045714Y-133005038D02*
X151140952Y-132957419D01*
X151140952Y-132957419D02*
X151379047Y-132957419D01*
X151379047Y-132957419D02*
X151474285Y-133005038D01*
X151474285Y-133005038D02*
X151521904Y-133052657D01*
X151521904Y-133052657D02*
X151569523Y-133147895D01*
X151569523Y-133147895D02*
X151569523Y-133243133D01*
X151569523Y-133243133D02*
X151521904Y-133385990D01*
X151521904Y-133385990D02*
X150950476Y-133957419D01*
X150950476Y-133957419D02*
X151569523Y-133957419D01*
X152045714Y-133957419D02*
X152236190Y-133957419D01*
X152236190Y-133957419D02*
X152331428Y-133909800D01*
X152331428Y-133909800D02*
X152379047Y-133862180D01*
X152379047Y-133862180D02*
X152474285Y-133719323D01*
X152474285Y-133719323D02*
X152521904Y-133528847D01*
X152521904Y-133528847D02*
X152521904Y-133147895D01*
X152521904Y-133147895D02*
X152474285Y-133052657D01*
X152474285Y-133052657D02*
X152426666Y-133005038D01*
X152426666Y-133005038D02*
X152331428Y-132957419D01*
X152331428Y-132957419D02*
X152140952Y-132957419D01*
X152140952Y-132957419D02*
X152045714Y-133005038D01*
X152045714Y-133005038D02*
X151998095Y-133052657D01*
X151998095Y-133052657D02*
X151950476Y-133147895D01*
X151950476Y-133147895D02*
X151950476Y-133385990D01*
X151950476Y-133385990D02*
X151998095Y-133481228D01*
X151998095Y-133481228D02*
X152045714Y-133528847D01*
X152045714Y-133528847D02*
X152140952Y-133576466D01*
X152140952Y-133576466D02*
X152331428Y-133576466D01*
X152331428Y-133576466D02*
X152426666Y-133528847D01*
X152426666Y-133528847D02*
X152474285Y-133481228D01*
X152474285Y-133481228D02*
X152521904Y-133385990D01*
D11*
X158166666Y-131204819D02*
X158166666Y-131919104D01*
X158166666Y-131919104D02*
X158119047Y-132061961D01*
X158119047Y-132061961D02*
X158023809Y-132157200D01*
X158023809Y-132157200D02*
X157880952Y-132204819D01*
X157880952Y-132204819D02*
X157785714Y-132204819D01*
X158642857Y-132204819D02*
X158642857Y-131204819D01*
X158642857Y-131204819D02*
X159023809Y-131204819D01*
X159023809Y-131204819D02*
X159119047Y-131252438D01*
X159119047Y-131252438D02*
X159166666Y-131300057D01*
X159166666Y-131300057D02*
X159214285Y-131395295D01*
X159214285Y-131395295D02*
X159214285Y-131538152D01*
X159214285Y-131538152D02*
X159166666Y-131633390D01*
X159166666Y-131633390D02*
X159119047Y-131681009D01*
X159119047Y-131681009D02*
X159023809Y-131728628D01*
X159023809Y-131728628D02*
X158642857Y-131728628D01*
X160071428Y-131538152D02*
X160071428Y-132204819D01*
X159833333Y-131157200D02*
X159595238Y-131871485D01*
X159595238Y-131871485D02*
X160214285Y-131871485D01*
D10*
X183531905Y-129907419D02*
X183531905Y-128907419D01*
X183531905Y-128907419D02*
X183770000Y-128907419D01*
X183770000Y-128907419D02*
X183912857Y-128955038D01*
X183912857Y-128955038D02*
X184008095Y-129050276D01*
X184008095Y-129050276D02*
X184055714Y-129145514D01*
X184055714Y-129145514D02*
X184103333Y-129335990D01*
X184103333Y-129335990D02*
X184103333Y-129478847D01*
X184103333Y-129478847D02*
X184055714Y-129669323D01*
X184055714Y-129669323D02*
X184008095Y-129764561D01*
X184008095Y-129764561D02*
X183912857Y-129859800D01*
X183912857Y-129859800D02*
X183770000Y-129907419D01*
X183770000Y-129907419D02*
X183531905Y-129907419D01*
X184579524Y-129907419D02*
X184770000Y-129907419D01*
X184770000Y-129907419D02*
X184865238Y-129859800D01*
X184865238Y-129859800D02*
X184912857Y-129812180D01*
X184912857Y-129812180D02*
X185008095Y-129669323D01*
X185008095Y-129669323D02*
X185055714Y-129478847D01*
X185055714Y-129478847D02*
X185055714Y-129097895D01*
X185055714Y-129097895D02*
X185008095Y-129002657D01*
X185008095Y-129002657D02*
X184960476Y-128955038D01*
X184960476Y-128955038D02*
X184865238Y-128907419D01*
X184865238Y-128907419D02*
X184674762Y-128907419D01*
X184674762Y-128907419D02*
X184579524Y-128955038D01*
X184579524Y-128955038D02*
X184531905Y-129002657D01*
X184531905Y-129002657D02*
X184484286Y-129097895D01*
X184484286Y-129097895D02*
X184484286Y-129335990D01*
X184484286Y-129335990D02*
X184531905Y-129431228D01*
X184531905Y-129431228D02*
X184579524Y-129478847D01*
X184579524Y-129478847D02*
X184674762Y-129526466D01*
X184674762Y-129526466D02*
X184865238Y-129526466D01*
X184865238Y-129526466D02*
X184960476Y-129478847D01*
X184960476Y-129478847D02*
X185008095Y-129431228D01*
X185008095Y-129431228D02*
X185055714Y-129335990D01*
X183045714Y-140057419D02*
X183045714Y-139057419D01*
X183045714Y-139057419D02*
X183283809Y-139057419D01*
X183283809Y-139057419D02*
X183426666Y-139105038D01*
X183426666Y-139105038D02*
X183521904Y-139200276D01*
X183521904Y-139200276D02*
X183569523Y-139295514D01*
X183569523Y-139295514D02*
X183617142Y-139485990D01*
X183617142Y-139485990D02*
X183617142Y-139628847D01*
X183617142Y-139628847D02*
X183569523Y-139819323D01*
X183569523Y-139819323D02*
X183521904Y-139914561D01*
X183521904Y-139914561D02*
X183426666Y-140009800D01*
X183426666Y-140009800D02*
X183283809Y-140057419D01*
X183283809Y-140057419D02*
X183045714Y-140057419D01*
X184569523Y-140057419D02*
X183998095Y-140057419D01*
X184283809Y-140057419D02*
X184283809Y-139057419D01*
X184283809Y-139057419D02*
X184188571Y-139200276D01*
X184188571Y-139200276D02*
X184093333Y-139295514D01*
X184093333Y-139295514D02*
X183998095Y-139343133D01*
X185426666Y-139390752D02*
X185426666Y-140057419D01*
X185188571Y-139009800D02*
X184950476Y-139724085D01*
X184950476Y-139724085D02*
X185569523Y-139724085D01*
D11*
X158316666Y-128704819D02*
X158316666Y-129419104D01*
X158316666Y-129419104D02*
X158269047Y-129561961D01*
X158269047Y-129561961D02*
X158173809Y-129657200D01*
X158173809Y-129657200D02*
X158030952Y-129704819D01*
X158030952Y-129704819D02*
X157935714Y-129704819D01*
X158792857Y-129704819D02*
X158792857Y-128704819D01*
X158792857Y-128704819D02*
X159173809Y-128704819D01*
X159173809Y-128704819D02*
X159269047Y-128752438D01*
X159269047Y-128752438D02*
X159316666Y-128800057D01*
X159316666Y-128800057D02*
X159364285Y-128895295D01*
X159364285Y-128895295D02*
X159364285Y-129038152D01*
X159364285Y-129038152D02*
X159316666Y-129133390D01*
X159316666Y-129133390D02*
X159269047Y-129181009D01*
X159269047Y-129181009D02*
X159173809Y-129228628D01*
X159173809Y-129228628D02*
X158792857Y-129228628D01*
X160316666Y-129704819D02*
X159745238Y-129704819D01*
X160030952Y-129704819D02*
X160030952Y-128704819D01*
X160030952Y-128704819D02*
X159935714Y-128847676D01*
X159935714Y-128847676D02*
X159840476Y-128942914D01*
X159840476Y-128942914D02*
X159745238Y-128990533D01*
D10*
X183025714Y-149957419D02*
X183025714Y-148957419D01*
X183025714Y-148957419D02*
X183263809Y-148957419D01*
X183263809Y-148957419D02*
X183406666Y-149005038D01*
X183406666Y-149005038D02*
X183501904Y-149100276D01*
X183501904Y-149100276D02*
X183549523Y-149195514D01*
X183549523Y-149195514D02*
X183597142Y-149385990D01*
X183597142Y-149385990D02*
X183597142Y-149528847D01*
X183597142Y-149528847D02*
X183549523Y-149719323D01*
X183549523Y-149719323D02*
X183501904Y-149814561D01*
X183501904Y-149814561D02*
X183406666Y-149909800D01*
X183406666Y-149909800D02*
X183263809Y-149957419D01*
X183263809Y-149957419D02*
X183025714Y-149957419D01*
X184549523Y-149957419D02*
X183978095Y-149957419D01*
X184263809Y-149957419D02*
X184263809Y-148957419D01*
X184263809Y-148957419D02*
X184168571Y-149100276D01*
X184168571Y-149100276D02*
X184073333Y-149195514D01*
X184073333Y-149195514D02*
X183978095Y-149243133D01*
X185501904Y-149957419D02*
X184930476Y-149957419D01*
X185216190Y-149957419D02*
X185216190Y-148957419D01*
X185216190Y-148957419D02*
X185120952Y-149100276D01*
X185120952Y-149100276D02*
X185025714Y-149195514D01*
X185025714Y-149195514D02*
X184930476Y-149243133D01*
D11*
X158066666Y-123754819D02*
X158066666Y-124469104D01*
X158066666Y-124469104D02*
X158019047Y-124611961D01*
X158019047Y-124611961D02*
X157923809Y-124707200D01*
X157923809Y-124707200D02*
X157780952Y-124754819D01*
X157780952Y-124754819D02*
X157685714Y-124754819D01*
X158542857Y-124754819D02*
X158542857Y-123754819D01*
X158542857Y-123754819D02*
X158923809Y-123754819D01*
X158923809Y-123754819D02*
X159019047Y-123802438D01*
X159019047Y-123802438D02*
X159066666Y-123850057D01*
X159066666Y-123850057D02*
X159114285Y-123945295D01*
X159114285Y-123945295D02*
X159114285Y-124088152D01*
X159114285Y-124088152D02*
X159066666Y-124183390D01*
X159066666Y-124183390D02*
X159019047Y-124231009D01*
X159019047Y-124231009D02*
X158923809Y-124278628D01*
X158923809Y-124278628D02*
X158542857Y-124278628D01*
X159447619Y-123754819D02*
X160066666Y-123754819D01*
X160066666Y-123754819D02*
X159733333Y-124135771D01*
X159733333Y-124135771D02*
X159876190Y-124135771D01*
X159876190Y-124135771D02*
X159971428Y-124183390D01*
X159971428Y-124183390D02*
X160019047Y-124231009D01*
X160019047Y-124231009D02*
X160066666Y-124326247D01*
X160066666Y-124326247D02*
X160066666Y-124564342D01*
X160066666Y-124564342D02*
X160019047Y-124659580D01*
X160019047Y-124659580D02*
X159971428Y-124707200D01*
X159971428Y-124707200D02*
X159876190Y-124754819D01*
X159876190Y-124754819D02*
X159590476Y-124754819D01*
X159590476Y-124754819D02*
X159495238Y-124707200D01*
X159495238Y-124707200D02*
X159447619Y-124659580D01*
D10*
X176141666Y-117982419D02*
X176141666Y-118696704D01*
X176141666Y-118696704D02*
X176094047Y-118839561D01*
X176094047Y-118839561D02*
X175998809Y-118934800D01*
X175998809Y-118934800D02*
X175855952Y-118982419D01*
X175855952Y-118982419D02*
X175760714Y-118982419D01*
X177141666Y-118982419D02*
X176570238Y-118982419D01*
X176855952Y-118982419D02*
X176855952Y-117982419D01*
X176855952Y-117982419D02*
X176760714Y-118125276D01*
X176760714Y-118125276D02*
X176665476Y-118220514D01*
X176665476Y-118220514D02*
X176570238Y-118268133D01*
X183521905Y-137957419D02*
X183521905Y-136957419D01*
X183521905Y-136957419D02*
X183760000Y-136957419D01*
X183760000Y-136957419D02*
X183902857Y-137005038D01*
X183902857Y-137005038D02*
X183998095Y-137100276D01*
X183998095Y-137100276D02*
X184045714Y-137195514D01*
X184045714Y-137195514D02*
X184093333Y-137385990D01*
X184093333Y-137385990D02*
X184093333Y-137528847D01*
X184093333Y-137528847D02*
X184045714Y-137719323D01*
X184045714Y-137719323D02*
X183998095Y-137814561D01*
X183998095Y-137814561D02*
X183902857Y-137909800D01*
X183902857Y-137909800D02*
X183760000Y-137957419D01*
X183760000Y-137957419D02*
X183521905Y-137957419D01*
X184998095Y-136957419D02*
X184521905Y-136957419D01*
X184521905Y-136957419D02*
X184474286Y-137433609D01*
X184474286Y-137433609D02*
X184521905Y-137385990D01*
X184521905Y-137385990D02*
X184617143Y-137338371D01*
X184617143Y-137338371D02*
X184855238Y-137338371D01*
X184855238Y-137338371D02*
X184950476Y-137385990D01*
X184950476Y-137385990D02*
X184998095Y-137433609D01*
X184998095Y-137433609D02*
X185045714Y-137528847D01*
X185045714Y-137528847D02*
X185045714Y-137766942D01*
X185045714Y-137766942D02*
X184998095Y-137862180D01*
X184998095Y-137862180D02*
X184950476Y-137909800D01*
X184950476Y-137909800D02*
X184855238Y-137957419D01*
X184855238Y-137957419D02*
X184617143Y-137957419D01*
X184617143Y-137957419D02*
X184521905Y-137909800D01*
X184521905Y-137909800D02*
X184474286Y-137862180D01*
X183035714Y-141957419D02*
X183035714Y-140957419D01*
X183035714Y-140957419D02*
X183273809Y-140957419D01*
X183273809Y-140957419D02*
X183416666Y-141005038D01*
X183416666Y-141005038D02*
X183511904Y-141100276D01*
X183511904Y-141100276D02*
X183559523Y-141195514D01*
X183559523Y-141195514D02*
X183607142Y-141385990D01*
X183607142Y-141385990D02*
X183607142Y-141528847D01*
X183607142Y-141528847D02*
X183559523Y-141719323D01*
X183559523Y-141719323D02*
X183511904Y-141814561D01*
X183511904Y-141814561D02*
X183416666Y-141909800D01*
X183416666Y-141909800D02*
X183273809Y-141957419D01*
X183273809Y-141957419D02*
X183035714Y-141957419D01*
X184559523Y-141957419D02*
X183988095Y-141957419D01*
X184273809Y-141957419D02*
X184273809Y-140957419D01*
X184273809Y-140957419D02*
X184178571Y-141100276D01*
X184178571Y-141100276D02*
X184083333Y-141195514D01*
X184083333Y-141195514D02*
X183988095Y-141243133D01*
X184892857Y-140957419D02*
X185511904Y-140957419D01*
X185511904Y-140957419D02*
X185178571Y-141338371D01*
X185178571Y-141338371D02*
X185321428Y-141338371D01*
X185321428Y-141338371D02*
X185416666Y-141385990D01*
X185416666Y-141385990D02*
X185464285Y-141433609D01*
X185464285Y-141433609D02*
X185511904Y-141528847D01*
X185511904Y-141528847D02*
X185511904Y-141766942D01*
X185511904Y-141766942D02*
X185464285Y-141862180D01*
X185464285Y-141862180D02*
X185416666Y-141909800D01*
X185416666Y-141909800D02*
X185321428Y-141957419D01*
X185321428Y-141957419D02*
X185035714Y-141957419D01*
X185035714Y-141957419D02*
X184940476Y-141909800D01*
X184940476Y-141909800D02*
X184892857Y-141862180D01*
X183511905Y-143957419D02*
X183511905Y-142957419D01*
X183511905Y-142957419D02*
X183750000Y-142957419D01*
X183750000Y-142957419D02*
X183892857Y-143005038D01*
X183892857Y-143005038D02*
X183988095Y-143100276D01*
X183988095Y-143100276D02*
X184035714Y-143195514D01*
X184035714Y-143195514D02*
X184083333Y-143385990D01*
X184083333Y-143385990D02*
X184083333Y-143528847D01*
X184083333Y-143528847D02*
X184035714Y-143719323D01*
X184035714Y-143719323D02*
X183988095Y-143814561D01*
X183988095Y-143814561D02*
X183892857Y-143909800D01*
X183892857Y-143909800D02*
X183750000Y-143957419D01*
X183750000Y-143957419D02*
X183511905Y-143957419D01*
X185035714Y-143957419D02*
X184464286Y-143957419D01*
X184750000Y-143957419D02*
X184750000Y-142957419D01*
X184750000Y-142957419D02*
X184654762Y-143100276D01*
X184654762Y-143100276D02*
X184559524Y-143195514D01*
X184559524Y-143195514D02*
X184464286Y-143243133D01*
X183511905Y-132107419D02*
X183511905Y-131107419D01*
X183511905Y-131107419D02*
X183750000Y-131107419D01*
X183750000Y-131107419D02*
X183892857Y-131155038D01*
X183892857Y-131155038D02*
X183988095Y-131250276D01*
X183988095Y-131250276D02*
X184035714Y-131345514D01*
X184035714Y-131345514D02*
X184083333Y-131535990D01*
X184083333Y-131535990D02*
X184083333Y-131678847D01*
X184083333Y-131678847D02*
X184035714Y-131869323D01*
X184035714Y-131869323D02*
X183988095Y-131964561D01*
X183988095Y-131964561D02*
X183892857Y-132059800D01*
X183892857Y-132059800D02*
X183750000Y-132107419D01*
X183750000Y-132107419D02*
X183511905Y-132107419D01*
X184464286Y-131202657D02*
X184511905Y-131155038D01*
X184511905Y-131155038D02*
X184607143Y-131107419D01*
X184607143Y-131107419D02*
X184845238Y-131107419D01*
X184845238Y-131107419D02*
X184940476Y-131155038D01*
X184940476Y-131155038D02*
X184988095Y-131202657D01*
X184988095Y-131202657D02*
X185035714Y-131297895D01*
X185035714Y-131297895D02*
X185035714Y-131393133D01*
X185035714Y-131393133D02*
X184988095Y-131535990D01*
X184988095Y-131535990D02*
X184416667Y-132107419D01*
X184416667Y-132107419D02*
X185035714Y-132107419D01*
X150035714Y-127957419D02*
X150035714Y-126957419D01*
X150035714Y-126957419D02*
X150273809Y-126957419D01*
X150273809Y-126957419D02*
X150416666Y-127005038D01*
X150416666Y-127005038D02*
X150511904Y-127100276D01*
X150511904Y-127100276D02*
X150559523Y-127195514D01*
X150559523Y-127195514D02*
X150607142Y-127385990D01*
X150607142Y-127385990D02*
X150607142Y-127528847D01*
X150607142Y-127528847D02*
X150559523Y-127719323D01*
X150559523Y-127719323D02*
X150511904Y-127814561D01*
X150511904Y-127814561D02*
X150416666Y-127909800D01*
X150416666Y-127909800D02*
X150273809Y-127957419D01*
X150273809Y-127957419D02*
X150035714Y-127957419D01*
X150988095Y-127052657D02*
X151035714Y-127005038D01*
X151035714Y-127005038D02*
X151130952Y-126957419D01*
X151130952Y-126957419D02*
X151369047Y-126957419D01*
X151369047Y-126957419D02*
X151464285Y-127005038D01*
X151464285Y-127005038D02*
X151511904Y-127052657D01*
X151511904Y-127052657D02*
X151559523Y-127147895D01*
X151559523Y-127147895D02*
X151559523Y-127243133D01*
X151559523Y-127243133D02*
X151511904Y-127385990D01*
X151511904Y-127385990D02*
X150940476Y-127957419D01*
X150940476Y-127957419D02*
X151559523Y-127957419D01*
X152416666Y-126957419D02*
X152226190Y-126957419D01*
X152226190Y-126957419D02*
X152130952Y-127005038D01*
X152130952Y-127005038D02*
X152083333Y-127052657D01*
X152083333Y-127052657D02*
X151988095Y-127195514D01*
X151988095Y-127195514D02*
X151940476Y-127385990D01*
X151940476Y-127385990D02*
X151940476Y-127766942D01*
X151940476Y-127766942D02*
X151988095Y-127862180D01*
X151988095Y-127862180D02*
X152035714Y-127909800D01*
X152035714Y-127909800D02*
X152130952Y-127957419D01*
X152130952Y-127957419D02*
X152321428Y-127957419D01*
X152321428Y-127957419D02*
X152416666Y-127909800D01*
X152416666Y-127909800D02*
X152464285Y-127862180D01*
X152464285Y-127862180D02*
X152511904Y-127766942D01*
X152511904Y-127766942D02*
X152511904Y-127528847D01*
X152511904Y-127528847D02*
X152464285Y-127433609D01*
X152464285Y-127433609D02*
X152416666Y-127385990D01*
X152416666Y-127385990D02*
X152321428Y-127338371D01*
X152321428Y-127338371D02*
X152130952Y-127338371D01*
X152130952Y-127338371D02*
X152035714Y-127385990D01*
X152035714Y-127385990D02*
X151988095Y-127433609D01*
X151988095Y-127433609D02*
X151940476Y-127528847D01*
X183035714Y-136007419D02*
X183035714Y-135007419D01*
X183035714Y-135007419D02*
X183273809Y-135007419D01*
X183273809Y-135007419D02*
X183416666Y-135055038D01*
X183416666Y-135055038D02*
X183511904Y-135150276D01*
X183511904Y-135150276D02*
X183559523Y-135245514D01*
X183559523Y-135245514D02*
X183607142Y-135435990D01*
X183607142Y-135435990D02*
X183607142Y-135578847D01*
X183607142Y-135578847D02*
X183559523Y-135769323D01*
X183559523Y-135769323D02*
X183511904Y-135864561D01*
X183511904Y-135864561D02*
X183416666Y-135959800D01*
X183416666Y-135959800D02*
X183273809Y-136007419D01*
X183273809Y-136007419D02*
X183035714Y-136007419D01*
X184559523Y-136007419D02*
X183988095Y-136007419D01*
X184273809Y-136007419D02*
X184273809Y-135007419D01*
X184273809Y-135007419D02*
X184178571Y-135150276D01*
X184178571Y-135150276D02*
X184083333Y-135245514D01*
X184083333Y-135245514D02*
X183988095Y-135293133D01*
X184940476Y-135102657D02*
X184988095Y-135055038D01*
X184988095Y-135055038D02*
X185083333Y-135007419D01*
X185083333Y-135007419D02*
X185321428Y-135007419D01*
X185321428Y-135007419D02*
X185416666Y-135055038D01*
X185416666Y-135055038D02*
X185464285Y-135102657D01*
X185464285Y-135102657D02*
X185511904Y-135197895D01*
X185511904Y-135197895D02*
X185511904Y-135293133D01*
X185511904Y-135293133D02*
X185464285Y-135435990D01*
X185464285Y-135435990D02*
X184892857Y-136007419D01*
X184892857Y-136007419D02*
X185511904Y-136007419D01*
X150025714Y-145957419D02*
X150025714Y-144957419D01*
X150025714Y-144957419D02*
X150263809Y-144957419D01*
X150263809Y-144957419D02*
X150406666Y-145005038D01*
X150406666Y-145005038D02*
X150501904Y-145100276D01*
X150501904Y-145100276D02*
X150549523Y-145195514D01*
X150549523Y-145195514D02*
X150597142Y-145385990D01*
X150597142Y-145385990D02*
X150597142Y-145528847D01*
X150597142Y-145528847D02*
X150549523Y-145719323D01*
X150549523Y-145719323D02*
X150501904Y-145814561D01*
X150501904Y-145814561D02*
X150406666Y-145909800D01*
X150406666Y-145909800D02*
X150263809Y-145957419D01*
X150263809Y-145957419D02*
X150025714Y-145957419D01*
X150930476Y-144957419D02*
X151549523Y-144957419D01*
X151549523Y-144957419D02*
X151216190Y-145338371D01*
X151216190Y-145338371D02*
X151359047Y-145338371D01*
X151359047Y-145338371D02*
X151454285Y-145385990D01*
X151454285Y-145385990D02*
X151501904Y-145433609D01*
X151501904Y-145433609D02*
X151549523Y-145528847D01*
X151549523Y-145528847D02*
X151549523Y-145766942D01*
X151549523Y-145766942D02*
X151501904Y-145862180D01*
X151501904Y-145862180D02*
X151454285Y-145909800D01*
X151454285Y-145909800D02*
X151359047Y-145957419D01*
X151359047Y-145957419D02*
X151073333Y-145957419D01*
X151073333Y-145957419D02*
X150978095Y-145909800D01*
X150978095Y-145909800D02*
X150930476Y-145862180D01*
X152168571Y-144957419D02*
X152263809Y-144957419D01*
X152263809Y-144957419D02*
X152359047Y-145005038D01*
X152359047Y-145005038D02*
X152406666Y-145052657D01*
X152406666Y-145052657D02*
X152454285Y-145147895D01*
X152454285Y-145147895D02*
X152501904Y-145338371D01*
X152501904Y-145338371D02*
X152501904Y-145576466D01*
X152501904Y-145576466D02*
X152454285Y-145766942D01*
X152454285Y-145766942D02*
X152406666Y-145862180D01*
X152406666Y-145862180D02*
X152359047Y-145909800D01*
X152359047Y-145909800D02*
X152263809Y-145957419D01*
X152263809Y-145957419D02*
X152168571Y-145957419D01*
X152168571Y-145957419D02*
X152073333Y-145909800D01*
X152073333Y-145909800D02*
X152025714Y-145862180D01*
X152025714Y-145862180D02*
X151978095Y-145766942D01*
X151978095Y-145766942D02*
X151930476Y-145576466D01*
X151930476Y-145576466D02*
X151930476Y-145338371D01*
X151930476Y-145338371D02*
X151978095Y-145147895D01*
X151978095Y-145147895D02*
X152025714Y-145052657D01*
X152025714Y-145052657D02*
X152073333Y-145005038D01*
X152073333Y-145005038D02*
X152168571Y-144957419D01*
X150025714Y-137957419D02*
X150025714Y-136957419D01*
X150025714Y-136957419D02*
X150263809Y-136957419D01*
X150263809Y-136957419D02*
X150406666Y-137005038D01*
X150406666Y-137005038D02*
X150501904Y-137100276D01*
X150501904Y-137100276D02*
X150549523Y-137195514D01*
X150549523Y-137195514D02*
X150597142Y-137385990D01*
X150597142Y-137385990D02*
X150597142Y-137528847D01*
X150597142Y-137528847D02*
X150549523Y-137719323D01*
X150549523Y-137719323D02*
X150501904Y-137814561D01*
X150501904Y-137814561D02*
X150406666Y-137909800D01*
X150406666Y-137909800D02*
X150263809Y-137957419D01*
X150263809Y-137957419D02*
X150025714Y-137957419D01*
X150930476Y-136957419D02*
X151549523Y-136957419D01*
X151549523Y-136957419D02*
X151216190Y-137338371D01*
X151216190Y-137338371D02*
X151359047Y-137338371D01*
X151359047Y-137338371D02*
X151454285Y-137385990D01*
X151454285Y-137385990D02*
X151501904Y-137433609D01*
X151501904Y-137433609D02*
X151549523Y-137528847D01*
X151549523Y-137528847D02*
X151549523Y-137766942D01*
X151549523Y-137766942D02*
X151501904Y-137862180D01*
X151501904Y-137862180D02*
X151454285Y-137909800D01*
X151454285Y-137909800D02*
X151359047Y-137957419D01*
X151359047Y-137957419D02*
X151073333Y-137957419D01*
X151073333Y-137957419D02*
X150978095Y-137909800D01*
X150978095Y-137909800D02*
X150930476Y-137862180D01*
X151930476Y-137052657D02*
X151978095Y-137005038D01*
X151978095Y-137005038D02*
X152073333Y-136957419D01*
X152073333Y-136957419D02*
X152311428Y-136957419D01*
X152311428Y-136957419D02*
X152406666Y-137005038D01*
X152406666Y-137005038D02*
X152454285Y-137052657D01*
X152454285Y-137052657D02*
X152501904Y-137147895D01*
X152501904Y-137147895D02*
X152501904Y-137243133D01*
X152501904Y-137243133D02*
X152454285Y-137385990D01*
X152454285Y-137385990D02*
X151882857Y-137957419D01*
X151882857Y-137957419D02*
X152501904Y-137957419D01*
D12*
X178488095Y-103457335D02*
X178488095Y-104266858D01*
X178488095Y-104266858D02*
X178535714Y-104362096D01*
X178535714Y-104362096D02*
X178583333Y-104409716D01*
X178583333Y-104409716D02*
X178678571Y-104457335D01*
X178678571Y-104457335D02*
X178869047Y-104457335D01*
X178869047Y-104457335D02*
X178964285Y-104409716D01*
X178964285Y-104409716D02*
X179011904Y-104362096D01*
X179011904Y-104362096D02*
X179059523Y-104266858D01*
X179059523Y-104266858D02*
X179059523Y-103457335D01*
X180059523Y-104457335D02*
X179488095Y-104457335D01*
X179773809Y-104457335D02*
X179773809Y-103457335D01*
X179773809Y-103457335D02*
X179678571Y-103600192D01*
X179678571Y-103600192D02*
X179583333Y-103695430D01*
X179583333Y-103695430D02*
X179488095Y-103743049D01*
D10*
X150025714Y-119957419D02*
X150025714Y-118957419D01*
X150025714Y-118957419D02*
X150263809Y-118957419D01*
X150263809Y-118957419D02*
X150406666Y-119005038D01*
X150406666Y-119005038D02*
X150501904Y-119100276D01*
X150501904Y-119100276D02*
X150549523Y-119195514D01*
X150549523Y-119195514D02*
X150597142Y-119385990D01*
X150597142Y-119385990D02*
X150597142Y-119528847D01*
X150597142Y-119528847D02*
X150549523Y-119719323D01*
X150549523Y-119719323D02*
X150501904Y-119814561D01*
X150501904Y-119814561D02*
X150406666Y-119909800D01*
X150406666Y-119909800D02*
X150263809Y-119957419D01*
X150263809Y-119957419D02*
X150025714Y-119957419D01*
X150978095Y-119052657D02*
X151025714Y-119005038D01*
X151025714Y-119005038D02*
X151120952Y-118957419D01*
X151120952Y-118957419D02*
X151359047Y-118957419D01*
X151359047Y-118957419D02*
X151454285Y-119005038D01*
X151454285Y-119005038D02*
X151501904Y-119052657D01*
X151501904Y-119052657D02*
X151549523Y-119147895D01*
X151549523Y-119147895D02*
X151549523Y-119243133D01*
X151549523Y-119243133D02*
X151501904Y-119385990D01*
X151501904Y-119385990D02*
X150930476Y-119957419D01*
X150930476Y-119957419D02*
X151549523Y-119957419D01*
X152501904Y-119957419D02*
X151930476Y-119957419D01*
X152216190Y-119957419D02*
X152216190Y-118957419D01*
X152216190Y-118957419D02*
X152120952Y-119100276D01*
X152120952Y-119100276D02*
X152025714Y-119195514D01*
X152025714Y-119195514D02*
X151930476Y-119243133D01*
X150045714Y-125957419D02*
X150045714Y-124957419D01*
X150045714Y-124957419D02*
X150283809Y-124957419D01*
X150283809Y-124957419D02*
X150426666Y-125005038D01*
X150426666Y-125005038D02*
X150521904Y-125100276D01*
X150521904Y-125100276D02*
X150569523Y-125195514D01*
X150569523Y-125195514D02*
X150617142Y-125385990D01*
X150617142Y-125385990D02*
X150617142Y-125528847D01*
X150617142Y-125528847D02*
X150569523Y-125719323D01*
X150569523Y-125719323D02*
X150521904Y-125814561D01*
X150521904Y-125814561D02*
X150426666Y-125909800D01*
X150426666Y-125909800D02*
X150283809Y-125957419D01*
X150283809Y-125957419D02*
X150045714Y-125957419D01*
X150998095Y-125052657D02*
X151045714Y-125005038D01*
X151045714Y-125005038D02*
X151140952Y-124957419D01*
X151140952Y-124957419D02*
X151379047Y-124957419D01*
X151379047Y-124957419D02*
X151474285Y-125005038D01*
X151474285Y-125005038D02*
X151521904Y-125052657D01*
X151521904Y-125052657D02*
X151569523Y-125147895D01*
X151569523Y-125147895D02*
X151569523Y-125243133D01*
X151569523Y-125243133D02*
X151521904Y-125385990D01*
X151521904Y-125385990D02*
X150950476Y-125957419D01*
X150950476Y-125957419D02*
X151569523Y-125957419D01*
X152474285Y-124957419D02*
X151998095Y-124957419D01*
X151998095Y-124957419D02*
X151950476Y-125433609D01*
X151950476Y-125433609D02*
X151998095Y-125385990D01*
X151998095Y-125385990D02*
X152093333Y-125338371D01*
X152093333Y-125338371D02*
X152331428Y-125338371D01*
X152331428Y-125338371D02*
X152426666Y-125385990D01*
X152426666Y-125385990D02*
X152474285Y-125433609D01*
X152474285Y-125433609D02*
X152521904Y-125528847D01*
X152521904Y-125528847D02*
X152521904Y-125766942D01*
X152521904Y-125766942D02*
X152474285Y-125862180D01*
X152474285Y-125862180D02*
X152426666Y-125909800D01*
X152426666Y-125909800D02*
X152331428Y-125957419D01*
X152331428Y-125957419D02*
X152093333Y-125957419D01*
X152093333Y-125957419D02*
X151998095Y-125909800D01*
X151998095Y-125909800D02*
X151950476Y-125862180D01*
X150025714Y-121957419D02*
X150025714Y-120957419D01*
X150025714Y-120957419D02*
X150263809Y-120957419D01*
X150263809Y-120957419D02*
X150406666Y-121005038D01*
X150406666Y-121005038D02*
X150501904Y-121100276D01*
X150501904Y-121100276D02*
X150549523Y-121195514D01*
X150549523Y-121195514D02*
X150597142Y-121385990D01*
X150597142Y-121385990D02*
X150597142Y-121528847D01*
X150597142Y-121528847D02*
X150549523Y-121719323D01*
X150549523Y-121719323D02*
X150501904Y-121814561D01*
X150501904Y-121814561D02*
X150406666Y-121909800D01*
X150406666Y-121909800D02*
X150263809Y-121957419D01*
X150263809Y-121957419D02*
X150025714Y-121957419D01*
X150978095Y-121052657D02*
X151025714Y-121005038D01*
X151025714Y-121005038D02*
X151120952Y-120957419D01*
X151120952Y-120957419D02*
X151359047Y-120957419D01*
X151359047Y-120957419D02*
X151454285Y-121005038D01*
X151454285Y-121005038D02*
X151501904Y-121052657D01*
X151501904Y-121052657D02*
X151549523Y-121147895D01*
X151549523Y-121147895D02*
X151549523Y-121243133D01*
X151549523Y-121243133D02*
X151501904Y-121385990D01*
X151501904Y-121385990D02*
X150930476Y-121957419D01*
X150930476Y-121957419D02*
X151549523Y-121957419D01*
X151930476Y-121052657D02*
X151978095Y-121005038D01*
X151978095Y-121005038D02*
X152073333Y-120957419D01*
X152073333Y-120957419D02*
X152311428Y-120957419D01*
X152311428Y-120957419D02*
X152406666Y-121005038D01*
X152406666Y-121005038D02*
X152454285Y-121052657D01*
X152454285Y-121052657D02*
X152501904Y-121147895D01*
X152501904Y-121147895D02*
X152501904Y-121243133D01*
X152501904Y-121243133D02*
X152454285Y-121385990D01*
X152454285Y-121385990D02*
X151882857Y-121957419D01*
X151882857Y-121957419D02*
X152501904Y-121957419D01*
X150025714Y-147957419D02*
X150025714Y-146957419D01*
X150025714Y-146957419D02*
X150263809Y-146957419D01*
X150263809Y-146957419D02*
X150406666Y-147005038D01*
X150406666Y-147005038D02*
X150501904Y-147100276D01*
X150501904Y-147100276D02*
X150549523Y-147195514D01*
X150549523Y-147195514D02*
X150597142Y-147385990D01*
X150597142Y-147385990D02*
X150597142Y-147528847D01*
X150597142Y-147528847D02*
X150549523Y-147719323D01*
X150549523Y-147719323D02*
X150501904Y-147814561D01*
X150501904Y-147814561D02*
X150406666Y-147909800D01*
X150406666Y-147909800D02*
X150263809Y-147957419D01*
X150263809Y-147957419D02*
X150025714Y-147957419D01*
X150930476Y-146957419D02*
X151549523Y-146957419D01*
X151549523Y-146957419D02*
X151216190Y-147338371D01*
X151216190Y-147338371D02*
X151359047Y-147338371D01*
X151359047Y-147338371D02*
X151454285Y-147385990D01*
X151454285Y-147385990D02*
X151501904Y-147433609D01*
X151501904Y-147433609D02*
X151549523Y-147528847D01*
X151549523Y-147528847D02*
X151549523Y-147766942D01*
X151549523Y-147766942D02*
X151501904Y-147862180D01*
X151501904Y-147862180D02*
X151454285Y-147909800D01*
X151454285Y-147909800D02*
X151359047Y-147957419D01*
X151359047Y-147957419D02*
X151073333Y-147957419D01*
X151073333Y-147957419D02*
X150978095Y-147909800D01*
X150978095Y-147909800D02*
X150930476Y-147862180D01*
X152406666Y-146957419D02*
X152216190Y-146957419D01*
X152216190Y-146957419D02*
X152120952Y-147005038D01*
X152120952Y-147005038D02*
X152073333Y-147052657D01*
X152073333Y-147052657D02*
X151978095Y-147195514D01*
X151978095Y-147195514D02*
X151930476Y-147385990D01*
X151930476Y-147385990D02*
X151930476Y-147766942D01*
X151930476Y-147766942D02*
X151978095Y-147862180D01*
X151978095Y-147862180D02*
X152025714Y-147909800D01*
X152025714Y-147909800D02*
X152120952Y-147957419D01*
X152120952Y-147957419D02*
X152311428Y-147957419D01*
X152311428Y-147957419D02*
X152406666Y-147909800D01*
X152406666Y-147909800D02*
X152454285Y-147862180D01*
X152454285Y-147862180D02*
X152501904Y-147766942D01*
X152501904Y-147766942D02*
X152501904Y-147528847D01*
X152501904Y-147528847D02*
X152454285Y-147433609D01*
X152454285Y-147433609D02*
X152406666Y-147385990D01*
X152406666Y-147385990D02*
X152311428Y-147338371D01*
X152311428Y-147338371D02*
X152120952Y-147338371D01*
X152120952Y-147338371D02*
X152025714Y-147385990D01*
X152025714Y-147385990D02*
X151978095Y-147433609D01*
X151978095Y-147433609D02*
X151930476Y-147528847D01*
X150045714Y-131957419D02*
X150045714Y-130957419D01*
X150045714Y-130957419D02*
X150283809Y-130957419D01*
X150283809Y-130957419D02*
X150426666Y-131005038D01*
X150426666Y-131005038D02*
X150521904Y-131100276D01*
X150521904Y-131100276D02*
X150569523Y-131195514D01*
X150569523Y-131195514D02*
X150617142Y-131385990D01*
X150617142Y-131385990D02*
X150617142Y-131528847D01*
X150617142Y-131528847D02*
X150569523Y-131719323D01*
X150569523Y-131719323D02*
X150521904Y-131814561D01*
X150521904Y-131814561D02*
X150426666Y-131909800D01*
X150426666Y-131909800D02*
X150283809Y-131957419D01*
X150283809Y-131957419D02*
X150045714Y-131957419D01*
X150998095Y-131052657D02*
X151045714Y-131005038D01*
X151045714Y-131005038D02*
X151140952Y-130957419D01*
X151140952Y-130957419D02*
X151379047Y-130957419D01*
X151379047Y-130957419D02*
X151474285Y-131005038D01*
X151474285Y-131005038D02*
X151521904Y-131052657D01*
X151521904Y-131052657D02*
X151569523Y-131147895D01*
X151569523Y-131147895D02*
X151569523Y-131243133D01*
X151569523Y-131243133D02*
X151521904Y-131385990D01*
X151521904Y-131385990D02*
X150950476Y-131957419D01*
X150950476Y-131957419D02*
X151569523Y-131957419D01*
X152140952Y-131385990D02*
X152045714Y-131338371D01*
X152045714Y-131338371D02*
X151998095Y-131290752D01*
X151998095Y-131290752D02*
X151950476Y-131195514D01*
X151950476Y-131195514D02*
X151950476Y-131147895D01*
X151950476Y-131147895D02*
X151998095Y-131052657D01*
X151998095Y-131052657D02*
X152045714Y-131005038D01*
X152045714Y-131005038D02*
X152140952Y-130957419D01*
X152140952Y-130957419D02*
X152331428Y-130957419D01*
X152331428Y-130957419D02*
X152426666Y-131005038D01*
X152426666Y-131005038D02*
X152474285Y-131052657D01*
X152474285Y-131052657D02*
X152521904Y-131147895D01*
X152521904Y-131147895D02*
X152521904Y-131195514D01*
X152521904Y-131195514D02*
X152474285Y-131290752D01*
X152474285Y-131290752D02*
X152426666Y-131338371D01*
X152426666Y-131338371D02*
X152331428Y-131385990D01*
X152331428Y-131385990D02*
X152140952Y-131385990D01*
X152140952Y-131385990D02*
X152045714Y-131433609D01*
X152045714Y-131433609D02*
X151998095Y-131481228D01*
X151998095Y-131481228D02*
X151950476Y-131576466D01*
X151950476Y-131576466D02*
X151950476Y-131766942D01*
X151950476Y-131766942D02*
X151998095Y-131862180D01*
X151998095Y-131862180D02*
X152045714Y-131909800D01*
X152045714Y-131909800D02*
X152140952Y-131957419D01*
X152140952Y-131957419D02*
X152331428Y-131957419D01*
X152331428Y-131957419D02*
X152426666Y-131909800D01*
X152426666Y-131909800D02*
X152474285Y-131862180D01*
X152474285Y-131862180D02*
X152521904Y-131766942D01*
X152521904Y-131766942D02*
X152521904Y-131576466D01*
X152521904Y-131576466D02*
X152474285Y-131481228D01*
X152474285Y-131481228D02*
X152426666Y-131433609D01*
X152426666Y-131433609D02*
X152331428Y-131385990D01*
X183646905Y-119957419D02*
X183646905Y-118957419D01*
X183646905Y-118957419D02*
X183885000Y-118957419D01*
X183885000Y-118957419D02*
X184027857Y-119005038D01*
X184027857Y-119005038D02*
X184123095Y-119100276D01*
X184123095Y-119100276D02*
X184170714Y-119195514D01*
X184170714Y-119195514D02*
X184218333Y-119385990D01*
X184218333Y-119385990D02*
X184218333Y-119528847D01*
X184218333Y-119528847D02*
X184170714Y-119719323D01*
X184170714Y-119719323D02*
X184123095Y-119814561D01*
X184123095Y-119814561D02*
X184027857Y-119909800D01*
X184027857Y-119909800D02*
X183885000Y-119957419D01*
X183885000Y-119957419D02*
X183646905Y-119957419D01*
X185075476Y-119290752D02*
X185075476Y-119957419D01*
X184837381Y-118909800D02*
X184599286Y-119624085D01*
X184599286Y-119624085D02*
X185218333Y-119624085D01*
X150025714Y-143957419D02*
X150025714Y-142957419D01*
X150025714Y-142957419D02*
X150263809Y-142957419D01*
X150263809Y-142957419D02*
X150406666Y-143005038D01*
X150406666Y-143005038D02*
X150501904Y-143100276D01*
X150501904Y-143100276D02*
X150549523Y-143195514D01*
X150549523Y-143195514D02*
X150597142Y-143385990D01*
X150597142Y-143385990D02*
X150597142Y-143528847D01*
X150597142Y-143528847D02*
X150549523Y-143719323D01*
X150549523Y-143719323D02*
X150501904Y-143814561D01*
X150501904Y-143814561D02*
X150406666Y-143909800D01*
X150406666Y-143909800D02*
X150263809Y-143957419D01*
X150263809Y-143957419D02*
X150025714Y-143957419D01*
X150978095Y-143052657D02*
X151025714Y-143005038D01*
X151025714Y-143005038D02*
X151120952Y-142957419D01*
X151120952Y-142957419D02*
X151359047Y-142957419D01*
X151359047Y-142957419D02*
X151454285Y-143005038D01*
X151454285Y-143005038D02*
X151501904Y-143052657D01*
X151501904Y-143052657D02*
X151549523Y-143147895D01*
X151549523Y-143147895D02*
X151549523Y-143243133D01*
X151549523Y-143243133D02*
X151501904Y-143385990D01*
X151501904Y-143385990D02*
X150930476Y-143957419D01*
X150930476Y-143957419D02*
X151549523Y-143957419D01*
X152406666Y-143290752D02*
X152406666Y-143957419D01*
X152168571Y-142909800D02*
X151930476Y-143624085D01*
X151930476Y-143624085D02*
X152549523Y-143624085D01*
X150025714Y-139957419D02*
X150025714Y-138957419D01*
X150025714Y-138957419D02*
X150263809Y-138957419D01*
X150263809Y-138957419D02*
X150406666Y-139005038D01*
X150406666Y-139005038D02*
X150501904Y-139100276D01*
X150501904Y-139100276D02*
X150549523Y-139195514D01*
X150549523Y-139195514D02*
X150597142Y-139385990D01*
X150597142Y-139385990D02*
X150597142Y-139528847D01*
X150597142Y-139528847D02*
X150549523Y-139719323D01*
X150549523Y-139719323D02*
X150501904Y-139814561D01*
X150501904Y-139814561D02*
X150406666Y-139909800D01*
X150406666Y-139909800D02*
X150263809Y-139957419D01*
X150263809Y-139957419D02*
X150025714Y-139957419D01*
X150930476Y-138957419D02*
X151549523Y-138957419D01*
X151549523Y-138957419D02*
X151216190Y-139338371D01*
X151216190Y-139338371D02*
X151359047Y-139338371D01*
X151359047Y-139338371D02*
X151454285Y-139385990D01*
X151454285Y-139385990D02*
X151501904Y-139433609D01*
X151501904Y-139433609D02*
X151549523Y-139528847D01*
X151549523Y-139528847D02*
X151549523Y-139766942D01*
X151549523Y-139766942D02*
X151501904Y-139862180D01*
X151501904Y-139862180D02*
X151454285Y-139909800D01*
X151454285Y-139909800D02*
X151359047Y-139957419D01*
X151359047Y-139957419D02*
X151073333Y-139957419D01*
X151073333Y-139957419D02*
X150978095Y-139909800D01*
X150978095Y-139909800D02*
X150930476Y-139862180D01*
X151882857Y-138957419D02*
X152501904Y-138957419D01*
X152501904Y-138957419D02*
X152168571Y-139338371D01*
X152168571Y-139338371D02*
X152311428Y-139338371D01*
X152311428Y-139338371D02*
X152406666Y-139385990D01*
X152406666Y-139385990D02*
X152454285Y-139433609D01*
X152454285Y-139433609D02*
X152501904Y-139528847D01*
X152501904Y-139528847D02*
X152501904Y-139766942D01*
X152501904Y-139766942D02*
X152454285Y-139862180D01*
X152454285Y-139862180D02*
X152406666Y-139909800D01*
X152406666Y-139909800D02*
X152311428Y-139957419D01*
X152311428Y-139957419D02*
X152025714Y-139957419D01*
X152025714Y-139957419D02*
X151930476Y-139909800D01*
X151930476Y-139909800D02*
X151882857Y-139862180D01*
X183521905Y-123957419D02*
X183521905Y-122957419D01*
X183521905Y-122957419D02*
X183760000Y-122957419D01*
X183760000Y-122957419D02*
X183902857Y-123005038D01*
X183902857Y-123005038D02*
X183998095Y-123100276D01*
X183998095Y-123100276D02*
X184045714Y-123195514D01*
X184045714Y-123195514D02*
X184093333Y-123385990D01*
X184093333Y-123385990D02*
X184093333Y-123528847D01*
X184093333Y-123528847D02*
X184045714Y-123719323D01*
X184045714Y-123719323D02*
X183998095Y-123814561D01*
X183998095Y-123814561D02*
X183902857Y-123909800D01*
X183902857Y-123909800D02*
X183760000Y-123957419D01*
X183760000Y-123957419D02*
X183521905Y-123957419D01*
X184950476Y-122957419D02*
X184760000Y-122957419D01*
X184760000Y-122957419D02*
X184664762Y-123005038D01*
X184664762Y-123005038D02*
X184617143Y-123052657D01*
X184617143Y-123052657D02*
X184521905Y-123195514D01*
X184521905Y-123195514D02*
X184474286Y-123385990D01*
X184474286Y-123385990D02*
X184474286Y-123766942D01*
X184474286Y-123766942D02*
X184521905Y-123862180D01*
X184521905Y-123862180D02*
X184569524Y-123909800D01*
X184569524Y-123909800D02*
X184664762Y-123957419D01*
X184664762Y-123957419D02*
X184855238Y-123957419D01*
X184855238Y-123957419D02*
X184950476Y-123909800D01*
X184950476Y-123909800D02*
X184998095Y-123862180D01*
X184998095Y-123862180D02*
X185045714Y-123766942D01*
X185045714Y-123766942D02*
X185045714Y-123528847D01*
X185045714Y-123528847D02*
X184998095Y-123433609D01*
X184998095Y-123433609D02*
X184950476Y-123385990D01*
X184950476Y-123385990D02*
X184855238Y-123338371D01*
X184855238Y-123338371D02*
X184664762Y-123338371D01*
X184664762Y-123338371D02*
X184569524Y-123385990D01*
X184569524Y-123385990D02*
X184521905Y-123433609D01*
X184521905Y-123433609D02*
X184474286Y-123528847D01*
X150025714Y-115957419D02*
X150025714Y-114957419D01*
X150025714Y-114957419D02*
X150263809Y-114957419D01*
X150263809Y-114957419D02*
X150406666Y-115005038D01*
X150406666Y-115005038D02*
X150501904Y-115100276D01*
X150501904Y-115100276D02*
X150549523Y-115195514D01*
X150549523Y-115195514D02*
X150597142Y-115385990D01*
X150597142Y-115385990D02*
X150597142Y-115528847D01*
X150597142Y-115528847D02*
X150549523Y-115719323D01*
X150549523Y-115719323D02*
X150501904Y-115814561D01*
X150501904Y-115814561D02*
X150406666Y-115909800D01*
X150406666Y-115909800D02*
X150263809Y-115957419D01*
X150263809Y-115957419D02*
X150025714Y-115957419D01*
X151549523Y-115957419D02*
X150978095Y-115957419D01*
X151263809Y-115957419D02*
X151263809Y-114957419D01*
X151263809Y-114957419D02*
X151168571Y-115100276D01*
X151168571Y-115100276D02*
X151073333Y-115195514D01*
X151073333Y-115195514D02*
X150978095Y-115243133D01*
X152025714Y-115957419D02*
X152216190Y-115957419D01*
X152216190Y-115957419D02*
X152311428Y-115909800D01*
X152311428Y-115909800D02*
X152359047Y-115862180D01*
X152359047Y-115862180D02*
X152454285Y-115719323D01*
X152454285Y-115719323D02*
X152501904Y-115528847D01*
X152501904Y-115528847D02*
X152501904Y-115147895D01*
X152501904Y-115147895D02*
X152454285Y-115052657D01*
X152454285Y-115052657D02*
X152406666Y-115005038D01*
X152406666Y-115005038D02*
X152311428Y-114957419D01*
X152311428Y-114957419D02*
X152120952Y-114957419D01*
X152120952Y-114957419D02*
X152025714Y-115005038D01*
X152025714Y-115005038D02*
X151978095Y-115052657D01*
X151978095Y-115052657D02*
X151930476Y-115147895D01*
X151930476Y-115147895D02*
X151930476Y-115385990D01*
X151930476Y-115385990D02*
X151978095Y-115481228D01*
X151978095Y-115481228D02*
X152025714Y-115528847D01*
X152025714Y-115528847D02*
X152120952Y-115576466D01*
X152120952Y-115576466D02*
X152311428Y-115576466D01*
X152311428Y-115576466D02*
X152406666Y-115528847D01*
X152406666Y-115528847D02*
X152454285Y-115481228D01*
X152454285Y-115481228D02*
X152501904Y-115385990D01*
X150025714Y-149957419D02*
X150025714Y-148957419D01*
X150025714Y-148957419D02*
X150263809Y-148957419D01*
X150263809Y-148957419D02*
X150406666Y-149005038D01*
X150406666Y-149005038D02*
X150501904Y-149100276D01*
X150501904Y-149100276D02*
X150549523Y-149195514D01*
X150549523Y-149195514D02*
X150597142Y-149385990D01*
X150597142Y-149385990D02*
X150597142Y-149528847D01*
X150597142Y-149528847D02*
X150549523Y-149719323D01*
X150549523Y-149719323D02*
X150501904Y-149814561D01*
X150501904Y-149814561D02*
X150406666Y-149909800D01*
X150406666Y-149909800D02*
X150263809Y-149957419D01*
X150263809Y-149957419D02*
X150025714Y-149957419D01*
X150930476Y-148957419D02*
X151549523Y-148957419D01*
X151549523Y-148957419D02*
X151216190Y-149338371D01*
X151216190Y-149338371D02*
X151359047Y-149338371D01*
X151359047Y-149338371D02*
X151454285Y-149385990D01*
X151454285Y-149385990D02*
X151501904Y-149433609D01*
X151501904Y-149433609D02*
X151549523Y-149528847D01*
X151549523Y-149528847D02*
X151549523Y-149766942D01*
X151549523Y-149766942D02*
X151501904Y-149862180D01*
X151501904Y-149862180D02*
X151454285Y-149909800D01*
X151454285Y-149909800D02*
X151359047Y-149957419D01*
X151359047Y-149957419D02*
X151073333Y-149957419D01*
X151073333Y-149957419D02*
X150978095Y-149909800D01*
X150978095Y-149909800D02*
X150930476Y-149862180D01*
X152454285Y-148957419D02*
X151978095Y-148957419D01*
X151978095Y-148957419D02*
X151930476Y-149433609D01*
X151930476Y-149433609D02*
X151978095Y-149385990D01*
X151978095Y-149385990D02*
X152073333Y-149338371D01*
X152073333Y-149338371D02*
X152311428Y-149338371D01*
X152311428Y-149338371D02*
X152406666Y-149385990D01*
X152406666Y-149385990D02*
X152454285Y-149433609D01*
X152454285Y-149433609D02*
X152501904Y-149528847D01*
X152501904Y-149528847D02*
X152501904Y-149766942D01*
X152501904Y-149766942D02*
X152454285Y-149862180D01*
X152454285Y-149862180D02*
X152406666Y-149909800D01*
X152406666Y-149909800D02*
X152311428Y-149957419D01*
X152311428Y-149957419D02*
X152073333Y-149957419D01*
X152073333Y-149957419D02*
X151978095Y-149909800D01*
X151978095Y-149909800D02*
X151930476Y-149862180D01*
X158741666Y-118007419D02*
X158741666Y-118721704D01*
X158741666Y-118721704D02*
X158694047Y-118864561D01*
X158694047Y-118864561D02*
X158598809Y-118959800D01*
X158598809Y-118959800D02*
X158455952Y-119007419D01*
X158455952Y-119007419D02*
X158360714Y-119007419D01*
X159170238Y-118102657D02*
X159217857Y-118055038D01*
X159217857Y-118055038D02*
X159313095Y-118007419D01*
X159313095Y-118007419D02*
X159551190Y-118007419D01*
X159551190Y-118007419D02*
X159646428Y-118055038D01*
X159646428Y-118055038D02*
X159694047Y-118102657D01*
X159694047Y-118102657D02*
X159741666Y-118197895D01*
X159741666Y-118197895D02*
X159741666Y-118293133D01*
X159741666Y-118293133D02*
X159694047Y-118435990D01*
X159694047Y-118435990D02*
X159122619Y-119007419D01*
X159122619Y-119007419D02*
X159741666Y-119007419D01*
D11*
X158066666Y-126204819D02*
X158066666Y-126919104D01*
X158066666Y-126919104D02*
X158019047Y-127061961D01*
X158019047Y-127061961D02*
X157923809Y-127157200D01*
X157923809Y-127157200D02*
X157780952Y-127204819D01*
X157780952Y-127204819D02*
X157685714Y-127204819D01*
X158542857Y-127204819D02*
X158542857Y-126204819D01*
X158542857Y-126204819D02*
X158923809Y-126204819D01*
X158923809Y-126204819D02*
X159019047Y-126252438D01*
X159019047Y-126252438D02*
X159066666Y-126300057D01*
X159066666Y-126300057D02*
X159114285Y-126395295D01*
X159114285Y-126395295D02*
X159114285Y-126538152D01*
X159114285Y-126538152D02*
X159066666Y-126633390D01*
X159066666Y-126633390D02*
X159019047Y-126681009D01*
X159019047Y-126681009D02*
X158923809Y-126728628D01*
X158923809Y-126728628D02*
X158542857Y-126728628D01*
X159495238Y-126300057D02*
X159542857Y-126252438D01*
X159542857Y-126252438D02*
X159638095Y-126204819D01*
X159638095Y-126204819D02*
X159876190Y-126204819D01*
X159876190Y-126204819D02*
X159971428Y-126252438D01*
X159971428Y-126252438D02*
X160019047Y-126300057D01*
X160019047Y-126300057D02*
X160066666Y-126395295D01*
X160066666Y-126395295D02*
X160066666Y-126490533D01*
X160066666Y-126490533D02*
X160019047Y-126633390D01*
X160019047Y-126633390D02*
X159447619Y-127204819D01*
X159447619Y-127204819D02*
X160066666Y-127204819D01*
D10*
X150025714Y-123957419D02*
X150025714Y-122957419D01*
X150025714Y-122957419D02*
X150263809Y-122957419D01*
X150263809Y-122957419D02*
X150406666Y-123005038D01*
X150406666Y-123005038D02*
X150501904Y-123100276D01*
X150501904Y-123100276D02*
X150549523Y-123195514D01*
X150549523Y-123195514D02*
X150597142Y-123385990D01*
X150597142Y-123385990D02*
X150597142Y-123528847D01*
X150597142Y-123528847D02*
X150549523Y-123719323D01*
X150549523Y-123719323D02*
X150501904Y-123814561D01*
X150501904Y-123814561D02*
X150406666Y-123909800D01*
X150406666Y-123909800D02*
X150263809Y-123957419D01*
X150263809Y-123957419D02*
X150025714Y-123957419D01*
X150978095Y-123052657D02*
X151025714Y-123005038D01*
X151025714Y-123005038D02*
X151120952Y-122957419D01*
X151120952Y-122957419D02*
X151359047Y-122957419D01*
X151359047Y-122957419D02*
X151454285Y-123005038D01*
X151454285Y-123005038D02*
X151501904Y-123052657D01*
X151501904Y-123052657D02*
X151549523Y-123147895D01*
X151549523Y-123147895D02*
X151549523Y-123243133D01*
X151549523Y-123243133D02*
X151501904Y-123385990D01*
X151501904Y-123385990D02*
X150930476Y-123957419D01*
X150930476Y-123957419D02*
X151549523Y-123957419D01*
X151882857Y-122957419D02*
X152501904Y-122957419D01*
X152501904Y-122957419D02*
X152168571Y-123338371D01*
X152168571Y-123338371D02*
X152311428Y-123338371D01*
X152311428Y-123338371D02*
X152406666Y-123385990D01*
X152406666Y-123385990D02*
X152454285Y-123433609D01*
X152454285Y-123433609D02*
X152501904Y-123528847D01*
X152501904Y-123528847D02*
X152501904Y-123766942D01*
X152501904Y-123766942D02*
X152454285Y-123862180D01*
X152454285Y-123862180D02*
X152406666Y-123909800D01*
X152406666Y-123909800D02*
X152311428Y-123957419D01*
X152311428Y-123957419D02*
X152025714Y-123957419D01*
X152025714Y-123957419D02*
X151930476Y-123909800D01*
X151930476Y-123909800D02*
X151882857Y-123862180D01*
X150025714Y-135957419D02*
X150025714Y-134957419D01*
X150025714Y-134957419D02*
X150263809Y-134957419D01*
X150263809Y-134957419D02*
X150406666Y-135005038D01*
X150406666Y-135005038D02*
X150501904Y-135100276D01*
X150501904Y-135100276D02*
X150549523Y-135195514D01*
X150549523Y-135195514D02*
X150597142Y-135385990D01*
X150597142Y-135385990D02*
X150597142Y-135528847D01*
X150597142Y-135528847D02*
X150549523Y-135719323D01*
X150549523Y-135719323D02*
X150501904Y-135814561D01*
X150501904Y-135814561D02*
X150406666Y-135909800D01*
X150406666Y-135909800D02*
X150263809Y-135957419D01*
X150263809Y-135957419D02*
X150025714Y-135957419D01*
X150930476Y-134957419D02*
X151549523Y-134957419D01*
X151549523Y-134957419D02*
X151216190Y-135338371D01*
X151216190Y-135338371D02*
X151359047Y-135338371D01*
X151359047Y-135338371D02*
X151454285Y-135385990D01*
X151454285Y-135385990D02*
X151501904Y-135433609D01*
X151501904Y-135433609D02*
X151549523Y-135528847D01*
X151549523Y-135528847D02*
X151549523Y-135766942D01*
X151549523Y-135766942D02*
X151501904Y-135862180D01*
X151501904Y-135862180D02*
X151454285Y-135909800D01*
X151454285Y-135909800D02*
X151359047Y-135957419D01*
X151359047Y-135957419D02*
X151073333Y-135957419D01*
X151073333Y-135957419D02*
X150978095Y-135909800D01*
X150978095Y-135909800D02*
X150930476Y-135862180D01*
X152501904Y-135957419D02*
X151930476Y-135957419D01*
X152216190Y-135957419D02*
X152216190Y-134957419D01*
X152216190Y-134957419D02*
X152120952Y-135100276D01*
X152120952Y-135100276D02*
X152025714Y-135195514D01*
X152025714Y-135195514D02*
X151930476Y-135243133D01*
X183521905Y-122107419D02*
X183521905Y-121107419D01*
X183521905Y-121107419D02*
X183760000Y-121107419D01*
X183760000Y-121107419D02*
X183902857Y-121155038D01*
X183902857Y-121155038D02*
X183998095Y-121250276D01*
X183998095Y-121250276D02*
X184045714Y-121345514D01*
X184045714Y-121345514D02*
X184093333Y-121535990D01*
X184093333Y-121535990D02*
X184093333Y-121678847D01*
X184093333Y-121678847D02*
X184045714Y-121869323D01*
X184045714Y-121869323D02*
X183998095Y-121964561D01*
X183998095Y-121964561D02*
X183902857Y-122059800D01*
X183902857Y-122059800D02*
X183760000Y-122107419D01*
X183760000Y-122107419D02*
X183521905Y-122107419D01*
X184426667Y-121107419D02*
X185045714Y-121107419D01*
X185045714Y-121107419D02*
X184712381Y-121488371D01*
X184712381Y-121488371D02*
X184855238Y-121488371D01*
X184855238Y-121488371D02*
X184950476Y-121535990D01*
X184950476Y-121535990D02*
X184998095Y-121583609D01*
X184998095Y-121583609D02*
X185045714Y-121678847D01*
X185045714Y-121678847D02*
X185045714Y-121916942D01*
X185045714Y-121916942D02*
X184998095Y-122012180D01*
X184998095Y-122012180D02*
X184950476Y-122059800D01*
X184950476Y-122059800D02*
X184855238Y-122107419D01*
X184855238Y-122107419D02*
X184569524Y-122107419D01*
X184569524Y-122107419D02*
X184474286Y-122059800D01*
X184474286Y-122059800D02*
X184426667Y-122012180D01*
X183045714Y-125907419D02*
X183045714Y-124907419D01*
X183045714Y-124907419D02*
X183283809Y-124907419D01*
X183283809Y-124907419D02*
X183426666Y-124955038D01*
X183426666Y-124955038D02*
X183521904Y-125050276D01*
X183521904Y-125050276D02*
X183569523Y-125145514D01*
X183569523Y-125145514D02*
X183617142Y-125335990D01*
X183617142Y-125335990D02*
X183617142Y-125478847D01*
X183617142Y-125478847D02*
X183569523Y-125669323D01*
X183569523Y-125669323D02*
X183521904Y-125764561D01*
X183521904Y-125764561D02*
X183426666Y-125859800D01*
X183426666Y-125859800D02*
X183283809Y-125907419D01*
X183283809Y-125907419D02*
X183045714Y-125907419D01*
X184569523Y-125907419D02*
X183998095Y-125907419D01*
X184283809Y-125907419D02*
X184283809Y-124907419D01*
X184283809Y-124907419D02*
X184188571Y-125050276D01*
X184188571Y-125050276D02*
X184093333Y-125145514D01*
X184093333Y-125145514D02*
X183998095Y-125193133D01*
X185474285Y-124907419D02*
X184998095Y-124907419D01*
X184998095Y-124907419D02*
X184950476Y-125383609D01*
X184950476Y-125383609D02*
X184998095Y-125335990D01*
X184998095Y-125335990D02*
X185093333Y-125288371D01*
X185093333Y-125288371D02*
X185331428Y-125288371D01*
X185331428Y-125288371D02*
X185426666Y-125335990D01*
X185426666Y-125335990D02*
X185474285Y-125383609D01*
X185474285Y-125383609D02*
X185521904Y-125478847D01*
X185521904Y-125478847D02*
X185521904Y-125716942D01*
X185521904Y-125716942D02*
X185474285Y-125812180D01*
X185474285Y-125812180D02*
X185426666Y-125859800D01*
X185426666Y-125859800D02*
X185331428Y-125907419D01*
X185331428Y-125907419D02*
X185093333Y-125907419D01*
X185093333Y-125907419D02*
X184998095Y-125859800D01*
X184998095Y-125859800D02*
X184950476Y-125812180D01*
X183285714Y-148057419D02*
X183285714Y-147057419D01*
X183285714Y-147057419D02*
X183523809Y-147057419D01*
X183523809Y-147057419D02*
X183666666Y-147105038D01*
X183666666Y-147105038D02*
X183761904Y-147200276D01*
X183761904Y-147200276D02*
X183809523Y-147295514D01*
X183809523Y-147295514D02*
X183857142Y-147485990D01*
X183857142Y-147485990D02*
X183857142Y-147628847D01*
X183857142Y-147628847D02*
X183809523Y-147819323D01*
X183809523Y-147819323D02*
X183761904Y-147914561D01*
X183761904Y-147914561D02*
X183666666Y-148009800D01*
X183666666Y-148009800D02*
X183523809Y-148057419D01*
X183523809Y-148057419D02*
X183285714Y-148057419D01*
X184809523Y-148057419D02*
X184238095Y-148057419D01*
X184523809Y-148057419D02*
X184523809Y-147057419D01*
X184523809Y-147057419D02*
X184428571Y-147200276D01*
X184428571Y-147200276D02*
X184333333Y-147295514D01*
X184333333Y-147295514D02*
X184238095Y-147343133D01*
X185666666Y-147057419D02*
X185476190Y-147057419D01*
X185476190Y-147057419D02*
X185380952Y-147105038D01*
X185380952Y-147105038D02*
X185333333Y-147152657D01*
X185333333Y-147152657D02*
X185238095Y-147295514D01*
X185238095Y-147295514D02*
X185190476Y-147485990D01*
X185190476Y-147485990D02*
X185190476Y-147866942D01*
X185190476Y-147866942D02*
X185238095Y-147962180D01*
X185238095Y-147962180D02*
X185285714Y-148009800D01*
X185285714Y-148009800D02*
X185380952Y-148057419D01*
X185380952Y-148057419D02*
X185571428Y-148057419D01*
X185571428Y-148057419D02*
X185666666Y-148009800D01*
X185666666Y-148009800D02*
X185714285Y-147962180D01*
X185714285Y-147962180D02*
X185761904Y-147866942D01*
X185761904Y-147866942D02*
X185761904Y-147628847D01*
X185761904Y-147628847D02*
X185714285Y-147533609D01*
X185714285Y-147533609D02*
X185666666Y-147485990D01*
X185666666Y-147485990D02*
X185571428Y-147438371D01*
X185571428Y-147438371D02*
X185380952Y-147438371D01*
X185380952Y-147438371D02*
X185285714Y-147485990D01*
X185285714Y-147485990D02*
X185238095Y-147533609D01*
X185238095Y-147533609D02*
X185190476Y-147628847D01*
X183035714Y-127957419D02*
X183035714Y-126957419D01*
X183035714Y-126957419D02*
X183273809Y-126957419D01*
X183273809Y-126957419D02*
X183416666Y-127005038D01*
X183416666Y-127005038D02*
X183511904Y-127100276D01*
X183511904Y-127100276D02*
X183559523Y-127195514D01*
X183559523Y-127195514D02*
X183607142Y-127385990D01*
X183607142Y-127385990D02*
X183607142Y-127528847D01*
X183607142Y-127528847D02*
X183559523Y-127719323D01*
X183559523Y-127719323D02*
X183511904Y-127814561D01*
X183511904Y-127814561D02*
X183416666Y-127909800D01*
X183416666Y-127909800D02*
X183273809Y-127957419D01*
X183273809Y-127957419D02*
X183035714Y-127957419D01*
X184559523Y-127957419D02*
X183988095Y-127957419D01*
X184273809Y-127957419D02*
X184273809Y-126957419D01*
X184273809Y-126957419D02*
X184178571Y-127100276D01*
X184178571Y-127100276D02*
X184083333Y-127195514D01*
X184083333Y-127195514D02*
X183988095Y-127243133D01*
X185178571Y-126957419D02*
X185273809Y-126957419D01*
X185273809Y-126957419D02*
X185369047Y-127005038D01*
X185369047Y-127005038D02*
X185416666Y-127052657D01*
X185416666Y-127052657D02*
X185464285Y-127147895D01*
X185464285Y-127147895D02*
X185511904Y-127338371D01*
X185511904Y-127338371D02*
X185511904Y-127576466D01*
X185511904Y-127576466D02*
X185464285Y-127766942D01*
X185464285Y-127766942D02*
X185416666Y-127862180D01*
X185416666Y-127862180D02*
X185369047Y-127909800D01*
X185369047Y-127909800D02*
X185273809Y-127957419D01*
X185273809Y-127957419D02*
X185178571Y-127957419D01*
X185178571Y-127957419D02*
X185083333Y-127909800D01*
X185083333Y-127909800D02*
X185035714Y-127862180D01*
X185035714Y-127862180D02*
X184988095Y-127766942D01*
X184988095Y-127766942D02*
X184940476Y-127576466D01*
X184940476Y-127576466D02*
X184940476Y-127338371D01*
X184940476Y-127338371D02*
X184988095Y-127147895D01*
X184988095Y-127147895D02*
X185035714Y-127052657D01*
X185035714Y-127052657D02*
X185083333Y-127005038D01*
X185083333Y-127005038D02*
X185178571Y-126957419D01*
D12*
X155488095Y-103457335D02*
X155488095Y-104266858D01*
X155488095Y-104266858D02*
X155535714Y-104362096D01*
X155535714Y-104362096D02*
X155583333Y-104409716D01*
X155583333Y-104409716D02*
X155678571Y-104457335D01*
X155678571Y-104457335D02*
X155869047Y-104457335D01*
X155869047Y-104457335D02*
X155964285Y-104409716D01*
X155964285Y-104409716D02*
X156011904Y-104362096D01*
X156011904Y-104362096D02*
X156059523Y-104266858D01*
X156059523Y-104266858D02*
X156059523Y-103457335D01*
X156488095Y-103552573D02*
X156535714Y-103504954D01*
X156535714Y-103504954D02*
X156630952Y-103457335D01*
X156630952Y-103457335D02*
X156869047Y-103457335D01*
X156869047Y-103457335D02*
X156964285Y-103504954D01*
X156964285Y-103504954D02*
X157011904Y-103552573D01*
X157011904Y-103552573D02*
X157059523Y-103647811D01*
X157059523Y-103647811D02*
X157059523Y-103743049D01*
X157059523Y-103743049D02*
X157011904Y-103885906D01*
X157011904Y-103885906D02*
X156440476Y-104457335D01*
X156440476Y-104457335D02*
X157059523Y-104457335D01*
D10*
X183045714Y-116157419D02*
X183045714Y-115157419D01*
X183045714Y-115157419D02*
X183283809Y-115157419D01*
X183283809Y-115157419D02*
X183426666Y-115205038D01*
X183426666Y-115205038D02*
X183521904Y-115300276D01*
X183521904Y-115300276D02*
X183569523Y-115395514D01*
X183569523Y-115395514D02*
X183617142Y-115585990D01*
X183617142Y-115585990D02*
X183617142Y-115728847D01*
X183617142Y-115728847D02*
X183569523Y-115919323D01*
X183569523Y-115919323D02*
X183521904Y-116014561D01*
X183521904Y-116014561D02*
X183426666Y-116109800D01*
X183426666Y-116109800D02*
X183283809Y-116157419D01*
X183283809Y-116157419D02*
X183045714Y-116157419D01*
X184569523Y-116157419D02*
X183998095Y-116157419D01*
X184283809Y-116157419D02*
X184283809Y-115157419D01*
X184283809Y-115157419D02*
X184188571Y-115300276D01*
X184188571Y-115300276D02*
X184093333Y-115395514D01*
X184093333Y-115395514D02*
X183998095Y-115443133D01*
X185140952Y-115585990D02*
X185045714Y-115538371D01*
X185045714Y-115538371D02*
X184998095Y-115490752D01*
X184998095Y-115490752D02*
X184950476Y-115395514D01*
X184950476Y-115395514D02*
X184950476Y-115347895D01*
X184950476Y-115347895D02*
X184998095Y-115252657D01*
X184998095Y-115252657D02*
X185045714Y-115205038D01*
X185045714Y-115205038D02*
X185140952Y-115157419D01*
X185140952Y-115157419D02*
X185331428Y-115157419D01*
X185331428Y-115157419D02*
X185426666Y-115205038D01*
X185426666Y-115205038D02*
X185474285Y-115252657D01*
X185474285Y-115252657D02*
X185521904Y-115347895D01*
X185521904Y-115347895D02*
X185521904Y-115395514D01*
X185521904Y-115395514D02*
X185474285Y-115490752D01*
X185474285Y-115490752D02*
X185426666Y-115538371D01*
X185426666Y-115538371D02*
X185331428Y-115585990D01*
X185331428Y-115585990D02*
X185140952Y-115585990D01*
X185140952Y-115585990D02*
X185045714Y-115633609D01*
X185045714Y-115633609D02*
X184998095Y-115681228D01*
X184998095Y-115681228D02*
X184950476Y-115776466D01*
X184950476Y-115776466D02*
X184950476Y-115966942D01*
X184950476Y-115966942D02*
X184998095Y-116062180D01*
X184998095Y-116062180D02*
X185045714Y-116109800D01*
X185045714Y-116109800D02*
X185140952Y-116157419D01*
X185140952Y-116157419D02*
X185331428Y-116157419D01*
X185331428Y-116157419D02*
X185426666Y-116109800D01*
X185426666Y-116109800D02*
X185474285Y-116062180D01*
X185474285Y-116062180D02*
X185521904Y-115966942D01*
X185521904Y-115966942D02*
X185521904Y-115776466D01*
X185521904Y-115776466D02*
X185474285Y-115681228D01*
X185474285Y-115681228D02*
X185426666Y-115633609D01*
X185426666Y-115633609D02*
X185331428Y-115585990D01*
X183521905Y-134157419D02*
X183521905Y-133157419D01*
X183521905Y-133157419D02*
X183760000Y-133157419D01*
X183760000Y-133157419D02*
X183902857Y-133205038D01*
X183902857Y-133205038D02*
X183998095Y-133300276D01*
X183998095Y-133300276D02*
X184045714Y-133395514D01*
X184045714Y-133395514D02*
X184093333Y-133585990D01*
X184093333Y-133585990D02*
X184093333Y-133728847D01*
X184093333Y-133728847D02*
X184045714Y-133919323D01*
X184045714Y-133919323D02*
X183998095Y-134014561D01*
X183998095Y-134014561D02*
X183902857Y-134109800D01*
X183902857Y-134109800D02*
X183760000Y-134157419D01*
X183760000Y-134157419D02*
X183521905Y-134157419D01*
X184664762Y-133585990D02*
X184569524Y-133538371D01*
X184569524Y-133538371D02*
X184521905Y-133490752D01*
X184521905Y-133490752D02*
X184474286Y-133395514D01*
X184474286Y-133395514D02*
X184474286Y-133347895D01*
X184474286Y-133347895D02*
X184521905Y-133252657D01*
X184521905Y-133252657D02*
X184569524Y-133205038D01*
X184569524Y-133205038D02*
X184664762Y-133157419D01*
X184664762Y-133157419D02*
X184855238Y-133157419D01*
X184855238Y-133157419D02*
X184950476Y-133205038D01*
X184950476Y-133205038D02*
X184998095Y-133252657D01*
X184998095Y-133252657D02*
X185045714Y-133347895D01*
X185045714Y-133347895D02*
X185045714Y-133395514D01*
X185045714Y-133395514D02*
X184998095Y-133490752D01*
X184998095Y-133490752D02*
X184950476Y-133538371D01*
X184950476Y-133538371D02*
X184855238Y-133585990D01*
X184855238Y-133585990D02*
X184664762Y-133585990D01*
X184664762Y-133585990D02*
X184569524Y-133633609D01*
X184569524Y-133633609D02*
X184521905Y-133681228D01*
X184521905Y-133681228D02*
X184474286Y-133776466D01*
X184474286Y-133776466D02*
X184474286Y-133966942D01*
X184474286Y-133966942D02*
X184521905Y-134062180D01*
X184521905Y-134062180D02*
X184569524Y-134109800D01*
X184569524Y-134109800D02*
X184664762Y-134157419D01*
X184664762Y-134157419D02*
X184855238Y-134157419D01*
X184855238Y-134157419D02*
X184950476Y-134109800D01*
X184950476Y-134109800D02*
X184998095Y-134062180D01*
X184998095Y-134062180D02*
X185045714Y-133966942D01*
X185045714Y-133966942D02*
X185045714Y-133776466D01*
X185045714Y-133776466D02*
X184998095Y-133681228D01*
X184998095Y-133681228D02*
X184950476Y-133633609D01*
X184950476Y-133633609D02*
X184855238Y-133585990D01*
X183055714Y-117857419D02*
X183055714Y-116857419D01*
X183055714Y-116857419D02*
X183293809Y-116857419D01*
X183293809Y-116857419D02*
X183436666Y-116905038D01*
X183436666Y-116905038D02*
X183531904Y-117000276D01*
X183531904Y-117000276D02*
X183579523Y-117095514D01*
X183579523Y-117095514D02*
X183627142Y-117285990D01*
X183627142Y-117285990D02*
X183627142Y-117428847D01*
X183627142Y-117428847D02*
X183579523Y-117619323D01*
X183579523Y-117619323D02*
X183531904Y-117714561D01*
X183531904Y-117714561D02*
X183436666Y-117809800D01*
X183436666Y-117809800D02*
X183293809Y-117857419D01*
X183293809Y-117857419D02*
X183055714Y-117857419D01*
X184579523Y-117857419D02*
X184008095Y-117857419D01*
X184293809Y-117857419D02*
X184293809Y-116857419D01*
X184293809Y-116857419D02*
X184198571Y-117000276D01*
X184198571Y-117000276D02*
X184103333Y-117095514D01*
X184103333Y-117095514D02*
X184008095Y-117143133D01*
X184912857Y-116857419D02*
X185579523Y-116857419D01*
X185579523Y-116857419D02*
X185150952Y-117857419D01*
D13*
%TO.C,D34*%
X147000000Y-140700000D02*
X149000000Y-140700000D01*
X149000000Y-142300000D02*
X147000000Y-142300000D01*
D14*
X149650000Y-142100000D02*
G75*
G02*
X149350000Y-142100000I-150000J0D01*
G01*
X149350000Y-142100000D02*
G75*
G02*
X149650000Y-142100000I150000J0D01*
G01*
D13*
%TO.C,D27*%
X147010000Y-128700000D02*
X149010000Y-128700000D01*
X149010000Y-130300000D02*
X147010000Y-130300000D01*
D14*
X149660000Y-130100000D02*
G75*
G02*
X149360000Y-130100000I-150000J0D01*
G01*
X149360000Y-130100000D02*
G75*
G02*
X149660000Y-130100000I150000J0D01*
G01*
D13*
%TO.C,D7*%
X186500000Y-144950000D02*
X188500000Y-144950000D01*
X188500000Y-146550000D02*
X186500000Y-146550000D01*
D14*
X186150000Y-145150000D02*
G75*
G02*
X185850000Y-145150000I-150000J0D01*
G01*
X185850000Y-145150000D02*
G75*
G02*
X186150000Y-145150000I150000J0D01*
G01*
D13*
%TO.C,D20*%
X147000000Y-116700000D02*
X149000000Y-116700000D01*
X149000000Y-118300000D02*
X147000000Y-118300000D01*
D14*
X149650000Y-118100000D02*
G75*
G02*
X149350000Y-118100000I-150000J0D01*
G01*
X149350000Y-118100000D02*
G75*
G02*
X149650000Y-118100000I150000J0D01*
G01*
D13*
%TO.C,D29*%
X147020000Y-132700000D02*
X149020000Y-132700000D01*
X149020000Y-134300000D02*
X147020000Y-134300000D01*
D14*
X149670000Y-134100000D02*
G75*
G02*
X149370000Y-134100000I-150000J0D01*
G01*
X149370000Y-134100000D02*
G75*
G02*
X149670000Y-134100000I150000J0D01*
G01*
D15*
%TO.C,JP4*%
X160600000Y-132050000D02*
X160600000Y-131450000D01*
X161300000Y-130750000D02*
X162700000Y-130750000D01*
X162700000Y-132750000D02*
X161300000Y-132750000D01*
X163400000Y-131450000D02*
X163400000Y-132050000D01*
X160600000Y-131450000D02*
G75*
G02*
X161300000Y-130750000I699999J1D01*
G01*
X161300000Y-132750000D02*
G75*
G02*
X160600000Y-132050000I-1J699999D01*
G01*
X162700000Y-130750000D02*
G75*
G02*
X163400000Y-131450000I0J-700000D01*
G01*
X163400000Y-132050000D02*
G75*
G02*
X162700000Y-132750000I-700000J0D01*
G01*
D13*
%TO.C,D9*%
X186510000Y-128950000D02*
X188510000Y-128950000D01*
X188510000Y-130550000D02*
X186510000Y-130550000D01*
D14*
X186160000Y-129150000D02*
G75*
G02*
X185860000Y-129150000I-150000J0D01*
G01*
X185860000Y-129150000D02*
G75*
G02*
X186160000Y-129150000I150000J0D01*
G01*
D13*
%TO.C,D14*%
X186500000Y-138950000D02*
X188500000Y-138950000D01*
X188500000Y-140550000D02*
X186500000Y-140550000D01*
D14*
X186150000Y-139150000D02*
G75*
G02*
X185850000Y-139150000I-150000J0D01*
G01*
X185850000Y-139150000D02*
G75*
G02*
X186150000Y-139150000I150000J0D01*
G01*
D15*
%TO.C,JP1*%
X160600000Y-129550000D02*
X160600000Y-128950000D01*
X161300000Y-128250000D02*
X162700000Y-128250000D01*
X162700000Y-130250000D02*
X161300000Y-130250000D01*
X163400000Y-128950000D02*
X163400000Y-129550000D01*
X160600000Y-128950000D02*
G75*
G02*
X161300000Y-128250000I699999J1D01*
G01*
X161300000Y-130250000D02*
G75*
G02*
X160600000Y-129550000I-1J699999D01*
G01*
X162700000Y-128250000D02*
G75*
G02*
X163400000Y-128950000I0J-700000D01*
G01*
X163400000Y-129550000D02*
G75*
G02*
X162700000Y-130250000I-700000J0D01*
G01*
D13*
%TO.C,D11*%
X186490000Y-148950000D02*
X188490000Y-148950000D01*
X188490000Y-150550000D02*
X186490000Y-150550000D01*
D14*
X186140000Y-149150000D02*
G75*
G02*
X185840000Y-149150000I-150000J0D01*
G01*
X185840000Y-149150000D02*
G75*
G02*
X186140000Y-149150000I150000J0D01*
G01*
D15*
%TO.C,JP3*%
X160600000Y-124550000D02*
X160600000Y-123950000D01*
X161300000Y-123250000D02*
X162700000Y-123250000D01*
X162700000Y-125250000D02*
X161300000Y-125250000D01*
X163400000Y-123950000D02*
X163400000Y-124550000D01*
X160600000Y-123950000D02*
G75*
G02*
X161300000Y-123250000I699999J1D01*
G01*
X161300000Y-125250000D02*
G75*
G02*
X160600000Y-124550000I-1J699999D01*
G01*
X162700000Y-123250000D02*
G75*
G02*
X163400000Y-123950000I0J-700000D01*
G01*
X163400000Y-124550000D02*
G75*
G02*
X162700000Y-125250000I-700000J0D01*
G01*
D13*
%TO.C,J1*%
X170600000Y-115200000D02*
X182600000Y-115200000D01*
X172750000Y-121900000D02*
X182600000Y-121900000D01*
X182600000Y-115200000D02*
X182600000Y-116100000D01*
X182600000Y-117350000D02*
X182600000Y-121900000D01*
%TO.C,D5*%
X186500000Y-136950000D02*
X188500000Y-136950000D01*
X188500000Y-138550000D02*
X186500000Y-138550000D01*
D14*
X186150000Y-137150000D02*
G75*
G02*
X185850000Y-137150000I-150000J0D01*
G01*
X185850000Y-137150000D02*
G75*
G02*
X186150000Y-137150000I150000J0D01*
G01*
D13*
%TO.C,D13*%
X186500000Y-140950000D02*
X188500000Y-140950000D01*
X188500000Y-142550000D02*
X186500000Y-142550000D01*
D14*
X186150000Y-141150000D02*
G75*
G02*
X185850000Y-141150000I-150000J0D01*
G01*
X185850000Y-141150000D02*
G75*
G02*
X186150000Y-141150000I150000J0D01*
G01*
D13*
%TO.C,D1*%
X186500000Y-142950000D02*
X188500000Y-142950000D01*
X188500000Y-144550000D02*
X186500000Y-144550000D01*
D14*
X186150000Y-143150000D02*
G75*
G02*
X185850000Y-143150000I-150000J0D01*
G01*
X185850000Y-143150000D02*
G75*
G02*
X186150000Y-143150000I150000J0D01*
G01*
D13*
%TO.C,D2*%
X186500000Y-130950000D02*
X188500000Y-130950000D01*
X188500000Y-132550000D02*
X186500000Y-132550000D01*
D14*
X186150000Y-131150000D02*
G75*
G02*
X185850000Y-131150000I-150000J0D01*
G01*
X185850000Y-131150000D02*
G75*
G02*
X186150000Y-131150000I150000J0D01*
G01*
D13*
%TO.C,D26*%
X147010000Y-126700000D02*
X149010000Y-126700000D01*
X149010000Y-128300000D02*
X147010000Y-128300000D01*
D14*
X149660000Y-128100000D02*
G75*
G02*
X149360000Y-128100000I-150000J0D01*
G01*
X149360000Y-128100000D02*
G75*
G02*
X149660000Y-128100000I150000J0D01*
G01*
D13*
%TO.C,D12*%
X186490000Y-134950000D02*
X188490000Y-134950000D01*
X188490000Y-136550000D02*
X186490000Y-136550000D01*
D14*
X186140000Y-135150000D02*
G75*
G02*
X185840000Y-135150000I-150000J0D01*
G01*
X185840000Y-135150000D02*
G75*
G02*
X186140000Y-135150000I150000J0D01*
G01*
D13*
%TO.C,D30*%
X147000000Y-144700000D02*
X149000000Y-144700000D01*
X149000000Y-146300000D02*
X147000000Y-146300000D01*
D14*
X149650000Y-146100000D02*
G75*
G02*
X149350000Y-146100000I-150000J0D01*
G01*
X149350000Y-146100000D02*
G75*
G02*
X149650000Y-146100000I150000J0D01*
G01*
D13*
%TO.C,D32*%
X147000000Y-136700000D02*
X149000000Y-136700000D01*
X149000000Y-138300000D02*
X147000000Y-138300000D01*
D14*
X149650000Y-138100000D02*
G75*
G02*
X149350000Y-138100000I-150000J0D01*
G01*
X149350000Y-138100000D02*
G75*
G02*
X149650000Y-138100000I150000J0D01*
G01*
D16*
%TO.C,U1*%
X170230000Y-112489000D02*
X170230000Y-95344000D01*
X172135000Y-114394000D02*
X186105000Y-114394000D01*
X174625000Y-93439000D02*
X174628728Y-92528728D01*
X175128728Y-92029000D02*
X183124000Y-92029000D01*
X183624000Y-92529000D02*
X183624000Y-93439000D01*
D10*
X186105000Y-93439000D02*
X172135000Y-93439000D01*
D16*
X186105000Y-93439000D02*
X172135000Y-93439000D01*
X188010000Y-112489000D02*
X188010000Y-95344000D01*
X170230000Y-95344000D02*
G75*
G02*
X172135000Y-93439000I1905001J-1D01*
G01*
X172135000Y-114394000D02*
G75*
G02*
X170230000Y-112489000I1J1905001D01*
G01*
X174628728Y-92528728D02*
G75*
G02*
X175128728Y-92029001I500018J-291D01*
G01*
X183124000Y-92029000D02*
G75*
G02*
X183624000Y-92529000I0J-500000D01*
G01*
X186105000Y-93439000D02*
G75*
G02*
X188010000Y-95344000I0J-1905000D01*
G01*
X188010000Y-112489000D02*
G75*
G02*
X186105000Y-114394000I-1905000J0D01*
G01*
D17*
X170422000Y-93680000D02*
G75*
G02*
X169918000Y-93680000I-252000J0D01*
G01*
X169918000Y-93680000D02*
G75*
G02*
X170422000Y-93680000I252000J0D01*
G01*
X171565000Y-94560000D02*
G75*
G02*
X171061000Y-94560000I-252000J0D01*
G01*
X171061000Y-94560000D02*
G75*
G02*
X171565000Y-94560000I252000J0D01*
G01*
D13*
%TO.C,D21*%
X147000000Y-118700000D02*
X149000000Y-118700000D01*
X149000000Y-120300000D02*
X147000000Y-120300000D01*
D14*
X149650000Y-120100000D02*
G75*
G02*
X149350000Y-120100000I-150000J0D01*
G01*
X149350000Y-120100000D02*
G75*
G02*
X149650000Y-120100000I150000J0D01*
G01*
D13*
%TO.C,D25*%
X147020000Y-124700000D02*
X149020000Y-124700000D01*
X149020000Y-126300000D02*
X147020000Y-126300000D01*
D14*
X149670000Y-126100000D02*
G75*
G02*
X149370000Y-126100000I-150000J0D01*
G01*
X149370000Y-126100000D02*
G75*
G02*
X149670000Y-126100000I150000J0D01*
G01*
D13*
%TO.C,D22*%
X147000000Y-120700000D02*
X149000000Y-120700000D01*
X149000000Y-122300000D02*
X147000000Y-122300000D01*
D14*
X149650000Y-122100000D02*
G75*
G02*
X149350000Y-122100000I-150000J0D01*
G01*
X149350000Y-122100000D02*
G75*
G02*
X149650000Y-122100000I150000J0D01*
G01*
D13*
%TO.C,D36*%
X147000000Y-146700000D02*
X149000000Y-146700000D01*
X149000000Y-148300000D02*
X147000000Y-148300000D01*
D14*
X149650000Y-148100000D02*
G75*
G02*
X149350000Y-148100000I-150000J0D01*
G01*
X149350000Y-148100000D02*
G75*
G02*
X149650000Y-148100000I150000J0D01*
G01*
D13*
%TO.C,D28*%
X147020000Y-130700000D02*
X149020000Y-130700000D01*
X149020000Y-132300000D02*
X147020000Y-132300000D01*
D14*
X149670000Y-132100000D02*
G75*
G02*
X149370000Y-132100000I-150000J0D01*
G01*
X149370000Y-132100000D02*
G75*
G02*
X149670000Y-132100000I150000J0D01*
G01*
D13*
%TO.C,D4*%
X186500000Y-118950000D02*
X188500000Y-118950000D01*
X188500000Y-120550000D02*
X186500000Y-120550000D01*
D14*
X186150000Y-119150000D02*
G75*
G02*
X185850000Y-119150000I-150000J0D01*
G01*
X185850000Y-119150000D02*
G75*
G02*
X186150000Y-119150000I150000J0D01*
G01*
D13*
%TO.C,D24*%
X147000000Y-142700000D02*
X149000000Y-142700000D01*
X149000000Y-144300000D02*
X147000000Y-144300000D01*
D14*
X149650000Y-144100000D02*
G75*
G02*
X149350000Y-144100000I-150000J0D01*
G01*
X149350000Y-144100000D02*
G75*
G02*
X149650000Y-144100000I150000J0D01*
G01*
D13*
%TO.C,D33*%
X147000000Y-138700000D02*
X149000000Y-138700000D01*
X149000000Y-140300000D02*
X147000000Y-140300000D01*
D14*
X149650000Y-140100000D02*
G75*
G02*
X149350000Y-140100000I-150000J0D01*
G01*
X149350000Y-140100000D02*
G75*
G02*
X149650000Y-140100000I150000J0D01*
G01*
D13*
%TO.C,D6*%
X186500000Y-122950000D02*
X188500000Y-122950000D01*
X188500000Y-124550000D02*
X186500000Y-124550000D01*
D14*
X186150000Y-123150000D02*
G75*
G02*
X185850000Y-123150000I-150000J0D01*
G01*
X185850000Y-123150000D02*
G75*
G02*
X186150000Y-123150000I150000J0D01*
G01*
D13*
%TO.C,D19*%
X147000000Y-114700000D02*
X149000000Y-114700000D01*
X149000000Y-116300000D02*
X147000000Y-116300000D01*
D14*
X149650000Y-116100000D02*
G75*
G02*
X149350000Y-116100000I-150000J0D01*
G01*
X149350000Y-116100000D02*
G75*
G02*
X149650000Y-116100000I150000J0D01*
G01*
D13*
%TO.C,D35*%
X147000000Y-148700000D02*
X149000000Y-148700000D01*
X149000000Y-150300000D02*
X147000000Y-150300000D01*
D14*
X149650000Y-150100000D02*
G75*
G02*
X149350000Y-150100000I-150000J0D01*
G01*
X149350000Y-150100000D02*
G75*
G02*
X149650000Y-150100000I150000J0D01*
G01*
D13*
%TO.C,J2*%
X152750000Y-119700000D02*
X152750000Y-115150000D01*
X152750000Y-121850000D02*
X152750000Y-120950000D01*
X162600000Y-115150000D02*
X152750000Y-115150000D01*
X164750000Y-121850000D02*
X152750000Y-121850000D01*
D15*
%TO.C,JP2*%
X160600000Y-127050000D02*
X160600000Y-126450000D01*
X161300000Y-125750000D02*
X162700000Y-125750000D01*
X162700000Y-127750000D02*
X161300000Y-127750000D01*
X163400000Y-126450000D02*
X163400000Y-127050000D01*
X160600000Y-126450000D02*
G75*
G02*
X161300000Y-125750000I699999J1D01*
G01*
X161300000Y-127750000D02*
G75*
G02*
X160600000Y-127050000I-1J699999D01*
G01*
X162700000Y-125750000D02*
G75*
G02*
X163400000Y-126450000I0J-700000D01*
G01*
X163400000Y-127050000D02*
G75*
G02*
X162700000Y-127750000I-700000J0D01*
G01*
D13*
%TO.C,D23*%
X147000000Y-122700000D02*
X149000000Y-122700000D01*
X149000000Y-124300000D02*
X147000000Y-124300000D01*
D14*
X149650000Y-124100000D02*
G75*
G02*
X149350000Y-124100000I-150000J0D01*
G01*
X149350000Y-124100000D02*
G75*
G02*
X149650000Y-124100000I150000J0D01*
G01*
D13*
%TO.C,D31*%
X147000000Y-134700000D02*
X149000000Y-134700000D01*
X149000000Y-136300000D02*
X147000000Y-136300000D01*
D14*
X149650000Y-136100000D02*
G75*
G02*
X149350000Y-136100000I-150000J0D01*
G01*
X149350000Y-136100000D02*
G75*
G02*
X149650000Y-136100000I150000J0D01*
G01*
D13*
%TO.C,D3*%
X186500000Y-120950000D02*
X188500000Y-120950000D01*
X188500000Y-122550000D02*
X186500000Y-122550000D01*
D14*
X186150000Y-121150000D02*
G75*
G02*
X185850000Y-121150000I-150000J0D01*
G01*
X185850000Y-121150000D02*
G75*
G02*
X186150000Y-121150000I150000J0D01*
G01*
D13*
%TO.C,D15*%
X186500000Y-124950000D02*
X188500000Y-124950000D01*
X188500000Y-126550000D02*
X186500000Y-126550000D01*
D14*
X186150000Y-125150000D02*
G75*
G02*
X185850000Y-125150000I-150000J0D01*
G01*
X185850000Y-125150000D02*
G75*
G02*
X186150000Y-125150000I150000J0D01*
G01*
D13*
%TO.C,D16*%
X186490000Y-146950000D02*
X188490000Y-146950000D01*
X188490000Y-148550000D02*
X186490000Y-148550000D01*
D14*
X186140000Y-147150000D02*
G75*
G02*
X185840000Y-147150000I-150000J0D01*
G01*
X185840000Y-147150000D02*
G75*
G02*
X186140000Y-147150000I150000J0D01*
G01*
D13*
%TO.C,D10*%
X186500000Y-126950000D02*
X188500000Y-126950000D01*
X188500000Y-128550000D02*
X186500000Y-128550000D01*
D14*
X186150000Y-127150000D02*
G75*
G02*
X185850000Y-127150000I-150000J0D01*
G01*
X185850000Y-127150000D02*
G75*
G02*
X186150000Y-127150000I150000J0D01*
G01*
D16*
%TO.C,U2*%
X147340000Y-112489000D02*
X147340000Y-95344000D01*
X149245000Y-114394000D02*
X163215000Y-114394000D01*
X151735000Y-93439000D02*
X151738728Y-92528728D01*
X152238728Y-92029000D02*
X160234000Y-92029000D01*
X160734000Y-92529000D02*
X160734000Y-93439000D01*
D10*
X163215000Y-93439000D02*
X149245000Y-93439000D01*
D16*
X163215000Y-93439000D02*
X149245000Y-93439000D01*
X165120000Y-112489000D02*
X165120000Y-95344000D01*
X147340000Y-95344000D02*
G75*
G02*
X149245000Y-93439000I1905001J-1D01*
G01*
X149245000Y-114394000D02*
G75*
G02*
X147340000Y-112489000I1J1905001D01*
G01*
X151738728Y-92528728D02*
G75*
G02*
X152238728Y-92029001I500018J-291D01*
G01*
X160234000Y-92029000D02*
G75*
G02*
X160734000Y-92529000I0J-500000D01*
G01*
X163215000Y-93439000D02*
G75*
G02*
X165120000Y-95344000I0J-1905000D01*
G01*
X165120000Y-112489000D02*
G75*
G02*
X163215000Y-114394000I-1905000J0D01*
G01*
D17*
X147532000Y-93680000D02*
G75*
G02*
X147028000Y-93680000I-252000J0D01*
G01*
X147028000Y-93680000D02*
G75*
G02*
X147532000Y-93680000I252000J0D01*
G01*
X148675000Y-94560000D02*
G75*
G02*
X148171000Y-94560000I-252000J0D01*
G01*
X148171000Y-94560000D02*
G75*
G02*
X148675000Y-94560000I252000J0D01*
G01*
D13*
%TO.C,D18*%
X186500000Y-114950000D02*
X188500000Y-114950000D01*
X188500000Y-116550000D02*
X186500000Y-116550000D01*
D14*
X186150000Y-115150000D02*
G75*
G02*
X185850000Y-115150000I-150000J0D01*
G01*
X185850000Y-115150000D02*
G75*
G02*
X186150000Y-115150000I150000J0D01*
G01*
D13*
%TO.C,D8*%
X186510000Y-132950000D02*
X188510000Y-132950000D01*
X188510000Y-134550000D02*
X186510000Y-134550000D01*
D14*
X186160000Y-133150000D02*
G75*
G02*
X185860000Y-133150000I-150000J0D01*
G01*
X185860000Y-133150000D02*
G75*
G02*
X186160000Y-133150000I150000J0D01*
G01*
D13*
%TO.C,D17*%
X186510000Y-116950000D02*
X188510000Y-116950000D01*
X188510000Y-118550000D02*
X186510000Y-118550000D01*
D14*
X186160000Y-117150000D02*
G75*
G02*
X185860000Y-117150000I-150000J0D01*
G01*
X185860000Y-117150000D02*
G75*
G02*
X186160000Y-117150000I150000J0D01*
G01*
%TD*%
%LPC*%
%TO.C,JP4*%
G36*
X161850000Y-131000000D02*
G01*
X162150000Y-131000000D01*
X162150000Y-132500000D01*
X161850000Y-132500000D01*
X161850000Y-131000000D01*
G37*
%TO.C,JP1*%
G36*
X161850000Y-128500000D02*
G01*
X162150000Y-128500000D01*
X162150000Y-130000000D01*
X161850000Y-130000000D01*
X161850000Y-128500000D01*
G37*
%TO.C,JP3*%
G36*
X161850000Y-123500000D02*
G01*
X162150000Y-123500000D01*
X162150000Y-125000000D01*
X161850000Y-125000000D01*
X161850000Y-123500000D01*
G37*
%TO.C,JP2*%
G36*
X161850000Y-126000000D02*
G01*
X162150000Y-126000000D01*
X162150000Y-127500000D01*
X161850000Y-127500000D01*
X161850000Y-126000000D01*
G37*
%TD*%
D18*
%TO.C,D34*%
X148760000Y-141500000D03*
X147240000Y-141500000D03*
%TD*%
%TO.C,D27*%
X148770000Y-129500000D03*
X147250000Y-129500000D03*
%TD*%
%TO.C,D7*%
X186740000Y-145750000D03*
X188260000Y-145750000D03*
%TD*%
%TO.C,D20*%
X148760000Y-117500000D03*
X147240000Y-117500000D03*
%TD*%
%TO.C,D29*%
X148780000Y-133500000D03*
X147260000Y-133500000D03*
%TD*%
D19*
%TO.C,JP4*%
X161350000Y-131750000D03*
D20*
X162650000Y-131750000D03*
%TD*%
D18*
%TO.C,D9*%
X186750000Y-129750000D03*
X188270000Y-129750000D03*
%TD*%
%TO.C,D14*%
X186740000Y-139750000D03*
X188260000Y-139750000D03*
%TD*%
D19*
%TO.C,JP1*%
X161350000Y-129250000D03*
D20*
X162650000Y-129250000D03*
%TD*%
D18*
%TO.C,D11*%
X186730000Y-149750000D03*
X188250000Y-149750000D03*
%TD*%
D19*
%TO.C,JP3*%
X161350000Y-124250000D03*
D20*
X162650000Y-124250000D03*
%TD*%
D21*
%TO.C,J1*%
X180850000Y-118550000D03*
D22*
X171650000Y-121450000D03*
X171750000Y-116350000D03*
X175850000Y-121150000D03*
X179650000Y-115950000D03*
X181750000Y-116750000D03*
X180850000Y-121150000D03*
%TD*%
D18*
%TO.C,D5*%
X186740000Y-137750000D03*
X188260000Y-137750000D03*
%TD*%
%TO.C,D13*%
X186740000Y-141750000D03*
X188260000Y-141750000D03*
%TD*%
%TO.C,D1*%
X186740000Y-143750000D03*
X188260000Y-143750000D03*
%TD*%
%TO.C,D2*%
X186740000Y-131750000D03*
X188260000Y-131750000D03*
%TD*%
%TO.C,D26*%
X148770000Y-127500000D03*
X147250000Y-127500000D03*
%TD*%
%TO.C,D12*%
X186730000Y-135750000D03*
X188250000Y-135750000D03*
%TD*%
%TO.C,D30*%
X148760000Y-145500000D03*
X147240000Y-145500000D03*
%TD*%
%TO.C,D32*%
X148760000Y-137500000D03*
X147240000Y-137500000D03*
%TD*%
D23*
%TO.C,U1*%
X170665000Y-96360000D03*
D24*
X171500000Y-96360000D03*
D23*
X170665000Y-98900000D03*
D24*
X171500000Y-98900000D03*
D23*
X170665000Y-101440000D03*
D24*
X171500000Y-101440000D03*
D23*
X170665000Y-103980000D03*
D24*
X171500000Y-103980000D03*
D23*
X170665000Y-106520000D03*
D24*
X171500000Y-106520000D03*
D23*
X170665000Y-109060000D03*
D24*
X171500000Y-109060000D03*
D23*
X170665000Y-111600000D03*
D24*
X171500000Y-111600000D03*
X186740000Y-111600000D03*
D25*
X187575000Y-111600000D03*
D24*
X186740000Y-109060000D03*
D25*
X187575000Y-109060000D03*
D24*
X186740000Y-106520000D03*
D25*
X187575000Y-106520000D03*
D24*
X186740000Y-103980000D03*
D25*
X187575000Y-103980000D03*
D24*
X186740000Y-101440000D03*
D25*
X187575000Y-101440000D03*
D24*
X186740000Y-98900000D03*
D25*
X187575000Y-98900000D03*
D24*
X186740000Y-96360000D03*
D25*
X187575000Y-96360000D03*
%TD*%
D18*
%TO.C,D21*%
X148760000Y-119500000D03*
X147240000Y-119500000D03*
%TD*%
%TO.C,D25*%
X148780000Y-125500000D03*
X147260000Y-125500000D03*
%TD*%
%TO.C,D22*%
X148760000Y-121500000D03*
X147240000Y-121500000D03*
%TD*%
%TO.C,D36*%
X148760000Y-147500000D03*
X147240000Y-147500000D03*
%TD*%
%TO.C,D28*%
X148780000Y-131500000D03*
X147260000Y-131500000D03*
%TD*%
%TO.C,D4*%
X186740000Y-119750000D03*
X188260000Y-119750000D03*
%TD*%
%TO.C,D24*%
X148760000Y-143500000D03*
X147240000Y-143500000D03*
%TD*%
%TO.C,D33*%
X148760000Y-139500000D03*
X147240000Y-139500000D03*
%TD*%
%TO.C,D6*%
X186740000Y-123750000D03*
X188260000Y-123750000D03*
%TD*%
%TO.C,D19*%
X148760000Y-115500000D03*
X147240000Y-115500000D03*
%TD*%
%TO.C,D35*%
X148760000Y-149500000D03*
X147240000Y-149500000D03*
%TD*%
D21*
%TO.C,J2*%
X154500000Y-118500000D03*
D22*
X163700000Y-115600000D03*
X163600000Y-120700000D03*
X159500000Y-115900000D03*
X155700000Y-121100000D03*
X153600000Y-120300000D03*
X154500000Y-115900000D03*
%TD*%
D19*
%TO.C,JP2*%
X161350000Y-126750000D03*
D20*
X162650000Y-126750000D03*
%TD*%
D18*
%TO.C,D23*%
X148760000Y-123500000D03*
X147240000Y-123500000D03*
%TD*%
%TO.C,D31*%
X148760000Y-135500000D03*
X147240000Y-135500000D03*
%TD*%
%TO.C,D3*%
X186740000Y-121750000D03*
X188260000Y-121750000D03*
%TD*%
%TO.C,D15*%
X186740000Y-125750000D03*
X188260000Y-125750000D03*
%TD*%
%TO.C,D16*%
X186730000Y-147750000D03*
X188250000Y-147750000D03*
%TD*%
%TO.C,D10*%
X186740000Y-127750000D03*
X188260000Y-127750000D03*
%TD*%
D23*
%TO.C,U2*%
X147775000Y-96360000D03*
D24*
X148610000Y-96360000D03*
D23*
X147775000Y-98900000D03*
D24*
X148610000Y-98900000D03*
D23*
X147775000Y-101440000D03*
D24*
X148610000Y-101440000D03*
D23*
X147775000Y-103980000D03*
D24*
X148610000Y-103980000D03*
D23*
X147775000Y-106520000D03*
D24*
X148610000Y-106520000D03*
D23*
X147775000Y-109060000D03*
D24*
X148610000Y-109060000D03*
D23*
X147775000Y-111600000D03*
D24*
X148610000Y-111600000D03*
X163850000Y-111600000D03*
D25*
X164685000Y-111600000D03*
D24*
X163850000Y-109060000D03*
D25*
X164685000Y-109060000D03*
D24*
X163850000Y-106520000D03*
D25*
X164685000Y-106520000D03*
D24*
X163850000Y-103980000D03*
D25*
X164685000Y-103980000D03*
D24*
X163850000Y-101440000D03*
D25*
X164685000Y-101440000D03*
D24*
X163850000Y-98900000D03*
D25*
X164685000Y-98900000D03*
D24*
X163850000Y-96360000D03*
D25*
X164685000Y-96360000D03*
%TD*%
D18*
%TO.C,D18*%
X186740000Y-115750000D03*
X188260000Y-115750000D03*
%TD*%
%TO.C,D8*%
X186750000Y-133750000D03*
X188270000Y-133750000D03*
%TD*%
%TO.C,D17*%
X186750000Y-117750000D03*
X188270000Y-117750000D03*
%TD*%
D26*
%TO.C,SW14*%
X242580000Y-132500000D03*
D27*
X240040000Y-127420000D03*
D28*
X237500000Y-132500000D03*
D27*
X233690000Y-129960000D03*
D26*
X232420000Y-132500000D03*
%TD*%
%TO.C,SW18*%
X204080000Y-102500000D03*
D27*
X201540000Y-97420000D03*
D28*
X199000000Y-102500000D03*
D27*
X195190000Y-99960000D03*
D26*
X193920000Y-102500000D03*
%TD*%
%TO.C,SW20*%
X121830000Y-99250000D03*
D27*
X119290000Y-94170000D03*
D28*
X116750000Y-99250000D03*
D27*
X112940000Y-96710000D03*
D26*
X111670000Y-99250000D03*
%TD*%
%TO.C,SW3*%
X264323038Y-98265867D03*
D27*
X262052386Y-93059895D03*
D28*
X259250000Y-98000000D03*
D27*
X255578155Y-95264081D03*
D26*
X254176962Y-97734133D03*
%TD*%
%TO.C,SW7*%
X301502823Y-142132133D03*
D27*
X299883544Y-136688243D03*
D28*
X296500000Y-141250000D03*
D27*
X293188949Y-138086989D03*
D26*
X291497177Y-140367867D03*
%TD*%
%TO.C,SW23*%
X58616456Y-118056110D03*
D27*
X55232912Y-113494353D03*
D28*
X53613633Y-118938243D03*
D27*
X49420449Y-117098431D03*
D26*
X48610810Y-119820376D03*
%TD*%
%TO.C,SW16*%
X188273639Y-165262537D03*
D27*
X184149356Y-161357631D03*
D28*
X183500000Y-167000000D03*
D27*
X179051041Y-165916278D03*
D26*
X178726361Y-168737463D03*
%TD*%
%TO.C,SW9*%
X263323038Y-117515867D03*
D27*
X261052386Y-112309895D03*
D28*
X258250000Y-117250000D03*
D27*
X254578155Y-114514081D03*
D26*
X253176962Y-116984133D03*
%TD*%
%TO.C,SW15*%
X223330000Y-118500000D03*
D27*
X220790000Y-113420000D03*
D28*
X218250000Y-118500000D03*
D27*
X214440000Y-115960000D03*
D26*
X213170000Y-118500000D03*
%TD*%
%TO.C,SW22*%
X80573038Y-97734133D03*
D27*
X77770652Y-92794029D03*
D28*
X75500000Y-98000000D03*
D27*
X71562288Y-95662881D03*
D26*
X70426962Y-98265867D03*
%TD*%
%TO.C,SW27*%
X102580000Y-113250000D03*
D27*
X100040000Y-108170000D03*
D28*
X97500000Y-113250000D03*
D27*
X93690000Y-110710000D03*
D26*
X92420000Y-113250000D03*
%TD*%
%TO.C,SW26*%
X121830000Y-118500000D03*
D27*
X119290000Y-113420000D03*
D28*
X116750000Y-118500000D03*
D27*
X112940000Y-115960000D03*
D26*
X111670000Y-118500000D03*
%TD*%
%TO.C,SW28*%
X81573038Y-116984133D03*
D27*
X78770652Y-112044029D03*
D28*
X76500000Y-117250000D03*
D27*
X72562288Y-114912881D03*
D26*
X71426962Y-117515867D03*
%TD*%
%TO.C,SW1*%
X282502823Y-138882133D03*
D27*
X280883544Y-133438243D03*
D28*
X277500000Y-138000000D03*
D27*
X274188949Y-134836989D03*
D26*
X272497177Y-137117867D03*
%TD*%
%TO.C,SW2*%
X285752823Y-119882133D03*
D27*
X284133544Y-114438243D03*
D28*
X280750000Y-119000000D03*
D27*
X277438949Y-115836989D03*
D26*
X275747177Y-118117867D03*
%TD*%
%TO.C,SW30*%
X43002823Y-140367867D03*
D27*
X39619279Y-135806110D03*
D28*
X38000000Y-141250000D03*
D27*
X33806816Y-139410188D03*
D26*
X32997177Y-142132133D03*
%TD*%
%TO.C,SW4*%
X242580000Y-94000000D03*
D27*
X240040000Y-88920000D03*
D28*
X237500000Y-94000000D03*
D27*
X233690000Y-91460000D03*
D26*
X232420000Y-94000000D03*
%TD*%
%TO.C,SW19*%
X141080000Y-102500000D03*
D27*
X138540000Y-97420000D03*
D28*
X136000000Y-102500000D03*
D27*
X132190000Y-99960000D03*
D26*
X130920000Y-102500000D03*
%TD*%
%TO.C,SW36*%
X136526462Y-162369595D03*
D27*
X134907183Y-156925705D03*
D28*
X131523639Y-161487462D03*
D27*
X128212588Y-158324451D03*
D26*
X126520816Y-160605329D03*
%TD*%
%TO.C,SW35*%
X156523639Y-168737462D03*
D27*
X155874283Y-163095093D03*
D28*
X151750000Y-167000000D03*
D27*
X149038502Y-163310084D03*
D26*
X146976361Y-165262538D03*
%TD*%
%TO.C,SW32*%
X121830000Y-137750000D03*
D27*
X119290000Y-132670000D03*
D28*
X116750000Y-137750000D03*
D27*
X112940000Y-135210000D03*
D26*
X111670000Y-137750000D03*
%TD*%
%TO.C,SW21*%
X102580000Y-94000000D03*
D27*
X100040000Y-88920000D03*
D28*
X97500000Y-94000000D03*
D27*
X93690000Y-91460000D03*
D26*
X92420000Y-94000000D03*
%TD*%
%TO.C,SW12*%
X204080000Y-141000000D03*
D27*
X201540000Y-135920000D03*
D28*
X199000000Y-141000000D03*
D27*
X195190000Y-138460000D03*
D26*
X193920000Y-141000000D03*
%TD*%
%TO.C,SW25*%
X141080000Y-121750000D03*
D27*
X138540000Y-116670000D03*
D28*
X136000000Y-121750000D03*
D27*
X132190000Y-119210000D03*
D26*
X130920000Y-121750000D03*
%TD*%
%TO.C,SW10*%
X242580000Y-113250000D03*
D27*
X240040000Y-108170000D03*
D28*
X237500000Y-113250000D03*
D27*
X233690000Y-110710000D03*
D26*
X232420000Y-113250000D03*
%TD*%
%TO.C,SW5*%
X223330000Y-137750000D03*
D27*
X220790000Y-132670000D03*
D28*
X218250000Y-137750000D03*
D27*
X214440000Y-135210000D03*
D26*
X213170000Y-137750000D03*
%TD*%
%TO.C,SW34*%
X82573038Y-136234133D03*
D27*
X79770652Y-131294029D03*
D28*
X77500000Y-136500000D03*
D27*
X73562288Y-134162881D03*
D26*
X72426962Y-136765867D03*
%TD*%
%TO.C,SW33*%
X102580000Y-132500000D03*
D27*
X100040000Y-127420000D03*
D28*
X97500000Y-132500000D03*
D27*
X93690000Y-129960000D03*
D26*
X92420000Y-132500000D03*
%TD*%
%TO.C,SW29*%
X39616456Y-121367867D03*
D27*
X36232912Y-116806110D03*
D28*
X34613633Y-122250000D03*
D27*
X30420449Y-120410188D03*
D26*
X29610810Y-123132133D03*
%TD*%
%TO.C,SW11*%
X208752823Y-160617867D03*
D27*
X205369279Y-156056110D03*
D28*
X203750000Y-161500000D03*
D27*
X199556816Y-159660188D03*
D26*
X198747177Y-162382133D03*
%TD*%
%TO.C,SW13*%
X262323038Y-136765867D03*
D27*
X260052386Y-131559895D03*
D28*
X257250000Y-136500000D03*
D27*
X253578155Y-133764081D03*
D26*
X252176962Y-136234133D03*
%TD*%
%TO.C,SW17*%
X223330000Y-99250000D03*
D27*
X220790000Y-94170000D03*
D28*
X218250000Y-99250000D03*
D27*
X214440000Y-96710000D03*
D26*
X213170000Y-99250000D03*
%TD*%
%TO.C,SW24*%
X62002823Y-137056110D03*
D27*
X58619279Y-132494353D03*
D28*
X57000000Y-137938243D03*
D27*
X52806816Y-136098431D03*
D26*
X51997177Y-138820376D03*
%TD*%
%TO.C,SW31*%
X141080000Y-141000000D03*
D27*
X138540000Y-135920000D03*
D28*
X136000000Y-141000000D03*
D27*
X132190000Y-138460000D03*
D26*
X130920000Y-141000000D03*
%TD*%
%TO.C,SW6*%
X204080000Y-121750000D03*
D27*
X201540000Y-116670000D03*
D28*
X199000000Y-121750000D03*
D27*
X195190000Y-119210000D03*
D26*
X193920000Y-121750000D03*
%TD*%
%TO.C,SW8*%
X304752823Y-123132133D03*
D27*
X303133544Y-117688243D03*
D28*
X299750000Y-122250000D03*
D27*
X296438949Y-119086989D03*
D26*
X294747177Y-121367867D03*
%TD*%
%LPD*%
M02*
