%TF.GenerationSoftware,KiCad,Pcbnew,9.0.7-1.fc43*%
%TF.CreationDate,2026-02-09T10:12:36+11:00*%
%TF.ProjectId,keyboard-split-splay-5x3+2-pinky-cluster,6b657962-6f61-4726-942d-73706c69742d,rev?*%
%TF.SameCoordinates,Original*%
%TF.FileFunction,Drillmap*%
%TF.FilePolarity,Positive*%
%FSLAX45Y45*%
G04 Gerber Fmt 4.5, Leading zero omitted, Abs format (unit mm)*
G04 Created by KiCad (PCBNEW 9.0.7-1.fc43) date 2026-02-09 10:12:36*
%MOMM*%
%LPD*%
G01*
G04 APERTURE LIST*
%ADD10C,0.050000*%
%ADD11C,0.100000*%
%ADD12C,0.200000*%
%ADD13C,0.140000*%
%ADD14C,0.170000*%
%ADD15C,0.300000*%
%ADD16C,0.400000*%
%ADD17C,0.500000*%
G04 APERTURE END LIST*
D10*
X17727772Y-17982151D02*
X17059292Y-16226621D01*
X17045000Y-12310000D02*
X17045000Y-12175000D01*
X13873854Y-17365980D02*
X12075739Y-17049776D01*
X17045000Y-12310000D02*
G75*
G02*
X16895000Y-12460000I-150000J0D01*
G01*
X25014744Y-8654987D02*
G75*
G02*
X24919995Y-8555125I5256J99867D01*
G01*
X20820000Y-9040000D02*
X20820000Y-8900000D01*
X12640000Y-8800000D02*
G75*
G02*
X12740000Y-8900000I0J-100000D01*
G01*
X16932500Y-13055000D02*
G75*
G02*
X17042500Y-13165000I0J-110000D01*
G01*
X6833903Y-15291080D02*
G75*
G02*
X6846183Y-15289681I17467J-98750D01*
G01*
X11994526Y-16934217D02*
X12238532Y-15448472D01*
X16622500Y-14360000D02*
X16942500Y-14360000D01*
X17042500Y-14060000D02*
X17042500Y-13165000D01*
X21320000Y-15415000D02*
X21572643Y-16941485D01*
X17042500Y-15640000D02*
X17042500Y-14460000D01*
X20920000Y-8800000D02*
X22610000Y-8800000D01*
X31181585Y-11872577D02*
G75*
G02*
X31262633Y-11988425I-17435J-98473D01*
G01*
X22710000Y-8700000D02*
X22710000Y-8400000D01*
X8963897Y-15180315D02*
G75*
G02*
X8976096Y-15180430I5163J-99675D01*
G01*
X6365315Y-8869915D02*
G75*
G02*
X6459917Y-8764741I99855J5315D01*
G01*
X12840000Y-9140000D02*
G75*
G02*
X12740000Y-9040000I0J100000D01*
G01*
X16570000Y-11530000D02*
X16500000Y-11530000D01*
X10850000Y-8400000D02*
X10850000Y-8700000D01*
X10673525Y-15300000D02*
G75*
G02*
X10666484Y-15299752I5J100050D01*
G01*
X15839736Y-17974669D02*
G75*
G02*
X15711866Y-18033584I-93656J35049D01*
G01*
X24583904Y-15180430D02*
G75*
G02*
X24596103Y-15180316I7036J-99610D01*
G01*
X19676752Y-17378003D02*
X17855649Y-18041084D01*
X12740000Y-8900000D02*
X12740000Y-9040000D01*
X17060000Y-12175000D02*
X17045000Y-12175000D01*
X13873854Y-17365980D02*
G75*
G02*
X13890748Y-17370503I-17314J-98470D01*
G01*
X16670000Y-12460000D02*
X16895000Y-12460000D01*
X27099982Y-8764736D02*
G75*
G02*
X27194575Y-8870010I-5252J-99854D01*
G01*
X12240000Y-15431402D02*
X12240000Y-15400000D01*
X17855649Y-18041084D02*
G75*
G02*
X17727767Y-17982153I-34219J93964D01*
G01*
X16522625Y-14460000D02*
X16522514Y-15639986D01*
X15711864Y-18033589D02*
X13890748Y-17370503D01*
X8740000Y-8300000D02*
X10750000Y-8300000D01*
X21320000Y-15415000D02*
G75*
G02*
X21420000Y-15298881I100000J15000D01*
G01*
X16990000Y-9140000D02*
X20720000Y-9140000D01*
X16506264Y-16227960D02*
G75*
G02*
X16646948Y-16130007I140676J-52040D01*
G01*
X27194579Y-8870010D02*
X27102915Y-11061093D01*
X16500000Y-12175000D02*
X16520000Y-12175000D01*
X16919111Y-16130000D02*
G75*
G02*
X17059291Y-16226621I-1J-150000D01*
G01*
X6455300Y-11061644D02*
X6365315Y-8869915D01*
X16670000Y-12460000D02*
G75*
G02*
X16520000Y-12310000I0J150000D01*
G01*
X16672514Y-15790000D02*
G75*
G02*
X16522510Y-15639986I-4J150000D01*
G01*
X19676752Y-17378003D02*
G75*
G02*
X19693646Y-17373480I34198J-93927D01*
G01*
X20820000Y-9040000D02*
G75*
G02*
X20720000Y-9140000I-100000J0D01*
G01*
X2378415Y-11872577D02*
X6372874Y-11165424D01*
X12140000Y-15300000D02*
G75*
G02*
X12240000Y-15400000I0J-100000D01*
G01*
X26713817Y-15289681D02*
X24596103Y-15180315D01*
X30461473Y-15952553D02*
X26726096Y-15291080D01*
X16892500Y-15790000D02*
X16672514Y-15790000D01*
X17060000Y-11530000D02*
X16990000Y-11530000D01*
X16919111Y-16130000D02*
X16646948Y-16130000D01*
X21491479Y-17057325D02*
X19693646Y-17373480D01*
X2297369Y-11988425D02*
G75*
G02*
X2378415Y-11872577I98478J17379D01*
G01*
X8640000Y-8400000D02*
G75*
G02*
X8740000Y-8300000I100000J0D01*
G01*
X16632500Y-13055000D02*
X16932500Y-13055000D01*
X22893516Y-15299752D02*
G75*
G02*
X22886475Y-15300000I-7036J99642D01*
G01*
X8640000Y-8555125D02*
G75*
G02*
X8545256Y-8654991I-100010J5D01*
G01*
X12240000Y-15431402D02*
G75*
G02*
X12238532Y-15448472I-100010J2D01*
G01*
X22810000Y-8300000D02*
X24820000Y-8300000D01*
X12840000Y-9140000D02*
X16570000Y-9140000D01*
X24820000Y-8300000D02*
G75*
G02*
X24920000Y-8400000I0J-100000D01*
G01*
X6455300Y-11061644D02*
G75*
G02*
X6372873Y-11165422I-99850J-5316D01*
G01*
X12075739Y-17049776D02*
G75*
G02*
X11994531Y-16934218I17321J98486D01*
G01*
X10750000Y-8300000D02*
G75*
G02*
X10850000Y-8400000I0J-100000D01*
G01*
X10950000Y-8800000D02*
X12640000Y-8800000D01*
X16570000Y-9140000D02*
G75*
G02*
X16670000Y-9240000I0J-100000D01*
G01*
X24920000Y-8400000D02*
X24920000Y-8555125D01*
X16520000Y-12175000D02*
X16520000Y-12310000D01*
X6459917Y-8764741D02*
X8545256Y-8654987D01*
X6833903Y-15291080D02*
X3098526Y-15952553D01*
X30577389Y-15871463D02*
G75*
G02*
X30461474Y-15952550I-98479J17383D01*
G01*
X22710000Y-8700000D02*
G75*
G02*
X22610000Y-8800000I-100000J0D01*
G01*
X25014744Y-8654987D02*
X27099982Y-8764736D01*
X10950000Y-8800000D02*
G75*
G02*
X10850000Y-8700000I0J100000D01*
G01*
X12140000Y-15300000D02*
X10673525Y-15300000D01*
X21572643Y-16941485D02*
G75*
G02*
X21491480Y-17057329I-98483J-17355D01*
G01*
X16670000Y-9240000D02*
X16670000Y-11430000D01*
X16522500Y-13165000D02*
X16522500Y-14060000D01*
X27185336Y-11165108D02*
G75*
G02*
X27102907Y-11061226I17434J98478D01*
G01*
X16622500Y-14160000D02*
X16942500Y-14160000D01*
X16670000Y-11430000D02*
G75*
G02*
X16570000Y-11530000I-100000J0D01*
G01*
X31262631Y-11988425D02*
X30577389Y-15871463D01*
X8640000Y-8555125D02*
X8640000Y-8400000D01*
X16990000Y-11530000D02*
G75*
G02*
X16890000Y-11430000I0J100000D01*
G01*
X10666484Y-15299752D02*
X8976096Y-15180430D01*
X16890000Y-11430000D02*
X16890000Y-9240000D01*
X2982611Y-15871463D02*
X2297369Y-11988425D01*
X27185336Y-11165108D02*
X31181585Y-11872577D01*
X16522500Y-13165000D02*
G75*
G02*
X16632500Y-13055000I110000J0D01*
G01*
X24583904Y-15180430D02*
X22893516Y-15299752D01*
X16506264Y-16227960D02*
X15839736Y-17974669D01*
X3098526Y-15952553D02*
G75*
G02*
X2982616Y-15871462I-17437J98463D01*
G01*
X20820000Y-8900000D02*
G75*
G02*
X20920000Y-8800000I100000J0D01*
G01*
X16890000Y-9240000D02*
G75*
G02*
X16990000Y-9140000I100000J0D01*
G01*
X26713817Y-15289681D02*
G75*
G02*
X26726096Y-15291079I-5147J-99779D01*
G01*
X22710000Y-8400000D02*
G75*
G02*
X22810000Y-8300000I100000J0D01*
G01*
X17042500Y-15640000D02*
G75*
G02*
X16892500Y-15790000I-150000J0D01*
G01*
X22886475Y-15300000D02*
X21420000Y-15298881D01*
X8963897Y-15180315D02*
X6846183Y-15289681D01*
D11*
X16942500Y-14360000D02*
G75*
G02*
X17042500Y-14460000I0J-100000D01*
G01*
X17042500Y-14060000D02*
G75*
G02*
X16942500Y-14160000I-100000J0D01*
G01*
D10*
X17060000Y-11690000D02*
X17060000Y-11530000D01*
X17060000Y-12020000D02*
X17060000Y-12175000D01*
X17180000Y-11690000D02*
X17060000Y-11690000D01*
X17180000Y-11690000D02*
X17180000Y-12020000D01*
X17180000Y-12020000D02*
X17060000Y-12020000D01*
X16380000Y-11685000D02*
X16500000Y-11685000D01*
X16380000Y-12015000D02*
X16380000Y-11685000D01*
X16380000Y-12015000D02*
X16500000Y-12015000D01*
X16500000Y-11685000D02*
X16500000Y-11530000D01*
X16500000Y-12015000D02*
X16500000Y-12175000D01*
D11*
X16522500Y-14460000D02*
G75*
G02*
X16622500Y-14360000I100000J0D01*
G01*
X16622500Y-14160000D02*
G75*
G02*
X16522500Y-14060000I0J100000D01*
G01*
D12*
D11*
X16472500Y-14065000D02*
X16522500Y-14115000D01*
X16522500Y-14065000D02*
X16472500Y-14115000D01*
X16472500Y-14150000D02*
X16522500Y-14200000D01*
X16522500Y-14150000D02*
X16472500Y-14200000D01*
X16472500Y-14235000D02*
X16522500Y-14285000D01*
X16522500Y-14235000D02*
X16472500Y-14285000D01*
X16472500Y-14320000D02*
X16522500Y-14370000D01*
X16522500Y-14320000D02*
X16472500Y-14370000D01*
X16472500Y-14405000D02*
X16522500Y-14455000D01*
X16522500Y-14405000D02*
X16472500Y-14455000D01*
X16517500Y-15765000D02*
X16567500Y-15815000D01*
X16567500Y-15765000D02*
X16517500Y-15815000D01*
X16517500Y-15850000D02*
X16567500Y-15900000D01*
X16567500Y-15850000D02*
X16517500Y-15900000D01*
X16517500Y-15935000D02*
X16567500Y-15985000D01*
X16567500Y-15935000D02*
X16517500Y-15985000D01*
X16517500Y-16020000D02*
X16567500Y-16070000D01*
X16567500Y-16020000D02*
X16517500Y-16070000D01*
X16517500Y-16105000D02*
X16567500Y-16155000D01*
X16567500Y-16105000D02*
X16517500Y-16155000D01*
X16997500Y-15765000D02*
X17047500Y-15815000D01*
X17047500Y-15765000D02*
X16997500Y-15815000D01*
X16997500Y-15850000D02*
X17047500Y-15900000D01*
X17047500Y-15850000D02*
X16997500Y-15900000D01*
X16997500Y-15935000D02*
X17047500Y-15985000D01*
X17047500Y-15935000D02*
X16997500Y-15985000D01*
X16997500Y-16020000D02*
X17047500Y-16070000D01*
X17047500Y-16020000D02*
X16997500Y-16070000D01*
X16997500Y-16105000D02*
X17047500Y-16155000D01*
X17047500Y-16105000D02*
X16997500Y-16155000D01*
X17042500Y-14065000D02*
X17092500Y-14115000D01*
X17092500Y-14065000D02*
X17042500Y-14115000D01*
X17042500Y-14150000D02*
X17092500Y-14200000D01*
X17092500Y-14150000D02*
X17042500Y-14200000D01*
X17042500Y-14235000D02*
X17092500Y-14285000D01*
X17092500Y-14235000D02*
X17042500Y-14285000D01*
X17042500Y-14320000D02*
X17092500Y-14370000D01*
X17092500Y-14320000D02*
X17042500Y-14370000D01*
X17042500Y-14405000D02*
X17092500Y-14455000D01*
X17092500Y-14405000D02*
X17042500Y-14455000D01*
D13*
X15520000Y-11850000D02*
G75*
G02*
X15380000Y-11850000I-70000J0D01*
G01*
X15380000Y-11850000D02*
G75*
G02*
X15520000Y-11850000I70000J0D01*
G01*
X18180000Y-11855000D02*
G75*
G02*
X18040000Y-11855000I-70000J0D01*
G01*
X18040000Y-11855000D02*
G75*
G02*
X18180000Y-11855000I70000J0D01*
G01*
D14*
X2959718Y-12728213D02*
X2959718Y-12898213D01*
X2874718Y-12813213D02*
X3044718Y-12813213D01*
X3299718Y-14628213D02*
X3299718Y-14798213D01*
X3214718Y-14713213D02*
X3384718Y-14713213D01*
X3960282Y-12551787D02*
X3960282Y-12721787D01*
X3875282Y-12636787D02*
X4045282Y-12636787D01*
X4300282Y-14451787D02*
X4300282Y-14621787D01*
X4215282Y-14536787D02*
X4385282Y-14536787D01*
X4859718Y-12403213D02*
X4859718Y-12573213D01*
X4774718Y-12488213D02*
X4944718Y-12488213D01*
X5199718Y-14303213D02*
X5199718Y-14473213D01*
X5114718Y-14388213D02*
X5284718Y-14388213D01*
X5860282Y-12226787D02*
X5860282Y-12396787D01*
X5775282Y-12311787D02*
X5945282Y-12311787D01*
X6200282Y-14126787D02*
X6200282Y-14296787D01*
X6115282Y-14211787D02*
X6285282Y-14211787D01*
X7042696Y-9741587D02*
X7042696Y-9911587D01*
X6957696Y-9826587D02*
X7127696Y-9826587D01*
X7142696Y-11666587D02*
X7142696Y-11836587D01*
X7057696Y-11751587D02*
X7227696Y-11751587D01*
X7242696Y-13591587D02*
X7242696Y-13761587D01*
X7157696Y-13676587D02*
X7327696Y-13676587D01*
X8057304Y-9688413D02*
X8057304Y-9858413D01*
X7972304Y-9773413D02*
X8142304Y-9773413D01*
X8157304Y-11613413D02*
X8157304Y-11783413D01*
X8072304Y-11698413D02*
X8242304Y-11698413D01*
X8257304Y-13538413D02*
X8257304Y-13708413D01*
X8172304Y-13623413D02*
X8342304Y-13623413D01*
X9242000Y-9315000D02*
X9242000Y-9485000D01*
X9157000Y-9400000D02*
X9327000Y-9400000D01*
X9242000Y-11240000D02*
X9242000Y-11410000D01*
X9157000Y-11325000D02*
X9327000Y-11325000D01*
X9242000Y-13165000D02*
X9242000Y-13335000D01*
X9157000Y-13250000D02*
X9327000Y-13250000D01*
X10258000Y-9315000D02*
X10258000Y-9485000D01*
X10173000Y-9400000D02*
X10343000Y-9400000D01*
X10258000Y-11240000D02*
X10258000Y-11410000D01*
X10173000Y-11325000D02*
X10343000Y-11325000D01*
X10258000Y-13165000D02*
X10258000Y-13335000D01*
X10173000Y-13250000D02*
X10343000Y-13250000D01*
X11167000Y-9840000D02*
X11167000Y-10010000D01*
X11082000Y-9925000D02*
X11252000Y-9925000D01*
X11167000Y-11765000D02*
X11167000Y-11935000D01*
X11082000Y-11850000D02*
X11252000Y-11850000D01*
X11167000Y-13690000D02*
X11167000Y-13860000D01*
X11082000Y-13775000D02*
X11252000Y-13775000D01*
X12183000Y-9840000D02*
X12183000Y-10010000D01*
X12098000Y-9925000D02*
X12268000Y-9925000D01*
X12183000Y-11765000D02*
X12183000Y-11935000D01*
X12098000Y-11850000D02*
X12268000Y-11850000D01*
X12183000Y-13690000D02*
X12183000Y-13860000D01*
X12098000Y-13775000D02*
X12268000Y-13775000D01*
X12659718Y-15976787D02*
X12659718Y-16146787D01*
X12574718Y-16061787D02*
X12744718Y-16061787D01*
X13092000Y-10165000D02*
X13092000Y-10335000D01*
X13007000Y-10250000D02*
X13177000Y-10250000D01*
X13092000Y-12090000D02*
X13092000Y-12260000D01*
X13007000Y-12175000D02*
X13177000Y-12175000D01*
X13092000Y-14015000D02*
X13092000Y-14185000D01*
X13007000Y-14100000D02*
X13177000Y-14100000D01*
X13660282Y-16153213D02*
X13660282Y-16323213D01*
X13575282Y-16238213D02*
X13745282Y-16238213D01*
X14108000Y-10165000D02*
X14108000Y-10335000D01*
X14023000Y-10250000D02*
X14193000Y-10250000D01*
X14108000Y-12090000D02*
X14108000Y-12260000D01*
X14023000Y-12175000D02*
X14193000Y-12175000D01*
X14108000Y-14015000D02*
X14108000Y-14185000D01*
X14023000Y-14100000D02*
X14193000Y-14100000D01*
X14697636Y-16441254D02*
X14697636Y-16611254D01*
X14612636Y-16526254D02*
X14782636Y-16526254D01*
X15652364Y-16788746D02*
X15652364Y-16958746D01*
X15567364Y-16873746D02*
X15737364Y-16873746D01*
X17907636Y-16788746D02*
X17907636Y-16958746D01*
X17822636Y-16873746D02*
X17992636Y-16873746D01*
X18862364Y-16441254D02*
X18862364Y-16611254D01*
X18777364Y-16526254D02*
X18947364Y-16526254D01*
X19452000Y-10165000D02*
X19452000Y-10335000D01*
X19367000Y-10250000D02*
X19537000Y-10250000D01*
X19452000Y-12090000D02*
X19452000Y-12260000D01*
X19367000Y-12175000D02*
X19537000Y-12175000D01*
X19452000Y-14015000D02*
X19452000Y-14185000D01*
X19367000Y-14100000D02*
X19537000Y-14100000D01*
X19899718Y-16153213D02*
X19899718Y-16323213D01*
X19814718Y-16238213D02*
X19984718Y-16238213D01*
X20468000Y-10165000D02*
X20468000Y-10335000D01*
X20383000Y-10250000D02*
X20553000Y-10250000D01*
X20468000Y-12090000D02*
X20468000Y-12260000D01*
X20383000Y-12175000D02*
X20553000Y-12175000D01*
X20468000Y-14015000D02*
X20468000Y-14185000D01*
X20383000Y-14100000D02*
X20553000Y-14100000D01*
X20900282Y-15976787D02*
X20900282Y-16146787D01*
X20815282Y-16061787D02*
X20985282Y-16061787D01*
X21377000Y-9840000D02*
X21377000Y-10010000D01*
X21292000Y-9925000D02*
X21462000Y-9925000D01*
X21377000Y-11765000D02*
X21377000Y-11935000D01*
X21292000Y-11850000D02*
X21462000Y-11850000D01*
X21377000Y-13690000D02*
X21377000Y-13860000D01*
X21292000Y-13775000D02*
X21462000Y-13775000D01*
X22393000Y-9840000D02*
X22393000Y-10010000D01*
X22308000Y-9925000D02*
X22478000Y-9925000D01*
X22393000Y-11765000D02*
X22393000Y-11935000D01*
X22308000Y-11850000D02*
X22478000Y-11850000D01*
X22393000Y-13690000D02*
X22393000Y-13860000D01*
X22308000Y-13775000D02*
X22478000Y-13775000D01*
X23302000Y-9315000D02*
X23302000Y-9485000D01*
X23217000Y-9400000D02*
X23387000Y-9400000D01*
X23302000Y-11240000D02*
X23302000Y-11410000D01*
X23217000Y-11325000D02*
X23387000Y-11325000D01*
X23302000Y-13165000D02*
X23302000Y-13335000D01*
X23217000Y-13250000D02*
X23387000Y-13250000D01*
X24318000Y-9315000D02*
X24318000Y-9485000D01*
X24233000Y-9400000D02*
X24403000Y-9400000D01*
X24318000Y-11240000D02*
X24318000Y-11410000D01*
X24233000Y-11325000D02*
X24403000Y-11325000D01*
X24318000Y-13165000D02*
X24318000Y-13335000D01*
X24233000Y-13250000D02*
X24403000Y-13250000D01*
X25302696Y-13538413D02*
X25302696Y-13708413D01*
X25217696Y-13623413D02*
X25387696Y-13623413D01*
X25402696Y-11613413D02*
X25402696Y-11783413D01*
X25317696Y-11698413D02*
X25487696Y-11698413D01*
X25502696Y-9688413D02*
X25502696Y-9858413D01*
X25417696Y-9773413D02*
X25587696Y-9773413D01*
X26317304Y-13591587D02*
X26317304Y-13761587D01*
X26232304Y-13676587D02*
X26402304Y-13676587D01*
X26417304Y-11666587D02*
X26417304Y-11836587D01*
X26332304Y-11751587D02*
X26502304Y-11751587D01*
X26517304Y-9741587D02*
X26517304Y-9911587D01*
X26432304Y-9826587D02*
X26602304Y-9826587D01*
X27359718Y-14126787D02*
X27359718Y-14296787D01*
X27274718Y-14211787D02*
X27444718Y-14211787D01*
X27699718Y-12226787D02*
X27699718Y-12396787D01*
X27614718Y-12311787D02*
X27784718Y-12311787D01*
X28360282Y-14303213D02*
X28360282Y-14473213D01*
X28275282Y-14388213D02*
X28445282Y-14388213D01*
X28700282Y-12403213D02*
X28700282Y-12573213D01*
X28615282Y-12488213D02*
X28785282Y-12488213D01*
X29259718Y-14451787D02*
X29259718Y-14621787D01*
X29174718Y-14536787D02*
X29344718Y-14536787D01*
X29599718Y-12551787D02*
X29599718Y-12721787D01*
X29514718Y-12636787D02*
X29684718Y-12636787D01*
X30260282Y-14628213D02*
X30260282Y-14798213D01*
X30175282Y-14713213D02*
X30345282Y-14713213D01*
X30600282Y-12728213D02*
X30600282Y-12898213D01*
X30515282Y-12813213D02*
X30685282Y-12813213D01*
D15*
X3146749Y-12647086D02*
X3146749Y-12434952D01*
X2934615Y-12434952D01*
X2934615Y-12647086D01*
X3146749Y-12647086D01*
X3486749Y-14547086D02*
X3486749Y-14334952D01*
X3274615Y-14334952D01*
X3274615Y-14547086D01*
X3486749Y-14547086D01*
X3727995Y-12286678D02*
X3727995Y-12074544D01*
X3515861Y-12074544D01*
X3515861Y-12286678D01*
X3727995Y-12286678D01*
X4067995Y-14186678D02*
X4067995Y-13974544D01*
X3855861Y-13974544D01*
X3855861Y-14186678D01*
X4067995Y-14186678D01*
X5046749Y-12322086D02*
X5046749Y-12109952D01*
X4834615Y-12109952D01*
X4834615Y-12322086D01*
X5046749Y-12322086D01*
X5386749Y-14222086D02*
X5386749Y-14009952D01*
X5174615Y-14009952D01*
X5174615Y-14222086D01*
X5386749Y-14222086D01*
X5627995Y-11961678D02*
X5627995Y-11749544D01*
X5415861Y-11749544D01*
X5415861Y-11961678D01*
X5627995Y-11961678D01*
X5967995Y-13861678D02*
X5967995Y-13649544D01*
X5755861Y-13649544D01*
X5755861Y-13861678D01*
X5967995Y-13861678D01*
X7262296Y-9672355D02*
X7262296Y-9460221D01*
X7050162Y-9460221D01*
X7050162Y-9672355D01*
X7262296Y-9672355D01*
X7362296Y-11597355D02*
X7362296Y-11385221D01*
X7150162Y-11385221D01*
X7150162Y-11597355D01*
X7362296Y-11597355D01*
X7462296Y-13522355D02*
X7462296Y-13310221D01*
X7250162Y-13310221D01*
X7250162Y-13522355D01*
X7462296Y-13522355D01*
X7883132Y-9385470D02*
X7883132Y-9173336D01*
X7670998Y-9173336D01*
X7670998Y-9385470D01*
X7883132Y-9385470D01*
X7983132Y-11310470D02*
X7983132Y-11098336D01*
X7770998Y-11098336D01*
X7770998Y-11310470D01*
X7983132Y-11310470D01*
X8083132Y-13235470D02*
X8083132Y-13023336D01*
X7870998Y-13023336D01*
X7870998Y-13235470D01*
X8083132Y-13235470D01*
X9475067Y-9252067D02*
X9475067Y-9039933D01*
X9262933Y-9039933D01*
X9262933Y-9252067D01*
X9475067Y-9252067D01*
X9475067Y-11177067D02*
X9475067Y-10964933D01*
X9262933Y-10964933D01*
X9262933Y-11177067D01*
X9475067Y-11177067D01*
X9475067Y-13102067D02*
X9475067Y-12889933D01*
X9262933Y-12889933D01*
X9262933Y-13102067D01*
X9475067Y-13102067D01*
X10110067Y-8998067D02*
X10110067Y-8785933D01*
X9897933Y-8785933D01*
X9897933Y-8998067D01*
X10110067Y-8998067D01*
X10110067Y-10923067D02*
X10110067Y-10710933D01*
X9897933Y-10710933D01*
X9897933Y-10923067D01*
X10110067Y-10923067D01*
X10110067Y-12848067D02*
X10110067Y-12635933D01*
X9897933Y-12635933D01*
X9897933Y-12848067D01*
X10110067Y-12848067D01*
X11400067Y-9777067D02*
X11400067Y-9564933D01*
X11187933Y-9564933D01*
X11187933Y-9777067D01*
X11400067Y-9777067D01*
X11400067Y-11702067D02*
X11400067Y-11489933D01*
X11187933Y-11489933D01*
X11187933Y-11702067D01*
X11400067Y-11702067D01*
X11400067Y-13627067D02*
X11400067Y-13414933D01*
X11187933Y-13414933D01*
X11187933Y-13627067D01*
X11400067Y-13627067D01*
X12035067Y-9523067D02*
X12035067Y-9310933D01*
X11822933Y-9310933D01*
X11822933Y-9523067D01*
X12035067Y-9523067D01*
X12035067Y-11448067D02*
X12035067Y-11235933D01*
X11822933Y-11235933D01*
X11822933Y-11448067D01*
X12035067Y-11448067D01*
X12035067Y-13373067D02*
X12035067Y-13160933D01*
X11822933Y-13160933D01*
X11822933Y-13373067D01*
X12035067Y-13373067D01*
X12934962Y-15939766D02*
X12934962Y-15727632D01*
X12722828Y-15727632D01*
X12722828Y-15939766D01*
X12934962Y-15939766D01*
X13325067Y-10102067D02*
X13325067Y-9889933D01*
X13112933Y-9889933D01*
X13112933Y-10102067D01*
X13325067Y-10102067D01*
X13325067Y-12027067D02*
X13325067Y-11814933D01*
X13112933Y-11814933D01*
X13112933Y-12027067D01*
X13325067Y-12027067D01*
X13325067Y-13952067D02*
X13325067Y-13739933D01*
X13112933Y-13739933D01*
X13112933Y-13952067D01*
X13325067Y-13952067D01*
X13604421Y-15799891D02*
X13604421Y-15587757D01*
X13392287Y-15587757D01*
X13392287Y-15799891D01*
X13604421Y-15799891D01*
X13960067Y-9848067D02*
X13960067Y-9635933D01*
X13747933Y-9635933D01*
X13747933Y-9848067D01*
X13960067Y-9848067D01*
X13960067Y-11773067D02*
X13960067Y-11560933D01*
X13747933Y-11560933D01*
X13747933Y-11773067D01*
X13960067Y-11773067D01*
X13960067Y-13698067D02*
X13960067Y-13485933D01*
X13747933Y-13485933D01*
X13747933Y-13698067D01*
X13960067Y-13698067D01*
X15009917Y-16437075D02*
X15009917Y-16224941D01*
X14797783Y-16224941D01*
X14797783Y-16437075D01*
X15009917Y-16437075D01*
X15693495Y-16415576D02*
X15693495Y-16203442D01*
X15481361Y-16203442D01*
X15481361Y-16415576D01*
X15693495Y-16415576D01*
X18046171Y-16697695D02*
X18046171Y-16485561D01*
X17834037Y-16485561D01*
X17834037Y-16697695D01*
X18046171Y-16697695D01*
X18556003Y-16241830D02*
X18556003Y-16029696D01*
X18343869Y-16029696D01*
X18343869Y-16241830D01*
X18556003Y-16241830D01*
X19685067Y-10102067D02*
X19685067Y-9889933D01*
X19472933Y-9889933D01*
X19472933Y-10102067D01*
X19685067Y-10102067D01*
X19685067Y-12027067D02*
X19685067Y-11814933D01*
X19472933Y-11814933D01*
X19472933Y-12027067D01*
X19685067Y-12027067D01*
X19685067Y-13952067D02*
X19685067Y-13739933D01*
X19472933Y-13739933D01*
X19472933Y-13952067D01*
X19685067Y-13952067D01*
X20086749Y-16072086D02*
X20086749Y-15859952D01*
X19874615Y-15859952D01*
X19874615Y-16072086D01*
X20086749Y-16072086D01*
X20320067Y-9848067D02*
X20320067Y-9635933D01*
X20107933Y-9635933D01*
X20107933Y-9848067D01*
X20320067Y-9848067D01*
X20320067Y-11773067D02*
X20320067Y-11560933D01*
X20107933Y-11560933D01*
X20107933Y-11773067D01*
X20320067Y-11773067D01*
X20320067Y-13698067D02*
X20320067Y-13485933D01*
X20107933Y-13485933D01*
X20107933Y-13698067D01*
X20320067Y-13698067D01*
X20667995Y-15711678D02*
X20667995Y-15499544D01*
X20455861Y-15499544D01*
X20455861Y-15711678D01*
X20667995Y-15711678D01*
X21610067Y-9777067D02*
X21610067Y-9564933D01*
X21397933Y-9564933D01*
X21397933Y-9777067D01*
X21610067Y-9777067D01*
X21610067Y-11702067D02*
X21610067Y-11489933D01*
X21397933Y-11489933D01*
X21397933Y-11702067D01*
X21610067Y-11702067D01*
X21610067Y-13627067D02*
X21610067Y-13414933D01*
X21397933Y-13414933D01*
X21397933Y-13627067D01*
X21610067Y-13627067D01*
X22245067Y-9523067D02*
X22245067Y-9310933D01*
X22032933Y-9310933D01*
X22032933Y-9523067D01*
X22245067Y-9523067D01*
X22245067Y-11448067D02*
X22245067Y-11235933D01*
X22032933Y-11235933D01*
X22032933Y-11448067D01*
X22245067Y-11448067D01*
X22245067Y-13373067D02*
X22245067Y-13160933D01*
X22032933Y-13160933D01*
X22032933Y-13373067D01*
X22245067Y-13373067D01*
X23535067Y-9252067D02*
X23535067Y-9039933D01*
X23322933Y-9039933D01*
X23322933Y-9252067D01*
X23535067Y-9252067D01*
X23535067Y-11177067D02*
X23535067Y-10964933D01*
X23322933Y-10964933D01*
X23322933Y-11177067D01*
X23535067Y-11177067D01*
X23535067Y-13102067D02*
X23535067Y-12889933D01*
X23322933Y-12889933D01*
X23322933Y-13102067D01*
X23535067Y-13102067D01*
X24170067Y-8998067D02*
X24170067Y-8785933D01*
X23957933Y-8785933D01*
X23957933Y-8998067D01*
X24170067Y-8998067D01*
X24170067Y-10923067D02*
X24170067Y-10710933D01*
X23957933Y-10710933D01*
X23957933Y-10923067D01*
X24170067Y-10923067D01*
X24170067Y-12848067D02*
X24170067Y-12635933D01*
X23957933Y-12635933D01*
X23957933Y-12848067D01*
X24170067Y-12848067D01*
X25548882Y-13482475D02*
X25548882Y-13270341D01*
X25336748Y-13270341D01*
X25336748Y-13482475D01*
X25548882Y-13482475D01*
X25648882Y-11557475D02*
X25648882Y-11345341D01*
X25436748Y-11345341D01*
X25436748Y-11557475D01*
X25648882Y-11557475D01*
X25748882Y-9632475D02*
X25748882Y-9420341D01*
X25536748Y-9420341D01*
X25536748Y-9632475D01*
X25748882Y-9632475D01*
X26196306Y-13262056D02*
X26196306Y-13049922D01*
X25984172Y-13049922D01*
X25984172Y-13262056D01*
X26196306Y-13262056D01*
X26296306Y-11337056D02*
X26296306Y-11124923D01*
X26084172Y-11124923D01*
X26084172Y-11337056D01*
X26296306Y-11337056D01*
X26396306Y-9412057D02*
X26396306Y-9199923D01*
X26184172Y-9199923D01*
X26184172Y-9412057D01*
X26396306Y-9412057D01*
X27634962Y-14089766D02*
X27634962Y-13877632D01*
X27422828Y-13877632D01*
X27422828Y-14089766D01*
X27634962Y-14089766D01*
X27974962Y-12189766D02*
X27974962Y-11977632D01*
X27762828Y-11977632D01*
X27762828Y-12189766D01*
X27974962Y-12189766D01*
X28304421Y-13949891D02*
X28304421Y-13737757D01*
X28092287Y-13737757D01*
X28092287Y-13949891D01*
X28304421Y-13949891D01*
X28644421Y-12049891D02*
X28644421Y-11837757D01*
X28432287Y-11837757D01*
X28432287Y-12049891D01*
X28644421Y-12049891D01*
X29534962Y-14414766D02*
X29534962Y-14202632D01*
X29322828Y-14202632D01*
X29322828Y-14414766D01*
X29534962Y-14414766D01*
X29874962Y-12514766D02*
X29874962Y-12302632D01*
X29662828Y-12302632D01*
X29662828Y-12514766D01*
X29874962Y-12514766D01*
X30204421Y-14274891D02*
X30204421Y-14062757D01*
X29992287Y-14062757D01*
X29992287Y-14274891D01*
X30204421Y-14274891D01*
X30544421Y-12374891D02*
X30544421Y-12162757D01*
X30332287Y-12162757D01*
X30332287Y-12374891D01*
X30544421Y-12374891D01*
D16*
X3460000Y-12925000D02*
X3660000Y-12725000D01*
X3460000Y-12525000D01*
X3260000Y-12725000D01*
X3460000Y-12925000D01*
X3800000Y-14825000D02*
X4000000Y-14625000D01*
X3800000Y-14425000D01*
X3600000Y-14625000D01*
X3800000Y-14825000D01*
X5360000Y-12600000D02*
X5560000Y-12400000D01*
X5360000Y-12200000D01*
X5160000Y-12400000D01*
X5360000Y-12600000D01*
X5700000Y-14500000D02*
X5900000Y-14300000D01*
X5700000Y-14100000D01*
X5500000Y-14300000D01*
X5700000Y-14500000D01*
X7550000Y-10000000D02*
X7750000Y-9800000D01*
X7550000Y-9600000D01*
X7350000Y-9800000D01*
X7550000Y-10000000D01*
X7650000Y-11925000D02*
X7850000Y-11725000D01*
X7650000Y-11525000D01*
X7450000Y-11725000D01*
X7650000Y-11925000D01*
X7750000Y-13850000D02*
X7950000Y-13650000D01*
X7750000Y-13450000D01*
X7550000Y-13650000D01*
X7750000Y-13850000D01*
X9750000Y-9600000D02*
X9950000Y-9400000D01*
X9750000Y-9200000D01*
X9550000Y-9400000D01*
X9750000Y-9600000D01*
X9750000Y-11525000D02*
X9950000Y-11325000D01*
X9750000Y-11125000D01*
X9550000Y-11325000D01*
X9750000Y-11525000D01*
X9750000Y-13450000D02*
X9950000Y-13250000D01*
X9750000Y-13050000D01*
X9550000Y-13250000D01*
X9750000Y-13450000D01*
X11675000Y-10125000D02*
X11875000Y-9925000D01*
X11675000Y-9725000D01*
X11475000Y-9925000D01*
X11675000Y-10125000D01*
X11675000Y-12050000D02*
X11875000Y-11850000D01*
X11675000Y-11650000D01*
X11475000Y-11850000D01*
X11675000Y-12050000D01*
X11675000Y-13975000D02*
X11875000Y-13775000D01*
X11675000Y-13575000D01*
X11475000Y-13775000D01*
X11675000Y-13975000D01*
X13160000Y-16350000D02*
X13360000Y-16150000D01*
X13160000Y-15950000D01*
X12960000Y-16150000D01*
X13160000Y-16350000D01*
X13600000Y-10450000D02*
X13800000Y-10250000D01*
X13600000Y-10050000D01*
X13400000Y-10250000D01*
X13600000Y-10450000D01*
X13600000Y-12375000D02*
X13800000Y-12175000D01*
X13600000Y-11975000D01*
X13400000Y-12175000D01*
X13600000Y-12375000D01*
X13600000Y-14300000D02*
X13800000Y-14100000D01*
X13600000Y-13900000D01*
X13400000Y-14100000D01*
X13600000Y-14300000D01*
X15175000Y-16900000D02*
X15375000Y-16700000D01*
X15175000Y-16500000D01*
X14975000Y-16700000D01*
X15175000Y-16900000D01*
X18385000Y-16900000D02*
X18585000Y-16700000D01*
X18385000Y-16500000D01*
X18185000Y-16700000D01*
X18385000Y-16900000D01*
X19960000Y-10450000D02*
X20160000Y-10250000D01*
X19960000Y-10050000D01*
X19760000Y-10250000D01*
X19960000Y-10450000D01*
X19960000Y-12375000D02*
X20160000Y-12175000D01*
X19960000Y-11975000D01*
X19760000Y-12175000D01*
X19960000Y-12375000D01*
X19960000Y-14300000D02*
X20160000Y-14100000D01*
X19960000Y-13900000D01*
X19760000Y-14100000D01*
X19960000Y-14300000D01*
X20400000Y-16350000D02*
X20600000Y-16150000D01*
X20400000Y-15950000D01*
X20200000Y-16150000D01*
X20400000Y-16350000D01*
X21885000Y-10125000D02*
X22085000Y-9925000D01*
X21885000Y-9725000D01*
X21685000Y-9925000D01*
X21885000Y-10125000D01*
X21885000Y-12050000D02*
X22085000Y-11850000D01*
X21885000Y-11650000D01*
X21685000Y-11850000D01*
X21885000Y-12050000D01*
X21885000Y-13975000D02*
X22085000Y-13775000D01*
X21885000Y-13575000D01*
X21685000Y-13775000D01*
X21885000Y-13975000D01*
X23810000Y-9600000D02*
X24010000Y-9400000D01*
X23810000Y-9200000D01*
X23610000Y-9400000D01*
X23810000Y-9600000D01*
X23810000Y-11525000D02*
X24010000Y-11325000D01*
X23810000Y-11125000D01*
X23610000Y-11325000D01*
X23810000Y-11525000D01*
X23810000Y-13450000D02*
X24010000Y-13250000D01*
X23810000Y-13050000D01*
X23610000Y-13250000D01*
X23810000Y-13450000D01*
X25810000Y-13850000D02*
X26010000Y-13650000D01*
X25810000Y-13450000D01*
X25610000Y-13650000D01*
X25810000Y-13850000D01*
X25910000Y-11925000D02*
X26110000Y-11725000D01*
X25910000Y-11525000D01*
X25710000Y-11725000D01*
X25910000Y-11925000D01*
X26010000Y-10000000D02*
X26210000Y-9800000D01*
X26010000Y-9600000D01*
X25810000Y-9800000D01*
X26010000Y-10000000D01*
X27860000Y-14500000D02*
X28060000Y-14300000D01*
X27860000Y-14100000D01*
X27660000Y-14300000D01*
X27860000Y-14500000D01*
X28200000Y-12600000D02*
X28400000Y-12400000D01*
X28200000Y-12200000D01*
X28000000Y-12400000D01*
X28200000Y-12600000D01*
X29760000Y-14825000D02*
X29960000Y-14625000D01*
X29760000Y-14425000D01*
X29560000Y-14625000D01*
X29760000Y-14825000D01*
X30100000Y-12925000D02*
X30300000Y-12725000D01*
X30100000Y-12525000D01*
X29900000Y-12725000D01*
X30100000Y-12925000D01*
D17*
X4305000Y-13175000D02*
X4805000Y-13675000D01*
X4805000Y-13175000D02*
X4305000Y-13675000D01*
X4805000Y-13425000D02*
G75*
G02*
X4305000Y-13425000I-250000J0D01*
G01*
X4305000Y-13425000D02*
G75*
G02*
X4805000Y-13425000I250000J0D01*
G01*
X8510000Y-10050000D02*
X9010000Y-10550000D01*
X9010000Y-10050000D02*
X8510000Y-10550000D01*
X9010000Y-10300000D02*
G75*
G02*
X8510000Y-10300000I-250000J0D01*
G01*
X8510000Y-10300000D02*
G75*
G02*
X9010000Y-10300000I250000J0D01*
G01*
X9485000Y-14050000D02*
X9985000Y-14550000D01*
X9985000Y-14050000D02*
X9485000Y-14550000D01*
X9985000Y-14300000D02*
G75*
G02*
X9485000Y-14300000I-250000J0D01*
G01*
X9485000Y-14300000D02*
G75*
G02*
X9985000Y-14300000I250000J0D01*
G01*
X12330000Y-10600000D02*
X12830000Y-11100000D01*
X12830000Y-10600000D02*
X12330000Y-11100000D01*
X12830000Y-10850000D02*
G75*
G02*
X12330000Y-10850000I-250000J0D01*
G01*
X12330000Y-10850000D02*
G75*
G02*
X12830000Y-10850000I250000J0D01*
G01*
X14230000Y-15250000D02*
X14730000Y-15750000D01*
X14730000Y-15250000D02*
X14230000Y-15750000D01*
X14730000Y-15500000D02*
G75*
G02*
X14230000Y-15500000I-250000J0D01*
G01*
X14230000Y-15500000D02*
G75*
G02*
X14730000Y-15500000I250000J0D01*
G01*
X18830000Y-15250000D02*
X19330000Y-15750000D01*
X19330000Y-15250000D02*
X18830000Y-15750000D01*
X19330000Y-15500000D02*
G75*
G02*
X18830000Y-15500000I-250000J0D01*
G01*
X18830000Y-15500000D02*
G75*
G02*
X19330000Y-15500000I250000J0D01*
G01*
X20730000Y-10600000D02*
X21230000Y-11100000D01*
X21230000Y-10600000D02*
X20730000Y-11100000D01*
X21230000Y-10850000D02*
G75*
G02*
X20730000Y-10850000I-250000J0D01*
G01*
X20730000Y-10850000D02*
G75*
G02*
X21230000Y-10850000I250000J0D01*
G01*
X23575000Y-14050000D02*
X24075000Y-14550000D01*
X24075000Y-14050000D02*
X23575000Y-14550000D01*
X24075000Y-14300000D02*
G75*
G02*
X23575000Y-14300000I-250000J0D01*
G01*
X23575000Y-14300000D02*
G75*
G02*
X24075000Y-14300000I250000J0D01*
G01*
X24550000Y-10050000D02*
X25050000Y-10550000D01*
X25050000Y-10050000D02*
X24550000Y-10550000D01*
X25050000Y-10300000D02*
G75*
G02*
X24550000Y-10300000I-250000J0D01*
G01*
X24550000Y-10300000D02*
G75*
G02*
X25050000Y-10300000I250000J0D01*
G01*
X28755000Y-13175000D02*
X29255000Y-13675000D01*
X29255000Y-13175000D02*
X28755000Y-13675000D01*
X29255000Y-13425000D02*
G75*
G02*
X28755000Y-13425000I-250000J0D01*
G01*
X28755000Y-13425000D02*
G75*
G02*
X29255000Y-13425000I250000J0D01*
G01*
D12*
X2554124Y-18361104D02*
X2554124Y-18161104D01*
X2554124Y-18161104D02*
X2601743Y-18161104D01*
X2601743Y-18161104D02*
X2630315Y-18170628D01*
X2630315Y-18170628D02*
X2649362Y-18189676D01*
X2649362Y-18189676D02*
X2658886Y-18208723D01*
X2658886Y-18208723D02*
X2668410Y-18246819D01*
X2668410Y-18246819D02*
X2668410Y-18275390D01*
X2668410Y-18275390D02*
X2658886Y-18313485D01*
X2658886Y-18313485D02*
X2649362Y-18332533D01*
X2649362Y-18332533D02*
X2630315Y-18351581D01*
X2630315Y-18351581D02*
X2601743Y-18361104D01*
X2601743Y-18361104D02*
X2554124Y-18361104D01*
X2754124Y-18361104D02*
X2754124Y-18227771D01*
X2754124Y-18265866D02*
X2763648Y-18246819D01*
X2763648Y-18246819D02*
X2773172Y-18237295D01*
X2773172Y-18237295D02*
X2792219Y-18227771D01*
X2792219Y-18227771D02*
X2811267Y-18227771D01*
X2877934Y-18361104D02*
X2877934Y-18227771D01*
X2877934Y-18161104D02*
X2868410Y-18170628D01*
X2868410Y-18170628D02*
X2877934Y-18180152D01*
X2877934Y-18180152D02*
X2887457Y-18170628D01*
X2887457Y-18170628D02*
X2877934Y-18161104D01*
X2877934Y-18161104D02*
X2877934Y-18180152D01*
X3001743Y-18361104D02*
X2982696Y-18351581D01*
X2982696Y-18351581D02*
X2973172Y-18332533D01*
X2973172Y-18332533D02*
X2973172Y-18161104D01*
X3106505Y-18361104D02*
X3087457Y-18351581D01*
X3087457Y-18351581D02*
X3077934Y-18332533D01*
X3077934Y-18332533D02*
X3077934Y-18161104D01*
X3335077Y-18361104D02*
X3335077Y-18161104D01*
X3335077Y-18161104D02*
X3401743Y-18303961D01*
X3401743Y-18303961D02*
X3468410Y-18161104D01*
X3468410Y-18161104D02*
X3468410Y-18361104D01*
X3649362Y-18361104D02*
X3649362Y-18256342D01*
X3649362Y-18256342D02*
X3639838Y-18237295D01*
X3639838Y-18237295D02*
X3620791Y-18227771D01*
X3620791Y-18227771D02*
X3582696Y-18227771D01*
X3582696Y-18227771D02*
X3563648Y-18237295D01*
X3649362Y-18351581D02*
X3630315Y-18361104D01*
X3630315Y-18361104D02*
X3582696Y-18361104D01*
X3582696Y-18361104D02*
X3563648Y-18351581D01*
X3563648Y-18351581D02*
X3554124Y-18332533D01*
X3554124Y-18332533D02*
X3554124Y-18313485D01*
X3554124Y-18313485D02*
X3563648Y-18294438D01*
X3563648Y-18294438D02*
X3582696Y-18284914D01*
X3582696Y-18284914D02*
X3630315Y-18284914D01*
X3630315Y-18284914D02*
X3649362Y-18275390D01*
X3744600Y-18227771D02*
X3744600Y-18427771D01*
X3744600Y-18237295D02*
X3763648Y-18227771D01*
X3763648Y-18227771D02*
X3801743Y-18227771D01*
X3801743Y-18227771D02*
X3820791Y-18237295D01*
X3820791Y-18237295D02*
X3830315Y-18246819D01*
X3830315Y-18246819D02*
X3839838Y-18265866D01*
X3839838Y-18265866D02*
X3839838Y-18323009D01*
X3839838Y-18323009D02*
X3830315Y-18342057D01*
X3830315Y-18342057D02*
X3820791Y-18351581D01*
X3820791Y-18351581D02*
X3801743Y-18361104D01*
X3801743Y-18361104D02*
X3763648Y-18361104D01*
X3763648Y-18361104D02*
X3744600Y-18351581D01*
X3925553Y-18342057D02*
X3935077Y-18351581D01*
X3935077Y-18351581D02*
X3925553Y-18361104D01*
X3925553Y-18361104D02*
X3916029Y-18351581D01*
X3916029Y-18351581D02*
X3925553Y-18342057D01*
X3925553Y-18342057D02*
X3925553Y-18361104D01*
X3925553Y-18237295D02*
X3935077Y-18246819D01*
X3935077Y-18246819D02*
X3925553Y-18256342D01*
X3925553Y-18256342D02*
X3916029Y-18246819D01*
X3916029Y-18246819D02*
X3925553Y-18237295D01*
X3925553Y-18237295D02*
X3925553Y-18256342D01*
D11*
X2243347Y-18664621D02*
X2293347Y-18714621D01*
X2293347Y-18664621D02*
X2243347Y-18714621D01*
D12*
X2592219Y-18581104D02*
X2611267Y-18581104D01*
X2611267Y-18581104D02*
X2630315Y-18590628D01*
X2630315Y-18590628D02*
X2639839Y-18600152D01*
X2639839Y-18600152D02*
X2649362Y-18619200D01*
X2649362Y-18619200D02*
X2658886Y-18657295D01*
X2658886Y-18657295D02*
X2658886Y-18704914D01*
X2658886Y-18704914D02*
X2649362Y-18743009D01*
X2649362Y-18743009D02*
X2639839Y-18762057D01*
X2639839Y-18762057D02*
X2630315Y-18771581D01*
X2630315Y-18771581D02*
X2611267Y-18781104D01*
X2611267Y-18781104D02*
X2592219Y-18781104D01*
X2592219Y-18781104D02*
X2573172Y-18771581D01*
X2573172Y-18771581D02*
X2563648Y-18762057D01*
X2563648Y-18762057D02*
X2554124Y-18743009D01*
X2554124Y-18743009D02*
X2544600Y-18704914D01*
X2544600Y-18704914D02*
X2544600Y-18657295D01*
X2544600Y-18657295D02*
X2554124Y-18619200D01*
X2554124Y-18619200D02*
X2563648Y-18600152D01*
X2563648Y-18600152D02*
X2573172Y-18590628D01*
X2573172Y-18590628D02*
X2592219Y-18581104D01*
X2744600Y-18762057D02*
X2754124Y-18771581D01*
X2754124Y-18771581D02*
X2744600Y-18781104D01*
X2744600Y-18781104D02*
X2735077Y-18771581D01*
X2735077Y-18771581D02*
X2744600Y-18762057D01*
X2744600Y-18762057D02*
X2744600Y-18781104D01*
X2935077Y-18581104D02*
X2839838Y-18581104D01*
X2839838Y-18581104D02*
X2830315Y-18676342D01*
X2830315Y-18676342D02*
X2839838Y-18666819D01*
X2839838Y-18666819D02*
X2858886Y-18657295D01*
X2858886Y-18657295D02*
X2906505Y-18657295D01*
X2906505Y-18657295D02*
X2925553Y-18666819D01*
X2925553Y-18666819D02*
X2935077Y-18676342D01*
X2935077Y-18676342D02*
X2944600Y-18695390D01*
X2944600Y-18695390D02*
X2944600Y-18743009D01*
X2944600Y-18743009D02*
X2935077Y-18762057D01*
X2935077Y-18762057D02*
X2925553Y-18771581D01*
X2925553Y-18771581D02*
X2906505Y-18781104D01*
X2906505Y-18781104D02*
X2858886Y-18781104D01*
X2858886Y-18781104D02*
X2839838Y-18771581D01*
X2839838Y-18771581D02*
X2830315Y-18762057D01*
X3068410Y-18581104D02*
X3087458Y-18581104D01*
X3087458Y-18581104D02*
X3106505Y-18590628D01*
X3106505Y-18590628D02*
X3116029Y-18600152D01*
X3116029Y-18600152D02*
X3125553Y-18619200D01*
X3125553Y-18619200D02*
X3135077Y-18657295D01*
X3135077Y-18657295D02*
X3135077Y-18704914D01*
X3135077Y-18704914D02*
X3125553Y-18743009D01*
X3125553Y-18743009D02*
X3116029Y-18762057D01*
X3116029Y-18762057D02*
X3106505Y-18771581D01*
X3106505Y-18771581D02*
X3087458Y-18781104D01*
X3087458Y-18781104D02*
X3068410Y-18781104D01*
X3068410Y-18781104D02*
X3049362Y-18771581D01*
X3049362Y-18771581D02*
X3039838Y-18762057D01*
X3039838Y-18762057D02*
X3030315Y-18743009D01*
X3030315Y-18743009D02*
X3020791Y-18704914D01*
X3020791Y-18704914D02*
X3020791Y-18657295D01*
X3020791Y-18657295D02*
X3030315Y-18619200D01*
X3030315Y-18619200D02*
X3039838Y-18600152D01*
X3039838Y-18600152D02*
X3049362Y-18590628D01*
X3049362Y-18590628D02*
X3068410Y-18581104D01*
X3258886Y-18581104D02*
X3277934Y-18581104D01*
X3277934Y-18581104D02*
X3296981Y-18590628D01*
X3296981Y-18590628D02*
X3306505Y-18600152D01*
X3306505Y-18600152D02*
X3316029Y-18619200D01*
X3316029Y-18619200D02*
X3325553Y-18657295D01*
X3325553Y-18657295D02*
X3325553Y-18704914D01*
X3325553Y-18704914D02*
X3316029Y-18743009D01*
X3316029Y-18743009D02*
X3306505Y-18762057D01*
X3306505Y-18762057D02*
X3296981Y-18771581D01*
X3296981Y-18771581D02*
X3277934Y-18781104D01*
X3277934Y-18781104D02*
X3258886Y-18781104D01*
X3258886Y-18781104D02*
X3239838Y-18771581D01*
X3239838Y-18771581D02*
X3230315Y-18762057D01*
X3230315Y-18762057D02*
X3220791Y-18743009D01*
X3220791Y-18743009D02*
X3211267Y-18704914D01*
X3211267Y-18704914D02*
X3211267Y-18657295D01*
X3211267Y-18657295D02*
X3220791Y-18619200D01*
X3220791Y-18619200D02*
X3230315Y-18600152D01*
X3230315Y-18600152D02*
X3239838Y-18590628D01*
X3239838Y-18590628D02*
X3258886Y-18581104D01*
X3411267Y-18781104D02*
X3411267Y-18647771D01*
X3411267Y-18666819D02*
X3420791Y-18657295D01*
X3420791Y-18657295D02*
X3439838Y-18647771D01*
X3439838Y-18647771D02*
X3468410Y-18647771D01*
X3468410Y-18647771D02*
X3487458Y-18657295D01*
X3487458Y-18657295D02*
X3496981Y-18676342D01*
X3496981Y-18676342D02*
X3496981Y-18781104D01*
X3496981Y-18676342D02*
X3506505Y-18657295D01*
X3506505Y-18657295D02*
X3525553Y-18647771D01*
X3525553Y-18647771D02*
X3554124Y-18647771D01*
X3554124Y-18647771D02*
X3573172Y-18657295D01*
X3573172Y-18657295D02*
X3582696Y-18676342D01*
X3582696Y-18676342D02*
X3582696Y-18781104D01*
X3677934Y-18781104D02*
X3677934Y-18647771D01*
X3677934Y-18666819D02*
X3687458Y-18657295D01*
X3687458Y-18657295D02*
X3706505Y-18647771D01*
X3706505Y-18647771D02*
X3735077Y-18647771D01*
X3735077Y-18647771D02*
X3754124Y-18657295D01*
X3754124Y-18657295D02*
X3763648Y-18676342D01*
X3763648Y-18676342D02*
X3763648Y-18781104D01*
X3763648Y-18676342D02*
X3773172Y-18657295D01*
X3773172Y-18657295D02*
X3792219Y-18647771D01*
X3792219Y-18647771D02*
X3820791Y-18647771D01*
X3820791Y-18647771D02*
X3839839Y-18657295D01*
X3839839Y-18657295D02*
X3849362Y-18676342D01*
X3849362Y-18676342D02*
X3849362Y-18781104D01*
X4239839Y-18571581D02*
X4068410Y-18828723D01*
X4496982Y-18581104D02*
X4516029Y-18581104D01*
X4516029Y-18581104D02*
X4535077Y-18590628D01*
X4535077Y-18590628D02*
X4544601Y-18600152D01*
X4544601Y-18600152D02*
X4554124Y-18619200D01*
X4554124Y-18619200D02*
X4563648Y-18657295D01*
X4563648Y-18657295D02*
X4563648Y-18704914D01*
X4563648Y-18704914D02*
X4554124Y-18743009D01*
X4554124Y-18743009D02*
X4544601Y-18762057D01*
X4544601Y-18762057D02*
X4535077Y-18771581D01*
X4535077Y-18771581D02*
X4516029Y-18781104D01*
X4516029Y-18781104D02*
X4496982Y-18781104D01*
X4496982Y-18781104D02*
X4477934Y-18771581D01*
X4477934Y-18771581D02*
X4468410Y-18762057D01*
X4468410Y-18762057D02*
X4458886Y-18743009D01*
X4458886Y-18743009D02*
X4449363Y-18704914D01*
X4449363Y-18704914D02*
X4449363Y-18657295D01*
X4449363Y-18657295D02*
X4458886Y-18619200D01*
X4458886Y-18619200D02*
X4468410Y-18600152D01*
X4468410Y-18600152D02*
X4477934Y-18590628D01*
X4477934Y-18590628D02*
X4496982Y-18581104D01*
X4649363Y-18762057D02*
X4658886Y-18771581D01*
X4658886Y-18771581D02*
X4649363Y-18781104D01*
X4649363Y-18781104D02*
X4639839Y-18771581D01*
X4639839Y-18771581D02*
X4649363Y-18762057D01*
X4649363Y-18762057D02*
X4649363Y-18781104D01*
X4782696Y-18581104D02*
X4801744Y-18581104D01*
X4801744Y-18581104D02*
X4820791Y-18590628D01*
X4820791Y-18590628D02*
X4830315Y-18600152D01*
X4830315Y-18600152D02*
X4839839Y-18619200D01*
X4839839Y-18619200D02*
X4849363Y-18657295D01*
X4849363Y-18657295D02*
X4849363Y-18704914D01*
X4849363Y-18704914D02*
X4839839Y-18743009D01*
X4839839Y-18743009D02*
X4830315Y-18762057D01*
X4830315Y-18762057D02*
X4820791Y-18771581D01*
X4820791Y-18771581D02*
X4801744Y-18781104D01*
X4801744Y-18781104D02*
X4782696Y-18781104D01*
X4782696Y-18781104D02*
X4763648Y-18771581D01*
X4763648Y-18771581D02*
X4754124Y-18762057D01*
X4754124Y-18762057D02*
X4744601Y-18743009D01*
X4744601Y-18743009D02*
X4735077Y-18704914D01*
X4735077Y-18704914D02*
X4735077Y-18657295D01*
X4735077Y-18657295D02*
X4744601Y-18619200D01*
X4744601Y-18619200D02*
X4754124Y-18600152D01*
X4754124Y-18600152D02*
X4763648Y-18590628D01*
X4763648Y-18590628D02*
X4782696Y-18581104D01*
X5039839Y-18781104D02*
X4925553Y-18781104D01*
X4982696Y-18781104D02*
X4982696Y-18581104D01*
X4982696Y-18581104D02*
X4963648Y-18609676D01*
X4963648Y-18609676D02*
X4944601Y-18628723D01*
X4944601Y-18628723D02*
X4925553Y-18638247D01*
X5135077Y-18781104D02*
X5173172Y-18781104D01*
X5173172Y-18781104D02*
X5192220Y-18771581D01*
X5192220Y-18771581D02*
X5201744Y-18762057D01*
X5201744Y-18762057D02*
X5220791Y-18733485D01*
X5220791Y-18733485D02*
X5230315Y-18695390D01*
X5230315Y-18695390D02*
X5230315Y-18619200D01*
X5230315Y-18619200D02*
X5220791Y-18600152D01*
X5220791Y-18600152D02*
X5211267Y-18590628D01*
X5211267Y-18590628D02*
X5192220Y-18581104D01*
X5192220Y-18581104D02*
X5154124Y-18581104D01*
X5154124Y-18581104D02*
X5135077Y-18590628D01*
X5135077Y-18590628D02*
X5125553Y-18600152D01*
X5125553Y-18600152D02*
X5116029Y-18619200D01*
X5116029Y-18619200D02*
X5116029Y-18666819D01*
X5116029Y-18666819D02*
X5125553Y-18685866D01*
X5125553Y-18685866D02*
X5135077Y-18695390D01*
X5135077Y-18695390D02*
X5154124Y-18704914D01*
X5154124Y-18704914D02*
X5192220Y-18704914D01*
X5192220Y-18704914D02*
X5211267Y-18695390D01*
X5211267Y-18695390D02*
X5220791Y-18685866D01*
X5220791Y-18685866D02*
X5230315Y-18666819D01*
X5296982Y-18581104D02*
X5430315Y-18581104D01*
X5430315Y-18581104D02*
X5344601Y-18781104D01*
X5496982Y-18581104D02*
X5496982Y-18619200D01*
X5573172Y-18581104D02*
X5573172Y-18619200D01*
X5868410Y-18857295D02*
X5858886Y-18847771D01*
X5858886Y-18847771D02*
X5839839Y-18819200D01*
X5839839Y-18819200D02*
X5830315Y-18800152D01*
X5830315Y-18800152D02*
X5820791Y-18771581D01*
X5820791Y-18771581D02*
X5811267Y-18723961D01*
X5811267Y-18723961D02*
X5811267Y-18685866D01*
X5811267Y-18685866D02*
X5820791Y-18638247D01*
X5820791Y-18638247D02*
X5830315Y-18609676D01*
X5830315Y-18609676D02*
X5839839Y-18590628D01*
X5839839Y-18590628D02*
X5858886Y-18562057D01*
X5858886Y-18562057D02*
X5868410Y-18552533D01*
X5935077Y-18600152D02*
X5944601Y-18590628D01*
X5944601Y-18590628D02*
X5963648Y-18581104D01*
X5963648Y-18581104D02*
X6011267Y-18581104D01*
X6011267Y-18581104D02*
X6030315Y-18590628D01*
X6030315Y-18590628D02*
X6039839Y-18600152D01*
X6039839Y-18600152D02*
X6049363Y-18619200D01*
X6049363Y-18619200D02*
X6049363Y-18638247D01*
X6049363Y-18638247D02*
X6039839Y-18666819D01*
X6039839Y-18666819D02*
X5925553Y-18781104D01*
X5925553Y-18781104D02*
X6049363Y-18781104D01*
X6173172Y-18581104D02*
X6192220Y-18581104D01*
X6192220Y-18581104D02*
X6211267Y-18590628D01*
X6211267Y-18590628D02*
X6220791Y-18600152D01*
X6220791Y-18600152D02*
X6230315Y-18619200D01*
X6230315Y-18619200D02*
X6239839Y-18657295D01*
X6239839Y-18657295D02*
X6239839Y-18704914D01*
X6239839Y-18704914D02*
X6230315Y-18743009D01*
X6230315Y-18743009D02*
X6220791Y-18762057D01*
X6220791Y-18762057D02*
X6211267Y-18771581D01*
X6211267Y-18771581D02*
X6192220Y-18781104D01*
X6192220Y-18781104D02*
X6173172Y-18781104D01*
X6173172Y-18781104D02*
X6154124Y-18771581D01*
X6154124Y-18771581D02*
X6144601Y-18762057D01*
X6144601Y-18762057D02*
X6135077Y-18743009D01*
X6135077Y-18743009D02*
X6125553Y-18704914D01*
X6125553Y-18704914D02*
X6125553Y-18657295D01*
X6125553Y-18657295D02*
X6135077Y-18619200D01*
X6135077Y-18619200D02*
X6144601Y-18600152D01*
X6144601Y-18600152D02*
X6154124Y-18590628D01*
X6154124Y-18590628D02*
X6173172Y-18581104D01*
X6477934Y-18781104D02*
X6477934Y-18581104D01*
X6563648Y-18781104D02*
X6563648Y-18676342D01*
X6563648Y-18676342D02*
X6554125Y-18657295D01*
X6554125Y-18657295D02*
X6535077Y-18647771D01*
X6535077Y-18647771D02*
X6506505Y-18647771D01*
X6506505Y-18647771D02*
X6487458Y-18657295D01*
X6487458Y-18657295D02*
X6477934Y-18666819D01*
X6687458Y-18781104D02*
X6668410Y-18771581D01*
X6668410Y-18771581D02*
X6658886Y-18762057D01*
X6658886Y-18762057D02*
X6649363Y-18743009D01*
X6649363Y-18743009D02*
X6649363Y-18685866D01*
X6649363Y-18685866D02*
X6658886Y-18666819D01*
X6658886Y-18666819D02*
X6668410Y-18657295D01*
X6668410Y-18657295D02*
X6687458Y-18647771D01*
X6687458Y-18647771D02*
X6716029Y-18647771D01*
X6716029Y-18647771D02*
X6735077Y-18657295D01*
X6735077Y-18657295D02*
X6744601Y-18666819D01*
X6744601Y-18666819D02*
X6754125Y-18685866D01*
X6754125Y-18685866D02*
X6754125Y-18743009D01*
X6754125Y-18743009D02*
X6744601Y-18762057D01*
X6744601Y-18762057D02*
X6735077Y-18771581D01*
X6735077Y-18771581D02*
X6716029Y-18781104D01*
X6716029Y-18781104D02*
X6687458Y-18781104D01*
X6868410Y-18781104D02*
X6849363Y-18771581D01*
X6849363Y-18771581D02*
X6839839Y-18752533D01*
X6839839Y-18752533D02*
X6839839Y-18581104D01*
X7020791Y-18771581D02*
X7001744Y-18781104D01*
X7001744Y-18781104D02*
X6963648Y-18781104D01*
X6963648Y-18781104D02*
X6944601Y-18771581D01*
X6944601Y-18771581D02*
X6935077Y-18752533D01*
X6935077Y-18752533D02*
X6935077Y-18676342D01*
X6935077Y-18676342D02*
X6944601Y-18657295D01*
X6944601Y-18657295D02*
X6963648Y-18647771D01*
X6963648Y-18647771D02*
X7001744Y-18647771D01*
X7001744Y-18647771D02*
X7020791Y-18657295D01*
X7020791Y-18657295D02*
X7030315Y-18676342D01*
X7030315Y-18676342D02*
X7030315Y-18695390D01*
X7030315Y-18695390D02*
X6935077Y-18714438D01*
X7106506Y-18771581D02*
X7125553Y-18781104D01*
X7125553Y-18781104D02*
X7163648Y-18781104D01*
X7163648Y-18781104D02*
X7182696Y-18771581D01*
X7182696Y-18771581D02*
X7192220Y-18752533D01*
X7192220Y-18752533D02*
X7192220Y-18743009D01*
X7192220Y-18743009D02*
X7182696Y-18723961D01*
X7182696Y-18723961D02*
X7163648Y-18714438D01*
X7163648Y-18714438D02*
X7135077Y-18714438D01*
X7135077Y-18714438D02*
X7116029Y-18704914D01*
X7116029Y-18704914D02*
X7106506Y-18685866D01*
X7106506Y-18685866D02*
X7106506Y-18676342D01*
X7106506Y-18676342D02*
X7116029Y-18657295D01*
X7116029Y-18657295D02*
X7135077Y-18647771D01*
X7135077Y-18647771D02*
X7163648Y-18647771D01*
X7163648Y-18647771D02*
X7182696Y-18657295D01*
X7258887Y-18857295D02*
X7268410Y-18847771D01*
X7268410Y-18847771D02*
X7287458Y-18819200D01*
X7287458Y-18819200D02*
X7296982Y-18800152D01*
X7296982Y-18800152D02*
X7306506Y-18771581D01*
X7306506Y-18771581D02*
X7316029Y-18723961D01*
X7316029Y-18723961D02*
X7316029Y-18685866D01*
X7316029Y-18685866D02*
X7306506Y-18638247D01*
X7306506Y-18638247D02*
X7296982Y-18609676D01*
X7296982Y-18609676D02*
X7287458Y-18590628D01*
X7287458Y-18590628D02*
X7268410Y-18562057D01*
X7268410Y-18562057D02*
X7258887Y-18552533D01*
X7620791Y-18857295D02*
X7611267Y-18847771D01*
X7611267Y-18847771D02*
X7592220Y-18819200D01*
X7592220Y-18819200D02*
X7582696Y-18800152D01*
X7582696Y-18800152D02*
X7573172Y-18771581D01*
X7573172Y-18771581D02*
X7563648Y-18723961D01*
X7563648Y-18723961D02*
X7563648Y-18685866D01*
X7563648Y-18685866D02*
X7573172Y-18638247D01*
X7573172Y-18638247D02*
X7582696Y-18609676D01*
X7582696Y-18609676D02*
X7592220Y-18590628D01*
X7592220Y-18590628D02*
X7611267Y-18562057D01*
X7611267Y-18562057D02*
X7620791Y-18552533D01*
X7696982Y-18647771D02*
X7696982Y-18781104D01*
X7696982Y-18666819D02*
X7706506Y-18657295D01*
X7706506Y-18657295D02*
X7725553Y-18647771D01*
X7725553Y-18647771D02*
X7754125Y-18647771D01*
X7754125Y-18647771D02*
X7773172Y-18657295D01*
X7773172Y-18657295D02*
X7782696Y-18676342D01*
X7782696Y-18676342D02*
X7782696Y-18781104D01*
X7906506Y-18781104D02*
X7887458Y-18771581D01*
X7887458Y-18771581D02*
X7877934Y-18762057D01*
X7877934Y-18762057D02*
X7868410Y-18743009D01*
X7868410Y-18743009D02*
X7868410Y-18685866D01*
X7868410Y-18685866D02*
X7877934Y-18666819D01*
X7877934Y-18666819D02*
X7887458Y-18657295D01*
X7887458Y-18657295D02*
X7906506Y-18647771D01*
X7906506Y-18647771D02*
X7935077Y-18647771D01*
X7935077Y-18647771D02*
X7954125Y-18657295D01*
X7954125Y-18657295D02*
X7963648Y-18666819D01*
X7963648Y-18666819D02*
X7973172Y-18685866D01*
X7973172Y-18685866D02*
X7973172Y-18743009D01*
X7973172Y-18743009D02*
X7963648Y-18762057D01*
X7963648Y-18762057D02*
X7954125Y-18771581D01*
X7954125Y-18771581D02*
X7935077Y-18781104D01*
X7935077Y-18781104D02*
X7906506Y-18781104D01*
X8030315Y-18647771D02*
X8106506Y-18647771D01*
X8058887Y-18581104D02*
X8058887Y-18752533D01*
X8058887Y-18752533D02*
X8068410Y-18771581D01*
X8068410Y-18771581D02*
X8087458Y-18781104D01*
X8087458Y-18781104D02*
X8106506Y-18781104D01*
X8325553Y-18647771D02*
X8325553Y-18847771D01*
X8325553Y-18657295D02*
X8344601Y-18647771D01*
X8344601Y-18647771D02*
X8382696Y-18647771D01*
X8382696Y-18647771D02*
X8401744Y-18657295D01*
X8401744Y-18657295D02*
X8411268Y-18666819D01*
X8411268Y-18666819D02*
X8420791Y-18685866D01*
X8420791Y-18685866D02*
X8420791Y-18743009D01*
X8420791Y-18743009D02*
X8411268Y-18762057D01*
X8411268Y-18762057D02*
X8401744Y-18771581D01*
X8401744Y-18771581D02*
X8382696Y-18781104D01*
X8382696Y-18781104D02*
X8344601Y-18781104D01*
X8344601Y-18781104D02*
X8325553Y-18771581D01*
X8535077Y-18781104D02*
X8516030Y-18771581D01*
X8516030Y-18771581D02*
X8506506Y-18752533D01*
X8506506Y-18752533D02*
X8506506Y-18581104D01*
X8696982Y-18781104D02*
X8696982Y-18676342D01*
X8696982Y-18676342D02*
X8687458Y-18657295D01*
X8687458Y-18657295D02*
X8668411Y-18647771D01*
X8668411Y-18647771D02*
X8630315Y-18647771D01*
X8630315Y-18647771D02*
X8611268Y-18657295D01*
X8696982Y-18771581D02*
X8677934Y-18781104D01*
X8677934Y-18781104D02*
X8630315Y-18781104D01*
X8630315Y-18781104D02*
X8611268Y-18771581D01*
X8611268Y-18771581D02*
X8601744Y-18752533D01*
X8601744Y-18752533D02*
X8601744Y-18733485D01*
X8601744Y-18733485D02*
X8611268Y-18714438D01*
X8611268Y-18714438D02*
X8630315Y-18704914D01*
X8630315Y-18704914D02*
X8677934Y-18704914D01*
X8677934Y-18704914D02*
X8696982Y-18695390D01*
X8763649Y-18647771D02*
X8839839Y-18647771D01*
X8792220Y-18581104D02*
X8792220Y-18752533D01*
X8792220Y-18752533D02*
X8801744Y-18771581D01*
X8801744Y-18771581D02*
X8820791Y-18781104D01*
X8820791Y-18781104D02*
X8839839Y-18781104D01*
X8982696Y-18771581D02*
X8963649Y-18781104D01*
X8963649Y-18781104D02*
X8925553Y-18781104D01*
X8925553Y-18781104D02*
X8906506Y-18771581D01*
X8906506Y-18771581D02*
X8896982Y-18752533D01*
X8896982Y-18752533D02*
X8896982Y-18676342D01*
X8896982Y-18676342D02*
X8906506Y-18657295D01*
X8906506Y-18657295D02*
X8925553Y-18647771D01*
X8925553Y-18647771D02*
X8963649Y-18647771D01*
X8963649Y-18647771D02*
X8982696Y-18657295D01*
X8982696Y-18657295D02*
X8992220Y-18676342D01*
X8992220Y-18676342D02*
X8992220Y-18695390D01*
X8992220Y-18695390D02*
X8896982Y-18714438D01*
X9163649Y-18781104D02*
X9163649Y-18581104D01*
X9163649Y-18771581D02*
X9144601Y-18781104D01*
X9144601Y-18781104D02*
X9106506Y-18781104D01*
X9106506Y-18781104D02*
X9087458Y-18771581D01*
X9087458Y-18771581D02*
X9077934Y-18762057D01*
X9077934Y-18762057D02*
X9068411Y-18743009D01*
X9068411Y-18743009D02*
X9068411Y-18685866D01*
X9068411Y-18685866D02*
X9077934Y-18666819D01*
X9077934Y-18666819D02*
X9087458Y-18657295D01*
X9087458Y-18657295D02*
X9106506Y-18647771D01*
X9106506Y-18647771D02*
X9144601Y-18647771D01*
X9144601Y-18647771D02*
X9163649Y-18657295D01*
X9239839Y-18857295D02*
X9249363Y-18847771D01*
X9249363Y-18847771D02*
X9268411Y-18819200D01*
X9268411Y-18819200D02*
X9277934Y-18800152D01*
X9277934Y-18800152D02*
X9287458Y-18771581D01*
X9287458Y-18771581D02*
X9296982Y-18723961D01*
X9296982Y-18723961D02*
X9296982Y-18685866D01*
X9296982Y-18685866D02*
X9287458Y-18638247D01*
X9287458Y-18638247D02*
X9277934Y-18609676D01*
X9277934Y-18609676D02*
X9268411Y-18590628D01*
X9268411Y-18590628D02*
X9249363Y-18562057D01*
X9249363Y-18562057D02*
X9239839Y-18552533D01*
D13*
X2293347Y-18953621D02*
G75*
G02*
X2153347Y-18953621I-70000J0D01*
G01*
X2153347Y-18953621D02*
G75*
G02*
X2293347Y-18953621I70000J0D01*
G01*
D12*
X2658886Y-19045104D02*
X2544600Y-19045104D01*
X2601743Y-19045104D02*
X2601743Y-18845104D01*
X2601743Y-18845104D02*
X2582696Y-18873676D01*
X2582696Y-18873676D02*
X2563648Y-18892723D01*
X2563648Y-18892723D02*
X2544600Y-18902247D01*
X2744600Y-19026057D02*
X2754124Y-19035581D01*
X2754124Y-19035581D02*
X2744600Y-19045104D01*
X2744600Y-19045104D02*
X2735077Y-19035581D01*
X2735077Y-19035581D02*
X2744600Y-19026057D01*
X2744600Y-19026057D02*
X2744600Y-19045104D01*
X2925553Y-18911771D02*
X2925553Y-19045104D01*
X2877934Y-18835581D02*
X2830315Y-18978438D01*
X2830315Y-18978438D02*
X2954124Y-18978438D01*
X3068410Y-18845104D02*
X3087458Y-18845104D01*
X3087458Y-18845104D02*
X3106505Y-18854628D01*
X3106505Y-18854628D02*
X3116029Y-18864152D01*
X3116029Y-18864152D02*
X3125553Y-18883200D01*
X3125553Y-18883200D02*
X3135077Y-18921295D01*
X3135077Y-18921295D02*
X3135077Y-18968914D01*
X3135077Y-18968914D02*
X3125553Y-19007009D01*
X3125553Y-19007009D02*
X3116029Y-19026057D01*
X3116029Y-19026057D02*
X3106505Y-19035581D01*
X3106505Y-19035581D02*
X3087458Y-19045104D01*
X3087458Y-19045104D02*
X3068410Y-19045104D01*
X3068410Y-19045104D02*
X3049362Y-19035581D01*
X3049362Y-19035581D02*
X3039838Y-19026057D01*
X3039838Y-19026057D02*
X3030315Y-19007009D01*
X3030315Y-19007009D02*
X3020791Y-18968914D01*
X3020791Y-18968914D02*
X3020791Y-18921295D01*
X3020791Y-18921295D02*
X3030315Y-18883200D01*
X3030315Y-18883200D02*
X3039838Y-18864152D01*
X3039838Y-18864152D02*
X3049362Y-18854628D01*
X3049362Y-18854628D02*
X3068410Y-18845104D01*
X3258886Y-18845104D02*
X3277934Y-18845104D01*
X3277934Y-18845104D02*
X3296981Y-18854628D01*
X3296981Y-18854628D02*
X3306505Y-18864152D01*
X3306505Y-18864152D02*
X3316029Y-18883200D01*
X3316029Y-18883200D02*
X3325553Y-18921295D01*
X3325553Y-18921295D02*
X3325553Y-18968914D01*
X3325553Y-18968914D02*
X3316029Y-19007009D01*
X3316029Y-19007009D02*
X3306505Y-19026057D01*
X3306505Y-19026057D02*
X3296981Y-19035581D01*
X3296981Y-19035581D02*
X3277934Y-19045104D01*
X3277934Y-19045104D02*
X3258886Y-19045104D01*
X3258886Y-19045104D02*
X3239838Y-19035581D01*
X3239838Y-19035581D02*
X3230315Y-19026057D01*
X3230315Y-19026057D02*
X3220791Y-19007009D01*
X3220791Y-19007009D02*
X3211267Y-18968914D01*
X3211267Y-18968914D02*
X3211267Y-18921295D01*
X3211267Y-18921295D02*
X3220791Y-18883200D01*
X3220791Y-18883200D02*
X3230315Y-18864152D01*
X3230315Y-18864152D02*
X3239838Y-18854628D01*
X3239838Y-18854628D02*
X3258886Y-18845104D01*
X3411267Y-19045104D02*
X3411267Y-18911771D01*
X3411267Y-18930819D02*
X3420791Y-18921295D01*
X3420791Y-18921295D02*
X3439838Y-18911771D01*
X3439838Y-18911771D02*
X3468410Y-18911771D01*
X3468410Y-18911771D02*
X3487458Y-18921295D01*
X3487458Y-18921295D02*
X3496981Y-18940342D01*
X3496981Y-18940342D02*
X3496981Y-19045104D01*
X3496981Y-18940342D02*
X3506505Y-18921295D01*
X3506505Y-18921295D02*
X3525553Y-18911771D01*
X3525553Y-18911771D02*
X3554124Y-18911771D01*
X3554124Y-18911771D02*
X3573172Y-18921295D01*
X3573172Y-18921295D02*
X3582696Y-18940342D01*
X3582696Y-18940342D02*
X3582696Y-19045104D01*
X3677934Y-19045104D02*
X3677934Y-18911771D01*
X3677934Y-18930819D02*
X3687458Y-18921295D01*
X3687458Y-18921295D02*
X3706505Y-18911771D01*
X3706505Y-18911771D02*
X3735077Y-18911771D01*
X3735077Y-18911771D02*
X3754124Y-18921295D01*
X3754124Y-18921295D02*
X3763648Y-18940342D01*
X3763648Y-18940342D02*
X3763648Y-19045104D01*
X3763648Y-18940342D02*
X3773172Y-18921295D01*
X3773172Y-18921295D02*
X3792219Y-18911771D01*
X3792219Y-18911771D02*
X3820791Y-18911771D01*
X3820791Y-18911771D02*
X3839839Y-18921295D01*
X3839839Y-18921295D02*
X3849362Y-18940342D01*
X3849362Y-18940342D02*
X3849362Y-19045104D01*
X4239839Y-18835581D02*
X4068410Y-19092723D01*
X4496982Y-18845104D02*
X4516029Y-18845104D01*
X4516029Y-18845104D02*
X4535077Y-18854628D01*
X4535077Y-18854628D02*
X4544601Y-18864152D01*
X4544601Y-18864152D02*
X4554124Y-18883200D01*
X4554124Y-18883200D02*
X4563648Y-18921295D01*
X4563648Y-18921295D02*
X4563648Y-18968914D01*
X4563648Y-18968914D02*
X4554124Y-19007009D01*
X4554124Y-19007009D02*
X4544601Y-19026057D01*
X4544601Y-19026057D02*
X4535077Y-19035581D01*
X4535077Y-19035581D02*
X4516029Y-19045104D01*
X4516029Y-19045104D02*
X4496982Y-19045104D01*
X4496982Y-19045104D02*
X4477934Y-19035581D01*
X4477934Y-19035581D02*
X4468410Y-19026057D01*
X4468410Y-19026057D02*
X4458886Y-19007009D01*
X4458886Y-19007009D02*
X4449363Y-18968914D01*
X4449363Y-18968914D02*
X4449363Y-18921295D01*
X4449363Y-18921295D02*
X4458886Y-18883200D01*
X4458886Y-18883200D02*
X4468410Y-18864152D01*
X4468410Y-18864152D02*
X4477934Y-18854628D01*
X4477934Y-18854628D02*
X4496982Y-18845104D01*
X4649363Y-19026057D02*
X4658886Y-19035581D01*
X4658886Y-19035581D02*
X4649363Y-19045104D01*
X4649363Y-19045104D02*
X4639839Y-19035581D01*
X4639839Y-19035581D02*
X4649363Y-19026057D01*
X4649363Y-19026057D02*
X4649363Y-19045104D01*
X4782696Y-18845104D02*
X4801744Y-18845104D01*
X4801744Y-18845104D02*
X4820791Y-18854628D01*
X4820791Y-18854628D02*
X4830315Y-18864152D01*
X4830315Y-18864152D02*
X4839839Y-18883200D01*
X4839839Y-18883200D02*
X4849363Y-18921295D01*
X4849363Y-18921295D02*
X4849363Y-18968914D01*
X4849363Y-18968914D02*
X4839839Y-19007009D01*
X4839839Y-19007009D02*
X4830315Y-19026057D01*
X4830315Y-19026057D02*
X4820791Y-19035581D01*
X4820791Y-19035581D02*
X4801744Y-19045104D01*
X4801744Y-19045104D02*
X4782696Y-19045104D01*
X4782696Y-19045104D02*
X4763648Y-19035581D01*
X4763648Y-19035581D02*
X4754124Y-19026057D01*
X4754124Y-19026057D02*
X4744601Y-19007009D01*
X4744601Y-19007009D02*
X4735077Y-18968914D01*
X4735077Y-18968914D02*
X4735077Y-18921295D01*
X4735077Y-18921295D02*
X4744601Y-18883200D01*
X4744601Y-18883200D02*
X4754124Y-18864152D01*
X4754124Y-18864152D02*
X4763648Y-18854628D01*
X4763648Y-18854628D02*
X4782696Y-18845104D01*
X5030315Y-18845104D02*
X4935077Y-18845104D01*
X4935077Y-18845104D02*
X4925553Y-18940342D01*
X4925553Y-18940342D02*
X4935077Y-18930819D01*
X4935077Y-18930819D02*
X4954124Y-18921295D01*
X4954124Y-18921295D02*
X5001744Y-18921295D01*
X5001744Y-18921295D02*
X5020791Y-18930819D01*
X5020791Y-18930819D02*
X5030315Y-18940342D01*
X5030315Y-18940342D02*
X5039839Y-18959390D01*
X5039839Y-18959390D02*
X5039839Y-19007009D01*
X5039839Y-19007009D02*
X5030315Y-19026057D01*
X5030315Y-19026057D02*
X5020791Y-19035581D01*
X5020791Y-19035581D02*
X5001744Y-19045104D01*
X5001744Y-19045104D02*
X4954124Y-19045104D01*
X4954124Y-19045104D02*
X4935077Y-19035581D01*
X4935077Y-19035581D02*
X4925553Y-19026057D01*
X5220791Y-18845104D02*
X5125553Y-18845104D01*
X5125553Y-18845104D02*
X5116029Y-18940342D01*
X5116029Y-18940342D02*
X5125553Y-18930819D01*
X5125553Y-18930819D02*
X5144601Y-18921295D01*
X5144601Y-18921295D02*
X5192220Y-18921295D01*
X5192220Y-18921295D02*
X5211267Y-18930819D01*
X5211267Y-18930819D02*
X5220791Y-18940342D01*
X5220791Y-18940342D02*
X5230315Y-18959390D01*
X5230315Y-18959390D02*
X5230315Y-19007009D01*
X5230315Y-19007009D02*
X5220791Y-19026057D01*
X5220791Y-19026057D02*
X5211267Y-19035581D01*
X5211267Y-19035581D02*
X5192220Y-19045104D01*
X5192220Y-19045104D02*
X5144601Y-19045104D01*
X5144601Y-19045104D02*
X5125553Y-19035581D01*
X5125553Y-19035581D02*
X5116029Y-19026057D01*
X5420791Y-19045104D02*
X5306505Y-19045104D01*
X5363648Y-19045104D02*
X5363648Y-18845104D01*
X5363648Y-18845104D02*
X5344601Y-18873676D01*
X5344601Y-18873676D02*
X5325553Y-18892723D01*
X5325553Y-18892723D02*
X5306505Y-18902247D01*
X5496982Y-18845104D02*
X5496982Y-18883200D01*
X5573172Y-18845104D02*
X5573172Y-18883200D01*
X5868410Y-19121295D02*
X5858886Y-19111771D01*
X5858886Y-19111771D02*
X5839839Y-19083200D01*
X5839839Y-19083200D02*
X5830315Y-19064152D01*
X5830315Y-19064152D02*
X5820791Y-19035581D01*
X5820791Y-19035581D02*
X5811267Y-18987961D01*
X5811267Y-18987961D02*
X5811267Y-18949866D01*
X5811267Y-18949866D02*
X5820791Y-18902247D01*
X5820791Y-18902247D02*
X5830315Y-18873676D01*
X5830315Y-18873676D02*
X5839839Y-18854628D01*
X5839839Y-18854628D02*
X5858886Y-18826057D01*
X5858886Y-18826057D02*
X5868410Y-18816533D01*
X5935077Y-18864152D02*
X5944601Y-18854628D01*
X5944601Y-18854628D02*
X5963648Y-18845104D01*
X5963648Y-18845104D02*
X6011267Y-18845104D01*
X6011267Y-18845104D02*
X6030315Y-18854628D01*
X6030315Y-18854628D02*
X6039839Y-18864152D01*
X6039839Y-18864152D02*
X6049363Y-18883200D01*
X6049363Y-18883200D02*
X6049363Y-18902247D01*
X6049363Y-18902247D02*
X6039839Y-18930819D01*
X6039839Y-18930819D02*
X5925553Y-19045104D01*
X5925553Y-19045104D02*
X6049363Y-19045104D01*
X6287458Y-19045104D02*
X6287458Y-18845104D01*
X6373172Y-19045104D02*
X6373172Y-18940342D01*
X6373172Y-18940342D02*
X6363648Y-18921295D01*
X6363648Y-18921295D02*
X6344601Y-18911771D01*
X6344601Y-18911771D02*
X6316029Y-18911771D01*
X6316029Y-18911771D02*
X6296982Y-18921295D01*
X6296982Y-18921295D02*
X6287458Y-18930819D01*
X6496982Y-19045104D02*
X6477934Y-19035581D01*
X6477934Y-19035581D02*
X6468410Y-19026057D01*
X6468410Y-19026057D02*
X6458886Y-19007009D01*
X6458886Y-19007009D02*
X6458886Y-18949866D01*
X6458886Y-18949866D02*
X6468410Y-18930819D01*
X6468410Y-18930819D02*
X6477934Y-18921295D01*
X6477934Y-18921295D02*
X6496982Y-18911771D01*
X6496982Y-18911771D02*
X6525553Y-18911771D01*
X6525553Y-18911771D02*
X6544601Y-18921295D01*
X6544601Y-18921295D02*
X6554125Y-18930819D01*
X6554125Y-18930819D02*
X6563648Y-18949866D01*
X6563648Y-18949866D02*
X6563648Y-19007009D01*
X6563648Y-19007009D02*
X6554125Y-19026057D01*
X6554125Y-19026057D02*
X6544601Y-19035581D01*
X6544601Y-19035581D02*
X6525553Y-19045104D01*
X6525553Y-19045104D02*
X6496982Y-19045104D01*
X6677934Y-19045104D02*
X6658886Y-19035581D01*
X6658886Y-19035581D02*
X6649363Y-19016533D01*
X6649363Y-19016533D02*
X6649363Y-18845104D01*
X6830315Y-19035581D02*
X6811267Y-19045104D01*
X6811267Y-19045104D02*
X6773172Y-19045104D01*
X6773172Y-19045104D02*
X6754125Y-19035581D01*
X6754125Y-19035581D02*
X6744601Y-19016533D01*
X6744601Y-19016533D02*
X6744601Y-18940342D01*
X6744601Y-18940342D02*
X6754125Y-18921295D01*
X6754125Y-18921295D02*
X6773172Y-18911771D01*
X6773172Y-18911771D02*
X6811267Y-18911771D01*
X6811267Y-18911771D02*
X6830315Y-18921295D01*
X6830315Y-18921295D02*
X6839839Y-18940342D01*
X6839839Y-18940342D02*
X6839839Y-18959390D01*
X6839839Y-18959390D02*
X6744601Y-18978438D01*
X6916029Y-19035581D02*
X6935077Y-19045104D01*
X6935077Y-19045104D02*
X6973172Y-19045104D01*
X6973172Y-19045104D02*
X6992220Y-19035581D01*
X6992220Y-19035581D02*
X7001744Y-19016533D01*
X7001744Y-19016533D02*
X7001744Y-19007009D01*
X7001744Y-19007009D02*
X6992220Y-18987961D01*
X6992220Y-18987961D02*
X6973172Y-18978438D01*
X6973172Y-18978438D02*
X6944601Y-18978438D01*
X6944601Y-18978438D02*
X6925553Y-18968914D01*
X6925553Y-18968914D02*
X6916029Y-18949866D01*
X6916029Y-18949866D02*
X6916029Y-18940342D01*
X6916029Y-18940342D02*
X6925553Y-18921295D01*
X6925553Y-18921295D02*
X6944601Y-18911771D01*
X6944601Y-18911771D02*
X6973172Y-18911771D01*
X6973172Y-18911771D02*
X6992220Y-18921295D01*
X7068410Y-19121295D02*
X7077934Y-19111771D01*
X7077934Y-19111771D02*
X7096982Y-19083200D01*
X7096982Y-19083200D02*
X7106506Y-19064152D01*
X7106506Y-19064152D02*
X7116029Y-19035581D01*
X7116029Y-19035581D02*
X7125553Y-18987961D01*
X7125553Y-18987961D02*
X7125553Y-18949866D01*
X7125553Y-18949866D02*
X7116029Y-18902247D01*
X7116029Y-18902247D02*
X7106506Y-18873676D01*
X7106506Y-18873676D02*
X7096982Y-18854628D01*
X7096982Y-18854628D02*
X7077934Y-18826057D01*
X7077934Y-18826057D02*
X7068410Y-18816533D01*
X7430315Y-19121295D02*
X7420791Y-19111771D01*
X7420791Y-19111771D02*
X7401744Y-19083200D01*
X7401744Y-19083200D02*
X7392220Y-19064152D01*
X7392220Y-19064152D02*
X7382696Y-19035581D01*
X7382696Y-19035581D02*
X7373172Y-18987961D01*
X7373172Y-18987961D02*
X7373172Y-18949866D01*
X7373172Y-18949866D02*
X7382696Y-18902247D01*
X7382696Y-18902247D02*
X7392220Y-18873676D01*
X7392220Y-18873676D02*
X7401744Y-18854628D01*
X7401744Y-18854628D02*
X7420791Y-18826057D01*
X7420791Y-18826057D02*
X7430315Y-18816533D01*
X7506506Y-18911771D02*
X7506506Y-19045104D01*
X7506506Y-18930819D02*
X7516029Y-18921295D01*
X7516029Y-18921295D02*
X7535077Y-18911771D01*
X7535077Y-18911771D02*
X7563648Y-18911771D01*
X7563648Y-18911771D02*
X7582696Y-18921295D01*
X7582696Y-18921295D02*
X7592220Y-18940342D01*
X7592220Y-18940342D02*
X7592220Y-19045104D01*
X7716029Y-19045104D02*
X7696982Y-19035581D01*
X7696982Y-19035581D02*
X7687458Y-19026057D01*
X7687458Y-19026057D02*
X7677934Y-19007009D01*
X7677934Y-19007009D02*
X7677934Y-18949866D01*
X7677934Y-18949866D02*
X7687458Y-18930819D01*
X7687458Y-18930819D02*
X7696982Y-18921295D01*
X7696982Y-18921295D02*
X7716029Y-18911771D01*
X7716029Y-18911771D02*
X7744601Y-18911771D01*
X7744601Y-18911771D02*
X7763648Y-18921295D01*
X7763648Y-18921295D02*
X7773172Y-18930819D01*
X7773172Y-18930819D02*
X7782696Y-18949866D01*
X7782696Y-18949866D02*
X7782696Y-19007009D01*
X7782696Y-19007009D02*
X7773172Y-19026057D01*
X7773172Y-19026057D02*
X7763648Y-19035581D01*
X7763648Y-19035581D02*
X7744601Y-19045104D01*
X7744601Y-19045104D02*
X7716029Y-19045104D01*
X7839839Y-18911771D02*
X7916029Y-18911771D01*
X7868410Y-18845104D02*
X7868410Y-19016533D01*
X7868410Y-19016533D02*
X7877934Y-19035581D01*
X7877934Y-19035581D02*
X7896982Y-19045104D01*
X7896982Y-19045104D02*
X7916029Y-19045104D01*
X8135077Y-18911771D02*
X8135077Y-19111771D01*
X8135077Y-18921295D02*
X8154125Y-18911771D01*
X8154125Y-18911771D02*
X8192220Y-18911771D01*
X8192220Y-18911771D02*
X8211268Y-18921295D01*
X8211268Y-18921295D02*
X8220791Y-18930819D01*
X8220791Y-18930819D02*
X8230315Y-18949866D01*
X8230315Y-18949866D02*
X8230315Y-19007009D01*
X8230315Y-19007009D02*
X8220791Y-19026057D01*
X8220791Y-19026057D02*
X8211268Y-19035581D01*
X8211268Y-19035581D02*
X8192220Y-19045104D01*
X8192220Y-19045104D02*
X8154125Y-19045104D01*
X8154125Y-19045104D02*
X8135077Y-19035581D01*
X8344601Y-19045104D02*
X8325553Y-19035581D01*
X8325553Y-19035581D02*
X8316029Y-19016533D01*
X8316029Y-19016533D02*
X8316029Y-18845104D01*
X8506506Y-19045104D02*
X8506506Y-18940342D01*
X8506506Y-18940342D02*
X8496982Y-18921295D01*
X8496982Y-18921295D02*
X8477934Y-18911771D01*
X8477934Y-18911771D02*
X8439839Y-18911771D01*
X8439839Y-18911771D02*
X8420791Y-18921295D01*
X8506506Y-19035581D02*
X8487458Y-19045104D01*
X8487458Y-19045104D02*
X8439839Y-19045104D01*
X8439839Y-19045104D02*
X8420791Y-19035581D01*
X8420791Y-19035581D02*
X8411268Y-19016533D01*
X8411268Y-19016533D02*
X8411268Y-18997485D01*
X8411268Y-18997485D02*
X8420791Y-18978438D01*
X8420791Y-18978438D02*
X8439839Y-18968914D01*
X8439839Y-18968914D02*
X8487458Y-18968914D01*
X8487458Y-18968914D02*
X8506506Y-18959390D01*
X8573172Y-18911771D02*
X8649363Y-18911771D01*
X8601744Y-18845104D02*
X8601744Y-19016533D01*
X8601744Y-19016533D02*
X8611268Y-19035581D01*
X8611268Y-19035581D02*
X8630315Y-19045104D01*
X8630315Y-19045104D02*
X8649363Y-19045104D01*
X8792220Y-19035581D02*
X8773172Y-19045104D01*
X8773172Y-19045104D02*
X8735077Y-19045104D01*
X8735077Y-19045104D02*
X8716030Y-19035581D01*
X8716030Y-19035581D02*
X8706506Y-19016533D01*
X8706506Y-19016533D02*
X8706506Y-18940342D01*
X8706506Y-18940342D02*
X8716030Y-18921295D01*
X8716030Y-18921295D02*
X8735077Y-18911771D01*
X8735077Y-18911771D02*
X8773172Y-18911771D01*
X8773172Y-18911771D02*
X8792220Y-18921295D01*
X8792220Y-18921295D02*
X8801744Y-18940342D01*
X8801744Y-18940342D02*
X8801744Y-18959390D01*
X8801744Y-18959390D02*
X8706506Y-18978438D01*
X8973172Y-19045104D02*
X8973172Y-18845104D01*
X8973172Y-19035581D02*
X8954125Y-19045104D01*
X8954125Y-19045104D02*
X8916030Y-19045104D01*
X8916030Y-19045104D02*
X8896982Y-19035581D01*
X8896982Y-19035581D02*
X8887458Y-19026057D01*
X8887458Y-19026057D02*
X8877934Y-19007009D01*
X8877934Y-19007009D02*
X8877934Y-18949866D01*
X8877934Y-18949866D02*
X8887458Y-18930819D01*
X8887458Y-18930819D02*
X8896982Y-18921295D01*
X8896982Y-18921295D02*
X8916030Y-18911771D01*
X8916030Y-18911771D02*
X8954125Y-18911771D01*
X8954125Y-18911771D02*
X8973172Y-18921295D01*
X9049363Y-19121295D02*
X9058887Y-19111771D01*
X9058887Y-19111771D02*
X9077934Y-19083200D01*
X9077934Y-19083200D02*
X9087458Y-19064152D01*
X9087458Y-19064152D02*
X9096982Y-19035581D01*
X9096982Y-19035581D02*
X9106506Y-18987961D01*
X9106506Y-18987961D02*
X9106506Y-18949866D01*
X9106506Y-18949866D02*
X9096982Y-18902247D01*
X9096982Y-18902247D02*
X9087458Y-18873676D01*
X9087458Y-18873676D02*
X9077934Y-18854628D01*
X9077934Y-18854628D02*
X9058887Y-18826057D01*
X9058887Y-18826057D02*
X9049363Y-18816533D01*
D14*
X2208347Y-19132621D02*
X2208347Y-19302621D01*
X2123347Y-19217621D02*
X2293347Y-19217621D01*
D12*
X2658886Y-19309104D02*
X2544600Y-19309104D01*
X2601743Y-19309104D02*
X2601743Y-19109104D01*
X2601743Y-19109104D02*
X2582696Y-19137676D01*
X2582696Y-19137676D02*
X2563648Y-19156723D01*
X2563648Y-19156723D02*
X2544600Y-19166247D01*
X2744600Y-19290057D02*
X2754124Y-19299581D01*
X2754124Y-19299581D02*
X2744600Y-19309104D01*
X2744600Y-19309104D02*
X2735077Y-19299581D01*
X2735077Y-19299581D02*
X2744600Y-19290057D01*
X2744600Y-19290057D02*
X2744600Y-19309104D01*
X2820791Y-19109104D02*
X2954124Y-19109104D01*
X2954124Y-19109104D02*
X2868410Y-19309104D01*
X3068410Y-19109104D02*
X3087458Y-19109104D01*
X3087458Y-19109104D02*
X3106505Y-19118628D01*
X3106505Y-19118628D02*
X3116029Y-19128152D01*
X3116029Y-19128152D02*
X3125553Y-19147200D01*
X3125553Y-19147200D02*
X3135077Y-19185295D01*
X3135077Y-19185295D02*
X3135077Y-19232914D01*
X3135077Y-19232914D02*
X3125553Y-19271009D01*
X3125553Y-19271009D02*
X3116029Y-19290057D01*
X3116029Y-19290057D02*
X3106505Y-19299581D01*
X3106505Y-19299581D02*
X3087458Y-19309104D01*
X3087458Y-19309104D02*
X3068410Y-19309104D01*
X3068410Y-19309104D02*
X3049362Y-19299581D01*
X3049362Y-19299581D02*
X3039838Y-19290057D01*
X3039838Y-19290057D02*
X3030315Y-19271009D01*
X3030315Y-19271009D02*
X3020791Y-19232914D01*
X3020791Y-19232914D02*
X3020791Y-19185295D01*
X3020791Y-19185295D02*
X3030315Y-19147200D01*
X3030315Y-19147200D02*
X3039838Y-19128152D01*
X3039838Y-19128152D02*
X3049362Y-19118628D01*
X3049362Y-19118628D02*
X3068410Y-19109104D01*
X3258886Y-19109104D02*
X3277934Y-19109104D01*
X3277934Y-19109104D02*
X3296981Y-19118628D01*
X3296981Y-19118628D02*
X3306505Y-19128152D01*
X3306505Y-19128152D02*
X3316029Y-19147200D01*
X3316029Y-19147200D02*
X3325553Y-19185295D01*
X3325553Y-19185295D02*
X3325553Y-19232914D01*
X3325553Y-19232914D02*
X3316029Y-19271009D01*
X3316029Y-19271009D02*
X3306505Y-19290057D01*
X3306505Y-19290057D02*
X3296981Y-19299581D01*
X3296981Y-19299581D02*
X3277934Y-19309104D01*
X3277934Y-19309104D02*
X3258886Y-19309104D01*
X3258886Y-19309104D02*
X3239838Y-19299581D01*
X3239838Y-19299581D02*
X3230315Y-19290057D01*
X3230315Y-19290057D02*
X3220791Y-19271009D01*
X3220791Y-19271009D02*
X3211267Y-19232914D01*
X3211267Y-19232914D02*
X3211267Y-19185295D01*
X3211267Y-19185295D02*
X3220791Y-19147200D01*
X3220791Y-19147200D02*
X3230315Y-19128152D01*
X3230315Y-19128152D02*
X3239838Y-19118628D01*
X3239838Y-19118628D02*
X3258886Y-19109104D01*
X3411267Y-19309104D02*
X3411267Y-19175771D01*
X3411267Y-19194819D02*
X3420791Y-19185295D01*
X3420791Y-19185295D02*
X3439838Y-19175771D01*
X3439838Y-19175771D02*
X3468410Y-19175771D01*
X3468410Y-19175771D02*
X3487458Y-19185295D01*
X3487458Y-19185295D02*
X3496981Y-19204342D01*
X3496981Y-19204342D02*
X3496981Y-19309104D01*
X3496981Y-19204342D02*
X3506505Y-19185295D01*
X3506505Y-19185295D02*
X3525553Y-19175771D01*
X3525553Y-19175771D02*
X3554124Y-19175771D01*
X3554124Y-19175771D02*
X3573172Y-19185295D01*
X3573172Y-19185295D02*
X3582696Y-19204342D01*
X3582696Y-19204342D02*
X3582696Y-19309104D01*
X3677934Y-19309104D02*
X3677934Y-19175771D01*
X3677934Y-19194819D02*
X3687458Y-19185295D01*
X3687458Y-19185295D02*
X3706505Y-19175771D01*
X3706505Y-19175771D02*
X3735077Y-19175771D01*
X3735077Y-19175771D02*
X3754124Y-19185295D01*
X3754124Y-19185295D02*
X3763648Y-19204342D01*
X3763648Y-19204342D02*
X3763648Y-19309104D01*
X3763648Y-19204342D02*
X3773172Y-19185295D01*
X3773172Y-19185295D02*
X3792219Y-19175771D01*
X3792219Y-19175771D02*
X3820791Y-19175771D01*
X3820791Y-19175771D02*
X3839839Y-19185295D01*
X3839839Y-19185295D02*
X3849362Y-19204342D01*
X3849362Y-19204342D02*
X3849362Y-19309104D01*
X4239839Y-19099581D02*
X4068410Y-19356723D01*
X4496982Y-19109104D02*
X4516029Y-19109104D01*
X4516029Y-19109104D02*
X4535077Y-19118628D01*
X4535077Y-19118628D02*
X4544601Y-19128152D01*
X4544601Y-19128152D02*
X4554124Y-19147200D01*
X4554124Y-19147200D02*
X4563648Y-19185295D01*
X4563648Y-19185295D02*
X4563648Y-19232914D01*
X4563648Y-19232914D02*
X4554124Y-19271009D01*
X4554124Y-19271009D02*
X4544601Y-19290057D01*
X4544601Y-19290057D02*
X4535077Y-19299581D01*
X4535077Y-19299581D02*
X4516029Y-19309104D01*
X4516029Y-19309104D02*
X4496982Y-19309104D01*
X4496982Y-19309104D02*
X4477934Y-19299581D01*
X4477934Y-19299581D02*
X4468410Y-19290057D01*
X4468410Y-19290057D02*
X4458886Y-19271009D01*
X4458886Y-19271009D02*
X4449363Y-19232914D01*
X4449363Y-19232914D02*
X4449363Y-19185295D01*
X4449363Y-19185295D02*
X4458886Y-19147200D01*
X4458886Y-19147200D02*
X4468410Y-19128152D01*
X4468410Y-19128152D02*
X4477934Y-19118628D01*
X4477934Y-19118628D02*
X4496982Y-19109104D01*
X4649363Y-19290057D02*
X4658886Y-19299581D01*
X4658886Y-19299581D02*
X4649363Y-19309104D01*
X4649363Y-19309104D02*
X4639839Y-19299581D01*
X4639839Y-19299581D02*
X4649363Y-19290057D01*
X4649363Y-19290057D02*
X4649363Y-19309104D01*
X4782696Y-19109104D02*
X4801744Y-19109104D01*
X4801744Y-19109104D02*
X4820791Y-19118628D01*
X4820791Y-19118628D02*
X4830315Y-19128152D01*
X4830315Y-19128152D02*
X4839839Y-19147200D01*
X4839839Y-19147200D02*
X4849363Y-19185295D01*
X4849363Y-19185295D02*
X4849363Y-19232914D01*
X4849363Y-19232914D02*
X4839839Y-19271009D01*
X4839839Y-19271009D02*
X4830315Y-19290057D01*
X4830315Y-19290057D02*
X4820791Y-19299581D01*
X4820791Y-19299581D02*
X4801744Y-19309104D01*
X4801744Y-19309104D02*
X4782696Y-19309104D01*
X4782696Y-19309104D02*
X4763648Y-19299581D01*
X4763648Y-19299581D02*
X4754124Y-19290057D01*
X4754124Y-19290057D02*
X4744601Y-19271009D01*
X4744601Y-19271009D02*
X4735077Y-19232914D01*
X4735077Y-19232914D02*
X4735077Y-19185295D01*
X4735077Y-19185295D02*
X4744601Y-19147200D01*
X4744601Y-19147200D02*
X4754124Y-19128152D01*
X4754124Y-19128152D02*
X4763648Y-19118628D01*
X4763648Y-19118628D02*
X4782696Y-19109104D01*
X5020791Y-19109104D02*
X4982696Y-19109104D01*
X4982696Y-19109104D02*
X4963648Y-19118628D01*
X4963648Y-19118628D02*
X4954124Y-19128152D01*
X4954124Y-19128152D02*
X4935077Y-19156723D01*
X4935077Y-19156723D02*
X4925553Y-19194819D01*
X4925553Y-19194819D02*
X4925553Y-19271009D01*
X4925553Y-19271009D02*
X4935077Y-19290057D01*
X4935077Y-19290057D02*
X4944601Y-19299581D01*
X4944601Y-19299581D02*
X4963648Y-19309104D01*
X4963648Y-19309104D02*
X5001744Y-19309104D01*
X5001744Y-19309104D02*
X5020791Y-19299581D01*
X5020791Y-19299581D02*
X5030315Y-19290057D01*
X5030315Y-19290057D02*
X5039839Y-19271009D01*
X5039839Y-19271009D02*
X5039839Y-19223390D01*
X5039839Y-19223390D02*
X5030315Y-19204342D01*
X5030315Y-19204342D02*
X5020791Y-19194819D01*
X5020791Y-19194819D02*
X5001744Y-19185295D01*
X5001744Y-19185295D02*
X4963648Y-19185295D01*
X4963648Y-19185295D02*
X4944601Y-19194819D01*
X4944601Y-19194819D02*
X4935077Y-19204342D01*
X4935077Y-19204342D02*
X4925553Y-19223390D01*
X5211267Y-19109104D02*
X5173172Y-19109104D01*
X5173172Y-19109104D02*
X5154124Y-19118628D01*
X5154124Y-19118628D02*
X5144601Y-19128152D01*
X5144601Y-19128152D02*
X5125553Y-19156723D01*
X5125553Y-19156723D02*
X5116029Y-19194819D01*
X5116029Y-19194819D02*
X5116029Y-19271009D01*
X5116029Y-19271009D02*
X5125553Y-19290057D01*
X5125553Y-19290057D02*
X5135077Y-19299581D01*
X5135077Y-19299581D02*
X5154124Y-19309104D01*
X5154124Y-19309104D02*
X5192220Y-19309104D01*
X5192220Y-19309104D02*
X5211267Y-19299581D01*
X5211267Y-19299581D02*
X5220791Y-19290057D01*
X5220791Y-19290057D02*
X5230315Y-19271009D01*
X5230315Y-19271009D02*
X5230315Y-19223390D01*
X5230315Y-19223390D02*
X5220791Y-19204342D01*
X5220791Y-19204342D02*
X5211267Y-19194819D01*
X5211267Y-19194819D02*
X5192220Y-19185295D01*
X5192220Y-19185295D02*
X5154124Y-19185295D01*
X5154124Y-19185295D02*
X5135077Y-19194819D01*
X5135077Y-19194819D02*
X5125553Y-19204342D01*
X5125553Y-19204342D02*
X5116029Y-19223390D01*
X5325553Y-19309104D02*
X5363648Y-19309104D01*
X5363648Y-19309104D02*
X5382696Y-19299581D01*
X5382696Y-19299581D02*
X5392220Y-19290057D01*
X5392220Y-19290057D02*
X5411267Y-19261485D01*
X5411267Y-19261485D02*
X5420791Y-19223390D01*
X5420791Y-19223390D02*
X5420791Y-19147200D01*
X5420791Y-19147200D02*
X5411267Y-19128152D01*
X5411267Y-19128152D02*
X5401744Y-19118628D01*
X5401744Y-19118628D02*
X5382696Y-19109104D01*
X5382696Y-19109104D02*
X5344601Y-19109104D01*
X5344601Y-19109104D02*
X5325553Y-19118628D01*
X5325553Y-19118628D02*
X5316029Y-19128152D01*
X5316029Y-19128152D02*
X5306505Y-19147200D01*
X5306505Y-19147200D02*
X5306505Y-19194819D01*
X5306505Y-19194819D02*
X5316029Y-19213866D01*
X5316029Y-19213866D02*
X5325553Y-19223390D01*
X5325553Y-19223390D02*
X5344601Y-19232914D01*
X5344601Y-19232914D02*
X5382696Y-19232914D01*
X5382696Y-19232914D02*
X5401744Y-19223390D01*
X5401744Y-19223390D02*
X5411267Y-19213866D01*
X5411267Y-19213866D02*
X5420791Y-19194819D01*
X5496982Y-19109104D02*
X5496982Y-19147200D01*
X5573172Y-19109104D02*
X5573172Y-19147200D01*
X5868410Y-19385295D02*
X5858886Y-19375771D01*
X5858886Y-19375771D02*
X5839839Y-19347200D01*
X5839839Y-19347200D02*
X5830315Y-19328152D01*
X5830315Y-19328152D02*
X5820791Y-19299581D01*
X5820791Y-19299581D02*
X5811267Y-19251961D01*
X5811267Y-19251961D02*
X5811267Y-19213866D01*
X5811267Y-19213866D02*
X5820791Y-19166247D01*
X5820791Y-19166247D02*
X5830315Y-19137676D01*
X5830315Y-19137676D02*
X5839839Y-19118628D01*
X5839839Y-19118628D02*
X5858886Y-19090057D01*
X5858886Y-19090057D02*
X5868410Y-19080533D01*
X5925553Y-19109104D02*
X6058886Y-19109104D01*
X6058886Y-19109104D02*
X5973172Y-19309104D01*
X6125553Y-19128152D02*
X6135077Y-19118628D01*
X6135077Y-19118628D02*
X6154124Y-19109104D01*
X6154124Y-19109104D02*
X6201744Y-19109104D01*
X6201744Y-19109104D02*
X6220791Y-19118628D01*
X6220791Y-19118628D02*
X6230315Y-19128152D01*
X6230315Y-19128152D02*
X6239839Y-19147200D01*
X6239839Y-19147200D02*
X6239839Y-19166247D01*
X6239839Y-19166247D02*
X6230315Y-19194819D01*
X6230315Y-19194819D02*
X6116029Y-19309104D01*
X6116029Y-19309104D02*
X6239839Y-19309104D01*
X6477934Y-19309104D02*
X6477934Y-19109104D01*
X6563648Y-19309104D02*
X6563648Y-19204342D01*
X6563648Y-19204342D02*
X6554125Y-19185295D01*
X6554125Y-19185295D02*
X6535077Y-19175771D01*
X6535077Y-19175771D02*
X6506505Y-19175771D01*
X6506505Y-19175771D02*
X6487458Y-19185295D01*
X6487458Y-19185295D02*
X6477934Y-19194819D01*
X6687458Y-19309104D02*
X6668410Y-19299581D01*
X6668410Y-19299581D02*
X6658886Y-19290057D01*
X6658886Y-19290057D02*
X6649363Y-19271009D01*
X6649363Y-19271009D02*
X6649363Y-19213866D01*
X6649363Y-19213866D02*
X6658886Y-19194819D01*
X6658886Y-19194819D02*
X6668410Y-19185295D01*
X6668410Y-19185295D02*
X6687458Y-19175771D01*
X6687458Y-19175771D02*
X6716029Y-19175771D01*
X6716029Y-19175771D02*
X6735077Y-19185295D01*
X6735077Y-19185295D02*
X6744601Y-19194819D01*
X6744601Y-19194819D02*
X6754125Y-19213866D01*
X6754125Y-19213866D02*
X6754125Y-19271009D01*
X6754125Y-19271009D02*
X6744601Y-19290057D01*
X6744601Y-19290057D02*
X6735077Y-19299581D01*
X6735077Y-19299581D02*
X6716029Y-19309104D01*
X6716029Y-19309104D02*
X6687458Y-19309104D01*
X6868410Y-19309104D02*
X6849363Y-19299581D01*
X6849363Y-19299581D02*
X6839839Y-19280533D01*
X6839839Y-19280533D02*
X6839839Y-19109104D01*
X7020791Y-19299581D02*
X7001744Y-19309104D01*
X7001744Y-19309104D02*
X6963648Y-19309104D01*
X6963648Y-19309104D02*
X6944601Y-19299581D01*
X6944601Y-19299581D02*
X6935077Y-19280533D01*
X6935077Y-19280533D02*
X6935077Y-19204342D01*
X6935077Y-19204342D02*
X6944601Y-19185295D01*
X6944601Y-19185295D02*
X6963648Y-19175771D01*
X6963648Y-19175771D02*
X7001744Y-19175771D01*
X7001744Y-19175771D02*
X7020791Y-19185295D01*
X7020791Y-19185295D02*
X7030315Y-19204342D01*
X7030315Y-19204342D02*
X7030315Y-19223390D01*
X7030315Y-19223390D02*
X6935077Y-19242438D01*
X7106506Y-19299581D02*
X7125553Y-19309104D01*
X7125553Y-19309104D02*
X7163648Y-19309104D01*
X7163648Y-19309104D02*
X7182696Y-19299581D01*
X7182696Y-19299581D02*
X7192220Y-19280533D01*
X7192220Y-19280533D02*
X7192220Y-19271009D01*
X7192220Y-19271009D02*
X7182696Y-19251961D01*
X7182696Y-19251961D02*
X7163648Y-19242438D01*
X7163648Y-19242438D02*
X7135077Y-19242438D01*
X7135077Y-19242438D02*
X7116029Y-19232914D01*
X7116029Y-19232914D02*
X7106506Y-19213866D01*
X7106506Y-19213866D02*
X7106506Y-19204342D01*
X7106506Y-19204342D02*
X7116029Y-19185295D01*
X7116029Y-19185295D02*
X7135077Y-19175771D01*
X7135077Y-19175771D02*
X7163648Y-19175771D01*
X7163648Y-19175771D02*
X7182696Y-19185295D01*
X7258887Y-19385295D02*
X7268410Y-19375771D01*
X7268410Y-19375771D02*
X7287458Y-19347200D01*
X7287458Y-19347200D02*
X7296982Y-19328152D01*
X7296982Y-19328152D02*
X7306506Y-19299581D01*
X7306506Y-19299581D02*
X7316029Y-19251961D01*
X7316029Y-19251961D02*
X7316029Y-19213866D01*
X7316029Y-19213866D02*
X7306506Y-19166247D01*
X7306506Y-19166247D02*
X7296982Y-19137676D01*
X7296982Y-19137676D02*
X7287458Y-19118628D01*
X7287458Y-19118628D02*
X7268410Y-19090057D01*
X7268410Y-19090057D02*
X7258887Y-19080533D01*
X7620791Y-19385295D02*
X7611267Y-19375771D01*
X7611267Y-19375771D02*
X7592220Y-19347200D01*
X7592220Y-19347200D02*
X7582696Y-19328152D01*
X7582696Y-19328152D02*
X7573172Y-19299581D01*
X7573172Y-19299581D02*
X7563648Y-19251961D01*
X7563648Y-19251961D02*
X7563648Y-19213866D01*
X7563648Y-19213866D02*
X7573172Y-19166247D01*
X7573172Y-19166247D02*
X7582696Y-19137676D01*
X7582696Y-19137676D02*
X7592220Y-19118628D01*
X7592220Y-19118628D02*
X7611267Y-19090057D01*
X7611267Y-19090057D02*
X7620791Y-19080533D01*
X7696982Y-19175771D02*
X7696982Y-19309104D01*
X7696982Y-19194819D02*
X7706506Y-19185295D01*
X7706506Y-19185295D02*
X7725553Y-19175771D01*
X7725553Y-19175771D02*
X7754125Y-19175771D01*
X7754125Y-19175771D02*
X7773172Y-19185295D01*
X7773172Y-19185295D02*
X7782696Y-19204342D01*
X7782696Y-19204342D02*
X7782696Y-19309104D01*
X7906506Y-19309104D02*
X7887458Y-19299581D01*
X7887458Y-19299581D02*
X7877934Y-19290057D01*
X7877934Y-19290057D02*
X7868410Y-19271009D01*
X7868410Y-19271009D02*
X7868410Y-19213866D01*
X7868410Y-19213866D02*
X7877934Y-19194819D01*
X7877934Y-19194819D02*
X7887458Y-19185295D01*
X7887458Y-19185295D02*
X7906506Y-19175771D01*
X7906506Y-19175771D02*
X7935077Y-19175771D01*
X7935077Y-19175771D02*
X7954125Y-19185295D01*
X7954125Y-19185295D02*
X7963648Y-19194819D01*
X7963648Y-19194819D02*
X7973172Y-19213866D01*
X7973172Y-19213866D02*
X7973172Y-19271009D01*
X7973172Y-19271009D02*
X7963648Y-19290057D01*
X7963648Y-19290057D02*
X7954125Y-19299581D01*
X7954125Y-19299581D02*
X7935077Y-19309104D01*
X7935077Y-19309104D02*
X7906506Y-19309104D01*
X8030315Y-19175771D02*
X8106506Y-19175771D01*
X8058887Y-19109104D02*
X8058887Y-19280533D01*
X8058887Y-19280533D02*
X8068410Y-19299581D01*
X8068410Y-19299581D02*
X8087458Y-19309104D01*
X8087458Y-19309104D02*
X8106506Y-19309104D01*
X8325553Y-19175771D02*
X8325553Y-19375771D01*
X8325553Y-19185295D02*
X8344601Y-19175771D01*
X8344601Y-19175771D02*
X8382696Y-19175771D01*
X8382696Y-19175771D02*
X8401744Y-19185295D01*
X8401744Y-19185295D02*
X8411268Y-19194819D01*
X8411268Y-19194819D02*
X8420791Y-19213866D01*
X8420791Y-19213866D02*
X8420791Y-19271009D01*
X8420791Y-19271009D02*
X8411268Y-19290057D01*
X8411268Y-19290057D02*
X8401744Y-19299581D01*
X8401744Y-19299581D02*
X8382696Y-19309104D01*
X8382696Y-19309104D02*
X8344601Y-19309104D01*
X8344601Y-19309104D02*
X8325553Y-19299581D01*
X8535077Y-19309104D02*
X8516030Y-19299581D01*
X8516030Y-19299581D02*
X8506506Y-19280533D01*
X8506506Y-19280533D02*
X8506506Y-19109104D01*
X8696982Y-19309104D02*
X8696982Y-19204342D01*
X8696982Y-19204342D02*
X8687458Y-19185295D01*
X8687458Y-19185295D02*
X8668411Y-19175771D01*
X8668411Y-19175771D02*
X8630315Y-19175771D01*
X8630315Y-19175771D02*
X8611268Y-19185295D01*
X8696982Y-19299581D02*
X8677934Y-19309104D01*
X8677934Y-19309104D02*
X8630315Y-19309104D01*
X8630315Y-19309104D02*
X8611268Y-19299581D01*
X8611268Y-19299581D02*
X8601744Y-19280533D01*
X8601744Y-19280533D02*
X8601744Y-19261485D01*
X8601744Y-19261485D02*
X8611268Y-19242438D01*
X8611268Y-19242438D02*
X8630315Y-19232914D01*
X8630315Y-19232914D02*
X8677934Y-19232914D01*
X8677934Y-19232914D02*
X8696982Y-19223390D01*
X8763649Y-19175771D02*
X8839839Y-19175771D01*
X8792220Y-19109104D02*
X8792220Y-19280533D01*
X8792220Y-19280533D02*
X8801744Y-19299581D01*
X8801744Y-19299581D02*
X8820791Y-19309104D01*
X8820791Y-19309104D02*
X8839839Y-19309104D01*
X8982696Y-19299581D02*
X8963649Y-19309104D01*
X8963649Y-19309104D02*
X8925553Y-19309104D01*
X8925553Y-19309104D02*
X8906506Y-19299581D01*
X8906506Y-19299581D02*
X8896982Y-19280533D01*
X8896982Y-19280533D02*
X8896982Y-19204342D01*
X8896982Y-19204342D02*
X8906506Y-19185295D01*
X8906506Y-19185295D02*
X8925553Y-19175771D01*
X8925553Y-19175771D02*
X8963649Y-19175771D01*
X8963649Y-19175771D02*
X8982696Y-19185295D01*
X8982696Y-19185295D02*
X8992220Y-19204342D01*
X8992220Y-19204342D02*
X8992220Y-19223390D01*
X8992220Y-19223390D02*
X8896982Y-19242438D01*
X9163649Y-19309104D02*
X9163649Y-19109104D01*
X9163649Y-19299581D02*
X9144601Y-19309104D01*
X9144601Y-19309104D02*
X9106506Y-19309104D01*
X9106506Y-19309104D02*
X9087458Y-19299581D01*
X9087458Y-19299581D02*
X9077934Y-19290057D01*
X9077934Y-19290057D02*
X9068411Y-19271009D01*
X9068411Y-19271009D02*
X9068411Y-19213866D01*
X9068411Y-19213866D02*
X9077934Y-19194819D01*
X9077934Y-19194819D02*
X9087458Y-19185295D01*
X9087458Y-19185295D02*
X9106506Y-19175771D01*
X9106506Y-19175771D02*
X9144601Y-19175771D01*
X9144601Y-19175771D02*
X9163649Y-19185295D01*
X9239839Y-19385295D02*
X9249363Y-19375771D01*
X9249363Y-19375771D02*
X9268411Y-19347200D01*
X9268411Y-19347200D02*
X9277934Y-19328152D01*
X9277934Y-19328152D02*
X9287458Y-19299581D01*
X9287458Y-19299581D02*
X9296982Y-19251961D01*
X9296982Y-19251961D02*
X9296982Y-19213866D01*
X9296982Y-19213866D02*
X9287458Y-19166247D01*
X9287458Y-19166247D02*
X9277934Y-19137676D01*
X9277934Y-19137676D02*
X9268411Y-19118628D01*
X9268411Y-19118628D02*
X9249363Y-19090057D01*
X9249363Y-19090057D02*
X9239839Y-19080533D01*
X2264059Y-19578332D02*
X2264059Y-19436909D01*
X2122636Y-19436909D01*
X2122636Y-19578332D01*
X2264059Y-19578332D01*
X2535077Y-19399104D02*
X2658886Y-19399104D01*
X2658886Y-19399104D02*
X2592219Y-19475295D01*
X2592219Y-19475295D02*
X2620791Y-19475295D01*
X2620791Y-19475295D02*
X2639839Y-19484819D01*
X2639839Y-19484819D02*
X2649362Y-19494342D01*
X2649362Y-19494342D02*
X2658886Y-19513390D01*
X2658886Y-19513390D02*
X2658886Y-19561009D01*
X2658886Y-19561009D02*
X2649362Y-19580057D01*
X2649362Y-19580057D02*
X2639839Y-19589581D01*
X2639839Y-19589581D02*
X2620791Y-19599104D01*
X2620791Y-19599104D02*
X2563648Y-19599104D01*
X2563648Y-19599104D02*
X2544600Y-19589581D01*
X2544600Y-19589581D02*
X2535077Y-19580057D01*
X2744600Y-19580057D02*
X2754124Y-19589581D01*
X2754124Y-19589581D02*
X2744600Y-19599104D01*
X2744600Y-19599104D02*
X2735077Y-19589581D01*
X2735077Y-19589581D02*
X2744600Y-19580057D01*
X2744600Y-19580057D02*
X2744600Y-19599104D01*
X2877934Y-19399104D02*
X2896981Y-19399104D01*
X2896981Y-19399104D02*
X2916029Y-19408628D01*
X2916029Y-19408628D02*
X2925553Y-19418152D01*
X2925553Y-19418152D02*
X2935077Y-19437200D01*
X2935077Y-19437200D02*
X2944600Y-19475295D01*
X2944600Y-19475295D02*
X2944600Y-19522914D01*
X2944600Y-19522914D02*
X2935077Y-19561009D01*
X2935077Y-19561009D02*
X2925553Y-19580057D01*
X2925553Y-19580057D02*
X2916029Y-19589581D01*
X2916029Y-19589581D02*
X2896981Y-19599104D01*
X2896981Y-19599104D02*
X2877934Y-19599104D01*
X2877934Y-19599104D02*
X2858886Y-19589581D01*
X2858886Y-19589581D02*
X2849362Y-19580057D01*
X2849362Y-19580057D02*
X2839838Y-19561009D01*
X2839838Y-19561009D02*
X2830315Y-19522914D01*
X2830315Y-19522914D02*
X2830315Y-19475295D01*
X2830315Y-19475295D02*
X2839838Y-19437200D01*
X2839838Y-19437200D02*
X2849362Y-19418152D01*
X2849362Y-19418152D02*
X2858886Y-19408628D01*
X2858886Y-19408628D02*
X2877934Y-19399104D01*
X3068410Y-19399104D02*
X3087458Y-19399104D01*
X3087458Y-19399104D02*
X3106505Y-19408628D01*
X3106505Y-19408628D02*
X3116029Y-19418152D01*
X3116029Y-19418152D02*
X3125553Y-19437200D01*
X3125553Y-19437200D02*
X3135077Y-19475295D01*
X3135077Y-19475295D02*
X3135077Y-19522914D01*
X3135077Y-19522914D02*
X3125553Y-19561009D01*
X3125553Y-19561009D02*
X3116029Y-19580057D01*
X3116029Y-19580057D02*
X3106505Y-19589581D01*
X3106505Y-19589581D02*
X3087458Y-19599104D01*
X3087458Y-19599104D02*
X3068410Y-19599104D01*
X3068410Y-19599104D02*
X3049362Y-19589581D01*
X3049362Y-19589581D02*
X3039838Y-19580057D01*
X3039838Y-19580057D02*
X3030315Y-19561009D01*
X3030315Y-19561009D02*
X3020791Y-19522914D01*
X3020791Y-19522914D02*
X3020791Y-19475295D01*
X3020791Y-19475295D02*
X3030315Y-19437200D01*
X3030315Y-19437200D02*
X3039838Y-19418152D01*
X3039838Y-19418152D02*
X3049362Y-19408628D01*
X3049362Y-19408628D02*
X3068410Y-19399104D01*
X3258886Y-19399104D02*
X3277934Y-19399104D01*
X3277934Y-19399104D02*
X3296981Y-19408628D01*
X3296981Y-19408628D02*
X3306505Y-19418152D01*
X3306505Y-19418152D02*
X3316029Y-19437200D01*
X3316029Y-19437200D02*
X3325553Y-19475295D01*
X3325553Y-19475295D02*
X3325553Y-19522914D01*
X3325553Y-19522914D02*
X3316029Y-19561009D01*
X3316029Y-19561009D02*
X3306505Y-19580057D01*
X3306505Y-19580057D02*
X3296981Y-19589581D01*
X3296981Y-19589581D02*
X3277934Y-19599104D01*
X3277934Y-19599104D02*
X3258886Y-19599104D01*
X3258886Y-19599104D02*
X3239838Y-19589581D01*
X3239838Y-19589581D02*
X3230315Y-19580057D01*
X3230315Y-19580057D02*
X3220791Y-19561009D01*
X3220791Y-19561009D02*
X3211267Y-19522914D01*
X3211267Y-19522914D02*
X3211267Y-19475295D01*
X3211267Y-19475295D02*
X3220791Y-19437200D01*
X3220791Y-19437200D02*
X3230315Y-19418152D01*
X3230315Y-19418152D02*
X3239838Y-19408628D01*
X3239838Y-19408628D02*
X3258886Y-19399104D01*
X3411267Y-19599104D02*
X3411267Y-19465771D01*
X3411267Y-19484819D02*
X3420791Y-19475295D01*
X3420791Y-19475295D02*
X3439838Y-19465771D01*
X3439838Y-19465771D02*
X3468410Y-19465771D01*
X3468410Y-19465771D02*
X3487458Y-19475295D01*
X3487458Y-19475295D02*
X3496981Y-19494342D01*
X3496981Y-19494342D02*
X3496981Y-19599104D01*
X3496981Y-19494342D02*
X3506505Y-19475295D01*
X3506505Y-19475295D02*
X3525553Y-19465771D01*
X3525553Y-19465771D02*
X3554124Y-19465771D01*
X3554124Y-19465771D02*
X3573172Y-19475295D01*
X3573172Y-19475295D02*
X3582696Y-19494342D01*
X3582696Y-19494342D02*
X3582696Y-19599104D01*
X3677934Y-19599104D02*
X3677934Y-19465771D01*
X3677934Y-19484819D02*
X3687458Y-19475295D01*
X3687458Y-19475295D02*
X3706505Y-19465771D01*
X3706505Y-19465771D02*
X3735077Y-19465771D01*
X3735077Y-19465771D02*
X3754124Y-19475295D01*
X3754124Y-19475295D02*
X3763648Y-19494342D01*
X3763648Y-19494342D02*
X3763648Y-19599104D01*
X3763648Y-19494342D02*
X3773172Y-19475295D01*
X3773172Y-19475295D02*
X3792219Y-19465771D01*
X3792219Y-19465771D02*
X3820791Y-19465771D01*
X3820791Y-19465771D02*
X3839839Y-19475295D01*
X3839839Y-19475295D02*
X3849362Y-19494342D01*
X3849362Y-19494342D02*
X3849362Y-19599104D01*
X4239839Y-19389581D02*
X4068410Y-19646723D01*
X4496982Y-19399104D02*
X4516029Y-19399104D01*
X4516029Y-19399104D02*
X4535077Y-19408628D01*
X4535077Y-19408628D02*
X4544601Y-19418152D01*
X4544601Y-19418152D02*
X4554124Y-19437200D01*
X4554124Y-19437200D02*
X4563648Y-19475295D01*
X4563648Y-19475295D02*
X4563648Y-19522914D01*
X4563648Y-19522914D02*
X4554124Y-19561009D01*
X4554124Y-19561009D02*
X4544601Y-19580057D01*
X4544601Y-19580057D02*
X4535077Y-19589581D01*
X4535077Y-19589581D02*
X4516029Y-19599104D01*
X4516029Y-19599104D02*
X4496982Y-19599104D01*
X4496982Y-19599104D02*
X4477934Y-19589581D01*
X4477934Y-19589581D02*
X4468410Y-19580057D01*
X4468410Y-19580057D02*
X4458886Y-19561009D01*
X4458886Y-19561009D02*
X4449363Y-19522914D01*
X4449363Y-19522914D02*
X4449363Y-19475295D01*
X4449363Y-19475295D02*
X4458886Y-19437200D01*
X4458886Y-19437200D02*
X4468410Y-19418152D01*
X4468410Y-19418152D02*
X4477934Y-19408628D01*
X4477934Y-19408628D02*
X4496982Y-19399104D01*
X4649363Y-19580057D02*
X4658886Y-19589581D01*
X4658886Y-19589581D02*
X4649363Y-19599104D01*
X4649363Y-19599104D02*
X4639839Y-19589581D01*
X4639839Y-19589581D02*
X4649363Y-19580057D01*
X4649363Y-19580057D02*
X4649363Y-19599104D01*
X4849363Y-19599104D02*
X4735077Y-19599104D01*
X4792220Y-19599104D02*
X4792220Y-19399104D01*
X4792220Y-19399104D02*
X4773172Y-19427676D01*
X4773172Y-19427676D02*
X4754124Y-19446723D01*
X4754124Y-19446723D02*
X4735077Y-19456247D01*
X5039839Y-19599104D02*
X4925553Y-19599104D01*
X4982696Y-19599104D02*
X4982696Y-19399104D01*
X4982696Y-19399104D02*
X4963648Y-19427676D01*
X4963648Y-19427676D02*
X4944601Y-19446723D01*
X4944601Y-19446723D02*
X4925553Y-19456247D01*
X5154124Y-19484819D02*
X5135077Y-19475295D01*
X5135077Y-19475295D02*
X5125553Y-19465771D01*
X5125553Y-19465771D02*
X5116029Y-19446723D01*
X5116029Y-19446723D02*
X5116029Y-19437200D01*
X5116029Y-19437200D02*
X5125553Y-19418152D01*
X5125553Y-19418152D02*
X5135077Y-19408628D01*
X5135077Y-19408628D02*
X5154124Y-19399104D01*
X5154124Y-19399104D02*
X5192220Y-19399104D01*
X5192220Y-19399104D02*
X5211267Y-19408628D01*
X5211267Y-19408628D02*
X5220791Y-19418152D01*
X5220791Y-19418152D02*
X5230315Y-19437200D01*
X5230315Y-19437200D02*
X5230315Y-19446723D01*
X5230315Y-19446723D02*
X5220791Y-19465771D01*
X5220791Y-19465771D02*
X5211267Y-19475295D01*
X5211267Y-19475295D02*
X5192220Y-19484819D01*
X5192220Y-19484819D02*
X5154124Y-19484819D01*
X5154124Y-19484819D02*
X5135077Y-19494342D01*
X5135077Y-19494342D02*
X5125553Y-19503866D01*
X5125553Y-19503866D02*
X5116029Y-19522914D01*
X5116029Y-19522914D02*
X5116029Y-19561009D01*
X5116029Y-19561009D02*
X5125553Y-19580057D01*
X5125553Y-19580057D02*
X5135077Y-19589581D01*
X5135077Y-19589581D02*
X5154124Y-19599104D01*
X5154124Y-19599104D02*
X5192220Y-19599104D01*
X5192220Y-19599104D02*
X5211267Y-19589581D01*
X5211267Y-19589581D02*
X5220791Y-19580057D01*
X5220791Y-19580057D02*
X5230315Y-19561009D01*
X5230315Y-19561009D02*
X5230315Y-19522914D01*
X5230315Y-19522914D02*
X5220791Y-19503866D01*
X5220791Y-19503866D02*
X5211267Y-19494342D01*
X5211267Y-19494342D02*
X5192220Y-19484819D01*
X5420791Y-19599104D02*
X5306505Y-19599104D01*
X5363648Y-19599104D02*
X5363648Y-19399104D01*
X5363648Y-19399104D02*
X5344601Y-19427676D01*
X5344601Y-19427676D02*
X5325553Y-19446723D01*
X5325553Y-19446723D02*
X5306505Y-19456247D01*
X5496982Y-19399104D02*
X5496982Y-19437200D01*
X5573172Y-19399104D02*
X5573172Y-19437200D01*
X5868410Y-19675295D02*
X5858886Y-19665771D01*
X5858886Y-19665771D02*
X5839839Y-19637200D01*
X5839839Y-19637200D02*
X5830315Y-19618152D01*
X5830315Y-19618152D02*
X5820791Y-19589581D01*
X5820791Y-19589581D02*
X5811267Y-19541961D01*
X5811267Y-19541961D02*
X5811267Y-19503866D01*
X5811267Y-19503866D02*
X5820791Y-19456247D01*
X5820791Y-19456247D02*
X5830315Y-19427676D01*
X5830315Y-19427676D02*
X5839839Y-19408628D01*
X5839839Y-19408628D02*
X5858886Y-19380057D01*
X5858886Y-19380057D02*
X5868410Y-19370533D01*
X5925553Y-19399104D02*
X6058886Y-19399104D01*
X6058886Y-19399104D02*
X5973172Y-19599104D01*
X6125553Y-19418152D02*
X6135077Y-19408628D01*
X6135077Y-19408628D02*
X6154124Y-19399104D01*
X6154124Y-19399104D02*
X6201744Y-19399104D01*
X6201744Y-19399104D02*
X6220791Y-19408628D01*
X6220791Y-19408628D02*
X6230315Y-19418152D01*
X6230315Y-19418152D02*
X6239839Y-19437200D01*
X6239839Y-19437200D02*
X6239839Y-19456247D01*
X6239839Y-19456247D02*
X6230315Y-19484819D01*
X6230315Y-19484819D02*
X6116029Y-19599104D01*
X6116029Y-19599104D02*
X6239839Y-19599104D01*
X6477934Y-19599104D02*
X6477934Y-19399104D01*
X6563648Y-19599104D02*
X6563648Y-19494342D01*
X6563648Y-19494342D02*
X6554125Y-19475295D01*
X6554125Y-19475295D02*
X6535077Y-19465771D01*
X6535077Y-19465771D02*
X6506505Y-19465771D01*
X6506505Y-19465771D02*
X6487458Y-19475295D01*
X6487458Y-19475295D02*
X6477934Y-19484819D01*
X6687458Y-19599104D02*
X6668410Y-19589581D01*
X6668410Y-19589581D02*
X6658886Y-19580057D01*
X6658886Y-19580057D02*
X6649363Y-19561009D01*
X6649363Y-19561009D02*
X6649363Y-19503866D01*
X6649363Y-19503866D02*
X6658886Y-19484819D01*
X6658886Y-19484819D02*
X6668410Y-19475295D01*
X6668410Y-19475295D02*
X6687458Y-19465771D01*
X6687458Y-19465771D02*
X6716029Y-19465771D01*
X6716029Y-19465771D02*
X6735077Y-19475295D01*
X6735077Y-19475295D02*
X6744601Y-19484819D01*
X6744601Y-19484819D02*
X6754125Y-19503866D01*
X6754125Y-19503866D02*
X6754125Y-19561009D01*
X6754125Y-19561009D02*
X6744601Y-19580057D01*
X6744601Y-19580057D02*
X6735077Y-19589581D01*
X6735077Y-19589581D02*
X6716029Y-19599104D01*
X6716029Y-19599104D02*
X6687458Y-19599104D01*
X6868410Y-19599104D02*
X6849363Y-19589581D01*
X6849363Y-19589581D02*
X6839839Y-19570533D01*
X6839839Y-19570533D02*
X6839839Y-19399104D01*
X7020791Y-19589581D02*
X7001744Y-19599104D01*
X7001744Y-19599104D02*
X6963648Y-19599104D01*
X6963648Y-19599104D02*
X6944601Y-19589581D01*
X6944601Y-19589581D02*
X6935077Y-19570533D01*
X6935077Y-19570533D02*
X6935077Y-19494342D01*
X6935077Y-19494342D02*
X6944601Y-19475295D01*
X6944601Y-19475295D02*
X6963648Y-19465771D01*
X6963648Y-19465771D02*
X7001744Y-19465771D01*
X7001744Y-19465771D02*
X7020791Y-19475295D01*
X7020791Y-19475295D02*
X7030315Y-19494342D01*
X7030315Y-19494342D02*
X7030315Y-19513390D01*
X7030315Y-19513390D02*
X6935077Y-19532438D01*
X7106506Y-19589581D02*
X7125553Y-19599104D01*
X7125553Y-19599104D02*
X7163648Y-19599104D01*
X7163648Y-19599104D02*
X7182696Y-19589581D01*
X7182696Y-19589581D02*
X7192220Y-19570533D01*
X7192220Y-19570533D02*
X7192220Y-19561009D01*
X7192220Y-19561009D02*
X7182696Y-19541961D01*
X7182696Y-19541961D02*
X7163648Y-19532438D01*
X7163648Y-19532438D02*
X7135077Y-19532438D01*
X7135077Y-19532438D02*
X7116029Y-19522914D01*
X7116029Y-19522914D02*
X7106506Y-19503866D01*
X7106506Y-19503866D02*
X7106506Y-19494342D01*
X7106506Y-19494342D02*
X7116029Y-19475295D01*
X7116029Y-19475295D02*
X7135077Y-19465771D01*
X7135077Y-19465771D02*
X7163648Y-19465771D01*
X7163648Y-19465771D02*
X7182696Y-19475295D01*
X7258887Y-19675295D02*
X7268410Y-19665771D01*
X7268410Y-19665771D02*
X7287458Y-19637200D01*
X7287458Y-19637200D02*
X7296982Y-19618152D01*
X7296982Y-19618152D02*
X7306506Y-19589581D01*
X7306506Y-19589581D02*
X7316029Y-19541961D01*
X7316029Y-19541961D02*
X7316029Y-19503866D01*
X7316029Y-19503866D02*
X7306506Y-19456247D01*
X7306506Y-19456247D02*
X7296982Y-19427676D01*
X7296982Y-19427676D02*
X7287458Y-19408628D01*
X7287458Y-19408628D02*
X7268410Y-19380057D01*
X7268410Y-19380057D02*
X7258887Y-19370533D01*
X7620791Y-19675295D02*
X7611267Y-19665771D01*
X7611267Y-19665771D02*
X7592220Y-19637200D01*
X7592220Y-19637200D02*
X7582696Y-19618152D01*
X7582696Y-19618152D02*
X7573172Y-19589581D01*
X7573172Y-19589581D02*
X7563648Y-19541961D01*
X7563648Y-19541961D02*
X7563648Y-19503866D01*
X7563648Y-19503866D02*
X7573172Y-19456247D01*
X7573172Y-19456247D02*
X7582696Y-19427676D01*
X7582696Y-19427676D02*
X7592220Y-19408628D01*
X7592220Y-19408628D02*
X7611267Y-19380057D01*
X7611267Y-19380057D02*
X7620791Y-19370533D01*
X7696982Y-19465771D02*
X7696982Y-19599104D01*
X7696982Y-19484819D02*
X7706506Y-19475295D01*
X7706506Y-19475295D02*
X7725553Y-19465771D01*
X7725553Y-19465771D02*
X7754125Y-19465771D01*
X7754125Y-19465771D02*
X7773172Y-19475295D01*
X7773172Y-19475295D02*
X7782696Y-19494342D01*
X7782696Y-19494342D02*
X7782696Y-19599104D01*
X7906506Y-19599104D02*
X7887458Y-19589581D01*
X7887458Y-19589581D02*
X7877934Y-19580057D01*
X7877934Y-19580057D02*
X7868410Y-19561009D01*
X7868410Y-19561009D02*
X7868410Y-19503866D01*
X7868410Y-19503866D02*
X7877934Y-19484819D01*
X7877934Y-19484819D02*
X7887458Y-19475295D01*
X7887458Y-19475295D02*
X7906506Y-19465771D01*
X7906506Y-19465771D02*
X7935077Y-19465771D01*
X7935077Y-19465771D02*
X7954125Y-19475295D01*
X7954125Y-19475295D02*
X7963648Y-19484819D01*
X7963648Y-19484819D02*
X7973172Y-19503866D01*
X7973172Y-19503866D02*
X7973172Y-19561009D01*
X7973172Y-19561009D02*
X7963648Y-19580057D01*
X7963648Y-19580057D02*
X7954125Y-19589581D01*
X7954125Y-19589581D02*
X7935077Y-19599104D01*
X7935077Y-19599104D02*
X7906506Y-19599104D01*
X8030315Y-19465771D02*
X8106506Y-19465771D01*
X8058887Y-19399104D02*
X8058887Y-19570533D01*
X8058887Y-19570533D02*
X8068410Y-19589581D01*
X8068410Y-19589581D02*
X8087458Y-19599104D01*
X8087458Y-19599104D02*
X8106506Y-19599104D01*
X8325553Y-19465771D02*
X8325553Y-19665771D01*
X8325553Y-19475295D02*
X8344601Y-19465771D01*
X8344601Y-19465771D02*
X8382696Y-19465771D01*
X8382696Y-19465771D02*
X8401744Y-19475295D01*
X8401744Y-19475295D02*
X8411268Y-19484819D01*
X8411268Y-19484819D02*
X8420791Y-19503866D01*
X8420791Y-19503866D02*
X8420791Y-19561009D01*
X8420791Y-19561009D02*
X8411268Y-19580057D01*
X8411268Y-19580057D02*
X8401744Y-19589581D01*
X8401744Y-19589581D02*
X8382696Y-19599104D01*
X8382696Y-19599104D02*
X8344601Y-19599104D01*
X8344601Y-19599104D02*
X8325553Y-19589581D01*
X8535077Y-19599104D02*
X8516030Y-19589581D01*
X8516030Y-19589581D02*
X8506506Y-19570533D01*
X8506506Y-19570533D02*
X8506506Y-19399104D01*
X8696982Y-19599104D02*
X8696982Y-19494342D01*
X8696982Y-19494342D02*
X8687458Y-19475295D01*
X8687458Y-19475295D02*
X8668411Y-19465771D01*
X8668411Y-19465771D02*
X8630315Y-19465771D01*
X8630315Y-19465771D02*
X8611268Y-19475295D01*
X8696982Y-19589581D02*
X8677934Y-19599104D01*
X8677934Y-19599104D02*
X8630315Y-19599104D01*
X8630315Y-19599104D02*
X8611268Y-19589581D01*
X8611268Y-19589581D02*
X8601744Y-19570533D01*
X8601744Y-19570533D02*
X8601744Y-19551485D01*
X8601744Y-19551485D02*
X8611268Y-19532438D01*
X8611268Y-19532438D02*
X8630315Y-19522914D01*
X8630315Y-19522914D02*
X8677934Y-19522914D01*
X8677934Y-19522914D02*
X8696982Y-19513390D01*
X8763649Y-19465771D02*
X8839839Y-19465771D01*
X8792220Y-19399104D02*
X8792220Y-19570533D01*
X8792220Y-19570533D02*
X8801744Y-19589581D01*
X8801744Y-19589581D02*
X8820791Y-19599104D01*
X8820791Y-19599104D02*
X8839839Y-19599104D01*
X8982696Y-19589581D02*
X8963649Y-19599104D01*
X8963649Y-19599104D02*
X8925553Y-19599104D01*
X8925553Y-19599104D02*
X8906506Y-19589581D01*
X8906506Y-19589581D02*
X8896982Y-19570533D01*
X8896982Y-19570533D02*
X8896982Y-19494342D01*
X8896982Y-19494342D02*
X8906506Y-19475295D01*
X8906506Y-19475295D02*
X8925553Y-19465771D01*
X8925553Y-19465771D02*
X8963649Y-19465771D01*
X8963649Y-19465771D02*
X8982696Y-19475295D01*
X8982696Y-19475295D02*
X8992220Y-19494342D01*
X8992220Y-19494342D02*
X8992220Y-19513390D01*
X8992220Y-19513390D02*
X8896982Y-19532438D01*
X9163649Y-19599104D02*
X9163649Y-19399104D01*
X9163649Y-19589581D02*
X9144601Y-19599104D01*
X9144601Y-19599104D02*
X9106506Y-19599104D01*
X9106506Y-19599104D02*
X9087458Y-19589581D01*
X9087458Y-19589581D02*
X9077934Y-19580057D01*
X9077934Y-19580057D02*
X9068411Y-19561009D01*
X9068411Y-19561009D02*
X9068411Y-19503866D01*
X9068411Y-19503866D02*
X9077934Y-19484819D01*
X9077934Y-19484819D02*
X9087458Y-19475295D01*
X9087458Y-19475295D02*
X9106506Y-19465771D01*
X9106506Y-19465771D02*
X9144601Y-19465771D01*
X9144601Y-19465771D02*
X9163649Y-19475295D01*
X9239839Y-19675295D02*
X9249363Y-19665771D01*
X9249363Y-19665771D02*
X9268411Y-19637200D01*
X9268411Y-19637200D02*
X9277934Y-19618152D01*
X9277934Y-19618152D02*
X9287458Y-19589581D01*
X9287458Y-19589581D02*
X9296982Y-19541961D01*
X9296982Y-19541961D02*
X9296982Y-19503866D01*
X9296982Y-19503866D02*
X9287458Y-19456247D01*
X9287458Y-19456247D02*
X9277934Y-19427676D01*
X9277934Y-19427676D02*
X9268411Y-19408628D01*
X9268411Y-19408628D02*
X9249363Y-19380057D01*
X9249363Y-19380057D02*
X9239839Y-19370533D01*
X2193347Y-19927621D02*
X2293347Y-19827621D01*
X2193347Y-19727621D01*
X2093347Y-19827621D01*
X2193347Y-19927621D01*
X2639839Y-19785771D02*
X2639839Y-19919104D01*
X2592219Y-19709581D02*
X2544600Y-19852438D01*
X2544600Y-19852438D02*
X2668410Y-19852438D01*
X2744600Y-19900057D02*
X2754124Y-19909581D01*
X2754124Y-19909581D02*
X2744600Y-19919104D01*
X2744600Y-19919104D02*
X2735077Y-19909581D01*
X2735077Y-19909581D02*
X2744600Y-19900057D01*
X2744600Y-19900057D02*
X2744600Y-19919104D01*
X2877934Y-19719104D02*
X2896981Y-19719104D01*
X2896981Y-19719104D02*
X2916029Y-19728628D01*
X2916029Y-19728628D02*
X2925553Y-19738152D01*
X2925553Y-19738152D02*
X2935077Y-19757200D01*
X2935077Y-19757200D02*
X2944600Y-19795295D01*
X2944600Y-19795295D02*
X2944600Y-19842914D01*
X2944600Y-19842914D02*
X2935077Y-19881009D01*
X2935077Y-19881009D02*
X2925553Y-19900057D01*
X2925553Y-19900057D02*
X2916029Y-19909581D01*
X2916029Y-19909581D02*
X2896981Y-19919104D01*
X2896981Y-19919104D02*
X2877934Y-19919104D01*
X2877934Y-19919104D02*
X2858886Y-19909581D01*
X2858886Y-19909581D02*
X2849362Y-19900057D01*
X2849362Y-19900057D02*
X2839838Y-19881009D01*
X2839838Y-19881009D02*
X2830315Y-19842914D01*
X2830315Y-19842914D02*
X2830315Y-19795295D01*
X2830315Y-19795295D02*
X2839838Y-19757200D01*
X2839838Y-19757200D02*
X2849362Y-19738152D01*
X2849362Y-19738152D02*
X2858886Y-19728628D01*
X2858886Y-19728628D02*
X2877934Y-19719104D01*
X3068410Y-19719104D02*
X3087458Y-19719104D01*
X3087458Y-19719104D02*
X3106505Y-19728628D01*
X3106505Y-19728628D02*
X3116029Y-19738152D01*
X3116029Y-19738152D02*
X3125553Y-19757200D01*
X3125553Y-19757200D02*
X3135077Y-19795295D01*
X3135077Y-19795295D02*
X3135077Y-19842914D01*
X3135077Y-19842914D02*
X3125553Y-19881009D01*
X3125553Y-19881009D02*
X3116029Y-19900057D01*
X3116029Y-19900057D02*
X3106505Y-19909581D01*
X3106505Y-19909581D02*
X3087458Y-19919104D01*
X3087458Y-19919104D02*
X3068410Y-19919104D01*
X3068410Y-19919104D02*
X3049362Y-19909581D01*
X3049362Y-19909581D02*
X3039838Y-19900057D01*
X3039838Y-19900057D02*
X3030315Y-19881009D01*
X3030315Y-19881009D02*
X3020791Y-19842914D01*
X3020791Y-19842914D02*
X3020791Y-19795295D01*
X3020791Y-19795295D02*
X3030315Y-19757200D01*
X3030315Y-19757200D02*
X3039838Y-19738152D01*
X3039838Y-19738152D02*
X3049362Y-19728628D01*
X3049362Y-19728628D02*
X3068410Y-19719104D01*
X3258886Y-19719104D02*
X3277934Y-19719104D01*
X3277934Y-19719104D02*
X3296981Y-19728628D01*
X3296981Y-19728628D02*
X3306505Y-19738152D01*
X3306505Y-19738152D02*
X3316029Y-19757200D01*
X3316029Y-19757200D02*
X3325553Y-19795295D01*
X3325553Y-19795295D02*
X3325553Y-19842914D01*
X3325553Y-19842914D02*
X3316029Y-19881009D01*
X3316029Y-19881009D02*
X3306505Y-19900057D01*
X3306505Y-19900057D02*
X3296981Y-19909581D01*
X3296981Y-19909581D02*
X3277934Y-19919104D01*
X3277934Y-19919104D02*
X3258886Y-19919104D01*
X3258886Y-19919104D02*
X3239838Y-19909581D01*
X3239838Y-19909581D02*
X3230315Y-19900057D01*
X3230315Y-19900057D02*
X3220791Y-19881009D01*
X3220791Y-19881009D02*
X3211267Y-19842914D01*
X3211267Y-19842914D02*
X3211267Y-19795295D01*
X3211267Y-19795295D02*
X3220791Y-19757200D01*
X3220791Y-19757200D02*
X3230315Y-19738152D01*
X3230315Y-19738152D02*
X3239838Y-19728628D01*
X3239838Y-19728628D02*
X3258886Y-19719104D01*
X3411267Y-19919104D02*
X3411267Y-19785771D01*
X3411267Y-19804819D02*
X3420791Y-19795295D01*
X3420791Y-19795295D02*
X3439838Y-19785771D01*
X3439838Y-19785771D02*
X3468410Y-19785771D01*
X3468410Y-19785771D02*
X3487458Y-19795295D01*
X3487458Y-19795295D02*
X3496981Y-19814342D01*
X3496981Y-19814342D02*
X3496981Y-19919104D01*
X3496981Y-19814342D02*
X3506505Y-19795295D01*
X3506505Y-19795295D02*
X3525553Y-19785771D01*
X3525553Y-19785771D02*
X3554124Y-19785771D01*
X3554124Y-19785771D02*
X3573172Y-19795295D01*
X3573172Y-19795295D02*
X3582696Y-19814342D01*
X3582696Y-19814342D02*
X3582696Y-19919104D01*
X3677934Y-19919104D02*
X3677934Y-19785771D01*
X3677934Y-19804819D02*
X3687458Y-19795295D01*
X3687458Y-19795295D02*
X3706505Y-19785771D01*
X3706505Y-19785771D02*
X3735077Y-19785771D01*
X3735077Y-19785771D02*
X3754124Y-19795295D01*
X3754124Y-19795295D02*
X3763648Y-19814342D01*
X3763648Y-19814342D02*
X3763648Y-19919104D01*
X3763648Y-19814342D02*
X3773172Y-19795295D01*
X3773172Y-19795295D02*
X3792219Y-19785771D01*
X3792219Y-19785771D02*
X3820791Y-19785771D01*
X3820791Y-19785771D02*
X3839839Y-19795295D01*
X3839839Y-19795295D02*
X3849362Y-19814342D01*
X3849362Y-19814342D02*
X3849362Y-19919104D01*
X4239839Y-19709581D02*
X4068410Y-19966723D01*
X4496982Y-19719104D02*
X4516029Y-19719104D01*
X4516029Y-19719104D02*
X4535077Y-19728628D01*
X4535077Y-19728628D02*
X4544601Y-19738152D01*
X4544601Y-19738152D02*
X4554124Y-19757200D01*
X4554124Y-19757200D02*
X4563648Y-19795295D01*
X4563648Y-19795295D02*
X4563648Y-19842914D01*
X4563648Y-19842914D02*
X4554124Y-19881009D01*
X4554124Y-19881009D02*
X4544601Y-19900057D01*
X4544601Y-19900057D02*
X4535077Y-19909581D01*
X4535077Y-19909581D02*
X4516029Y-19919104D01*
X4516029Y-19919104D02*
X4496982Y-19919104D01*
X4496982Y-19919104D02*
X4477934Y-19909581D01*
X4477934Y-19909581D02*
X4468410Y-19900057D01*
X4468410Y-19900057D02*
X4458886Y-19881009D01*
X4458886Y-19881009D02*
X4449363Y-19842914D01*
X4449363Y-19842914D02*
X4449363Y-19795295D01*
X4449363Y-19795295D02*
X4458886Y-19757200D01*
X4458886Y-19757200D02*
X4468410Y-19738152D01*
X4468410Y-19738152D02*
X4477934Y-19728628D01*
X4477934Y-19728628D02*
X4496982Y-19719104D01*
X4649363Y-19900057D02*
X4658886Y-19909581D01*
X4658886Y-19909581D02*
X4649363Y-19919104D01*
X4649363Y-19919104D02*
X4639839Y-19909581D01*
X4639839Y-19909581D02*
X4649363Y-19900057D01*
X4649363Y-19900057D02*
X4649363Y-19919104D01*
X4849363Y-19919104D02*
X4735077Y-19919104D01*
X4792220Y-19919104D02*
X4792220Y-19719104D01*
X4792220Y-19719104D02*
X4773172Y-19747676D01*
X4773172Y-19747676D02*
X4754124Y-19766723D01*
X4754124Y-19766723D02*
X4735077Y-19776247D01*
X5030315Y-19719104D02*
X4935077Y-19719104D01*
X4935077Y-19719104D02*
X4925553Y-19814342D01*
X4925553Y-19814342D02*
X4935077Y-19804819D01*
X4935077Y-19804819D02*
X4954124Y-19795295D01*
X4954124Y-19795295D02*
X5001744Y-19795295D01*
X5001744Y-19795295D02*
X5020791Y-19804819D01*
X5020791Y-19804819D02*
X5030315Y-19814342D01*
X5030315Y-19814342D02*
X5039839Y-19833390D01*
X5039839Y-19833390D02*
X5039839Y-19881009D01*
X5039839Y-19881009D02*
X5030315Y-19900057D01*
X5030315Y-19900057D02*
X5020791Y-19909581D01*
X5020791Y-19909581D02*
X5001744Y-19919104D01*
X5001744Y-19919104D02*
X4954124Y-19919104D01*
X4954124Y-19919104D02*
X4935077Y-19909581D01*
X4935077Y-19909581D02*
X4925553Y-19900057D01*
X5106505Y-19719104D02*
X5239839Y-19719104D01*
X5239839Y-19719104D02*
X5154124Y-19919104D01*
X5411267Y-19719104D02*
X5316029Y-19719104D01*
X5316029Y-19719104D02*
X5306505Y-19814342D01*
X5306505Y-19814342D02*
X5316029Y-19804819D01*
X5316029Y-19804819D02*
X5335077Y-19795295D01*
X5335077Y-19795295D02*
X5382696Y-19795295D01*
X5382696Y-19795295D02*
X5401744Y-19804819D01*
X5401744Y-19804819D02*
X5411267Y-19814342D01*
X5411267Y-19814342D02*
X5420791Y-19833390D01*
X5420791Y-19833390D02*
X5420791Y-19881009D01*
X5420791Y-19881009D02*
X5411267Y-19900057D01*
X5411267Y-19900057D02*
X5401744Y-19909581D01*
X5401744Y-19909581D02*
X5382696Y-19919104D01*
X5382696Y-19919104D02*
X5335077Y-19919104D01*
X5335077Y-19919104D02*
X5316029Y-19909581D01*
X5316029Y-19909581D02*
X5306505Y-19900057D01*
X5496982Y-19719104D02*
X5496982Y-19757200D01*
X5573172Y-19719104D02*
X5573172Y-19757200D01*
X5868410Y-19995295D02*
X5858886Y-19985771D01*
X5858886Y-19985771D02*
X5839839Y-19957200D01*
X5839839Y-19957200D02*
X5830315Y-19938152D01*
X5830315Y-19938152D02*
X5820791Y-19909581D01*
X5820791Y-19909581D02*
X5811267Y-19861961D01*
X5811267Y-19861961D02*
X5811267Y-19823866D01*
X5811267Y-19823866D02*
X5820791Y-19776247D01*
X5820791Y-19776247D02*
X5830315Y-19747676D01*
X5830315Y-19747676D02*
X5839839Y-19728628D01*
X5839839Y-19728628D02*
X5858886Y-19700057D01*
X5858886Y-19700057D02*
X5868410Y-19690533D01*
X5925553Y-19719104D02*
X6049363Y-19719104D01*
X6049363Y-19719104D02*
X5982696Y-19795295D01*
X5982696Y-19795295D02*
X6011267Y-19795295D01*
X6011267Y-19795295D02*
X6030315Y-19804819D01*
X6030315Y-19804819D02*
X6039839Y-19814342D01*
X6039839Y-19814342D02*
X6049363Y-19833390D01*
X6049363Y-19833390D02*
X6049363Y-19881009D01*
X6049363Y-19881009D02*
X6039839Y-19900057D01*
X6039839Y-19900057D02*
X6030315Y-19909581D01*
X6030315Y-19909581D02*
X6011267Y-19919104D01*
X6011267Y-19919104D02*
X5954124Y-19919104D01*
X5954124Y-19919104D02*
X5935077Y-19909581D01*
X5935077Y-19909581D02*
X5925553Y-19900057D01*
X6220791Y-19719104D02*
X6182696Y-19719104D01*
X6182696Y-19719104D02*
X6163648Y-19728628D01*
X6163648Y-19728628D02*
X6154124Y-19738152D01*
X6154124Y-19738152D02*
X6135077Y-19766723D01*
X6135077Y-19766723D02*
X6125553Y-19804819D01*
X6125553Y-19804819D02*
X6125553Y-19881009D01*
X6125553Y-19881009D02*
X6135077Y-19900057D01*
X6135077Y-19900057D02*
X6144601Y-19909581D01*
X6144601Y-19909581D02*
X6163648Y-19919104D01*
X6163648Y-19919104D02*
X6201744Y-19919104D01*
X6201744Y-19919104D02*
X6220791Y-19909581D01*
X6220791Y-19909581D02*
X6230315Y-19900057D01*
X6230315Y-19900057D02*
X6239839Y-19881009D01*
X6239839Y-19881009D02*
X6239839Y-19833390D01*
X6239839Y-19833390D02*
X6230315Y-19814342D01*
X6230315Y-19814342D02*
X6220791Y-19804819D01*
X6220791Y-19804819D02*
X6201744Y-19795295D01*
X6201744Y-19795295D02*
X6163648Y-19795295D01*
X6163648Y-19795295D02*
X6144601Y-19804819D01*
X6144601Y-19804819D02*
X6135077Y-19814342D01*
X6135077Y-19814342D02*
X6125553Y-19833390D01*
X6477934Y-19919104D02*
X6477934Y-19719104D01*
X6563648Y-19919104D02*
X6563648Y-19814342D01*
X6563648Y-19814342D02*
X6554125Y-19795295D01*
X6554125Y-19795295D02*
X6535077Y-19785771D01*
X6535077Y-19785771D02*
X6506505Y-19785771D01*
X6506505Y-19785771D02*
X6487458Y-19795295D01*
X6487458Y-19795295D02*
X6477934Y-19804819D01*
X6687458Y-19919104D02*
X6668410Y-19909581D01*
X6668410Y-19909581D02*
X6658886Y-19900057D01*
X6658886Y-19900057D02*
X6649363Y-19881009D01*
X6649363Y-19881009D02*
X6649363Y-19823866D01*
X6649363Y-19823866D02*
X6658886Y-19804819D01*
X6658886Y-19804819D02*
X6668410Y-19795295D01*
X6668410Y-19795295D02*
X6687458Y-19785771D01*
X6687458Y-19785771D02*
X6716029Y-19785771D01*
X6716029Y-19785771D02*
X6735077Y-19795295D01*
X6735077Y-19795295D02*
X6744601Y-19804819D01*
X6744601Y-19804819D02*
X6754125Y-19823866D01*
X6754125Y-19823866D02*
X6754125Y-19881009D01*
X6754125Y-19881009D02*
X6744601Y-19900057D01*
X6744601Y-19900057D02*
X6735077Y-19909581D01*
X6735077Y-19909581D02*
X6716029Y-19919104D01*
X6716029Y-19919104D02*
X6687458Y-19919104D01*
X6868410Y-19919104D02*
X6849363Y-19909581D01*
X6849363Y-19909581D02*
X6839839Y-19890533D01*
X6839839Y-19890533D02*
X6839839Y-19719104D01*
X7020791Y-19909581D02*
X7001744Y-19919104D01*
X7001744Y-19919104D02*
X6963648Y-19919104D01*
X6963648Y-19919104D02*
X6944601Y-19909581D01*
X6944601Y-19909581D02*
X6935077Y-19890533D01*
X6935077Y-19890533D02*
X6935077Y-19814342D01*
X6935077Y-19814342D02*
X6944601Y-19795295D01*
X6944601Y-19795295D02*
X6963648Y-19785771D01*
X6963648Y-19785771D02*
X7001744Y-19785771D01*
X7001744Y-19785771D02*
X7020791Y-19795295D01*
X7020791Y-19795295D02*
X7030315Y-19814342D01*
X7030315Y-19814342D02*
X7030315Y-19833390D01*
X7030315Y-19833390D02*
X6935077Y-19852438D01*
X7106506Y-19909581D02*
X7125553Y-19919104D01*
X7125553Y-19919104D02*
X7163648Y-19919104D01*
X7163648Y-19919104D02*
X7182696Y-19909581D01*
X7182696Y-19909581D02*
X7192220Y-19890533D01*
X7192220Y-19890533D02*
X7192220Y-19881009D01*
X7192220Y-19881009D02*
X7182696Y-19861961D01*
X7182696Y-19861961D02*
X7163648Y-19852438D01*
X7163648Y-19852438D02*
X7135077Y-19852438D01*
X7135077Y-19852438D02*
X7116029Y-19842914D01*
X7116029Y-19842914D02*
X7106506Y-19823866D01*
X7106506Y-19823866D02*
X7106506Y-19814342D01*
X7106506Y-19814342D02*
X7116029Y-19795295D01*
X7116029Y-19795295D02*
X7135077Y-19785771D01*
X7135077Y-19785771D02*
X7163648Y-19785771D01*
X7163648Y-19785771D02*
X7182696Y-19795295D01*
X7258887Y-19995295D02*
X7268410Y-19985771D01*
X7268410Y-19985771D02*
X7287458Y-19957200D01*
X7287458Y-19957200D02*
X7296982Y-19938152D01*
X7296982Y-19938152D02*
X7306506Y-19909581D01*
X7306506Y-19909581D02*
X7316029Y-19861961D01*
X7316029Y-19861961D02*
X7316029Y-19823866D01*
X7316029Y-19823866D02*
X7306506Y-19776247D01*
X7306506Y-19776247D02*
X7296982Y-19747676D01*
X7296982Y-19747676D02*
X7287458Y-19728628D01*
X7287458Y-19728628D02*
X7268410Y-19700057D01*
X7268410Y-19700057D02*
X7258887Y-19690533D01*
X7620791Y-19995295D02*
X7611267Y-19985771D01*
X7611267Y-19985771D02*
X7592220Y-19957200D01*
X7592220Y-19957200D02*
X7582696Y-19938152D01*
X7582696Y-19938152D02*
X7573172Y-19909581D01*
X7573172Y-19909581D02*
X7563648Y-19861961D01*
X7563648Y-19861961D02*
X7563648Y-19823866D01*
X7563648Y-19823866D02*
X7573172Y-19776247D01*
X7573172Y-19776247D02*
X7582696Y-19747676D01*
X7582696Y-19747676D02*
X7592220Y-19728628D01*
X7592220Y-19728628D02*
X7611267Y-19700057D01*
X7611267Y-19700057D02*
X7620791Y-19690533D01*
X7696982Y-19785771D02*
X7696982Y-19919104D01*
X7696982Y-19804819D02*
X7706506Y-19795295D01*
X7706506Y-19795295D02*
X7725553Y-19785771D01*
X7725553Y-19785771D02*
X7754125Y-19785771D01*
X7754125Y-19785771D02*
X7773172Y-19795295D01*
X7773172Y-19795295D02*
X7782696Y-19814342D01*
X7782696Y-19814342D02*
X7782696Y-19919104D01*
X7906506Y-19919104D02*
X7887458Y-19909581D01*
X7887458Y-19909581D02*
X7877934Y-19900057D01*
X7877934Y-19900057D02*
X7868410Y-19881009D01*
X7868410Y-19881009D02*
X7868410Y-19823866D01*
X7868410Y-19823866D02*
X7877934Y-19804819D01*
X7877934Y-19804819D02*
X7887458Y-19795295D01*
X7887458Y-19795295D02*
X7906506Y-19785771D01*
X7906506Y-19785771D02*
X7935077Y-19785771D01*
X7935077Y-19785771D02*
X7954125Y-19795295D01*
X7954125Y-19795295D02*
X7963648Y-19804819D01*
X7963648Y-19804819D02*
X7973172Y-19823866D01*
X7973172Y-19823866D02*
X7973172Y-19881009D01*
X7973172Y-19881009D02*
X7963648Y-19900057D01*
X7963648Y-19900057D02*
X7954125Y-19909581D01*
X7954125Y-19909581D02*
X7935077Y-19919104D01*
X7935077Y-19919104D02*
X7906506Y-19919104D01*
X8030315Y-19785771D02*
X8106506Y-19785771D01*
X8058887Y-19719104D02*
X8058887Y-19890533D01*
X8058887Y-19890533D02*
X8068410Y-19909581D01*
X8068410Y-19909581D02*
X8087458Y-19919104D01*
X8087458Y-19919104D02*
X8106506Y-19919104D01*
X8325553Y-19785771D02*
X8325553Y-19985771D01*
X8325553Y-19795295D02*
X8344601Y-19785771D01*
X8344601Y-19785771D02*
X8382696Y-19785771D01*
X8382696Y-19785771D02*
X8401744Y-19795295D01*
X8401744Y-19795295D02*
X8411268Y-19804819D01*
X8411268Y-19804819D02*
X8420791Y-19823866D01*
X8420791Y-19823866D02*
X8420791Y-19881009D01*
X8420791Y-19881009D02*
X8411268Y-19900057D01*
X8411268Y-19900057D02*
X8401744Y-19909581D01*
X8401744Y-19909581D02*
X8382696Y-19919104D01*
X8382696Y-19919104D02*
X8344601Y-19919104D01*
X8344601Y-19919104D02*
X8325553Y-19909581D01*
X8535077Y-19919104D02*
X8516030Y-19909581D01*
X8516030Y-19909581D02*
X8506506Y-19890533D01*
X8506506Y-19890533D02*
X8506506Y-19719104D01*
X8696982Y-19919104D02*
X8696982Y-19814342D01*
X8696982Y-19814342D02*
X8687458Y-19795295D01*
X8687458Y-19795295D02*
X8668411Y-19785771D01*
X8668411Y-19785771D02*
X8630315Y-19785771D01*
X8630315Y-19785771D02*
X8611268Y-19795295D01*
X8696982Y-19909581D02*
X8677934Y-19919104D01*
X8677934Y-19919104D02*
X8630315Y-19919104D01*
X8630315Y-19919104D02*
X8611268Y-19909581D01*
X8611268Y-19909581D02*
X8601744Y-19890533D01*
X8601744Y-19890533D02*
X8601744Y-19871485D01*
X8601744Y-19871485D02*
X8611268Y-19852438D01*
X8611268Y-19852438D02*
X8630315Y-19842914D01*
X8630315Y-19842914D02*
X8677934Y-19842914D01*
X8677934Y-19842914D02*
X8696982Y-19833390D01*
X8763649Y-19785771D02*
X8839839Y-19785771D01*
X8792220Y-19719104D02*
X8792220Y-19890533D01*
X8792220Y-19890533D02*
X8801744Y-19909581D01*
X8801744Y-19909581D02*
X8820791Y-19919104D01*
X8820791Y-19919104D02*
X8839839Y-19919104D01*
X8982696Y-19909581D02*
X8963649Y-19919104D01*
X8963649Y-19919104D02*
X8925553Y-19919104D01*
X8925553Y-19919104D02*
X8906506Y-19909581D01*
X8906506Y-19909581D02*
X8896982Y-19890533D01*
X8896982Y-19890533D02*
X8896982Y-19814342D01*
X8896982Y-19814342D02*
X8906506Y-19795295D01*
X8906506Y-19795295D02*
X8925553Y-19785771D01*
X8925553Y-19785771D02*
X8963649Y-19785771D01*
X8963649Y-19785771D02*
X8982696Y-19795295D01*
X8982696Y-19795295D02*
X8992220Y-19814342D01*
X8992220Y-19814342D02*
X8992220Y-19833390D01*
X8992220Y-19833390D02*
X8896982Y-19852438D01*
X9163649Y-19919104D02*
X9163649Y-19719104D01*
X9163649Y-19909581D02*
X9144601Y-19919104D01*
X9144601Y-19919104D02*
X9106506Y-19919104D01*
X9106506Y-19919104D02*
X9087458Y-19909581D01*
X9087458Y-19909581D02*
X9077934Y-19900057D01*
X9077934Y-19900057D02*
X9068411Y-19881009D01*
X9068411Y-19881009D02*
X9068411Y-19823866D01*
X9068411Y-19823866D02*
X9077934Y-19804819D01*
X9077934Y-19804819D02*
X9087458Y-19795295D01*
X9087458Y-19795295D02*
X9106506Y-19785771D01*
X9106506Y-19785771D02*
X9144601Y-19785771D01*
X9144601Y-19785771D02*
X9163649Y-19795295D01*
X9239839Y-19995295D02*
X9249363Y-19985771D01*
X9249363Y-19985771D02*
X9268411Y-19957200D01*
X9268411Y-19957200D02*
X9277934Y-19938152D01*
X9277934Y-19938152D02*
X9287458Y-19909581D01*
X9287458Y-19909581D02*
X9296982Y-19861961D01*
X9296982Y-19861961D02*
X9296982Y-19823866D01*
X9296982Y-19823866D02*
X9287458Y-19776247D01*
X9287458Y-19776247D02*
X9277934Y-19747676D01*
X9277934Y-19747676D02*
X9268411Y-19728628D01*
X9268411Y-19728628D02*
X9249363Y-19700057D01*
X9249363Y-19700057D02*
X9239839Y-19690533D01*
X2093347Y-20047621D02*
X2293347Y-20247621D01*
X2293347Y-20047621D02*
X2093347Y-20247621D01*
X2293347Y-20147621D02*
G75*
G02*
X2093347Y-20147621I-100000J0D01*
G01*
X2093347Y-20147621D02*
G75*
G02*
X2293347Y-20147621I100000J0D01*
G01*
X2649362Y-20039104D02*
X2554124Y-20039104D01*
X2554124Y-20039104D02*
X2544600Y-20134342D01*
X2544600Y-20134342D02*
X2554124Y-20124819D01*
X2554124Y-20124819D02*
X2573172Y-20115295D01*
X2573172Y-20115295D02*
X2620791Y-20115295D01*
X2620791Y-20115295D02*
X2639839Y-20124819D01*
X2639839Y-20124819D02*
X2649362Y-20134342D01*
X2649362Y-20134342D02*
X2658886Y-20153390D01*
X2658886Y-20153390D02*
X2658886Y-20201009D01*
X2658886Y-20201009D02*
X2649362Y-20220057D01*
X2649362Y-20220057D02*
X2639839Y-20229581D01*
X2639839Y-20229581D02*
X2620791Y-20239104D01*
X2620791Y-20239104D02*
X2573172Y-20239104D01*
X2573172Y-20239104D02*
X2554124Y-20229581D01*
X2554124Y-20229581D02*
X2544600Y-20220057D01*
X2744600Y-20220057D02*
X2754124Y-20229581D01*
X2754124Y-20229581D02*
X2744600Y-20239104D01*
X2744600Y-20239104D02*
X2735077Y-20229581D01*
X2735077Y-20229581D02*
X2744600Y-20220057D01*
X2744600Y-20220057D02*
X2744600Y-20239104D01*
X2877934Y-20039104D02*
X2896981Y-20039104D01*
X2896981Y-20039104D02*
X2916029Y-20048628D01*
X2916029Y-20048628D02*
X2925553Y-20058152D01*
X2925553Y-20058152D02*
X2935077Y-20077200D01*
X2935077Y-20077200D02*
X2944600Y-20115295D01*
X2944600Y-20115295D02*
X2944600Y-20162914D01*
X2944600Y-20162914D02*
X2935077Y-20201009D01*
X2935077Y-20201009D02*
X2925553Y-20220057D01*
X2925553Y-20220057D02*
X2916029Y-20229581D01*
X2916029Y-20229581D02*
X2896981Y-20239104D01*
X2896981Y-20239104D02*
X2877934Y-20239104D01*
X2877934Y-20239104D02*
X2858886Y-20229581D01*
X2858886Y-20229581D02*
X2849362Y-20220057D01*
X2849362Y-20220057D02*
X2839838Y-20201009D01*
X2839838Y-20201009D02*
X2830315Y-20162914D01*
X2830315Y-20162914D02*
X2830315Y-20115295D01*
X2830315Y-20115295D02*
X2839838Y-20077200D01*
X2839838Y-20077200D02*
X2849362Y-20058152D01*
X2849362Y-20058152D02*
X2858886Y-20048628D01*
X2858886Y-20048628D02*
X2877934Y-20039104D01*
X3068410Y-20039104D02*
X3087458Y-20039104D01*
X3087458Y-20039104D02*
X3106505Y-20048628D01*
X3106505Y-20048628D02*
X3116029Y-20058152D01*
X3116029Y-20058152D02*
X3125553Y-20077200D01*
X3125553Y-20077200D02*
X3135077Y-20115295D01*
X3135077Y-20115295D02*
X3135077Y-20162914D01*
X3135077Y-20162914D02*
X3125553Y-20201009D01*
X3125553Y-20201009D02*
X3116029Y-20220057D01*
X3116029Y-20220057D02*
X3106505Y-20229581D01*
X3106505Y-20229581D02*
X3087458Y-20239104D01*
X3087458Y-20239104D02*
X3068410Y-20239104D01*
X3068410Y-20239104D02*
X3049362Y-20229581D01*
X3049362Y-20229581D02*
X3039838Y-20220057D01*
X3039838Y-20220057D02*
X3030315Y-20201009D01*
X3030315Y-20201009D02*
X3020791Y-20162914D01*
X3020791Y-20162914D02*
X3020791Y-20115295D01*
X3020791Y-20115295D02*
X3030315Y-20077200D01*
X3030315Y-20077200D02*
X3039838Y-20058152D01*
X3039838Y-20058152D02*
X3049362Y-20048628D01*
X3049362Y-20048628D02*
X3068410Y-20039104D01*
X3258886Y-20039104D02*
X3277934Y-20039104D01*
X3277934Y-20039104D02*
X3296981Y-20048628D01*
X3296981Y-20048628D02*
X3306505Y-20058152D01*
X3306505Y-20058152D02*
X3316029Y-20077200D01*
X3316029Y-20077200D02*
X3325553Y-20115295D01*
X3325553Y-20115295D02*
X3325553Y-20162914D01*
X3325553Y-20162914D02*
X3316029Y-20201009D01*
X3316029Y-20201009D02*
X3306505Y-20220057D01*
X3306505Y-20220057D02*
X3296981Y-20229581D01*
X3296981Y-20229581D02*
X3277934Y-20239104D01*
X3277934Y-20239104D02*
X3258886Y-20239104D01*
X3258886Y-20239104D02*
X3239838Y-20229581D01*
X3239838Y-20229581D02*
X3230315Y-20220057D01*
X3230315Y-20220057D02*
X3220791Y-20201009D01*
X3220791Y-20201009D02*
X3211267Y-20162914D01*
X3211267Y-20162914D02*
X3211267Y-20115295D01*
X3211267Y-20115295D02*
X3220791Y-20077200D01*
X3220791Y-20077200D02*
X3230315Y-20058152D01*
X3230315Y-20058152D02*
X3239838Y-20048628D01*
X3239838Y-20048628D02*
X3258886Y-20039104D01*
X3411267Y-20239104D02*
X3411267Y-20105771D01*
X3411267Y-20124819D02*
X3420791Y-20115295D01*
X3420791Y-20115295D02*
X3439838Y-20105771D01*
X3439838Y-20105771D02*
X3468410Y-20105771D01*
X3468410Y-20105771D02*
X3487458Y-20115295D01*
X3487458Y-20115295D02*
X3496981Y-20134342D01*
X3496981Y-20134342D02*
X3496981Y-20239104D01*
X3496981Y-20134342D02*
X3506505Y-20115295D01*
X3506505Y-20115295D02*
X3525553Y-20105771D01*
X3525553Y-20105771D02*
X3554124Y-20105771D01*
X3554124Y-20105771D02*
X3573172Y-20115295D01*
X3573172Y-20115295D02*
X3582696Y-20134342D01*
X3582696Y-20134342D02*
X3582696Y-20239104D01*
X3677934Y-20239104D02*
X3677934Y-20105771D01*
X3677934Y-20124819D02*
X3687458Y-20115295D01*
X3687458Y-20115295D02*
X3706505Y-20105771D01*
X3706505Y-20105771D02*
X3735077Y-20105771D01*
X3735077Y-20105771D02*
X3754124Y-20115295D01*
X3754124Y-20115295D02*
X3763648Y-20134342D01*
X3763648Y-20134342D02*
X3763648Y-20239104D01*
X3763648Y-20134342D02*
X3773172Y-20115295D01*
X3773172Y-20115295D02*
X3792219Y-20105771D01*
X3792219Y-20105771D02*
X3820791Y-20105771D01*
X3820791Y-20105771D02*
X3839839Y-20115295D01*
X3839839Y-20115295D02*
X3849362Y-20134342D01*
X3849362Y-20134342D02*
X3849362Y-20239104D01*
X4239839Y-20029581D02*
X4068410Y-20286723D01*
X4496982Y-20039104D02*
X4516029Y-20039104D01*
X4516029Y-20039104D02*
X4535077Y-20048628D01*
X4535077Y-20048628D02*
X4544601Y-20058152D01*
X4544601Y-20058152D02*
X4554124Y-20077200D01*
X4554124Y-20077200D02*
X4563648Y-20115295D01*
X4563648Y-20115295D02*
X4563648Y-20162914D01*
X4563648Y-20162914D02*
X4554124Y-20201009D01*
X4554124Y-20201009D02*
X4544601Y-20220057D01*
X4544601Y-20220057D02*
X4535077Y-20229581D01*
X4535077Y-20229581D02*
X4516029Y-20239104D01*
X4516029Y-20239104D02*
X4496982Y-20239104D01*
X4496982Y-20239104D02*
X4477934Y-20229581D01*
X4477934Y-20229581D02*
X4468410Y-20220057D01*
X4468410Y-20220057D02*
X4458886Y-20201009D01*
X4458886Y-20201009D02*
X4449363Y-20162914D01*
X4449363Y-20162914D02*
X4449363Y-20115295D01*
X4449363Y-20115295D02*
X4458886Y-20077200D01*
X4458886Y-20077200D02*
X4468410Y-20058152D01*
X4468410Y-20058152D02*
X4477934Y-20048628D01*
X4477934Y-20048628D02*
X4496982Y-20039104D01*
X4649363Y-20220057D02*
X4658886Y-20229581D01*
X4658886Y-20229581D02*
X4649363Y-20239104D01*
X4649363Y-20239104D02*
X4639839Y-20229581D01*
X4639839Y-20229581D02*
X4649363Y-20220057D01*
X4649363Y-20220057D02*
X4649363Y-20239104D01*
X4849363Y-20239104D02*
X4735077Y-20239104D01*
X4792220Y-20239104D02*
X4792220Y-20039104D01*
X4792220Y-20039104D02*
X4773172Y-20067676D01*
X4773172Y-20067676D02*
X4754124Y-20086723D01*
X4754124Y-20086723D02*
X4735077Y-20096247D01*
X4944601Y-20239104D02*
X4982696Y-20239104D01*
X4982696Y-20239104D02*
X5001744Y-20229581D01*
X5001744Y-20229581D02*
X5011267Y-20220057D01*
X5011267Y-20220057D02*
X5030315Y-20191485D01*
X5030315Y-20191485D02*
X5039839Y-20153390D01*
X5039839Y-20153390D02*
X5039839Y-20077200D01*
X5039839Y-20077200D02*
X5030315Y-20058152D01*
X5030315Y-20058152D02*
X5020791Y-20048628D01*
X5020791Y-20048628D02*
X5001744Y-20039104D01*
X5001744Y-20039104D02*
X4963648Y-20039104D01*
X4963648Y-20039104D02*
X4944601Y-20048628D01*
X4944601Y-20048628D02*
X4935077Y-20058152D01*
X4935077Y-20058152D02*
X4925553Y-20077200D01*
X4925553Y-20077200D02*
X4925553Y-20124819D01*
X4925553Y-20124819D02*
X4935077Y-20143866D01*
X4935077Y-20143866D02*
X4944601Y-20153390D01*
X4944601Y-20153390D02*
X4963648Y-20162914D01*
X4963648Y-20162914D02*
X5001744Y-20162914D01*
X5001744Y-20162914D02*
X5020791Y-20153390D01*
X5020791Y-20153390D02*
X5030315Y-20143866D01*
X5030315Y-20143866D02*
X5039839Y-20124819D01*
X5211267Y-20039104D02*
X5173172Y-20039104D01*
X5173172Y-20039104D02*
X5154124Y-20048628D01*
X5154124Y-20048628D02*
X5144601Y-20058152D01*
X5144601Y-20058152D02*
X5125553Y-20086723D01*
X5125553Y-20086723D02*
X5116029Y-20124819D01*
X5116029Y-20124819D02*
X5116029Y-20201009D01*
X5116029Y-20201009D02*
X5125553Y-20220057D01*
X5125553Y-20220057D02*
X5135077Y-20229581D01*
X5135077Y-20229581D02*
X5154124Y-20239104D01*
X5154124Y-20239104D02*
X5192220Y-20239104D01*
X5192220Y-20239104D02*
X5211267Y-20229581D01*
X5211267Y-20229581D02*
X5220791Y-20220057D01*
X5220791Y-20220057D02*
X5230315Y-20201009D01*
X5230315Y-20201009D02*
X5230315Y-20153390D01*
X5230315Y-20153390D02*
X5220791Y-20134342D01*
X5220791Y-20134342D02*
X5211267Y-20124819D01*
X5211267Y-20124819D02*
X5192220Y-20115295D01*
X5192220Y-20115295D02*
X5154124Y-20115295D01*
X5154124Y-20115295D02*
X5135077Y-20124819D01*
X5135077Y-20124819D02*
X5125553Y-20134342D01*
X5125553Y-20134342D02*
X5116029Y-20153390D01*
X5325553Y-20239104D02*
X5363648Y-20239104D01*
X5363648Y-20239104D02*
X5382696Y-20229581D01*
X5382696Y-20229581D02*
X5392220Y-20220057D01*
X5392220Y-20220057D02*
X5411267Y-20191485D01*
X5411267Y-20191485D02*
X5420791Y-20153390D01*
X5420791Y-20153390D02*
X5420791Y-20077200D01*
X5420791Y-20077200D02*
X5411267Y-20058152D01*
X5411267Y-20058152D02*
X5401744Y-20048628D01*
X5401744Y-20048628D02*
X5382696Y-20039104D01*
X5382696Y-20039104D02*
X5344601Y-20039104D01*
X5344601Y-20039104D02*
X5325553Y-20048628D01*
X5325553Y-20048628D02*
X5316029Y-20058152D01*
X5316029Y-20058152D02*
X5306505Y-20077200D01*
X5306505Y-20077200D02*
X5306505Y-20124819D01*
X5306505Y-20124819D02*
X5316029Y-20143866D01*
X5316029Y-20143866D02*
X5325553Y-20153390D01*
X5325553Y-20153390D02*
X5344601Y-20162914D01*
X5344601Y-20162914D02*
X5382696Y-20162914D01*
X5382696Y-20162914D02*
X5401744Y-20153390D01*
X5401744Y-20153390D02*
X5411267Y-20143866D01*
X5411267Y-20143866D02*
X5420791Y-20124819D01*
X5496982Y-20039104D02*
X5496982Y-20077200D01*
X5573172Y-20039104D02*
X5573172Y-20077200D01*
X5868410Y-20315295D02*
X5858886Y-20305771D01*
X5858886Y-20305771D02*
X5839839Y-20277200D01*
X5839839Y-20277200D02*
X5830315Y-20258152D01*
X5830315Y-20258152D02*
X5820791Y-20229581D01*
X5820791Y-20229581D02*
X5811267Y-20181961D01*
X5811267Y-20181961D02*
X5811267Y-20143866D01*
X5811267Y-20143866D02*
X5820791Y-20096247D01*
X5820791Y-20096247D02*
X5830315Y-20067676D01*
X5830315Y-20067676D02*
X5839839Y-20048628D01*
X5839839Y-20048628D02*
X5858886Y-20020057D01*
X5858886Y-20020057D02*
X5868410Y-20010533D01*
X6049363Y-20239104D02*
X5935077Y-20239104D01*
X5992220Y-20239104D02*
X5992220Y-20039104D01*
X5992220Y-20039104D02*
X5973172Y-20067676D01*
X5973172Y-20067676D02*
X5954124Y-20086723D01*
X5954124Y-20086723D02*
X5935077Y-20096247D01*
X6173172Y-20039104D02*
X6192220Y-20039104D01*
X6192220Y-20039104D02*
X6211267Y-20048628D01*
X6211267Y-20048628D02*
X6220791Y-20058152D01*
X6220791Y-20058152D02*
X6230315Y-20077200D01*
X6230315Y-20077200D02*
X6239839Y-20115295D01*
X6239839Y-20115295D02*
X6239839Y-20162914D01*
X6239839Y-20162914D02*
X6230315Y-20201009D01*
X6230315Y-20201009D02*
X6220791Y-20220057D01*
X6220791Y-20220057D02*
X6211267Y-20229581D01*
X6211267Y-20229581D02*
X6192220Y-20239104D01*
X6192220Y-20239104D02*
X6173172Y-20239104D01*
X6173172Y-20239104D02*
X6154124Y-20229581D01*
X6154124Y-20229581D02*
X6144601Y-20220057D01*
X6144601Y-20220057D02*
X6135077Y-20201009D01*
X6135077Y-20201009D02*
X6125553Y-20162914D01*
X6125553Y-20162914D02*
X6125553Y-20115295D01*
X6125553Y-20115295D02*
X6135077Y-20077200D01*
X6135077Y-20077200D02*
X6144601Y-20058152D01*
X6144601Y-20058152D02*
X6154124Y-20048628D01*
X6154124Y-20048628D02*
X6173172Y-20039104D01*
X6477934Y-20239104D02*
X6477934Y-20039104D01*
X6563648Y-20239104D02*
X6563648Y-20134342D01*
X6563648Y-20134342D02*
X6554125Y-20115295D01*
X6554125Y-20115295D02*
X6535077Y-20105771D01*
X6535077Y-20105771D02*
X6506505Y-20105771D01*
X6506505Y-20105771D02*
X6487458Y-20115295D01*
X6487458Y-20115295D02*
X6477934Y-20124819D01*
X6687458Y-20239104D02*
X6668410Y-20229581D01*
X6668410Y-20229581D02*
X6658886Y-20220057D01*
X6658886Y-20220057D02*
X6649363Y-20201009D01*
X6649363Y-20201009D02*
X6649363Y-20143866D01*
X6649363Y-20143866D02*
X6658886Y-20124819D01*
X6658886Y-20124819D02*
X6668410Y-20115295D01*
X6668410Y-20115295D02*
X6687458Y-20105771D01*
X6687458Y-20105771D02*
X6716029Y-20105771D01*
X6716029Y-20105771D02*
X6735077Y-20115295D01*
X6735077Y-20115295D02*
X6744601Y-20124819D01*
X6744601Y-20124819D02*
X6754125Y-20143866D01*
X6754125Y-20143866D02*
X6754125Y-20201009D01*
X6754125Y-20201009D02*
X6744601Y-20220057D01*
X6744601Y-20220057D02*
X6735077Y-20229581D01*
X6735077Y-20229581D02*
X6716029Y-20239104D01*
X6716029Y-20239104D02*
X6687458Y-20239104D01*
X6868410Y-20239104D02*
X6849363Y-20229581D01*
X6849363Y-20229581D02*
X6839839Y-20210533D01*
X6839839Y-20210533D02*
X6839839Y-20039104D01*
X7020791Y-20229581D02*
X7001744Y-20239104D01*
X7001744Y-20239104D02*
X6963648Y-20239104D01*
X6963648Y-20239104D02*
X6944601Y-20229581D01*
X6944601Y-20229581D02*
X6935077Y-20210533D01*
X6935077Y-20210533D02*
X6935077Y-20134342D01*
X6935077Y-20134342D02*
X6944601Y-20115295D01*
X6944601Y-20115295D02*
X6963648Y-20105771D01*
X6963648Y-20105771D02*
X7001744Y-20105771D01*
X7001744Y-20105771D02*
X7020791Y-20115295D01*
X7020791Y-20115295D02*
X7030315Y-20134342D01*
X7030315Y-20134342D02*
X7030315Y-20153390D01*
X7030315Y-20153390D02*
X6935077Y-20172438D01*
X7106506Y-20229581D02*
X7125553Y-20239104D01*
X7125553Y-20239104D02*
X7163648Y-20239104D01*
X7163648Y-20239104D02*
X7182696Y-20229581D01*
X7182696Y-20229581D02*
X7192220Y-20210533D01*
X7192220Y-20210533D02*
X7192220Y-20201009D01*
X7192220Y-20201009D02*
X7182696Y-20181961D01*
X7182696Y-20181961D02*
X7163648Y-20172438D01*
X7163648Y-20172438D02*
X7135077Y-20172438D01*
X7135077Y-20172438D02*
X7116029Y-20162914D01*
X7116029Y-20162914D02*
X7106506Y-20143866D01*
X7106506Y-20143866D02*
X7106506Y-20134342D01*
X7106506Y-20134342D02*
X7116029Y-20115295D01*
X7116029Y-20115295D02*
X7135077Y-20105771D01*
X7135077Y-20105771D02*
X7163648Y-20105771D01*
X7163648Y-20105771D02*
X7182696Y-20115295D01*
X7258887Y-20315295D02*
X7268410Y-20305771D01*
X7268410Y-20305771D02*
X7287458Y-20277200D01*
X7287458Y-20277200D02*
X7296982Y-20258152D01*
X7296982Y-20258152D02*
X7306506Y-20229581D01*
X7306506Y-20229581D02*
X7316029Y-20181961D01*
X7316029Y-20181961D02*
X7316029Y-20143866D01*
X7316029Y-20143866D02*
X7306506Y-20096247D01*
X7306506Y-20096247D02*
X7296982Y-20067676D01*
X7296982Y-20067676D02*
X7287458Y-20048628D01*
X7287458Y-20048628D02*
X7268410Y-20020057D01*
X7268410Y-20020057D02*
X7258887Y-20010533D01*
X7620791Y-20315295D02*
X7611267Y-20305771D01*
X7611267Y-20305771D02*
X7592220Y-20277200D01*
X7592220Y-20277200D02*
X7582696Y-20258152D01*
X7582696Y-20258152D02*
X7573172Y-20229581D01*
X7573172Y-20229581D02*
X7563648Y-20181961D01*
X7563648Y-20181961D02*
X7563648Y-20143866D01*
X7563648Y-20143866D02*
X7573172Y-20096247D01*
X7573172Y-20096247D02*
X7582696Y-20067676D01*
X7582696Y-20067676D02*
X7592220Y-20048628D01*
X7592220Y-20048628D02*
X7611267Y-20020057D01*
X7611267Y-20020057D02*
X7620791Y-20010533D01*
X7696982Y-20105771D02*
X7696982Y-20239104D01*
X7696982Y-20124819D02*
X7706506Y-20115295D01*
X7706506Y-20115295D02*
X7725553Y-20105771D01*
X7725553Y-20105771D02*
X7754125Y-20105771D01*
X7754125Y-20105771D02*
X7773172Y-20115295D01*
X7773172Y-20115295D02*
X7782696Y-20134342D01*
X7782696Y-20134342D02*
X7782696Y-20239104D01*
X7906506Y-20239104D02*
X7887458Y-20229581D01*
X7887458Y-20229581D02*
X7877934Y-20220057D01*
X7877934Y-20220057D02*
X7868410Y-20201009D01*
X7868410Y-20201009D02*
X7868410Y-20143866D01*
X7868410Y-20143866D02*
X7877934Y-20124819D01*
X7877934Y-20124819D02*
X7887458Y-20115295D01*
X7887458Y-20115295D02*
X7906506Y-20105771D01*
X7906506Y-20105771D02*
X7935077Y-20105771D01*
X7935077Y-20105771D02*
X7954125Y-20115295D01*
X7954125Y-20115295D02*
X7963648Y-20124819D01*
X7963648Y-20124819D02*
X7973172Y-20143866D01*
X7973172Y-20143866D02*
X7973172Y-20201009D01*
X7973172Y-20201009D02*
X7963648Y-20220057D01*
X7963648Y-20220057D02*
X7954125Y-20229581D01*
X7954125Y-20229581D02*
X7935077Y-20239104D01*
X7935077Y-20239104D02*
X7906506Y-20239104D01*
X8030315Y-20105771D02*
X8106506Y-20105771D01*
X8058887Y-20039104D02*
X8058887Y-20210533D01*
X8058887Y-20210533D02*
X8068410Y-20229581D01*
X8068410Y-20229581D02*
X8087458Y-20239104D01*
X8087458Y-20239104D02*
X8106506Y-20239104D01*
X8325553Y-20105771D02*
X8325553Y-20305771D01*
X8325553Y-20115295D02*
X8344601Y-20105771D01*
X8344601Y-20105771D02*
X8382696Y-20105771D01*
X8382696Y-20105771D02*
X8401744Y-20115295D01*
X8401744Y-20115295D02*
X8411268Y-20124819D01*
X8411268Y-20124819D02*
X8420791Y-20143866D01*
X8420791Y-20143866D02*
X8420791Y-20201009D01*
X8420791Y-20201009D02*
X8411268Y-20220057D01*
X8411268Y-20220057D02*
X8401744Y-20229581D01*
X8401744Y-20229581D02*
X8382696Y-20239104D01*
X8382696Y-20239104D02*
X8344601Y-20239104D01*
X8344601Y-20239104D02*
X8325553Y-20229581D01*
X8535077Y-20239104D02*
X8516030Y-20229581D01*
X8516030Y-20229581D02*
X8506506Y-20210533D01*
X8506506Y-20210533D02*
X8506506Y-20039104D01*
X8696982Y-20239104D02*
X8696982Y-20134342D01*
X8696982Y-20134342D02*
X8687458Y-20115295D01*
X8687458Y-20115295D02*
X8668411Y-20105771D01*
X8668411Y-20105771D02*
X8630315Y-20105771D01*
X8630315Y-20105771D02*
X8611268Y-20115295D01*
X8696982Y-20229581D02*
X8677934Y-20239104D01*
X8677934Y-20239104D02*
X8630315Y-20239104D01*
X8630315Y-20239104D02*
X8611268Y-20229581D01*
X8611268Y-20229581D02*
X8601744Y-20210533D01*
X8601744Y-20210533D02*
X8601744Y-20191485D01*
X8601744Y-20191485D02*
X8611268Y-20172438D01*
X8611268Y-20172438D02*
X8630315Y-20162914D01*
X8630315Y-20162914D02*
X8677934Y-20162914D01*
X8677934Y-20162914D02*
X8696982Y-20153390D01*
X8763649Y-20105771D02*
X8839839Y-20105771D01*
X8792220Y-20039104D02*
X8792220Y-20210533D01*
X8792220Y-20210533D02*
X8801744Y-20229581D01*
X8801744Y-20229581D02*
X8820791Y-20239104D01*
X8820791Y-20239104D02*
X8839839Y-20239104D01*
X8982696Y-20229581D02*
X8963649Y-20239104D01*
X8963649Y-20239104D02*
X8925553Y-20239104D01*
X8925553Y-20239104D02*
X8906506Y-20229581D01*
X8906506Y-20229581D02*
X8896982Y-20210533D01*
X8896982Y-20210533D02*
X8896982Y-20134342D01*
X8896982Y-20134342D02*
X8906506Y-20115295D01*
X8906506Y-20115295D02*
X8925553Y-20105771D01*
X8925553Y-20105771D02*
X8963649Y-20105771D01*
X8963649Y-20105771D02*
X8982696Y-20115295D01*
X8982696Y-20115295D02*
X8992220Y-20134342D01*
X8992220Y-20134342D02*
X8992220Y-20153390D01*
X8992220Y-20153390D02*
X8896982Y-20172438D01*
X9163649Y-20239104D02*
X9163649Y-20039104D01*
X9163649Y-20229581D02*
X9144601Y-20239104D01*
X9144601Y-20239104D02*
X9106506Y-20239104D01*
X9106506Y-20239104D02*
X9087458Y-20229581D01*
X9087458Y-20229581D02*
X9077934Y-20220057D01*
X9077934Y-20220057D02*
X9068411Y-20201009D01*
X9068411Y-20201009D02*
X9068411Y-20143866D01*
X9068411Y-20143866D02*
X9077934Y-20124819D01*
X9077934Y-20124819D02*
X9087458Y-20115295D01*
X9087458Y-20115295D02*
X9106506Y-20105771D01*
X9106506Y-20105771D02*
X9144601Y-20105771D01*
X9144601Y-20105771D02*
X9163649Y-20115295D01*
X9239839Y-20315295D02*
X9249363Y-20305771D01*
X9249363Y-20305771D02*
X9268411Y-20277200D01*
X9268411Y-20277200D02*
X9277934Y-20258152D01*
X9277934Y-20258152D02*
X9287458Y-20229581D01*
X9287458Y-20229581D02*
X9296982Y-20181961D01*
X9296982Y-20181961D02*
X9296982Y-20143866D01*
X9296982Y-20143866D02*
X9287458Y-20096247D01*
X9287458Y-20096247D02*
X9277934Y-20067676D01*
X9277934Y-20067676D02*
X9268411Y-20048628D01*
X9268411Y-20048628D02*
X9249363Y-20020057D01*
X9249363Y-20020057D02*
X9239839Y-20010533D01*
M02*
