M48
; DRILL file {KiCad 9.0.7-1.fc43} date 2026-02-09T10:12:36+1100
; FORMAT={-:-/ absolute / metric / decimal}
; #@! TF.CreationDate,2026-02-09T10:12:36+11:00
; #@! TF.GenerationSoftware,Kicad,Pcbnew,9.0.7-1.fc43
; #@! TF.FileFunction,Plated,1,2,PTH
FMAT,2
METRIC
; #@! TA.AperFunction,Plated,PTH,ViaDrill
T1C0.300
; #@! TA.AperFunction,Plated,PTH,ComponentDrill
T2C0.600
; #@! TA.AperFunction,Plated,PTH,ComponentDrill
T3C0.889
; #@! TA.AperFunction,Plated,PTH,ComponentDrill
T4C1.000
%
G90
G05
T1
X42.475Y-125.55
X44.65Y-143.575
X60.85Y-116.1
X64.375Y-138.95
X82.5Y-95.0
X85.0Y-113.25
X86.0Y-131.75
X104.75Y-110.25
X105.0Y-91.25
X105.0Y-129.25
X123.75Y-96.75
X125.0Y-113.25
X125.25Y-134.0
X138.37Y-152.87
X143.5Y-99.75
X144.0Y-135.25
X144.5Y-118.25
X145.65Y-106.25
X158.0Y-160.75
X178.15Y-114.1
X178.5Y-112.149
X183.65Y-115.25
X183.65Y-141.5
X184.25Y-125.0
X184.25Y-139.25
X184.25Y-144.75
X185.0Y-127.0
X185.0Y-133.25
X185.25Y-149.25
X185.6Y-119.25
X185.6Y-131.25
X185.85Y-137.25
X186.05Y-113.9
X186.849Y-113.35
X192.37Y-149.5
X203.875Y-131.125
X206.25Y-99.5
X206.25Y-118.5
X207.0Y-153.0
X222.25Y-128.75
X225.5Y-115.25
X226.0Y-96.0
X242.25Y-123.5
X244.75Y-91.25
X246.25Y-110.0
X264.0Y-127.5
X266.25Y-116.5
X266.75Y-95.5
X285.55Y-135.475
X290.4Y-122.575
X305.825Y-139.525
X309.4Y-127.9
T3
X148.68Y-95.38
X148.68Y-97.92
X148.68Y-100.46
X148.68Y-103.0
X148.68Y-105.54
X148.68Y-108.08
X148.68Y-110.62
X163.92Y-95.38
X163.92Y-97.92
X163.92Y-100.46
X163.92Y-103.0
X163.92Y-105.54
X163.92Y-108.08
X163.92Y-110.62
X171.68Y-95.38
X171.68Y-97.92
X171.68Y-100.46
X171.68Y-103.0
X171.68Y-105.54
X171.68Y-108.08
X171.68Y-110.62
X186.92Y-95.38
X186.92Y-97.92
X186.92Y-100.46
X186.92Y-103.0
X186.92Y-105.54
X186.92Y-108.08
X186.92Y-110.62
T4
X165.0Y-124.8
X165.0Y-126.65
X165.0Y-128.5
X165.0Y-130.35
X170.65Y-124.8
X170.65Y-126.65
X170.65Y-128.5
X170.65Y-130.35
T2
X154.05Y-120.3G85X153.15Y-120.3
G05
X154.95Y-115.9G85X154.05Y-115.9
G05
X156.15Y-121.1G85X155.25Y-121.1
G05
X159.95Y-115.9G85X159.05Y-115.9
G05
X164.05Y-120.7G85X163.15Y-120.7
G05
X164.15Y-115.6G85X163.25Y-115.6
G05
X171.45Y-121.45G85X172.35Y-121.45
G05
X171.55Y-116.35G85X172.45Y-116.35
G05
X175.65Y-121.15G85X176.55Y-121.15
G05
X179.45Y-115.95G85X180.35Y-115.95
G05
X180.65Y-121.15G85X181.55Y-121.15
G05
X181.55Y-116.75G85X182.45Y-116.75
G05
M30
