%TF.GenerationSoftware,KiCad,Pcbnew,9.0.7-1.fc43*%
%TF.CreationDate,2026-02-09T10:12:15+11:00*%
%TF.ProjectId,keyboard-split-splay-5x3+2-pinky-cluster,6b657962-6f61-4726-942d-73706c69742d,rev?*%
%TF.SameCoordinates,Original*%
%TF.FileFunction,Paste,Bot*%
%TF.FilePolarity,Positive*%
%FSLAX46Y46*%
G04 Gerber Fmt 4.6, Leading zero omitted, Abs format (unit mm)*
G04 Created by KiCad (PCBNEW 9.0.7-1.fc43) date 2026-02-09 10:12:15*
%MOMM*%
%LPD*%
G01*
G04 APERTURE LIST*
G04 Aperture macros list*
%AMRotRect*
0 Rectangle, with rotation*
0 The origin of the aperture is its center*
0 $1 length*
0 $2 width*
0 $3 Rotation angle, in degrees counterclockwise*
0 Add horizontal line*
21,1,$1,$2,0,0,$3*%
G04 Aperture macros list end*
%ADD10R,2.500000X2.550000*%
%ADD11RotRect,2.500000X2.550000X357.000000*%
%ADD12RotRect,2.500000X2.550000X350.000000*%
%ADD13RotRect,2.500000X2.550000X10.000000*%
%ADD14RotRect,2.500000X2.550000X20.000000*%
%ADD15RotRect,2.500000X2.550000X3.000000*%
%ADD16RotRect,2.500000X2.550000X340.000000*%
G04 APERTURE END LIST*
D10*
%TO.C,SW14*%
X230620000Y-129960000D03*
X244310000Y-127420000D03*
%TD*%
%TO.C,SW18*%
X192120000Y-99960000D03*
X205810000Y-97420000D03*
%TD*%
%TO.C,SW20*%
X109270000Y-96710000D03*
X122960000Y-94170000D03*
%TD*%
D11*
%TO.C,SW3*%
X252763184Y-95072008D03*
X266567356Y-93251968D03*
%TD*%
D12*
%TO.C,SW7*%
X290674704Y-142449700D03*
X304597789Y-142325532D03*
%TD*%
D13*
%TO.C,SW23*%
X45792572Y-122797477D03*
X58833523Y-117918821D03*
%TD*%
D14*
%TO.C,SW16*%
X175952368Y-167171491D03*
X187948029Y-160102416D03*
%TD*%
D11*
%TO.C,SW9*%
X251763184Y-114322008D03*
X265567356Y-112501968D03*
%TD*%
D10*
%TO.C,SW15*%
X211370000Y-115960000D03*
X225060000Y-113420000D03*
%TD*%
D15*
%TO.C,SW22*%
X67897318Y-95854954D03*
X81435623Y-92601956D03*
%TD*%
D10*
%TO.C,SW27*%
X90020000Y-110710000D03*
X103710000Y-108170000D03*
%TD*%
%TO.C,SW26*%
X109270000Y-115960000D03*
X122960000Y-113420000D03*
%TD*%
D15*
%TO.C,SW28*%
X68897318Y-115104954D03*
X82435623Y-111851956D03*
%TD*%
D12*
%TO.C,SW1*%
X271674704Y-139199700D03*
X285597789Y-139075532D03*
%TD*%
%TO.C,SW2*%
X275074704Y-120199700D03*
X288997789Y-120075532D03*
%TD*%
D13*
%TO.C,SW30*%
X30192572Y-145047477D03*
X43233523Y-140168821D03*
%TD*%
D10*
%TO.C,SW4*%
X230620000Y-91460000D03*
X244310000Y-88920000D03*
%TD*%
%TO.C,SW19*%
X128520000Y-99960000D03*
X142210000Y-97420000D03*
%TD*%
D12*
%TO.C,SW36*%
X124674704Y-157699700D03*
X138597789Y-157575532D03*
%TD*%
D16*
%TO.C,SW35*%
X145589830Y-162054870D03*
X159322954Y-164350307D03*
%TD*%
D10*
%TO.C,SW32*%
X109270000Y-135210000D03*
X122960000Y-132670000D03*
%TD*%
%TO.C,SW21*%
X90020000Y-91460000D03*
X103710000Y-88920000D03*
%TD*%
%TO.C,SW12*%
X192120000Y-138460000D03*
X205810000Y-135920000D03*
%TD*%
%TO.C,SW25*%
X128520000Y-119210000D03*
X142210000Y-116670000D03*
%TD*%
%TO.C,SW10*%
X230620000Y-110710000D03*
X244310000Y-108170000D03*
%TD*%
%TO.C,SW5*%
X211370000Y-135210000D03*
X225060000Y-132670000D03*
%TD*%
D15*
%TO.C,SW34*%
X69897318Y-134354954D03*
X83435623Y-131101956D03*
%TD*%
D10*
%TO.C,SW33*%
X90020000Y-129960000D03*
X103710000Y-127420000D03*
%TD*%
D13*
%TO.C,SW29*%
X26792572Y-126047477D03*
X39833523Y-121168821D03*
%TD*%
%TO.C,SW11*%
X196192572Y-160297477D03*
X209233523Y-155418821D03*
%TD*%
D11*
%TO.C,SW13*%
X250763184Y-133572008D03*
X264567356Y-131751968D03*
%TD*%
D10*
%TO.C,SW17*%
X211370000Y-96710000D03*
X225060000Y-94170000D03*
%TD*%
D13*
%TO.C,SW24*%
X49192572Y-141797477D03*
X62233523Y-136918821D03*
%TD*%
D10*
%TO.C,SW31*%
X128520000Y-138460000D03*
X142210000Y-135920000D03*
%TD*%
%TO.C,SW6*%
X192120000Y-119210000D03*
X205810000Y-116670000D03*
%TD*%
D12*
%TO.C,SW8*%
X294074704Y-123449700D03*
X307997789Y-123325532D03*
%TD*%
M02*
