%TF.GenerationSoftware,KiCad,Pcbnew,9.0.6-1.fc42*%
%TF.CreationDate,2026-01-04T08:40:16+11:00*%
%TF.ProjectId,keyboard-split-splay-5x3+2-pinky-cluster,6b657962-6f61-4726-942d-73706c69742d,rev?*%
%TF.SameCoordinates,Original*%
%TF.FileFunction,Paste,Bot*%
%TF.FilePolarity,Positive*%
%FSLAX46Y46*%
G04 Gerber Fmt 4.6, Leading zero omitted, Abs format (unit mm)*
G04 Created by KiCad (PCBNEW 9.0.6-1.fc42) date 2026-01-04 08:40:16*
%MOMM*%
%LPD*%
G01*
G04 APERTURE LIST*
G04 Aperture macros list*
%AMRotRect*
0 Rectangle, with rotation*
0 The origin of the aperture is its center*
0 $1 length*
0 $2 width*
0 $3 Rotation angle, in degrees counterclockwise*
0 Add horizontal line*
21,1,$1,$2,0,0,$3*%
G04 Aperture macros list end*
%ADD10R,2.500000X2.550000*%
%ADD11RotRect,2.500000X2.550000X357.000000*%
%ADD12RotRect,2.500000X2.550000X350.000000*%
%ADD13RotRect,2.500000X2.550000X10.000000*%
%ADD14RotRect,2.500000X2.550000X20.000000*%
%ADD15RotRect,2.500000X2.550000X3.000000*%
%ADD16RotRect,2.500000X2.550000X340.000000*%
G04 APERTURE END LIST*
D10*
%TO.C,SW14*%
X230020000Y-129960000D03*
X243710000Y-127420000D03*
%TD*%
%TO.C,SW18*%
X191520000Y-99960000D03*
X205210000Y-97420000D03*
%TD*%
%TO.C,SW20*%
X109270000Y-96710000D03*
X122960000Y-94170000D03*
%TD*%
D11*
%TO.C,SW3*%
X251913184Y-95072008D03*
X265717356Y-93251968D03*
%TD*%
D12*
%TO.C,SW7*%
X289574704Y-137449700D03*
X303497789Y-137325532D03*
%TD*%
D13*
%TO.C,SW23*%
X45806205Y-117735720D03*
X58847156Y-112857064D03*
%TD*%
D14*
%TO.C,SW16*%
X175602369Y-167171491D03*
X187598028Y-160102416D03*
%TD*%
D11*
%TO.C,SW9*%
X250913184Y-114322008D03*
X264717356Y-112501968D03*
%TD*%
D10*
%TO.C,SW15*%
X210770000Y-115960000D03*
X224460000Y-113420000D03*
%TD*%
D15*
%TO.C,SW22*%
X67897318Y-95854954D03*
X81435623Y-92601956D03*
%TD*%
D10*
%TO.C,SW27*%
X90020000Y-110710000D03*
X103710000Y-108170000D03*
%TD*%
%TO.C,SW26*%
X109270000Y-115960000D03*
X122960000Y-113420000D03*
%TD*%
D15*
%TO.C,SW28*%
X68897318Y-115104954D03*
X82435623Y-111851956D03*
%TD*%
D12*
%TO.C,SW1*%
X270574704Y-134199700D03*
X284497789Y-134075532D03*
%TD*%
%TO.C,SW2*%
X273824704Y-115199700D03*
X287747789Y-115075532D03*
%TD*%
D13*
%TO.C,SW30*%
X30192572Y-140047477D03*
X43233523Y-135168821D03*
%TD*%
D10*
%TO.C,SW4*%
X230020000Y-91460000D03*
X243710000Y-88920000D03*
%TD*%
%TO.C,SW19*%
X128520000Y-99960000D03*
X142210000Y-97420000D03*
%TD*%
D12*
%TO.C,SW36*%
X124598343Y-157687162D03*
X138521428Y-157562994D03*
%TD*%
D16*
%TO.C,SW35*%
X145589830Y-162054870D03*
X159322954Y-164350307D03*
%TD*%
D10*
%TO.C,SW32*%
X109270000Y-135210000D03*
X122960000Y-132670000D03*
%TD*%
%TO.C,SW21*%
X90020000Y-91460000D03*
X103710000Y-88920000D03*
%TD*%
%TO.C,SW12*%
X191520000Y-138460000D03*
X205210000Y-135920000D03*
%TD*%
%TO.C,SW25*%
X128520000Y-119210000D03*
X142210000Y-116670000D03*
%TD*%
%TO.C,SW10*%
X230020000Y-110710000D03*
X243710000Y-108170000D03*
%TD*%
%TO.C,SW5*%
X210770000Y-135210000D03*
X224460000Y-132670000D03*
%TD*%
D15*
%TO.C,SW34*%
X69897318Y-134354954D03*
X83435623Y-131101956D03*
%TD*%
D10*
%TO.C,SW33*%
X90020000Y-129960000D03*
X103710000Y-127420000D03*
%TD*%
D13*
%TO.C,SW29*%
X26806205Y-121047477D03*
X39847156Y-116168821D03*
%TD*%
%TO.C,SW11*%
X195942572Y-160297477D03*
X208983523Y-155418821D03*
%TD*%
D11*
%TO.C,SW13*%
X249913184Y-133572008D03*
X263717356Y-131751968D03*
%TD*%
D10*
%TO.C,SW17*%
X210770000Y-96710000D03*
X224460000Y-94170000D03*
%TD*%
D13*
%TO.C,SW24*%
X49192572Y-136735720D03*
X62233523Y-131857064D03*
%TD*%
D10*
%TO.C,SW31*%
X128520000Y-138460000D03*
X142210000Y-135920000D03*
%TD*%
%TO.C,SW6*%
X191520000Y-119210000D03*
X205210000Y-116670000D03*
%TD*%
D12*
%TO.C,SW8*%
X292824704Y-118449700D03*
X306747789Y-118325532D03*
%TD*%
M02*
