%TF.GenerationSoftware,KiCad,Pcbnew,9.0.7-1.fc43*%
%TF.CreationDate,2026-02-09T10:56:23+11:00*%
%TF.ProjectId,BB36-base,42423336-2d62-4617-9365-2e6b69636164,rev?*%
%TF.SameCoordinates,Original*%
%TF.FileFunction,Profile,NP*%
%FSLAX46Y46*%
G04 Gerber Fmt 4.6, Leading zero omitted, Abs format (unit mm)*
G04 Created by KiCad (PCBNEW 9.0.7-1.fc43) date 2026-02-09 10:56:23*
%MOMM*%
%LPD*%
G01*
G04 APERTURE LIST*
%TA.AperFunction,Profile*%
%ADD10C,0.050000*%
%TD*%
%TA.AperFunction,Profile*%
%ADD11C,0.049999*%
%TD*%
%TA.AperFunction,Profile*%
%ADD12C,0.099999*%
%TD*%
%ADD13C,0.049999*%
G04 APERTURE END LIST*
D10*
X199115783Y-75649203D02*
X197478393Y-123628795D01*
D11*
X62241898Y-120063792D02*
X62242000Y-120063792D01*
X96068892Y-50048297D02*
X96068896Y-50048297D01*
X160815780Y-52749202D02*
X160815764Y-52749202D01*
X189534392Y-141685100D02*
X189534484Y-141684993D01*
X154815795Y-115663188D02*
X154815795Y-115663203D01*
X139150985Y-114349193D02*
X139150992Y-114349193D01*
X100754790Y-114259990D02*
X100754790Y-114260005D01*
D12*
X129765792Y-105449199D02*
X129765792Y-103249187D01*
X77965796Y-96699199D02*
X77965796Y-94499187D01*
X76865798Y-95599193D02*
X79065799Y-95599193D01*
X128665793Y-104349193D02*
X130865790Y-104349193D01*
X157115790Y-69849200D02*
X159315795Y-69849200D01*
X177215789Y-117449199D02*
X177215789Y-115249187D01*
X118915793Y-64349200D02*
X121115790Y-64349200D01*
X158215796Y-70949199D02*
X158215796Y-68749202D01*
X176115783Y-116349193D02*
X178315780Y-116349193D01*
X120015792Y-65449199D02*
X120015792Y-63249202D01*
D11*
X122054792Y-113152400D02*
X100877593Y-114245998D01*
D13*
X62653520Y-120709422D02*
X62660874Y-120714518D01*
X62668272Y-120719547D01*
X62675713Y-120724509D01*
X62683198Y-120729404D01*
X62690726Y-120734231D01*
X62698296Y-120738991D01*
X62705908Y-120743682D01*
X62713561Y-120748305D01*
X62721255Y-120752859D01*
X62728989Y-120757344D01*
X62736762Y-120761760D01*
X62744574Y-120766105D01*
X62752425Y-120770381D01*
X62760314Y-120774586D01*
X62768239Y-120778720D01*
X62776202Y-120782784D01*
X62784200Y-120786775D01*
X62792235Y-120790696D01*
X62800303Y-120794544D01*
X62808407Y-120798320D01*
X62816543Y-120802024D01*
X62824713Y-120805654D01*
X62832915Y-120809212D01*
X62841149Y-120812696D01*
X62849414Y-120816107D01*
X62857710Y-120819443D01*
X62866035Y-120822705D01*
X62874389Y-120825893D01*
X62882772Y-120829006D01*
X62891183Y-120832044D01*
X62899620Y-120835007D01*
X62908084Y-120837895D01*
X62916574Y-120840706D01*
X62925089Y-120843442D01*
X62933629Y-120846102D01*
X62942192Y-120848685D01*
X62950778Y-120851191D01*
X62959386Y-120853621D01*
X62968016Y-120855974D01*
X62976666Y-120858249D01*
X62985337Y-120860447D01*
X62994027Y-120862568D01*
X63002736Y-120864610D01*
X63011464Y-120866575D01*
X63015834Y-120867528D01*
X63020208Y-120868462D01*
X63024586Y-120869376D01*
X63028969Y-120870270D01*
X63033355Y-120871145D01*
X63037746Y-120872000D01*
X63042140Y-120872835D01*
X63046538Y-120873651D01*
X63050939Y-120874447D01*
X63055344Y-120875224D01*
X63059752Y-120875981D01*
X63064164Y-120876718D01*
X63068579Y-120877435D01*
X63072997Y-120878133D01*
X63077418Y-120878811D01*
X63081842Y-120879469D01*
X63086269Y-120880107D01*
X63090699Y-120880725D01*
X63095131Y-120881324D01*
X63099566Y-120881903D01*
X63104004Y-120882462D01*
X63108444Y-120883001D01*
X63112886Y-120883520D01*
X63117331Y-120884019D01*
X63121777Y-120884499D01*
X63126226Y-120884958D01*
X63130677Y-120885398D01*
X63135130Y-120885817D01*
X63139584Y-120886217D01*
X63144041Y-120886597D01*
X63148498Y-120886957D01*
X63152958Y-120887297D01*
X63157418Y-120887617D01*
X63161881Y-120887917D01*
X63166344Y-120888197D01*
X63170808Y-120888457D01*
X63175274Y-120888697D01*
X63179741Y-120888918D01*
X63184208Y-120889118D01*
X63188677Y-120889298D01*
X63193145Y-120889458D01*
X63197615Y-120889598D01*
X63202085Y-120889718D01*
X63206556Y-120889819D01*
X63211027Y-120889899D01*
X63215499Y-120889959D01*
X63219970Y-120889999D01*
X63224442Y-120890019D01*
X63228913Y-120890019D01*
X63233386Y-120889999D01*
X63237857Y-120889960D01*
X63242329Y-120889900D01*
X63246799Y-120889820D01*
X63251270Y-120889720D01*
X63255740Y-120889600D01*
X63260210Y-120889460D01*
X63264678Y-120889300D01*
X63269147Y-120889120D01*
X63273614Y-120888920D01*
X63278081Y-120888700D01*
X63282546Y-120888460D01*
X63287011Y-120888201D01*
X63291473Y-120887921D01*
X63295936Y-120887621D01*
X63300396Y-120887301D01*
X63304856Y-120886961D01*
X63309313Y-120886602D01*
X63313770Y-120886222D01*
X63318224Y-120885822D01*
X63322678Y-120885403D01*
X63327128Y-120884963D01*
X63331578Y-120884504D01*
X63336025Y-120884025D01*
X63340471Y-120883525D01*
X63344913Y-120883006D01*
X63349355Y-120882467D01*
X63353792Y-120881908D01*
X63358230Y-120881329D01*
X63362663Y-120880731D01*
X63367095Y-120880112D01*
X63371523Y-120879474D01*
X63375950Y-120878816D01*
X63380372Y-120878138D01*
X63384793Y-120877440D01*
X63389210Y-120876722D01*
X63393626Y-120875985D01*
X63401099Y-120874690D01*
X62242000Y-120063792D02*
X62243593Y-120072595D01*
X62245265Y-120081383D01*
X62247015Y-120090154D01*
X62248843Y-120098909D01*
X62250749Y-120107646D01*
X62252732Y-120116365D01*
X62254794Y-120125065D01*
X62256933Y-120133746D01*
X62259150Y-120142407D01*
X62261444Y-120151047D01*
X62263815Y-120159667D01*
X62266263Y-120168264D01*
X62268787Y-120176839D01*
X62271389Y-120185391D01*
X62274066Y-120193920D01*
X62276820Y-120202424D01*
X62279650Y-120210904D01*
X62282555Y-120219357D01*
X62285536Y-120227785D01*
X62288593Y-120236186D01*
X62291724Y-120244559D01*
X62294931Y-120252904D01*
X62298211Y-120261220D01*
X62301567Y-120269507D01*
X62304996Y-120277764D01*
X62308499Y-120285990D01*
X62312076Y-120294184D01*
X62315726Y-120302347D01*
X62319449Y-120310477D01*
X62323245Y-120318573D01*
X62327113Y-120326636D01*
X62331053Y-120334664D01*
X62335065Y-120342656D01*
X62339148Y-120350613D01*
X62343303Y-120358533D01*
X62347528Y-120366416D01*
X62351824Y-120374261D01*
X62356189Y-120382067D01*
X62360625Y-120389834D01*
X62365130Y-120397562D01*
X62369704Y-120405249D01*
X62374346Y-120412894D01*
X62379057Y-120420499D01*
X62383836Y-120428060D01*
X62386251Y-120431825D01*
X62388682Y-120435579D01*
X62391130Y-120439322D01*
X62393595Y-120443054D01*
X62396077Y-120446775D01*
X62398575Y-120450485D01*
X62401090Y-120454184D01*
X62403622Y-120457872D01*
X62406169Y-120461548D01*
X62408734Y-120465213D01*
X62411314Y-120468866D01*
X62413911Y-120472507D01*
X62416524Y-120476137D01*
X62419154Y-120479755D01*
X62421799Y-120483362D01*
X62424461Y-120486956D01*
X62427139Y-120490539D01*
X62429832Y-120494110D01*
X62432542Y-120497668D01*
X62435267Y-120501214D01*
X62438009Y-120504748D01*
X62440766Y-120508270D01*
X62443538Y-120511779D01*
X62446327Y-120515276D01*
X62449131Y-120518760D01*
X62451950Y-120522232D01*
X62454785Y-120525691D01*
X62457636Y-120529138D01*
X62460501Y-120532571D01*
X62463383Y-120535992D01*
X62466279Y-120539399D01*
X62469191Y-120542794D01*
X62472117Y-120546176D01*
X62475059Y-120549544D01*
X62478016Y-120552899D01*
X62480988Y-120556242D01*
X62483974Y-120559570D01*
X62486976Y-120562885D01*
X62489992Y-120566187D01*
X62493023Y-120569475D01*
X62496068Y-120572749D01*
X62499129Y-120576010D01*
X62502203Y-120579257D01*
X62505293Y-120582491D01*
X62508396Y-120585710D01*
X62511515Y-120588916D01*
X62514647Y-120592107D01*
X62517794Y-120595285D01*
X62520954Y-120598448D01*
X62524129Y-120601597D01*
X62527318Y-120604732D01*
X62530521Y-120607853D01*
X62533738Y-120610959D01*
X62536969Y-120614051D01*
X62540213Y-120617128D01*
X62543472Y-120620191D01*
X62546743Y-120623239D01*
X62550030Y-120626273D01*
X62553328Y-120629291D01*
X62556641Y-120632296D01*
X62559967Y-120635284D01*
X62563307Y-120638259D01*
X62566660Y-120641218D01*
X62570026Y-120644163D01*
X62573405Y-120647092D01*
X62576798Y-120650007D01*
X62580203Y-120652906D01*
X62583622Y-120655790D01*
X62587053Y-120658658D01*
X62590498Y-120661512D01*
X62593955Y-120664350D01*
X62597425Y-120667173D01*
X62600907Y-120669979D01*
X62604403Y-120672772D01*
X62607911Y-120675547D01*
X62611432Y-120678308D01*
X62614964Y-120681052D01*
X62618510Y-120683782D01*
X62622067Y-120686495D01*
X62625637Y-120689193D01*
X62629219Y-120691874D01*
X62632814Y-120694540D01*
X62636420Y-120697190D01*
X62640039Y-120699824D01*
X62643668Y-120702441D01*
X62647311Y-120705044D01*
X62653520Y-120709422D01*
X197478393Y-123628795D02*
X193877644Y-133065057D01*
X190813186Y-141095897D01*
X62241898Y-120063792D02*
X60623969Y-110895494D01*
X55389499Y-81233401D01*
D11*
X139080596Y-114346690D02*
X122176795Y-113153499D01*
X118815795Y-46900401D02*
X118815795Y-45349200D01*
X153815795Y-114349193D02*
X139150992Y-114349193D01*
D13*
X141208686Y-49056308D02*
X141215040Y-49062606D01*
X141221450Y-49068846D01*
X141227914Y-49075028D01*
X141234433Y-49081151D01*
X141241006Y-49087215D01*
X141247632Y-49093220D01*
X141254311Y-49099164D01*
X141261042Y-49105049D01*
X141267826Y-49110873D01*
X141274661Y-49116635D01*
X141281547Y-49122336D01*
X141288484Y-49127976D01*
X141295470Y-49133552D01*
X141302506Y-49139067D01*
X141309592Y-49144517D01*
X141316725Y-49149905D01*
X141323907Y-49155228D01*
X141331136Y-49160487D01*
X141338412Y-49165681D01*
X141345734Y-49170810D01*
X141353102Y-49175874D01*
X141360515Y-49180871D01*
X141367973Y-49185802D01*
X141375475Y-49190666D01*
X141383020Y-49195464D01*
X141390608Y-49200193D01*
X141398239Y-49204855D01*
X141405911Y-49209448D01*
X141413624Y-49213973D01*
X141421377Y-49218429D01*
X141429171Y-49222816D01*
X141437003Y-49227132D01*
X141444874Y-49231379D01*
X141452783Y-49235555D01*
X141460729Y-49239661D01*
X141468712Y-49243695D01*
X141476731Y-49247658D01*
X141484785Y-49251549D01*
X141492874Y-49255368D01*
X141500997Y-49259115D01*
X141509153Y-49262789D01*
X141517342Y-49266390D01*
X141525563Y-49269918D01*
X141533815Y-49273372D01*
X141537952Y-49275071D01*
X141542098Y-49276752D01*
X141546250Y-49278414D01*
X141550410Y-49280058D01*
X141554578Y-49281683D01*
X141558753Y-49283289D01*
X141562934Y-49284877D01*
X141567123Y-49286446D01*
X141571319Y-49287997D01*
X141575522Y-49289528D01*
X141579731Y-49291041D01*
X141583948Y-49292535D01*
X141588170Y-49294010D01*
X141592400Y-49295466D01*
X141596636Y-49296903D01*
X141600878Y-49298321D01*
X141605126Y-49299720D01*
X141609381Y-49301101D01*
X141613642Y-49302462D01*
X141617909Y-49303804D01*
X141622182Y-49305127D01*
X141626460Y-49306431D01*
X141630745Y-49307715D01*
X141635035Y-49308981D01*
X141639330Y-49310227D01*
X141643632Y-49311454D01*
X141647938Y-49312662D01*
X141652250Y-49313850D01*
X141656567Y-49315020D01*
X141660890Y-49316170D01*
X141665217Y-49317300D01*
X141669550Y-49318411D01*
X141673887Y-49319503D01*
X141678229Y-49320575D01*
X141682576Y-49321628D01*
X141686927Y-49322662D01*
X141691283Y-49323675D01*
X141695644Y-49324670D01*
X141700008Y-49325645D01*
X141704378Y-49326600D01*
X141708751Y-49327536D01*
X141713129Y-49328452D01*
X141717510Y-49329349D01*
X141721895Y-49330226D01*
X141726284Y-49331083D01*
X141730678Y-49331921D01*
X141735074Y-49332739D01*
X141739475Y-49333538D01*
X141743878Y-49334316D01*
X141748286Y-49335075D01*
X141752696Y-49335814D01*
X141757111Y-49336534D01*
X141761527Y-49337234D01*
X141765948Y-49337914D01*
X141770370Y-49338574D01*
X141774797Y-49339214D01*
X141779226Y-49339835D01*
X141783658Y-49340436D01*
X141788092Y-49341017D01*
X141792529Y-49341578D01*
X141796968Y-49342119D01*
X141801411Y-49342640D01*
X141805854Y-49343142D01*
X141810302Y-49343624D01*
X141814750Y-49344085D01*
X141819201Y-49344527D01*
X141823653Y-49344949D01*
X141828109Y-49345351D01*
X141832565Y-49345733D01*
X141837024Y-49346095D01*
X141841484Y-49346437D01*
X141845946Y-49346760D01*
X141850409Y-49347062D01*
X141854874Y-49347344D01*
X141859340Y-49347607D01*
X141863808Y-49347849D01*
X141868276Y-49348072D01*
X141872746Y-49348274D01*
X141877216Y-49348456D01*
X141881689Y-49348619D01*
X141886161Y-49348761D01*
X141890636Y-49348884D01*
X141895109Y-49348986D01*
X141899585Y-49349069D01*
X141904060Y-49349131D01*
X141908537Y-49349174D01*
X141915793Y-49349200D01*
X140915793Y-48349200D02*
X140915833Y-48358147D01*
X140915953Y-48367091D01*
X140916153Y-48376033D01*
X140916432Y-48384973D01*
X140916792Y-48393908D01*
X140917231Y-48402840D01*
X140917750Y-48411766D01*
X140918349Y-48420687D01*
X140919028Y-48429602D01*
X140919786Y-48438510D01*
X140920624Y-48447410D01*
X140921542Y-48456303D01*
X140922539Y-48465186D01*
X140923615Y-48474061D01*
X140924771Y-48482925D01*
X140926005Y-48491779D01*
X140927320Y-48500622D01*
X140928713Y-48509452D01*
X140930185Y-48518270D01*
X140931736Y-48527074D01*
X140933365Y-48535865D01*
X140935073Y-48544640D01*
X140936860Y-48553401D01*
X140938725Y-48562145D01*
X140940668Y-48570872D01*
X140942689Y-48579582D01*
X140944789Y-48588274D01*
X140946965Y-48596947D01*
X140949220Y-48605601D01*
X140951552Y-48614234D01*
X140953961Y-48622847D01*
X140956447Y-48631438D01*
X140959009Y-48640006D01*
X140961649Y-48648552D01*
X140964365Y-48657074D01*
X140967157Y-48665571D01*
X140970024Y-48674044D01*
X140972968Y-48682490D01*
X140975987Y-48690911D01*
X140979082Y-48699304D01*
X140982251Y-48707669D01*
X140985495Y-48716006D01*
X140988814Y-48724313D01*
X140992207Y-48732591D01*
X140993931Y-48736718D01*
X140995673Y-48740838D01*
X140997434Y-48744949D01*
X140999214Y-48749053D01*
X141001011Y-48753149D01*
X141002827Y-48757237D01*
X141004661Y-48761317D01*
X141006514Y-48765388D01*
X141008385Y-48769451D01*
X141010274Y-48773506D01*
X141012180Y-48777552D01*
X141014105Y-48781590D01*
X141016048Y-48785619D01*
X141018010Y-48789639D01*
X141019988Y-48793651D01*
X141021985Y-48797653D01*
X141024000Y-48801647D01*
X141026033Y-48805631D01*
X141028083Y-48809607D01*
X141030151Y-48813573D01*
X141032237Y-48817530D01*
X141034341Y-48821477D01*
X141036462Y-48825415D01*
X141038600Y-48829344D01*
X141040757Y-48833262D01*
X141042930Y-48837171D01*
X141045121Y-48841070D01*
X141047330Y-48844960D01*
X141049556Y-48848839D01*
X141051799Y-48852709D01*
X141054060Y-48856568D01*
X141056338Y-48860418D01*
X141058632Y-48864256D01*
X141060945Y-48868085D01*
X141063274Y-48871903D01*
X141065620Y-48875711D01*
X141067983Y-48879508D01*
X141070363Y-48883294D01*
X141072760Y-48887070D01*
X141075174Y-48890835D01*
X141077605Y-48894589D01*
X141080052Y-48898332D01*
X141082516Y-48902064D01*
X141084997Y-48905786D01*
X141087494Y-48909495D01*
X141090009Y-48913194D01*
X141092539Y-48916881D01*
X141095086Y-48920558D01*
X141097649Y-48924222D01*
X141100229Y-48927876D01*
X141102825Y-48931517D01*
X141105437Y-48935147D01*
X141108066Y-48938765D01*
X141110711Y-48942371D01*
X141113371Y-48945965D01*
X141116048Y-48949548D01*
X141118741Y-48953119D01*
X141121450Y-48956678D01*
X141124175Y-48960223D01*
X141126916Y-48963758D01*
X141129672Y-48967279D01*
X141132444Y-48970790D01*
X141135232Y-48974286D01*
X141138036Y-48977772D01*
X141140855Y-48981243D01*
X141143690Y-48984703D01*
X141146540Y-48988150D01*
X141149406Y-48991585D01*
X141152287Y-48995006D01*
X141155184Y-48998415D01*
X141158095Y-49001810D01*
X141161022Y-49005193D01*
X141163964Y-49008563D01*
X141166922Y-49011920D01*
X141169894Y-49015263D01*
X141172882Y-49018594D01*
X141175884Y-49021910D01*
X141178902Y-49025215D01*
X141181934Y-49028504D01*
X141184982Y-49031782D01*
X141188043Y-49035045D01*
X141191120Y-49038295D01*
X141194211Y-49041531D01*
X141197318Y-49044754D01*
X141200438Y-49047963D01*
X141203574Y-49051158D01*
X141208686Y-49056308D01*
D11*
X100754790Y-114259990D02*
X63401099Y-120874690D01*
D13*
X97014991Y-48996600D02*
X107475876Y-48446049D01*
X117868392Y-47899097D01*
D11*
X141915793Y-49349200D02*
X158815795Y-49349200D01*
D13*
X140622901Y-44642093D02*
X140616547Y-44635795D01*
X140610137Y-44629555D01*
X140603673Y-44623373D01*
X140597154Y-44617250D01*
X140590581Y-44611186D01*
X140583955Y-44605181D01*
X140577276Y-44599237D01*
X140570545Y-44593352D01*
X140563761Y-44587528D01*
X140556926Y-44581766D01*
X140550040Y-44576064D01*
X140543103Y-44570425D01*
X140536117Y-44564848D01*
X140529080Y-44559334D01*
X140521995Y-44553883D01*
X140514862Y-44548496D01*
X140507680Y-44543173D01*
X140500451Y-44537914D01*
X140493175Y-44532720D01*
X140485853Y-44527591D01*
X140478485Y-44522527D01*
X140471071Y-44517530D01*
X140463614Y-44512599D01*
X140456112Y-44507734D01*
X140448566Y-44502937D01*
X140440978Y-44498208D01*
X140433348Y-44493546D01*
X140425676Y-44488952D01*
X140417963Y-44484427D01*
X140410209Y-44479972D01*
X140402416Y-44475585D01*
X140394583Y-44471268D01*
X140386712Y-44467022D01*
X140378803Y-44462845D01*
X140370857Y-44458740D01*
X140362874Y-44454705D01*
X140354855Y-44450742D01*
X140346801Y-44446851D01*
X140338712Y-44443032D01*
X140330590Y-44439285D01*
X140322433Y-44435611D01*
X140314245Y-44432010D01*
X140306024Y-44428483D01*
X140297771Y-44425029D01*
X140293634Y-44423329D01*
X140289489Y-44421648D01*
X140285336Y-44419986D01*
X140281176Y-44418342D01*
X140277008Y-44416717D01*
X140272834Y-44415111D01*
X140268652Y-44413523D01*
X140264463Y-44411954D01*
X140260267Y-44410404D01*
X140256065Y-44408872D01*
X140251855Y-44407360D01*
X140247639Y-44405866D01*
X140243416Y-44404391D01*
X140239186Y-44402935D01*
X140234951Y-44401497D01*
X140230708Y-44400079D01*
X140226460Y-44398680D01*
X140222205Y-44397300D01*
X140217944Y-44395939D01*
X140213677Y-44394597D01*
X140209405Y-44393274D01*
X140205126Y-44391970D01*
X140200842Y-44390685D01*
X140196551Y-44389419D01*
X140192256Y-44388173D01*
X140187954Y-44386946D01*
X140183648Y-44385738D01*
X140179336Y-44384550D01*
X140175019Y-44383381D01*
X140170696Y-44382231D01*
X140166369Y-44381100D01*
X140162036Y-44379989D01*
X140157699Y-44378897D01*
X140153357Y-44377825D01*
X140149011Y-44376772D01*
X140144659Y-44375739D01*
X140140303Y-44374725D01*
X140135942Y-44373730D01*
X140131578Y-44372755D01*
X140127208Y-44371800D01*
X140122835Y-44370864D01*
X140118458Y-44369948D01*
X140114077Y-44369051D01*
X140109691Y-44368174D01*
X140105302Y-44367317D01*
X140100908Y-44366479D01*
X140096512Y-44365661D01*
X140092111Y-44364863D01*
X140087708Y-44364084D01*
X140083300Y-44363325D01*
X140078890Y-44362586D01*
X140074476Y-44361866D01*
X140070059Y-44361166D01*
X140065638Y-44360486D01*
X140061216Y-44359826D01*
X140056789Y-44359186D01*
X140052361Y-44358565D01*
X140047928Y-44357964D01*
X140043494Y-44357383D01*
X140039057Y-44356822D01*
X140034618Y-44356281D01*
X140030175Y-44355760D01*
X140025732Y-44355258D01*
X140021285Y-44354777D01*
X140016836Y-44354315D01*
X140012385Y-44353873D01*
X140007933Y-44353451D01*
X140003477Y-44353049D01*
X139999021Y-44352667D01*
X139994562Y-44352305D01*
X139990103Y-44351963D01*
X139985640Y-44351640D01*
X139981178Y-44351338D01*
X139976712Y-44351056D01*
X139972247Y-44350793D01*
X139967779Y-44350551D01*
X139963311Y-44350328D01*
X139958840Y-44350126D01*
X139954370Y-44349944D01*
X139949897Y-44349781D01*
X139945425Y-44349639D01*
X139940951Y-44349516D01*
X139936477Y-44349414D01*
X139932002Y-44349331D01*
X139927527Y-44349269D01*
X139923050Y-44349226D01*
X139915793Y-44349200D01*
X140915793Y-45349200D02*
X140915753Y-45340253D01*
X140915633Y-45331309D01*
X140915433Y-45322366D01*
X140915154Y-45313427D01*
X140914794Y-45304492D01*
X140914355Y-45295560D01*
X140913836Y-45286634D01*
X140913237Y-45277713D01*
X140912558Y-45268798D01*
X140911800Y-45259890D01*
X140910962Y-45250989D01*
X140910044Y-45242097D01*
X140909047Y-45233213D01*
X140907971Y-45224339D01*
X140906815Y-45215474D01*
X140905581Y-45206620D01*
X140904266Y-45197778D01*
X140902873Y-45188948D01*
X140901401Y-45180130D01*
X140899850Y-45171325D01*
X140898221Y-45162535D01*
X140896513Y-45153759D01*
X140894726Y-45144999D01*
X140892861Y-45136255D01*
X140890918Y-45127527D01*
X140888897Y-45118817D01*
X140886798Y-45110125D01*
X140884621Y-45101452D01*
X140882366Y-45092799D01*
X140880034Y-45084165D01*
X140877626Y-45075553D01*
X140875140Y-45066962D01*
X140872577Y-45058393D01*
X140869937Y-45049848D01*
X140867222Y-45041326D01*
X140864430Y-45032828D01*
X140861562Y-45024356D01*
X140858618Y-45015909D01*
X140855599Y-45007489D01*
X140852504Y-44999096D01*
X140849335Y-44990731D01*
X140846091Y-44982394D01*
X140842772Y-44974087D01*
X140839380Y-44965809D01*
X140837656Y-44961682D01*
X140835913Y-44957562D01*
X140834152Y-44953450D01*
X140832373Y-44949346D01*
X140830575Y-44945251D01*
X140828759Y-44941163D01*
X140826925Y-44937083D01*
X140825072Y-44933012D01*
X140823202Y-44928948D01*
X140821313Y-44924894D01*
X140819406Y-44920848D01*
X140817481Y-44916810D01*
X140815538Y-44912781D01*
X140813577Y-44908760D01*
X140811598Y-44904749D01*
X140809601Y-44900747D01*
X140807586Y-44896753D01*
X140805554Y-44892768D01*
X140803503Y-44888793D01*
X140801435Y-44884827D01*
X140799349Y-44880870D01*
X140797246Y-44876923D01*
X140795125Y-44872985D01*
X140792986Y-44869056D01*
X140790830Y-44865138D01*
X140788656Y-44861229D01*
X140786465Y-44857330D01*
X140784256Y-44853440D01*
X140782030Y-44849561D01*
X140779787Y-44845691D01*
X140777527Y-44841832D01*
X140775249Y-44837983D01*
X140772954Y-44834144D01*
X140770642Y-44830315D01*
X140768313Y-44826497D01*
X140765966Y-44822689D01*
X140763603Y-44818893D01*
X140761223Y-44815106D01*
X140758826Y-44811330D01*
X140756412Y-44807565D01*
X140753982Y-44803811D01*
X140751534Y-44800068D01*
X140749070Y-44796336D01*
X140746589Y-44792615D01*
X140744092Y-44788905D01*
X140741578Y-44785206D01*
X140739048Y-44781519D01*
X140736500Y-44777842D01*
X140733937Y-44774178D01*
X140731357Y-44770525D01*
X140728762Y-44766884D01*
X140726149Y-44763253D01*
X140723521Y-44759636D01*
X140720876Y-44756029D01*
X140718215Y-44752435D01*
X140715538Y-44748852D01*
X140712846Y-44745282D01*
X140710136Y-44741723D01*
X140707412Y-44738177D01*
X140704671Y-44734642D01*
X140701915Y-44731121D01*
X140699142Y-44727611D01*
X140696355Y-44724114D01*
X140693551Y-44720629D01*
X140690732Y-44717157D01*
X140687897Y-44713697D01*
X140685047Y-44710251D01*
X140682181Y-44706816D01*
X140679300Y-44703395D01*
X140676403Y-44699986D01*
X140673492Y-44696590D01*
X140670564Y-44693207D01*
X140667622Y-44689838D01*
X140664664Y-44686481D01*
X140661692Y-44683138D01*
X140658704Y-44679807D01*
X140655702Y-44676490D01*
X140652684Y-44673186D01*
X140649653Y-44669896D01*
X140646605Y-44666619D01*
X140643543Y-44663356D01*
X140640466Y-44660105D01*
X140637375Y-44656869D01*
X140634269Y-44653646D01*
X140631149Y-44650438D01*
X140628013Y-44647242D01*
X140622901Y-44642093D01*
X152361091Y-130691386D02*
X152359588Y-130700292D01*
X152358166Y-130709202D01*
X152356824Y-130718116D01*
X152355562Y-130727034D01*
X152354380Y-130735955D01*
X152353279Y-130744879D01*
X152352258Y-130753805D01*
X152351316Y-130762734D01*
X152350455Y-130771664D01*
X152349675Y-130780596D01*
X152348974Y-130789529D01*
X152348353Y-130798462D01*
X152347812Y-130807396D01*
X152347352Y-130816329D01*
X152346971Y-130825262D01*
X152346671Y-130834194D01*
X152346450Y-130843124D01*
X152346310Y-130852052D01*
X152346249Y-130860978D01*
X152346268Y-130869901D01*
X152346368Y-130878820D01*
X152346547Y-130887736D01*
X152346805Y-130896648D01*
X152347144Y-130905554D01*
X152347563Y-130914456D01*
X152348061Y-130923352D01*
X152348639Y-130932242D01*
X152349296Y-130941125D01*
X152350033Y-130950001D01*
X152350850Y-130958869D01*
X152351746Y-130967728D01*
X152352721Y-130976579D01*
X152353776Y-130985421D01*
X152354911Y-130994253D01*
X152356124Y-131003074D01*
X152357417Y-131011884D01*
X152358788Y-131020683D01*
X152360239Y-131029469D01*
X152361769Y-131038243D01*
X152363377Y-131047004D01*
X152365064Y-131055750D01*
X152366830Y-131064483D01*
X152368674Y-131073200D01*
X152370597Y-131081901D01*
X152372597Y-131090586D01*
X152374676Y-131099254D01*
X152376833Y-131107904D01*
X152379068Y-131116537D01*
X152381381Y-131125150D01*
X152383771Y-131133744D01*
X152386238Y-131142318D01*
X152388783Y-131150871D01*
X152391404Y-131159403D01*
X152394103Y-131167912D01*
X152396878Y-131176399D01*
X152399730Y-131184862D01*
X152402657Y-131193302D01*
X152405661Y-131201716D01*
X152408741Y-131210105D01*
X152411896Y-131218468D01*
X152415127Y-131226805D01*
X152418433Y-131235113D01*
X152421813Y-131243394D01*
X152425268Y-131251646D01*
X152428798Y-131259868D01*
X152432401Y-131268059D01*
X152436079Y-131276220D01*
X152439829Y-131284350D01*
X152443653Y-131292447D01*
X152447550Y-131300510D01*
X152451519Y-131308540D01*
X152455560Y-131316536D01*
X152459674Y-131324497D01*
X152463858Y-131332421D01*
X152468114Y-131340309D01*
X152472441Y-131348160D01*
X152476838Y-131355973D01*
X152481305Y-131363748D01*
X152485842Y-131371483D01*
X152490448Y-131379178D01*
X152495122Y-131386832D01*
X152499866Y-131394445D01*
X152504677Y-131402016D01*
X152509556Y-131409544D01*
X152514502Y-131417028D01*
X152519515Y-131424469D01*
X152524594Y-131431865D01*
X152529739Y-131439215D01*
X152532336Y-131442873D01*
X152534950Y-131446519D01*
X152537579Y-131450154D01*
X152540225Y-131453777D01*
X152542887Y-131457388D01*
X152545565Y-131460987D01*
X152548259Y-131464574D01*
X152550968Y-131468149D01*
X152553694Y-131471712D01*
X152556436Y-131475262D01*
X152559193Y-131478801D01*
X152561966Y-131482326D01*
X152564754Y-131485840D01*
X152567559Y-131489341D01*
X152570378Y-131492828D01*
X152573213Y-131496304D01*
X152576064Y-131499766D01*
X152578929Y-131503216D01*
X152581810Y-131506653D01*
X152584707Y-131510077D01*
X152587618Y-131513487D01*
X152590544Y-131516885D01*
X152593485Y-131520269D01*
X152596442Y-131523640D01*
X152599413Y-131526997D01*
X152602399Y-131530341D01*
X152605399Y-131533671D01*
X152608415Y-131536988D01*
X152611444Y-131540291D01*
X152614489Y-131543581D01*
X152617548Y-131546856D01*
X152620621Y-131550118D01*
X152623708Y-131553365D01*
X152626810Y-131556599D01*
X152629926Y-131559818D01*
X152633056Y-131563024D01*
X152636200Y-131566214D01*
X152639359Y-131569392D01*
X152642530Y-131572553D01*
X152645717Y-131575702D01*
X152648916Y-131578835D01*
X152652130Y-131581954D01*
X152655356Y-131585057D01*
X152658597Y-131588147D01*
X152661851Y-131591221D01*
X152665119Y-131594282D01*
X152668399Y-131597326D01*
X152671693Y-131600356D01*
X152675000Y-131603371D01*
X152678321Y-131606371D01*
X152681654Y-131609355D01*
X152685001Y-131612325D01*
X152688360Y-131615278D01*
X152691733Y-131618218D01*
X152695118Y-131621141D01*
X152698516Y-131624049D01*
X152701926Y-131626941D01*
X152705350Y-131629818D01*
X152708785Y-131632679D01*
X152712233Y-131635525D01*
X152715693Y-131638354D01*
X152719166Y-131641169D01*
X152722651Y-131643966D01*
X152726149Y-131646749D01*
X152729657Y-131649515D01*
X152733179Y-131652266D01*
X152736711Y-131654999D01*
X152740257Y-131657718D01*
X152743813Y-131660419D01*
X152747383Y-131663106D01*
X152750962Y-131665775D01*
X152754555Y-131668428D01*
X152758157Y-131671064D01*
X152761773Y-131673685D01*
X152765398Y-131676289D01*
X152769037Y-131678877D01*
X152772685Y-131681447D01*
X152776346Y-131684002D01*
X152780016Y-131686539D01*
X152783699Y-131689060D01*
X152787391Y-131691564D01*
X152791096Y-131694051D01*
X152794810Y-131696521D01*
X152798536Y-131698976D01*
X152802272Y-131701412D01*
X152806020Y-131703832D01*
X152809777Y-131706234D01*
X152813545Y-131708620D01*
X152817323Y-131710988D01*
X152821113Y-131713340D01*
X152824911Y-131715674D01*
X152828721Y-131717992D01*
X152832540Y-131720291D01*
X152836370Y-131722574D01*
X152840209Y-131724839D01*
X152844060Y-131727087D01*
X152847918Y-131729317D01*
X152851788Y-131731531D01*
X152855667Y-131733726D01*
X152859556Y-131735904D01*
X152863454Y-131738064D01*
X152867363Y-131740208D01*
X152871279Y-131742332D01*
X152875207Y-131744441D01*
X152879143Y-131746530D01*
X152883089Y-131748603D01*
X152887043Y-131750657D01*
X152891008Y-131752694D01*
X152894981Y-131754712D01*
X152898964Y-131756714D01*
X152902954Y-131758696D01*
X152906955Y-131760662D01*
X152910963Y-131762609D01*
X152914982Y-131764539D01*
X152919008Y-131766449D01*
X152923045Y-131768343D01*
X152927088Y-131770218D01*
X152931141Y-131772075D01*
X152935201Y-131773914D01*
X152939272Y-131775735D01*
X152943349Y-131777537D01*
X152947436Y-131779322D01*
X152951530Y-131781088D01*
X152955634Y-131782836D01*
X152959744Y-131784566D01*
X152963864Y-131786277D01*
X152967990Y-131787970D01*
X152972126Y-131789645D01*
X152976268Y-131791301D01*
X152980420Y-131792939D01*
X152984578Y-131794558D01*
X152988745Y-131796160D01*
X152992919Y-131797742D01*
X152997102Y-131799306D01*
X153001290Y-131800851D01*
X153005488Y-131802378D01*
X153009692Y-131803886D01*
X153013905Y-131805376D01*
X153018123Y-131806847D01*
X153022351Y-131808300D01*
X153026584Y-131809733D01*
X153030826Y-131811149D01*
X153035074Y-131812545D01*
X153039331Y-131813923D01*
X153043592Y-131815281D01*
X153047863Y-131816622D01*
X153052139Y-131817943D01*
X153056423Y-131819245D01*
X153060713Y-131820529D01*
X153065011Y-131821794D01*
X153069314Y-131823039D01*
X153073626Y-131824267D01*
X153077943Y-131825474D01*
X153082268Y-131826664D01*
X153086598Y-131827834D01*
X153090936Y-131828985D01*
X153095279Y-131830117D01*
X153099631Y-131831231D01*
X153103986Y-131832325D01*
X153108350Y-131833400D01*
X153112719Y-131834456D01*
X153117096Y-131835493D01*
X153121476Y-131836511D01*
X153125866Y-131837510D01*
X153130259Y-131838489D01*
X153134660Y-131839450D01*
X153139065Y-131840391D01*
X153143479Y-131841313D01*
X153147896Y-131842216D01*
X153152322Y-131843100D01*
X153156751Y-131843964D01*
X153161188Y-131844809D01*
X153165629Y-131845635D01*
X153170078Y-131846442D01*
X153173194Y-131846995D01*
X96144496Y-73003398D02*
X96153358Y-73001790D01*
X96162198Y-73000104D01*
X96171017Y-72998342D01*
X96179813Y-72996502D01*
X96188587Y-72994585D01*
X96197338Y-72992592D01*
X96206065Y-72990522D01*
X96214769Y-72988376D01*
X96223448Y-72986153D01*
X96232103Y-72983854D01*
X96240733Y-72981479D01*
X96249337Y-72979028D01*
X96257916Y-72976502D01*
X96266468Y-72973900D01*
X96274994Y-72971222D01*
X96283492Y-72968470D01*
X96291963Y-72965642D01*
X96300406Y-72962739D01*
X96308821Y-72959762D01*
X96317206Y-72956710D01*
X96325562Y-72953584D01*
X96333889Y-72950384D01*
X96342184Y-72947109D01*
X96350449Y-72943761D01*
X96358683Y-72940340D01*
X96366885Y-72936845D01*
X96375055Y-72933277D01*
X96383191Y-72929636D01*
X96391295Y-72925923D01*
X96399365Y-72922137D01*
X96407400Y-72918279D01*
X96415400Y-72914349D01*
X96423365Y-72910347D01*
X96431294Y-72906274D01*
X96439187Y-72902130D01*
X96447043Y-72897915D01*
X96454861Y-72893629D01*
X96462641Y-72889273D01*
X96470382Y-72884847D01*
X96478084Y-72880352D01*
X96485747Y-72875787D01*
X96493369Y-72871153D01*
X96500950Y-72866450D01*
X96508490Y-72861679D01*
X96515988Y-72856840D01*
X96523444Y-72851934D01*
X96530856Y-72846959D01*
X96538225Y-72841918D01*
X96545549Y-72836811D01*
X96552829Y-72831637D01*
X96560063Y-72826397D01*
X96567251Y-72821092D01*
X96574392Y-72815722D01*
X96581487Y-72810287D01*
X96588534Y-72804789D01*
X96595532Y-72799226D01*
X96602482Y-72793600D01*
X96609382Y-72787911D01*
X96616232Y-72782160D01*
X96623031Y-72776347D01*
X96629780Y-72770473D01*
X96636476Y-72764537D01*
X96643120Y-72758541D01*
X96649712Y-72752485D01*
X96656250Y-72746370D01*
X96662734Y-72740195D01*
X96669163Y-72733963D01*
X96675537Y-72727672D01*
X96681855Y-72721324D01*
X96688118Y-72714919D01*
X96694323Y-72708457D01*
X96700471Y-72701940D01*
X96706561Y-72695368D01*
X96712593Y-72688741D01*
X96718566Y-72682060D01*
X96724479Y-72675325D01*
X96730332Y-72668538D01*
X96736125Y-72661699D01*
X96741857Y-72654807D01*
X96747527Y-72647865D01*
X96753135Y-72640872D01*
X96755915Y-72637357D01*
X96758680Y-72633829D01*
X96761429Y-72630289D01*
X96764162Y-72626737D01*
X96766880Y-72623173D01*
X96769581Y-72619597D01*
X96772267Y-72616009D01*
X96774936Y-72612408D01*
X96777589Y-72608796D01*
X96780227Y-72605172D01*
X96782847Y-72601537D01*
X96785452Y-72597890D01*
X96788040Y-72594231D01*
X96790612Y-72590561D01*
X96793167Y-72586880D01*
X96795706Y-72583187D01*
X96798228Y-72579483D01*
X96800734Y-72575768D01*
X96803223Y-72572042D01*
X96805695Y-72568305D01*
X96808150Y-72564557D01*
X96810589Y-72560798D01*
X96813010Y-72557029D01*
X96815415Y-72553249D01*
X96817803Y-72549459D01*
X96820173Y-72545658D01*
X96822527Y-72541846D01*
X96824863Y-72538025D01*
X96827182Y-72534193D01*
X96829484Y-72530351D01*
X96831769Y-72526499D01*
X96834036Y-72522637D01*
X96836286Y-72518765D01*
X96838518Y-72514883D01*
X96840733Y-72510992D01*
X96842931Y-72507091D01*
X96845110Y-72503181D01*
X96847272Y-72499260D01*
X96849417Y-72495331D01*
X96851544Y-72491392D01*
X96853652Y-72487445D01*
X96855744Y-72483487D01*
X96857817Y-72479522D01*
X96859872Y-72475546D01*
X96861910Y-72471563D01*
X96863929Y-72467569D01*
X96865931Y-72463569D01*
X96867914Y-72459558D01*
X96869879Y-72455540D01*
X96871827Y-72451512D01*
X96873756Y-72447478D01*
X96875667Y-72443433D01*
X96877559Y-72439382D01*
X96879433Y-72435321D01*
X96881289Y-72431254D01*
X96883127Y-72427177D01*
X96884946Y-72423094D01*
X96886747Y-72419001D01*
X96888529Y-72414903D01*
X96890293Y-72410795D01*
X96892038Y-72406681D01*
X96893765Y-72402558D01*
X96895472Y-72398429D01*
X96897162Y-72394292D01*
X96898833Y-72390149D01*
X96900485Y-72385997D01*
X96902118Y-72381839D01*
X96903733Y-72377673D01*
X96905328Y-72373502D01*
X96906905Y-72369322D01*
X96908463Y-72365137D01*
X96910003Y-72360944D01*
X96911523Y-72356746D01*
X96913024Y-72352540D01*
X96914507Y-72348329D01*
X96915970Y-72344110D01*
X96917414Y-72339886D01*
X96918840Y-72335655D01*
X96920246Y-72331419D01*
X96921634Y-72327175D01*
X96923002Y-72322927D01*
X96924351Y-72318672D01*
X96925680Y-72314412D01*
X96926991Y-72310145D01*
X96928282Y-72305874D01*
X96929555Y-72301596D01*
X96930808Y-72297314D01*
X96932042Y-72293025D01*
X96933256Y-72288733D01*
X96934451Y-72284433D01*
X96935626Y-72280130D01*
X96936783Y-72275820D01*
X96937920Y-72271507D01*
X96939038Y-72267186D01*
X96940136Y-72262863D01*
X96941215Y-72258534D01*
X96942274Y-72254201D01*
X96943314Y-72249862D01*
X96944334Y-72245520D01*
X96945335Y-72241171D01*
X96946316Y-72236821D01*
X96947278Y-72232463D01*
X96948220Y-72228104D01*
X96949143Y-72223738D01*
X96950046Y-72219370D01*
X96950930Y-72214996D01*
X96951794Y-72210620D01*
X96952638Y-72206238D01*
X96953463Y-72201854D01*
X96954268Y-72197464D01*
X96955053Y-72193073D01*
X96955819Y-72188675D01*
X96956565Y-72184277D01*
X96957291Y-72179872D01*
X96957998Y-72175466D01*
X96958685Y-72171055D01*
X96959352Y-72166642D01*
X96959999Y-72162224D01*
X96960627Y-72157805D01*
X96961235Y-72153381D01*
X96961822Y-72148955D01*
X96962391Y-72144525D01*
X96962939Y-72140093D01*
X96963468Y-72135657D01*
X96963976Y-72131220D01*
X96964466Y-72126778D01*
X96964935Y-72122335D01*
X96965384Y-72117887D01*
X96965813Y-72113440D01*
X96966223Y-72108987D01*
X96966612Y-72104534D01*
X96966982Y-72100076D01*
X96967332Y-72095619D01*
X96967662Y-72091156D01*
X96967972Y-72086694D01*
X96968262Y-72082227D01*
X96968532Y-72077761D01*
X96968783Y-72073290D01*
X96969013Y-72068819D01*
X96969224Y-72064344D01*
X96969414Y-72059870D01*
X96969584Y-72055391D01*
X96969735Y-72050913D01*
X96969865Y-72046431D01*
X96969976Y-72041950D01*
X96970066Y-72037464D01*
X96970137Y-72032979D01*
X96970188Y-72028491D01*
X96970218Y-72024003D01*
X96970229Y-72019512D01*
X96970219Y-72015021D01*
X96970190Y-72010527D01*
X96970140Y-72006034D01*
X96970070Y-72001538D01*
X96969981Y-71997042D01*
X96969871Y-71992543D01*
X96969741Y-71988046D01*
X96969592Y-71983545D01*
X96969422Y-71979045D01*
X96969232Y-71974543D01*
X96968795Y-71965602D01*
D11*
X160815780Y-52749202D02*
X198115783Y-52749202D01*
X154801093Y-115833888D02*
X154815795Y-115663203D01*
D13*
X117868392Y-47899097D02*
X117877399Y-47898582D01*
X117886392Y-47897987D01*
X117895373Y-47897314D01*
X117904339Y-47896561D01*
X117913292Y-47895729D01*
X117922231Y-47894819D01*
X117931155Y-47893829D01*
X117940063Y-47892761D01*
X117948957Y-47891614D01*
X117957834Y-47890389D01*
X117966695Y-47889085D01*
X117975540Y-47887703D01*
X117984367Y-47886243D01*
X117993177Y-47884705D01*
X118001969Y-47883089D01*
X118010743Y-47881395D01*
X118019498Y-47879623D01*
X118028233Y-47877774D01*
X118036949Y-47875847D01*
X118045645Y-47873842D01*
X118054320Y-47871761D01*
X118062974Y-47869602D01*
X118071607Y-47867366D01*
X118080217Y-47865054D01*
X118088805Y-47862665D01*
X118097370Y-47860199D01*
X118105912Y-47857657D01*
X118114429Y-47855039D01*
X118122922Y-47852344D01*
X118131390Y-47849574D01*
X118139833Y-47846728D01*
X118148249Y-47843806D01*
X118156639Y-47840809D01*
X118165002Y-47837737D01*
X118173337Y-47834590D01*
X118181644Y-47831368D01*
X118189922Y-47828071D01*
X118198171Y-47824700D01*
X118206390Y-47821255D01*
X118214578Y-47817736D01*
X118222736Y-47814144D01*
X118230862Y-47810478D01*
X118238956Y-47806739D01*
X118247017Y-47802927D01*
X118255044Y-47799042D01*
X118263038Y-47795085D01*
X118270997Y-47791055D01*
X118278922Y-47786954D01*
X118286810Y-47782781D01*
X118294662Y-47778537D01*
X118302478Y-47774223D01*
X118310256Y-47769837D01*
X118317995Y-47765381D01*
X118325696Y-47760856D01*
X118333358Y-47756260D01*
X118340979Y-47751596D01*
X118348560Y-47746862D01*
X118356100Y-47742060D01*
X118363598Y-47737190D01*
X118371054Y-47732252D01*
X118378467Y-47727247D01*
X118385835Y-47722174D01*
X118393160Y-47717036D01*
X118400440Y-47711830D01*
X118407674Y-47706560D01*
X118414862Y-47701223D01*
X118422003Y-47695822D01*
X118429097Y-47690357D01*
X118436143Y-47684827D01*
X118443140Y-47679235D01*
X118450088Y-47673579D01*
X118456986Y-47667860D01*
X118463834Y-47662079D01*
X118470630Y-47656237D01*
X118477375Y-47650334D01*
X118484068Y-47644370D01*
X118490708Y-47638347D01*
X118497294Y-47632263D01*
X118503827Y-47626121D01*
X118510304Y-47619920D01*
X118516727Y-47613662D01*
X118523094Y-47607346D01*
X118529404Y-47600973D01*
X118535658Y-47594544D01*
X118541854Y-47588059D01*
X118544930Y-47584796D01*
X118547992Y-47581519D01*
X118551039Y-47578229D01*
X118554072Y-47574925D01*
X118557089Y-47571608D01*
X118560092Y-47568277D01*
X118563080Y-47564933D01*
X118566053Y-47561575D01*
X118569011Y-47558205D01*
X118571954Y-47554821D01*
X118574881Y-47551425D01*
X118577793Y-47548015D01*
X118580690Y-47544592D01*
X118583572Y-47541157D01*
X118586438Y-47537709D01*
X118589289Y-47534248D01*
X118592124Y-47530775D01*
X118594944Y-47527289D01*
X118597748Y-47523791D01*
X118600536Y-47520280D01*
X118603308Y-47516758D01*
X118606065Y-47513222D01*
X118608805Y-47509675D01*
X118611530Y-47506116D01*
X118614238Y-47502545D01*
X118616931Y-47498962D01*
X118619607Y-47495367D01*
X118622267Y-47491761D01*
X118624911Y-47488143D01*
X118627538Y-47484513D01*
X118630149Y-47480872D01*
X118632744Y-47477219D01*
X118635322Y-47473555D01*
X118637884Y-47469880D01*
X118640428Y-47466194D01*
X118642957Y-47462496D01*
X118645468Y-47458788D01*
X118647963Y-47455069D01*
X118650441Y-47451339D01*
X118652902Y-47447597D01*
X118655346Y-47443846D01*
X118657774Y-47440084D01*
X118660184Y-47436311D01*
X118662577Y-47432528D01*
X118664953Y-47428735D01*
X118667312Y-47424930D01*
X118669653Y-47421117D01*
X118671978Y-47417292D01*
X118674284Y-47413459D01*
X118676574Y-47409614D01*
X118678846Y-47405760D01*
X118681101Y-47401896D01*
X118683338Y-47398023D01*
X118685559Y-47394139D01*
X118687760Y-47390247D01*
X118689945Y-47386344D01*
X118692112Y-47382433D01*
X118694261Y-47378512D01*
X118696392Y-47374582D01*
X118698506Y-47370642D01*
X118700602Y-47366695D01*
X118702680Y-47362736D01*
X118704740Y-47358771D01*
X118706782Y-47354795D01*
X118708806Y-47350812D01*
X118710812Y-47346818D01*
X118712800Y-47342818D01*
X118714770Y-47338807D01*
X118716721Y-47334790D01*
X118718655Y-47330763D01*
X118720570Y-47326728D01*
X118722467Y-47322685D01*
X118724345Y-47318634D01*
X118726206Y-47314574D01*
X118728048Y-47310508D01*
X118729872Y-47306432D01*
X118731677Y-47302349D01*
X118733464Y-47298258D01*
X118735232Y-47294160D01*
X118736982Y-47290053D01*
X118738713Y-47285941D01*
X118740426Y-47281819D01*
X118742119Y-47277691D01*
X118743795Y-47273555D01*
X118745451Y-47269413D01*
X118747090Y-47265262D01*
X118748708Y-47261105D01*
X118750309Y-47256940D01*
X118751891Y-47252770D01*
X118753454Y-47248591D01*
X118754998Y-47244408D01*
X118756523Y-47240215D01*
X118758029Y-47236018D01*
X118759517Y-47231813D01*
X118760985Y-47227603D01*
X118762435Y-47223384D01*
X118763865Y-47219161D01*
X118765277Y-47214930D01*
X118766669Y-47210695D01*
X118768043Y-47206452D01*
X118769397Y-47202204D01*
X118770732Y-47197949D01*
X118772048Y-47193689D01*
X118773345Y-47189422D01*
X118774623Y-47185151D01*
X118775881Y-47180872D01*
X118777121Y-47176590D01*
X118778341Y-47172300D01*
X118779542Y-47168007D01*
X118780724Y-47163706D01*
X118781886Y-47159402D01*
X118783029Y-47155090D01*
X118784152Y-47150775D01*
X118785257Y-47146453D01*
X118786342Y-47142128D01*
X118787408Y-47137796D01*
X118788454Y-47133461D01*
X118789481Y-47129119D01*
X118790488Y-47124774D01*
X118791476Y-47120422D01*
X118792444Y-47116068D01*
X118793394Y-47111707D01*
X118794323Y-47107343D01*
X118795233Y-47102973D01*
X118796124Y-47098600D01*
X118796995Y-47094221D01*
X118797846Y-47089840D01*
X118798678Y-47085452D01*
X118799490Y-47081062D01*
X118800283Y-47076666D01*
X118801056Y-47072267D01*
X118801810Y-47067863D01*
X118802544Y-47063457D01*
X118803258Y-47059044D01*
X118803952Y-47054630D01*
X118804627Y-47050210D01*
X118805282Y-47045789D01*
X118805918Y-47041361D01*
X118806534Y-47036932D01*
X118807130Y-47032497D01*
X118807706Y-47028061D01*
X118808263Y-47023619D01*
X118808800Y-47019176D01*
X118809317Y-47014728D01*
X118809814Y-47010278D01*
X118810292Y-47005823D01*
X118810750Y-47001367D01*
X118811188Y-46996905D01*
X118811606Y-46992443D01*
X118812004Y-46987975D01*
X118812383Y-46983506D01*
X118812741Y-46979032D01*
X118813080Y-46974558D01*
X118813399Y-46970078D01*
X118813698Y-46965599D01*
X118813977Y-46961113D01*
X118814237Y-46956628D01*
X118814476Y-46952137D01*
X118814695Y-46947647D01*
X118814895Y-46943151D01*
X118815075Y-46938655D01*
X118815234Y-46934155D01*
X118815374Y-46929654D01*
X118815494Y-46925148D01*
X118815593Y-46920643D01*
X118815673Y-46916133D01*
X118815733Y-46911623D01*
X118815773Y-46907109D01*
X118815795Y-46900401D01*
X119108687Y-44642093D02*
X119102389Y-44648447D01*
X119096149Y-44654857D01*
X119089967Y-44661321D01*
X119083844Y-44667840D01*
X119077780Y-44674413D01*
X119071775Y-44681039D01*
X119065831Y-44687718D01*
X119059946Y-44694449D01*
X119054122Y-44701233D01*
X119048360Y-44708068D01*
X119042659Y-44714954D01*
X119037019Y-44721891D01*
X119031443Y-44728877D01*
X119025928Y-44735913D01*
X119020478Y-44742999D01*
X119015090Y-44750132D01*
X119009767Y-44757314D01*
X119004508Y-44764543D01*
X118999314Y-44771819D01*
X118994185Y-44779141D01*
X118989121Y-44786509D01*
X118984124Y-44793922D01*
X118979193Y-44801380D01*
X118974329Y-44808882D01*
X118969531Y-44816427D01*
X118964802Y-44824015D01*
X118960140Y-44831646D01*
X118955547Y-44839318D01*
X118951022Y-44847031D01*
X118946566Y-44854784D01*
X118942179Y-44862578D01*
X118937863Y-44870410D01*
X118933616Y-44878281D01*
X118929440Y-44886190D01*
X118925334Y-44894136D01*
X118921300Y-44902119D01*
X118917337Y-44910138D01*
X118913446Y-44918192D01*
X118909627Y-44926281D01*
X118905880Y-44934404D01*
X118902206Y-44942560D01*
X118898605Y-44950749D01*
X118895077Y-44958970D01*
X118891623Y-44967222D01*
X118889924Y-44971359D01*
X118888243Y-44975505D01*
X118886581Y-44979657D01*
X118884937Y-44983817D01*
X118883312Y-44987985D01*
X118881706Y-44992160D01*
X118880118Y-44996341D01*
X118878549Y-45000530D01*
X118876998Y-45004726D01*
X118875467Y-45008929D01*
X118873954Y-45013138D01*
X118872460Y-45017355D01*
X118870985Y-45021577D01*
X118869529Y-45025807D01*
X118868092Y-45030043D01*
X118866674Y-45034285D01*
X118865275Y-45038533D01*
X118863894Y-45042788D01*
X118862533Y-45047049D01*
X118861191Y-45051316D01*
X118859868Y-45055589D01*
X118858564Y-45059867D01*
X118857280Y-45064152D01*
X118856014Y-45068442D01*
X118854768Y-45072737D01*
X118853541Y-45077039D01*
X118852333Y-45081345D01*
X118851145Y-45085657D01*
X118849975Y-45089974D01*
X118848825Y-45094297D01*
X118847695Y-45098624D01*
X118846584Y-45102957D01*
X118845492Y-45107294D01*
X118844420Y-45111636D01*
X118843367Y-45115983D01*
X118842333Y-45120334D01*
X118841320Y-45124690D01*
X118840325Y-45129051D01*
X118839350Y-45133415D01*
X118838395Y-45137785D01*
X118837459Y-45142158D01*
X118836543Y-45146536D01*
X118835646Y-45150917D01*
X118834769Y-45155302D01*
X118833912Y-45159691D01*
X118833074Y-45164085D01*
X118832256Y-45168481D01*
X118831457Y-45172882D01*
X118830679Y-45177285D01*
X118829920Y-45181693D01*
X118829181Y-45186103D01*
X118828461Y-45190518D01*
X118827761Y-45194934D01*
X118827081Y-45199355D01*
X118826421Y-45203777D01*
X118825781Y-45208204D01*
X118825160Y-45212633D01*
X118824559Y-45217065D01*
X118823978Y-45221499D01*
X118823417Y-45225936D01*
X118822876Y-45230375D01*
X118822355Y-45234818D01*
X118821853Y-45239261D01*
X118821371Y-45243709D01*
X118820910Y-45248157D01*
X118820468Y-45252608D01*
X118820046Y-45257060D01*
X118819644Y-45261516D01*
X118819262Y-45265972D01*
X118818900Y-45270431D01*
X118818558Y-45274891D01*
X118818235Y-45279353D01*
X118817933Y-45283816D01*
X118817651Y-45288281D01*
X118817388Y-45292747D01*
X118817146Y-45297215D01*
X118816923Y-45301683D01*
X118816721Y-45306153D01*
X118816539Y-45310623D01*
X118816376Y-45315096D01*
X118816234Y-45319568D01*
X118816111Y-45324043D01*
X118816009Y-45328516D01*
X118815926Y-45332992D01*
X118815864Y-45337467D01*
X118815821Y-45341944D01*
X118815795Y-45349200D01*
X119815795Y-44349200D02*
X119806848Y-44349240D01*
X119797904Y-44349360D01*
X119788962Y-44349560D01*
X119780022Y-44349839D01*
X119771087Y-44350199D01*
X119762155Y-44350638D01*
X119753229Y-44351157D01*
X119744308Y-44351756D01*
X119735393Y-44352435D01*
X119726485Y-44353193D01*
X119717585Y-44354031D01*
X119708692Y-44354949D01*
X119699809Y-44355946D01*
X119690934Y-44357022D01*
X119682070Y-44358178D01*
X119673216Y-44359412D01*
X119664373Y-44360727D01*
X119655543Y-44362120D01*
X119646725Y-44363592D01*
X119637921Y-44365143D01*
X119629130Y-44366772D01*
X119620355Y-44368480D01*
X119611594Y-44370267D01*
X119602850Y-44372132D01*
X119594123Y-44374075D01*
X119585413Y-44376096D01*
X119576721Y-44378196D01*
X119568048Y-44380372D01*
X119559394Y-44382627D01*
X119550761Y-44384959D01*
X119542148Y-44387368D01*
X119533557Y-44389854D01*
X119524989Y-44392416D01*
X119516443Y-44395056D01*
X119507921Y-44397772D01*
X119499424Y-44400564D01*
X119490951Y-44403431D01*
X119482505Y-44406375D01*
X119474084Y-44409394D01*
X119465691Y-44412489D01*
X119457326Y-44415658D01*
X119448989Y-44418902D01*
X119440682Y-44422221D01*
X119432404Y-44425614D01*
X119428277Y-44427338D01*
X119424157Y-44429080D01*
X119420046Y-44430841D01*
X119415942Y-44432621D01*
X119411846Y-44434418D01*
X119407758Y-44436234D01*
X119403678Y-44438068D01*
X119399607Y-44439921D01*
X119395544Y-44441792D01*
X119391489Y-44443681D01*
X119387443Y-44445587D01*
X119383405Y-44447512D01*
X119379376Y-44449455D01*
X119375356Y-44451417D01*
X119371344Y-44453395D01*
X119367342Y-44455392D01*
X119363348Y-44457407D01*
X119359364Y-44459440D01*
X119355388Y-44461490D01*
X119351422Y-44463558D01*
X119347465Y-44465644D01*
X119343518Y-44467748D01*
X119339580Y-44469869D01*
X119335651Y-44472007D01*
X119331733Y-44474164D01*
X119327824Y-44476337D01*
X119323925Y-44478528D01*
X119320035Y-44480737D01*
X119316156Y-44482963D01*
X119312286Y-44485206D01*
X119308427Y-44487467D01*
X119304577Y-44489745D01*
X119300739Y-44492039D01*
X119296910Y-44494352D01*
X119293092Y-44496681D01*
X119289284Y-44499027D01*
X119285487Y-44501390D01*
X119281701Y-44503770D01*
X119277925Y-44506167D01*
X119274160Y-44508581D01*
X119270406Y-44511012D01*
X119266663Y-44513459D01*
X119262931Y-44515923D01*
X119259209Y-44518404D01*
X119255500Y-44520901D01*
X119251801Y-44523416D01*
X119248114Y-44525946D01*
X119244437Y-44528493D01*
X119240773Y-44531056D01*
X119237119Y-44533636D01*
X119233478Y-44536232D01*
X119229848Y-44538844D01*
X119226230Y-44541473D01*
X119222624Y-44544118D01*
X119219030Y-44546778D01*
X119215447Y-44549455D01*
X119211876Y-44552148D01*
X119208317Y-44554857D01*
X119204772Y-44557582D01*
X119201237Y-44560323D01*
X119197716Y-44563079D01*
X119194205Y-44565851D01*
X119190709Y-44568639D01*
X119187223Y-44571443D01*
X119183752Y-44574262D01*
X119180292Y-44577097D01*
X119176845Y-44579947D01*
X119173410Y-44582813D01*
X119169989Y-44585694D01*
X119166580Y-44588591D01*
X119163185Y-44591502D01*
X119159802Y-44594429D01*
X119156432Y-44597371D01*
X119153075Y-44600329D01*
X119149732Y-44603301D01*
X119146401Y-44606289D01*
X119143085Y-44609291D01*
X119139780Y-44612309D01*
X119136491Y-44615341D01*
X119133213Y-44618389D01*
X119129950Y-44621450D01*
X119126700Y-44624527D01*
X119123464Y-44627618D01*
X119120241Y-44630725D01*
X119117032Y-44633845D01*
X119113837Y-44636981D01*
X119108687Y-44642093D01*
X56200000Y-80075000D02*
X56191113Y-80076614D01*
X56182249Y-80078304D01*
X56173409Y-80080072D01*
X56164593Y-80081916D01*
X56155801Y-80083836D01*
X56147033Y-80085833D01*
X56138290Y-80087907D01*
X56129573Y-80090056D01*
X56120881Y-80092282D01*
X56112215Y-80094583D01*
X56103575Y-80096960D01*
X56094962Y-80099412D01*
X56086377Y-80101940D01*
X56077818Y-80104543D01*
X56069288Y-80107221D01*
X56060785Y-80109974D01*
X56052311Y-80112801D01*
X56043867Y-80115703D01*
X56035451Y-80118680D01*
X56027066Y-80121731D01*
X56018711Y-80124855D01*
X56010387Y-80128054D01*
X56002093Y-80131326D01*
X55993832Y-80134671D01*
X55985602Y-80138090D01*
X55977405Y-80141582D01*
X55969241Y-80145147D01*
X55961110Y-80148784D01*
X55953013Y-80152494D01*
X55944950Y-80156275D01*
X55936922Y-80160129D01*
X55928930Y-80164055D01*
X55920973Y-80168052D01*
X55913053Y-80172120D01*
X55905169Y-80176259D01*
X55897322Y-80180469D01*
X55889514Y-80184749D01*
X55881743Y-80189099D01*
X55874011Y-80193520D01*
X55866319Y-80198009D01*
X55858667Y-80202569D01*
X55851054Y-80207197D01*
X55843483Y-80211894D01*
X55835953Y-80216659D01*
X55828465Y-80221492D01*
X55821020Y-80226393D01*
X55813618Y-80231361D01*
X55806259Y-80236397D01*
X55798944Y-80241499D01*
X55791674Y-80246667D01*
X55784449Y-80251902D01*
X55777270Y-80257201D01*
X55770137Y-80262566D01*
X55763052Y-80267996D01*
X55756013Y-80273490D01*
X55749023Y-80279048D01*
X55742081Y-80284670D01*
X55735188Y-80290355D01*
X55728345Y-80296102D01*
X55721553Y-80301912D01*
X55714811Y-80307783D01*
X55708120Y-80313716D01*
X55701481Y-80319709D01*
X55694895Y-80325763D01*
X55688362Y-80331877D01*
X55681883Y-80338050D01*
X55675457Y-80344281D01*
X55669087Y-80350572D01*
X55662771Y-80356920D01*
X55656512Y-80363325D01*
X55650309Y-80369787D01*
X55644162Y-80376305D01*
X55638074Y-80382879D01*
X55632043Y-80389507D01*
X55626071Y-80396191D01*
X55620158Y-80402928D01*
X55614304Y-80409719D01*
X55608511Y-80416562D01*
X55602778Y-80423457D01*
X55597106Y-80430405D01*
X55591496Y-80437403D01*
X55585949Y-80444451D01*
X55580464Y-80451549D01*
X55575042Y-80458696D01*
X55569684Y-80465891D01*
X55564389Y-80473135D01*
X55559160Y-80480425D01*
X55553996Y-80487762D01*
X55551438Y-80491448D01*
X55548897Y-80495145D01*
X55546372Y-80498853D01*
X55543864Y-80502573D01*
X55541373Y-80506303D01*
X55538898Y-80510045D01*
X55536440Y-80513798D01*
X55533999Y-80517561D01*
X55531574Y-80521335D01*
X55529167Y-80525121D01*
X55526776Y-80528916D01*
X55524402Y-80532723D01*
X55522046Y-80536539D01*
X55519707Y-80540366D01*
X55517384Y-80544203D01*
X55515079Y-80548051D01*
X55512792Y-80551908D01*
X55510521Y-80555776D01*
X55508268Y-80559654D01*
X55506032Y-80563541D01*
X55503814Y-80567438D01*
X55501613Y-80571345D01*
X55499430Y-80575262D01*
X55497265Y-80579188D01*
X55495117Y-80583123D01*
X55492986Y-80587068D01*
X55490874Y-80591022D01*
X55488779Y-80594985D01*
X55486703Y-80598957D01*
X55484643Y-80602938D01*
X55482603Y-80606928D01*
X55480579Y-80610927D01*
X55478575Y-80614934D01*
X55476587Y-80618951D01*
X55474619Y-80622975D01*
X55472668Y-80627009D01*
X55470735Y-80631050D01*
X55468821Y-80635100D01*
X55466925Y-80639158D01*
X55465047Y-80643224D01*
X55463188Y-80647298D01*
X55461346Y-80651381D01*
X55459524Y-80655470D01*
X55457719Y-80659568D01*
X55455934Y-80663673D01*
X55454166Y-80667787D01*
X55452418Y-80671907D01*
X55450688Y-80676035D01*
X55448976Y-80680169D01*
X55447283Y-80684312D01*
X55445610Y-80688461D01*
X55443954Y-80692619D01*
X55442318Y-80696782D01*
X55440700Y-80700953D01*
X55439101Y-80705129D01*
X55437521Y-80709314D01*
X55435960Y-80713504D01*
X55434417Y-80717702D01*
X55432894Y-80721904D01*
X55431389Y-80726115D01*
X55429904Y-80730331D01*
X55428438Y-80734554D01*
X55426991Y-80738782D01*
X55425562Y-80743017D01*
X55424153Y-80747257D01*
X55422763Y-80751504D01*
X55421393Y-80755755D01*
X55420041Y-80760014D01*
X55418709Y-80764277D01*
X55417395Y-80768546D01*
X55416102Y-80772820D01*
X55414827Y-80777101D01*
X55413572Y-80781385D01*
X55412336Y-80785676D01*
X55411120Y-80789971D01*
X55409922Y-80794272D01*
X55408745Y-80798576D01*
X55407586Y-80802888D01*
X55406447Y-80807202D01*
X55405328Y-80811522D01*
X55404228Y-80815846D01*
X55403147Y-80820176D01*
X55402086Y-80824508D01*
X55401045Y-80828847D01*
X55400023Y-80833188D01*
X55399021Y-80837535D01*
X55398038Y-80841885D01*
X55397075Y-80846240D01*
X55396131Y-80850598D01*
X55395207Y-80854961D01*
X55394303Y-80859327D01*
X55393418Y-80863698D01*
X55392554Y-80868071D01*
X55391708Y-80872449D01*
X55390883Y-80876829D01*
X55390077Y-80881214D01*
X55389291Y-80885601D01*
X55388525Y-80889993D01*
X55387778Y-80894387D01*
X55387051Y-80898785D01*
X55386345Y-80903185D01*
X55385657Y-80907589D01*
X55384990Y-80911995D01*
X55384342Y-80916405D01*
X55383715Y-80920817D01*
X55383107Y-80925233D01*
X55382519Y-80929649D01*
X55381950Y-80934071D01*
X55381402Y-80938492D01*
X55380873Y-80942919D01*
X55380365Y-80947345D01*
X55379876Y-80951776D01*
X55379407Y-80956207D01*
X55378958Y-80960643D01*
X55378529Y-80965078D01*
X55378120Y-80969518D01*
X55377731Y-80973957D01*
X55377361Y-80978400D01*
X55377012Y-80982844D01*
X55376683Y-80987291D01*
X55376373Y-80991737D01*
X55376084Y-80996188D01*
X55375814Y-81000638D01*
X55375565Y-81005091D01*
X55375335Y-81009544D01*
X55375125Y-81014001D01*
X55374936Y-81018456D01*
X55374766Y-81022915D01*
X55374617Y-81027373D01*
X55374487Y-81031835D01*
X55374377Y-81036295D01*
X55374288Y-81040758D01*
X55374218Y-81045221D01*
X55374168Y-81049686D01*
X55374139Y-81054150D01*
X55374129Y-81058617D01*
X55374140Y-81063083D01*
X55374170Y-81067551D01*
X55374220Y-81072018D01*
X55374291Y-81076488D01*
X55374382Y-81080955D01*
X55374492Y-81085426D01*
X55374623Y-81089895D01*
X55374773Y-81094366D01*
X55374944Y-81098835D01*
X55375135Y-81103307D01*
X55375346Y-81107777D01*
X55375577Y-81112249D01*
X55375827Y-81116719D01*
X55376098Y-81121191D01*
X55376389Y-81125661D01*
X55376701Y-81130133D01*
X55377032Y-81134602D01*
X55377383Y-81139074D01*
X55377754Y-81143543D01*
X55378146Y-81148014D01*
X55378557Y-81152483D01*
X55378989Y-81156953D01*
X55379440Y-81161421D01*
X55379912Y-81165890D01*
X55380403Y-81170357D01*
X55380915Y-81174825D01*
X55381447Y-81179290D01*
X55381999Y-81183757D01*
X55382571Y-81188221D01*
X55383163Y-81192687D01*
X55383775Y-81197149D01*
X55384408Y-81201613D01*
X55385060Y-81206073D01*
X55385733Y-81210535D01*
X55386425Y-81214994D01*
X55387138Y-81219453D01*
X55387871Y-81223910D01*
X55388624Y-81228367D01*
X55389499Y-81233401D01*
X154522902Y-114642085D02*
X154516547Y-114635787D01*
X154510137Y-114629547D01*
X154503673Y-114623365D01*
X154497154Y-114617242D01*
X154490581Y-114611178D01*
X154483954Y-114605173D01*
X154477275Y-114599228D01*
X154470543Y-114593343D01*
X154463759Y-114587520D01*
X154456924Y-114581757D01*
X154450037Y-114576056D01*
X154443100Y-114570416D01*
X154436113Y-114564839D01*
X154429077Y-114559325D01*
X154421991Y-114553874D01*
X154414857Y-114548487D01*
X154407675Y-114543163D01*
X154400446Y-114537904D01*
X154393169Y-114532710D01*
X154385847Y-114527581D01*
X154378478Y-114522518D01*
X154371065Y-114517520D01*
X154363607Y-114512589D01*
X154356104Y-114507725D01*
X154348559Y-114502927D01*
X154340970Y-114498198D01*
X154333340Y-114493536D01*
X154325667Y-114488942D01*
X154317954Y-114484417D01*
X154310200Y-114479961D01*
X154302407Y-114475575D01*
X154294574Y-114471258D01*
X154286702Y-114467011D01*
X154278793Y-114462835D01*
X154270847Y-114458730D01*
X154262864Y-114454695D01*
X154254844Y-114450732D01*
X154246790Y-114446841D01*
X154238701Y-114443022D01*
X154230578Y-114439275D01*
X154222421Y-114435601D01*
X154214232Y-114432000D01*
X154206011Y-114428472D01*
X154197759Y-114425018D01*
X154193621Y-114423319D01*
X154189476Y-114421638D01*
X154185323Y-114419976D01*
X154181163Y-114418332D01*
X154176995Y-114416707D01*
X154172821Y-114415101D01*
X154168639Y-114413513D01*
X154164450Y-114411944D01*
X154160254Y-114410394D01*
X154156051Y-114408862D01*
X154151842Y-114407349D01*
X154147625Y-114405855D01*
X154143402Y-114404381D01*
X154139173Y-114402924D01*
X154134937Y-114401487D01*
X154130694Y-114400069D01*
X154126446Y-114398670D01*
X154122191Y-114397290D01*
X154117930Y-114395929D01*
X154113663Y-114394586D01*
X154109391Y-114393264D01*
X154105112Y-114391960D01*
X154100827Y-114390675D01*
X154096537Y-114389410D01*
X154092242Y-114388163D01*
X154087940Y-114386936D01*
X154083634Y-114385729D01*
X154079321Y-114384540D01*
X154075005Y-114383371D01*
X154070682Y-114382221D01*
X154066355Y-114381091D01*
X154062022Y-114379979D01*
X154057685Y-114378888D01*
X154053343Y-114377815D01*
X154048996Y-114376763D01*
X154044644Y-114375729D01*
X154040289Y-114374715D01*
X154035928Y-114373721D01*
X154031564Y-114372746D01*
X154027194Y-114371790D01*
X154022821Y-114370855D01*
X154018443Y-114369939D01*
X154014062Y-114369042D01*
X154009676Y-114368165D01*
X154005288Y-114367308D01*
X154000894Y-114366470D01*
X153996498Y-114365652D01*
X153992097Y-114364853D01*
X153987694Y-114364075D01*
X153983286Y-114363316D01*
X153978876Y-114362577D01*
X153974462Y-114361857D01*
X153970045Y-114361158D01*
X153965624Y-114360478D01*
X153961202Y-114359818D01*
X153956775Y-114359177D01*
X153952347Y-114358557D01*
X153947915Y-114357956D01*
X153943481Y-114357375D01*
X153939043Y-114356814D01*
X153934605Y-114356273D01*
X153930162Y-114355751D01*
X153925719Y-114355250D01*
X153921271Y-114354768D01*
X153916823Y-114354307D01*
X153912372Y-114353865D01*
X153907920Y-114353443D01*
X153903465Y-114353041D01*
X153899009Y-114352659D01*
X153894550Y-114352297D01*
X153890090Y-114351955D01*
X153885628Y-114351632D01*
X153881165Y-114351330D01*
X153876700Y-114351048D01*
X153872235Y-114350786D01*
X153867767Y-114350543D01*
X153863299Y-114350321D01*
X153858828Y-114350118D01*
X153854358Y-114349936D01*
X153849886Y-114349774D01*
X153845414Y-114349631D01*
X153840940Y-114349509D01*
X153836466Y-114349406D01*
X153831991Y-114349324D01*
X153827516Y-114349262D01*
X153823039Y-114349219D01*
X153815795Y-114349193D01*
X154815795Y-115349193D02*
X154815755Y-115340246D01*
X154815635Y-115331302D01*
X154815435Y-115322359D01*
X154815156Y-115313420D01*
X154814796Y-115304485D01*
X154814357Y-115295553D01*
X154813838Y-115286627D01*
X154813239Y-115277706D01*
X154812560Y-115268791D01*
X154811802Y-115259883D01*
X154810964Y-115250982D01*
X154810046Y-115242089D01*
X154809049Y-115233206D01*
X154807973Y-115224331D01*
X154806817Y-115215466D01*
X154805582Y-115206613D01*
X154804268Y-115197770D01*
X154802875Y-115188940D01*
X154801403Y-115180122D01*
X154799852Y-115171317D01*
X154798223Y-115162527D01*
X154796515Y-115153751D01*
X154794728Y-115144990D01*
X154792863Y-115136246D01*
X154790920Y-115127519D01*
X154788899Y-115118808D01*
X154786799Y-115110116D01*
X154784623Y-115101443D01*
X154782368Y-115092790D01*
X154780036Y-115084156D01*
X154777627Y-115075544D01*
X154775141Y-115066953D01*
X154772579Y-115058384D01*
X154769939Y-115049838D01*
X154767223Y-115041316D01*
X154764431Y-115032819D01*
X154761564Y-115024346D01*
X154758620Y-115015900D01*
X154755601Y-115007479D01*
X154752506Y-114999086D01*
X154749337Y-114990721D01*
X154746093Y-114982384D01*
X154742774Y-114974077D01*
X154739382Y-114965799D01*
X154737658Y-114961672D01*
X154735915Y-114957552D01*
X154734154Y-114953440D01*
X154732375Y-114949337D01*
X154730577Y-114945241D01*
X154728761Y-114941153D01*
X154726927Y-114937073D01*
X154725074Y-114933002D01*
X154723204Y-114928939D01*
X154721315Y-114924884D01*
X154719408Y-114920838D01*
X154717483Y-114916800D01*
X154715540Y-114912771D01*
X154713579Y-114908751D01*
X154711600Y-114904740D01*
X154709603Y-114900737D01*
X154707589Y-114896744D01*
X154705556Y-114892759D01*
X154703506Y-114888784D01*
X154701437Y-114884817D01*
X154699352Y-114880861D01*
X154697248Y-114876913D01*
X154695127Y-114872976D01*
X154692988Y-114869047D01*
X154690832Y-114865129D01*
X154688659Y-114861219D01*
X154686468Y-114857320D01*
X154684259Y-114853431D01*
X154682033Y-114849552D01*
X154679790Y-114845682D01*
X154677529Y-114841823D01*
X154675252Y-114837974D01*
X154672957Y-114834135D01*
X154670645Y-114830306D01*
X154668316Y-114826489D01*
X154665970Y-114822681D01*
X154663607Y-114818884D01*
X154661226Y-114815097D01*
X154658830Y-114811322D01*
X154656416Y-114807557D01*
X154653985Y-114803803D01*
X154651538Y-114800060D01*
X154649074Y-114796328D01*
X154646593Y-114792607D01*
X154644096Y-114788897D01*
X154641582Y-114785198D01*
X154639052Y-114781512D01*
X154636504Y-114777835D01*
X154633941Y-114774171D01*
X154631362Y-114770518D01*
X154628766Y-114766877D01*
X154626153Y-114763247D01*
X154623525Y-114759629D01*
X154620880Y-114756023D01*
X154618220Y-114752429D01*
X154615543Y-114748846D01*
X154612850Y-114745276D01*
X154610141Y-114741717D01*
X154607417Y-114738171D01*
X154604676Y-114734637D01*
X154601920Y-114731116D01*
X154599148Y-114727606D01*
X154596360Y-114724109D01*
X154593556Y-114720624D01*
X154590738Y-114717153D01*
X154587902Y-114713693D01*
X154585053Y-114710246D01*
X154582187Y-114706812D01*
X154579306Y-114703391D01*
X154576409Y-114699982D01*
X154573498Y-114696587D01*
X154570571Y-114693204D01*
X154567629Y-114689835D01*
X154564671Y-114686478D01*
X154561699Y-114683135D01*
X154558712Y-114679804D01*
X154555710Y-114676488D01*
X154552692Y-114673184D01*
X154549660Y-114669894D01*
X154546613Y-114666617D01*
X154543551Y-114663354D01*
X154540474Y-114660104D01*
X154537384Y-114656868D01*
X154534277Y-114653645D01*
X154531157Y-114650437D01*
X154528022Y-114647242D01*
X154522902Y-114642085D01*
D11*
X56200000Y-80075000D02*
X96144496Y-73003398D01*
X96968795Y-71965602D02*
X96068896Y-50048297D01*
X119815795Y-44349200D02*
X139915793Y-44349200D01*
D13*
X189534392Y-141685100D02*
X180649874Y-138450129D01*
X171323287Y-135054195D01*
D11*
X154815795Y-115663188D02*
X154815795Y-115349193D01*
X171323287Y-135054195D02*
X171154281Y-135008998D01*
X159815795Y-50349200D02*
X159815795Y-51749202D01*
D13*
X189534484Y-141684993D02*
X189542983Y-141688045D01*
X189551500Y-141691019D01*
X189560036Y-141693915D01*
X189568590Y-141696733D01*
X189577161Y-141699472D01*
X189585749Y-141702133D01*
X189594354Y-141704715D01*
X189602975Y-141707219D01*
X189611612Y-141709644D01*
X189620265Y-141711991D01*
X189628933Y-141714259D01*
X189637616Y-141716448D01*
X189646313Y-141718559D01*
X189655024Y-141720591D01*
X189663749Y-141722544D01*
X189672487Y-141724418D01*
X189681238Y-141726213D01*
X189690001Y-141727929D01*
X189698775Y-141729565D01*
X189707562Y-141731123D01*
X189716359Y-141732602D01*
X189725166Y-141734001D01*
X189733983Y-141735321D01*
X189742810Y-141736561D01*
X189751646Y-141737722D01*
X189760491Y-141738804D01*
X189769343Y-141739806D01*
X189778203Y-141740729D01*
X189787070Y-141741571D01*
X189795943Y-141742335D01*
X189804822Y-141743018D01*
X189813707Y-141743622D01*
X189822597Y-141744146D01*
X189831490Y-141744590D01*
X189840388Y-141744955D01*
X189849289Y-141745239D01*
X189858192Y-141745444D01*
X189867097Y-141745569D01*
X189876004Y-141745614D01*
X189884912Y-141745579D01*
X189893820Y-141745464D01*
X189902727Y-141745269D01*
X189911633Y-141744994D01*
X189920538Y-141744639D01*
X189929441Y-141744205D01*
X189938341Y-141743690D01*
X189947237Y-141743096D01*
X189956129Y-141742421D01*
X189965016Y-141741667D01*
X189973898Y-141740834D01*
X189982773Y-141739920D01*
X189991642Y-141738927D01*
X190000503Y-141737854D01*
X190009357Y-141736702D01*
X190018201Y-141735470D01*
X190027036Y-141734159D01*
X190035860Y-141732768D01*
X190044673Y-141731299D01*
X190053475Y-141729750D01*
X190062265Y-141728122D01*
X190071041Y-141726415D01*
X190079804Y-141724630D01*
X190088552Y-141722766D01*
X190097284Y-141720823D01*
X190106001Y-141718802D01*
X190114701Y-141716703D01*
X190123384Y-141714526D01*
X190132048Y-141712270D01*
X190140693Y-141709938D01*
X190149319Y-141707527D01*
X190157924Y-141705040D01*
X190166508Y-141702475D01*
X190175070Y-141699833D01*
X190183610Y-141697115D01*
X190192126Y-141694320D01*
X190200618Y-141691449D01*
X190209085Y-141688502D01*
X190217526Y-141685479D01*
X190225941Y-141682381D01*
X190234328Y-141679207D01*
X190242688Y-141675958D01*
X190251019Y-141672635D01*
X190259321Y-141669238D01*
X190267592Y-141665766D01*
X190275833Y-141662221D01*
X190284042Y-141658602D01*
X190292218Y-141654910D01*
X190300361Y-141651145D01*
X190304420Y-141649235D01*
X190308471Y-141647307D01*
X190312513Y-141645362D01*
X190316546Y-141643398D01*
X190320570Y-141641416D01*
X190324586Y-141639416D01*
X190328592Y-141637399D01*
X190332589Y-141635364D01*
X190336577Y-141633311D01*
X190340556Y-141631240D01*
X190344526Y-141629151D01*
X190348486Y-141627045D01*
X190352436Y-141624922D01*
X190356377Y-141622780D01*
X190360308Y-141620622D01*
X190364230Y-141618446D01*
X190368141Y-141616252D01*
X190372042Y-141614041D01*
X190375934Y-141611813D01*
X190379815Y-141609568D01*
X190383686Y-141607305D01*
X190387547Y-141605025D01*
X190391397Y-141602729D01*
X190395237Y-141600415D01*
X190399066Y-141598084D01*
X190402885Y-141595736D01*
X190406692Y-141593371D01*
X190410490Y-141590990D01*
X190414276Y-141588592D01*
X190418051Y-141586177D01*
X190421815Y-141583745D01*
X190425568Y-141581297D01*
X190429310Y-141578832D01*
X190433040Y-141576350D01*
X190436759Y-141573853D01*
X190440467Y-141571338D01*
X190444163Y-141568808D01*
X190447847Y-141566261D01*
X190451520Y-141563698D01*
X190455181Y-141561119D01*
X190458829Y-141558523D01*
X190462467Y-141555912D01*
X190466092Y-141553285D01*
X190469705Y-141550641D01*
X190473305Y-141547982D01*
X190476895Y-141545306D01*
X190480470Y-141542616D01*
X190484035Y-141539909D01*
X190487586Y-141537187D01*
X190491125Y-141534449D01*
X190494651Y-141531696D01*
X190498165Y-141528926D01*
X190501665Y-141526142D01*
X190505154Y-141523342D01*
X190508629Y-141520527D01*
X190512091Y-141517697D01*
X190515540Y-141514852D01*
X190518977Y-141511990D01*
X190522399Y-141509115D01*
X190525809Y-141506224D01*
X190529205Y-141503319D01*
X190532589Y-141500398D01*
X190535958Y-141497463D01*
X190539314Y-141494512D01*
X190542656Y-141491547D01*
X190545986Y-141488567D01*
X190549301Y-141485573D01*
X190552603Y-141482564D01*
X190555890Y-141479541D01*
X190559164Y-141476503D01*
X190562423Y-141473452D01*
X190565670Y-141470385D01*
X190568901Y-141467305D01*
X190572119Y-141464209D01*
X190575322Y-141461101D01*
X190578512Y-141457977D01*
X190581686Y-141454841D01*
X190584847Y-141451689D01*
X190587993Y-141448525D01*
X190591125Y-141445346D01*
X190594241Y-141442154D01*
X190597345Y-141438947D01*
X190600432Y-141435728D01*
X190603506Y-141432494D01*
X190606564Y-141429247D01*
X190609608Y-141425986D01*
X190612636Y-141422713D01*
X190615651Y-141419425D01*
X190618649Y-141416125D01*
X190621633Y-141412811D01*
X190624601Y-141409485D01*
X190627556Y-141406144D01*
X190630494Y-141402792D01*
X190633418Y-141399425D01*
X190636325Y-141396046D01*
X190639218Y-141392654D01*
X190642095Y-141389250D01*
X190644958Y-141385831D01*
X190647803Y-141382402D01*
X190650635Y-141378958D01*
X190653450Y-141375503D01*
X190656250Y-141372034D01*
X190659034Y-141368555D01*
X190661803Y-141365061D01*
X190664555Y-141361556D01*
X190667292Y-141358038D01*
X190670013Y-141354509D01*
X190672719Y-141350966D01*
X190675407Y-141347412D01*
X190678082Y-141343845D01*
X190680738Y-141340267D01*
X190683380Y-141336676D01*
X190686005Y-141333075D01*
X190688615Y-141329459D01*
X190691207Y-141325834D01*
X190693785Y-141322195D01*
X190696344Y-141318547D01*
X190698889Y-141314885D01*
X190701417Y-141311213D01*
X190703929Y-141307527D01*
X190706423Y-141303833D01*
X190708903Y-141300124D01*
X190711365Y-141296406D01*
X190713811Y-141292675D01*
X190716240Y-141288935D01*
X190718653Y-141285181D01*
X190721049Y-141281419D01*
X190723429Y-141277643D01*
X190725791Y-141273858D01*
X190728137Y-141270060D01*
X190730466Y-141266253D01*
X190732779Y-141262433D01*
X190735074Y-141258604D01*
X190737354Y-141254762D01*
X190739615Y-141250912D01*
X190741861Y-141247048D01*
X190744089Y-141243176D01*
X190746300Y-141239292D01*
X190748494Y-141235399D01*
X190750672Y-141231493D01*
X190752831Y-141227579D01*
X190754975Y-141223652D01*
X190757100Y-141219717D01*
X190759209Y-141215769D01*
X190761300Y-141211814D01*
X190763375Y-141207846D01*
X190765431Y-141203869D01*
X190767471Y-141199881D01*
X190769493Y-141195884D01*
X190771499Y-141191875D01*
X190773486Y-141187859D01*
X190775457Y-141183830D01*
X190777409Y-141179793D01*
X190779345Y-141175745D01*
X190781263Y-141171688D01*
X190783164Y-141167620D01*
X190785046Y-141163544D01*
X190786912Y-141159456D01*
X190788759Y-141155360D01*
X190790590Y-141151253D01*
X190792402Y-141147138D01*
X190794197Y-141143012D01*
X190795974Y-141138878D01*
X190797734Y-141134732D01*
X190799476Y-141130579D01*
X190801200Y-141126415D01*
X190802906Y-141122243D01*
X190804595Y-141118060D01*
X190806265Y-141113869D01*
X190807918Y-141109667D01*
X190809552Y-141105459D01*
X190811170Y-141101238D01*
X190813186Y-141095897D01*
D11*
X139080596Y-114346690D02*
X139150985Y-114349193D01*
X140915793Y-45349200D02*
X140915793Y-48349200D01*
D13*
X159815795Y-51749202D02*
X159815835Y-51758234D01*
X159815954Y-51767257D01*
X159816154Y-51776271D01*
X159816433Y-51785273D01*
X159816792Y-51794266D01*
X159817230Y-51803248D01*
X159817747Y-51812218D01*
X159818344Y-51821177D01*
X159819021Y-51830124D01*
X159819776Y-51839058D01*
X159820610Y-51847980D01*
X159821524Y-51856888D01*
X159822516Y-51865784D01*
X159823588Y-51874665D01*
X159824738Y-51883531D01*
X159825966Y-51892384D01*
X159827273Y-51901220D01*
X159828659Y-51910042D01*
X159830123Y-51918847D01*
X159831665Y-51927636D01*
X159833286Y-51936408D01*
X159834984Y-51945162D01*
X159836761Y-51953899D01*
X159838615Y-51962617D01*
X159840547Y-51971317D01*
X159842556Y-51979997D01*
X159844643Y-51988657D01*
X159846807Y-51997298D01*
X159849049Y-52005917D01*
X159851367Y-52014516D01*
X159853763Y-52023092D01*
X159856235Y-52031647D01*
X159858783Y-52040178D01*
X159861409Y-52048686D01*
X159864110Y-52057171D01*
X159866888Y-52065631D01*
X159869741Y-52074066D01*
X159872670Y-52082476D01*
X159875675Y-52090859D01*
X159878755Y-52099216D01*
X159881911Y-52107546D01*
X159885141Y-52115849D01*
X159888446Y-52124123D01*
X159891826Y-52132368D01*
X159895280Y-52140583D01*
X159898808Y-52148769D01*
X159902410Y-52156924D01*
X159906085Y-52165048D01*
X159909834Y-52173139D01*
X159913656Y-52181199D01*
X159917551Y-52189225D01*
X159921518Y-52197218D01*
X159925558Y-52205177D01*
X159929669Y-52213100D01*
X159933852Y-52220989D01*
X159938107Y-52228841D01*
X159942432Y-52236656D01*
X159946828Y-52244434D01*
X159951295Y-52252174D01*
X159955831Y-52259875D01*
X159960437Y-52267537D01*
X159965113Y-52275159D01*
X159969857Y-52282741D01*
X159974670Y-52290281D01*
X159979551Y-52297780D01*
X159984500Y-52305236D01*
X159989517Y-52312649D01*
X159994600Y-52320018D01*
X159999750Y-52327343D01*
X160004966Y-52334623D01*
X160010248Y-52341858D01*
X160015595Y-52349046D01*
X160021006Y-52356187D01*
X160026482Y-52363281D01*
X160032022Y-52370327D01*
X160037626Y-52377323D01*
X160043292Y-52384271D01*
X160049020Y-52391168D01*
X160054811Y-52398015D01*
X160060663Y-52404811D01*
X160066576Y-52411555D01*
X160072549Y-52418246D01*
X160078583Y-52424884D01*
X160084675Y-52431469D01*
X160090826Y-52437999D01*
X160097036Y-52444474D01*
X160103303Y-52450895D01*
X160109627Y-52457259D01*
X160112811Y-52460419D01*
X160116008Y-52463566D01*
X160119220Y-52466698D01*
X160122445Y-52469816D01*
X160125684Y-52472920D01*
X160128937Y-52476009D01*
X160132204Y-52479084D01*
X160135485Y-52482143D01*
X160138778Y-52485189D01*
X160142086Y-52488219D01*
X160145407Y-52491235D01*
X160148741Y-52494235D01*
X160152088Y-52497221D01*
X160155449Y-52500192D01*
X160158823Y-52503147D01*
X160162210Y-52506088D01*
X160165609Y-52509013D01*
X160169022Y-52511923D01*
X160172447Y-52514817D01*
X160175886Y-52517696D01*
X160179336Y-52520559D01*
X160182800Y-52523408D01*
X160186276Y-52526240D01*
X160189764Y-52529057D01*
X160193265Y-52531857D01*
X160196778Y-52534643D01*
X160200303Y-52537412D01*
X160203841Y-52540165D01*
X160207390Y-52542903D01*
X160210951Y-52545624D01*
X160214524Y-52548329D01*
X160218109Y-52551019D01*
X160221706Y-52553691D01*
X160225314Y-52556348D01*
X160228934Y-52558988D01*
X160232566Y-52561612D01*
X160236208Y-52564219D01*
X160239863Y-52566811D01*
X160243528Y-52569385D01*
X160247205Y-52571943D01*
X160250892Y-52574484D01*
X160254591Y-52577008D01*
X160258300Y-52579516D01*
X160262021Y-52582007D01*
X160265752Y-52584481D01*
X160269494Y-52586938D01*
X160273246Y-52589378D01*
X160277010Y-52591801D01*
X160280783Y-52594207D01*
X160284567Y-52596596D01*
X160288361Y-52598967D01*
X160292166Y-52601322D01*
X160295980Y-52603659D01*
X160299805Y-52605979D01*
X160303639Y-52608282D01*
X160307484Y-52610567D01*
X160311338Y-52612835D01*
X160315203Y-52615085D01*
X160319076Y-52617318D01*
X160322960Y-52619533D01*
X160326852Y-52621730D01*
X160330755Y-52623911D01*
X160334665Y-52626072D01*
X160338587Y-52628217D01*
X160342516Y-52630343D01*
X160346456Y-52632453D01*
X160350403Y-52634543D01*
X160354361Y-52636617D01*
X160358326Y-52638671D01*
X160362302Y-52640709D01*
X160366285Y-52642727D01*
X160370278Y-52644729D01*
X160374277Y-52646711D01*
X160378287Y-52648677D01*
X160382304Y-52650623D01*
X160386331Y-52652552D01*
X160390364Y-52654461D01*
X160394407Y-52656354D01*
X160398457Y-52658227D01*
X160402516Y-52660083D01*
X160406582Y-52661919D01*
X160410657Y-52663738D01*
X160414738Y-52665538D01*
X160418829Y-52667320D01*
X160422926Y-52669082D01*
X160427032Y-52670827D01*
X160431143Y-52672553D01*
X160435264Y-52674261D01*
X160439391Y-52675949D01*
X160443526Y-52677619D01*
X160447667Y-52679271D01*
X160451817Y-52680904D01*
X160455972Y-52682517D01*
X160460136Y-52684113D01*
X160464305Y-52685689D01*
X160468483Y-52687247D01*
X160472666Y-52688785D01*
X160476857Y-52690306D01*
X160481053Y-52691807D01*
X160485257Y-52693289D01*
X160489466Y-52694752D01*
X160493684Y-52696196D01*
X160497905Y-52697621D01*
X160502136Y-52699028D01*
X160506370Y-52700415D01*
X160510612Y-52701783D01*
X160514859Y-52703132D01*
X160519113Y-52704462D01*
X160523372Y-52705773D01*
X160527638Y-52707065D01*
X160531908Y-52708337D01*
X160536186Y-52709591D01*
X160540467Y-52710825D01*
X160544757Y-52712040D01*
X160549049Y-52713236D01*
X160553350Y-52714413D01*
X160557653Y-52715569D01*
X160561964Y-52716708D01*
X160566278Y-52717826D01*
X160570600Y-52718926D01*
X160574924Y-52720005D01*
X160579256Y-52721066D01*
X160583591Y-52722107D01*
X160587933Y-52723129D01*
X160592277Y-52724131D01*
X160596629Y-52725114D01*
X160600983Y-52726078D01*
X160605344Y-52727022D01*
X160609708Y-52727946D01*
X160614079Y-52728852D01*
X160618451Y-52729737D01*
X160622831Y-52730603D01*
X160627212Y-52731450D01*
X160631601Y-52732277D01*
X160635991Y-52733084D01*
X160640388Y-52733872D01*
X160644787Y-52734640D01*
X160649192Y-52735389D01*
X160653599Y-52736118D01*
X160658013Y-52736828D01*
X160662428Y-52737517D01*
X160666849Y-52738187D01*
X160671272Y-52738838D01*
X160675701Y-52739469D01*
X160680132Y-52740080D01*
X160684568Y-52740671D01*
X160689006Y-52741243D01*
X160693450Y-52741795D01*
X160697895Y-52742327D01*
X160702346Y-52742839D01*
X160706798Y-52743332D01*
X160711256Y-52743805D01*
X160715714Y-52744258D01*
X160720179Y-52744692D01*
X160724644Y-52745105D01*
X160729115Y-52745499D01*
X160733586Y-52745873D01*
X160738063Y-52746227D01*
X160742541Y-52746561D01*
X160747024Y-52746875D01*
X160751508Y-52747170D01*
X160755997Y-52747445D01*
X160760486Y-52747699D01*
X160764981Y-52747934D01*
X160769476Y-52748149D01*
X160773976Y-52748344D01*
X160778477Y-52748519D01*
X160782982Y-52748674D01*
X160787488Y-52748810D01*
X160791999Y-52748925D01*
X160796509Y-52749020D01*
X160801025Y-52749095D01*
X160805541Y-52749151D01*
X160810061Y-52749186D01*
X160815764Y-52749202D01*
X96324038Y-49326419D02*
X96318084Y-49333097D01*
X96312191Y-49339827D01*
X96306359Y-49346609D01*
X96300589Y-49353442D01*
X96294880Y-49360325D01*
X96289234Y-49367259D01*
X96283650Y-49374242D01*
X96278129Y-49381275D01*
X96272671Y-49388357D01*
X96267277Y-49395486D01*
X96261948Y-49402664D01*
X96256682Y-49409888D01*
X96251482Y-49417160D01*
X96246347Y-49424477D01*
X96241278Y-49431840D01*
X96236275Y-49439248D01*
X96231338Y-49446701D01*
X96226468Y-49454198D01*
X96221665Y-49461738D01*
X96216929Y-49469320D01*
X96212262Y-49476945D01*
X96207663Y-49484612D01*
X96203132Y-49492320D01*
X96198671Y-49500068D01*
X96194279Y-49507856D01*
X96189956Y-49515683D01*
X96185704Y-49523549D01*
X96181521Y-49531453D01*
X96177410Y-49539394D01*
X96173370Y-49547372D01*
X96169401Y-49555386D01*
X96165503Y-49563435D01*
X96161678Y-49571519D01*
X96157925Y-49579638D01*
X96154245Y-49587790D01*
X96150637Y-49595974D01*
X96147103Y-49604191D01*
X96143642Y-49612440D01*
X96140256Y-49620719D01*
X96136943Y-49629028D01*
X96133704Y-49637367D01*
X96130541Y-49645735D01*
X96127452Y-49654130D01*
X96124438Y-49662553D01*
X96122960Y-49666775D01*
X96121500Y-49671003D01*
X96120059Y-49675238D01*
X96118637Y-49679479D01*
X96117235Y-49683726D01*
X96115851Y-49687980D01*
X96114486Y-49692240D01*
X96113140Y-49696506D01*
X96111813Y-49700777D01*
X96110506Y-49705055D01*
X96109217Y-49709339D01*
X96107948Y-49713628D01*
X96106698Y-49717923D01*
X96105467Y-49722223D01*
X96104256Y-49726529D01*
X96103063Y-49730840D01*
X96101890Y-49735157D01*
X96100737Y-49739479D01*
X96099602Y-49743805D01*
X96098487Y-49748137D01*
X96097392Y-49752474D01*
X96096316Y-49756816D01*
X96095259Y-49761162D01*
X96094221Y-49765513D01*
X96093204Y-49769868D01*
X96092205Y-49774228D01*
X96091227Y-49778593D01*
X96090267Y-49782962D01*
X96089328Y-49787334D01*
X96088407Y-49791712D01*
X96087507Y-49796092D01*
X96086626Y-49800478D01*
X96085765Y-49804866D01*
X96084923Y-49809259D01*
X96084101Y-49813655D01*
X96083299Y-49818056D01*
X96082516Y-49822459D01*
X96081753Y-49826866D01*
X96081010Y-49831276D01*
X96080286Y-49835690D01*
X96079583Y-49840106D01*
X96078899Y-49844526D01*
X96078235Y-49848949D01*
X96077590Y-49853375D01*
X96076966Y-49857803D01*
X96076361Y-49862234D01*
X96075776Y-49866668D01*
X96075211Y-49871105D01*
X96074666Y-49875543D01*
X96074141Y-49879985D01*
X96073635Y-49884428D01*
X96073150Y-49888874D01*
X96072684Y-49893322D01*
X96072238Y-49897772D01*
X96071813Y-49902224D01*
X96071407Y-49906678D01*
X96071021Y-49911133D01*
X96070655Y-49915591D01*
X96070309Y-49920049D01*
X96069982Y-49924511D01*
X96069676Y-49928972D01*
X96069390Y-49933436D01*
X96069124Y-49937900D01*
X96068878Y-49942366D01*
X96068651Y-49946833D01*
X96068445Y-49951301D01*
X96068259Y-49955770D01*
X96068092Y-49960240D01*
X96067946Y-49964710D01*
X96067820Y-49969183D01*
X96067713Y-49973654D01*
X96067627Y-49978127D01*
X96067561Y-49982600D01*
X96067514Y-49987074D01*
X96067488Y-49991547D01*
X96067482Y-49996022D01*
X96067496Y-50000495D01*
X96067529Y-50004971D01*
X96067583Y-50009444D01*
X96067657Y-50013919D01*
X96067751Y-50018393D01*
X96067865Y-50022867D01*
X96067998Y-50027340D01*
X96068152Y-50031814D01*
X96068326Y-50036286D01*
X96068520Y-50040760D01*
X96068892Y-50048297D01*
X97014991Y-48996600D02*
X97006059Y-48997109D01*
X96997133Y-48997699D01*
X96988213Y-48998367D01*
X96979301Y-48999116D01*
X96970396Y-48999944D01*
X96961500Y-49000851D01*
X96952614Y-49001838D01*
X96943736Y-49002905D01*
X96934869Y-49004050D01*
X96926013Y-49005275D01*
X96917169Y-49006579D01*
X96908337Y-49007962D01*
X96899518Y-49009423D01*
X96890712Y-49010964D01*
X96881920Y-49012583D01*
X96873144Y-49014281D01*
X96864383Y-49016057D01*
X96855637Y-49017912D01*
X96846909Y-49019845D01*
X96838198Y-49021855D01*
X96829506Y-49023944D01*
X96820832Y-49026110D01*
X96812177Y-49028354D01*
X96803543Y-49030676D01*
X96794930Y-49033074D01*
X96786338Y-49035550D01*
X96777768Y-49038102D01*
X96769221Y-49040731D01*
X96760698Y-49043436D01*
X96752199Y-49046218D01*
X96743725Y-49049076D01*
X96735277Y-49052009D01*
X96726855Y-49055018D01*
X96718459Y-49058102D01*
X96710092Y-49061261D01*
X96701753Y-49064495D01*
X96693443Y-49067804D01*
X96685162Y-49071187D01*
X96676912Y-49074644D01*
X96668693Y-49078174D01*
X96660506Y-49081778D01*
X96652351Y-49085455D01*
X96644230Y-49089205D01*
X96636142Y-49093028D01*
X96632111Y-49094966D01*
X96628088Y-49096922D01*
X96624074Y-49098897D01*
X96620070Y-49100889D01*
X96616074Y-49102899D01*
X96612087Y-49104927D01*
X96608109Y-49106973D01*
X96604141Y-49109036D01*
X96600182Y-49111118D01*
X96596232Y-49113217D01*
X96592291Y-49115333D01*
X96588360Y-49117467D01*
X96584439Y-49119619D01*
X96580527Y-49121789D01*
X96576625Y-49123975D01*
X96572733Y-49126179D01*
X96568851Y-49128401D01*
X96564978Y-49130640D01*
X96561116Y-49132896D01*
X96557264Y-49135169D01*
X96553422Y-49137460D01*
X96549591Y-49139768D01*
X96545770Y-49142092D01*
X96541959Y-49144434D01*
X96538159Y-49146793D01*
X96534369Y-49149169D01*
X96530591Y-49151562D01*
X96526823Y-49153972D01*
X96523066Y-49156398D01*
X96519319Y-49158841D01*
X96515584Y-49161301D01*
X96511860Y-49163778D01*
X96508147Y-49166271D01*
X96504445Y-49168781D01*
X96500754Y-49171307D01*
X96497075Y-49173850D01*
X96493407Y-49176409D01*
X96489751Y-49178984D01*
X96486107Y-49181576D01*
X96482473Y-49184184D01*
X96478852Y-49186808D01*
X96475242Y-49189449D01*
X96471645Y-49192105D01*
X96468059Y-49194778D01*
X96464486Y-49197466D01*
X96460924Y-49200171D01*
X96457375Y-49202891D01*
X96453837Y-49205628D01*
X96450313Y-49208380D01*
X96446800Y-49211148D01*
X96443300Y-49213931D01*
X96439812Y-49216731D01*
X96436337Y-49219545D01*
X96432874Y-49222376D01*
X96429425Y-49225221D01*
X96425988Y-49228083D01*
X96422564Y-49230959D01*
X96419152Y-49233851D01*
X96415754Y-49236758D01*
X96412368Y-49239681D01*
X96408997Y-49242618D01*
X96405637Y-49245571D01*
X96402291Y-49248538D01*
X96398958Y-49251521D01*
X96395639Y-49254518D01*
X96392333Y-49257531D01*
X96389041Y-49260557D01*
X96385761Y-49263600D01*
X96382496Y-49266656D01*
X96379244Y-49269728D01*
X96376006Y-49272813D01*
X96372781Y-49275914D01*
X96369571Y-49279029D01*
X96366374Y-49282159D01*
X96363192Y-49285302D01*
X96360022Y-49288461D01*
X96356868Y-49291633D01*
X96353727Y-49294820D01*
X96350601Y-49298020D01*
X96347488Y-49301236D01*
X96344390Y-49304464D01*
X96341306Y-49307708D01*
X96338237Y-49310964D01*
X96335181Y-49314235D01*
X96332141Y-49317519D01*
X96329114Y-49320818D01*
X96324038Y-49326419D01*
D11*
X122176795Y-113153499D02*
X122054792Y-113152400D01*
D13*
X152361091Y-130691386D02*
X153648332Y-122853204D01*
X154801093Y-115833888D01*
D11*
X100877593Y-114245998D02*
X100754790Y-114260005D01*
D13*
X159522902Y-49642093D02*
X159516548Y-49635795D01*
X159510138Y-49629555D01*
X159503674Y-49623373D01*
X159497155Y-49617250D01*
X159490582Y-49611186D01*
X159483956Y-49605181D01*
X159477277Y-49599236D01*
X159470546Y-49593352D01*
X159463762Y-49587528D01*
X159456927Y-49581765D01*
X159450041Y-49576064D01*
X159443104Y-49570425D01*
X159436118Y-49564848D01*
X159429081Y-49559334D01*
X159421996Y-49553883D01*
X159414862Y-49548496D01*
X159407681Y-49543173D01*
X159400452Y-49537914D01*
X159393176Y-49532719D01*
X159385853Y-49527590D01*
X159378485Y-49522527D01*
X159371072Y-49517530D01*
X159363614Y-49512598D01*
X159356112Y-49507734D01*
X159348567Y-49502937D01*
X159340979Y-49498207D01*
X159333349Y-49493546D01*
X159325677Y-49488952D01*
X159317964Y-49484427D01*
X159310210Y-49479971D01*
X159302417Y-49475585D01*
X159294584Y-49471268D01*
X159286713Y-49467021D01*
X159278804Y-49462845D01*
X159270858Y-49458739D01*
X159262875Y-49454705D01*
X159254856Y-49450742D01*
X159246802Y-49446851D01*
X159238713Y-49443032D01*
X159230590Y-49439285D01*
X159222434Y-49435611D01*
X159214245Y-49432010D01*
X159206025Y-49428482D01*
X159197772Y-49425028D01*
X159193635Y-49423329D01*
X159189490Y-49421648D01*
X159185337Y-49419986D01*
X159181177Y-49418342D01*
X159177009Y-49416717D01*
X159172835Y-49415111D01*
X159168653Y-49413523D01*
X159164464Y-49411954D01*
X159160268Y-49410404D01*
X159156066Y-49408872D01*
X159151856Y-49407359D01*
X159147640Y-49405865D01*
X159143417Y-49404391D01*
X159139187Y-49402934D01*
X159134952Y-49401497D01*
X159130709Y-49400079D01*
X159126461Y-49398680D01*
X159122206Y-49397300D01*
X159117945Y-49395938D01*
X159113678Y-49394596D01*
X159109406Y-49393273D01*
X159105127Y-49391970D01*
X159100843Y-49390685D01*
X159096552Y-49389419D01*
X159092257Y-49388173D01*
X159087955Y-49386946D01*
X159083649Y-49385738D01*
X159079337Y-49384550D01*
X159075020Y-49383381D01*
X159070697Y-49382231D01*
X159066370Y-49381100D01*
X159062038Y-49379989D01*
X159057701Y-49378897D01*
X159053358Y-49377825D01*
X159049012Y-49376772D01*
X159044660Y-49375738D01*
X159040304Y-49374725D01*
X159035944Y-49373730D01*
X159031579Y-49372755D01*
X159027210Y-49371800D01*
X159022837Y-49370864D01*
X159018459Y-49369948D01*
X159014078Y-49369051D01*
X159009692Y-49368174D01*
X159005303Y-49367317D01*
X159000910Y-49366479D01*
X158996513Y-49365661D01*
X158992113Y-49364862D01*
X158987709Y-49364084D01*
X158983301Y-49363325D01*
X158978891Y-49362586D01*
X158974477Y-49361866D01*
X158970060Y-49361166D01*
X158965640Y-49360486D01*
X158961217Y-49359826D01*
X158956790Y-49359186D01*
X158952362Y-49358565D01*
X158947930Y-49357964D01*
X158943496Y-49357383D01*
X158939058Y-49356822D01*
X158934619Y-49356281D01*
X158930177Y-49355760D01*
X158925733Y-49355258D01*
X158921286Y-49354776D01*
X158916838Y-49354315D01*
X158912386Y-49353873D01*
X158907934Y-49353451D01*
X158903479Y-49353049D01*
X158899023Y-49352667D01*
X158894564Y-49352305D01*
X158890104Y-49351963D01*
X158885642Y-49351640D01*
X158881179Y-49351338D01*
X158876714Y-49351056D01*
X158872248Y-49350793D01*
X158867780Y-49350551D01*
X158863312Y-49350328D01*
X158858842Y-49350126D01*
X158854372Y-49349944D01*
X158849899Y-49349781D01*
X158845427Y-49349639D01*
X158840952Y-49349516D01*
X158836479Y-49349414D01*
X158832003Y-49349331D01*
X158827528Y-49349269D01*
X158823051Y-49349226D01*
X158815795Y-49349200D01*
X159815795Y-50349200D02*
X159815755Y-50340253D01*
X159815635Y-50331309D01*
X159815435Y-50322366D01*
X159815156Y-50313427D01*
X159814796Y-50304492D01*
X159814357Y-50295560D01*
X159813838Y-50286634D01*
X159813239Y-50277713D01*
X159812560Y-50268798D01*
X159811802Y-50259890D01*
X159810964Y-50250990D01*
X159810046Y-50242097D01*
X159809049Y-50233213D01*
X159807973Y-50224339D01*
X159806817Y-50215474D01*
X159805583Y-50206620D01*
X159804268Y-50197778D01*
X159802875Y-50188948D01*
X159801403Y-50180130D01*
X159799853Y-50171325D01*
X159798223Y-50162535D01*
X159796515Y-50153759D01*
X159794728Y-50144999D01*
X159792863Y-50136255D01*
X159790920Y-50127527D01*
X159788899Y-50118817D01*
X159786800Y-50110125D01*
X159784623Y-50101452D01*
X159782368Y-50092799D01*
X159780037Y-50084165D01*
X159777628Y-50075553D01*
X159775142Y-50066962D01*
X159772579Y-50058394D01*
X159769939Y-50049848D01*
X159767224Y-50041326D01*
X159764432Y-50032829D01*
X159761564Y-50024356D01*
X159758620Y-50015910D01*
X159755601Y-50007489D01*
X159752506Y-49999096D01*
X159749337Y-49990731D01*
X159746093Y-49982395D01*
X159742774Y-49974087D01*
X159739382Y-49965810D01*
X159737658Y-49961682D01*
X159735915Y-49957563D01*
X159734154Y-49953451D01*
X159732375Y-49949347D01*
X159730577Y-49945251D01*
X159728761Y-49941163D01*
X159726927Y-49937084D01*
X159725074Y-49933012D01*
X159723204Y-49928949D01*
X159721315Y-49924894D01*
X159719408Y-49920848D01*
X159717483Y-49916810D01*
X159715540Y-49912781D01*
X159713579Y-49908761D01*
X159711600Y-49904750D01*
X159709603Y-49900747D01*
X159707588Y-49896754D01*
X159705556Y-49892769D01*
X159703505Y-49888794D01*
X159701437Y-49884828D01*
X159699351Y-49880871D01*
X159697248Y-49876923D01*
X159695127Y-49872986D01*
X159692988Y-49869057D01*
X159690832Y-49865139D01*
X159688658Y-49861229D01*
X159686467Y-49857330D01*
X159684258Y-49853441D01*
X159682032Y-49849561D01*
X159679789Y-49845692D01*
X159677529Y-49841833D01*
X159675251Y-49837983D01*
X159672956Y-49834145D01*
X159670644Y-49830316D01*
X159668315Y-49826498D01*
X159665969Y-49822690D01*
X159663606Y-49818893D01*
X159661225Y-49815107D01*
X159658828Y-49811331D01*
X159656414Y-49807566D01*
X159653984Y-49803812D01*
X159651536Y-49800069D01*
X159649072Y-49796337D01*
X159646591Y-49792615D01*
X159644094Y-49788906D01*
X159641580Y-49785207D01*
X159639050Y-49781520D01*
X159636503Y-49777843D01*
X159633940Y-49774179D01*
X159631360Y-49770526D01*
X159628764Y-49766885D01*
X159626151Y-49763254D01*
X159623523Y-49759637D01*
X159620878Y-49756030D01*
X159618217Y-49752436D01*
X159615540Y-49748853D01*
X159612848Y-49745283D01*
X159610138Y-49741724D01*
X159607414Y-49738178D01*
X159604673Y-49734643D01*
X159601917Y-49731122D01*
X159599144Y-49727612D01*
X159596357Y-49724115D01*
X159593553Y-49720630D01*
X159590734Y-49717158D01*
X159587899Y-49713698D01*
X159585049Y-49710252D01*
X159582183Y-49706817D01*
X159579302Y-49703396D01*
X159576405Y-49699987D01*
X159573494Y-49696592D01*
X159570566Y-49693208D01*
X159567624Y-49689839D01*
X159564667Y-49686482D01*
X159561695Y-49683139D01*
X159558707Y-49679808D01*
X159555705Y-49676491D01*
X159552687Y-49673187D01*
X159549655Y-49669897D01*
X159546607Y-49666620D01*
X159543546Y-49663357D01*
X159540468Y-49660106D01*
X159537377Y-49656871D01*
X159534271Y-49653647D01*
X159531151Y-49650439D01*
X159528015Y-49647243D01*
X159522902Y-49642093D01*
D11*
X171154281Y-135008998D02*
X153173194Y-131846995D01*
D13*
X199115783Y-53749202D02*
X199115743Y-53740256D01*
X199115623Y-53731311D01*
X199115423Y-53722369D01*
X199115144Y-53713430D01*
X199114784Y-53704495D01*
X199114345Y-53695564D01*
X199113826Y-53686638D01*
X199113227Y-53677717D01*
X199112548Y-53668803D01*
X199111790Y-53659895D01*
X199110952Y-53650995D01*
X199110034Y-53642102D01*
X199109037Y-53633219D01*
X199107961Y-53624344D01*
X199106805Y-53615480D01*
X199105570Y-53606626D01*
X199104256Y-53597784D01*
X199102863Y-53588954D01*
X199101391Y-53580136D01*
X199099840Y-53571332D01*
X199098211Y-53562542D01*
X199096503Y-53553766D01*
X199094716Y-53545006D01*
X199092851Y-53536262D01*
X199090908Y-53527534D01*
X199088886Y-53518824D01*
X199086787Y-53510132D01*
X199084610Y-53501459D01*
X199082356Y-53492806D01*
X199080024Y-53484172D01*
X199077615Y-53475560D01*
X199075129Y-53466969D01*
X199072566Y-53458400D01*
X199069927Y-53449855D01*
X199067211Y-53441333D01*
X199064419Y-53432835D01*
X199061551Y-53424362D01*
X199058607Y-53415916D01*
X199055588Y-53407495D01*
X199052493Y-53399102D01*
X199049324Y-53390737D01*
X199046080Y-53382400D01*
X199042761Y-53374092D01*
X199039368Y-53365815D01*
X199037644Y-53361687D01*
X199035901Y-53357568D01*
X199034140Y-53353456D01*
X199032361Y-53349352D01*
X199030563Y-53345256D01*
X199028747Y-53341168D01*
X199026913Y-53337088D01*
X199025060Y-53333016D01*
X199023190Y-53328953D01*
X199021301Y-53324898D01*
X199019394Y-53320852D01*
X199017469Y-53316814D01*
X199015526Y-53312785D01*
X199013565Y-53308765D01*
X199011586Y-53304753D01*
X199009589Y-53300751D01*
X199007574Y-53296757D01*
X199005541Y-53292772D01*
X199003491Y-53288797D01*
X199001422Y-53284831D01*
X198999337Y-53280874D01*
X198997233Y-53276926D01*
X198995112Y-53272988D01*
X198992973Y-53269060D01*
X198990817Y-53265141D01*
X198988643Y-53261232D01*
X198986452Y-53257332D01*
X198984243Y-53253443D01*
X198982017Y-53249563D01*
X198979774Y-53245693D01*
X198977513Y-53241834D01*
X198975235Y-53237985D01*
X198972941Y-53234146D01*
X198970628Y-53230317D01*
X198968299Y-53226499D01*
X198965953Y-53222691D01*
X198963590Y-53218894D01*
X198961209Y-53215107D01*
X198958813Y-53211332D01*
X198956398Y-53207566D01*
X198953968Y-53203812D01*
X198951520Y-53200069D01*
X198949056Y-53196337D01*
X198946575Y-53192615D01*
X198944078Y-53188905D01*
X198941564Y-53185206D01*
X198939033Y-53181519D01*
X198936486Y-53177842D01*
X198933923Y-53174178D01*
X198931343Y-53170524D01*
X198928747Y-53166883D01*
X198926134Y-53163253D01*
X198923506Y-53159635D01*
X198920861Y-53156028D01*
X198918200Y-53152434D01*
X198915523Y-53148851D01*
X198912830Y-53145281D01*
X198910121Y-53141721D01*
X198907397Y-53138175D01*
X198904655Y-53134641D01*
X198901899Y-53131119D01*
X198899127Y-53127609D01*
X198896339Y-53124112D01*
X198893535Y-53120627D01*
X198890716Y-53117155D01*
X198887881Y-53113695D01*
X198885031Y-53110248D01*
X198882165Y-53106813D01*
X198879284Y-53103392D01*
X198876387Y-53099983D01*
X198873475Y-53096587D01*
X198870548Y-53093204D01*
X198867606Y-53089834D01*
X198864648Y-53086477D01*
X198861676Y-53083134D01*
X198858688Y-53079803D01*
X198855686Y-53076486D01*
X198852668Y-53073182D01*
X198849636Y-53069892D01*
X198846588Y-53066614D01*
X198843527Y-53063351D01*
X198840449Y-53060101D01*
X198837358Y-53056865D01*
X198834252Y-53053641D01*
X198831132Y-53050433D01*
X198827996Y-53047237D01*
X198822890Y-53042094D01*
D11*
X199115783Y-53749202D02*
X199115783Y-75649203D01*
D13*
X198822890Y-53042094D02*
X198816536Y-53035796D01*
X198810127Y-53029557D01*
X198803663Y-53023375D01*
X198797145Y-53017252D01*
X198790573Y-53011189D01*
X198783948Y-53005184D01*
X198777269Y-52999240D01*
X198770538Y-52993355D01*
X198763755Y-52987532D01*
X198756921Y-52981769D01*
X198750035Y-52976068D01*
X198743099Y-52970429D01*
X198736112Y-52964853D01*
X198729077Y-52959339D01*
X198721992Y-52953888D01*
X198714859Y-52948501D01*
X198707677Y-52943178D01*
X198700449Y-52937919D01*
X198693173Y-52932725D01*
X198685851Y-52927596D01*
X198678483Y-52922533D01*
X198671071Y-52917535D01*
X198663613Y-52912604D01*
X198656111Y-52907740D01*
X198648566Y-52902943D01*
X198640979Y-52898213D01*
X198633348Y-52893552D01*
X198625677Y-52888958D01*
X198617964Y-52884433D01*
X198610211Y-52879978D01*
X198602417Y-52875591D01*
X198594585Y-52871274D01*
X198586714Y-52867028D01*
X198578805Y-52862851D01*
X198570859Y-52858746D01*
X198562877Y-52854711D01*
X198554858Y-52850748D01*
X198546804Y-52846857D01*
X198538715Y-52843038D01*
X198530592Y-52839291D01*
X198522436Y-52835617D01*
X198514247Y-52832016D01*
X198506027Y-52828489D01*
X198497775Y-52825034D01*
X198493637Y-52823335D01*
X198489492Y-52821654D01*
X198485339Y-52819992D01*
X198481179Y-52818348D01*
X198477012Y-52816723D01*
X198472837Y-52815117D01*
X198468655Y-52813529D01*
X198464466Y-52811960D01*
X198460271Y-52810409D01*
X198456068Y-52808878D01*
X198451858Y-52807365D01*
X198447642Y-52805871D01*
X198443419Y-52804396D01*
X198439190Y-52802940D01*
X198434954Y-52801503D01*
X198430711Y-52800085D01*
X198426463Y-52798685D01*
X198422208Y-52797305D01*
X198417947Y-52795944D01*
X198413680Y-52794602D01*
X198409408Y-52793279D01*
X198405129Y-52791975D01*
X198400845Y-52790690D01*
X198396554Y-52789425D01*
X198392259Y-52788178D01*
X198387957Y-52786951D01*
X198383651Y-52785743D01*
X198379339Y-52784555D01*
X198375022Y-52783385D01*
X198370699Y-52782235D01*
X198366372Y-52781105D01*
X198362039Y-52779994D01*
X198357702Y-52778902D01*
X198353360Y-52777829D01*
X198349013Y-52776777D01*
X198344661Y-52775743D01*
X198340306Y-52774729D01*
X198335945Y-52773735D01*
X198331580Y-52772760D01*
X198327211Y-52771804D01*
X198322838Y-52770868D01*
X198318460Y-52769952D01*
X198314079Y-52769055D01*
X198309693Y-52768178D01*
X198305304Y-52767321D01*
X198300911Y-52766483D01*
X198296514Y-52765665D01*
X198292113Y-52764866D01*
X198287710Y-52764088D01*
X198283302Y-52763329D01*
X198278892Y-52762589D01*
X198274478Y-52761870D01*
X198270061Y-52761170D01*
X198265640Y-52760490D01*
X198261218Y-52759830D01*
X198256791Y-52759189D01*
X198252362Y-52758569D01*
X198247930Y-52757968D01*
X198243496Y-52757387D01*
X198239059Y-52756826D01*
X198234620Y-52756284D01*
X198230177Y-52755763D01*
X198225733Y-52755261D01*
X198221286Y-52754780D01*
X198216838Y-52754318D01*
X198212386Y-52753876D01*
X198207934Y-52753454D01*
X198203479Y-52753052D01*
X198199023Y-52752670D01*
X198194563Y-52752308D01*
X198190104Y-52751965D01*
X198185641Y-52751643D01*
X198181179Y-52751341D01*
X198176713Y-52751058D01*
X198172248Y-52750796D01*
X198167780Y-52750553D01*
X198163312Y-52750331D01*
X198158841Y-52750128D01*
X198154371Y-52749946D01*
X198149898Y-52749783D01*
X198145426Y-52749641D01*
X198140952Y-52749518D01*
X198136478Y-52749416D01*
X198132002Y-52749333D01*
X198127527Y-52749271D01*
X198123050Y-52749228D01*
X198115783Y-52749202D01*
M02*
