%TF.GenerationSoftware,KiCad,Pcbnew,9.0.7-1.fc43*%
%TF.CreationDate,2026-02-09T14:10:20+11:00*%
%TF.ProjectId,BB36-plate,42423336-2d70-46c6-9174-652e6b696361,rev?*%
%TF.SameCoordinates,Original*%
%TF.FileFunction,Profile,NP*%
%FSLAX46Y46*%
G04 Gerber Fmt 4.6, Leading zero omitted, Abs format (unit mm)*
G04 Created by KiCad (PCBNEW 9.0.7-1.fc43) date 2026-02-09 14:10:20*
%MOMM*%
%LPD*%
G01*
G04 APERTURE LIST*
%TA.AperFunction,Profile*%
%ADD10C,0.050000*%
%TD*%
%TA.AperFunction,Profile*%
%ADD11C,0.049999*%
%TD*%
%ADD12C,0.049999*%
G04 APERTURE END LIST*
D10*
X216483267Y-114080504D02*
G75*
G02*
X217037229Y-115354227I-382767J-923796D01*
G01*
X208963186Y-136970897D02*
X217037257Y-115354237D01*
X198142203Y-106480743D02*
G75*
G02*
X197524990Y-105556910I382797J923843D01*
G01*
X198142203Y-106480743D02*
X216483267Y-114080504D01*
D11*
X207684392Y-137560100D02*
X207684484Y-137559993D01*
X172965795Y-111538188D02*
X172965795Y-111538203D01*
X157300985Y-110224193D02*
X157300992Y-110224193D01*
X118904790Y-110134990D02*
X118904790Y-110135005D01*
X80391898Y-115938792D02*
X80392000Y-115938792D01*
X114218892Y-45923297D02*
X114218896Y-45923297D01*
X178965780Y-48624202D02*
X178965764Y-48624202D01*
X140204792Y-109027400D02*
X119027593Y-110120998D01*
D12*
X80803520Y-116584422D02*
X80810874Y-116589518D01*
X80818272Y-116594547D01*
X80825713Y-116599509D01*
X80833198Y-116604404D01*
X80840726Y-116609231D01*
X80848296Y-116613991D01*
X80855908Y-116618682D01*
X80863561Y-116623305D01*
X80871255Y-116627859D01*
X80878989Y-116632344D01*
X80886762Y-116636760D01*
X80894574Y-116641105D01*
X80902425Y-116645381D01*
X80910314Y-116649586D01*
X80918239Y-116653720D01*
X80926202Y-116657784D01*
X80934200Y-116661775D01*
X80942235Y-116665696D01*
X80950303Y-116669544D01*
X80958407Y-116673320D01*
X80966543Y-116677024D01*
X80974713Y-116680654D01*
X80982915Y-116684212D01*
X80991149Y-116687696D01*
X80999414Y-116691107D01*
X81007710Y-116694443D01*
X81016035Y-116697705D01*
X81024389Y-116700893D01*
X81032772Y-116704006D01*
X81041183Y-116707044D01*
X81049620Y-116710007D01*
X81058084Y-116712895D01*
X81066574Y-116715706D01*
X81075089Y-116718442D01*
X81083629Y-116721102D01*
X81092192Y-116723685D01*
X81100778Y-116726191D01*
X81109386Y-116728621D01*
X81118016Y-116730974D01*
X81126666Y-116733249D01*
X81135337Y-116735447D01*
X81144027Y-116737568D01*
X81152736Y-116739610D01*
X81161464Y-116741575D01*
X81165834Y-116742528D01*
X81170208Y-116743462D01*
X81174586Y-116744376D01*
X81178969Y-116745270D01*
X81183355Y-116746145D01*
X81187746Y-116747000D01*
X81192140Y-116747835D01*
X81196538Y-116748651D01*
X81200939Y-116749447D01*
X81205344Y-116750224D01*
X81209752Y-116750981D01*
X81214164Y-116751718D01*
X81218579Y-116752435D01*
X81222997Y-116753133D01*
X81227418Y-116753811D01*
X81231842Y-116754469D01*
X81236269Y-116755107D01*
X81240699Y-116755725D01*
X81245131Y-116756324D01*
X81249566Y-116756903D01*
X81254004Y-116757462D01*
X81258444Y-116758001D01*
X81262886Y-116758520D01*
X81267331Y-116759019D01*
X81271777Y-116759499D01*
X81276226Y-116759958D01*
X81280677Y-116760398D01*
X81285130Y-116760817D01*
X81289584Y-116761217D01*
X81294041Y-116761597D01*
X81298498Y-116761957D01*
X81302958Y-116762297D01*
X81307418Y-116762617D01*
X81311881Y-116762917D01*
X81316344Y-116763197D01*
X81320808Y-116763457D01*
X81325274Y-116763697D01*
X81329741Y-116763918D01*
X81334208Y-116764118D01*
X81338677Y-116764298D01*
X81343145Y-116764458D01*
X81347615Y-116764598D01*
X81352085Y-116764718D01*
X81356556Y-116764819D01*
X81361027Y-116764899D01*
X81365499Y-116764959D01*
X81369970Y-116764999D01*
X81374442Y-116765019D01*
X81378913Y-116765019D01*
X81383386Y-116764999D01*
X81387857Y-116764960D01*
X81392329Y-116764900D01*
X81396799Y-116764820D01*
X81401270Y-116764720D01*
X81405740Y-116764600D01*
X81410210Y-116764460D01*
X81414678Y-116764300D01*
X81419147Y-116764120D01*
X81423614Y-116763920D01*
X81428081Y-116763700D01*
X81432546Y-116763460D01*
X81437011Y-116763201D01*
X81441473Y-116762921D01*
X81445936Y-116762621D01*
X81450396Y-116762301D01*
X81454856Y-116761961D01*
X81459313Y-116761602D01*
X81463770Y-116761222D01*
X81468224Y-116760822D01*
X81472678Y-116760403D01*
X81477128Y-116759963D01*
X81481578Y-116759504D01*
X81486025Y-116759025D01*
X81490471Y-116758525D01*
X81494913Y-116758006D01*
X81499355Y-116757467D01*
X81503792Y-116756908D01*
X81508230Y-116756329D01*
X81512663Y-116755731D01*
X81517095Y-116755112D01*
X81521523Y-116754474D01*
X81525950Y-116753816D01*
X81530372Y-116753138D01*
X81534793Y-116752440D01*
X81539210Y-116751722D01*
X81543626Y-116750985D01*
X81551099Y-116749690D01*
X80392000Y-115938792D02*
X80393593Y-115947595D01*
X80395265Y-115956383D01*
X80397015Y-115965154D01*
X80398843Y-115973909D01*
X80400749Y-115982646D01*
X80402732Y-115991365D01*
X80404794Y-116000065D01*
X80406933Y-116008746D01*
X80409150Y-116017407D01*
X80411444Y-116026047D01*
X80413815Y-116034667D01*
X80416263Y-116043264D01*
X80418787Y-116051839D01*
X80421389Y-116060391D01*
X80424066Y-116068920D01*
X80426820Y-116077424D01*
X80429650Y-116085904D01*
X80432555Y-116094357D01*
X80435536Y-116102785D01*
X80438593Y-116111186D01*
X80441724Y-116119559D01*
X80444931Y-116127904D01*
X80448211Y-116136220D01*
X80451567Y-116144507D01*
X80454996Y-116152764D01*
X80458499Y-116160990D01*
X80462076Y-116169184D01*
X80465726Y-116177347D01*
X80469449Y-116185477D01*
X80473245Y-116193573D01*
X80477113Y-116201636D01*
X80481053Y-116209664D01*
X80485065Y-116217656D01*
X80489148Y-116225613D01*
X80493303Y-116233533D01*
X80497528Y-116241416D01*
X80501824Y-116249261D01*
X80506189Y-116257067D01*
X80510625Y-116264834D01*
X80515130Y-116272562D01*
X80519704Y-116280249D01*
X80524346Y-116287894D01*
X80529057Y-116295499D01*
X80533836Y-116303060D01*
X80536251Y-116306825D01*
X80538682Y-116310579D01*
X80541130Y-116314322D01*
X80543595Y-116318054D01*
X80546077Y-116321775D01*
X80548575Y-116325485D01*
X80551090Y-116329184D01*
X80553622Y-116332872D01*
X80556169Y-116336548D01*
X80558734Y-116340213D01*
X80561314Y-116343866D01*
X80563911Y-116347507D01*
X80566524Y-116351137D01*
X80569154Y-116354755D01*
X80571799Y-116358362D01*
X80574461Y-116361956D01*
X80577139Y-116365539D01*
X80579832Y-116369110D01*
X80582542Y-116372668D01*
X80585267Y-116376214D01*
X80588009Y-116379748D01*
X80590766Y-116383270D01*
X80593538Y-116386779D01*
X80596327Y-116390276D01*
X80599131Y-116393760D01*
X80601950Y-116397232D01*
X80604785Y-116400691D01*
X80607636Y-116404138D01*
X80610501Y-116407571D01*
X80613383Y-116410992D01*
X80616279Y-116414399D01*
X80619191Y-116417794D01*
X80622117Y-116421176D01*
X80625059Y-116424544D01*
X80628016Y-116427899D01*
X80630988Y-116431242D01*
X80633974Y-116434570D01*
X80636976Y-116437885D01*
X80639992Y-116441187D01*
X80643023Y-116444475D01*
X80646068Y-116447749D01*
X80649129Y-116451010D01*
X80652203Y-116454257D01*
X80655293Y-116457491D01*
X80658396Y-116460710D01*
X80661515Y-116463916D01*
X80664647Y-116467107D01*
X80667794Y-116470285D01*
X80670954Y-116473448D01*
X80674129Y-116476597D01*
X80677318Y-116479732D01*
X80680521Y-116482853D01*
X80683738Y-116485959D01*
X80686969Y-116489051D01*
X80690213Y-116492128D01*
X80693472Y-116495191D01*
X80696743Y-116498239D01*
X80700030Y-116501273D01*
X80703328Y-116504291D01*
X80706641Y-116507296D01*
X80709967Y-116510284D01*
X80713307Y-116513259D01*
X80716660Y-116516218D01*
X80720026Y-116519163D01*
X80723405Y-116522092D01*
X80726798Y-116525007D01*
X80730203Y-116527906D01*
X80733622Y-116530790D01*
X80737053Y-116533658D01*
X80740498Y-116536512D01*
X80743955Y-116539350D01*
X80747425Y-116542173D01*
X80750907Y-116544979D01*
X80754403Y-116547772D01*
X80757911Y-116550547D01*
X80761432Y-116553308D01*
X80764964Y-116556052D01*
X80768510Y-116558782D01*
X80772067Y-116561495D01*
X80775637Y-116564193D01*
X80779219Y-116566874D01*
X80782814Y-116569540D01*
X80786420Y-116572190D01*
X80790039Y-116574824D01*
X80793668Y-116577441D01*
X80797311Y-116580044D01*
X80803520Y-116584422D01*
X80391898Y-115938792D02*
X78773969Y-106770494D01*
X73539499Y-77108401D01*
D11*
X157230596Y-110221690D02*
X140326795Y-109028499D01*
X136965795Y-42775401D02*
X136965795Y-41224200D01*
X197525000Y-49625000D02*
X197525000Y-105556910D01*
X171965795Y-110224193D02*
X157300992Y-110224193D01*
D12*
X159358686Y-44931308D02*
X159365040Y-44937606D01*
X159371450Y-44943846D01*
X159377914Y-44950028D01*
X159384433Y-44956151D01*
X159391006Y-44962215D01*
X159397632Y-44968220D01*
X159404311Y-44974164D01*
X159411042Y-44980049D01*
X159417826Y-44985873D01*
X159424661Y-44991635D01*
X159431547Y-44997336D01*
X159438484Y-45002976D01*
X159445470Y-45008552D01*
X159452506Y-45014067D01*
X159459592Y-45019517D01*
X159466725Y-45024905D01*
X159473907Y-45030228D01*
X159481136Y-45035487D01*
X159488412Y-45040681D01*
X159495734Y-45045810D01*
X159503102Y-45050874D01*
X159510515Y-45055871D01*
X159517973Y-45060802D01*
X159525475Y-45065666D01*
X159533020Y-45070464D01*
X159540608Y-45075193D01*
X159548239Y-45079855D01*
X159555911Y-45084448D01*
X159563624Y-45088973D01*
X159571377Y-45093429D01*
X159579171Y-45097816D01*
X159587003Y-45102132D01*
X159594874Y-45106379D01*
X159602783Y-45110555D01*
X159610729Y-45114661D01*
X159618712Y-45118695D01*
X159626731Y-45122658D01*
X159634785Y-45126549D01*
X159642874Y-45130368D01*
X159650997Y-45134115D01*
X159659153Y-45137789D01*
X159667342Y-45141390D01*
X159675563Y-45144918D01*
X159683815Y-45148372D01*
X159687952Y-45150071D01*
X159692098Y-45151752D01*
X159696250Y-45153414D01*
X159700410Y-45155058D01*
X159704578Y-45156683D01*
X159708753Y-45158289D01*
X159712934Y-45159877D01*
X159717123Y-45161446D01*
X159721319Y-45162997D01*
X159725522Y-45164528D01*
X159729731Y-45166041D01*
X159733948Y-45167535D01*
X159738170Y-45169010D01*
X159742400Y-45170466D01*
X159746636Y-45171903D01*
X159750878Y-45173321D01*
X159755126Y-45174720D01*
X159759381Y-45176101D01*
X159763642Y-45177462D01*
X159767909Y-45178804D01*
X159772182Y-45180127D01*
X159776460Y-45181431D01*
X159780745Y-45182715D01*
X159785035Y-45183981D01*
X159789330Y-45185227D01*
X159793632Y-45186454D01*
X159797938Y-45187662D01*
X159802250Y-45188850D01*
X159806567Y-45190020D01*
X159810890Y-45191170D01*
X159815217Y-45192300D01*
X159819550Y-45193411D01*
X159823887Y-45194503D01*
X159828229Y-45195575D01*
X159832576Y-45196628D01*
X159836927Y-45197662D01*
X159841283Y-45198675D01*
X159845644Y-45199670D01*
X159850008Y-45200645D01*
X159854378Y-45201600D01*
X159858751Y-45202536D01*
X159863129Y-45203452D01*
X159867510Y-45204349D01*
X159871895Y-45205226D01*
X159876284Y-45206083D01*
X159880678Y-45206921D01*
X159885074Y-45207739D01*
X159889475Y-45208538D01*
X159893878Y-45209316D01*
X159898286Y-45210075D01*
X159902696Y-45210814D01*
X159907111Y-45211534D01*
X159911527Y-45212234D01*
X159915948Y-45212914D01*
X159920370Y-45213574D01*
X159924797Y-45214214D01*
X159929226Y-45214835D01*
X159933658Y-45215436D01*
X159938092Y-45216017D01*
X159942529Y-45216578D01*
X159946968Y-45217119D01*
X159951411Y-45217640D01*
X159955854Y-45218142D01*
X159960302Y-45218624D01*
X159964750Y-45219085D01*
X159969201Y-45219527D01*
X159973653Y-45219949D01*
X159978109Y-45220351D01*
X159982565Y-45220733D01*
X159987024Y-45221095D01*
X159991484Y-45221437D01*
X159995946Y-45221760D01*
X160000409Y-45222062D01*
X160004874Y-45222344D01*
X160009340Y-45222607D01*
X160013808Y-45222849D01*
X160018276Y-45223072D01*
X160022746Y-45223274D01*
X160027216Y-45223456D01*
X160031689Y-45223619D01*
X160036161Y-45223761D01*
X160040636Y-45223884D01*
X160045109Y-45223986D01*
X160049585Y-45224069D01*
X160054060Y-45224131D01*
X160058537Y-45224174D01*
X160065793Y-45224200D01*
X159065793Y-44224200D02*
X159065833Y-44233147D01*
X159065953Y-44242091D01*
X159066153Y-44251033D01*
X159066432Y-44259973D01*
X159066792Y-44268908D01*
X159067231Y-44277840D01*
X159067750Y-44286766D01*
X159068349Y-44295687D01*
X159069028Y-44304602D01*
X159069786Y-44313510D01*
X159070624Y-44322410D01*
X159071542Y-44331303D01*
X159072539Y-44340186D01*
X159073615Y-44349061D01*
X159074771Y-44357925D01*
X159076005Y-44366779D01*
X159077320Y-44375622D01*
X159078713Y-44384452D01*
X159080185Y-44393270D01*
X159081736Y-44402074D01*
X159083365Y-44410865D01*
X159085073Y-44419640D01*
X159086860Y-44428401D01*
X159088725Y-44437145D01*
X159090668Y-44445872D01*
X159092689Y-44454582D01*
X159094789Y-44463274D01*
X159096965Y-44471947D01*
X159099220Y-44480601D01*
X159101552Y-44489234D01*
X159103961Y-44497847D01*
X159106447Y-44506438D01*
X159109009Y-44515006D01*
X159111649Y-44523552D01*
X159114365Y-44532074D01*
X159117157Y-44540571D01*
X159120024Y-44549044D01*
X159122968Y-44557490D01*
X159125987Y-44565911D01*
X159129082Y-44574304D01*
X159132251Y-44582669D01*
X159135495Y-44591006D01*
X159138814Y-44599313D01*
X159142207Y-44607591D01*
X159143931Y-44611718D01*
X159145673Y-44615838D01*
X159147434Y-44619949D01*
X159149214Y-44624053D01*
X159151011Y-44628149D01*
X159152827Y-44632237D01*
X159154661Y-44636317D01*
X159156514Y-44640388D01*
X159158385Y-44644451D01*
X159160274Y-44648506D01*
X159162180Y-44652552D01*
X159164105Y-44656590D01*
X159166048Y-44660619D01*
X159168010Y-44664639D01*
X159169988Y-44668651D01*
X159171985Y-44672653D01*
X159174000Y-44676647D01*
X159176033Y-44680631D01*
X159178083Y-44684607D01*
X159180151Y-44688573D01*
X159182237Y-44692530D01*
X159184341Y-44696477D01*
X159186462Y-44700415D01*
X159188600Y-44704344D01*
X159190757Y-44708262D01*
X159192930Y-44712171D01*
X159195121Y-44716070D01*
X159197330Y-44719960D01*
X159199556Y-44723839D01*
X159201799Y-44727709D01*
X159204060Y-44731568D01*
X159206338Y-44735418D01*
X159208632Y-44739256D01*
X159210945Y-44743085D01*
X159213274Y-44746903D01*
X159215620Y-44750711D01*
X159217983Y-44754508D01*
X159220363Y-44758294D01*
X159222760Y-44762070D01*
X159225174Y-44765835D01*
X159227605Y-44769589D01*
X159230052Y-44773332D01*
X159232516Y-44777064D01*
X159234997Y-44780786D01*
X159237494Y-44784495D01*
X159240009Y-44788194D01*
X159242539Y-44791881D01*
X159245086Y-44795558D01*
X159247649Y-44799222D01*
X159250229Y-44802876D01*
X159252825Y-44806517D01*
X159255437Y-44810147D01*
X159258066Y-44813765D01*
X159260711Y-44817371D01*
X159263371Y-44820965D01*
X159266048Y-44824548D01*
X159268741Y-44828119D01*
X159271450Y-44831678D01*
X159274175Y-44835223D01*
X159276916Y-44838758D01*
X159279672Y-44842279D01*
X159282444Y-44845790D01*
X159285232Y-44849286D01*
X159288036Y-44852772D01*
X159290855Y-44856243D01*
X159293690Y-44859703D01*
X159296540Y-44863150D01*
X159299406Y-44866585D01*
X159302287Y-44870006D01*
X159305184Y-44873415D01*
X159308095Y-44876810D01*
X159311022Y-44880193D01*
X159313964Y-44883563D01*
X159316922Y-44886920D01*
X159319894Y-44890263D01*
X159322882Y-44893594D01*
X159325884Y-44896910D01*
X159328902Y-44900215D01*
X159331934Y-44903504D01*
X159334982Y-44906782D01*
X159338043Y-44910045D01*
X159341120Y-44913295D01*
X159344211Y-44916531D01*
X159347318Y-44919754D01*
X159350438Y-44922963D01*
X159353574Y-44926158D01*
X159358686Y-44931308D01*
D11*
X118904790Y-110134990D02*
X81551099Y-116749690D01*
D12*
X115164991Y-44871600D02*
X125625876Y-44321049D01*
X136018392Y-43774097D01*
X197232107Y-48917892D02*
X197225753Y-48911594D01*
X197219344Y-48905355D01*
X197212880Y-48899173D01*
X197206362Y-48893050D01*
X197199790Y-48886987D01*
X197193165Y-48880982D01*
X197186486Y-48875038D01*
X197179755Y-48869153D01*
X197172972Y-48863330D01*
X197166138Y-48857567D01*
X197159252Y-48851866D01*
X197152316Y-48846227D01*
X197145329Y-48840651D01*
X197138294Y-48835137D01*
X197131209Y-48829686D01*
X197124076Y-48824299D01*
X197116894Y-48818976D01*
X197109666Y-48813717D01*
X197102390Y-48808523D01*
X197095068Y-48803394D01*
X197087700Y-48798331D01*
X197080288Y-48793333D01*
X197072830Y-48788402D01*
X197065328Y-48783538D01*
X197057783Y-48778741D01*
X197050196Y-48774011D01*
X197042565Y-48769350D01*
X197034894Y-48764756D01*
X197027181Y-48760231D01*
X197019428Y-48755776D01*
X197011634Y-48751389D01*
X197003802Y-48747072D01*
X196995931Y-48742826D01*
X196988022Y-48738649D01*
X196980076Y-48734544D01*
X196972094Y-48730509D01*
X196964075Y-48726546D01*
X196956021Y-48722655D01*
X196947932Y-48718836D01*
X196939809Y-48715089D01*
X196931653Y-48711415D01*
X196923464Y-48707814D01*
X196915244Y-48704287D01*
X196906992Y-48700832D01*
X196902854Y-48699133D01*
X196898709Y-48697452D01*
X196894556Y-48695790D01*
X196890396Y-48694146D01*
X196886229Y-48692521D01*
X196882054Y-48690915D01*
X196877872Y-48689327D01*
X196873683Y-48687758D01*
X196869488Y-48686207D01*
X196865285Y-48684676D01*
X196861075Y-48683163D01*
X196856859Y-48681669D01*
X196852636Y-48680194D01*
X196848407Y-48678738D01*
X196844171Y-48677301D01*
X196839928Y-48675883D01*
X196835680Y-48674483D01*
X196831425Y-48673103D01*
X196827164Y-48671742D01*
X196822897Y-48670400D01*
X196818625Y-48669077D01*
X196814346Y-48667773D01*
X196810062Y-48666488D01*
X196805771Y-48665223D01*
X196801476Y-48663976D01*
X196797174Y-48662749D01*
X196792868Y-48661541D01*
X196788556Y-48660353D01*
X196784239Y-48659183D01*
X196779916Y-48658033D01*
X196775589Y-48656903D01*
X196771256Y-48655792D01*
X196766919Y-48654700D01*
X196762577Y-48653627D01*
X196758230Y-48652575D01*
X196753878Y-48651541D01*
X196749523Y-48650527D01*
X196745162Y-48649533D01*
X196740797Y-48648558D01*
X196736428Y-48647602D01*
X196732055Y-48646666D01*
X196727677Y-48645750D01*
X196723296Y-48644853D01*
X196718910Y-48643976D01*
X196714521Y-48643119D01*
X196710128Y-48642281D01*
X196705731Y-48641463D01*
X196701330Y-48640664D01*
X196696927Y-48639886D01*
X196692519Y-48639127D01*
X196688109Y-48638387D01*
X196683695Y-48637668D01*
X196679278Y-48636968D01*
X196674857Y-48636288D01*
X196670435Y-48635628D01*
X196666008Y-48634987D01*
X196661579Y-48634367D01*
X196657147Y-48633766D01*
X196652713Y-48633185D01*
X196648276Y-48632624D01*
X196643837Y-48632082D01*
X196639394Y-48631561D01*
X196634950Y-48631059D01*
X196630503Y-48630578D01*
X196626055Y-48630116D01*
X196621603Y-48629674D01*
X196617151Y-48629252D01*
X196612696Y-48628850D01*
X196608240Y-48628468D01*
X196603780Y-48628106D01*
X196599321Y-48627763D01*
X196594858Y-48627441D01*
X196590396Y-48627139D01*
X196585930Y-48626856D01*
X196581465Y-48626594D01*
X196576997Y-48626351D01*
X196572529Y-48626129D01*
X196568058Y-48625926D01*
X196563588Y-48625744D01*
X196559115Y-48625581D01*
X196554643Y-48625439D01*
X196550169Y-48625316D01*
X196545695Y-48625214D01*
X196541219Y-48625131D01*
X196536744Y-48625069D01*
X196532267Y-48625026D01*
X196525000Y-48625000D01*
X197525000Y-49625000D02*
X197524960Y-49616054D01*
X197524840Y-49607109D01*
X197524640Y-49598167D01*
X197524361Y-49589228D01*
X197524001Y-49580293D01*
X197523562Y-49571362D01*
X197523043Y-49562436D01*
X197522444Y-49553515D01*
X197521765Y-49544601D01*
X197521007Y-49535693D01*
X197520169Y-49526793D01*
X197519251Y-49517900D01*
X197518254Y-49509017D01*
X197517178Y-49500142D01*
X197516022Y-49491278D01*
X197514787Y-49482424D01*
X197513473Y-49473582D01*
X197512080Y-49464752D01*
X197510608Y-49455934D01*
X197509057Y-49447130D01*
X197507428Y-49438340D01*
X197505720Y-49429564D01*
X197503933Y-49420804D01*
X197502068Y-49412060D01*
X197500125Y-49403332D01*
X197498103Y-49394622D01*
X197496004Y-49385930D01*
X197493827Y-49377257D01*
X197491573Y-49368604D01*
X197489241Y-49359970D01*
X197486832Y-49351358D01*
X197484346Y-49342767D01*
X197481783Y-49334198D01*
X197479144Y-49325653D01*
X197476428Y-49317131D01*
X197473636Y-49308633D01*
X197470768Y-49300160D01*
X197467824Y-49291714D01*
X197464805Y-49283293D01*
X197461710Y-49274900D01*
X197458541Y-49266535D01*
X197455297Y-49258198D01*
X197451978Y-49249890D01*
X197448585Y-49241613D01*
X197446861Y-49237485D01*
X197445118Y-49233366D01*
X197443357Y-49229254D01*
X197441578Y-49225150D01*
X197439780Y-49221054D01*
X197437964Y-49216966D01*
X197436130Y-49212886D01*
X197434277Y-49208814D01*
X197432407Y-49204751D01*
X197430518Y-49200696D01*
X197428611Y-49196650D01*
X197426686Y-49192612D01*
X197424743Y-49188583D01*
X197422782Y-49184563D01*
X197420803Y-49180551D01*
X197418806Y-49176549D01*
X197416791Y-49172555D01*
X197414758Y-49168570D01*
X197412708Y-49164595D01*
X197410639Y-49160629D01*
X197408554Y-49156672D01*
X197406450Y-49152724D01*
X197404329Y-49148786D01*
X197402190Y-49144858D01*
X197400034Y-49140939D01*
X197397860Y-49137030D01*
X197395669Y-49133130D01*
X197393460Y-49129241D01*
X197391234Y-49125361D01*
X197388991Y-49121491D01*
X197386730Y-49117632D01*
X197384452Y-49113783D01*
X197382158Y-49109944D01*
X197379845Y-49106115D01*
X197377516Y-49102297D01*
X197375170Y-49098489D01*
X197372807Y-49094692D01*
X197370426Y-49090905D01*
X197368030Y-49087130D01*
X197365615Y-49083364D01*
X197363185Y-49079610D01*
X197360737Y-49075867D01*
X197358273Y-49072135D01*
X197355792Y-49068413D01*
X197353295Y-49064703D01*
X197350781Y-49061004D01*
X197348250Y-49057317D01*
X197345703Y-49053640D01*
X197343140Y-49049976D01*
X197340560Y-49046322D01*
X197337964Y-49042681D01*
X197335351Y-49039051D01*
X197332723Y-49035433D01*
X197330078Y-49031826D01*
X197327417Y-49028232D01*
X197324740Y-49024649D01*
X197322047Y-49021079D01*
X197319338Y-49017519D01*
X197316614Y-49013973D01*
X197313872Y-49010439D01*
X197311116Y-49006917D01*
X197308344Y-49003407D01*
X197305556Y-48999910D01*
X197302752Y-48996425D01*
X197299933Y-48992953D01*
X197297098Y-48989493D01*
X197294248Y-48986046D01*
X197291382Y-48982611D01*
X197288501Y-48979190D01*
X197285604Y-48975781D01*
X197282692Y-48972385D01*
X197279765Y-48969002D01*
X197276823Y-48965632D01*
X197273865Y-48962275D01*
X197270893Y-48958932D01*
X197267905Y-48955601D01*
X197264903Y-48952284D01*
X197261885Y-48948980D01*
X197258853Y-48945690D01*
X197255805Y-48942412D01*
X197252744Y-48939149D01*
X197249666Y-48935899D01*
X197246575Y-48932663D01*
X197243469Y-48929439D01*
X197240349Y-48926231D01*
X197237213Y-48923035D01*
X197232107Y-48917892D01*
D11*
X160065793Y-45224200D02*
X176965795Y-45224200D01*
D12*
X158772901Y-40517093D02*
X158766547Y-40510795D01*
X158760137Y-40504555D01*
X158753673Y-40498373D01*
X158747154Y-40492250D01*
X158740581Y-40486186D01*
X158733955Y-40480181D01*
X158727276Y-40474237D01*
X158720545Y-40468352D01*
X158713761Y-40462528D01*
X158706926Y-40456766D01*
X158700040Y-40451064D01*
X158693103Y-40445425D01*
X158686117Y-40439848D01*
X158679080Y-40434334D01*
X158671995Y-40428883D01*
X158664862Y-40423496D01*
X158657680Y-40418173D01*
X158650451Y-40412914D01*
X158643175Y-40407720D01*
X158635853Y-40402591D01*
X158628485Y-40397527D01*
X158621071Y-40392530D01*
X158613614Y-40387599D01*
X158606112Y-40382734D01*
X158598566Y-40377937D01*
X158590978Y-40373208D01*
X158583348Y-40368546D01*
X158575676Y-40363952D01*
X158567963Y-40359427D01*
X158560209Y-40354972D01*
X158552416Y-40350585D01*
X158544583Y-40346268D01*
X158536712Y-40342022D01*
X158528803Y-40337845D01*
X158520857Y-40333740D01*
X158512874Y-40329705D01*
X158504855Y-40325742D01*
X158496801Y-40321851D01*
X158488712Y-40318032D01*
X158480590Y-40314285D01*
X158472433Y-40310611D01*
X158464245Y-40307010D01*
X158456024Y-40303483D01*
X158447771Y-40300029D01*
X158443634Y-40298329D01*
X158439489Y-40296648D01*
X158435336Y-40294986D01*
X158431176Y-40293342D01*
X158427008Y-40291717D01*
X158422834Y-40290111D01*
X158418652Y-40288523D01*
X158414463Y-40286954D01*
X158410267Y-40285404D01*
X158406065Y-40283872D01*
X158401855Y-40282360D01*
X158397639Y-40280866D01*
X158393416Y-40279391D01*
X158389186Y-40277935D01*
X158384951Y-40276497D01*
X158380708Y-40275079D01*
X158376460Y-40273680D01*
X158372205Y-40272300D01*
X158367944Y-40270939D01*
X158363677Y-40269597D01*
X158359405Y-40268274D01*
X158355126Y-40266970D01*
X158350842Y-40265685D01*
X158346551Y-40264419D01*
X158342256Y-40263173D01*
X158337954Y-40261946D01*
X158333648Y-40260738D01*
X158329336Y-40259550D01*
X158325019Y-40258381D01*
X158320696Y-40257231D01*
X158316369Y-40256100D01*
X158312036Y-40254989D01*
X158307699Y-40253897D01*
X158303357Y-40252825D01*
X158299011Y-40251772D01*
X158294659Y-40250739D01*
X158290303Y-40249725D01*
X158285942Y-40248730D01*
X158281578Y-40247755D01*
X158277208Y-40246800D01*
X158272835Y-40245864D01*
X158268458Y-40244948D01*
X158264077Y-40244051D01*
X158259691Y-40243174D01*
X158255302Y-40242317D01*
X158250908Y-40241479D01*
X158246512Y-40240661D01*
X158242111Y-40239863D01*
X158237708Y-40239084D01*
X158233300Y-40238325D01*
X158228890Y-40237586D01*
X158224476Y-40236866D01*
X158220059Y-40236166D01*
X158215638Y-40235486D01*
X158211216Y-40234826D01*
X158206789Y-40234186D01*
X158202361Y-40233565D01*
X158197928Y-40232964D01*
X158193494Y-40232383D01*
X158189057Y-40231822D01*
X158184618Y-40231281D01*
X158180175Y-40230760D01*
X158175732Y-40230258D01*
X158171285Y-40229777D01*
X158166836Y-40229315D01*
X158162385Y-40228873D01*
X158157933Y-40228451D01*
X158153477Y-40228049D01*
X158149021Y-40227667D01*
X158144562Y-40227305D01*
X158140103Y-40226963D01*
X158135640Y-40226640D01*
X158131178Y-40226338D01*
X158126712Y-40226056D01*
X158122247Y-40225793D01*
X158117779Y-40225551D01*
X158113311Y-40225328D01*
X158108840Y-40225126D01*
X158104370Y-40224944D01*
X158099897Y-40224781D01*
X158095425Y-40224639D01*
X158090951Y-40224516D01*
X158086477Y-40224414D01*
X158082002Y-40224331D01*
X158077527Y-40224269D01*
X158073050Y-40224226D01*
X158065793Y-40224200D01*
X159065793Y-41224200D02*
X159065753Y-41215253D01*
X159065633Y-41206309D01*
X159065433Y-41197366D01*
X159065154Y-41188427D01*
X159064794Y-41179492D01*
X159064355Y-41170560D01*
X159063836Y-41161634D01*
X159063237Y-41152713D01*
X159062558Y-41143798D01*
X159061800Y-41134890D01*
X159060962Y-41125989D01*
X159060044Y-41117097D01*
X159059047Y-41108213D01*
X159057971Y-41099339D01*
X159056815Y-41090474D01*
X159055581Y-41081620D01*
X159054266Y-41072778D01*
X159052873Y-41063948D01*
X159051401Y-41055130D01*
X159049850Y-41046325D01*
X159048221Y-41037535D01*
X159046513Y-41028759D01*
X159044726Y-41019999D01*
X159042861Y-41011255D01*
X159040918Y-41002527D01*
X159038897Y-40993817D01*
X159036798Y-40985125D01*
X159034621Y-40976452D01*
X159032366Y-40967799D01*
X159030034Y-40959165D01*
X159027626Y-40950553D01*
X159025140Y-40941962D01*
X159022577Y-40933393D01*
X159019937Y-40924848D01*
X159017222Y-40916326D01*
X159014430Y-40907828D01*
X159011562Y-40899356D01*
X159008618Y-40890909D01*
X159005599Y-40882489D01*
X159002504Y-40874096D01*
X158999335Y-40865731D01*
X158996091Y-40857394D01*
X158992772Y-40849087D01*
X158989380Y-40840809D01*
X158987656Y-40836682D01*
X158985913Y-40832562D01*
X158984152Y-40828450D01*
X158982373Y-40824346D01*
X158980575Y-40820251D01*
X158978759Y-40816163D01*
X158976925Y-40812083D01*
X158975072Y-40808012D01*
X158973202Y-40803948D01*
X158971313Y-40799894D01*
X158969406Y-40795848D01*
X158967481Y-40791810D01*
X158965538Y-40787781D01*
X158963577Y-40783760D01*
X158961598Y-40779749D01*
X158959601Y-40775747D01*
X158957586Y-40771753D01*
X158955554Y-40767768D01*
X158953503Y-40763793D01*
X158951435Y-40759827D01*
X158949349Y-40755870D01*
X158947246Y-40751923D01*
X158945125Y-40747985D01*
X158942986Y-40744056D01*
X158940830Y-40740138D01*
X158938656Y-40736229D01*
X158936465Y-40732330D01*
X158934256Y-40728440D01*
X158932030Y-40724561D01*
X158929787Y-40720691D01*
X158927527Y-40716832D01*
X158925249Y-40712983D01*
X158922954Y-40709144D01*
X158920642Y-40705315D01*
X158918313Y-40701497D01*
X158915966Y-40697689D01*
X158913603Y-40693893D01*
X158911223Y-40690106D01*
X158908826Y-40686330D01*
X158906412Y-40682565D01*
X158903982Y-40678811D01*
X158901534Y-40675068D01*
X158899070Y-40671336D01*
X158896589Y-40667615D01*
X158894092Y-40663905D01*
X158891578Y-40660206D01*
X158889048Y-40656519D01*
X158886500Y-40652842D01*
X158883937Y-40649178D01*
X158881357Y-40645525D01*
X158878762Y-40641884D01*
X158876149Y-40638253D01*
X158873521Y-40634636D01*
X158870876Y-40631029D01*
X158868215Y-40627435D01*
X158865538Y-40623852D01*
X158862846Y-40620282D01*
X158860136Y-40616723D01*
X158857412Y-40613177D01*
X158854671Y-40609642D01*
X158851915Y-40606121D01*
X158849142Y-40602611D01*
X158846355Y-40599114D01*
X158843551Y-40595629D01*
X158840732Y-40592157D01*
X158837897Y-40588697D01*
X158835047Y-40585251D01*
X158832181Y-40581816D01*
X158829300Y-40578395D01*
X158826403Y-40574986D01*
X158823492Y-40571590D01*
X158820564Y-40568207D01*
X158817622Y-40564838D01*
X158814664Y-40561481D01*
X158811692Y-40558138D01*
X158808704Y-40554807D01*
X158805702Y-40551490D01*
X158802684Y-40548186D01*
X158799653Y-40544896D01*
X158796605Y-40541619D01*
X158793543Y-40538356D01*
X158790466Y-40535105D01*
X158787375Y-40531869D01*
X158784269Y-40528646D01*
X158781149Y-40525438D01*
X158778013Y-40522242D01*
X158772901Y-40517093D01*
X170511091Y-126566386D02*
X170509588Y-126575292D01*
X170508166Y-126584202D01*
X170506824Y-126593116D01*
X170505562Y-126602034D01*
X170504380Y-126610955D01*
X170503279Y-126619879D01*
X170502258Y-126628805D01*
X170501316Y-126637734D01*
X170500455Y-126646664D01*
X170499675Y-126655596D01*
X170498974Y-126664529D01*
X170498353Y-126673462D01*
X170497812Y-126682396D01*
X170497352Y-126691329D01*
X170496971Y-126700262D01*
X170496671Y-126709194D01*
X170496450Y-126718124D01*
X170496310Y-126727052D01*
X170496249Y-126735978D01*
X170496268Y-126744901D01*
X170496368Y-126753820D01*
X170496547Y-126762736D01*
X170496805Y-126771648D01*
X170497144Y-126780554D01*
X170497563Y-126789456D01*
X170498061Y-126798352D01*
X170498639Y-126807242D01*
X170499296Y-126816125D01*
X170500033Y-126825001D01*
X170500850Y-126833869D01*
X170501746Y-126842728D01*
X170502721Y-126851579D01*
X170503776Y-126860421D01*
X170504911Y-126869253D01*
X170506124Y-126878074D01*
X170507417Y-126886884D01*
X170508788Y-126895683D01*
X170510239Y-126904469D01*
X170511769Y-126913243D01*
X170513377Y-126922004D01*
X170515064Y-126930750D01*
X170516830Y-126939483D01*
X170518674Y-126948200D01*
X170520597Y-126956901D01*
X170522597Y-126965586D01*
X170524676Y-126974254D01*
X170526833Y-126982904D01*
X170529068Y-126991537D01*
X170531381Y-127000150D01*
X170533771Y-127008744D01*
X170536238Y-127017318D01*
X170538783Y-127025871D01*
X170541404Y-127034403D01*
X170544103Y-127042912D01*
X170546878Y-127051399D01*
X170549730Y-127059862D01*
X170552657Y-127068302D01*
X170555661Y-127076716D01*
X170558741Y-127085105D01*
X170561896Y-127093468D01*
X170565127Y-127101805D01*
X170568433Y-127110113D01*
X170571813Y-127118394D01*
X170575268Y-127126646D01*
X170578798Y-127134868D01*
X170582401Y-127143059D01*
X170586079Y-127151220D01*
X170589829Y-127159350D01*
X170593653Y-127167447D01*
X170597550Y-127175510D01*
X170601519Y-127183540D01*
X170605560Y-127191536D01*
X170609674Y-127199497D01*
X170613858Y-127207421D01*
X170618114Y-127215309D01*
X170622441Y-127223160D01*
X170626838Y-127230973D01*
X170631305Y-127238748D01*
X170635842Y-127246483D01*
X170640448Y-127254178D01*
X170645122Y-127261832D01*
X170649866Y-127269445D01*
X170654677Y-127277016D01*
X170659556Y-127284544D01*
X170664502Y-127292028D01*
X170669515Y-127299469D01*
X170674594Y-127306865D01*
X170679739Y-127314215D01*
X170682336Y-127317873D01*
X170684950Y-127321519D01*
X170687579Y-127325154D01*
X170690225Y-127328777D01*
X170692887Y-127332388D01*
X170695565Y-127335987D01*
X170698259Y-127339574D01*
X170700968Y-127343149D01*
X170703694Y-127346712D01*
X170706436Y-127350262D01*
X170709193Y-127353801D01*
X170711966Y-127357326D01*
X170714754Y-127360840D01*
X170717559Y-127364341D01*
X170720378Y-127367828D01*
X170723213Y-127371304D01*
X170726064Y-127374766D01*
X170728929Y-127378216D01*
X170731810Y-127381653D01*
X170734707Y-127385077D01*
X170737618Y-127388487D01*
X170740544Y-127391885D01*
X170743485Y-127395269D01*
X170746442Y-127398640D01*
X170749413Y-127401997D01*
X170752399Y-127405341D01*
X170755399Y-127408671D01*
X170758415Y-127411988D01*
X170761444Y-127415291D01*
X170764489Y-127418581D01*
X170767548Y-127421856D01*
X170770621Y-127425118D01*
X170773708Y-127428365D01*
X170776810Y-127431599D01*
X170779926Y-127434818D01*
X170783056Y-127438024D01*
X170786200Y-127441214D01*
X170789359Y-127444392D01*
X170792530Y-127447553D01*
X170795717Y-127450702D01*
X170798916Y-127453835D01*
X170802130Y-127456954D01*
X170805356Y-127460057D01*
X170808597Y-127463147D01*
X170811851Y-127466221D01*
X170815119Y-127469282D01*
X170818399Y-127472326D01*
X170821693Y-127475356D01*
X170825000Y-127478371D01*
X170828321Y-127481371D01*
X170831654Y-127484355D01*
X170835001Y-127487325D01*
X170838360Y-127490278D01*
X170841733Y-127493218D01*
X170845118Y-127496141D01*
X170848516Y-127499049D01*
X170851926Y-127501941D01*
X170855350Y-127504818D01*
X170858785Y-127507679D01*
X170862233Y-127510525D01*
X170865693Y-127513354D01*
X170869166Y-127516169D01*
X170872651Y-127518966D01*
X170876149Y-127521749D01*
X170879657Y-127524515D01*
X170883179Y-127527266D01*
X170886711Y-127529999D01*
X170890257Y-127532718D01*
X170893813Y-127535419D01*
X170897383Y-127538106D01*
X170900962Y-127540775D01*
X170904555Y-127543428D01*
X170908157Y-127546064D01*
X170911773Y-127548685D01*
X170915398Y-127551289D01*
X170919037Y-127553877D01*
X170922685Y-127556447D01*
X170926346Y-127559002D01*
X170930016Y-127561539D01*
X170933699Y-127564060D01*
X170937391Y-127566564D01*
X170941096Y-127569051D01*
X170944810Y-127571521D01*
X170948536Y-127573976D01*
X170952272Y-127576412D01*
X170956020Y-127578832D01*
X170959777Y-127581234D01*
X170963545Y-127583620D01*
X170967323Y-127585988D01*
X170971113Y-127588340D01*
X170974911Y-127590674D01*
X170978721Y-127592992D01*
X170982540Y-127595291D01*
X170986370Y-127597574D01*
X170990209Y-127599839D01*
X170994060Y-127602087D01*
X170997918Y-127604317D01*
X171001788Y-127606531D01*
X171005667Y-127608726D01*
X171009556Y-127610904D01*
X171013454Y-127613064D01*
X171017363Y-127615208D01*
X171021279Y-127617332D01*
X171025207Y-127619441D01*
X171029143Y-127621530D01*
X171033089Y-127623603D01*
X171037043Y-127625657D01*
X171041008Y-127627694D01*
X171044981Y-127629712D01*
X171048964Y-127631714D01*
X171052954Y-127633696D01*
X171056955Y-127635662D01*
X171060963Y-127637609D01*
X171064982Y-127639539D01*
X171069008Y-127641449D01*
X171073045Y-127643343D01*
X171077088Y-127645218D01*
X171081141Y-127647075D01*
X171085201Y-127648914D01*
X171089272Y-127650735D01*
X171093349Y-127652537D01*
X171097436Y-127654322D01*
X171101530Y-127656088D01*
X171105634Y-127657836D01*
X171109744Y-127659566D01*
X171113864Y-127661277D01*
X171117990Y-127662970D01*
X171122126Y-127664645D01*
X171126268Y-127666301D01*
X171130420Y-127667939D01*
X171134578Y-127669558D01*
X171138745Y-127671160D01*
X171142919Y-127672742D01*
X171147102Y-127674306D01*
X171151290Y-127675851D01*
X171155488Y-127677378D01*
X171159692Y-127678886D01*
X171163905Y-127680376D01*
X171168123Y-127681847D01*
X171172351Y-127683300D01*
X171176584Y-127684733D01*
X171180826Y-127686149D01*
X171185074Y-127687545D01*
X171189331Y-127688923D01*
X171193592Y-127690281D01*
X171197863Y-127691622D01*
X171202139Y-127692943D01*
X171206423Y-127694245D01*
X171210713Y-127695529D01*
X171215011Y-127696794D01*
X171219314Y-127698039D01*
X171223626Y-127699267D01*
X171227943Y-127700474D01*
X171232268Y-127701664D01*
X171236598Y-127702834D01*
X171240936Y-127703985D01*
X171245279Y-127705117D01*
X171249631Y-127706231D01*
X171253986Y-127707325D01*
X171258350Y-127708400D01*
X171262719Y-127709456D01*
X171267096Y-127710493D01*
X171271476Y-127711511D01*
X171275866Y-127712510D01*
X171280259Y-127713489D01*
X171284660Y-127714450D01*
X171289065Y-127715391D01*
X171293479Y-127716313D01*
X171297896Y-127717216D01*
X171302322Y-127718100D01*
X171306751Y-127718964D01*
X171311188Y-127719809D01*
X171315629Y-127720635D01*
X171320078Y-127721442D01*
X171323194Y-127721995D01*
X114294496Y-68878398D02*
X114303358Y-68876790D01*
X114312198Y-68875104D01*
X114321017Y-68873342D01*
X114329813Y-68871502D01*
X114338587Y-68869585D01*
X114347338Y-68867592D01*
X114356065Y-68865522D01*
X114364769Y-68863376D01*
X114373448Y-68861153D01*
X114382103Y-68858854D01*
X114390733Y-68856479D01*
X114399337Y-68854028D01*
X114407916Y-68851502D01*
X114416468Y-68848900D01*
X114424994Y-68846222D01*
X114433492Y-68843470D01*
X114441963Y-68840642D01*
X114450406Y-68837739D01*
X114458821Y-68834762D01*
X114467206Y-68831710D01*
X114475562Y-68828584D01*
X114483889Y-68825384D01*
X114492184Y-68822109D01*
X114500449Y-68818761D01*
X114508683Y-68815340D01*
X114516885Y-68811845D01*
X114525055Y-68808277D01*
X114533191Y-68804636D01*
X114541295Y-68800923D01*
X114549365Y-68797137D01*
X114557400Y-68793279D01*
X114565400Y-68789349D01*
X114573365Y-68785347D01*
X114581294Y-68781274D01*
X114589187Y-68777130D01*
X114597043Y-68772915D01*
X114604861Y-68768629D01*
X114612641Y-68764273D01*
X114620382Y-68759847D01*
X114628084Y-68755352D01*
X114635747Y-68750787D01*
X114643369Y-68746153D01*
X114650950Y-68741450D01*
X114658490Y-68736679D01*
X114665988Y-68731840D01*
X114673444Y-68726934D01*
X114680856Y-68721959D01*
X114688225Y-68716918D01*
X114695549Y-68711811D01*
X114702829Y-68706637D01*
X114710063Y-68701397D01*
X114717251Y-68696092D01*
X114724392Y-68690722D01*
X114731487Y-68685287D01*
X114738534Y-68679789D01*
X114745532Y-68674226D01*
X114752482Y-68668600D01*
X114759382Y-68662911D01*
X114766232Y-68657160D01*
X114773031Y-68651347D01*
X114779780Y-68645473D01*
X114786476Y-68639537D01*
X114793120Y-68633541D01*
X114799712Y-68627485D01*
X114806250Y-68621370D01*
X114812734Y-68615195D01*
X114819163Y-68608963D01*
X114825537Y-68602672D01*
X114831855Y-68596324D01*
X114838118Y-68589919D01*
X114844323Y-68583457D01*
X114850471Y-68576940D01*
X114856561Y-68570368D01*
X114862593Y-68563741D01*
X114868566Y-68557060D01*
X114874479Y-68550325D01*
X114880332Y-68543538D01*
X114886125Y-68536699D01*
X114891857Y-68529807D01*
X114897527Y-68522865D01*
X114903135Y-68515872D01*
X114905915Y-68512357D01*
X114908680Y-68508829D01*
X114911429Y-68505289D01*
X114914162Y-68501737D01*
X114916880Y-68498173D01*
X114919581Y-68494597D01*
X114922267Y-68491009D01*
X114924936Y-68487408D01*
X114927589Y-68483796D01*
X114930227Y-68480172D01*
X114932847Y-68476537D01*
X114935452Y-68472890D01*
X114938040Y-68469231D01*
X114940612Y-68465561D01*
X114943167Y-68461880D01*
X114945706Y-68458187D01*
X114948228Y-68454483D01*
X114950734Y-68450768D01*
X114953223Y-68447042D01*
X114955695Y-68443305D01*
X114958150Y-68439557D01*
X114960589Y-68435798D01*
X114963010Y-68432029D01*
X114965415Y-68428249D01*
X114967803Y-68424459D01*
X114970173Y-68420658D01*
X114972527Y-68416846D01*
X114974863Y-68413025D01*
X114977182Y-68409193D01*
X114979484Y-68405351D01*
X114981769Y-68401499D01*
X114984036Y-68397637D01*
X114986286Y-68393765D01*
X114988518Y-68389883D01*
X114990733Y-68385992D01*
X114992931Y-68382091D01*
X114995110Y-68378181D01*
X114997272Y-68374260D01*
X114999417Y-68370331D01*
X115001544Y-68366392D01*
X115003652Y-68362445D01*
X115005744Y-68358487D01*
X115007817Y-68354522D01*
X115009872Y-68350546D01*
X115011910Y-68346563D01*
X115013929Y-68342569D01*
X115015931Y-68338569D01*
X115017914Y-68334558D01*
X115019879Y-68330540D01*
X115021827Y-68326512D01*
X115023756Y-68322478D01*
X115025667Y-68318433D01*
X115027559Y-68314382D01*
X115029433Y-68310321D01*
X115031289Y-68306254D01*
X115033127Y-68302177D01*
X115034946Y-68298094D01*
X115036747Y-68294001D01*
X115038529Y-68289903D01*
X115040293Y-68285795D01*
X115042038Y-68281681D01*
X115043765Y-68277558D01*
X115045472Y-68273429D01*
X115047162Y-68269292D01*
X115048833Y-68265149D01*
X115050485Y-68260997D01*
X115052118Y-68256839D01*
X115053733Y-68252673D01*
X115055328Y-68248502D01*
X115056905Y-68244322D01*
X115058463Y-68240137D01*
X115060003Y-68235944D01*
X115061523Y-68231746D01*
X115063024Y-68227540D01*
X115064507Y-68223329D01*
X115065970Y-68219110D01*
X115067414Y-68214886D01*
X115068840Y-68210655D01*
X115070246Y-68206419D01*
X115071634Y-68202175D01*
X115073002Y-68197927D01*
X115074351Y-68193672D01*
X115075680Y-68189412D01*
X115076991Y-68185145D01*
X115078282Y-68180874D01*
X115079555Y-68176596D01*
X115080808Y-68172314D01*
X115082042Y-68168025D01*
X115083256Y-68163733D01*
X115084451Y-68159433D01*
X115085626Y-68155130D01*
X115086783Y-68150820D01*
X115087920Y-68146507D01*
X115089038Y-68142186D01*
X115090136Y-68137863D01*
X115091215Y-68133534D01*
X115092274Y-68129201D01*
X115093314Y-68124862D01*
X115094334Y-68120520D01*
X115095335Y-68116171D01*
X115096316Y-68111821D01*
X115097278Y-68107463D01*
X115098220Y-68103104D01*
X115099143Y-68098738D01*
X115100046Y-68094370D01*
X115100930Y-68089996D01*
X115101794Y-68085620D01*
X115102638Y-68081238D01*
X115103463Y-68076854D01*
X115104268Y-68072464D01*
X115105053Y-68068073D01*
X115105819Y-68063675D01*
X115106565Y-68059277D01*
X115107291Y-68054872D01*
X115107998Y-68050466D01*
X115108685Y-68046055D01*
X115109352Y-68041642D01*
X115109999Y-68037224D01*
X115110627Y-68032805D01*
X115111235Y-68028381D01*
X115111822Y-68023955D01*
X115112391Y-68019525D01*
X115112939Y-68015093D01*
X115113468Y-68010657D01*
X115113976Y-68006220D01*
X115114466Y-68001778D01*
X115114935Y-67997335D01*
X115115384Y-67992887D01*
X115115813Y-67988440D01*
X115116223Y-67983987D01*
X115116612Y-67979534D01*
X115116982Y-67975076D01*
X115117332Y-67970619D01*
X115117662Y-67966156D01*
X115117972Y-67961694D01*
X115118262Y-67957227D01*
X115118532Y-67952761D01*
X115118783Y-67948290D01*
X115119013Y-67943819D01*
X115119224Y-67939344D01*
X115119414Y-67934870D01*
X115119584Y-67930391D01*
X115119735Y-67925913D01*
X115119865Y-67921431D01*
X115119976Y-67916950D01*
X115120066Y-67912464D01*
X115120137Y-67907979D01*
X115120188Y-67903491D01*
X115120218Y-67899003D01*
X115120229Y-67894512D01*
X115120219Y-67890021D01*
X115120190Y-67885527D01*
X115120140Y-67881034D01*
X115120070Y-67876538D01*
X115119981Y-67872042D01*
X115119871Y-67867543D01*
X115119741Y-67863046D01*
X115119592Y-67858545D01*
X115119422Y-67854045D01*
X115119232Y-67849543D01*
X115118795Y-67840602D01*
D11*
X178965780Y-48624202D02*
X196525000Y-48624202D01*
X172951093Y-111708888D02*
X172965795Y-111538203D01*
D12*
X136018392Y-43774097D02*
X136027399Y-43773582D01*
X136036392Y-43772987D01*
X136045373Y-43772314D01*
X136054339Y-43771561D01*
X136063292Y-43770729D01*
X136072231Y-43769819D01*
X136081155Y-43768829D01*
X136090063Y-43767761D01*
X136098957Y-43766614D01*
X136107834Y-43765389D01*
X136116695Y-43764085D01*
X136125540Y-43762703D01*
X136134367Y-43761243D01*
X136143177Y-43759705D01*
X136151969Y-43758089D01*
X136160743Y-43756395D01*
X136169498Y-43754623D01*
X136178233Y-43752774D01*
X136186949Y-43750847D01*
X136195645Y-43748842D01*
X136204320Y-43746761D01*
X136212974Y-43744602D01*
X136221607Y-43742366D01*
X136230217Y-43740054D01*
X136238805Y-43737665D01*
X136247370Y-43735199D01*
X136255912Y-43732657D01*
X136264429Y-43730039D01*
X136272922Y-43727344D01*
X136281390Y-43724574D01*
X136289833Y-43721728D01*
X136298249Y-43718806D01*
X136306639Y-43715809D01*
X136315002Y-43712737D01*
X136323337Y-43709590D01*
X136331644Y-43706368D01*
X136339922Y-43703071D01*
X136348171Y-43699700D01*
X136356390Y-43696255D01*
X136364578Y-43692736D01*
X136372736Y-43689144D01*
X136380862Y-43685478D01*
X136388956Y-43681739D01*
X136397017Y-43677927D01*
X136405044Y-43674042D01*
X136413038Y-43670085D01*
X136420997Y-43666055D01*
X136428922Y-43661954D01*
X136436810Y-43657781D01*
X136444662Y-43653537D01*
X136452478Y-43649223D01*
X136460256Y-43644837D01*
X136467995Y-43640381D01*
X136475696Y-43635856D01*
X136483358Y-43631260D01*
X136490979Y-43626596D01*
X136498560Y-43621862D01*
X136506100Y-43617060D01*
X136513598Y-43612190D01*
X136521054Y-43607252D01*
X136528467Y-43602247D01*
X136535835Y-43597174D01*
X136543160Y-43592036D01*
X136550440Y-43586830D01*
X136557674Y-43581560D01*
X136564862Y-43576223D01*
X136572003Y-43570822D01*
X136579097Y-43565357D01*
X136586143Y-43559827D01*
X136593140Y-43554235D01*
X136600088Y-43548579D01*
X136606986Y-43542860D01*
X136613834Y-43537079D01*
X136620630Y-43531237D01*
X136627375Y-43525334D01*
X136634068Y-43519370D01*
X136640708Y-43513347D01*
X136647294Y-43507263D01*
X136653827Y-43501121D01*
X136660304Y-43494920D01*
X136666727Y-43488662D01*
X136673094Y-43482346D01*
X136679404Y-43475973D01*
X136685658Y-43469544D01*
X136691854Y-43463059D01*
X136694930Y-43459796D01*
X136697992Y-43456519D01*
X136701039Y-43453229D01*
X136704072Y-43449925D01*
X136707089Y-43446608D01*
X136710092Y-43443277D01*
X136713080Y-43439933D01*
X136716053Y-43436575D01*
X136719011Y-43433205D01*
X136721954Y-43429821D01*
X136724881Y-43426425D01*
X136727793Y-43423015D01*
X136730690Y-43419592D01*
X136733572Y-43416157D01*
X136736438Y-43412709D01*
X136739289Y-43409248D01*
X136742124Y-43405775D01*
X136744944Y-43402289D01*
X136747748Y-43398791D01*
X136750536Y-43395280D01*
X136753308Y-43391758D01*
X136756065Y-43388222D01*
X136758805Y-43384675D01*
X136761530Y-43381116D01*
X136764238Y-43377545D01*
X136766931Y-43373962D01*
X136769607Y-43370367D01*
X136772267Y-43366761D01*
X136774911Y-43363143D01*
X136777538Y-43359513D01*
X136780149Y-43355872D01*
X136782744Y-43352219D01*
X136785322Y-43348555D01*
X136787884Y-43344880D01*
X136790428Y-43341194D01*
X136792957Y-43337496D01*
X136795468Y-43333788D01*
X136797963Y-43330069D01*
X136800441Y-43326339D01*
X136802902Y-43322597D01*
X136805346Y-43318846D01*
X136807774Y-43315084D01*
X136810184Y-43311311D01*
X136812577Y-43307528D01*
X136814953Y-43303735D01*
X136817312Y-43299930D01*
X136819653Y-43296117D01*
X136821978Y-43292292D01*
X136824284Y-43288459D01*
X136826574Y-43284614D01*
X136828846Y-43280760D01*
X136831101Y-43276896D01*
X136833338Y-43273023D01*
X136835559Y-43269139D01*
X136837760Y-43265247D01*
X136839945Y-43261344D01*
X136842112Y-43257433D01*
X136844261Y-43253512D01*
X136846392Y-43249582D01*
X136848506Y-43245642D01*
X136850602Y-43241695D01*
X136852680Y-43237736D01*
X136854740Y-43233771D01*
X136856782Y-43229795D01*
X136858806Y-43225812D01*
X136860812Y-43221818D01*
X136862800Y-43217818D01*
X136864770Y-43213807D01*
X136866721Y-43209790D01*
X136868655Y-43205763D01*
X136870570Y-43201728D01*
X136872467Y-43197685D01*
X136874345Y-43193634D01*
X136876206Y-43189574D01*
X136878048Y-43185508D01*
X136879872Y-43181432D01*
X136881677Y-43177349D01*
X136883464Y-43173258D01*
X136885232Y-43169160D01*
X136886982Y-43165053D01*
X136888713Y-43160941D01*
X136890426Y-43156819D01*
X136892119Y-43152691D01*
X136893795Y-43148555D01*
X136895451Y-43144413D01*
X136897090Y-43140262D01*
X136898708Y-43136105D01*
X136900309Y-43131940D01*
X136901891Y-43127770D01*
X136903454Y-43123591D01*
X136904998Y-43119408D01*
X136906523Y-43115215D01*
X136908029Y-43111018D01*
X136909517Y-43106813D01*
X136910985Y-43102603D01*
X136912435Y-43098384D01*
X136913865Y-43094161D01*
X136915277Y-43089930D01*
X136916669Y-43085695D01*
X136918043Y-43081452D01*
X136919397Y-43077204D01*
X136920732Y-43072949D01*
X136922048Y-43068689D01*
X136923345Y-43064422D01*
X136924623Y-43060151D01*
X136925881Y-43055872D01*
X136927121Y-43051590D01*
X136928341Y-43047300D01*
X136929542Y-43043007D01*
X136930724Y-43038706D01*
X136931886Y-43034402D01*
X136933029Y-43030090D01*
X136934152Y-43025775D01*
X136935257Y-43021453D01*
X136936342Y-43017128D01*
X136937408Y-43012796D01*
X136938454Y-43008461D01*
X136939481Y-43004119D01*
X136940488Y-42999774D01*
X136941476Y-42995422D01*
X136942444Y-42991068D01*
X136943394Y-42986707D01*
X136944323Y-42982343D01*
X136945233Y-42977973D01*
X136946124Y-42973600D01*
X136946995Y-42969221D01*
X136947846Y-42964840D01*
X136948678Y-42960452D01*
X136949490Y-42956062D01*
X136950283Y-42951666D01*
X136951056Y-42947267D01*
X136951810Y-42942863D01*
X136952544Y-42938457D01*
X136953258Y-42934044D01*
X136953952Y-42929630D01*
X136954627Y-42925210D01*
X136955282Y-42920789D01*
X136955918Y-42916361D01*
X136956534Y-42911932D01*
X136957130Y-42907497D01*
X136957706Y-42903061D01*
X136958263Y-42898619D01*
X136958800Y-42894176D01*
X136959317Y-42889728D01*
X136959814Y-42885278D01*
X136960292Y-42880823D01*
X136960750Y-42876367D01*
X136961188Y-42871905D01*
X136961606Y-42867443D01*
X136962004Y-42862975D01*
X136962383Y-42858506D01*
X136962741Y-42854032D01*
X136963080Y-42849558D01*
X136963399Y-42845078D01*
X136963698Y-42840599D01*
X136963977Y-42836113D01*
X136964237Y-42831628D01*
X136964476Y-42827137D01*
X136964695Y-42822647D01*
X136964895Y-42818151D01*
X136965075Y-42813655D01*
X136965234Y-42809155D01*
X136965374Y-42804654D01*
X136965494Y-42800148D01*
X136965593Y-42795643D01*
X136965673Y-42791133D01*
X136965733Y-42786623D01*
X136965773Y-42782109D01*
X136965795Y-42775401D01*
X137258687Y-40517093D02*
X137252389Y-40523447D01*
X137246149Y-40529857D01*
X137239967Y-40536321D01*
X137233844Y-40542840D01*
X137227780Y-40549413D01*
X137221775Y-40556039D01*
X137215831Y-40562718D01*
X137209946Y-40569449D01*
X137204122Y-40576233D01*
X137198360Y-40583068D01*
X137192659Y-40589954D01*
X137187019Y-40596891D01*
X137181443Y-40603877D01*
X137175928Y-40610913D01*
X137170478Y-40617999D01*
X137165090Y-40625132D01*
X137159767Y-40632314D01*
X137154508Y-40639543D01*
X137149314Y-40646819D01*
X137144185Y-40654141D01*
X137139121Y-40661509D01*
X137134124Y-40668922D01*
X137129193Y-40676380D01*
X137124329Y-40683882D01*
X137119531Y-40691427D01*
X137114802Y-40699015D01*
X137110140Y-40706646D01*
X137105547Y-40714318D01*
X137101022Y-40722031D01*
X137096566Y-40729784D01*
X137092179Y-40737578D01*
X137087863Y-40745410D01*
X137083616Y-40753281D01*
X137079440Y-40761190D01*
X137075334Y-40769136D01*
X137071300Y-40777119D01*
X137067337Y-40785138D01*
X137063446Y-40793192D01*
X137059627Y-40801281D01*
X137055880Y-40809404D01*
X137052206Y-40817560D01*
X137048605Y-40825749D01*
X137045077Y-40833970D01*
X137041623Y-40842222D01*
X137039924Y-40846359D01*
X137038243Y-40850505D01*
X137036581Y-40854657D01*
X137034937Y-40858817D01*
X137033312Y-40862985D01*
X137031706Y-40867160D01*
X137030118Y-40871341D01*
X137028549Y-40875530D01*
X137026998Y-40879726D01*
X137025467Y-40883929D01*
X137023954Y-40888138D01*
X137022460Y-40892355D01*
X137020985Y-40896577D01*
X137019529Y-40900807D01*
X137018092Y-40905043D01*
X137016674Y-40909285D01*
X137015275Y-40913533D01*
X137013894Y-40917788D01*
X137012533Y-40922049D01*
X137011191Y-40926316D01*
X137009868Y-40930589D01*
X137008564Y-40934867D01*
X137007280Y-40939152D01*
X137006014Y-40943442D01*
X137004768Y-40947737D01*
X137003541Y-40952039D01*
X137002333Y-40956345D01*
X137001145Y-40960657D01*
X136999975Y-40964974D01*
X136998825Y-40969297D01*
X136997695Y-40973624D01*
X136996584Y-40977957D01*
X136995492Y-40982294D01*
X136994420Y-40986636D01*
X136993367Y-40990983D01*
X136992333Y-40995334D01*
X136991320Y-40999690D01*
X136990325Y-41004051D01*
X136989350Y-41008415D01*
X136988395Y-41012785D01*
X136987459Y-41017158D01*
X136986543Y-41021536D01*
X136985646Y-41025917D01*
X136984769Y-41030302D01*
X136983912Y-41034691D01*
X136983074Y-41039085D01*
X136982256Y-41043481D01*
X136981457Y-41047882D01*
X136980679Y-41052285D01*
X136979920Y-41056693D01*
X136979181Y-41061103D01*
X136978461Y-41065518D01*
X136977761Y-41069934D01*
X136977081Y-41074355D01*
X136976421Y-41078777D01*
X136975781Y-41083204D01*
X136975160Y-41087633D01*
X136974559Y-41092065D01*
X136973978Y-41096499D01*
X136973417Y-41100936D01*
X136972876Y-41105375D01*
X136972355Y-41109818D01*
X136971853Y-41114261D01*
X136971371Y-41118709D01*
X136970910Y-41123157D01*
X136970468Y-41127608D01*
X136970046Y-41132060D01*
X136969644Y-41136516D01*
X136969262Y-41140972D01*
X136968900Y-41145431D01*
X136968558Y-41149891D01*
X136968235Y-41154353D01*
X136967933Y-41158816D01*
X136967651Y-41163281D01*
X136967388Y-41167747D01*
X136967146Y-41172215D01*
X136966923Y-41176683D01*
X136966721Y-41181153D01*
X136966539Y-41185623D01*
X136966376Y-41190096D01*
X136966234Y-41194568D01*
X136966111Y-41199043D01*
X136966009Y-41203516D01*
X136965926Y-41207992D01*
X136965864Y-41212467D01*
X136965821Y-41216944D01*
X136965795Y-41224200D01*
X137965795Y-40224200D02*
X137956848Y-40224240D01*
X137947904Y-40224360D01*
X137938962Y-40224560D01*
X137930022Y-40224839D01*
X137921087Y-40225199D01*
X137912155Y-40225638D01*
X137903229Y-40226157D01*
X137894308Y-40226756D01*
X137885393Y-40227435D01*
X137876485Y-40228193D01*
X137867585Y-40229031D01*
X137858692Y-40229949D01*
X137849809Y-40230946D01*
X137840934Y-40232022D01*
X137832070Y-40233178D01*
X137823216Y-40234412D01*
X137814373Y-40235727D01*
X137805543Y-40237120D01*
X137796725Y-40238592D01*
X137787921Y-40240143D01*
X137779130Y-40241772D01*
X137770355Y-40243480D01*
X137761594Y-40245267D01*
X137752850Y-40247132D01*
X137744123Y-40249075D01*
X137735413Y-40251096D01*
X137726721Y-40253196D01*
X137718048Y-40255372D01*
X137709394Y-40257627D01*
X137700761Y-40259959D01*
X137692148Y-40262368D01*
X137683557Y-40264854D01*
X137674989Y-40267416D01*
X137666443Y-40270056D01*
X137657921Y-40272772D01*
X137649424Y-40275564D01*
X137640951Y-40278431D01*
X137632505Y-40281375D01*
X137624084Y-40284394D01*
X137615691Y-40287489D01*
X137607326Y-40290658D01*
X137598989Y-40293902D01*
X137590682Y-40297221D01*
X137582404Y-40300614D01*
X137578277Y-40302338D01*
X137574157Y-40304080D01*
X137570046Y-40305841D01*
X137565942Y-40307621D01*
X137561846Y-40309418D01*
X137557758Y-40311234D01*
X137553678Y-40313068D01*
X137549607Y-40314921D01*
X137545544Y-40316792D01*
X137541489Y-40318681D01*
X137537443Y-40320587D01*
X137533405Y-40322512D01*
X137529376Y-40324455D01*
X137525356Y-40326417D01*
X137521344Y-40328395D01*
X137517342Y-40330392D01*
X137513348Y-40332407D01*
X137509364Y-40334440D01*
X137505388Y-40336490D01*
X137501422Y-40338558D01*
X137497465Y-40340644D01*
X137493518Y-40342748D01*
X137489580Y-40344869D01*
X137485651Y-40347007D01*
X137481733Y-40349164D01*
X137477824Y-40351337D01*
X137473925Y-40353528D01*
X137470035Y-40355737D01*
X137466156Y-40357963D01*
X137462286Y-40360206D01*
X137458427Y-40362467D01*
X137454577Y-40364745D01*
X137450739Y-40367039D01*
X137446910Y-40369352D01*
X137443092Y-40371681D01*
X137439284Y-40374027D01*
X137435487Y-40376390D01*
X137431701Y-40378770D01*
X137427925Y-40381167D01*
X137424160Y-40383581D01*
X137420406Y-40386012D01*
X137416663Y-40388459D01*
X137412931Y-40390923D01*
X137409209Y-40393404D01*
X137405500Y-40395901D01*
X137401801Y-40398416D01*
X137398114Y-40400946D01*
X137394437Y-40403493D01*
X137390773Y-40406056D01*
X137387119Y-40408636D01*
X137383478Y-40411232D01*
X137379848Y-40413844D01*
X137376230Y-40416473D01*
X137372624Y-40419118D01*
X137369030Y-40421778D01*
X137365447Y-40424455D01*
X137361876Y-40427148D01*
X137358317Y-40429857D01*
X137354772Y-40432582D01*
X137351237Y-40435323D01*
X137347716Y-40438079D01*
X137344205Y-40440851D01*
X137340709Y-40443639D01*
X137337223Y-40446443D01*
X137333752Y-40449262D01*
X137330292Y-40452097D01*
X137326845Y-40454947D01*
X137323410Y-40457813D01*
X137319989Y-40460694D01*
X137316580Y-40463591D01*
X137313185Y-40466502D01*
X137309802Y-40469429D01*
X137306432Y-40472371D01*
X137303075Y-40475329D01*
X137299732Y-40478301D01*
X137296401Y-40481289D01*
X137293085Y-40484291D01*
X137289780Y-40487309D01*
X137286491Y-40490341D01*
X137283213Y-40493389D01*
X137279950Y-40496450D01*
X137276700Y-40499527D01*
X137273464Y-40502618D01*
X137270241Y-40505725D01*
X137267032Y-40508845D01*
X137263837Y-40511981D01*
X137258687Y-40517093D01*
X74350000Y-75950000D02*
X74341113Y-75951614D01*
X74332249Y-75953304D01*
X74323409Y-75955072D01*
X74314593Y-75956916D01*
X74305801Y-75958836D01*
X74297033Y-75960833D01*
X74288290Y-75962907D01*
X74279573Y-75965056D01*
X74270881Y-75967282D01*
X74262215Y-75969583D01*
X74253575Y-75971960D01*
X74244962Y-75974412D01*
X74236377Y-75976940D01*
X74227818Y-75979543D01*
X74219288Y-75982221D01*
X74210785Y-75984974D01*
X74202311Y-75987801D01*
X74193867Y-75990703D01*
X74185451Y-75993680D01*
X74177066Y-75996731D01*
X74168711Y-75999855D01*
X74160387Y-76003054D01*
X74152093Y-76006326D01*
X74143832Y-76009671D01*
X74135602Y-76013090D01*
X74127405Y-76016582D01*
X74119241Y-76020147D01*
X74111110Y-76023784D01*
X74103013Y-76027494D01*
X74094950Y-76031275D01*
X74086922Y-76035129D01*
X74078930Y-76039055D01*
X74070973Y-76043052D01*
X74063053Y-76047120D01*
X74055169Y-76051259D01*
X74047322Y-76055469D01*
X74039514Y-76059749D01*
X74031743Y-76064099D01*
X74024011Y-76068520D01*
X74016319Y-76073009D01*
X74008667Y-76077569D01*
X74001054Y-76082197D01*
X73993483Y-76086894D01*
X73985953Y-76091659D01*
X73978465Y-76096492D01*
X73971020Y-76101393D01*
X73963618Y-76106361D01*
X73956259Y-76111397D01*
X73948944Y-76116499D01*
X73941674Y-76121667D01*
X73934449Y-76126902D01*
X73927270Y-76132201D01*
X73920137Y-76137566D01*
X73913052Y-76142996D01*
X73906013Y-76148490D01*
X73899023Y-76154048D01*
X73892081Y-76159670D01*
X73885188Y-76165355D01*
X73878345Y-76171102D01*
X73871553Y-76176912D01*
X73864811Y-76182783D01*
X73858120Y-76188716D01*
X73851481Y-76194709D01*
X73844895Y-76200763D01*
X73838362Y-76206877D01*
X73831883Y-76213050D01*
X73825457Y-76219281D01*
X73819087Y-76225572D01*
X73812771Y-76231920D01*
X73806512Y-76238325D01*
X73800309Y-76244787D01*
X73794162Y-76251305D01*
X73788074Y-76257879D01*
X73782043Y-76264507D01*
X73776071Y-76271191D01*
X73770158Y-76277928D01*
X73764304Y-76284719D01*
X73758511Y-76291562D01*
X73752778Y-76298457D01*
X73747106Y-76305405D01*
X73741496Y-76312403D01*
X73735949Y-76319451D01*
X73730464Y-76326549D01*
X73725042Y-76333696D01*
X73719684Y-76340891D01*
X73714389Y-76348135D01*
X73709160Y-76355425D01*
X73703996Y-76362762D01*
X73701438Y-76366448D01*
X73698897Y-76370145D01*
X73696372Y-76373853D01*
X73693864Y-76377573D01*
X73691373Y-76381303D01*
X73688898Y-76385045D01*
X73686440Y-76388798D01*
X73683999Y-76392561D01*
X73681574Y-76396335D01*
X73679167Y-76400121D01*
X73676776Y-76403916D01*
X73674402Y-76407723D01*
X73672046Y-76411539D01*
X73669707Y-76415366D01*
X73667384Y-76419203D01*
X73665079Y-76423051D01*
X73662792Y-76426908D01*
X73660521Y-76430776D01*
X73658268Y-76434654D01*
X73656032Y-76438541D01*
X73653814Y-76442438D01*
X73651613Y-76446345D01*
X73649430Y-76450262D01*
X73647265Y-76454188D01*
X73645117Y-76458123D01*
X73642986Y-76462068D01*
X73640874Y-76466022D01*
X73638779Y-76469985D01*
X73636703Y-76473957D01*
X73634643Y-76477938D01*
X73632603Y-76481928D01*
X73630579Y-76485927D01*
X73628575Y-76489934D01*
X73626587Y-76493951D01*
X73624619Y-76497975D01*
X73622668Y-76502009D01*
X73620735Y-76506050D01*
X73618821Y-76510100D01*
X73616925Y-76514158D01*
X73615047Y-76518224D01*
X73613188Y-76522298D01*
X73611346Y-76526381D01*
X73609524Y-76530470D01*
X73607719Y-76534568D01*
X73605934Y-76538673D01*
X73604166Y-76542787D01*
X73602418Y-76546907D01*
X73600688Y-76551035D01*
X73598976Y-76555169D01*
X73597283Y-76559312D01*
X73595610Y-76563461D01*
X73593954Y-76567619D01*
X73592318Y-76571782D01*
X73590700Y-76575953D01*
X73589101Y-76580129D01*
X73587521Y-76584314D01*
X73585960Y-76588504D01*
X73584417Y-76592702D01*
X73582894Y-76596904D01*
X73581389Y-76601115D01*
X73579904Y-76605331D01*
X73578438Y-76609554D01*
X73576991Y-76613782D01*
X73575562Y-76618017D01*
X73574153Y-76622257D01*
X73572763Y-76626504D01*
X73571393Y-76630755D01*
X73570041Y-76635014D01*
X73568709Y-76639277D01*
X73567395Y-76643546D01*
X73566102Y-76647820D01*
X73564827Y-76652101D01*
X73563572Y-76656385D01*
X73562336Y-76660676D01*
X73561120Y-76664971D01*
X73559922Y-76669272D01*
X73558745Y-76673576D01*
X73557586Y-76677888D01*
X73556447Y-76682202D01*
X73555328Y-76686522D01*
X73554228Y-76690846D01*
X73553147Y-76695176D01*
X73552086Y-76699508D01*
X73551045Y-76703847D01*
X73550023Y-76708188D01*
X73549021Y-76712535D01*
X73548038Y-76716885D01*
X73547075Y-76721240D01*
X73546131Y-76725598D01*
X73545207Y-76729961D01*
X73544303Y-76734327D01*
X73543418Y-76738698D01*
X73542554Y-76743071D01*
X73541708Y-76747449D01*
X73540883Y-76751829D01*
X73540077Y-76756214D01*
X73539291Y-76760601D01*
X73538525Y-76764993D01*
X73537778Y-76769387D01*
X73537051Y-76773785D01*
X73536345Y-76778185D01*
X73535657Y-76782589D01*
X73534990Y-76786995D01*
X73534342Y-76791405D01*
X73533715Y-76795817D01*
X73533107Y-76800233D01*
X73532519Y-76804649D01*
X73531950Y-76809071D01*
X73531402Y-76813492D01*
X73530873Y-76817919D01*
X73530365Y-76822345D01*
X73529876Y-76826776D01*
X73529407Y-76831207D01*
X73528958Y-76835643D01*
X73528529Y-76840078D01*
X73528120Y-76844518D01*
X73527731Y-76848957D01*
X73527361Y-76853400D01*
X73527012Y-76857844D01*
X73526683Y-76862291D01*
X73526373Y-76866737D01*
X73526084Y-76871188D01*
X73525814Y-76875638D01*
X73525565Y-76880091D01*
X73525335Y-76884544D01*
X73525125Y-76889001D01*
X73524936Y-76893456D01*
X73524766Y-76897915D01*
X73524617Y-76902373D01*
X73524487Y-76906835D01*
X73524377Y-76911295D01*
X73524288Y-76915758D01*
X73524218Y-76920221D01*
X73524168Y-76924686D01*
X73524139Y-76929150D01*
X73524129Y-76933617D01*
X73524140Y-76938083D01*
X73524170Y-76942551D01*
X73524220Y-76947018D01*
X73524291Y-76951488D01*
X73524382Y-76955955D01*
X73524492Y-76960426D01*
X73524623Y-76964895D01*
X73524773Y-76969366D01*
X73524944Y-76973835D01*
X73525135Y-76978307D01*
X73525346Y-76982777D01*
X73525577Y-76987249D01*
X73525827Y-76991719D01*
X73526098Y-76996191D01*
X73526389Y-77000661D01*
X73526701Y-77005133D01*
X73527032Y-77009602D01*
X73527383Y-77014074D01*
X73527754Y-77018543D01*
X73528146Y-77023014D01*
X73528557Y-77027483D01*
X73528989Y-77031953D01*
X73529440Y-77036421D01*
X73529912Y-77040890D01*
X73530403Y-77045357D01*
X73530915Y-77049825D01*
X73531447Y-77054290D01*
X73531999Y-77058757D01*
X73532571Y-77063221D01*
X73533163Y-77067687D01*
X73533775Y-77072149D01*
X73534408Y-77076613D01*
X73535060Y-77081073D01*
X73535733Y-77085535D01*
X73536425Y-77089994D01*
X73537138Y-77094453D01*
X73537871Y-77098910D01*
X73538624Y-77103367D01*
X73539499Y-77108401D01*
X172672902Y-110517085D02*
X172666547Y-110510787D01*
X172660137Y-110504547D01*
X172653673Y-110498365D01*
X172647154Y-110492242D01*
X172640581Y-110486178D01*
X172633954Y-110480173D01*
X172627275Y-110474228D01*
X172620543Y-110468343D01*
X172613759Y-110462520D01*
X172606924Y-110456757D01*
X172600037Y-110451056D01*
X172593100Y-110445416D01*
X172586113Y-110439839D01*
X172579077Y-110434325D01*
X172571991Y-110428874D01*
X172564857Y-110423487D01*
X172557675Y-110418163D01*
X172550446Y-110412904D01*
X172543169Y-110407710D01*
X172535847Y-110402581D01*
X172528478Y-110397518D01*
X172521065Y-110392520D01*
X172513607Y-110387589D01*
X172506104Y-110382725D01*
X172498559Y-110377927D01*
X172490970Y-110373198D01*
X172483340Y-110368536D01*
X172475667Y-110363942D01*
X172467954Y-110359417D01*
X172460200Y-110354961D01*
X172452407Y-110350575D01*
X172444574Y-110346258D01*
X172436702Y-110342011D01*
X172428793Y-110337835D01*
X172420847Y-110333730D01*
X172412864Y-110329695D01*
X172404844Y-110325732D01*
X172396790Y-110321841D01*
X172388701Y-110318022D01*
X172380578Y-110314275D01*
X172372421Y-110310601D01*
X172364232Y-110307000D01*
X172356011Y-110303472D01*
X172347759Y-110300018D01*
X172343621Y-110298319D01*
X172339476Y-110296638D01*
X172335323Y-110294976D01*
X172331163Y-110293332D01*
X172326995Y-110291707D01*
X172322821Y-110290101D01*
X172318639Y-110288513D01*
X172314450Y-110286944D01*
X172310254Y-110285394D01*
X172306051Y-110283862D01*
X172301842Y-110282349D01*
X172297625Y-110280855D01*
X172293402Y-110279381D01*
X172289173Y-110277924D01*
X172284937Y-110276487D01*
X172280694Y-110275069D01*
X172276446Y-110273670D01*
X172272191Y-110272290D01*
X172267930Y-110270929D01*
X172263663Y-110269586D01*
X172259391Y-110268264D01*
X172255112Y-110266960D01*
X172250827Y-110265675D01*
X172246537Y-110264410D01*
X172242242Y-110263163D01*
X172237940Y-110261936D01*
X172233634Y-110260729D01*
X172229321Y-110259540D01*
X172225005Y-110258371D01*
X172220682Y-110257221D01*
X172216355Y-110256091D01*
X172212022Y-110254979D01*
X172207685Y-110253888D01*
X172203343Y-110252815D01*
X172198996Y-110251763D01*
X172194644Y-110250729D01*
X172190289Y-110249715D01*
X172185928Y-110248721D01*
X172181564Y-110247746D01*
X172177194Y-110246790D01*
X172172821Y-110245855D01*
X172168443Y-110244939D01*
X172164062Y-110244042D01*
X172159676Y-110243165D01*
X172155288Y-110242308D01*
X172150894Y-110241470D01*
X172146498Y-110240652D01*
X172142097Y-110239853D01*
X172137694Y-110239075D01*
X172133286Y-110238316D01*
X172128876Y-110237577D01*
X172124462Y-110236857D01*
X172120045Y-110236158D01*
X172115624Y-110235478D01*
X172111202Y-110234818D01*
X172106775Y-110234177D01*
X172102347Y-110233557D01*
X172097915Y-110232956D01*
X172093481Y-110232375D01*
X172089043Y-110231814D01*
X172084605Y-110231273D01*
X172080162Y-110230751D01*
X172075719Y-110230250D01*
X172071271Y-110229768D01*
X172066823Y-110229307D01*
X172062372Y-110228865D01*
X172057920Y-110228443D01*
X172053465Y-110228041D01*
X172049009Y-110227659D01*
X172044550Y-110227297D01*
X172040090Y-110226955D01*
X172035628Y-110226632D01*
X172031165Y-110226330D01*
X172026700Y-110226048D01*
X172022235Y-110225786D01*
X172017767Y-110225543D01*
X172013299Y-110225321D01*
X172008828Y-110225118D01*
X172004359Y-110224936D01*
X171999886Y-110224774D01*
X171995414Y-110224631D01*
X171990940Y-110224509D01*
X171986466Y-110224406D01*
X171981991Y-110224324D01*
X171977516Y-110224262D01*
X171973039Y-110224219D01*
X171965795Y-110224193D01*
X172965795Y-111224193D02*
X172965755Y-111215246D01*
X172965635Y-111206302D01*
X172965435Y-111197359D01*
X172965156Y-111188420D01*
X172964796Y-111179485D01*
X172964357Y-111170553D01*
X172963838Y-111161627D01*
X172963239Y-111152706D01*
X172962560Y-111143791D01*
X172961802Y-111134883D01*
X172960964Y-111125982D01*
X172960046Y-111117089D01*
X172959049Y-111108206D01*
X172957973Y-111099331D01*
X172956817Y-111090466D01*
X172955582Y-111081613D01*
X172954268Y-111072770D01*
X172952875Y-111063940D01*
X172951403Y-111055122D01*
X172949852Y-111046317D01*
X172948223Y-111037527D01*
X172946515Y-111028751D01*
X172944728Y-111019990D01*
X172942863Y-111011246D01*
X172940920Y-111002519D01*
X172938899Y-110993808D01*
X172936799Y-110985116D01*
X172934623Y-110976443D01*
X172932368Y-110967790D01*
X172930036Y-110959156D01*
X172927627Y-110950544D01*
X172925141Y-110941953D01*
X172922579Y-110933384D01*
X172919939Y-110924838D01*
X172917223Y-110916316D01*
X172914431Y-110907819D01*
X172911564Y-110899346D01*
X172908620Y-110890900D01*
X172905601Y-110882479D01*
X172902506Y-110874086D01*
X172899337Y-110865721D01*
X172896093Y-110857384D01*
X172892774Y-110849077D01*
X172889382Y-110840799D01*
X172887658Y-110836672D01*
X172885915Y-110832552D01*
X172884154Y-110828440D01*
X172882375Y-110824337D01*
X172880577Y-110820241D01*
X172878761Y-110816153D01*
X172876927Y-110812073D01*
X172875074Y-110808002D01*
X172873204Y-110803939D01*
X172871315Y-110799884D01*
X172869408Y-110795838D01*
X172867483Y-110791800D01*
X172865540Y-110787771D01*
X172863579Y-110783751D01*
X172861600Y-110779740D01*
X172859603Y-110775737D01*
X172857589Y-110771744D01*
X172855556Y-110767759D01*
X172853506Y-110763784D01*
X172851437Y-110759817D01*
X172849352Y-110755861D01*
X172847248Y-110751913D01*
X172845127Y-110747976D01*
X172842988Y-110744047D01*
X172840832Y-110740129D01*
X172838659Y-110736219D01*
X172836468Y-110732320D01*
X172834259Y-110728431D01*
X172832033Y-110724552D01*
X172829790Y-110720682D01*
X172827529Y-110716823D01*
X172825252Y-110712974D01*
X172822957Y-110709135D01*
X172820645Y-110705306D01*
X172818316Y-110701489D01*
X172815970Y-110697681D01*
X172813607Y-110693884D01*
X172811226Y-110690097D01*
X172808830Y-110686322D01*
X172806416Y-110682557D01*
X172803985Y-110678803D01*
X172801538Y-110675060D01*
X172799074Y-110671328D01*
X172796593Y-110667607D01*
X172794096Y-110663897D01*
X172791582Y-110660198D01*
X172789052Y-110656512D01*
X172786504Y-110652835D01*
X172783941Y-110649171D01*
X172781362Y-110645518D01*
X172778766Y-110641877D01*
X172776153Y-110638247D01*
X172773525Y-110634629D01*
X172770880Y-110631023D01*
X172768220Y-110627429D01*
X172765543Y-110623846D01*
X172762850Y-110620276D01*
X172760141Y-110616717D01*
X172757417Y-110613171D01*
X172754676Y-110609637D01*
X172751920Y-110606116D01*
X172749148Y-110602606D01*
X172746360Y-110599109D01*
X172743556Y-110595624D01*
X172740738Y-110592153D01*
X172737902Y-110588693D01*
X172735053Y-110585246D01*
X172732187Y-110581812D01*
X172729306Y-110578391D01*
X172726409Y-110574982D01*
X172723498Y-110571587D01*
X172720571Y-110568204D01*
X172717629Y-110564835D01*
X172714671Y-110561478D01*
X172711699Y-110558135D01*
X172708712Y-110554804D01*
X172705710Y-110551488D01*
X172702692Y-110548184D01*
X172699660Y-110544894D01*
X172696613Y-110541617D01*
X172693551Y-110538354D01*
X172690474Y-110535104D01*
X172687384Y-110531868D01*
X172684277Y-110528645D01*
X172681157Y-110525437D01*
X172678022Y-110522242D01*
X172672902Y-110517085D01*
D11*
X74350000Y-75950000D02*
X114294496Y-68878398D01*
X115118795Y-67840602D02*
X114218896Y-45923297D01*
X137965795Y-40224200D02*
X158065793Y-40224200D01*
D12*
X207684392Y-137560100D02*
X198799874Y-134325129D01*
X189473287Y-130929195D01*
D11*
X172965795Y-111538188D02*
X172965795Y-111224193D01*
X189473287Y-130929195D02*
X189304281Y-130883998D01*
X177965795Y-46224200D02*
X177965795Y-47624202D01*
D12*
X207684484Y-137559993D02*
X207692983Y-137563045D01*
X207701500Y-137566019D01*
X207710036Y-137568915D01*
X207718590Y-137571733D01*
X207727161Y-137574472D01*
X207735749Y-137577133D01*
X207744354Y-137579715D01*
X207752975Y-137582219D01*
X207761612Y-137584644D01*
X207770265Y-137586991D01*
X207778933Y-137589259D01*
X207787616Y-137591448D01*
X207796313Y-137593559D01*
X207805024Y-137595591D01*
X207813749Y-137597544D01*
X207822487Y-137599418D01*
X207831238Y-137601213D01*
X207840001Y-137602929D01*
X207848775Y-137604565D01*
X207857562Y-137606123D01*
X207866359Y-137607602D01*
X207875166Y-137609001D01*
X207883983Y-137610321D01*
X207892810Y-137611561D01*
X207901646Y-137612722D01*
X207910491Y-137613804D01*
X207919343Y-137614806D01*
X207928203Y-137615729D01*
X207937070Y-137616571D01*
X207945943Y-137617335D01*
X207954822Y-137618018D01*
X207963707Y-137618622D01*
X207972597Y-137619146D01*
X207981490Y-137619590D01*
X207990388Y-137619955D01*
X207999289Y-137620239D01*
X208008192Y-137620444D01*
X208017097Y-137620569D01*
X208026004Y-137620614D01*
X208034912Y-137620579D01*
X208043820Y-137620464D01*
X208052727Y-137620269D01*
X208061633Y-137619994D01*
X208070538Y-137619639D01*
X208079441Y-137619205D01*
X208088341Y-137618690D01*
X208097237Y-137618096D01*
X208106129Y-137617421D01*
X208115016Y-137616667D01*
X208123898Y-137615834D01*
X208132773Y-137614920D01*
X208141642Y-137613927D01*
X208150503Y-137612854D01*
X208159357Y-137611702D01*
X208168201Y-137610470D01*
X208177036Y-137609159D01*
X208185860Y-137607768D01*
X208194673Y-137606299D01*
X208203475Y-137604750D01*
X208212265Y-137603122D01*
X208221041Y-137601415D01*
X208229804Y-137599630D01*
X208238552Y-137597766D01*
X208247284Y-137595823D01*
X208256001Y-137593802D01*
X208264701Y-137591703D01*
X208273384Y-137589526D01*
X208282048Y-137587270D01*
X208290693Y-137584938D01*
X208299319Y-137582527D01*
X208307924Y-137580040D01*
X208316508Y-137577475D01*
X208325070Y-137574833D01*
X208333610Y-137572115D01*
X208342126Y-137569320D01*
X208350618Y-137566449D01*
X208359085Y-137563502D01*
X208367526Y-137560479D01*
X208375941Y-137557381D01*
X208384328Y-137554207D01*
X208392688Y-137550958D01*
X208401019Y-137547635D01*
X208409321Y-137544238D01*
X208417592Y-137540766D01*
X208425833Y-137537221D01*
X208434042Y-137533602D01*
X208442218Y-137529910D01*
X208450361Y-137526145D01*
X208454420Y-137524235D01*
X208458471Y-137522307D01*
X208462513Y-137520362D01*
X208466546Y-137518398D01*
X208470570Y-137516416D01*
X208474586Y-137514416D01*
X208478592Y-137512399D01*
X208482589Y-137510364D01*
X208486577Y-137508311D01*
X208490556Y-137506240D01*
X208494526Y-137504151D01*
X208498486Y-137502045D01*
X208502436Y-137499922D01*
X208506377Y-137497780D01*
X208510308Y-137495622D01*
X208514230Y-137493446D01*
X208518141Y-137491252D01*
X208522042Y-137489041D01*
X208525934Y-137486813D01*
X208529815Y-137484568D01*
X208533686Y-137482305D01*
X208537547Y-137480025D01*
X208541397Y-137477729D01*
X208545237Y-137475415D01*
X208549066Y-137473084D01*
X208552885Y-137470736D01*
X208556692Y-137468371D01*
X208560490Y-137465990D01*
X208564276Y-137463592D01*
X208568051Y-137461177D01*
X208571815Y-137458745D01*
X208575568Y-137456297D01*
X208579310Y-137453832D01*
X208583040Y-137451350D01*
X208586759Y-137448853D01*
X208590467Y-137446338D01*
X208594163Y-137443808D01*
X208597847Y-137441261D01*
X208601520Y-137438698D01*
X208605181Y-137436119D01*
X208608829Y-137433523D01*
X208612467Y-137430912D01*
X208616092Y-137428285D01*
X208619705Y-137425641D01*
X208623305Y-137422982D01*
X208626895Y-137420306D01*
X208630470Y-137417616D01*
X208634035Y-137414909D01*
X208637586Y-137412187D01*
X208641125Y-137409449D01*
X208644651Y-137406696D01*
X208648165Y-137403926D01*
X208651665Y-137401142D01*
X208655154Y-137398342D01*
X208658629Y-137395527D01*
X208662091Y-137392697D01*
X208665540Y-137389852D01*
X208668977Y-137386990D01*
X208672399Y-137384115D01*
X208675809Y-137381224D01*
X208679205Y-137378319D01*
X208682589Y-137375398D01*
X208685958Y-137372463D01*
X208689314Y-137369512D01*
X208692656Y-137366547D01*
X208695986Y-137363567D01*
X208699301Y-137360573D01*
X208702603Y-137357564D01*
X208705890Y-137354541D01*
X208709164Y-137351503D01*
X208712423Y-137348452D01*
X208715670Y-137345385D01*
X208718901Y-137342305D01*
X208722119Y-137339209D01*
X208725322Y-137336101D01*
X208728512Y-137332977D01*
X208731686Y-137329841D01*
X208734847Y-137326689D01*
X208737993Y-137323525D01*
X208741125Y-137320346D01*
X208744241Y-137317154D01*
X208747345Y-137313947D01*
X208750432Y-137310728D01*
X208753506Y-137307494D01*
X208756564Y-137304247D01*
X208759608Y-137300986D01*
X208762636Y-137297713D01*
X208765651Y-137294425D01*
X208768649Y-137291125D01*
X208771633Y-137287811D01*
X208774601Y-137284485D01*
X208777556Y-137281144D01*
X208780494Y-137277792D01*
X208783418Y-137274425D01*
X208786325Y-137271046D01*
X208789218Y-137267654D01*
X208792095Y-137264250D01*
X208794958Y-137260831D01*
X208797803Y-137257402D01*
X208800635Y-137253958D01*
X208803450Y-137250503D01*
X208806250Y-137247034D01*
X208809034Y-137243555D01*
X208811803Y-137240061D01*
X208814555Y-137236556D01*
X208817292Y-137233038D01*
X208820013Y-137229509D01*
X208822719Y-137225966D01*
X208825407Y-137222412D01*
X208828082Y-137218845D01*
X208830738Y-137215267D01*
X208833380Y-137211676D01*
X208836005Y-137208075D01*
X208838615Y-137204459D01*
X208841207Y-137200834D01*
X208843785Y-137197195D01*
X208846344Y-137193547D01*
X208848889Y-137189885D01*
X208851417Y-137186213D01*
X208853929Y-137182527D01*
X208856423Y-137178833D01*
X208858903Y-137175124D01*
X208861365Y-137171406D01*
X208863811Y-137167675D01*
X208866240Y-137163935D01*
X208868653Y-137160181D01*
X208871049Y-137156419D01*
X208873429Y-137152643D01*
X208875791Y-137148858D01*
X208878137Y-137145060D01*
X208880466Y-137141253D01*
X208882779Y-137137433D01*
X208885074Y-137133604D01*
X208887354Y-137129762D01*
X208889615Y-137125912D01*
X208891861Y-137122048D01*
X208894089Y-137118176D01*
X208896300Y-137114292D01*
X208898494Y-137110399D01*
X208900672Y-137106493D01*
X208902831Y-137102579D01*
X208904975Y-137098652D01*
X208907100Y-137094717D01*
X208909209Y-137090769D01*
X208911300Y-137086814D01*
X208913375Y-137082846D01*
X208915431Y-137078869D01*
X208917471Y-137074881D01*
X208919493Y-137070884D01*
X208921499Y-137066875D01*
X208923486Y-137062859D01*
X208925457Y-137058830D01*
X208927409Y-137054793D01*
X208929345Y-137050745D01*
X208931263Y-137046688D01*
X208933164Y-137042620D01*
X208935046Y-137038544D01*
X208936912Y-137034456D01*
X208938759Y-137030360D01*
X208940590Y-137026253D01*
X208942402Y-137022138D01*
X208944197Y-137018012D01*
X208945974Y-137013878D01*
X208947734Y-137009732D01*
X208949476Y-137005579D01*
X208951200Y-137001415D01*
X208952906Y-136997243D01*
X208954595Y-136993060D01*
X208956265Y-136988869D01*
X208957918Y-136984667D01*
X208959552Y-136980459D01*
X208961170Y-136976238D01*
X208963186Y-136970897D01*
D11*
X157230596Y-110221690D02*
X157300985Y-110224193D01*
X159065793Y-41224200D02*
X159065793Y-44224200D01*
D12*
X177965795Y-47624202D02*
X177965835Y-47633234D01*
X177965954Y-47642257D01*
X177966154Y-47651271D01*
X177966433Y-47660273D01*
X177966792Y-47669266D01*
X177967230Y-47678248D01*
X177967747Y-47687218D01*
X177968344Y-47696177D01*
X177969021Y-47705124D01*
X177969776Y-47714058D01*
X177970610Y-47722980D01*
X177971524Y-47731888D01*
X177972516Y-47740784D01*
X177973588Y-47749665D01*
X177974738Y-47758531D01*
X177975966Y-47767384D01*
X177977273Y-47776220D01*
X177978659Y-47785042D01*
X177980123Y-47793847D01*
X177981665Y-47802636D01*
X177983286Y-47811408D01*
X177984984Y-47820162D01*
X177986761Y-47828899D01*
X177988615Y-47837617D01*
X177990547Y-47846317D01*
X177992556Y-47854997D01*
X177994643Y-47863657D01*
X177996807Y-47872298D01*
X177999049Y-47880917D01*
X178001367Y-47889516D01*
X178003763Y-47898092D01*
X178006235Y-47906647D01*
X178008783Y-47915178D01*
X178011409Y-47923686D01*
X178014110Y-47932171D01*
X178016888Y-47940631D01*
X178019741Y-47949066D01*
X178022670Y-47957476D01*
X178025675Y-47965859D01*
X178028755Y-47974216D01*
X178031911Y-47982546D01*
X178035141Y-47990849D01*
X178038446Y-47999123D01*
X178041826Y-48007368D01*
X178045280Y-48015583D01*
X178048808Y-48023769D01*
X178052410Y-48031924D01*
X178056085Y-48040048D01*
X178059834Y-48048139D01*
X178063656Y-48056199D01*
X178067551Y-48064225D01*
X178071518Y-48072218D01*
X178075558Y-48080177D01*
X178079669Y-48088100D01*
X178083852Y-48095989D01*
X178088107Y-48103841D01*
X178092432Y-48111656D01*
X178096828Y-48119434D01*
X178101295Y-48127174D01*
X178105831Y-48134875D01*
X178110437Y-48142537D01*
X178115113Y-48150159D01*
X178119857Y-48157741D01*
X178124670Y-48165281D01*
X178129551Y-48172780D01*
X178134500Y-48180236D01*
X178139517Y-48187649D01*
X178144600Y-48195018D01*
X178149750Y-48202343D01*
X178154966Y-48209623D01*
X178160248Y-48216858D01*
X178165595Y-48224046D01*
X178171006Y-48231187D01*
X178176482Y-48238281D01*
X178182022Y-48245327D01*
X178187626Y-48252323D01*
X178193292Y-48259271D01*
X178199020Y-48266168D01*
X178204811Y-48273015D01*
X178210663Y-48279811D01*
X178216576Y-48286555D01*
X178222549Y-48293246D01*
X178228583Y-48299884D01*
X178234675Y-48306469D01*
X178240826Y-48312999D01*
X178247036Y-48319474D01*
X178253303Y-48325895D01*
X178259627Y-48332259D01*
X178262811Y-48335419D01*
X178266008Y-48338566D01*
X178269220Y-48341698D01*
X178272445Y-48344816D01*
X178275684Y-48347920D01*
X178278937Y-48351009D01*
X178282204Y-48354084D01*
X178285485Y-48357143D01*
X178288778Y-48360189D01*
X178292086Y-48363219D01*
X178295407Y-48366235D01*
X178298741Y-48369235D01*
X178302088Y-48372221D01*
X178305449Y-48375192D01*
X178308823Y-48378147D01*
X178312210Y-48381088D01*
X178315609Y-48384013D01*
X178319022Y-48386923D01*
X178322447Y-48389817D01*
X178325886Y-48392696D01*
X178329336Y-48395559D01*
X178332800Y-48398408D01*
X178336276Y-48401240D01*
X178339764Y-48404057D01*
X178343265Y-48406857D01*
X178346778Y-48409643D01*
X178350303Y-48412412D01*
X178353841Y-48415165D01*
X178357390Y-48417903D01*
X178360951Y-48420624D01*
X178364524Y-48423329D01*
X178368109Y-48426019D01*
X178371706Y-48428691D01*
X178375314Y-48431348D01*
X178378934Y-48433988D01*
X178382566Y-48436612D01*
X178386208Y-48439219D01*
X178389863Y-48441811D01*
X178393528Y-48444385D01*
X178397205Y-48446943D01*
X178400892Y-48449484D01*
X178404591Y-48452008D01*
X178408300Y-48454516D01*
X178412021Y-48457007D01*
X178415752Y-48459481D01*
X178419494Y-48461938D01*
X178423246Y-48464378D01*
X178427010Y-48466801D01*
X178430783Y-48469207D01*
X178434567Y-48471596D01*
X178438361Y-48473967D01*
X178442166Y-48476322D01*
X178445980Y-48478659D01*
X178449805Y-48480979D01*
X178453639Y-48483282D01*
X178457484Y-48485567D01*
X178461338Y-48487835D01*
X178465203Y-48490085D01*
X178469076Y-48492318D01*
X178472960Y-48494533D01*
X178476852Y-48496730D01*
X178480755Y-48498911D01*
X178484665Y-48501072D01*
X178488587Y-48503217D01*
X178492516Y-48505343D01*
X178496456Y-48507453D01*
X178500403Y-48509543D01*
X178504361Y-48511617D01*
X178508326Y-48513671D01*
X178512302Y-48515709D01*
X178516285Y-48517727D01*
X178520278Y-48519729D01*
X178524277Y-48521711D01*
X178528287Y-48523677D01*
X178532304Y-48525623D01*
X178536331Y-48527552D01*
X178540364Y-48529461D01*
X178544407Y-48531354D01*
X178548457Y-48533227D01*
X178552516Y-48535083D01*
X178556582Y-48536919D01*
X178560657Y-48538738D01*
X178564738Y-48540538D01*
X178568829Y-48542320D01*
X178572926Y-48544082D01*
X178577032Y-48545827D01*
X178581143Y-48547553D01*
X178585264Y-48549261D01*
X178589391Y-48550949D01*
X178593526Y-48552619D01*
X178597667Y-48554271D01*
X178601817Y-48555904D01*
X178605972Y-48557517D01*
X178610136Y-48559113D01*
X178614305Y-48560689D01*
X178618483Y-48562247D01*
X178622666Y-48563785D01*
X178626857Y-48565306D01*
X178631053Y-48566807D01*
X178635257Y-48568289D01*
X178639466Y-48569752D01*
X178643684Y-48571196D01*
X178647905Y-48572621D01*
X178652136Y-48574028D01*
X178656370Y-48575415D01*
X178660612Y-48576783D01*
X178664859Y-48578132D01*
X178669113Y-48579462D01*
X178673372Y-48580773D01*
X178677638Y-48582065D01*
X178681908Y-48583337D01*
X178686186Y-48584591D01*
X178690467Y-48585825D01*
X178694757Y-48587040D01*
X178699049Y-48588236D01*
X178703350Y-48589413D01*
X178707653Y-48590569D01*
X178711964Y-48591708D01*
X178716278Y-48592826D01*
X178720600Y-48593926D01*
X178724924Y-48595005D01*
X178729256Y-48596066D01*
X178733591Y-48597107D01*
X178737933Y-48598129D01*
X178742277Y-48599131D01*
X178746629Y-48600114D01*
X178750983Y-48601078D01*
X178755344Y-48602022D01*
X178759708Y-48602946D01*
X178764079Y-48603852D01*
X178768451Y-48604737D01*
X178772831Y-48605603D01*
X178777212Y-48606450D01*
X178781601Y-48607277D01*
X178785991Y-48608084D01*
X178790388Y-48608872D01*
X178794787Y-48609640D01*
X178799192Y-48610389D01*
X178803599Y-48611118D01*
X178808013Y-48611828D01*
X178812428Y-48612517D01*
X178816849Y-48613187D01*
X178821272Y-48613838D01*
X178825701Y-48614469D01*
X178830132Y-48615080D01*
X178834568Y-48615671D01*
X178839006Y-48616243D01*
X178843450Y-48616795D01*
X178847895Y-48617327D01*
X178852346Y-48617839D01*
X178856798Y-48618332D01*
X178861256Y-48618805D01*
X178865714Y-48619258D01*
X178870179Y-48619692D01*
X178874644Y-48620105D01*
X178879115Y-48620499D01*
X178883586Y-48620873D01*
X178888063Y-48621227D01*
X178892541Y-48621561D01*
X178897024Y-48621875D01*
X178901508Y-48622170D01*
X178905997Y-48622445D01*
X178910486Y-48622699D01*
X178914981Y-48622934D01*
X178919476Y-48623149D01*
X178923976Y-48623344D01*
X178928477Y-48623519D01*
X178932982Y-48623674D01*
X178937488Y-48623810D01*
X178941999Y-48623925D01*
X178946509Y-48624020D01*
X178951025Y-48624095D01*
X178955541Y-48624151D01*
X178960061Y-48624186D01*
X178965764Y-48624202D01*
X114474038Y-45201419D02*
X114468084Y-45208097D01*
X114462191Y-45214827D01*
X114456359Y-45221609D01*
X114450589Y-45228442D01*
X114444880Y-45235325D01*
X114439234Y-45242259D01*
X114433650Y-45249242D01*
X114428129Y-45256275D01*
X114422671Y-45263357D01*
X114417277Y-45270486D01*
X114411948Y-45277664D01*
X114406682Y-45284888D01*
X114401482Y-45292160D01*
X114396347Y-45299477D01*
X114391278Y-45306840D01*
X114386275Y-45314248D01*
X114381338Y-45321701D01*
X114376468Y-45329198D01*
X114371665Y-45336738D01*
X114366929Y-45344320D01*
X114362262Y-45351945D01*
X114357663Y-45359612D01*
X114353132Y-45367320D01*
X114348671Y-45375068D01*
X114344279Y-45382856D01*
X114339956Y-45390683D01*
X114335704Y-45398549D01*
X114331521Y-45406453D01*
X114327410Y-45414394D01*
X114323370Y-45422372D01*
X114319401Y-45430386D01*
X114315503Y-45438435D01*
X114311678Y-45446519D01*
X114307925Y-45454638D01*
X114304245Y-45462790D01*
X114300637Y-45470974D01*
X114297103Y-45479191D01*
X114293642Y-45487440D01*
X114290256Y-45495719D01*
X114286943Y-45504028D01*
X114283704Y-45512367D01*
X114280541Y-45520735D01*
X114277452Y-45529130D01*
X114274438Y-45537553D01*
X114272960Y-45541775D01*
X114271500Y-45546003D01*
X114270059Y-45550238D01*
X114268637Y-45554479D01*
X114267235Y-45558726D01*
X114265851Y-45562980D01*
X114264486Y-45567240D01*
X114263140Y-45571506D01*
X114261813Y-45575777D01*
X114260506Y-45580055D01*
X114259217Y-45584339D01*
X114257948Y-45588628D01*
X114256698Y-45592923D01*
X114255467Y-45597223D01*
X114254256Y-45601529D01*
X114253063Y-45605840D01*
X114251890Y-45610157D01*
X114250737Y-45614479D01*
X114249602Y-45618805D01*
X114248487Y-45623137D01*
X114247392Y-45627474D01*
X114246316Y-45631816D01*
X114245259Y-45636162D01*
X114244221Y-45640513D01*
X114243204Y-45644868D01*
X114242205Y-45649228D01*
X114241227Y-45653593D01*
X114240267Y-45657962D01*
X114239328Y-45662334D01*
X114238407Y-45666712D01*
X114237507Y-45671092D01*
X114236626Y-45675478D01*
X114235765Y-45679866D01*
X114234923Y-45684259D01*
X114234101Y-45688655D01*
X114233299Y-45693056D01*
X114232516Y-45697459D01*
X114231753Y-45701866D01*
X114231010Y-45706276D01*
X114230286Y-45710690D01*
X114229583Y-45715106D01*
X114228899Y-45719526D01*
X114228235Y-45723949D01*
X114227590Y-45728375D01*
X114226966Y-45732803D01*
X114226361Y-45737234D01*
X114225776Y-45741668D01*
X114225211Y-45746105D01*
X114224666Y-45750543D01*
X114224141Y-45754985D01*
X114223635Y-45759428D01*
X114223150Y-45763874D01*
X114222684Y-45768322D01*
X114222238Y-45772772D01*
X114221813Y-45777224D01*
X114221407Y-45781678D01*
X114221021Y-45786133D01*
X114220655Y-45790591D01*
X114220309Y-45795049D01*
X114219982Y-45799511D01*
X114219676Y-45803972D01*
X114219390Y-45808436D01*
X114219124Y-45812900D01*
X114218878Y-45817366D01*
X114218651Y-45821833D01*
X114218445Y-45826301D01*
X114218259Y-45830770D01*
X114218092Y-45835240D01*
X114217946Y-45839710D01*
X114217820Y-45844183D01*
X114217713Y-45848654D01*
X114217627Y-45853127D01*
X114217561Y-45857600D01*
X114217514Y-45862074D01*
X114217488Y-45866547D01*
X114217482Y-45871022D01*
X114217496Y-45875495D01*
X114217529Y-45879971D01*
X114217583Y-45884444D01*
X114217657Y-45888919D01*
X114217751Y-45893393D01*
X114217865Y-45897867D01*
X114217998Y-45902340D01*
X114218152Y-45906814D01*
X114218326Y-45911286D01*
X114218520Y-45915760D01*
X114218892Y-45923297D01*
X115164991Y-44871600D02*
X115156059Y-44872109D01*
X115147133Y-44872699D01*
X115138213Y-44873367D01*
X115129301Y-44874116D01*
X115120396Y-44874944D01*
X115111500Y-44875851D01*
X115102614Y-44876838D01*
X115093736Y-44877905D01*
X115084869Y-44879050D01*
X115076013Y-44880275D01*
X115067169Y-44881579D01*
X115058337Y-44882962D01*
X115049518Y-44884423D01*
X115040712Y-44885964D01*
X115031920Y-44887583D01*
X115023144Y-44889281D01*
X115014383Y-44891057D01*
X115005637Y-44892912D01*
X114996909Y-44894845D01*
X114988198Y-44896855D01*
X114979506Y-44898944D01*
X114970832Y-44901110D01*
X114962177Y-44903354D01*
X114953543Y-44905676D01*
X114944930Y-44908074D01*
X114936338Y-44910550D01*
X114927768Y-44913102D01*
X114919221Y-44915731D01*
X114910698Y-44918436D01*
X114902199Y-44921218D01*
X114893725Y-44924076D01*
X114885277Y-44927009D01*
X114876855Y-44930018D01*
X114868459Y-44933102D01*
X114860092Y-44936261D01*
X114851753Y-44939495D01*
X114843443Y-44942804D01*
X114835162Y-44946187D01*
X114826912Y-44949644D01*
X114818693Y-44953174D01*
X114810506Y-44956778D01*
X114802351Y-44960455D01*
X114794230Y-44964205D01*
X114786142Y-44968028D01*
X114782111Y-44969966D01*
X114778088Y-44971922D01*
X114774074Y-44973897D01*
X114770070Y-44975889D01*
X114766074Y-44977899D01*
X114762087Y-44979927D01*
X114758109Y-44981973D01*
X114754141Y-44984036D01*
X114750182Y-44986118D01*
X114746232Y-44988217D01*
X114742291Y-44990333D01*
X114738360Y-44992467D01*
X114734439Y-44994619D01*
X114730527Y-44996789D01*
X114726625Y-44998975D01*
X114722733Y-45001179D01*
X114718851Y-45003401D01*
X114714978Y-45005640D01*
X114711116Y-45007896D01*
X114707264Y-45010169D01*
X114703422Y-45012460D01*
X114699591Y-45014768D01*
X114695770Y-45017092D01*
X114691959Y-45019434D01*
X114688159Y-45021793D01*
X114684369Y-45024169D01*
X114680591Y-45026562D01*
X114676823Y-45028972D01*
X114673066Y-45031398D01*
X114669319Y-45033841D01*
X114665584Y-45036301D01*
X114661860Y-45038778D01*
X114658147Y-45041271D01*
X114654445Y-45043781D01*
X114650754Y-45046307D01*
X114647075Y-45048850D01*
X114643407Y-45051409D01*
X114639751Y-45053984D01*
X114636107Y-45056576D01*
X114632473Y-45059184D01*
X114628852Y-45061808D01*
X114625242Y-45064449D01*
X114621645Y-45067105D01*
X114618059Y-45069778D01*
X114614486Y-45072466D01*
X114610924Y-45075171D01*
X114607375Y-45077891D01*
X114603837Y-45080628D01*
X114600313Y-45083380D01*
X114596800Y-45086148D01*
X114593300Y-45088931D01*
X114589812Y-45091731D01*
X114586337Y-45094545D01*
X114582874Y-45097376D01*
X114579425Y-45100221D01*
X114575988Y-45103083D01*
X114572564Y-45105959D01*
X114569152Y-45108851D01*
X114565754Y-45111758D01*
X114562368Y-45114681D01*
X114558997Y-45117618D01*
X114555637Y-45120571D01*
X114552291Y-45123538D01*
X114548958Y-45126521D01*
X114545639Y-45129518D01*
X114542333Y-45132531D01*
X114539041Y-45135557D01*
X114535761Y-45138600D01*
X114532496Y-45141656D01*
X114529244Y-45144728D01*
X114526006Y-45147813D01*
X114522781Y-45150914D01*
X114519571Y-45154029D01*
X114516374Y-45157159D01*
X114513192Y-45160302D01*
X114510022Y-45163461D01*
X114506868Y-45166633D01*
X114503727Y-45169820D01*
X114500601Y-45173020D01*
X114497488Y-45176236D01*
X114494390Y-45179464D01*
X114491306Y-45182708D01*
X114488237Y-45185964D01*
X114485181Y-45189235D01*
X114482141Y-45192519D01*
X114479114Y-45195819D01*
X114474038Y-45201419D01*
D11*
X140326795Y-109028499D02*
X140204792Y-109027400D01*
D12*
X170511091Y-126566386D02*
X171798332Y-118728204D01*
X172951093Y-111708888D01*
D11*
X119027593Y-110120998D02*
X118904790Y-110135005D01*
D12*
X177672902Y-45517093D02*
X177666548Y-45510795D01*
X177660138Y-45504555D01*
X177653674Y-45498373D01*
X177647155Y-45492250D01*
X177640582Y-45486186D01*
X177633956Y-45480181D01*
X177627277Y-45474236D01*
X177620546Y-45468352D01*
X177613762Y-45462528D01*
X177606927Y-45456765D01*
X177600041Y-45451064D01*
X177593104Y-45445425D01*
X177586118Y-45439848D01*
X177579081Y-45434334D01*
X177571996Y-45428883D01*
X177564862Y-45423496D01*
X177557681Y-45418173D01*
X177550452Y-45412914D01*
X177543176Y-45407719D01*
X177535853Y-45402590D01*
X177528485Y-45397527D01*
X177521072Y-45392530D01*
X177513614Y-45387598D01*
X177506112Y-45382734D01*
X177498567Y-45377937D01*
X177490979Y-45373207D01*
X177483349Y-45368546D01*
X177475677Y-45363952D01*
X177467964Y-45359427D01*
X177460210Y-45354971D01*
X177452417Y-45350585D01*
X177444584Y-45346268D01*
X177436713Y-45342021D01*
X177428804Y-45337845D01*
X177420858Y-45333739D01*
X177412875Y-45329705D01*
X177404856Y-45325742D01*
X177396802Y-45321851D01*
X177388713Y-45318032D01*
X177380590Y-45314285D01*
X177372434Y-45310611D01*
X177364245Y-45307010D01*
X177356025Y-45303482D01*
X177347772Y-45300028D01*
X177343635Y-45298329D01*
X177339490Y-45296648D01*
X177335337Y-45294986D01*
X177331177Y-45293342D01*
X177327009Y-45291717D01*
X177322835Y-45290111D01*
X177318653Y-45288523D01*
X177314464Y-45286954D01*
X177310268Y-45285404D01*
X177306066Y-45283872D01*
X177301856Y-45282359D01*
X177297640Y-45280865D01*
X177293417Y-45279391D01*
X177289187Y-45277934D01*
X177284952Y-45276497D01*
X177280709Y-45275079D01*
X177276461Y-45273680D01*
X177272206Y-45272300D01*
X177267945Y-45270938D01*
X177263678Y-45269596D01*
X177259406Y-45268273D01*
X177255127Y-45266970D01*
X177250843Y-45265685D01*
X177246552Y-45264419D01*
X177242257Y-45263173D01*
X177237955Y-45261946D01*
X177233649Y-45260738D01*
X177229337Y-45259550D01*
X177225020Y-45258381D01*
X177220697Y-45257231D01*
X177216370Y-45256100D01*
X177212038Y-45254989D01*
X177207701Y-45253897D01*
X177203358Y-45252825D01*
X177199012Y-45251772D01*
X177194660Y-45250738D01*
X177190304Y-45249725D01*
X177185944Y-45248730D01*
X177181579Y-45247755D01*
X177177210Y-45246800D01*
X177172837Y-45245864D01*
X177168459Y-45244948D01*
X177164078Y-45244051D01*
X177159692Y-45243174D01*
X177155303Y-45242317D01*
X177150910Y-45241479D01*
X177146513Y-45240661D01*
X177142113Y-45239862D01*
X177137709Y-45239084D01*
X177133301Y-45238325D01*
X177128891Y-45237586D01*
X177124477Y-45236866D01*
X177120060Y-45236166D01*
X177115640Y-45235486D01*
X177111217Y-45234826D01*
X177106790Y-45234186D01*
X177102362Y-45233565D01*
X177097930Y-45232964D01*
X177093496Y-45232383D01*
X177089058Y-45231822D01*
X177084619Y-45231281D01*
X177080177Y-45230760D01*
X177075733Y-45230258D01*
X177071286Y-45229776D01*
X177066838Y-45229315D01*
X177062386Y-45228873D01*
X177057934Y-45228451D01*
X177053479Y-45228049D01*
X177049023Y-45227667D01*
X177044564Y-45227305D01*
X177040104Y-45226963D01*
X177035642Y-45226640D01*
X177031179Y-45226338D01*
X177026714Y-45226056D01*
X177022248Y-45225793D01*
X177017780Y-45225551D01*
X177013312Y-45225328D01*
X177008842Y-45225126D01*
X177004372Y-45224944D01*
X176999899Y-45224781D01*
X176995427Y-45224639D01*
X176990952Y-45224516D01*
X176986479Y-45224414D01*
X176982003Y-45224331D01*
X176977528Y-45224269D01*
X176973051Y-45224226D01*
X176965795Y-45224200D01*
X177965795Y-46224200D02*
X177965755Y-46215253D01*
X177965635Y-46206309D01*
X177965435Y-46197366D01*
X177965156Y-46188427D01*
X177964796Y-46179492D01*
X177964357Y-46170560D01*
X177963838Y-46161634D01*
X177963239Y-46152713D01*
X177962560Y-46143798D01*
X177961802Y-46134890D01*
X177960964Y-46125990D01*
X177960046Y-46117097D01*
X177959049Y-46108213D01*
X177957973Y-46099339D01*
X177956817Y-46090474D01*
X177955583Y-46081620D01*
X177954268Y-46072778D01*
X177952875Y-46063948D01*
X177951403Y-46055130D01*
X177949853Y-46046325D01*
X177948223Y-46037535D01*
X177946515Y-46028759D01*
X177944728Y-46019999D01*
X177942863Y-46011255D01*
X177940920Y-46002527D01*
X177938899Y-45993817D01*
X177936800Y-45985125D01*
X177934623Y-45976452D01*
X177932368Y-45967799D01*
X177930037Y-45959165D01*
X177927628Y-45950553D01*
X177925142Y-45941962D01*
X177922579Y-45933394D01*
X177919939Y-45924848D01*
X177917224Y-45916326D01*
X177914432Y-45907829D01*
X177911564Y-45899356D01*
X177908620Y-45890910D01*
X177905601Y-45882489D01*
X177902506Y-45874096D01*
X177899337Y-45865731D01*
X177896093Y-45857395D01*
X177892774Y-45849087D01*
X177889382Y-45840810D01*
X177887658Y-45836682D01*
X177885915Y-45832563D01*
X177884154Y-45828451D01*
X177882375Y-45824347D01*
X177880577Y-45820251D01*
X177878761Y-45816163D01*
X177876927Y-45812084D01*
X177875074Y-45808012D01*
X177873204Y-45803949D01*
X177871315Y-45799894D01*
X177869408Y-45795848D01*
X177867483Y-45791810D01*
X177865540Y-45787781D01*
X177863579Y-45783761D01*
X177861600Y-45779750D01*
X177859603Y-45775747D01*
X177857588Y-45771754D01*
X177855556Y-45767769D01*
X177853505Y-45763794D01*
X177851437Y-45759828D01*
X177849351Y-45755871D01*
X177847248Y-45751923D01*
X177845127Y-45747986D01*
X177842988Y-45744057D01*
X177840832Y-45740139D01*
X177838658Y-45736229D01*
X177836467Y-45732330D01*
X177834258Y-45728441D01*
X177832032Y-45724561D01*
X177829789Y-45720692D01*
X177827529Y-45716833D01*
X177825251Y-45712983D01*
X177822956Y-45709145D01*
X177820644Y-45705316D01*
X177818315Y-45701498D01*
X177815969Y-45697690D01*
X177813606Y-45693893D01*
X177811225Y-45690107D01*
X177808828Y-45686331D01*
X177806414Y-45682566D01*
X177803984Y-45678812D01*
X177801536Y-45675069D01*
X177799072Y-45671337D01*
X177796591Y-45667615D01*
X177794094Y-45663906D01*
X177791580Y-45660207D01*
X177789050Y-45656520D01*
X177786503Y-45652843D01*
X177783940Y-45649179D01*
X177781360Y-45645526D01*
X177778764Y-45641885D01*
X177776151Y-45638254D01*
X177773523Y-45634637D01*
X177770878Y-45631030D01*
X177768217Y-45627436D01*
X177765540Y-45623853D01*
X177762848Y-45620283D01*
X177760138Y-45616724D01*
X177757414Y-45613178D01*
X177754673Y-45609643D01*
X177751917Y-45606122D01*
X177749144Y-45602612D01*
X177746357Y-45599115D01*
X177743553Y-45595630D01*
X177740734Y-45592158D01*
X177737899Y-45588698D01*
X177735049Y-45585252D01*
X177732183Y-45581817D01*
X177729302Y-45578396D01*
X177726405Y-45574987D01*
X177723494Y-45571592D01*
X177720566Y-45568208D01*
X177717624Y-45564839D01*
X177714667Y-45561482D01*
X177711695Y-45558139D01*
X177708707Y-45554808D01*
X177705705Y-45551491D01*
X177702687Y-45548187D01*
X177699655Y-45544897D01*
X177696607Y-45541620D01*
X177693546Y-45538357D01*
X177690468Y-45535106D01*
X177687377Y-45531871D01*
X177684271Y-45528647D01*
X177681151Y-45525439D01*
X177678015Y-45522243D01*
X177672902Y-45517093D01*
D11*
X189304281Y-130883998D02*
X171323194Y-127721995D01*
X193565786Y-105224193D02*
X186565786Y-105224193D01*
X193565786Y-91224193D02*
X193565786Y-105224193D01*
X186565786Y-105224193D02*
X179565786Y-105224193D01*
X179565786Y-105224193D02*
X179565786Y-91224193D01*
X179565786Y-91224193D02*
X193565786Y-91224193D01*
D12*
X115674993Y-105902293D02*
X112303294Y-106496845D01*
X108781297Y-107117900D01*
X113243898Y-92114986D02*
X114899339Y-101503374D01*
X115674993Y-105902293D01*
D11*
X108781297Y-107117900D02*
X101887697Y-108333400D01*
D12*
X101887697Y-108333400D02*
X100575999Y-100894470D01*
X99456598Y-94546092D01*
X99456598Y-94546092D02*
X106137551Y-93368043D01*
X113243898Y-92114986D01*
D11*
X93274999Y-90152293D02*
X86381296Y-91367900D01*
X90843896Y-76365001D02*
X93274999Y-90152293D01*
X86381296Y-91367900D02*
X79487699Y-92583400D01*
D12*
X79487699Y-92583400D02*
X78774899Y-88540955D01*
X77056600Y-78796100D01*
X77056600Y-78796100D02*
X84128386Y-77549140D01*
X90843896Y-76365001D01*
D11*
X155065793Y-96724193D02*
X148065793Y-96724193D01*
X155065793Y-82724200D02*
X155065793Y-96724193D01*
X148065793Y-96724193D02*
X141065793Y-96724193D01*
X141065793Y-96724193D02*
X141065793Y-82724200D01*
X141065793Y-82724200D02*
X155065793Y-82724200D01*
X135422590Y-100348292D02*
X128432195Y-100714595D01*
X134689893Y-86367396D02*
X135422590Y-100348292D01*
X128432195Y-100714595D02*
X121441694Y-101080989D01*
X121441694Y-101080989D02*
X120708997Y-87100093D01*
X120708997Y-87100093D02*
X134689893Y-86367396D01*
X193565786Y-85974193D02*
X186565786Y-85974193D01*
X193565786Y-71974200D02*
X193565786Y-85974193D01*
X186565786Y-85974193D02*
X179565786Y-85974193D01*
X179565786Y-85974193D02*
X179565786Y-71974200D01*
X179565786Y-71974200D02*
X193565786Y-71974200D01*
X155065793Y-58224200D02*
X148065793Y-58224200D01*
X155065793Y-44224200D02*
X155065793Y-58224200D01*
X148065793Y-58224200D02*
X141065793Y-58224200D01*
X141065793Y-58224200D02*
X141065793Y-44224200D01*
X141065793Y-44224200D02*
X155065793Y-44224200D01*
X174315793Y-101974193D02*
X167315793Y-101974193D01*
X174315793Y-87974193D02*
X174315793Y-101974193D01*
X167315793Y-101974193D02*
X160315793Y-101974193D01*
X160315793Y-101974193D02*
X160315793Y-87974193D01*
X160315793Y-87974193D02*
X174315793Y-87974193D01*
X211287786Y-120040492D02*
X206499486Y-133196193D01*
X206499486Y-133196193D02*
X199921682Y-130801997D01*
D12*
X199921682Y-130801997D02*
X196964320Y-129725630D01*
X193343786Y-128407893D01*
X198132085Y-115252193D02*
X205230043Y-117835646D01*
X211287786Y-120040492D01*
X193343786Y-128407893D02*
X195951866Y-121242274D01*
X198132085Y-115252193D01*
D11*
X190274984Y-113046092D02*
X187843892Y-126833400D01*
X187843892Y-126833400D02*
X180950292Y-125617900D01*
D12*
X180950292Y-125617900D02*
X177650534Y-125036034D01*
X174056592Y-124402293D01*
X176487691Y-110614986D02*
X183606272Y-111870201D01*
X190274984Y-113046092D01*
D11*
X174056592Y-124402293D02*
X176487691Y-110614986D01*
X193565786Y-66724200D02*
X186565786Y-66724200D01*
X193565786Y-52724200D02*
X193565786Y-66724200D01*
X186565786Y-66724200D02*
X179565786Y-66724200D01*
X179565786Y-66724200D02*
X179565786Y-52724200D01*
X179565786Y-52724200D02*
X193565786Y-52724200D01*
X96674997Y-109152293D02*
X89781297Y-110367900D01*
D12*
X94243898Y-95364986D02*
X95360540Y-101697717D01*
X96674997Y-109152293D01*
D11*
X89781297Y-110367900D02*
X82887697Y-111583400D01*
X82887697Y-111583400D02*
X80456600Y-97796092D01*
D12*
X80456600Y-97796092D02*
X87059376Y-96631828D01*
X94243898Y-95364986D01*
D11*
X134422590Y-81098300D02*
X127432195Y-81464603D01*
X133689893Y-67117404D02*
X134422590Y-81098300D01*
X127432195Y-81464603D02*
X120441694Y-81830997D01*
X120441694Y-81830997D02*
X119708997Y-67850101D01*
X119708997Y-67850101D02*
X133689893Y-67117404D01*
X174315793Y-82724200D02*
X167315793Y-82724200D01*
X174315793Y-68724200D02*
X174315793Y-82724200D01*
X167315793Y-82724200D02*
X160315793Y-82724200D01*
X160315793Y-82724200D02*
X160315793Y-68724200D01*
X160315793Y-68724200D02*
X174315793Y-68724200D01*
X155065793Y-77474200D02*
X148065793Y-77474200D01*
X155065793Y-63474200D02*
X155065793Y-77474200D01*
X148065793Y-77474200D02*
X141065793Y-77474200D01*
X141065793Y-77474200D02*
X141065793Y-63474200D01*
X141065793Y-63474200D02*
X155065793Y-63474200D01*
X133422590Y-61848300D02*
X126432195Y-62214603D01*
X132689893Y-47867404D02*
X133422590Y-61848300D01*
X126432195Y-62214603D02*
X119441694Y-62580997D01*
X119441694Y-62580997D02*
X118708997Y-48600101D01*
X118708997Y-48600101D02*
X132689893Y-47867404D01*
X112274999Y-86902293D02*
X105381296Y-88117900D01*
D12*
X109843896Y-73115001D02*
X110784299Y-78448225D01*
X112274999Y-86902293D01*
D11*
X105381296Y-88117900D02*
X98487699Y-89333400D01*
X98487699Y-89333400D02*
X96056596Y-75546100D01*
X96056596Y-75546100D02*
X109843896Y-73115001D01*
X174315793Y-63474200D02*
X167315793Y-63474200D01*
X174315793Y-49474200D02*
X174315793Y-63474200D01*
X167315793Y-63474200D02*
X160315793Y-63474200D01*
X160315793Y-63474200D02*
X160315793Y-49474200D01*
X160315793Y-49474200D02*
X174315793Y-49474200D01*
M02*
